<svg width="100" height="100" viewBox="0 0 100 100" fill="none" xmlns="http://www.w3.org/2000/svg">
<path d="M97 50C97 75.9574 75.9574 97 50 97C24.0426 97 3 75.9574 3 50C3 24.0426 24.0426 3 50 3C75.9574 3 97 24.0426 97 50Z" fill="url(#paint0_linear_602_4)"/>
<path d="M71.75 32.875H28.25C27.2886 32.875 26.3666 33.2569 25.6867 33.9367C25.0069 34.6166 24.625 35.5386 24.625 36.5V65.5C24.625 66.4614 25.0069 67.3834 25.6867 68.0633C26.3666 68.7431 27.2886 69.125 28.25 69.125H71.75C72.7114 69.125 73.6334 68.7431 74.3133 68.0633C74.9931 67.3834 75.375 66.4614 75.375 65.5V36.5C75.375 35.5386 74.9931 34.6166 74.3133 33.9367C73.6334 33.2569 72.7114 32.875 71.75 32.875ZM67.7625 36.5L50 48.7887L32.2375 36.5H67.7625ZM28.25 65.5V38.1494L48.9669 52.4863C49.2703 52.6967 49.6307 52.8095 50 52.8095C50.3693 52.8095 50.7297 52.6967 51.0331 52.4863L71.75 38.1494V65.5H28.25Z" fill="#333333"/>
<path d="M50 98.5C76.7858 98.5 98.5 76.7858 98.5 50C98.5 23.2142 76.7858 1.5 50 1.5C23.2142 1.5 1.5 23.2142 1.5 50C1.5 76.7858 23.2142 98.5 50 98.5Z" stroke="black" stroke-width="3"/>
<defs>
<linearGradient id="paint0_linear_602_4" x1="50" y1="3" x2="50" y2="97" gradientUnits="userSpaceOnUse">
<stop stop-color="#D6EBFE"/>
<stop offset="1" stop-color="#FBFCF9"/>
</linearGradient>
</defs>
</svg>
