<svg width="362" height="431" viewBox="0 0 362 431" fill="none" xmlns="http://www.w3.org/2000/svg">
<path d="M171.214 23.7017C165.124 26.7071 162.66 35.45 165.261 45.0809C166.629 50.0671 166.561 50.2037 164.577 48.9059C159.034 45.2858 145.416 47.9497 129.95 55.6681C121.533 59.9712 115.648 64.2061 107.642 71.9928C92.8609 86.2001 83.828 101.022 78.4219 119.669C75.89 128.48 75.0688 135.994 75.411 148.425C75.6847 157.578 76.0268 160.174 77.2586 163.589C78.6272 167.346 78.6956 168.097 77.9429 173.083C77.0533 179.23 77.4639 187.085 79.1747 195.419C80.1327 199.927 80.338 204.776 80.4064 218.232C80.4064 234.694 80.338 235.582 78.4904 242.275C77.4639 246.1 74.7951 254.365 72.5369 260.717C69.3206 269.665 67.952 272.534 66.3781 273.9C60.6983 278.818 44.0011 308.189 36.6106 326.494C31.3414 339.677 29.8359 346.439 29.9043 357.231C29.9043 365.223 30.1781 367.272 31.752 372.6C33.8049 379.43 38.5951 388.925 42.1535 393.091L44.4117 395.823L49.7493 395.755C56.2503 395.755 65.6253 393.296 68.4994 390.905C70.0733 389.539 70.4839 389.471 70.4839 390.291C70.4839 391.657 71.1682 391.657 73.0843 390.291C75.7531 388.446 79.859 379.02 83.8964 365.223C87.5232 352.928 91.9028 341.863 97.8563 329.91C108.053 309.35 113.116 301.29 118.317 297.192C124.339 292.479 137.478 287.561 148.906 285.853L151.712 285.444L152.533 288.654C155.407 299.924 167.793 312.424 180.658 317.137C184.832 318.64 189.006 319.527 195.918 320.279C211.247 322.055 230.681 315.293 240.124 304.979L243.135 301.7L250.731 305.525C260.585 310.511 266.539 313.79 267.771 314.746C268.523 315.361 268.66 317.342 268.386 324.24C267.565 348.147 275.093 379.02 283.646 386.466C284.947 387.695 286.384 388.651 286.726 388.651C287 388.651 287.752 388.856 288.3 389.061C289.121 389.334 289.463 388.72 289.805 386.329C290.216 383.665 289.942 382.094 288.026 376.835C285.768 370.756 285.699 370.209 285.768 360.988C285.836 349.513 286.863 338.789 289.463 321.372C291.585 307.233 293.911 286.878 294.595 276.632C294.801 273.081 296.101 264.474 297.401 257.507C303.628 224.311 303.834 223.56 311.635 196.17C317.657 175.132 318.615 171.034 319.71 159.9C321.078 145.42 318.888 131.144 313.277 118.371C303.149 95.1479 284.81 74.9299 265.17 65.1624C259.559 62.3619 255.179 60.8592 247.857 59.0833C227.738 54.0971 219.321 53.2091 207.414 54.6435C204.267 55.0533 201.529 55.2582 201.392 55.0533C201.187 54.8484 202.624 52.9359 204.54 50.7502C211.52 42.9635 214.257 33.879 210.973 29.5075C208.304 25.8874 206.183 24.9312 201.324 24.9312C196.808 24.9995 193.112 26.3655 188.459 29.7124C187.09 30.737 186.953 30.6004 185.174 28.0049C181.753 22.8137 176.347 21.1744 171.214 23.7017ZM177.852 31.1468C178.605 32.1031 179.631 34.767 180.042 36.9527C181 41.6657 182.848 44.3979 185.037 44.3979C187.09 44.3979 188.596 42.6219 189.143 39.4799C189.759 36.2014 192.496 32.9227 196.055 31.3517C199.476 29.7808 201.803 29.7124 203.856 31.1468C205.156 32.1031 205.361 32.7178 205.088 34.9036C204.814 37.1576 203.377 38.9335 195.576 47.13C190.58 52.3895 185.79 56.8976 184.969 57.1024C182.984 57.6489 181.137 56.2145 177.921 51.9796C171.762 43.7831 169.64 34.767 173.062 31.1468C175.183 28.8928 176.073 28.8928 177.852 31.1468ZM164.029 52.3212L165.945 53.6189L159.171 54.0971C155.407 54.3703 150.274 55.1899 147.811 55.9413C140.968 58.0587 128.034 63.6597 121.739 67.2798C118.728 69.0557 116.127 70.3535 115.991 70.2169C115.443 69.6704 126.734 61.8838 132.072 59.1516C147.469 51.2966 158.897 48.8376 164.029 52.3212ZM167.656 53.2774C167.656 53.6189 167.314 53.9604 166.903 53.9604C166.561 53.9604 166.424 53.6189 166.629 53.2774C166.835 52.8676 167.177 52.5944 167.382 52.5944C167.519 52.5944 167.656 52.8676 167.656 53.2774ZM223.769 56.6243C226.575 56.9659 224.385 57.1707 214.873 57.5806C207.893 57.8538 201.324 58.2636 200.161 58.4685C198.518 58.8101 198.245 58.7418 198.929 58.0587C200.434 56.4194 215.215 55.5315 223.769 56.6243ZM261.406 66.3235C269.139 69.8754 277.146 75.7495 285.357 84.0143C299.317 97.8801 310.061 116.254 314.098 133.193C315.398 138.658 315.672 141.458 315.604 150.953C315.604 163.794 314.304 171.307 309.308 188.178C307.734 193.438 306.16 198.902 305.75 200.337C304.381 205.323 304.586 202.386 306.366 191.525C307.803 182.577 308.145 178.274 308.213 167.346C308.213 159.422 307.871 151.909 307.392 148.767C305.476 137.497 298.633 113.385 294.595 103.754C289.053 90.5032 275.366 76.5009 258.532 66.7334C252.305 63.1132 253.879 62.9083 261.406 66.3235ZM159.855 139.751C161.223 143.371 163.413 147.742 164.713 149.45C165.945 151.226 167.519 153.548 168.203 154.709C170.462 158.603 172.72 160.379 175.936 160.788C177.578 160.993 192.154 161.266 208.304 161.471C224.454 161.676 237.935 162.086 238.208 162.359C239.098 163.316 240.535 181.758 240.467 191.935C240.398 202.591 239.714 205.323 236.566 207.099C234.445 208.328 204.814 208.738 198.587 207.645C193.181 206.689 191.059 205.596 188.87 202.317C187.227 199.995 187.159 199.312 186.748 185.173C186.269 170.009 185.859 166.389 184.49 166.867C183.395 167.209 182.3 170.966 180.795 179.709L179.495 187.495L174.431 188.656C171.625 189.271 169.161 189.818 168.888 189.886C168.682 189.886 168.34 185.788 168.203 180.733C167.998 172.673 167.793 171.307 166.561 169.6C164.508 166.799 163.003 166.799 161.908 169.531C161.36 170.829 160.539 178.343 159.923 187.7C158.76 206.006 158.965 205.459 151.575 209.011C143.705 212.904 130.977 214.271 124.271 212.017C120.165 210.582 114.827 205.391 113.253 201.224C112.432 199.107 112.227 197.195 112.501 194.872C112.706 193.096 113.185 186.539 113.527 180.323C113.869 174.108 114.417 168.165 114.622 167.141L115.101 165.296L124.476 165.16C129.608 165.023 136.588 165.092 140.01 165.228C149.932 165.57 150.48 164.545 152.943 143.781C153.559 138.521 154.175 133.33 154.449 132.169L154.791 130.188L156.091 131.691C156.775 132.579 158.418 136.199 159.855 139.751ZM269.413 155.187C273.382 158.876 275.093 163.316 275.093 169.736C275.093 176.089 273.929 180.87 271.329 185.719C269.208 189.544 262.501 196.375 261.406 195.692C261.064 195.487 260.927 193.165 261.201 190.023C261.543 185.241 260.585 165.433 259.559 156.622C259.217 153.616 259.354 153.07 260.448 152.797C263.459 151.909 267.018 152.865 269.413 155.187ZM82.8015 177.386C85.0597 184.695 85.744 191.389 85.265 201.498C84.7176 213.178 83.6911 218.301 83.5542 209.626C83.4858 206.416 82.8699 200.473 82.1172 196.307C79.6537 182.851 79.0378 172.81 80.817 172.81C81.0907 172.81 82.0488 174.859 82.8015 177.386ZM179.631 197.126C180.453 202.591 182.437 205.869 186.68 208.67C191.265 211.675 197.423 212.426 217.337 212.426H235.403L233.76 215.637C228.696 225.609 216.721 238.86 207.414 244.871C196.876 251.701 186.748 254.433 173.815 253.887C159.307 253.272 148.153 248.423 136.52 237.631C129.471 231.073 119.481 217.959 120.644 216.798C120.849 216.593 122.834 216.798 125.092 217.208C130.977 218.369 146.305 217.003 153.285 214.749C163.003 211.538 165.535 208.738 166.903 199.449C168.135 191.32 167.656 191.867 173.678 192.072L178.879 192.277L179.631 197.126ZM204.267 258.668C203.993 259.351 203.582 262.835 203.445 266.455L203.103 272.944L213.231 281.209C218.842 285.785 224.18 290.088 225.138 290.84L226.849 292.206L225.138 294.05C222.401 296.987 215.763 299.788 209.604 300.675C198.724 302.246 185.653 299.309 176.005 293.025C170.667 289.61 164.44 283.668 165.329 282.848C165.671 282.507 168.546 281.55 171.693 280.731C174.841 279.911 178.879 278.75 180.726 278.067C182.505 277.384 184.764 276.974 185.722 277.111C187.296 277.452 187.638 277.111 188.596 274.856C189.691 272.329 189.554 269.46 188.048 263.723C187.912 263.108 189.212 262.425 191.949 261.605C194.207 260.991 197.629 259.83 199.476 259.01C203.924 257.234 204.882 257.166 204.267 258.668ZM290.216 274.378C288.231 288.312 287.752 295.348 288.779 294.733C289.805 294.118 289.532 297.875 287.41 313.175C286.726 318.435 285.631 326.29 285.015 330.593C284.468 334.896 283.783 342.683 283.51 347.874C283.304 353.065 282.825 357.027 282.552 356.753C281.388 355.592 279.746 342.614 279.404 331.412C278.993 318.571 279.609 310.921 282.346 296.099C283.715 288.312 289.326 265.021 290.695 261.264C291.79 258.19 291.516 265.294 290.216 274.378ZM58.4401 295.826C45.3697 327.997 39.3478 348.83 37.9108 367.409C37.5002 373.078 37.3633 373.624 36.6106 372.19C35.5157 370.073 33.5312 359.144 33.5312 355.182C33.5312 344.185 39.0057 327.246 48.8597 307.369C52.4181 300.334 64.462 279.296 64.8042 279.569C64.8726 279.706 62.0669 287.015 58.4401 295.826ZM160.471 287.083C162.455 292.82 170.393 299.651 179.905 303.613C197.492 310.921 220.69 308.94 230.407 299.241C233.008 296.646 233.35 296.441 234.992 297.192C237.456 298.353 237.25 299.241 233.692 302.52C220.827 314.336 202.693 318.503 187.159 313.243C175.662 309.35 167.04 302.588 160.06 292.069C155.544 285.17 155.133 283.941 157.802 284.282C159.171 284.419 159.786 285.102 160.471 287.083Z" fill="#333333"/>
<path d="M205.567 164.34C202.829 164.955 198.518 169.395 196.329 173.903C194.481 177.591 194.07 179.435 193.797 183.943C193.591 189.066 193.728 189.886 195.507 193.301C197.971 198.151 200.913 200.132 205.567 200.132C214.257 200.132 219.321 192.345 218.842 179.64L218.637 173.151L221.58 172.946C225.275 172.673 226.986 170.556 225.754 167.755C225.138 166.458 224.591 166.048 223.838 166.389C223.222 166.662 221.169 167.004 219.253 167.141C216.379 167.414 215.352 167.209 213.71 166.048C211.726 164.545 208.167 163.794 205.567 164.34Z" fill="#333333"/>
<path d="M139.052 169.19C136.588 171.102 134.946 171.307 129.882 170.487L126.597 169.941V172.605C126.597 175.747 128.445 178.138 131.456 178.752L133.44 179.094V185.378C133.44 193.369 134.672 197.194 138.367 200.541C140.899 202.795 141.378 203 144.253 202.659C146.648 202.386 147.879 201.839 149.316 200.268C151.233 198.082 152.601 194.326 152.601 191.184C152.601 187.632 150.48 177.386 149.043 173.903C146.237 167.141 143.295 165.774 139.052 169.19Z" fill="#333333"/>
<path d="M171.078 212.426C171.078 213.041 171.762 214.202 172.651 215.022C174.773 217.003 179.7 217.139 180.316 215.227C180.726 213.929 180.179 211.743 179.358 211.743C171.283 211.265 171.078 211.265 171.078 212.426Z" fill="#333333"/>
</svg>
