<svg width="197" height="51" viewBox="0 0 197 51" fill="none" xmlns="http://www.w3.org/2000/svg">
<path d="M0.55 40V5H15.4C17.4667 5 19.3333 5.5 21 6.5C22.7 7.46667 24.0333 8.8 25 10.5C26 12.2 26.5 14.1167 26.5 16.25C26.5 18.4167 26 20.3667 25 22.1C24.0333 23.8333 22.7 25.2167 21 26.25C19.3333 27.25 17.4667 27.75 15.4 27.75H8.05V40H0.55ZM7.95 21H14.55C15.35 21 16.0667 20.8 16.7 20.4C17.3333 19.9667 17.8333 19.4 18.2 18.7C18.6 18 18.8 17.2 18.8 16.3C18.8 15.4 18.6 14.6167 18.2 13.95C17.8333 13.25 17.3333 12.7167 16.7 12.35C16.0667 11.95 15.35 11.75 14.55 11.75H7.95V21ZM32.216 40V13.55H39.066L39.316 22.05L38.116 20.3C38.516 18.9333 39.166 17.7 40.066 16.6C40.966 15.4667 42.016 14.5833 43.216 13.95C44.4493 13.3167 45.7327 13 47.066 13C47.6327 13 48.1827 13.05 48.716 13.15C49.2494 13.25 49.6994 13.3667 50.066 13.5L48.166 21.3C47.766 21.1 47.2827 20.9333 46.716 20.8C46.1493 20.6333 45.566 20.55 44.966 20.55C44.166 20.55 43.416 20.7 42.716 21C42.0493 21.2667 41.466 21.6667 40.966 22.2C40.466 22.7 40.066 23.3 39.766 24C39.4993 24.7 39.366 25.4667 39.366 26.3V40H32.216ZM65.3168 40.5C62.6168 40.5 60.2001 39.9167 58.0668 38.75C55.9668 37.55 54.3001 35.9167 53.0668 33.85C51.8668 31.7833 51.2668 29.4167 51.2668 26.75C51.2668 24.0833 51.8668 21.7333 53.0668 19.7C54.3001 17.6333 55.9668 16 58.0668 14.8C60.2001 13.6 62.6168 13 65.3168 13C67.9835 13 70.3668 13.6 72.4668 14.8C74.6001 16 76.2668 17.6333 77.4668 19.7C78.6668 21.7333 79.2668 24.0833 79.2668 26.75C79.2668 29.4167 78.6668 31.7833 77.4668 33.85C76.2668 35.9167 74.6001 37.55 72.4668 38.75C70.3668 39.9167 67.9835 40.5 65.3168 40.5ZM65.3168 34.3C66.6168 34.3 67.7835 33.9833 68.8168 33.35C69.8501 32.6833 70.6501 31.7833 71.2168 30.65C71.8168 29.4833 72.1168 28.1833 72.1168 26.75C72.1168 25.2833 71.8168 23.9833 71.2168 22.85C70.6501 21.6833 69.8501 20.7833 68.8168 20.15C67.7835 19.4833 66.6168 19.15 65.3168 19.15C63.9835 19.15 62.8001 19.4833 61.7668 20.15C60.7335 20.8167 59.9168 21.7167 59.3168 22.85C58.7168 23.9833 58.4335 25.2833 58.4668 26.75C58.4335 28.1833 58.7168 29.4833 59.3168 30.65C59.9168 31.7833 60.7335 32.6833 61.7668 33.35C62.8001 33.9833 63.9835 34.3 65.3168 34.3ZM81.9586 50.3L79.3086 44.8C80.7419 44.8 81.8919 44.6 82.7586 44.2C83.6253 43.8 84.2419 43.1333 84.6086 42.2C85.0086 41.3 85.2086 40.1 85.2086 38.6V13.55H92.3086V40.3C92.3086 42.5 91.8919 44.3333 91.0586 45.8C90.2586 47.2667 89.0919 48.3833 87.5586 49.15C86.0253 49.9167 84.1586 50.3 81.9586 50.3ZM88.9086 8.1C87.5419 8.1 86.4753 7.76667 85.7086 7.1C84.9419 6.43333 84.5586 5.48333 84.5586 4.25C84.5586 3.11667 84.9419 2.2 85.7086 1.5C86.5086 0.766664 87.5753 0.399997 88.9086 0.399997C90.2753 0.399997 91.3419 0.749998 92.1086 1.45C92.8753 2.11666 93.2586 3.05 93.2586 4.25C93.2586 5.41667 92.8586 6.35 92.0586 7.05C91.2919 7.75 90.2419 8.1 88.9086 8.1ZM112.1 40.5C109.233 40.5 106.733 39.9167 104.6 38.75C102.467 37.5833 100.8 35.9833 99.6 33.95C98.4 31.9167 97.8 29.5833 97.8 26.95C97.8 24.9167 98.1333 23.05 98.8 21.35C99.4667 19.65 100.4 18.1833 101.6 16.95C102.8 15.6833 104.217 14.7167 105.85 14.05C107.517 13.35 109.317 13 111.25 13C113.05 13 114.717 13.3333 116.25 14C117.783 14.6333 119.1 15.55 120.2 16.75C121.333 17.9167 122.2 19.3 122.8 20.9C123.4 22.5 123.667 24.25 123.6 26.15L123.55 28.35H102.3L101.15 24H117.7L116.9 24.9V23.8C116.833 22.9 116.533 22.0833 116 21.35C115.5 20.6167 114.85 20.05 114.05 19.65C113.25 19.25 112.35 19.05 111.35 19.05C109.883 19.05 108.633 19.3333 107.6 19.9C106.6 20.4667 105.833 21.3 105.3 22.4C104.767 23.5 104.5 24.8333 104.5 26.4C104.5 28 104.833 29.3833 105.5 30.55C106.2 31.7167 107.167 32.6333 108.4 33.3C109.667 33.9333 111.15 34.25 112.85 34.25C114.017 34.25 115.083 34.0667 116.05 33.7C117.017 33.3333 118.05 32.7 119.15 31.8L122.55 36.55C121.583 37.4167 120.517 38.15 119.35 38.75C118.183 39.3167 116.983 39.75 115.75 40.05C114.517 40.35 113.3 40.5 112.1 40.5ZM140.347 40.5C137.814 40.5 135.547 39.9 133.547 38.7C131.547 37.5 129.964 35.8667 128.797 33.8C127.664 31.7333 127.097 29.3833 127.097 26.75C127.097 24.15 127.664 21.8167 128.797 19.75C129.964 17.65 131.547 16 133.547 14.8C135.547 13.6 137.814 13 140.347 13C142.714 13 144.88 13.4333 146.847 14.3C148.814 15.1667 150.347 16.3667 151.447 17.9L147.547 22.6C147.08 21.9667 146.497 21.4 145.797 20.9C145.097 20.3667 144.33 19.95 143.497 19.65C142.697 19.35 141.864 19.2 140.997 19.2C139.63 19.2 138.414 19.5333 137.347 20.2C136.314 20.8333 135.497 21.7167 134.897 22.85C134.297 23.9833 133.997 25.2833 133.997 26.75C133.997 28.1833 134.297 29.4667 134.897 30.6C135.53 31.7 136.38 32.6 137.447 33.3C138.514 33.9667 139.714 34.3 141.047 34.3C141.914 34.3 142.73 34.1833 143.497 33.95C144.264 33.6833 144.98 33.3 145.647 32.8C146.347 32.3 146.98 31.7 147.547 31L151.397 35.7C150.264 37.1333 148.697 38.3 146.697 39.2C144.697 40.0667 142.58 40.5 140.347 40.5ZM158.496 40V6.85H165.596V40H158.496ZM153.546 19.9V13.55H170.996V19.9H153.546ZM185.501 40.5C183.034 40.5 180.834 40.1 178.901 39.3C177.001 38.4667 175.467 37.3333 174.301 35.9L178.701 32.1C179.734 33.2 180.884 34 182.151 34.5C183.417 34.9667 184.684 35.2 185.951 35.2C186.451 35.2 186.901 35.15 187.301 35.05C187.734 34.9167 188.101 34.75 188.401 34.55C188.701 34.3167 188.917 34.05 189.051 33.75C189.217 33.4167 189.301 33.0667 189.301 32.7C189.301 31.9667 189.001 31.3833 188.401 30.95C188.067 30.7833 187.551 30.5833 186.851 30.35C186.151 30.0833 185.251 29.8 184.151 29.5C182.451 29.0667 181.001 28.5667 179.801 28C178.634 27.4 177.701 26.7333 177.001 26C176.401 25.3 175.934 24.55 175.601 23.75C175.301 22.9167 175.151 22 175.151 21C175.151 19.8 175.417 18.7167 175.951 17.75C176.484 16.75 177.217 15.9 178.151 15.2C179.117 14.5 180.217 13.9667 181.451 13.6C182.684 13.2 183.984 13 185.351 13C186.717 13 188.051 13.1667 189.351 13.5C190.651 13.8333 191.851 14.3167 192.951 14.95C194.084 15.55 195.067 16.2667 195.901 17.1L192.101 21.3C191.501 20.7333 190.817 20.2167 190.051 19.75C189.317 19.2833 188.551 18.9167 187.751 18.65C186.951 18.3833 186.234 18.25 185.601 18.25C185.034 18.25 184.517 18.3 184.051 18.4C183.617 18.5 183.251 18.65 182.951 18.85C182.651 19.05 182.417 19.3167 182.251 19.65C182.117 19.95 182.051 20.2833 182.051 20.65C182.051 21.0167 182.134 21.3667 182.301 21.7C182.501 22.0333 182.767 22.3167 183.101 22.55C183.467 22.75 184.001 22.9833 184.701 23.25C185.434 23.5167 186.417 23.8167 187.651 24.15C189.251 24.5833 190.601 25.0667 191.701 25.6C192.834 26.1333 193.734 26.75 194.401 27.45C194.967 28.05 195.384 28.7333 195.651 29.5C195.917 30.2667 196.051 31.1167 196.051 32.05C196.051 33.6833 195.584 35.15 194.651 36.45C193.751 37.7167 192.501 38.7167 190.901 39.45C189.301 40.15 187.501 40.5 185.501 40.5Z" fill="#333333"/>
</svg>
