<svg width="295" height="144" viewBox="0 0 295 144" fill="none" xmlns="http://www.w3.org/2000/svg">
<path d="M1.75 19V17.15H4.575V3.35H1.75V1.5H9.35V3.35H6.525V17.15H9.35V19H1.75ZM25.0402 19.25C23.9069 19.25 22.8819 18.9583 21.9652 18.375C21.0486 17.775 20.3236 16.9667 19.7902 15.95C19.2569 14.9167 18.9902 13.75 18.9902 12.45C18.9902 11.1333 19.2652 9.96667 19.8152 8.95C20.3652 7.93333 21.0986 7.13333 22.0152 6.55C22.9486 5.96667 23.9902 5.675 25.1402 5.675C25.8236 5.675 26.4569 5.775 27.0402 5.975C27.6236 6.175 28.1402 6.45833 28.5902 6.825C29.0569 7.175 29.4402 7.59167 29.7402 8.075C30.0569 8.54167 30.2736 9.05 30.3902 9.6L29.8402 9.325L29.9152 5.95H31.7902V19H29.8902V15.8L30.3902 15.475C30.2736 15.975 30.0486 16.4583 29.7152 16.925C29.3819 17.375 28.9736 17.775 28.4902 18.125C28.0236 18.475 27.4902 18.75 26.8902 18.95C26.3069 19.15 25.6902 19.25 25.0402 19.25ZM25.4652 17.45C26.3319 17.45 27.1069 17.2417 27.7902 16.825C28.4736 16.3917 29.0069 15.8 29.3902 15.05C29.7902 14.2833 29.9902 13.4167 29.9902 12.45C29.9902 11.4833 29.7902 10.625 29.3902 9.875C29.0069 9.125 28.4736 8.53333 27.7902 8.1C27.1069 7.66667 26.3319 7.45 25.4652 7.45C24.5819 7.45 23.7986 7.66667 23.1152 8.1C22.4486 8.53333 21.9152 9.125 21.5152 9.875C21.1319 10.625 20.9402 11.4833 20.9402 12.45C20.9402 13.4 21.1319 14.2583 21.5152 15.025C21.8986 15.775 22.4319 16.3667 23.1152 16.8C23.7986 17.2333 24.5819 17.45 25.4652 17.45ZM35.4182 19V5.95H37.2932L37.3432 8.925L36.9682 9.05C37.1015 8.55 37.3182 8.1 37.6182 7.7C37.9348 7.28333 38.3098 6.925 38.7432 6.625C39.1765 6.325 39.6515 6.1 40.1682 5.95C40.6848 5.78333 41.2265 5.7 41.7932 5.7C42.4765 5.7 43.0848 5.81667 43.6182 6.05C44.1682 6.26667 44.6265 6.65 44.9932 7.2C45.3765 7.73333 45.6682 8.44167 45.8682 9.325L45.4182 9.1L45.5932 8.675C45.7598 8.29167 46.0015 7.925 46.3182 7.575C46.6515 7.20833 47.0265 6.88333 47.4432 6.6C47.8765 6.31667 48.3432 6.1 48.8432 5.95C49.3598 5.78333 49.8848 5.7 50.4182 5.7C51.3348 5.7 52.1098 5.9 52.7432 6.3C53.3765 6.68333 53.8515 7.275 54.1682 8.075C54.5015 8.875 54.6682 9.89167 54.6682 11.125V19H52.7432V11.225C52.7432 10.3583 52.6348 9.65 52.4182 9.1C52.2015 8.55 51.8765 8.14167 51.4432 7.875C51.0265 7.59167 50.4932 7.45 49.8432 7.45C49.2765 7.45 48.7515 7.55 48.2682 7.75C47.8015 7.93333 47.3932 8.2 47.0432 8.55C46.7098 8.88333 46.4432 9.26667 46.2432 9.7C46.0598 10.1333 45.9682 10.6 45.9682 11.1V19H44.0682V11.2C44.0682 10.3667 43.9515 9.675 43.7182 9.125C43.5015 8.575 43.1765 8.15833 42.7432 7.875C42.3098 7.59167 41.7765 7.45 41.1432 7.45C40.5932 7.45 40.0848 7.55 39.6182 7.75C39.1515 7.93333 38.7432 8.19167 38.3932 8.525C38.0598 8.85833 37.7932 9.24167 37.5932 9.675C37.4098 10.1083 37.3182 10.575 37.3182 11.075V19H35.4182ZM70.7283 19.25C69.495 19.25 68.395 18.9583 67.4283 18.375C66.4617 17.775 65.695 16.9667 65.1283 15.95C64.5783 14.9167 64.3033 13.75 64.3033 12.45C64.3033 11.15 64.5783 9.99167 65.1283 8.975C65.695 7.94167 66.4617 7.13333 67.4283 6.55C68.395 5.96667 69.5033 5.675 70.7533 5.675C71.87 5.675 72.8867 5.9 73.8033 6.35C74.72 6.78333 75.4533 7.39167 76.0033 8.175L74.9033 9.525C74.5867 9.10833 74.2033 8.74167 73.7533 8.425C73.32 8.10833 72.845 7.86667 72.3283 7.7C71.8283 7.51667 71.3283 7.425 70.8283 7.425C69.945 7.425 69.1533 7.65 68.4533 8.1C67.7533 8.53333 67.195 9.125 66.7783 9.875C66.3783 10.625 66.1783 11.4833 66.1783 12.45C66.1783 13.4167 66.3783 14.2833 66.7783 15.05C67.195 15.8 67.7533 16.3917 68.4533 16.825C69.1533 17.2583 69.9367 17.475 70.8033 17.475C71.3033 17.475 71.795 17.4 72.2783 17.25C72.7617 17.0833 73.22 16.85 73.6533 16.55C74.0867 16.25 74.4867 15.875 74.8533 15.425L75.9533 16.775C75.3867 17.525 74.6283 18.125 73.6783 18.575C72.7283 19.025 71.745 19.25 70.7283 19.25ZM83.0125 19.25C82.0125 19.25 81.1625 19.05 80.4625 18.65C79.7792 18.2333 79.2542 17.6333 78.8875 16.85C78.5375 16.0667 78.3625 15.0917 78.3625 13.925V5.95H80.2625V13.55C80.2625 14.4333 80.3792 15.175 80.6125 15.775C80.8625 16.3583 81.2292 16.8 81.7125 17.1C82.2125 17.4 82.8208 17.55 83.5375 17.55C84.0875 17.55 84.5958 17.4583 85.0625 17.275C85.5292 17.075 85.9375 16.8083 86.2875 16.475C86.6375 16.1417 86.9125 15.75 87.1125 15.3C87.3125 14.85 87.4125 14.375 87.4125 13.875V5.95H89.2875V19H87.4375L87.3625 16.25L87.6625 16.1C87.4625 16.6833 87.1292 17.2167 86.6625 17.7C86.1958 18.1667 85.6375 18.5417 84.9875 18.825C84.3542 19.1083 83.6958 19.25 83.0125 19.25ZM92.9383 19V5.95H94.8133L94.8633 9.425L94.6633 8.95C94.8466 8.36667 95.1383 7.825 95.5383 7.325C95.9549 6.825 96.4466 6.425 97.0133 6.125C97.5799 5.825 98.2049 5.675 98.8883 5.675C99.1716 5.675 99.4383 5.7 99.6883 5.75C99.9383 5.78333 100.147 5.83333 100.313 5.9L99.7883 8C99.5716 7.9 99.3466 7.83333 99.1133 7.8C98.8966 7.75 98.6883 7.725 98.4883 7.725C97.9216 7.725 97.4133 7.825 96.9633 8.025C96.5133 8.225 96.1299 8.50833 95.8133 8.875C95.4966 9.225 95.2549 9.63333 95.0883 10.1C94.9216 10.5667 94.8383 11.0667 94.8383 11.6V19H92.9383ZM102.264 19V5.95H104.139L104.189 9.425L103.989 8.95C104.173 8.36667 104.464 7.825 104.864 7.325C105.281 6.825 105.773 6.425 106.339 6.125C106.906 5.825 107.531 5.675 108.214 5.675C108.498 5.675 108.764 5.7 109.014 5.75C109.264 5.78333 109.473 5.83333 109.639 5.9L109.114 8C108.898 7.9 108.673 7.83333 108.439 7.8C108.223 7.75 108.014 7.725 107.814 7.725C107.248 7.725 106.739 7.825 106.289 8.025C105.839 8.225 105.456 8.50833 105.139 8.875C104.823 9.225 104.581 9.63333 104.414 10.1C104.248 10.5667 104.164 11.0667 104.164 11.6V19H102.264ZM116.779 19.25C115.479 19.25 114.321 18.9667 113.304 18.4C112.304 17.8333 111.521 17.0417 110.954 16.025C110.387 15.0083 110.104 13.8417 110.104 12.525C110.104 11.5083 110.262 10.5917 110.579 9.775C110.896 8.94167 111.337 8.21667 111.904 7.6C112.487 6.98333 113.179 6.50833 113.979 6.175C114.779 5.825 115.646 5.65 116.579 5.65C117.462 5.65 118.262 5.80833 118.979 6.125C119.712 6.44167 120.337 6.88333 120.854 7.45C121.387 8 121.787 8.65833 122.054 9.425C122.321 10.1917 122.437 11.0333 122.404 11.95L122.379 12.825H111.504L111.229 11.25H120.954L120.504 11.675V11.075C120.471 10.475 120.296 9.9 119.979 9.35C119.662 8.78333 119.212 8.325 118.629 7.975C118.062 7.625 117.379 7.45 116.579 7.45C115.646 7.45 114.837 7.64167 114.154 8.025C113.471 8.39167 112.946 8.94167 112.579 9.675C112.212 10.4083 112.029 11.3167 112.029 12.4C112.029 13.4333 112.229 14.3333 112.629 15.1C113.029 15.85 113.596 16.4333 114.329 16.85C115.079 17.2667 115.979 17.475 117.029 17.475C117.646 17.475 118.254 17.375 118.854 17.175C119.471 16.9583 120.146 16.5417 120.879 15.925L121.854 17.275C121.471 17.6583 121.012 18 120.479 18.3C119.946 18.5833 119.362 18.8167 118.729 19C118.096 19.1667 117.446 19.25 116.779 19.25ZM125.067 19V5.95H126.917L126.992 8.675L126.692 8.8C126.859 8.23333 127.184 7.71667 127.667 7.25C128.151 6.78333 128.726 6.40833 129.392 6.125C130.076 5.825 130.776 5.675 131.492 5.675C132.459 5.675 133.267 5.86667 133.917 6.25C134.567 6.63333 135.059 7.225 135.392 8.025C135.726 8.825 135.892 9.84167 135.892 11.075V19H133.992V11.175C133.992 10.3083 133.876 9.6 133.642 9.05C133.426 8.48333 133.084 8.06667 132.617 7.8C132.151 7.53333 131.576 7.40833 130.892 7.425C130.326 7.425 129.801 7.525 129.317 7.725C128.834 7.90833 128.417 8.16667 128.067 8.5C127.717 8.83333 127.442 9.21667 127.242 9.65C127.042 10.0833 126.942 10.55 126.942 11.05V19H126.017C125.901 19 125.767 19 125.617 19C125.467 19 125.284 19 125.067 19ZM141.271 19V2.525H143.146V19H141.271ZM138.321 7.75V5.95H146.446V7.75H138.321ZM148.799 19V0.5H150.674V19H148.799ZM156.198 24.75L158.723 18.6L158.898 20.375L152.348 5.95H154.473L158.948 15.95C159.081 16.2167 159.215 16.5333 159.348 16.9C159.481 17.25 159.606 17.6 159.723 17.95L159.023 17.875C159.14 17.5917 159.248 17.3 159.348 17C159.465 16.7 159.573 16.4083 159.673 16.125L163.598 5.95H165.748L160.473 19L158.223 24.75H156.198ZM180.475 19.25C179.175 19.25 178.017 18.9667 177 18.4C176 17.8333 175.217 17.0417 174.65 16.025C174.084 15.0083 173.8 13.8417 173.8 12.525C173.8 11.5083 173.959 10.5917 174.275 9.775C174.592 8.94167 175.034 8.21667 175.6 7.6C176.184 6.98333 176.875 6.50833 177.675 6.175C178.475 5.825 179.342 5.65 180.275 5.65C181.159 5.65 181.959 5.80833 182.675 6.125C183.409 6.44167 184.034 6.88333 184.55 7.45C185.084 8 185.484 8.65833 185.75 9.425C186.017 10.1917 186.134 11.0333 186.1 11.95L186.075 12.825H175.2L174.925 11.25H184.65L184.2 11.675V11.075C184.167 10.475 183.992 9.9 183.675 9.35C183.359 8.78333 182.909 8.325 182.325 7.975C181.759 7.625 181.075 7.45 180.275 7.45C179.342 7.45 178.534 7.64167 177.85 8.025C177.167 8.39167 176.642 8.94167 176.275 9.675C175.909 10.4083 175.725 11.3167 175.725 12.4C175.725 13.4333 175.925 14.3333 176.325 15.1C176.725 15.85 177.292 16.4333 178.025 16.85C178.775 17.2667 179.675 17.475 180.725 17.475C181.342 17.475 181.95 17.375 182.55 17.175C183.167 16.9583 183.842 16.5417 184.575 15.925L185.55 17.275C185.167 17.6583 184.709 18 184.175 18.3C183.642 18.5833 183.059 18.8167 182.425 19C181.792 19.1667 181.142 19.25 180.475 19.25ZM197.565 19L193.04 13.175L192.815 12.9L187.39 5.95H189.765L194.215 11.675L194.465 12L199.915 19H197.565ZM187.29 19L192.615 12.125L193.74 13.475L189.54 19H187.29ZM194.59 12.6L193.515 11.275L197.315 5.95H199.59L194.59 12.6ZM202.142 24.5V5.95H204.017L204.067 9.125L203.717 9.175C203.867 8.54167 204.192 7.96667 204.692 7.45C205.192 6.91667 205.801 6.49167 206.517 6.175C207.234 5.85833 207.992 5.7 208.792 5.7C209.959 5.7 211.001 5.99167 211.917 6.575C212.851 7.15833 213.592 7.95833 214.142 8.975C214.692 9.99167 214.967 11.1583 214.967 12.475C214.967 13.775 214.701 14.9333 214.167 15.95C213.634 16.9667 212.901 17.775 211.967 18.375C211.034 18.9583 209.984 19.25 208.817 19.25C208.001 19.25 207.226 19.0833 206.492 18.75C205.759 18.4167 205.134 17.9833 204.617 17.45C204.101 16.9 203.759 16.3083 203.592 15.675H204.042V24.5H202.142ZM208.517 17.45C209.401 17.45 210.184 17.2333 210.867 16.8C211.551 16.3667 212.092 15.775 212.492 15.025C212.892 14.275 213.092 13.425 213.092 12.475C213.092 11.5083 212.892 10.65 212.492 9.9C212.092 9.15 211.551 8.55833 210.867 8.125C210.184 7.69167 209.401 7.475 208.517 7.475C207.634 7.475 206.842 7.69167 206.142 8.125C205.459 8.54167 204.917 9.125 204.517 9.875C204.117 10.625 203.917 11.4833 203.917 12.45C203.917 13.4167 204.117 14.275 204.517 15.025C204.917 15.775 205.459 16.3667 206.142 16.8C206.842 17.2333 207.634 17.45 208.517 17.45ZM217.744 19V0.5H219.619V19H217.744ZM228.84 19.25C227.54 19.25 226.382 18.9583 225.365 18.375C224.365 17.7917 223.574 16.9833 222.99 15.95C222.424 14.9167 222.14 13.7417 222.14 12.425C222.14 11.125 222.424 9.96667 222.99 8.95C223.574 7.93333 224.365 7.13333 225.365 6.55C226.382 5.96667 227.54 5.675 228.84 5.675C230.124 5.675 231.265 5.96667 232.265 6.55C233.282 7.13333 234.074 7.93333 234.64 8.95C235.224 9.96667 235.515 11.125 235.515 12.425C235.515 13.7417 235.224 14.9167 234.64 15.95C234.074 16.9833 233.282 17.7917 232.265 18.375C231.265 18.9583 230.124 19.25 228.84 19.25ZM228.84 17.475C229.757 17.475 230.574 17.2583 231.29 16.825C232.007 16.375 232.565 15.775 232.965 15.025C233.365 14.2583 233.565 13.3917 233.565 12.425C233.565 11.4583 233.365 10.6 232.965 9.85C232.565 9.1 232.007 8.51667 231.29 8.1C230.574 7.66667 229.757 7.45 228.84 7.45C227.924 7.45 227.099 7.66667 226.365 8.1C225.649 8.51667 225.082 9.10833 224.665 9.875C224.265 10.625 224.074 11.475 224.09 12.425C224.074 13.3917 224.265 14.2583 224.665 15.025C225.082 15.775 225.649 16.375 226.365 16.825C227.099 17.2583 227.924 17.475 228.84 17.475ZM238.251 19V5.95H240.126L240.176 9.425L239.976 8.95C240.159 8.36667 240.451 7.825 240.851 7.325C241.267 6.825 241.759 6.425 242.326 6.125C242.892 5.825 243.517 5.675 244.201 5.675C244.484 5.675 244.751 5.7 245.001 5.75C245.251 5.78333 245.459 5.83333 245.626 5.9L245.101 8C244.884 7.9 244.659 7.83333 244.426 7.8C244.209 7.75 244.001 7.725 243.801 7.725C243.234 7.725 242.726 7.825 242.276 8.025C241.826 8.225 241.442 8.50833 241.126 8.875C240.809 9.225 240.567 9.63333 240.401 10.1C240.234 10.5667 240.151 11.0667 240.151 11.6V19H238.251ZM248.077 19V5.95H249.952V19H248.077ZM249.002 3.125C248.535 3.125 248.177 3.00833 247.927 2.775C247.694 2.525 247.577 2.19167 247.577 1.775C247.577 1.35833 247.702 1.025 247.952 0.774999C248.202 0.524999 248.552 0.4 249.002 0.4C249.452 0.4 249.802 0.524999 250.052 0.774999C250.302 1.00833 250.427 1.34167 250.427 1.775C250.427 2.175 250.302 2.5 250.052 2.75C249.802 3 249.452 3.125 249.002 3.125ZM254.047 19V5.95H255.897L255.972 8.675L255.672 8.8C255.838 8.23333 256.163 7.71667 256.647 7.25C257.13 6.78333 257.705 6.40833 258.372 6.125C259.055 5.825 259.755 5.675 260.472 5.675C261.438 5.675 262.247 5.86667 262.897 6.25C263.547 6.63333 264.038 7.225 264.372 8.025C264.705 8.825 264.872 9.84167 264.872 11.075V19H262.972V11.175C262.972 10.3083 262.855 9.6 262.622 9.05C262.405 8.48333 262.063 8.06667 261.597 7.8C261.13 7.53333 260.555 7.40833 259.872 7.425C259.305 7.425 258.78 7.525 258.297 7.725C257.813 7.90833 257.397 8.16667 257.047 8.5C256.697 8.83333 256.422 9.21667 256.222 9.65C256.022 10.0833 255.922 10.55 255.922 11.05V19H254.997C254.88 19 254.747 19 254.597 19C254.447 19 254.263 19 254.047 19ZM274.076 24.75C273.109 24.75 272.193 24.6 271.326 24.3C270.459 24 269.743 23.625 269.176 23.175L269.926 21.6C270.259 21.8667 270.643 22.1 271.076 22.3C271.526 22.5167 272.009 22.6833 272.526 22.8C273.043 22.9333 273.568 23 274.101 23C275.068 23 275.884 22.8167 276.551 22.45C277.234 22.1 277.751 21.575 278.101 20.875C278.468 20.175 278.651 19.3083 278.651 18.275V15.775L278.951 15.7C278.801 16.3333 278.476 16.925 277.976 17.475C277.476 18.0083 276.868 18.4417 276.151 18.775C275.434 19.0917 274.676 19.25 273.876 19.25C272.659 19.25 271.568 18.9583 270.601 18.375C269.651 17.7917 268.901 16.9917 268.351 15.975C267.801 14.9417 267.526 13.775 267.526 12.475C267.526 11.1583 267.801 9.99167 268.351 8.975C268.918 7.94167 269.676 7.13333 270.626 6.55C271.576 5.96667 272.643 5.675 273.826 5.675C274.343 5.675 274.843 5.74167 275.326 5.875C275.809 5.99167 276.251 6.16667 276.651 6.4C277.068 6.63333 277.443 6.9 277.776 7.2C278.109 7.5 278.384 7.825 278.601 8.175C278.834 8.525 279.001 8.88333 279.101 9.25L278.576 9.175L278.651 5.95H280.526V18.2C280.526 19.25 280.376 20.175 280.076 20.975C279.776 21.7917 279.334 22.475 278.751 23.025C278.184 23.5917 277.501 24.0167 276.701 24.3C275.918 24.6 275.043 24.75 274.076 24.75ZM274.101 17.45C274.984 17.45 275.768 17.2417 276.451 16.825C277.151 16.3917 277.701 15.8 278.101 15.05C278.501 14.3 278.701 13.4333 278.701 12.45C278.701 11.4833 278.501 10.625 278.101 9.875C277.718 9.125 277.176 8.53333 276.476 8.1C275.776 7.66667 274.984 7.45 274.101 7.45C273.201 7.45 272.401 7.66667 271.701 8.1C271.018 8.53333 270.476 9.125 270.076 9.875C269.676 10.625 269.476 11.4833 269.476 12.45C269.476 13.4 269.668 14.2583 270.051 15.025C270.451 15.775 270.993 16.3667 271.676 16.8C272.376 17.2333 273.184 17.45 274.101 17.45ZM9.475 50.15C8.05833 50.15 6.79167 49.8583 5.675 49.275C4.575 48.675 3.70833 47.8583 3.075 46.825C2.44167 45.775 2.125 44.5917 2.125 43.275V32.475H5.9V43.05C5.9 43.75 6.05833 44.3833 6.375 44.95C6.69167 45.5 7.11667 45.9417 7.65 46.275C8.2 46.6083 8.80833 46.775 9.475 46.775C10.1583 46.775 10.775 46.6083 11.325 46.275C11.8917 45.9417 12.3333 45.5 12.65 44.95C12.9833 44.3833 13.15 43.75 13.15 43.05V32.475H16.8V43.275C16.8 44.5917 16.4833 45.775 15.85 46.825C15.2167 47.8583 14.3417 48.675 13.225 49.275C12.125 49.8583 10.875 50.15 9.475 50.15ZM20.7459 50V46.775H23.6709V35.725H20.7459V32.5H30.3459V35.725H27.4209V46.775H30.3459V50H20.7459ZM32.4527 53.475L42.8277 32.5H46.3277L35.9777 53.475H32.4527ZM56.2279 50.15C54.8113 50.15 53.5446 49.8583 52.4279 49.275C51.3279 48.675 50.4613 47.8583 49.8279 46.825C49.1946 45.775 48.8779 44.5917 48.8779 43.275V32.475H52.6529V43.05C52.6529 43.75 52.8113 44.3833 53.1279 44.95C53.4446 45.5 53.8696 45.9417 54.4029 46.275C54.9529 46.6083 55.5613 46.775 56.2279 46.775C56.9113 46.775 57.5279 46.6083 58.0779 46.275C58.6446 45.9417 59.0863 45.5 59.4029 44.95C59.7363 44.3833 59.9029 43.75 59.9029 43.05V32.475H63.5529V43.275C63.5529 44.5917 63.2363 45.775 62.6029 46.825C61.9696 47.8583 61.0946 48.675 59.9779 49.275C58.8779 49.8583 57.6279 50.15 56.2279 50.15ZM78.1047 50L72.6797 42.15L65.7297 32.5H70.3297L75.6297 40.25L82.7047 50H78.1047ZM65.6047 50L72.2797 40.475L75.1297 42.45L69.9547 50H65.6047ZM76.0297 41.875L73.2047 39.975L78.1047 32.5H82.4547L76.0297 41.875ZM92.8268 50V32.5H100.002C101.285 32.5 102.443 32.7167 103.477 33.15C104.527 33.5667 105.427 34.1667 106.177 34.95C106.943 35.7167 107.527 36.6333 107.927 37.7C108.327 38.7667 108.527 39.95 108.527 41.25C108.527 42.5333 108.327 43.7167 107.927 44.8C107.527 45.8667 106.952 46.7917 106.202 47.575C105.452 48.3417 104.552 48.9417 103.502 49.375C102.452 49.7917 101.285 50 100.002 50H92.8268ZM96.5768 47.275L96.1768 46.625H99.8768C100.627 46.625 101.302 46.5 101.902 46.25C102.502 45.9833 103.01 45.625 103.427 45.175C103.86 44.7083 104.185 44.1417 104.402 43.475C104.618 42.8083 104.727 42.0667 104.727 41.25C104.727 40.4333 104.618 39.7 104.402 39.05C104.185 38.3833 103.86 37.8167 103.427 37.35C103.01 36.8833 102.502 36.525 101.902 36.275C101.302 36.0083 100.627 35.875 99.8768 35.875H96.1018L96.5768 35.275V47.275ZM117.694 50.25C116.26 50.25 115.01 49.9583 113.944 49.375C112.877 48.7917 112.044 47.9917 111.444 46.975C110.844 45.9583 110.544 44.7917 110.544 43.475C110.544 42.4583 110.71 41.525 111.044 40.675C111.377 39.825 111.844 39.0917 112.444 38.475C113.044 37.8417 113.752 37.3583 114.569 37.025C115.402 36.675 116.302 36.5 117.269 36.5C118.169 36.5 119.002 36.6667 119.769 37C120.535 37.3167 121.194 37.775 121.744 38.375C122.31 38.9583 122.744 39.65 123.044 40.45C123.344 41.25 123.477 42.125 123.444 43.075L123.419 44.175H112.794L112.219 42H120.494L120.094 42.45V41.9C120.06 41.45 119.91 41.0417 119.644 40.675C119.394 40.3083 119.069 40.025 118.669 39.825C118.269 39.625 117.819 39.525 117.319 39.525C116.585 39.525 115.96 39.6667 115.444 39.95C114.944 40.2333 114.56 40.65 114.294 41.2C114.027 41.75 113.894 42.4167 113.894 43.2C113.894 44 114.06 44.6917 114.394 45.275C114.744 45.8583 115.227 46.3167 115.844 46.65C116.477 46.9667 117.219 47.125 118.069 47.125C118.652 47.125 119.185 47.0333 119.669 46.85C120.152 46.6667 120.669 46.35 121.219 45.9L122.919 48.275C122.435 48.7083 121.902 49.075 121.319 49.375C120.735 49.6583 120.135 49.875 119.519 50.025C118.902 50.175 118.294 50.25 117.694 50.25ZM130.517 50.25C129.284 50.25 128.184 50.05 127.217 49.65C126.267 49.2333 125.5 48.6667 124.917 47.95L127.117 46.05C127.634 46.6 128.209 47 128.842 47.25C129.475 47.4833 130.109 47.6 130.742 47.6C130.992 47.6 131.217 47.575 131.417 47.525C131.634 47.4583 131.817 47.375 131.967 47.275C132.117 47.1583 132.225 47.025 132.292 46.875C132.375 46.7083 132.417 46.5333 132.417 46.35C132.417 45.9833 132.267 45.6917 131.967 45.475C131.8 45.3917 131.542 45.2917 131.192 45.175C130.842 45.0417 130.392 44.9 129.842 44.75C128.992 44.5333 128.267 44.2833 127.667 44C127.084 43.7 126.617 43.3667 126.267 43C125.967 42.65 125.734 42.275 125.567 41.875C125.417 41.4583 125.342 41 125.342 40.5C125.342 39.9 125.475 39.3583 125.742 38.875C126.009 38.375 126.375 37.95 126.842 37.6C127.325 37.25 127.875 36.9833 128.492 36.8C129.109 36.6 129.759 36.5 130.442 36.5C131.125 36.5 131.792 36.5833 132.442 36.75C133.092 36.9167 133.692 37.1583 134.242 37.475C134.809 37.775 135.3 38.1333 135.717 38.55L133.817 40.65C133.517 40.3667 133.175 40.1083 132.792 39.875C132.425 39.6417 132.042 39.4583 131.642 39.325C131.242 39.1917 130.884 39.125 130.567 39.125C130.284 39.125 130.025 39.15 129.792 39.2C129.575 39.25 129.392 39.325 129.242 39.425C129.092 39.525 128.975 39.6583 128.892 39.825C128.825 39.975 128.792 40.1417 128.792 40.325C128.792 40.5083 128.834 40.6833 128.917 40.85C129.017 41.0167 129.15 41.1583 129.317 41.275C129.5 41.375 129.767 41.4917 130.117 41.625C130.484 41.7583 130.975 41.9083 131.592 42.075C132.392 42.2917 133.067 42.5333 133.617 42.8C134.184 43.0667 134.634 43.375 134.967 43.725C135.25 44.025 135.459 44.3667 135.592 44.75C135.725 45.1333 135.792 45.5583 135.792 46.025C135.792 46.8417 135.559 47.575 135.092 48.225C134.642 48.8583 134.017 49.3583 133.217 49.725C132.417 50.075 131.517 50.25 130.517 50.25ZM138.623 50V36.775H142.173V50H138.623ZM140.373 34.05C139.69 34.05 139.156 33.8833 138.773 33.55C138.39 33.2167 138.198 32.7417 138.198 32.125C138.198 31.5583 138.39 31.1 138.773 30.75C139.173 30.3833 139.706 30.2 140.373 30.2C141.056 30.2 141.59 30.375 141.973 30.725C142.356 31.0583 142.548 31.525 142.548 32.125C142.548 32.7083 142.348 33.175 141.948 33.525C141.565 33.875 141.04 34.05 140.373 34.05ZM151.989 55.75C150.939 55.75 149.906 55.5917 148.889 55.275C147.873 54.975 147.048 54.5833 146.414 54.1L147.664 51.55C147.998 51.7833 148.381 51.9917 148.814 52.175C149.248 52.3583 149.698 52.5 150.164 52.6C150.648 52.7 151.139 52.75 151.639 52.75C152.506 52.75 153.214 52.6167 153.764 52.35C154.331 52.0833 154.756 51.6833 155.039 51.15C155.323 50.6333 155.464 49.9667 155.464 49.15V46.85L156.064 46.975C155.964 47.525 155.689 48.0333 155.239 48.5C154.789 48.95 154.223 49.3167 153.539 49.6C152.856 49.8667 152.156 50 151.439 50C150.206 50 149.114 49.7167 148.164 49.15C147.214 48.5833 146.464 47.8 145.914 46.8C145.364 45.8 145.089 44.65 145.089 43.35C145.089 42.0167 145.356 40.8417 145.889 39.825C146.439 38.7917 147.181 37.9833 148.114 37.4C149.064 36.8 150.139 36.5 151.339 36.5C151.839 36.5 152.314 36.5583 152.764 36.675C153.231 36.7917 153.656 36.9583 154.039 37.175C154.439 37.375 154.789 37.6083 155.089 37.875C155.406 38.125 155.664 38.4 155.864 38.7C156.064 39 156.189 39.3 156.239 39.6L155.514 39.8L155.614 36.775H159.014V49C159.014 50.0833 158.856 51.0417 158.539 51.875C158.223 52.7083 157.756 53.4083 157.139 53.975C156.539 54.5583 155.798 55 154.914 55.3C154.048 55.6 153.073 55.75 151.989 55.75ZM152.089 47.15C152.789 47.15 153.398 46.9917 153.914 46.675C154.448 46.3583 154.856 45.9167 155.139 45.35C155.423 44.7833 155.564 44.1167 155.564 43.35C155.564 42.6 155.423 41.9417 155.139 41.375C154.856 40.7917 154.448 40.3417 153.914 40.025C153.398 39.7083 152.789 39.55 152.089 39.55C151.406 39.55 150.798 39.7167 150.264 40.05C149.748 40.3667 149.348 40.8083 149.064 41.375C148.781 41.9417 148.639 42.6 148.639 43.35C148.639 44.1 148.781 44.7667 149.064 45.35C149.348 45.9167 149.748 46.3583 150.264 46.675C150.798 46.9917 151.406 47.15 152.089 47.15ZM162.542 50V36.775H165.942L166.042 39.475L165.342 39.775C165.525 39.175 165.85 38.6333 166.317 38.15C166.8 37.65 167.375 37.25 168.042 36.95C168.708 36.65 169.408 36.5 170.142 36.5C171.142 36.5 171.975 36.7 172.642 37.1C173.325 37.5 173.833 38.1083 174.167 38.925C174.517 39.725 174.692 40.7167 174.692 41.9V50H171.142V42.175C171.142 41.575 171.058 41.075 170.892 40.675C170.725 40.275 170.467 39.9833 170.117 39.8C169.783 39.6 169.367 39.5167 168.867 39.55C168.467 39.55 168.092 39.6167 167.742 39.75C167.408 39.8667 167.117 40.0417 166.867 40.275C166.633 40.5083 166.442 40.775 166.292 41.075C166.158 41.375 166.092 41.7 166.092 42.05V50H164.342C163.958 50 163.617 50 163.317 50C163.017 50 162.758 50 162.542 50ZM178.393 54.125L177.693 53.225C178.227 52.9083 178.643 52.5667 178.943 52.2C179.243 51.8333 179.393 51.4833 179.393 51.15C179.393 50.9667 179.36 50.7917 179.293 50.625C179.227 50.4583 179.06 50.25 178.793 50C178.56 49.7833 178.385 49.575 178.268 49.375C178.168 49.175 178.118 48.9667 178.118 48.75C178.118 48.4167 178.235 48.15 178.468 47.95C178.702 47.7333 179.01 47.625 179.393 47.625C179.777 47.625 180.11 47.725 180.393 47.925C180.677 48.125 180.893 48.4083 181.043 48.775C181.21 49.125 181.293 49.5417 181.293 50.025C181.293 50.475 181.227 50.8917 181.093 51.275C180.96 51.675 180.768 52.05 180.518 52.4C180.268 52.75 179.968 53.0667 179.618 53.35C179.268 53.6333 178.86 53.8917 178.393 54.125ZM196.476 50.25C195.342 50.25 194.317 49.9583 193.401 49.375C192.484 48.775 191.759 47.9667 191.226 46.95C190.692 45.9167 190.426 44.75 190.426 43.45C190.426 42.1333 190.701 40.9667 191.251 39.95C191.801 38.9333 192.534 38.1333 193.451 37.55C194.384 36.9667 195.426 36.675 196.576 36.675C197.259 36.675 197.892 36.775 198.476 36.975C199.059 37.175 199.576 37.4583 200.026 37.825C200.492 38.175 200.876 38.5917 201.176 39.075C201.492 39.5417 201.709 40.05 201.826 40.6L201.276 40.325L201.351 36.95H203.226V50H201.326V46.8L201.826 46.475C201.709 46.975 201.484 47.4583 201.151 47.925C200.817 48.375 200.409 48.775 199.926 49.125C199.459 49.475 198.926 49.75 198.326 49.95C197.742 50.15 197.126 50.25 196.476 50.25ZM196.901 48.45C197.767 48.45 198.542 48.2417 199.226 47.825C199.909 47.3917 200.442 46.8 200.826 46.05C201.226 45.2833 201.426 44.4167 201.426 43.45C201.426 42.4833 201.226 41.625 200.826 40.875C200.442 40.125 199.909 39.5333 199.226 39.1C198.542 38.6667 197.767 38.45 196.901 38.45C196.017 38.45 195.234 38.6667 194.551 39.1C193.884 39.5333 193.351 40.125 192.951 40.875C192.567 41.625 192.376 42.4833 192.376 43.45C192.376 44.4 192.567 45.2583 192.951 46.025C193.334 46.775 193.867 47.3667 194.551 47.8C195.234 48.2333 196.017 48.45 196.901 48.45ZM206.879 50V36.95H208.729L208.804 39.675L208.504 39.8C208.67 39.2333 208.995 38.7167 209.479 38.25C209.962 37.7833 210.537 37.4083 211.204 37.125C211.887 36.825 212.587 36.675 213.304 36.675C214.27 36.675 215.079 36.8667 215.729 37.25C216.379 37.6333 216.87 38.225 217.204 39.025C217.537 39.825 217.704 40.8417 217.704 42.075V50H215.804V42.175C215.804 41.3083 215.687 40.6 215.454 40.05C215.237 39.4833 214.895 39.0667 214.429 38.8C213.962 38.5333 213.387 38.4083 212.704 38.425C212.137 38.425 211.612 38.525 211.129 38.725C210.645 38.9083 210.229 39.1667 209.879 39.5C209.529 39.8333 209.254 40.2167 209.054 40.65C208.854 41.0833 208.754 41.55 208.754 42.05V50H207.829C207.712 50 207.579 50 207.429 50C207.279 50 207.095 50 206.879 50ZM226.583 50.25C225.4 50.25 224.333 49.9583 223.383 49.375C222.45 48.7917 221.708 47.9917 221.158 46.975C220.625 45.9417 220.358 44.775 220.358 43.475C220.358 42.1583 220.633 40.9917 221.183 39.975C221.733 38.9417 222.475 38.1333 223.408 37.55C224.341 36.9667 225.391 36.675 226.558 36.675C227.208 36.675 227.833 36.775 228.433 36.975C229.05 37.175 229.6 37.4583 230.083 37.825C230.566 38.175 230.966 38.5833 231.283 39.05C231.6 39.5 231.791 39.975 231.858 40.475L231.283 40.275V31.5H233.158V50H231.308L231.258 46.75L231.733 46.575C231.666 47.0417 231.475 47.5 231.158 47.95C230.858 48.3833 230.475 48.775 230.008 49.125C229.541 49.475 229.008 49.75 228.408 49.95C227.825 50.15 227.216 50.25 226.583 50.25ZM226.858 48.525C227.725 48.525 228.5 48.3083 229.183 47.875C229.866 47.4417 230.4 46.8417 230.783 46.075C231.183 45.3083 231.383 44.4333 231.383 43.45C231.383 42.4667 231.183 41.6 230.783 40.85C230.4 40.0833 229.866 39.4833 229.183 39.05C228.5 38.6 227.725 38.375 226.858 38.375C225.958 38.375 225.166 38.6 224.483 39.05C223.816 39.4833 223.283 40.0833 222.883 40.85C222.5 41.6 222.308 42.4667 222.308 43.45C222.308 44.4167 222.5 45.2833 222.883 46.05C223.266 46.8167 223.8 47.425 224.483 47.875C225.166 48.3083 225.958 48.525 226.858 48.525ZM250.442 50.25C249.826 50.25 249.226 50.1583 248.642 49.975C248.059 49.775 247.526 49.5083 247.042 49.175C246.576 48.8417 246.176 48.4583 245.842 48.025C245.526 47.5917 245.309 47.1417 245.192 46.675L245.742 46.7L245.667 49.975H243.817V31.5H245.692V40.075L245.317 40.175C245.434 39.7083 245.642 39.2667 245.942 38.85C246.259 38.4167 246.651 38.0417 247.117 37.725C247.584 37.3917 248.092 37.1333 248.642 36.95C249.209 36.7667 249.792 36.675 250.392 36.675C251.559 36.675 252.601 36.9667 253.517 37.55C254.451 38.1333 255.192 38.9333 255.742 39.95C256.292 40.9667 256.567 42.1333 256.567 43.45C256.567 44.7667 256.301 45.9417 255.767 46.975C255.234 47.9917 254.501 48.7917 253.567 49.375C252.651 49.9583 251.609 50.25 250.442 50.25ZM250.142 48.475C251.026 48.475 251.809 48.2583 252.492 47.825C253.176 47.375 253.709 46.775 254.092 46.025C254.492 45.2583 254.692 44.4 254.692 43.45C254.692 42.4833 254.492 41.625 254.092 40.875C253.709 40.125 253.176 39.5333 252.492 39.1C251.809 38.6667 251.026 38.45 250.142 38.45C249.259 38.45 248.476 38.6667 247.792 39.1C247.109 39.5333 246.567 40.125 246.167 40.875C245.784 41.625 245.592 42.4833 245.592 43.45C245.592 44.4167 245.784 45.2833 246.167 46.05C246.567 46.8 247.109 47.3917 247.792 47.825C248.476 48.2583 249.259 48.475 250.142 48.475ZM265.071 50.25C263.771 50.25 262.612 49.9583 261.596 49.375C260.596 48.7917 259.804 47.9833 259.221 46.95C258.654 45.9167 258.371 44.7417 258.371 43.425C258.371 42.125 258.654 40.9667 259.221 39.95C259.804 38.9333 260.596 38.1333 261.596 37.55C262.612 36.9667 263.771 36.675 265.071 36.675C266.354 36.675 267.496 36.9667 268.496 37.55C269.512 38.1333 270.304 38.9333 270.871 39.95C271.454 40.9667 271.746 42.125 271.746 43.425C271.746 44.7417 271.454 45.9167 270.871 46.95C270.304 47.9833 269.512 48.7917 268.496 49.375C267.496 49.9583 266.354 50.25 265.071 50.25ZM265.071 48.475C265.987 48.475 266.804 48.2583 267.521 47.825C268.237 47.375 268.796 46.775 269.196 46.025C269.596 45.2583 269.796 44.3917 269.796 43.425C269.796 42.4583 269.596 41.6 269.196 40.85C268.796 40.1 268.237 39.5167 267.521 39.1C266.804 38.6667 265.987 38.45 265.071 38.45C264.154 38.45 263.329 38.6667 262.596 39.1C261.879 39.5167 261.312 40.1083 260.896 40.875C260.496 41.625 260.304 42.475 260.321 43.425C260.304 44.3917 260.496 45.2583 260.896 46.025C261.312 46.775 261.879 47.375 262.596 47.825C263.329 48.2583 264.154 48.475 265.071 48.475ZM276.281 50V33.525H278.156V50H276.281ZM273.331 38.75V36.95H281.456V38.75H273.331ZM283.759 50V31.5H285.634V39.8L285.259 40.175C285.442 39.4917 285.784 38.8917 286.284 38.375C286.784 37.8417 287.367 37.425 288.034 37.125C288.717 36.825 289.409 36.675 290.109 36.675C291.109 36.675 291.942 36.8667 292.609 37.25C293.275 37.6333 293.767 38.225 294.084 39.025C294.417 39.825 294.584 40.8417 294.584 42.075V50H292.684V42.175C292.684 41.3083 292.567 40.6 292.334 40.05C292.117 39.4833 291.775 39.0667 291.309 38.8C290.842 38.5333 290.259 38.4083 289.559 38.425C289.009 38.425 288.492 38.525 288.009 38.725C287.525 38.9083 287.109 39.1667 286.759 39.5C286.409 39.8333 286.134 40.2167 285.934 40.65C285.734 41.0833 285.634 41.55 285.634 42.05V50H284.709C284.592 50 284.459 50 284.309 50C284.159 50 283.975 50 283.759 50ZM2.8 81V66.85C2.8 66.0333 2.98333 65.2917 3.35 64.625C3.71667 63.9583 4.21667 63.4333 4.85 63.05C5.5 62.6667 6.25833 62.475 7.125 62.475C7.70833 62.475 8.25833 62.575 8.775 62.775C9.29167 62.9583 9.73333 63.2167 10.1 63.55L9.05 66.15C8.83333 66.0167 8.60833 65.9083 8.375 65.825C8.15833 65.725 7.95833 65.675 7.775 65.675C7.45833 65.675 7.19167 65.7333 6.975 65.85C6.775 65.95 6.625 66.1083 6.525 66.325C6.425 66.525 6.375 66.7833 6.375 67.1V81H4.6C4.21667 81 3.875 81 3.575 81C3.275 81 3.01667 81 2.8 81ZM0.825 71.1V68.1H9.225V71.1H0.825ZM11.5895 81V67.775H15.0145L15.1395 72.025L14.5395 71.15C14.7395 70.4667 15.0645 69.85 15.5145 69.3C15.9645 68.7333 16.4895 68.2917 17.0895 67.975C17.7061 67.6583 18.3478 67.5 19.0145 67.5C19.2978 67.5 19.5728 67.525 19.8395 67.575C20.1061 67.625 20.3311 67.6833 20.5145 67.75L19.5645 71.65C19.3645 71.55 19.1228 71.4667 18.8395 71.4C18.5561 71.3167 18.2645 71.275 17.9645 71.275C17.5645 71.275 17.1895 71.35 16.8395 71.5C16.5061 71.6333 16.2145 71.8333 15.9645 72.1C15.7145 72.35 15.5145 72.65 15.3645 73C15.2311 73.35 15.1645 73.7333 15.1645 74.15V81H11.5895ZM28.1398 81.25C26.7898 81.25 25.5815 80.9583 24.5148 80.375C23.4648 79.775 22.6315 78.9583 22.0148 77.925C21.4148 76.8917 21.1148 75.7083 21.1148 74.375C21.1148 73.0417 21.4148 71.8667 22.0148 70.85C22.6315 69.8167 23.4648 69 24.5148 68.4C25.5815 67.8 26.7898 67.5 28.1398 67.5C29.4732 67.5 30.6648 67.8 31.7148 68.4C32.7815 69 33.6148 69.8167 34.2148 70.85C34.8148 71.8667 35.1148 73.0417 35.1148 74.375C35.1148 75.7083 34.8148 76.8917 34.2148 77.925C33.6148 78.9583 32.7815 79.775 31.7148 80.375C30.6648 80.9583 29.4732 81.25 28.1398 81.25ZM28.1398 78.15C28.7898 78.15 29.3732 77.9917 29.8898 77.675C30.4065 77.3417 30.8065 76.8917 31.0898 76.325C31.3898 75.7417 31.5398 75.0917 31.5398 74.375C31.5398 73.6417 31.3898 72.9917 31.0898 72.425C30.8065 71.8417 30.4065 71.3917 29.8898 71.075C29.3732 70.7417 28.7898 70.575 28.1398 70.575C27.4732 70.575 26.8815 70.7417 26.3648 71.075C25.8482 71.4083 25.4398 71.8583 25.1398 72.425C24.8398 72.9917 24.6982 73.6417 24.7148 74.375C24.6982 75.0917 24.8398 75.7417 25.1398 76.325C25.4398 76.8917 25.8482 77.3417 26.3648 77.675C26.8815 77.9917 27.4732 78.15 28.1398 78.15ZM37.7857 81V67.775H41.1857L41.2857 70.475L40.5857 70.775C40.7691 70.175 41.0941 69.6333 41.5607 69.15C42.0441 68.65 42.6191 68.25 43.2857 67.95C43.9524 67.65 44.6524 67.5 45.3857 67.5C46.3857 67.5 47.2191 67.7 47.8857 68.1C48.5691 68.5 49.0774 69.1083 49.4107 69.925C49.7607 70.725 49.9357 71.7167 49.9357 72.9V81H46.3857V73.175C46.3857 72.575 46.3024 72.075 46.1357 71.675C45.9691 71.275 45.7107 70.9833 45.3607 70.8C45.0274 70.6 44.6107 70.5167 44.1107 70.55C43.7107 70.55 43.3357 70.6167 42.9857 70.75C42.6524 70.8667 42.3607 71.0417 42.1107 71.275C41.8774 71.5083 41.6857 71.775 41.5357 72.075C41.4024 72.375 41.3357 72.7 41.3357 73.05V81H39.5857C39.2024 81 38.8607 81 38.5607 81C38.2607 81 38.0024 81 37.7857 81ZM54.6125 81V64.425H58.1625V81H54.6125ZM52.1375 70.95V67.775H60.8625V70.95H52.1375ZM62.7014 75.475V72.175H70.8764V75.475H62.7014ZM80.218 81.25C78.7846 81.25 77.5346 80.9583 76.468 80.375C75.4013 79.7917 74.568 78.9917 73.968 77.975C73.368 76.9583 73.068 75.7917 73.068 74.475C73.068 73.4583 73.2346 72.525 73.568 71.675C73.9013 70.825 74.368 70.0917 74.968 69.475C75.568 68.8417 76.2763 68.3583 77.093 68.025C77.9263 67.675 78.8263 67.5 79.793 67.5C80.693 67.5 81.5263 67.6667 82.293 68C83.0596 68.3167 83.718 68.775 84.268 69.375C84.8346 69.9583 85.268 70.65 85.568 71.45C85.868 72.25 86.0013 73.125 85.968 74.075L85.943 75.175H75.318L74.743 73H83.018L82.618 73.45V72.9C82.5846 72.45 82.4346 72.0417 82.168 71.675C81.918 71.3083 81.593 71.025 81.193 70.825C80.793 70.625 80.343 70.525 79.843 70.525C79.1096 70.525 78.4846 70.6667 77.968 70.95C77.468 71.2333 77.0846 71.65 76.818 72.2C76.5513 72.75 76.418 73.4167 76.418 74.2C76.418 75 76.5846 75.6917 76.918 76.275C77.268 76.8583 77.7513 77.3167 78.368 77.65C79.0013 77.9667 79.743 78.125 80.593 78.125C81.1763 78.125 81.7096 78.0333 82.193 77.85C82.6763 77.6667 83.193 77.35 83.743 76.9L85.443 79.275C84.9596 79.7083 84.4263 80.075 83.843 80.375C83.2596 80.6583 82.6596 80.875 82.043 81.025C81.4263 81.175 80.818 81.25 80.218 81.25ZM88.5914 81V67.775H91.9914L92.0914 70.475L91.3914 70.775C91.5747 70.175 91.8997 69.6333 92.3664 69.15C92.8497 68.65 93.4247 68.25 94.0914 67.95C94.7581 67.65 95.4581 67.5 96.1914 67.5C97.1914 67.5 98.0247 67.7 98.6914 68.1C99.3747 68.5 99.8831 69.1083 100.216 69.925C100.566 70.725 100.741 71.7167 100.741 72.9V81H97.1914V73.175C97.1914 72.575 97.1081 72.075 96.9414 71.675C96.7747 71.275 96.5164 70.9833 96.1664 70.8C95.8331 70.6 95.4164 70.5167 94.9164 70.55C94.5164 70.55 94.1414 70.6167 93.7914 70.75C93.4581 70.8667 93.1664 71.0417 92.9164 71.275C92.6831 71.5083 92.4914 71.775 92.3414 72.075C92.2081 72.375 92.1414 72.7 92.1414 73.05V81H90.3914C90.0081 81 89.6664 81 89.3664 81C89.0664 81 88.8081 81 88.5914 81ZM109.318 81.25C108.168 81.25 107.135 80.9583 106.218 80.375C105.301 79.775 104.576 78.9667 104.043 77.95C103.526 76.9167 103.268 75.725 103.268 74.375C103.268 73.0583 103.526 71.8833 104.043 70.85C104.576 69.8167 105.293 69 106.193 68.4C107.11 67.8 108.151 67.5 109.318 67.5C109.935 67.5 110.526 67.6 111.093 67.8C111.676 67.9833 112.193 68.2417 112.643 68.575C113.11 68.9083 113.485 69.2833 113.768 69.7C114.051 70.1 114.21 70.525 114.243 70.975L113.343 71.125V62.5H116.893V81H113.543L113.393 77.95L114.093 78.025C114.06 78.4417 113.91 78.8417 113.643 79.225C113.376 79.6083 113.018 79.9583 112.568 80.275C112.135 80.575 111.635 80.8167 111.068 81C110.518 81.1667 109.935 81.25 109.318 81.25ZM110.118 78.3C110.785 78.3 111.368 78.1333 111.868 77.8C112.368 77.4667 112.76 77.0083 113.043 76.425C113.326 75.8417 113.468 75.1583 113.468 74.375C113.468 73.6083 113.326 72.9333 113.043 72.35C112.76 71.75 112.368 71.2917 111.868 70.975C111.368 70.6417 110.785 70.475 110.118 70.475C109.451 70.475 108.868 70.6417 108.368 70.975C107.885 71.2917 107.501 71.75 107.218 72.35C106.951 72.9333 106.818 73.6083 106.818 74.375C106.818 75.1583 106.951 75.8417 107.218 76.425C107.501 77.0083 107.885 77.4667 108.368 77.8C108.868 78.1333 109.451 78.3 110.118 78.3ZM132.97 81.25C131.87 81.25 130.878 80.95 129.995 80.35C129.112 79.75 128.412 78.9333 127.895 77.9C127.378 76.8667 127.12 75.6833 127.12 74.35C127.12 73.0167 127.378 71.8417 127.895 70.825C128.428 69.7917 129.145 68.9833 130.045 68.4C130.945 67.8 131.97 67.5 133.12 67.5C133.77 67.5 134.362 67.6 134.895 67.8C135.445 67.9833 135.92 68.2417 136.32 68.575C136.737 68.9083 137.087 69.2917 137.37 69.725C137.653 70.1583 137.853 70.625 137.97 71.125L137.22 71V67.775H140.745V81H137.17V77.825L137.97 77.75C137.837 78.2167 137.62 78.6583 137.32 79.075C137.02 79.4917 136.645 79.8667 136.195 80.2C135.762 80.5167 135.27 80.775 134.72 80.975C134.17 81.1583 133.587 81.25 132.97 81.25ZM133.945 78.175C134.612 78.175 135.195 78.0167 135.695 77.7C136.195 77.3833 136.578 76.9417 136.845 76.375C137.128 75.7917 137.27 75.1167 137.27 74.35C137.27 73.6 137.128 72.9417 136.845 72.375C136.578 71.8083 136.195 71.3667 135.695 71.05C135.195 70.7167 134.612 70.55 133.945 70.55C133.295 70.55 132.72 70.7167 132.22 71.05C131.737 71.3667 131.353 71.8083 131.07 72.375C130.787 72.9417 130.645 73.6 130.645 74.35C130.645 75.1167 130.787 75.7917 131.07 76.375C131.353 76.9417 131.737 77.3833 132.22 77.7C132.72 78.0167 133.295 78.175 133.945 78.175ZM144.304 81V67.775H147.704L147.804 70.475L147.104 70.775C147.288 70.175 147.613 69.6333 148.079 69.15C148.563 68.65 149.138 68.25 149.804 67.95C150.471 67.65 151.171 67.5 151.904 67.5C152.904 67.5 153.738 67.7 154.404 68.1C155.088 68.5 155.596 69.1083 155.929 69.925C156.279 70.725 156.454 71.7167 156.454 72.9V81H152.904V73.175C152.904 72.575 152.821 72.075 152.654 71.675C152.488 71.275 152.229 70.9833 151.879 70.8C151.546 70.6 151.129 70.5167 150.629 70.55C150.229 70.55 149.854 70.6167 149.504 70.75C149.171 70.8667 148.879 71.0417 148.629 71.275C148.396 71.5083 148.204 71.775 148.054 72.075C147.921 72.375 147.854 72.7 147.854 73.05V81H146.104C145.721 81 145.379 81 145.079 81C144.779 81 144.521 81 144.304 81ZM165.031 81.25C163.881 81.25 162.848 80.9583 161.931 80.375C161.014 79.775 160.289 78.9667 159.756 77.95C159.239 76.9167 158.981 75.725 158.981 74.375C158.981 73.0583 159.239 71.8833 159.756 70.85C160.289 69.8167 161.006 69 161.906 68.4C162.823 67.8 163.864 67.5 165.031 67.5C165.648 67.5 166.239 67.6 166.806 67.8C167.389 67.9833 167.906 68.2417 168.356 68.575C168.823 68.9083 169.198 69.2833 169.481 69.7C169.764 70.1 169.923 70.525 169.956 70.975L169.056 71.125V62.5H172.606V81H169.256L169.106 77.95L169.806 78.025C169.773 78.4417 169.623 78.8417 169.356 79.225C169.089 79.6083 168.731 79.9583 168.281 80.275C167.848 80.575 167.348 80.8167 166.781 81C166.231 81.1667 165.648 81.25 165.031 81.25ZM165.831 78.3C166.498 78.3 167.081 78.1333 167.581 77.8C168.081 77.4667 168.473 77.0083 168.756 76.425C169.039 75.8417 169.181 75.1583 169.181 74.375C169.181 73.6083 169.039 72.9333 168.756 72.35C168.473 71.75 168.081 71.2917 167.581 70.975C167.081 70.6417 166.498 70.475 165.831 70.475C165.164 70.475 164.581 70.6417 164.081 70.975C163.598 71.2917 163.214 71.75 162.931 72.35C162.664 72.9333 162.531 73.6083 162.531 74.375C162.531 75.1583 162.664 75.8417 162.931 76.425C163.214 77.0083 163.598 77.4667 164.081 77.8C164.581 78.1333 165.164 78.3 165.831 78.3ZM191.358 81.25C190.775 81.25 190.208 81.1667 189.658 81C189.108 80.8333 188.608 80.6083 188.158 80.325C187.708 80.025 187.333 79.6917 187.033 79.325C186.733 78.9417 186.541 78.55 186.458 78.15L187.258 77.85L187.083 80.95H183.733V62.5H187.283V70.875L186.608 70.6C186.708 70.2 186.9 69.8167 187.183 69.45C187.466 69.0667 187.825 68.7333 188.258 68.45C188.691 68.15 189.166 67.9167 189.683 67.75C190.2 67.5833 190.733 67.5 191.283 67.5C192.433 67.5 193.458 67.8 194.358 68.4C195.258 68.9833 195.966 69.7917 196.483 70.825C197.016 71.8583 197.283 73.0417 197.283 74.375C197.283 75.7083 197.025 76.8917 196.508 77.925C195.991 78.9583 195.283 79.775 194.383 80.375C193.5 80.9583 192.491 81.25 191.358 81.25ZM190.508 78.225C191.175 78.225 191.75 78.0667 192.233 77.75C192.733 77.4167 193.125 76.9667 193.408 76.4C193.691 75.8167 193.833 75.1417 193.833 74.375C193.833 73.625 193.691 72.9583 193.408 72.375C193.141 71.7917 192.758 71.3417 192.258 71.025C191.758 70.7083 191.175 70.55 190.508 70.55C189.841 70.55 189.258 70.7083 188.758 71.025C188.258 71.3417 187.866 71.7917 187.583 72.375C187.3 72.9583 187.158 73.625 187.158 74.375C187.158 75.1417 187.3 75.8167 187.583 76.4C187.866 76.9667 188.258 77.4167 188.758 77.75C189.258 78.0667 189.841 78.225 190.508 78.225ZM204.918 81.25C203.818 81.25 202.827 80.95 201.943 80.35C201.06 79.75 200.36 78.9333 199.843 77.9C199.327 76.8667 199.068 75.6833 199.068 74.35C199.068 73.0167 199.327 71.8417 199.843 70.825C200.377 69.7917 201.093 68.9833 201.993 68.4C202.893 67.8 203.918 67.5 205.068 67.5C205.718 67.5 206.31 67.6 206.843 67.8C207.393 67.9833 207.868 68.2417 208.268 68.575C208.685 68.9083 209.035 69.2917 209.318 69.725C209.602 70.1583 209.802 70.625 209.918 71.125L209.168 71V67.775H212.693V81H209.118V77.825L209.918 77.75C209.785 78.2167 209.568 78.6583 209.268 79.075C208.968 79.4917 208.593 79.8667 208.143 80.2C207.71 80.5167 207.218 80.775 206.668 80.975C206.118 81.1583 205.535 81.25 204.918 81.25ZM205.893 78.175C206.56 78.175 207.143 78.0167 207.643 77.7C208.143 77.3833 208.527 76.9417 208.793 76.375C209.077 75.7917 209.218 75.1167 209.218 74.35C209.218 73.6 209.077 72.9417 208.793 72.375C208.527 71.8083 208.143 71.3667 207.643 71.05C207.143 70.7167 206.56 70.55 205.893 70.55C205.243 70.55 204.668 70.7167 204.168 71.05C203.685 71.3667 203.302 71.8083 203.018 72.375C202.735 72.9417 202.593 73.6 202.593 74.35C202.593 75.1167 202.735 75.7917 203.018 76.375C203.302 76.9417 203.685 77.3833 204.168 77.7C204.668 78.0167 205.243 78.175 205.893 78.175ZM222.003 81.25C220.736 81.25 219.603 80.95 218.603 80.35C217.603 79.75 216.811 78.9333 216.228 77.9C215.661 76.8667 215.378 75.6917 215.378 74.375C215.378 73.075 215.661 71.9083 216.228 70.875C216.811 69.825 217.603 69 218.603 68.4C219.603 67.8 220.736 67.5 222.003 67.5C223.186 67.5 224.269 67.7167 225.253 68.15C226.236 68.5833 227.003 69.1833 227.553 69.95L225.603 72.3C225.369 71.9833 225.078 71.7 224.728 71.45C224.378 71.1833 223.994 70.975 223.578 70.825C223.178 70.675 222.761 70.6 222.328 70.6C221.644 70.6 221.036 70.7667 220.503 71.1C219.986 71.4167 219.578 71.8583 219.278 72.425C218.978 72.9917 218.828 73.6417 218.828 74.375C218.828 75.0917 218.978 75.7333 219.278 76.3C219.594 76.85 220.019 77.3 220.553 77.65C221.086 77.9833 221.686 78.15 222.353 78.15C222.786 78.15 223.194 78.0917 223.578 77.975C223.961 77.8417 224.319 77.65 224.653 77.4C225.003 77.15 225.319 76.85 225.603 76.5L227.528 78.85C226.961 79.5667 226.178 80.15 225.178 80.6C224.178 81.0333 223.119 81.25 222.003 81.25ZM233.177 77.025L232.127 74.1L238.377 67.775H243.052L233.177 77.025ZM229.802 81V62.5H233.352V81H229.802ZM238.752 81L234.002 75.025L236.502 73.025L243.027 81H238.752ZM244.513 75.475V72.175H252.688V75.475H244.513ZM8.05 112.25C6.61667 112.25 5.36667 111.958 4.3 111.375C3.23333 110.792 2.4 109.992 1.8 108.975C1.2 107.958 0.9 106.792 0.9 105.475C0.9 104.458 1.06667 103.525 1.4 102.675C1.73333 101.825 2.2 101.092 2.8 100.475C3.4 99.8417 4.10833 99.3583 4.925 99.025C5.75833 98.675 6.65833 98.5 7.625 98.5C8.525 98.5 9.35833 98.6667 10.125 99C10.8917 99.3167 11.55 99.775 12.1 100.375C12.6667 100.958 13.1 101.65 13.4 102.45C13.7 103.25 13.8333 104.125 13.8 105.075L13.775 106.175H3.15L2.575 104H10.85L10.45 104.45V103.9C10.4167 103.45 10.2667 103.042 10 102.675C9.75 102.308 9.425 102.025 9.025 101.825C8.625 101.625 8.175 101.525 7.675 101.525C6.94167 101.525 6.31667 101.667 5.8 101.95C5.3 102.233 4.91667 102.65 4.65 103.2C4.38333 103.75 4.25 104.417 4.25 105.2C4.25 106 4.41667 106.692 4.75 107.275C5.1 107.858 5.58333 108.317 6.2 108.65C6.83333 108.967 7.575 109.125 8.425 109.125C9.00833 109.125 9.54167 109.033 10.025 108.85C10.5083 108.667 11.025 108.35 11.575 107.9L13.275 110.275C12.7917 110.708 12.2583 111.075 11.675 111.375C11.0917 111.658 10.4917 111.875 9.875 112.025C9.25833 112.175 8.65 112.25 8.05 112.25ZM16.4234 112V98.775H19.8234L19.9234 101.475L19.2234 101.775C19.4068 101.175 19.7318 100.633 20.1984 100.15C20.6818 99.65 21.2568 99.25 21.9234 98.95C22.5901 98.65 23.2901 98.5 24.0234 98.5C25.0234 98.5 25.8568 98.7 26.5234 99.1C27.2068 99.5 27.7151 100.108 28.0484 100.925C28.3984 101.725 28.5734 102.717 28.5734 103.9V112H25.0234V104.175C25.0234 103.575 24.9401 103.075 24.7734 102.675C24.6068 102.275 24.3484 101.983 23.9984 101.8C23.6651 101.6 23.2484 101.517 22.7484 101.55C22.3484 101.55 21.9734 101.617 21.6234 101.75C21.2901 101.867 20.9984 102.042 20.7484 102.275C20.5151 102.508 20.3234 102.775 20.1734 103.075C20.0401 103.375 19.9734 103.7 19.9734 104.05V112H18.2234C17.8401 112 17.4984 112 17.1984 112C16.8984 112 16.6401 112 16.4234 112ZM37.1502 112.25C36.0002 112.25 34.9669 111.958 34.0502 111.375C33.1335 110.775 32.4085 109.967 31.8752 108.95C31.3585 107.917 31.1002 106.725 31.1002 105.375C31.1002 104.058 31.3585 102.883 31.8752 101.85C32.4085 100.817 33.1252 100 34.0252 99.4C34.9419 98.8 35.9835 98.5 37.1502 98.5C37.7669 98.5 38.3585 98.6 38.9252 98.8C39.5085 98.9833 40.0252 99.2417 40.4752 99.575C40.9419 99.9083 41.3169 100.283 41.6002 100.7C41.8835 101.1 42.0419 101.525 42.0752 101.975L41.1752 102.125V93.5H44.7252V112H41.3752L41.2252 108.95L41.9252 109.025C41.8919 109.442 41.7419 109.842 41.4752 110.225C41.2085 110.608 40.8502 110.958 40.4002 111.275C39.9669 111.575 39.4669 111.817 38.9002 112C38.3502 112.167 37.7669 112.25 37.1502 112.25ZM37.9502 109.3C38.6169 109.3 39.2002 109.133 39.7002 108.8C40.2002 108.467 40.5919 108.008 40.8752 107.425C41.1585 106.842 41.3002 106.158 41.3002 105.375C41.3002 104.608 41.1585 103.933 40.8752 103.35C40.5919 102.75 40.2002 102.292 39.7002 101.975C39.2002 101.642 38.6169 101.475 37.9502 101.475C37.2835 101.475 36.7002 101.642 36.2002 101.975C35.7169 102.292 35.3335 102.75 35.0502 103.35C34.7835 103.933 34.6502 104.608 34.6502 105.375C34.6502 106.158 34.7835 106.842 35.0502 107.425C35.3335 108.008 35.7169 108.467 36.2002 108.8C36.7002 109.133 37.2835 109.3 37.9502 109.3ZM61.0271 112.25C59.8771 112.25 58.8438 111.958 57.9271 111.375C57.0105 110.775 56.2855 109.967 55.7521 108.95C55.2355 107.917 54.9771 106.725 54.9771 105.375C54.9771 104.058 55.2355 102.883 55.7521 101.85C56.2855 100.817 57.0021 100 57.9021 99.4C58.8188 98.8 59.8605 98.5 61.0271 98.5C61.6438 98.5 62.2355 98.6 62.8021 98.8C63.3855 98.9833 63.9021 99.2417 64.3521 99.575C64.8188 99.9083 65.1938 100.283 65.4771 100.7C65.7605 101.1 65.9188 101.525 65.9521 101.975L65.0521 102.125V93.5H68.6021V112H65.2521L65.1021 108.95L65.8021 109.025C65.7688 109.442 65.6188 109.842 65.3521 110.225C65.0855 110.608 64.7271 110.958 64.2771 111.275C63.8438 111.575 63.3438 111.817 62.7771 112C62.2271 112.167 61.6438 112.25 61.0271 112.25ZM61.8271 109.3C62.4938 109.3 63.0771 109.133 63.5771 108.8C64.0771 108.467 64.4688 108.008 64.7521 107.425C65.0355 106.842 65.1771 106.158 65.1771 105.375C65.1771 104.608 65.0355 103.933 64.7521 103.35C64.4688 102.75 64.0771 102.292 63.5771 101.975C63.0771 101.642 62.4938 101.475 61.8271 101.475C61.1605 101.475 60.5771 101.642 60.0771 101.975C59.5938 102.292 59.2105 102.75 58.9271 103.35C58.6605 103.933 58.5271 104.608 58.5271 105.375C58.5271 106.158 58.6605 106.842 58.9271 107.425C59.2105 108.008 59.5938 108.467 60.0771 108.8C60.5771 109.133 61.1605 109.3 61.8271 109.3ZM78.3381 112.25C76.9048 112.25 75.6548 111.958 74.5881 111.375C73.5214 110.792 72.6881 109.992 72.0881 108.975C71.4881 107.958 71.1881 106.792 71.1881 105.475C71.1881 104.458 71.3548 103.525 71.6881 102.675C72.0214 101.825 72.4881 101.092 73.0881 100.475C73.6881 99.8417 74.3964 99.3583 75.2131 99.025C76.0464 98.675 76.9464 98.5 77.9131 98.5C78.8131 98.5 79.6464 98.6667 80.4131 99C81.1798 99.3167 81.8381 99.775 82.3881 100.375C82.9548 100.958 83.3881 101.65 83.6881 102.45C83.9881 103.25 84.1214 104.125 84.0881 105.075L84.0631 106.175H73.4381L72.8631 104H81.1381L80.7381 104.45V103.9C80.7048 103.45 80.5548 103.042 80.2881 102.675C80.0381 102.308 79.7131 102.025 79.3131 101.825C78.9131 101.625 78.4631 101.525 77.9631 101.525C77.2298 101.525 76.6048 101.667 76.0881 101.95C75.5881 102.233 75.2048 102.65 74.9381 103.2C74.6714 103.75 74.5381 104.417 74.5381 105.2C74.5381 106 74.7048 106.692 75.0381 107.275C75.3881 107.858 75.8714 108.317 76.4881 108.65C77.1214 108.967 77.8631 109.125 78.7131 109.125C79.2964 109.125 79.8298 109.033 80.3131 108.85C80.7964 108.667 81.3131 108.35 81.8631 107.9L83.5631 110.275C83.0798 110.708 82.5464 111.075 81.9631 111.375C81.3798 111.658 80.7798 111.875 80.1631 112.025C79.5464 112.175 78.9381 112.25 78.3381 112.25ZM90.6174 112L85.0674 98.775H88.9674L92.4924 108.65L91.6674 108.8L95.3674 98.775H99.1674L93.3424 112H90.6174ZM107.244 112.25C105.811 112.25 104.561 111.958 103.494 111.375C102.428 110.792 101.594 109.992 100.994 108.975C100.394 107.958 100.094 106.792 100.094 105.475C100.094 104.458 100.261 103.525 100.594 102.675C100.928 101.825 101.394 101.092 101.994 100.475C102.594 99.8417 103.303 99.3583 104.119 99.025C104.953 98.675 105.853 98.5 106.819 98.5C107.719 98.5 108.553 98.6667 109.319 99C110.086 99.3167 110.744 99.775 111.294 100.375C111.861 100.958 112.294 101.65 112.594 102.45C112.894 103.25 113.028 104.125 112.994 105.075L112.969 106.175H102.344L101.769 104H110.044L109.644 104.45V103.9C109.611 103.45 109.461 103.042 109.194 102.675C108.944 102.308 108.619 102.025 108.219 101.825C107.819 101.625 107.369 101.525 106.869 101.525C106.136 101.525 105.511 101.667 104.994 101.95C104.494 102.233 104.111 102.65 103.844 103.2C103.578 103.75 103.444 104.417 103.444 105.2C103.444 106 103.611 106.692 103.944 107.275C104.294 107.858 104.778 108.317 105.394 108.65C106.028 108.967 106.769 109.125 107.619 109.125C108.203 109.125 108.736 109.033 109.219 108.85C109.703 108.667 110.219 108.35 110.769 107.9L112.469 110.275C111.986 110.708 111.453 111.075 110.869 111.375C110.286 111.658 109.686 111.875 109.069 112.025C108.453 112.175 107.844 112.25 107.244 112.25ZM115.643 112V93.5H119.193V112H115.643ZM128.701 112.25C127.351 112.25 126.143 111.958 125.076 111.375C124.026 110.775 123.193 109.958 122.576 108.925C121.976 107.892 121.676 106.708 121.676 105.375C121.676 104.042 121.976 102.867 122.576 101.85C123.193 100.817 124.026 100 125.076 99.4C126.143 98.8 127.351 98.5 128.701 98.5C130.035 98.5 131.226 98.8 132.276 99.4C133.343 100 134.176 100.817 134.776 101.85C135.376 102.867 135.676 104.042 135.676 105.375C135.676 106.708 135.376 107.892 134.776 108.925C134.176 109.958 133.343 110.775 132.276 111.375C131.226 111.958 130.035 112.25 128.701 112.25ZM128.701 109.15C129.351 109.15 129.935 108.992 130.451 108.675C130.968 108.342 131.368 107.892 131.651 107.325C131.951 106.742 132.101 106.092 132.101 105.375C132.101 104.642 131.951 103.992 131.651 103.425C131.368 102.842 130.968 102.392 130.451 102.075C129.935 101.742 129.351 101.575 128.701 101.575C128.035 101.575 127.443 101.742 126.926 102.075C126.41 102.408 126.001 102.858 125.701 103.425C125.401 103.992 125.26 104.642 125.276 105.375C125.26 106.092 125.401 106.742 125.701 107.325C126.001 107.892 126.41 108.342 126.926 108.675C127.443 108.992 128.035 109.15 128.701 109.15ZM138.347 117.5V98.775H141.772L141.872 101.75L141.222 101.525C141.339 100.992 141.622 100.5 142.072 100.05C142.539 99.6 143.114 99.2333 143.797 98.95C144.481 98.6667 145.197 98.525 145.947 98.525C147.097 98.525 148.114 98.825 148.997 99.425C149.897 100.008 150.606 100.817 151.122 101.85C151.656 102.867 151.922 104.042 151.922 105.375C151.922 106.692 151.664 107.867 151.147 108.9C150.631 109.933 149.922 110.75 149.022 111.35C148.122 111.933 147.097 112.225 145.947 112.225C145.181 112.225 144.447 112.083 143.747 111.8C143.064 111.5 142.481 111.108 141.997 110.625C141.514 110.142 141.214 109.625 141.097 109.075L141.922 108.725V117.5H138.347ZM145.147 109.175C145.797 109.175 146.372 109.017 146.872 108.7C147.372 108.383 147.764 107.942 148.047 107.375C148.331 106.792 148.472 106.125 148.472 105.375C148.472 104.625 148.331 103.967 148.047 103.4C147.764 102.833 147.372 102.392 146.872 102.075C146.389 101.758 145.814 101.6 145.147 101.6C144.481 101.6 143.897 101.758 143.397 102.075C142.897 102.375 142.506 102.817 142.222 103.4C141.939 103.967 141.797 104.625 141.797 105.375C141.797 106.125 141.939 106.792 142.222 107.375C142.506 107.942 142.897 108.383 143.397 108.7C143.897 109.017 144.481 109.175 145.147 109.175ZM154.582 112V98.775H158.007L158.082 101.3L157.557 101.4C157.74 100.967 157.982 100.575 158.282 100.225C158.582 99.875 158.932 99.575 159.332 99.325C159.749 99.075 160.182 98.8833 160.632 98.75C161.082 98.6 161.532 98.525 161.982 98.525C162.665 98.525 163.282 98.6333 163.832 98.85C164.382 99.0667 164.849 99.4083 165.232 99.875C165.615 100.325 165.915 100.925 166.132 101.675L165.582 101.625L165.757 101.225C165.974 100.825 166.249 100.467 166.582 100.15C166.915 99.8167 167.29 99.5333 167.707 99.3C168.124 99.05 168.557 98.8583 169.007 98.725C169.457 98.5917 169.899 98.525 170.332 98.525C171.365 98.525 172.224 98.7333 172.907 99.15C173.59 99.55 174.099 100.158 174.432 100.975C174.782 101.792 174.957 102.792 174.957 103.975V112H171.407V104.225C171.407 103.625 171.324 103.133 171.157 102.75C170.99 102.367 170.749 102.083 170.432 101.9C170.115 101.7 169.707 101.6 169.207 101.6C168.824 101.6 168.465 101.667 168.132 101.8C167.815 101.917 167.532 102.092 167.282 102.325C167.049 102.542 166.865 102.8 166.732 103.1C166.599 103.4 166.532 103.733 166.532 104.1V112H162.982V104.2C162.982 103.65 162.89 103.183 162.707 102.8C162.54 102.4 162.299 102.1 161.982 101.9C161.665 101.7 161.274 101.6 160.807 101.6C160.424 101.6 160.065 101.667 159.732 101.8C159.415 101.917 159.14 102.092 158.907 102.325C158.674 102.542 158.482 102.8 158.332 103.1C158.199 103.4 158.132 103.725 158.132 104.075V112H154.582ZM184.613 112.25C183.179 112.25 181.929 111.958 180.863 111.375C179.796 110.792 178.963 109.992 178.363 108.975C177.763 107.958 177.463 106.792 177.463 105.475C177.463 104.458 177.629 103.525 177.963 102.675C178.296 101.825 178.763 101.092 179.363 100.475C179.963 99.8417 180.671 99.3583 181.488 99.025C182.321 98.675 183.221 98.5 184.188 98.5C185.088 98.5 185.921 98.6667 186.688 99C187.454 99.3167 188.113 99.775 188.663 100.375C189.229 100.958 189.663 101.65 189.963 102.45C190.263 103.25 190.396 104.125 190.363 105.075L190.337 106.175H179.713L179.138 104H187.413L187.013 104.45V103.9C186.979 103.45 186.829 103.042 186.563 102.675C186.313 102.308 185.988 102.025 185.588 101.825C185.188 101.625 184.738 101.525 184.238 101.525C183.504 101.525 182.879 101.667 182.363 101.95C181.863 102.233 181.479 102.65 181.213 103.2C180.946 103.75 180.813 104.417 180.813 105.2C180.813 106 180.979 106.692 181.313 107.275C181.663 107.858 182.146 108.317 182.763 108.65C183.396 108.967 184.138 109.125 184.988 109.125C185.571 109.125 186.104 109.033 186.588 108.85C187.071 108.667 187.588 108.35 188.138 107.9L189.838 110.275C189.354 110.708 188.821 111.075 188.238 111.375C187.654 111.658 187.054 111.875 186.438 112.025C185.821 112.175 185.213 112.25 184.613 112.25ZM192.986 112V98.775H196.386L196.486 101.475L195.786 101.775C195.969 101.175 196.294 100.633 196.761 100.15C197.244 99.65 197.819 99.25 198.486 98.95C199.153 98.65 199.853 98.5 200.586 98.5C201.586 98.5 202.419 98.7 203.086 99.1C203.769 99.5 204.278 100.108 204.611 100.925C204.961 101.725 205.136 102.717 205.136 103.9V112H201.586V104.175C201.586 103.575 201.503 103.075 201.336 102.675C201.169 102.275 200.911 101.983 200.561 101.8C200.228 101.6 199.811 101.517 199.311 101.55C198.911 101.55 198.536 101.617 198.186 101.75C197.853 101.867 197.561 102.042 197.311 102.275C197.078 102.508 196.886 102.775 196.736 103.075C196.603 103.375 196.536 103.7 196.536 104.05V112H194.786C194.403 112 194.061 112 193.761 112C193.461 112 193.203 112 192.986 112ZM209.813 112V95.425H213.363V112H209.813ZM207.338 101.95V98.775H216.063V101.95H207.338ZM225.433 112V98.95H227.308L227.358 102.425L227.158 101.95C227.342 101.367 227.633 100.825 228.033 100.325C228.45 99.825 228.942 99.425 229.508 99.125C230.075 98.825 230.7 98.675 231.383 98.675C231.667 98.675 231.933 98.7 232.183 98.75C232.433 98.7833 232.642 98.8333 232.808 98.9L232.283 101C232.067 100.9 231.842 100.833 231.608 100.8C231.392 100.75 231.183 100.725 230.983 100.725C230.417 100.725 229.908 100.825 229.458 101.025C229.008 101.225 228.625 101.508 228.308 101.875C227.992 102.225 227.75 102.633 227.583 103.1C227.417 103.567 227.333 104.067 227.333 104.6V112H225.433ZM239.973 112.25C238.673 112.25 237.515 111.958 236.498 111.375C235.498 110.792 234.706 109.983 234.123 108.95C233.556 107.917 233.273 106.742 233.273 105.425C233.273 104.125 233.556 102.967 234.123 101.95C234.706 100.933 235.498 100.133 236.498 99.55C237.515 98.9667 238.673 98.675 239.973 98.675C241.256 98.675 242.398 98.9667 243.398 99.55C244.415 100.133 245.206 100.933 245.773 101.95C246.356 102.967 246.648 104.125 246.648 105.425C246.648 106.742 246.356 107.917 245.773 108.95C245.206 109.983 244.415 110.792 243.398 111.375C242.398 111.958 241.256 112.25 239.973 112.25ZM239.973 110.475C240.89 110.475 241.706 110.258 242.423 109.825C243.14 109.375 243.698 108.775 244.098 108.025C244.498 107.258 244.698 106.392 244.698 105.425C244.698 104.458 244.498 103.6 244.098 102.85C243.698 102.1 243.14 101.517 242.423 101.1C241.706 100.667 240.89 100.45 239.973 100.45C239.056 100.45 238.231 100.667 237.498 101.1C236.781 101.517 236.215 102.108 235.798 102.875C235.398 103.625 235.206 104.475 235.223 105.425C235.206 106.392 235.398 107.258 235.798 108.025C236.215 108.775 236.781 109.375 237.498 109.825C238.231 110.258 239.056 110.475 239.973 110.475ZM249.434 112V93.5H251.309V112H249.434ZM260.505 112.25C259.205 112.25 258.046 111.967 257.03 111.4C256.03 110.833 255.246 110.042 254.68 109.025C254.113 108.008 253.83 106.842 253.83 105.525C253.83 104.508 253.988 103.592 254.305 102.775C254.621 101.942 255.063 101.217 255.63 100.6C256.213 99.9833 256.905 99.5083 257.705 99.175C258.505 98.825 259.371 98.65 260.305 98.65C261.188 98.65 261.988 98.8083 262.705 99.125C263.438 99.4417 264.063 99.8833 264.58 100.45C265.113 101 265.513 101.658 265.78 102.425C266.046 103.192 266.163 104.033 266.13 104.95L266.105 105.825H255.23L254.955 104.25H264.68L264.23 104.675V104.075C264.196 103.475 264.021 102.9 263.705 102.35C263.388 101.783 262.938 101.325 262.355 100.975C261.788 100.625 261.105 100.45 260.305 100.45C259.371 100.45 258.563 100.642 257.88 101.025C257.196 101.392 256.671 101.942 256.305 102.675C255.938 103.408 255.755 104.317 255.755 105.4C255.755 106.433 255.955 107.333 256.355 108.1C256.755 108.85 257.321 109.433 258.055 109.85C258.805 110.267 259.705 110.475 260.755 110.475C261.371 110.475 261.98 110.375 262.58 110.175C263.196 109.958 263.871 109.542 264.605 108.925L265.58 110.275C265.196 110.658 264.738 111 264.205 111.3C263.671 111.583 263.088 111.817 262.455 112C261.821 112.167 261.171 112.25 260.505 112.25ZM273.068 112.25C271.951 112.25 270.951 112.042 270.068 111.625C269.184 111.208 268.484 110.658 267.968 109.975L269.293 108.825C269.776 109.408 270.343 109.85 270.993 110.15C271.659 110.45 272.401 110.6 273.218 110.6C273.634 110.6 274.009 110.558 274.343 110.475C274.676 110.375 274.968 110.233 275.218 110.05C275.468 109.867 275.659 109.65 275.793 109.4C275.926 109.15 275.993 108.875 275.993 108.575C275.993 108.025 275.751 107.567 275.268 107.2C275.051 107.05 274.743 106.9 274.343 106.75C273.943 106.583 273.459 106.425 272.893 106.275C271.959 106.008 271.184 105.742 270.568 105.475C269.951 105.192 269.468 104.867 269.118 104.5C268.868 104.2 268.676 103.875 268.543 103.525C268.426 103.175 268.368 102.792 268.368 102.375C268.368 101.842 268.476 101.35 268.693 100.9C268.926 100.45 269.243 100.058 269.643 99.725C270.059 99.375 270.543 99.1167 271.093 98.95C271.659 98.7667 272.268 98.675 272.918 98.675C273.534 98.675 274.143 98.7583 274.743 98.925C275.343 99.0917 275.901 99.3333 276.418 99.65C276.934 99.9667 277.376 100.342 277.743 100.775L276.593 102.025C276.276 101.692 275.926 101.392 275.543 101.125C275.159 100.858 274.751 100.65 274.318 100.5C273.901 100.35 273.468 100.275 273.018 100.275C272.618 100.275 272.243 100.325 271.893 100.425C271.559 100.525 271.268 100.667 271.018 100.85C270.784 101.017 270.601 101.225 270.468 101.475C270.351 101.725 270.293 102 270.293 102.3C270.293 102.55 270.343 102.775 270.443 102.975C270.543 103.175 270.684 103.35 270.868 103.5C271.101 103.683 271.426 103.858 271.843 104.025C272.276 104.175 272.809 104.333 273.443 104.5C274.176 104.7 274.793 104.908 275.293 105.125C275.809 105.325 276.234 105.567 276.568 105.85C277.018 106.183 277.334 106.567 277.518 107C277.718 107.433 277.818 107.925 277.818 108.475C277.818 109.208 277.609 109.858 277.193 110.425C276.793 110.992 276.234 111.442 275.518 111.775C274.801 112.092 273.984 112.25 273.068 112.25ZM3.325 143V127.925C3.325 127.275 3.46667 126.7 3.75 126.2C4.03333 125.7 4.43333 125.308 4.95 125.025C5.48333 124.725 6.1 124.575 6.8 124.575C7.33333 124.575 7.80833 124.675 8.225 124.875C8.65833 125.058 9.01667 125.317 9.3 125.65L8.65 127.125C8.38333 126.842 8.09167 126.642 7.775 126.525C7.475 126.392 7.18333 126.325 6.9 126.325C6.53333 126.325 6.225 126.392 5.975 126.525C5.725 126.642 5.53333 126.825 5.4 127.075C5.28333 127.308 5.225 127.592 5.225 127.925V143H4.35C4.16667 143 3.99167 143 3.825 143C3.65833 143 3.49167 143 3.325 143ZM1 131.8V130.05H8.55V131.8H1ZM16.56 143.25C15.26 143.25 14.1016 142.958 13.085 142.375C12.085 141.792 11.2933 140.983 10.71 139.95C10.1433 138.917 9.85996 137.742 9.85996 136.425C9.85996 135.125 10.1433 133.967 10.71 132.95C11.2933 131.933 12.085 131.133 13.085 130.55C14.1016 129.967 15.26 129.675 16.56 129.675C17.8433 129.675 18.985 129.967 19.985 130.55C21.0016 131.133 21.7933 131.933 22.36 132.95C22.9433 133.967 23.235 135.125 23.235 136.425C23.235 137.742 22.9433 138.917 22.36 139.95C21.7933 140.983 21.0016 141.792 19.985 142.375C18.985 142.958 17.8433 143.25 16.56 143.25ZM16.56 141.475C17.4766 141.475 18.2933 141.258 19.01 140.825C19.7266 140.375 20.285 139.775 20.685 139.025C21.085 138.258 21.285 137.392 21.285 136.425C21.285 135.458 21.085 134.6 20.685 133.85C20.285 133.1 19.7266 132.517 19.01 132.1C18.2933 131.667 17.4766 131.45 16.56 131.45C15.6433 131.45 14.8183 131.667 14.085 132.1C13.3683 132.517 12.8016 133.108 12.385 133.875C11.985 134.625 11.7933 135.475 11.81 136.425C11.7933 137.392 11.985 138.258 12.385 139.025C12.8016 139.775 13.3683 140.375 14.085 140.825C14.8183 141.258 15.6433 141.475 16.56 141.475ZM25.9705 143V129.95H27.8455L27.8955 133.425L27.6955 132.95C27.8788 132.367 28.1705 131.825 28.5705 131.325C28.9872 130.825 29.4788 130.425 30.0455 130.125C30.6122 129.825 31.2372 129.675 31.9205 129.675C32.2038 129.675 32.4705 129.7 32.7205 129.75C32.9705 129.783 33.1788 129.833 33.3455 129.9L32.8205 132C32.6038 131.9 32.3788 131.833 32.1455 131.8C31.9288 131.75 31.7205 131.725 31.5205 131.725C30.9538 131.725 30.4455 131.825 29.9955 132.025C29.5455 132.225 29.1622 132.508 28.8455 132.875C28.5288 133.225 28.2872 133.633 28.1205 134.1C27.9538 134.567 27.8705 135.067 27.8705 135.6V143H25.9705ZM46.5785 143.25C45.4618 143.25 44.4618 143.042 43.5785 142.625C42.6952 142.208 41.9952 141.658 41.4785 140.975L42.8035 139.825C43.2868 140.408 43.8535 140.85 44.5035 141.15C45.1702 141.45 45.9118 141.6 46.7285 141.6C47.1452 141.6 47.5202 141.558 47.8535 141.475C48.1868 141.375 48.4785 141.233 48.7285 141.05C48.9785 140.867 49.1702 140.65 49.3035 140.4C49.4368 140.15 49.5035 139.875 49.5035 139.575C49.5035 139.025 49.2618 138.567 48.7785 138.2C48.5618 138.05 48.2535 137.9 47.8535 137.75C47.4535 137.583 46.9702 137.425 46.4035 137.275C45.4702 137.008 44.6952 136.742 44.0785 136.475C43.4618 136.192 42.9785 135.867 42.6285 135.5C42.3785 135.2 42.1868 134.875 42.0535 134.525C41.9368 134.175 41.8785 133.792 41.8785 133.375C41.8785 132.842 41.9868 132.35 42.2035 131.9C42.4368 131.45 42.7535 131.058 43.1535 130.725C43.5702 130.375 44.0535 130.117 44.6035 129.95C45.1702 129.767 45.7785 129.675 46.4285 129.675C47.0452 129.675 47.6535 129.758 48.2535 129.925C48.8535 130.092 49.4118 130.333 49.9285 130.65C50.4452 130.967 50.8868 131.342 51.2535 131.775L50.1035 133.025C49.7868 132.692 49.4368 132.392 49.0535 132.125C48.6702 131.858 48.2618 131.65 47.8285 131.5C47.4118 131.35 46.9785 131.275 46.5285 131.275C46.1285 131.275 45.7535 131.325 45.4035 131.425C45.0702 131.525 44.7785 131.667 44.5285 131.85C44.2952 132.017 44.1118 132.225 43.9785 132.475C43.8618 132.725 43.8035 133 43.8035 133.3C43.8035 133.55 43.8535 133.775 43.9535 133.975C44.0535 134.175 44.1952 134.35 44.3785 134.5C44.6118 134.683 44.9368 134.858 45.3535 135.025C45.7868 135.175 46.3202 135.333 46.9535 135.5C47.6868 135.7 48.3035 135.908 48.8035 136.125C49.3202 136.325 49.7452 136.567 50.0785 136.85C50.5285 137.183 50.8452 137.567 51.0285 138C51.2285 138.433 51.3285 138.925 51.3285 139.475C51.3285 140.208 51.1202 140.858 50.7035 141.425C50.3035 141.992 49.7452 142.442 49.0285 142.775C48.3118 143.092 47.4952 143.25 46.5785 143.25ZM58.8914 143.25C57.8914 143.25 57.0414 143.05 56.3414 142.65C55.6581 142.233 55.1331 141.633 54.7664 140.85C54.4164 140.067 54.2414 139.092 54.2414 137.925V129.95H56.1414V137.55C56.1414 138.433 56.2581 139.175 56.4914 139.775C56.7414 140.358 57.1081 140.8 57.5914 141.1C58.0914 141.4 58.6997 141.55 59.4164 141.55C59.9664 141.55 60.4747 141.458 60.9414 141.275C61.4081 141.075 61.8164 140.808 62.1664 140.475C62.5164 140.142 62.7914 139.75 62.9914 139.3C63.1914 138.85 63.2914 138.375 63.2914 137.875V129.95H65.1664V143H63.3164L63.2414 140.25L63.5414 140.1C63.3414 140.683 63.0081 141.217 62.5414 141.7C62.0747 142.167 61.5164 142.542 60.8664 142.825C60.2331 143.108 59.5747 143.25 58.8914 143.25ZM68.7922 143V129.95H70.6672L70.7172 132.925L70.3422 133.05C70.4755 132.55 70.6922 132.1 70.9922 131.7C71.3089 131.283 71.6839 130.925 72.1172 130.625C72.5505 130.325 73.0255 130.1 73.5422 129.95C74.0589 129.783 74.6005 129.7 75.1672 129.7C75.8505 129.7 76.4589 129.817 76.9922 130.05C77.5422 130.267 78.0005 130.65 78.3672 131.2C78.7505 131.733 79.0422 132.442 79.2422 133.325L78.7922 133.1L78.9672 132.675C79.1339 132.292 79.3755 131.925 79.6922 131.575C80.0255 131.208 80.4005 130.883 80.8172 130.6C81.2505 130.317 81.7172 130.1 82.2172 129.95C82.7339 129.783 83.2589 129.7 83.7922 129.7C84.7089 129.7 85.4839 129.9 86.1172 130.3C86.7505 130.683 87.2255 131.275 87.5422 132.075C87.8755 132.875 88.0422 133.892 88.0422 135.125V143H86.1172V135.225C86.1172 134.358 86.0089 133.65 85.7922 133.1C85.5755 132.55 85.2505 132.142 84.8172 131.875C84.4005 131.592 83.8672 131.45 83.2172 131.45C82.6505 131.45 82.1255 131.55 81.6422 131.75C81.1755 131.933 80.7672 132.2 80.4172 132.55C80.0839 132.883 79.8172 133.267 79.6172 133.7C79.4339 134.133 79.3422 134.6 79.3422 135.1V143H77.4422V135.2C77.4422 134.367 77.3255 133.675 77.0922 133.125C76.8755 132.575 76.5505 132.158 76.1172 131.875C75.6839 131.592 75.1505 131.45 74.5172 131.45C73.9672 131.45 73.4589 131.55 72.9922 131.75C72.5255 131.933 72.1172 132.192 71.7672 132.525C71.4339 132.858 71.1672 133.242 70.9672 133.675C70.7839 134.108 70.6922 134.575 70.6922 135.075V143H68.7922ZM91.5705 143V129.95H93.4455L93.4955 132.925L93.1205 133.05C93.2538 132.55 93.4705 132.1 93.7705 131.7C94.0872 131.283 94.4622 130.925 94.8955 130.625C95.3288 130.325 95.8038 130.1 96.3205 129.95C96.8372 129.783 97.3788 129.7 97.9455 129.7C98.6288 129.7 99.2372 129.817 99.7705 130.05C100.321 130.267 100.779 130.65 101.146 131.2C101.529 131.733 101.821 132.442 102.021 133.325L101.571 133.1L101.746 132.675C101.912 132.292 102.154 131.925 102.471 131.575C102.804 131.208 103.179 130.883 103.596 130.6C104.029 130.317 104.496 130.1 104.996 129.95C105.512 129.783 106.037 129.7 106.571 129.7C107.487 129.7 108.262 129.9 108.896 130.3C109.529 130.683 110.004 131.275 110.321 132.075C110.654 132.875 110.821 133.892 110.821 135.125V143H108.896V135.225C108.896 134.358 108.787 133.65 108.571 133.1C108.354 132.55 108.029 132.142 107.596 131.875C107.179 131.592 106.646 131.45 105.996 131.45C105.429 131.45 104.904 131.55 104.421 131.75C103.954 131.933 103.546 132.2 103.196 132.55C102.862 132.883 102.596 133.267 102.396 133.7C102.212 134.133 102.121 134.6 102.121 135.1V143H100.221V135.2C100.221 134.367 100.104 133.675 99.8705 133.125C99.6538 132.575 99.3288 132.158 98.8955 131.875C98.4622 131.592 97.9288 131.45 97.2955 131.45C96.7455 131.45 96.2372 131.55 95.7705 131.75C95.3038 131.933 94.8955 132.192 94.5455 132.525C94.2122 132.858 93.9455 133.242 93.7455 133.675C93.5622 134.108 93.4705 134.575 93.4705 135.075V143H91.5705ZM120.124 143.25C118.824 143.25 117.665 142.967 116.649 142.4C115.649 141.833 114.865 141.042 114.299 140.025C113.732 139.008 113.449 137.842 113.449 136.525C113.449 135.508 113.607 134.592 113.924 133.775C114.24 132.942 114.682 132.217 115.249 131.6C115.832 130.983 116.524 130.508 117.324 130.175C118.124 129.825 118.99 129.65 119.924 129.65C120.807 129.65 121.607 129.808 122.324 130.125C123.057 130.442 123.682 130.883 124.199 131.45C124.732 132 125.132 132.658 125.399 133.425C125.665 134.192 125.782 135.033 125.749 135.95L125.724 136.825H114.849L114.574 135.25H124.299L123.849 135.675V135.075C123.815 134.475 123.64 133.9 123.324 133.35C123.007 132.783 122.557 132.325 121.974 131.975C121.407 131.625 120.724 131.45 119.924 131.45C118.99 131.45 118.182 131.642 117.499 132.025C116.815 132.392 116.29 132.942 115.924 133.675C115.557 134.408 115.374 135.317 115.374 136.4C115.374 137.433 115.574 138.333 115.974 139.1C116.374 139.85 116.94 140.433 117.674 140.85C118.424 141.267 119.324 141.475 120.374 141.475C120.99 141.475 121.599 141.375 122.199 141.175C122.815 140.958 123.49 140.542 124.224 139.925L125.199 141.275C124.815 141.658 124.357 142 123.824 142.3C123.29 142.583 122.707 142.817 122.074 143C121.44 143.167 120.79 143.25 120.124 143.25ZM128.412 143V129.95H130.287L130.337 133.425L130.137 132.95C130.32 132.367 130.612 131.825 131.012 131.325C131.429 130.825 131.92 130.425 132.487 130.125C133.054 129.825 133.679 129.675 134.362 129.675C134.645 129.675 134.912 129.7 135.162 129.75C135.412 129.783 135.62 129.833 135.787 129.9L135.262 132C135.045 131.9 134.82 131.833 134.587 131.8C134.37 131.75 134.162 131.725 133.962 131.725C133.395 131.725 132.887 131.825 132.437 132.025C131.987 132.225 131.604 132.508 131.287 132.875C130.97 133.225 130.729 133.633 130.562 134.1C130.395 134.567 130.312 135.067 130.312 135.6V143H128.412ZM145.245 143L144.645 141.55L150.545 134.925C150.828 134.608 151.12 134.25 151.42 133.85C151.737 133.45 152.028 133.033 152.295 132.6C152.578 132.15 152.803 131.708 152.97 131.275C153.137 130.842 153.22 130.417 153.22 130C153.22 129.383 153.087 128.867 152.82 128.45C152.553 128.017 152.17 127.683 151.67 127.45C151.187 127.217 150.62 127.1 149.97 127.1C149.403 127.1 148.845 127.233 148.295 127.5C147.745 127.767 147.245 128.175 146.795 128.725C146.345 129.275 145.995 129.975 145.745 130.825L144.195 129.9C144.495 128.883 144.937 128.033 145.52 127.35C146.103 126.65 146.795 126.125 147.595 125.775C148.395 125.425 149.253 125.25 150.17 125.25C151.137 125.25 152.003 125.45 152.77 125.85C153.537 126.233 154.145 126.783 154.595 127.5C155.045 128.2 155.27 129.008 155.27 129.925C155.27 130.325 155.22 130.725 155.12 131.125C155.037 131.525 154.903 131.925 154.72 132.325C154.537 132.725 154.312 133.133 154.045 133.55C153.795 133.967 153.495 134.392 153.145 134.825C152.812 135.258 152.437 135.708 152.02 136.175L146.995 141.775L146.695 141.125H155.82V143H145.245ZM164.266 143.25C162.9 143.25 161.733 142.892 160.766 142.175C159.816 141.458 159.083 140.433 158.566 139.1C158.066 137.75 157.816 136.133 157.816 134.25C157.816 132.367 158.066 130.758 158.566 129.425C159.083 128.075 159.816 127.042 160.766 126.325C161.733 125.608 162.9 125.25 164.266 125.25C165.616 125.25 166.775 125.608 167.741 126.325C168.708 127.042 169.441 128.075 169.941 129.425C170.458 130.758 170.716 132.367 170.716 134.25C170.716 136.133 170.458 137.75 169.941 139.1C169.441 140.433 168.708 141.458 167.741 142.175C166.775 142.892 165.616 143.25 164.266 143.25ZM164.266 141.425C165.7 141.425 166.8 140.8 167.566 139.55C168.35 138.3 168.741 136.533 168.741 134.25C168.741 131.967 168.35 130.2 167.566 128.95C166.8 127.7 165.7 127.075 164.266 127.075C162.816 127.075 161.7 127.7 160.916 128.95C160.15 130.2 159.766 131.967 159.766 134.25C159.766 136.533 160.15 138.3 160.916 139.55C161.7 140.8 162.816 141.425 164.266 141.425ZM174.249 143L173.649 141.55L179.549 134.925C179.832 134.608 180.124 134.25 180.424 133.85C180.74 133.45 181.032 133.033 181.299 132.6C181.582 132.15 181.807 131.708 181.974 131.275C182.14 130.842 182.224 130.417 182.224 130C182.224 129.383 182.09 128.867 181.824 128.45C181.557 128.017 181.174 127.683 180.674 127.45C180.19 127.217 179.624 127.1 178.974 127.1C178.407 127.1 177.849 127.233 177.299 127.5C176.749 127.767 176.249 128.175 175.799 128.725C175.349 129.275 174.999 129.975 174.749 130.825L173.199 129.9C173.499 128.883 173.94 128.033 174.524 127.35C175.107 126.65 175.799 126.125 176.599 125.775C177.399 125.425 178.257 125.25 179.174 125.25C180.14 125.25 181.007 125.45 181.774 125.85C182.54 126.233 183.149 126.783 183.599 127.5C184.049 128.2 184.274 129.008 184.274 129.925C184.274 130.325 184.224 130.725 184.124 131.125C184.04 131.525 183.907 131.925 183.724 132.325C183.54 132.725 183.315 133.133 183.049 133.55C182.799 133.967 182.499 134.392 182.149 134.825C181.815 135.258 181.44 135.708 181.024 136.175L175.999 141.775L175.699 141.125H184.824V143H174.249ZM192.02 143.25C190.787 143.25 189.695 142.975 188.745 142.425C187.812 141.858 186.937 140.9 186.12 139.55L187.72 138.55C188.17 139.267 188.628 139.842 189.095 140.275C189.578 140.692 190.07 140.992 190.57 141.175C191.07 141.358 191.603 141.45 192.17 141.45C192.87 141.45 193.512 141.283 194.095 140.95C194.678 140.6 195.145 140.133 195.495 139.55C195.845 138.95 196.02 138.283 196.02 137.55C196.02 136.8 195.862 136.142 195.545 135.575C195.228 135.008 194.787 134.567 194.22 134.25C193.67 133.933 193.028 133.775 192.295 133.775C192.028 133.775 191.737 133.808 191.42 133.875C191.12 133.925 190.787 134.033 190.42 134.2C190.07 134.35 189.687 134.575 189.27 134.875L188.695 133.325L194.87 126.6L195.295 127.325H187.345V125.5H196.795L197.295 126.5L191.295 132.9L190.795 132.4C191.012 132.267 191.27 132.158 191.57 132.075C191.87 131.975 192.17 131.925 192.47 131.925C193.237 131.925 193.953 132.067 194.62 132.35C195.287 132.633 195.862 133.033 196.345 133.55C196.845 134.05 197.237 134.633 197.52 135.3C197.803 135.967 197.945 136.692 197.945 137.475C197.945 138.558 197.687 139.542 197.17 140.425C196.653 141.292 195.945 141.983 195.045 142.5C194.145 143 193.137 143.25 192.02 143.25ZM201.703 143.25C201.253 143.25 200.903 143.117 200.653 142.85C200.419 142.583 200.303 142.2 200.303 141.7C200.303 141.25 200.428 140.883 200.678 140.6C200.944 140.3 201.286 140.15 201.703 140.15C202.153 140.15 202.494 140.292 202.728 140.575C202.978 140.842 203.103 141.217 203.103 141.7C203.103 142.167 202.969 142.542 202.703 142.825C202.453 143.108 202.119 143.25 201.703 143.25Z" fill="white"/>
</svg>
