<svg width="300" height="58" viewBox="0 0 300 58" fill="none" xmlns="http://www.w3.org/2000/svg">
<rect width="300" height="58" rx="29" fill="url(#paint0_linear_46_1678)"/>
<path d="M84.185 42V17.5H95.035C96.5517 17.5 97.9283 17.85 99.165 18.55C100.402 19.2267 101.37 20.1483 102.07 21.315C102.793 22.4817 103.155 23.8117 103.155 25.305C103.155 26.775 102.793 28.1167 102.07 29.33C101.37 30.52 100.402 31.465 99.165 32.165C97.9283 32.865 96.5517 33.215 95.035 33.215H89.26V42H84.185ZM98.08 42L91.85 30.94L97.24 30.065L104.17 42.035L98.08 42ZM89.26 28.945H94.79C95.42 28.945 95.9683 28.805 96.435 28.525C96.925 28.2217 97.2983 27.8133 97.555 27.3C97.8117 26.7633 97.94 26.1683 97.94 25.515C97.94 24.815 97.7883 24.2083 97.485 23.695C97.1817 23.1817 96.7383 22.785 96.155 22.505C95.5717 22.2017 94.895 22.05 94.125 22.05H89.26V28.945ZM116.093 42.35C114.087 42.35 112.337 41.9417 110.843 41.125C109.35 40.3083 108.183 39.1883 107.343 37.765C106.503 36.3417 106.083 34.7083 106.083 32.865C106.083 31.4417 106.317 30.135 106.783 28.945C107.25 27.755 107.903 26.7283 108.743 25.865C109.583 24.9783 110.575 24.3017 111.718 23.835C112.885 23.345 114.145 23.1 115.498 23.1C116.758 23.1 117.925 23.3333 118.998 23.8C120.072 24.2433 120.993 24.885 121.763 25.725C122.557 26.5417 123.163 27.51 123.583 28.63C124.003 29.75 124.19 30.975 124.143 32.305L124.108 33.845H109.233L108.428 30.8H120.013L119.453 31.43V30.66C119.407 30.03 119.197 29.4583 118.823 28.945C118.473 28.4317 118.018 28.035 117.458 27.755C116.898 27.475 116.268 27.335 115.568 27.335C114.542 27.335 113.667 27.5333 112.943 27.93C112.243 28.3267 111.707 28.91 111.333 29.68C110.96 30.45 110.773 31.3833 110.773 32.48C110.773 33.6 111.007 34.5683 111.473 35.385C111.963 36.2017 112.64 36.8433 113.503 37.31C114.39 37.7533 115.428 37.975 116.618 37.975C117.435 37.975 118.182 37.8467 118.858 37.59C119.535 37.3333 120.258 36.89 121.028 36.26L123.408 39.585C122.732 40.1917 121.985 40.705 121.168 41.125C120.352 41.5217 119.512 41.825 118.648 42.035C117.785 42.245 116.933 42.35 116.093 42.35ZM134.046 42.35C132.319 42.35 130.779 42.07 129.426 41.51C128.096 40.9267 127.023 40.1333 126.206 39.13L129.286 36.47C130.009 37.24 130.814 37.8 131.701 38.15C132.588 38.4767 133.474 38.64 134.361 38.64C134.711 38.64 135.026 38.605 135.306 38.535C135.609 38.4417 135.866 38.325 136.076 38.185C136.286 38.0217 136.438 37.835 136.531 37.625C136.648 37.3917 136.706 37.1467 136.706 36.89C136.706 36.3767 136.496 35.9683 136.076 35.665C135.843 35.5483 135.481 35.4083 134.991 35.245C134.501 35.0583 133.871 34.86 133.101 34.65C131.911 34.3467 130.896 33.9967 130.056 33.6C129.239 33.18 128.586 32.7133 128.096 32.2C127.676 31.71 127.349 31.185 127.116 30.625C126.906 30.0417 126.801 29.4 126.801 28.7C126.801 27.86 126.988 27.1017 127.361 26.425C127.734 25.725 128.248 25.13 128.901 24.64C129.578 24.15 130.348 23.7767 131.211 23.52C132.074 23.24 132.984 23.1 133.941 23.1C134.898 23.1 135.831 23.2167 136.741 23.45C137.651 23.6833 138.491 24.0217 139.261 24.465C140.054 24.885 140.743 25.3867 141.326 25.97L138.666 28.91C138.246 28.5133 137.768 28.1517 137.231 27.825C136.718 27.4983 136.181 27.2417 135.621 27.055C135.061 26.8683 134.559 26.775 134.116 26.775C133.719 26.775 133.358 26.81 133.031 26.88C132.728 26.95 132.471 27.055 132.261 27.195C132.051 27.335 131.888 27.5217 131.771 27.755C131.678 27.965 131.631 28.1983 131.631 28.455C131.631 28.7117 131.689 28.9567 131.806 29.19C131.946 29.4233 132.133 29.6217 132.366 29.785C132.623 29.925 132.996 30.0883 133.486 30.275C133.999 30.4617 134.688 30.6717 135.551 30.905C136.671 31.2083 137.616 31.5467 138.386 31.92C139.179 32.2933 139.809 32.725 140.276 33.215C140.673 33.635 140.964 34.1133 141.151 34.65C141.338 35.1867 141.431 35.7817 141.431 36.435C141.431 37.5783 141.104 38.605 140.451 39.515C139.821 40.4017 138.946 41.1017 137.826 41.615C136.706 42.105 135.446 42.35 134.046 42.35ZM151.344 42.35C149.991 42.35 148.824 42.0583 147.844 41.475C146.888 40.8683 146.141 40.0167 145.604 38.92C145.091 37.8 144.834 36.4583 144.834 34.895V23.485H149.804V34.09C149.804 34.93 149.944 35.665 150.224 36.295C150.504 36.9017 150.901 37.3683 151.414 37.695C151.928 38.0217 152.558 38.185 153.304 38.185C153.841 38.185 154.343 38.1033 154.809 37.94C155.276 37.7533 155.673 37.4967 155.999 37.17C156.326 36.8433 156.583 36.4583 156.769 36.015C156.956 35.5717 157.049 35.0933 157.049 34.58V23.485H162.019V42H157.294L157.119 38.185L158.029 37.765C157.749 38.6283 157.283 39.41 156.629 40.11C155.976 40.81 155.194 41.3583 154.284 41.755C153.374 42.1517 152.394 42.35 151.344 42.35ZM166.985 42V23.485H171.78L171.885 27.02L171.15 27.16C171.407 26.5533 171.745 26.005 172.165 25.515C172.585 25.025 173.075 24.605 173.635 24.255C174.218 23.905 174.825 23.6367 175.455 23.45C176.085 23.24 176.715 23.135 177.345 23.135C178.302 23.135 179.165 23.2867 179.935 23.59C180.705 23.8933 181.358 24.3717 181.895 25.025C182.432 25.655 182.852 26.495 183.155 27.545L182.385 27.475L182.63 26.915C182.933 26.355 183.318 25.8533 183.785 25.41C184.252 24.9433 184.777 24.5467 185.36 24.22C185.943 23.87 186.55 23.6017 187.18 23.415C187.81 23.2283 188.428 23.135 189.035 23.135C190.482 23.135 191.683 23.4267 192.64 24.01C193.597 24.57 194.308 25.4217 194.775 26.565C195.265 27.7083 195.51 29.1083 195.51 30.765V42H190.54V31.115C190.54 30.275 190.423 29.5867 190.19 29.05C189.957 28.5133 189.618 28.1167 189.175 27.86C188.732 27.58 188.16 27.44 187.46 27.44C186.923 27.44 186.422 27.5333 185.955 27.72C185.512 27.8833 185.115 28.1283 184.765 28.455C184.438 28.7583 184.182 29.12 183.995 29.54C183.808 29.96 183.715 30.4267 183.715 30.94V42H178.745V31.08C178.745 30.31 178.617 29.6567 178.36 29.12C178.127 28.56 177.788 28.14 177.345 27.86C176.902 27.58 176.353 27.44 175.7 27.44C175.163 27.44 174.662 27.5333 174.195 27.72C173.752 27.8833 173.367 28.1283 173.04 28.455C172.713 28.7583 172.445 29.12 172.235 29.54C172.048 29.96 171.955 30.415 171.955 30.905V42H166.985ZM209.028 42.35C207.021 42.35 205.271 41.9417 203.778 41.125C202.284 40.3083 201.118 39.1883 200.278 37.765C199.438 36.3417 199.018 34.7083 199.018 32.865C199.018 31.4417 199.251 30.135 199.718 28.945C200.184 27.755 200.838 26.7283 201.678 25.865C202.518 24.9783 203.509 24.3017 204.653 23.835C205.819 23.345 207.079 23.1 208.433 23.1C209.693 23.1 210.859 23.3333 211.933 23.8C213.006 24.2433 213.928 24.885 214.698 25.725C215.491 26.5417 216.098 27.51 216.518 28.63C216.938 29.75 217.124 30.975 217.078 32.305L217.043 33.845H202.168L201.363 30.8H212.948L212.388 31.43V30.66C212.341 30.03 212.131 29.4583 211.758 28.945C211.408 28.4317 210.953 28.035 210.393 27.755C209.833 27.475 209.203 27.335 208.503 27.335C207.476 27.335 206.601 27.5333 205.878 27.93C205.178 28.3267 204.641 28.91 204.268 29.68C203.894 30.45 203.708 31.3833 203.708 32.48C203.708 33.6 203.941 34.5683 204.408 35.385C204.898 36.2017 205.574 36.8433 206.438 37.31C207.324 37.7533 208.363 37.975 209.553 37.975C210.369 37.975 211.116 37.8467 211.793 37.59C212.469 37.3333 213.193 36.89 213.963 36.26L216.343 39.585C215.666 40.1917 214.919 40.705 214.103 41.125C213.286 41.5217 212.446 41.825 211.583 42.035C210.719 42.245 209.868 42.35 209.028 42.35Z" fill="#333333"/>
<defs>
<linearGradient id="paint0_linear_46_1678" x1="150" y1="0" x2="150" y2="58" gradientUnits="userSpaceOnUse">
<stop stop-color="#FFFDF8"/>
<stop offset="1" stop-color="#E3ECFC"/>
</linearGradient>
</defs>
</svg>
