<svg width="237" height="38" viewBox="0 0 237 38" fill="none" xmlns="http://www.w3.org/2000/svg">
<path d="M0.4 37L14.1 2H20.8L34.45 37H26.75L19.7 18.15C19.5 17.6167 19.25 16.9333 18.95 16.1C18.6833 15.2667 18.4 14.3833 18.1 13.45C17.8 12.5167 17.5167 11.6333 17.25 10.8C16.9833 9.93333 16.7833 9.21667 16.65 8.65L18 8.6C17.8 9.36667 17.5667 10.1667 17.3 11C17.0667 11.8 16.8167 12.6333 16.55 13.5C16.2833 14.3333 16 15.15 15.7 15.95C15.4 16.75 15.1167 17.5333 14.85 18.3L7.8 37H0.4ZM6.75 29.65L9.2 23.6H25.25L27.75 29.65H6.75ZM53.6145 37.5C52.4478 37.5 51.3145 37.3333 50.2145 37C49.1145 36.6667 48.1145 36.2167 47.2145 35.65C46.3145 35.05 45.5645 34.3833 44.9645 33.65C44.3645 32.8833 43.9811 32.1 43.8145 31.3L45.4145 30.7L45.0645 36.9H38.3645V-4.76837e-07H45.4645V16.75L44.1145 16.2C44.3145 15.4 44.6978 14.6333 45.2645 13.9C45.8311 13.1333 46.5478 12.4667 47.4145 11.9C48.2811 11.3 49.2311 10.8333 50.2645 10.5C51.2978 10.1667 52.3645 10 53.4645 10C55.7645 10 57.8145 10.6 59.6145 11.8C61.4145 12.9667 62.8311 14.5833 63.8645 16.65C64.9311 18.7167 65.4645 21.0833 65.4645 23.75C65.4645 26.4167 64.9478 28.7833 63.9145 30.85C62.8811 32.9167 61.4645 34.55 59.6645 35.75C57.8978 36.9167 55.8811 37.5 53.6145 37.5ZM51.9145 31.45C53.2478 31.45 54.3978 31.1333 55.3645 30.5C56.3645 29.8333 57.1478 28.9333 57.7145 27.8C58.2811 26.6333 58.5645 25.2833 58.5645 23.75C58.5645 22.25 58.2811 20.9167 57.7145 19.75C57.1811 18.5833 56.4145 17.6833 55.4145 17.05C54.4145 16.4167 53.2478 16.1 51.9145 16.1C50.5811 16.1 49.4145 16.4167 48.4145 17.05C47.4145 17.6833 46.6311 18.5833 46.0645 19.75C45.4978 20.9167 45.2145 22.25 45.2145 23.75C45.2145 25.2833 45.4978 26.6333 46.0645 27.8C46.6311 28.9333 47.4145 29.8333 48.4145 30.5C49.4145 31.1333 50.5811 31.45 51.9145 31.45ZM83.1352 37.5C80.4352 37.5 78.0185 36.9167 75.8852 35.75C73.7852 34.55 72.1185 32.9167 70.8852 30.85C69.6852 28.7833 69.0852 26.4167 69.0852 23.75C69.0852 21.0833 69.6852 18.7333 70.8852 16.7C72.1185 14.6333 73.7852 13 75.8852 11.8C78.0185 10.6 80.4352 10 83.1352 10C85.8018 10 88.1852 10.6 90.2852 11.8C92.4185 13 94.0852 14.6333 95.2852 16.7C96.4852 18.7333 97.0852 21.0833 97.0852 23.75C97.0852 26.4167 96.4852 28.7833 95.2852 30.85C94.0852 32.9167 92.4185 34.55 90.2852 35.75C88.1852 36.9167 85.8018 37.5 83.1352 37.5ZM83.1352 31.3C84.4352 31.3 85.6018 30.9833 86.6352 30.35C87.6685 29.6833 88.4685 28.7833 89.0352 27.65C89.6352 26.4833 89.9352 25.1833 89.9352 23.75C89.9352 22.2833 89.6352 20.9833 89.0352 19.85C88.4685 18.6833 87.6685 17.7833 86.6352 17.15C85.6018 16.4833 84.4352 16.15 83.1352 16.15C81.8018 16.15 80.6185 16.4833 79.5852 17.15C78.5518 17.8167 77.7352 18.7167 77.1352 19.85C76.5352 20.9833 76.2518 22.2833 76.2852 23.75C76.2518 25.1833 76.5352 26.4833 77.1352 27.65C77.7352 28.7833 78.5518 29.6833 79.5852 30.35C80.6185 30.9833 81.8018 31.3 83.1352 31.3ZM111.527 37.5C109.594 37.5 107.927 37.0833 106.527 36.25C105.16 35.3833 104.094 34.1667 103.327 32.6C102.594 31 102.227 29.0833 102.227 26.85V10.55H109.327V25.7C109.327 26.9 109.527 27.95 109.927 28.85C110.327 29.7167 110.894 30.3833 111.627 30.85C112.36 31.3167 113.26 31.55 114.327 31.55C115.094 31.55 115.81 31.4333 116.477 31.2C117.144 30.9333 117.71 30.5667 118.177 30.1C118.644 29.6333 119.01 29.0833 119.277 28.45C119.544 27.8167 119.677 27.1333 119.677 26.4V10.55H126.777V37H120.027L119.777 31.55L121.077 30.95C120.677 32.1833 120.01 33.3 119.077 34.3C118.144 35.3 117.027 36.0833 115.727 36.65C114.427 37.2167 113.027 37.5 111.527 37.5ZM136.471 37V3.85H143.571V37H136.471ZM131.521 16.9V10.55H148.971V16.9H131.521ZM169.931 37V2H176.781L189.531 22.75L185.031 22.7L197.931 2H204.481V37H197.131V25C197.131 22 197.198 19.3 197.331 16.9C197.498 14.5 197.764 12.1167 198.131 9.75L199.031 12.1L188.781 28H185.481L175.431 12.2L176.281 9.75C176.648 11.9833 176.898 14.2833 177.031 16.65C177.198 18.9833 177.281 21.7667 177.281 25V37H169.931ZM225.133 37.5C222.267 37.5 219.767 36.9167 217.633 35.75C215.5 34.5833 213.833 32.9833 212.633 30.95C211.433 28.9167 210.833 26.5833 210.833 23.95C210.833 21.9167 211.167 20.05 211.833 18.35C212.5 16.65 213.433 15.1833 214.633 13.95C215.833 12.6833 217.25 11.7167 218.883 11.05C220.55 10.35 222.35 10 224.283 10C226.083 10 227.75 10.3333 229.283 11C230.817 11.6333 232.133 12.55 233.233 13.75C234.367 14.9167 235.233 16.3 235.833 17.9C236.433 19.5 236.7 21.25 236.633 23.15L236.583 25.35H215.333L214.183 21H230.733L229.933 21.9V20.8C229.867 19.9 229.567 19.0833 229.033 18.35C228.533 17.6167 227.883 17.05 227.083 16.65C226.283 16.25 225.383 16.05 224.383 16.05C222.917 16.05 221.667 16.3333 220.633 16.9C219.633 17.4667 218.867 18.3 218.333 19.4C217.8 20.5 217.533 21.8333 217.533 23.4C217.533 25 217.867 26.3833 218.533 27.55C219.233 28.7167 220.2 29.6333 221.433 30.3C222.7 30.9333 224.183 31.25 225.883 31.25C227.05 31.25 228.117 31.0667 229.083 30.7C230.05 30.3333 231.083 29.7 232.183 28.8L235.583 33.55C234.617 34.4167 233.55 35.15 232.383 35.75C231.217 36.3167 230.017 36.75 228.783 37.05C227.55 37.35 226.333 37.5 225.133 37.5Z" fill="#FFFDF8"/>
</svg>
