<svg width="652" height="24" viewBox="0 0 652 24" fill="none" xmlns="http://www.w3.org/2000/svg">
<path d="M8.432 18.24C7.232 18.24 6.128 18.032 5.12 17.616C4.112 17.184 3.24 16.584 2.504 15.816C1.768 15.032 1.192 14.112 0.776 13.056C0.376 12 0.176 10.848 0.176 9.6C0.176 8.368 0.376 7.24 0.776 6.216C1.192 5.176 1.776 4.272 2.528 3.504C3.28 2.72 4.152 2.12 5.144 1.704C6.136 1.288 7.224 1.08 8.408 1.08C9.192 1.08 9.968 1.208 10.736 1.464C11.504 1.704 12.208 2.04 12.848 2.472C13.504 2.904 14.04 3.4 14.456 3.96L13.16 5.304C12.76 4.824 12.296 4.408 11.768 4.056C11.256 3.704 10.712 3.432 10.136 3.24C9.56 3.048 8.984 2.952 8.408 2.952C7.512 2.952 6.672 3.12 5.888 3.456C5.12 3.776 4.456 4.232 3.896 4.824C3.336 5.416 2.896 6.12 2.576 6.936C2.272 7.752 2.12 8.64 2.12 9.6C2.12 10.592 2.272 11.504 2.576 12.336C2.896 13.168 3.344 13.888 3.92 14.496C4.512 15.088 5.2 15.552 5.984 15.888C6.784 16.208 7.672 16.368 8.648 16.368C9.224 16.368 9.8 16.288 10.376 16.128C10.952 15.952 11.48 15.712 11.96 15.408C12.44 15.104 12.848 14.76 13.184 14.376L14.144 15.936C13.776 16.384 13.28 16.784 12.656 17.136C12.048 17.472 11.376 17.744 10.64 17.952C9.904 18.144 9.168 18.24 8.432 18.24ZM22.5148 18.24C21.2668 18.24 20.1548 17.96 19.1788 17.4C18.2188 16.84 17.4588 16.064 16.8988 15.072C16.3548 14.08 16.0828 12.952 16.0828 11.688C16.0828 10.44 16.3548 9.328 16.8988 8.352C17.4588 7.376 18.2188 6.608 19.1788 6.048C20.1548 5.488 21.2668 5.208 22.5148 5.208C23.7468 5.208 24.8428 5.488 25.8028 6.048C26.7788 6.608 27.5388 7.376 28.0828 8.352C28.6428 9.328 28.9228 10.44 28.9228 11.688C28.9228 12.952 28.6428 14.08 28.0828 15.072C27.5388 16.064 26.7788 16.84 25.8028 17.4C24.8428 17.96 23.7468 18.24 22.5148 18.24ZM22.5148 16.536C23.3948 16.536 24.1788 16.328 24.8668 15.912C25.5548 15.48 26.0908 14.904 26.4748 14.184C26.8588 13.448 27.0508 12.616 27.0508 11.688C27.0508 10.76 26.8588 9.936 26.4748 9.216C26.0908 8.496 25.5548 7.936 24.8668 7.536C24.1788 7.12 23.3948 6.912 22.5148 6.912C21.6348 6.912 20.8428 7.12 20.1388 7.536C19.4508 7.936 18.9068 8.504 18.5068 9.24C18.1228 9.96 17.9388 10.776 17.9548 11.688C17.9388 12.616 18.1228 13.448 18.5068 14.184C18.9068 14.904 19.4508 15.48 20.1388 15.912C20.8428 16.328 21.6348 16.536 22.5148 16.536ZM31.1409 12.216V10.416H37.9089V12.216H31.1409ZM41.7142 18V1.2H48.0502C49.2022 1.2 50.2502 1.408 51.1942 1.824C52.1542 2.224 52.9862 2.8 53.6902 3.552C54.3942 4.304 54.9382 5.192 55.3222 6.216C55.7062 7.24 55.8982 8.368 55.8982 9.6C55.8982 10.832 55.7062 11.968 55.3222 13.008C54.9382 14.032 54.3942 14.92 53.6902 15.672C53.0022 16.408 52.1782 16.984 51.2182 17.4C50.2582 17.8 49.2022 18 48.0502 18H41.7142ZM43.5862 16.512L43.3702 16.176H47.9302C48.8102 16.176 49.6182 16.024 50.3542 15.72C51.1062 15.4 51.7462 14.952 52.2742 14.376C52.8182 13.784 53.2342 13.088 53.5222 12.288C53.8262 11.488 53.9782 10.592 53.9782 9.6C53.9782 8.608 53.8262 7.712 53.5222 6.912C53.2342 6.112 52.8182 5.424 52.2742 4.848C51.7302 4.256 51.0902 3.808 50.3542 3.504C49.6182 3.184 48.8102 3.024 47.9302 3.024H43.2982L43.5862 2.736V16.512ZM64.3501 18.24C63.1021 18.24 61.9901 17.968 61.0141 17.424C60.0541 16.88 59.3021 16.12 58.7581 15.144C58.2141 14.168 57.9421 13.048 57.9421 11.784C57.9421 10.808 58.0941 9.928 58.3981 9.144C58.7021 8.344 59.1261 7.648 59.6701 7.056C60.2301 6.464 60.8941 6.008 61.6621 5.688C62.4301 5.352 63.2621 5.184 64.1581 5.184C65.0061 5.184 65.7741 5.336 66.4621 5.64C67.1661 5.944 67.7661 6.368 68.2621 6.912C68.7741 7.44 69.1581 8.072 69.4141 8.808C69.6701 9.544 69.7821 10.352 69.7501 11.232L69.7261 12.072H59.2861L59.0221 10.56H68.3581L67.9261 10.968V10.392C67.8941 9.816 67.7261 9.264 67.4221 8.736C67.1181 8.192 66.6861 7.752 66.1261 7.416C65.5821 7.08 64.9261 6.912 64.1581 6.912C63.2621 6.912 62.4861 7.096 61.8301 7.464C61.1741 7.816 60.6701 8.344 60.3181 9.048C59.9661 9.752 59.7901 10.624 59.7901 11.664C59.7901 12.656 59.9821 13.52 60.3661 14.256C60.7501 14.976 61.2941 15.536 61.9981 15.936C62.7181 16.336 63.5821 16.536 64.5901 16.536C65.1821 16.536 65.7661 16.44 66.3421 16.248C66.9341 16.04 67.5821 15.64 68.2861 15.048L69.2221 16.344C68.8541 16.712 68.4141 17.04 67.9021 17.328C67.3901 17.6 66.8301 17.824 66.2221 18C65.6141 18.16 64.9901 18.24 64.3501 18.24ZM75.9603 18L70.6803 5.472H72.6723L76.8483 15.72L76.3683 15.984L80.9523 5.472H82.8723L77.2563 18H75.9603ZM90.1548 18.24C88.9068 18.24 87.7948 17.968 86.8188 17.424C85.8588 16.88 85.1068 16.12 84.5628 15.144C84.0188 14.168 83.7468 13.048 83.7468 11.784C83.7468 10.808 83.8988 9.928 84.2028 9.144C84.5068 8.344 84.9308 7.648 85.4748 7.056C86.0348 6.464 86.6988 6.008 87.4668 5.688C88.2348 5.352 89.0668 5.184 89.9628 5.184C90.8108 5.184 91.5788 5.336 92.2668 5.64C92.9708 5.944 93.5708 6.368 94.0668 6.912C94.5788 7.44 94.9628 8.072 95.2188 8.808C95.4748 9.544 95.5868 10.352 95.5548 11.232L95.5308 12.072H85.0908L84.8268 10.56H94.1628L93.7308 10.968V10.392C93.6988 9.816 93.5308 9.264 93.2268 8.736C92.9228 8.192 92.4908 7.752 91.9308 7.416C91.3868 7.08 90.7308 6.912 89.9628 6.912C89.0668 6.912 88.2908 7.096 87.6348 7.464C86.9788 7.816 86.4748 8.344 86.1228 9.048C85.7708 9.752 85.5948 10.624 85.5948 11.664C85.5948 12.656 85.7868 13.52 86.1708 14.256C86.5548 14.976 87.0988 15.536 87.8028 15.936C88.5228 16.336 89.3868 16.536 90.3948 16.536C90.9868 16.536 91.5708 16.44 92.1468 16.248C92.7388 16.04 93.3868 15.64 94.0908 15.048L95.0268 16.344C94.6588 16.712 94.2188 17.04 93.7068 17.328C93.1948 17.6 92.6348 17.824 92.0268 18C91.4188 18.16 90.7948 18.24 90.1548 18.24ZM98.1594 18V0.24H99.9594V18H98.1594ZM108.812 18.24C107.564 18.24 106.452 17.96 105.476 17.4C104.516 16.84 103.756 16.064 103.196 15.072C102.652 14.08 102.38 12.952 102.38 11.688C102.38 10.44 102.652 9.328 103.196 8.352C103.756 7.376 104.516 6.608 105.476 6.048C106.452 5.488 107.564 5.208 108.812 5.208C110.044 5.208 111.14 5.488 112.1 6.048C113.076 6.608 113.836 7.376 114.38 8.352C114.94 9.328 115.22 10.44 115.22 11.688C115.22 12.952 114.94 14.08 114.38 15.072C113.836 16.064 113.076 16.84 112.1 17.4C111.14 17.96 110.044 18.24 108.812 18.24ZM108.812 16.536C109.692 16.536 110.476 16.328 111.164 15.912C111.852 15.48 112.388 14.904 112.772 14.184C113.156 13.448 113.348 12.616 113.348 11.688C113.348 10.76 113.156 9.936 112.772 9.216C112.388 8.496 111.852 7.936 111.164 7.536C110.476 7.12 109.692 6.912 108.812 6.912C107.932 6.912 107.14 7.12 106.436 7.536C105.748 7.936 105.204 8.504 104.804 9.24C104.42 9.96 104.236 10.776 104.252 11.688C104.236 12.616 104.42 13.448 104.804 14.184C105.204 14.904 105.748 15.48 106.436 15.912C107.14 16.328 107.932 16.536 108.812 16.536ZM117.846 23.28V5.472H119.646L119.694 8.52L119.358 8.568C119.502 7.96 119.814 7.408 120.294 6.912C120.774 6.4 121.358 5.992 122.046 5.688C122.734 5.384 123.462 5.232 124.23 5.232C125.35 5.232 126.35 5.512 127.23 6.072C128.126 6.632 128.838 7.4 129.366 8.376C129.894 9.352 130.158 10.472 130.158 11.736C130.158 12.984 129.902 14.096 129.39 15.072C128.878 16.048 128.174 16.824 127.278 17.4C126.382 17.96 125.374 18.24 124.254 18.24C123.47 18.24 122.726 18.08 122.022 17.76C121.318 17.44 120.718 17.024 120.222 16.512C119.726 15.984 119.398 15.416 119.238 14.808H119.67V23.28H117.846ZM123.966 16.512C124.814 16.512 125.566 16.304 126.222 15.888C126.878 15.472 127.398 14.904 127.782 14.184C128.166 13.464 128.358 12.648 128.358 11.736C128.358 10.808 128.166 9.984 127.782 9.264C127.398 8.544 126.878 7.976 126.222 7.56C125.566 7.144 124.814 6.936 123.966 6.936C123.118 6.936 122.358 7.144 121.686 7.56C121.03 7.96 120.51 8.52 120.126 9.24C119.742 9.96 119.55 10.784 119.55 11.712C119.55 12.64 119.742 13.464 120.126 14.184C120.51 14.904 121.03 15.472 121.686 15.888C122.358 16.304 123.118 16.512 123.966 16.512ZM138.295 18.24C137.047 18.24 135.935 17.968 134.959 17.424C133.999 16.88 133.247 16.12 132.703 15.144C132.159 14.168 131.887 13.048 131.887 11.784C131.887 10.808 132.039 9.928 132.343 9.144C132.647 8.344 133.071 7.648 133.615 7.056C134.175 6.464 134.839 6.008 135.607 5.688C136.375 5.352 137.207 5.184 138.103 5.184C138.951 5.184 139.719 5.336 140.407 5.64C141.111 5.944 141.711 6.368 142.207 6.912C142.719 7.44 143.103 8.072 143.359 8.808C143.615 9.544 143.727 10.352 143.695 11.232L143.671 12.072H133.231L132.967 10.56H142.303L141.871 10.968V10.392C141.839 9.816 141.671 9.264 141.367 8.736C141.063 8.192 140.631 7.752 140.071 7.416C139.527 7.08 138.871 6.912 138.103 6.912C137.207 6.912 136.431 7.096 135.775 7.464C135.119 7.816 134.615 8.344 134.263 9.048C133.911 9.752 133.735 10.624 133.735 11.664C133.735 12.656 133.927 13.52 134.311 14.256C134.695 14.976 135.239 15.536 135.943 15.936C136.663 16.336 137.527 16.536 138.535 16.536C139.127 16.536 139.711 16.44 140.287 16.248C140.879 16.04 141.527 15.64 142.231 15.048L143.167 16.344C142.799 16.712 142.359 17.04 141.847 17.328C141.335 17.6 140.775 17.824 140.167 18C139.559 18.16 138.935 18.24 138.295 18.24ZM151.34 18.24C150.204 18.24 149.18 17.96 148.268 17.4C147.372 16.84 146.66 16.072 146.132 15.096C145.62 14.104 145.364 12.984 145.364 11.736C145.364 10.472 145.628 9.352 146.156 8.376C146.684 7.384 147.396 6.608 148.292 6.048C149.188 5.488 150.196 5.208 151.316 5.208C151.94 5.208 152.54 5.304 153.116 5.496C153.708 5.688 154.236 5.96 154.7 6.312C155.164 6.648 155.548 7.04 155.852 7.488C156.156 7.92 156.34 8.376 156.404 8.856L155.852 8.664V0.24H157.652V18H155.876L155.828 14.88L156.284 14.712C156.22 15.16 156.036 15.6 155.732 16.032C155.444 16.448 155.076 16.824 154.628 17.16C154.18 17.496 153.668 17.76 153.092 17.952C152.532 18.144 151.948 18.24 151.34 18.24ZM151.604 16.584C152.436 16.584 153.18 16.376 153.836 15.96C154.492 15.544 155.004 14.968 155.372 14.232C155.756 13.496 155.948 12.656 155.948 11.712C155.948 10.768 155.756 9.936 155.372 9.216C155.004 8.48 154.492 7.904 153.836 7.488C153.18 7.056 152.436 6.84 151.604 6.84C150.74 6.84 149.98 7.056 149.324 7.488C148.684 7.904 148.172 8.48 147.788 9.216C147.42 9.936 147.236 10.768 147.236 11.712C147.236 12.64 147.42 13.472 147.788 14.208C148.156 14.944 148.668 15.528 149.324 15.96C149.98 16.376 150.74 16.584 151.604 16.584ZM174.245 18.24C173.653 18.24 173.077 18.152 172.517 17.976C171.957 17.784 171.445 17.528 170.981 17.208C170.533 16.888 170.149 16.52 169.829 16.104C169.525 15.688 169.317 15.256 169.205 14.808L169.733 14.832L169.661 17.976H167.885V0.24H169.685V8.472L169.325 8.568C169.437 8.12 169.637 7.696 169.925 7.296C170.229 6.88 170.605 6.52 171.053 6.216C171.501 5.896 171.989 5.648 172.517 5.472C173.061 5.296 173.621 5.208 174.197 5.208C175.317 5.208 176.317 5.488 177.197 6.048C178.093 6.608 178.805 7.376 179.333 8.352C179.861 9.328 180.125 10.448 180.125 11.712C180.125 12.976 179.869 14.104 179.357 15.096C178.845 16.072 178.141 16.84 177.245 17.4C176.365 17.96 175.365 18.24 174.245 18.24ZM173.957 16.536C174.805 16.536 175.557 16.328 176.213 15.912C176.869 15.48 177.381 14.904 177.749 14.184C178.133 13.448 178.325 12.624 178.325 11.712C178.325 10.784 178.133 9.96 177.749 9.24C177.381 8.52 176.869 7.952 176.213 7.536C175.557 7.12 174.805 6.912 173.957 6.912C173.109 6.912 172.357 7.12 171.701 7.536C171.045 7.952 170.525 8.52 170.141 9.24C169.773 9.96 169.589 10.784 169.589 11.712C169.589 12.64 169.773 13.472 170.141 14.208C170.525 14.928 171.045 15.496 171.701 15.912C172.357 16.328 173.109 16.536 173.957 16.536ZM184.387 23.52L186.811 17.616L186.979 19.32L180.691 5.472H182.731L187.027 15.072C187.155 15.328 187.283 15.632 187.411 15.984C187.539 16.32 187.659 16.656 187.771 16.992L187.099 16.92C187.211 16.648 187.315 16.368 187.411 16.08C187.523 15.792 187.627 15.512 187.723 15.24L191.491 5.472H193.555L188.491 18L186.331 23.52H184.387ZM196.431 18.24C195.999 18.24 195.663 18.112 195.423 17.856C195.199 17.6 195.087 17.232 195.087 16.752C195.087 16.32 195.207 15.968 195.447 15.696C195.703 15.408 196.031 15.264 196.431 15.264C196.863 15.264 197.191 15.4 197.415 15.672C197.655 15.928 197.775 16.288 197.775 16.752C197.775 17.2 197.647 17.56 197.391 17.832C197.151 18.104 196.831 18.24 196.431 18.24ZM196.431 8.184C195.999 8.184 195.663 8.056 195.423 7.8C195.199 7.544 195.087 7.176 195.087 6.696C195.087 6.264 195.207 5.912 195.447 5.64C195.703 5.352 196.031 5.208 196.431 5.208C196.863 5.208 197.191 5.344 197.415 5.616C197.655 5.872 197.775 6.232 197.775 6.696C197.775 7.144 197.647 7.504 197.391 7.776C197.151 8.048 196.831 8.184 196.431 8.184ZM209.771 12.84L209.699 10.608L219.203 1.2H221.723L209.771 12.84ZM208.355 18V1.2H210.227V18H208.355ZM219.611 18L212.867 9.024L214.235 7.824L221.963 18H219.611ZM228.858 18.24C227.61 18.24 226.498 17.968 225.522 17.424C224.562 16.88 223.81 16.12 223.266 15.144C222.722 14.168 222.45 13.048 222.45 11.784C222.45 10.808 222.602 9.928 222.906 9.144C223.21 8.344 223.634 7.648 224.178 7.056C224.738 6.464 225.402 6.008 226.17 5.688C226.938 5.352 227.77 5.184 228.666 5.184C229.514 5.184 230.282 5.336 230.97 5.64C231.674 5.944 232.274 6.368 232.77 6.912C233.282 7.44 233.666 8.072 233.922 8.808C234.178 9.544 234.29 10.352 234.258 11.232L234.234 12.072H223.794L223.53 10.56H232.866L232.434 10.968V10.392C232.402 9.816 232.234 9.264 231.93 8.736C231.626 8.192 231.194 7.752 230.634 7.416C230.09 7.08 229.434 6.912 228.666 6.912C227.77 6.912 226.994 7.096 226.338 7.464C225.682 7.816 225.178 8.344 224.826 9.048C224.474 9.752 224.298 10.624 224.298 11.664C224.298 12.656 224.49 13.52 224.874 14.256C225.258 14.976 225.802 15.536 226.506 15.936C227.226 16.336 228.09 16.536 229.098 16.536C229.69 16.536 230.274 16.44 230.85 16.248C231.442 16.04 232.09 15.64 232.794 15.048L233.73 16.344C233.362 16.712 232.922 17.04 232.41 17.328C231.898 17.6 231.338 17.824 230.73 18C230.122 18.16 229.498 18.24 228.858 18.24ZM240.468 18L235.188 5.472H237.18L241.356 15.72L240.876 15.984L245.46 5.472H247.38L241.764 18H240.468ZM249.974 18V5.472H251.774V18H249.974ZM250.862 2.76C250.414 2.76 250.07 2.648 249.83 2.424C249.606 2.184 249.494 1.864 249.494 1.464C249.494 1.064 249.614 0.743999 249.854 0.503999C250.094 0.263999 250.43 0.144 250.862 0.144C251.294 0.144 251.63 0.263999 251.87 0.503999C252.11 0.727999 252.23 1.048 252.23 1.464C252.23 1.848 252.11 2.16 251.87 2.4C251.63 2.64 251.294 2.76 250.862 2.76ZM255.705 18V5.472H257.481L257.553 8.088L257.265 8.208C257.425 7.664 257.737 7.168 258.201 6.72C258.665 6.272 259.217 5.912 259.857 5.64C260.513 5.352 261.185 5.208 261.873 5.208C262.801 5.208 263.577 5.392 264.201 5.76C264.825 6.128 265.297 6.696 265.617 7.464C265.937 8.232 266.097 9.208 266.097 10.392V18H264.273V10.488C264.273 9.656 264.161 8.976 263.937 8.448C263.729 7.904 263.401 7.504 262.953 7.248C262.505 6.992 261.953 6.872 261.297 6.888C260.753 6.888 260.249 6.984 259.785 7.176C259.321 7.352 258.921 7.6 258.585 7.92C258.249 8.24 257.985 8.608 257.793 9.024C257.601 9.44 257.505 9.888 257.505 10.368V18H256.617C256.505 18 256.377 18 256.233 18C256.089 18 255.913 18 255.705 18ZM288.212 18V1.2H290.084V18H288.212ZM276.98 18V1.2H278.852V18H276.98ZM277.892 10.536V8.712H289.004V10.536H277.892ZM298.747 18.24C297.787 18.24 296.971 18.048 296.299 17.664C295.643 17.264 295.139 16.688 294.787 15.936C294.451 15.184 294.283 14.248 294.283 13.128V5.472H296.107V12.768C296.107 13.616 296.219 14.328 296.443 14.904C296.683 15.464 297.035 15.888 297.499 16.176C297.979 16.464 298.563 16.608 299.251 16.608C299.779 16.608 300.267 16.52 300.715 16.344C301.163 16.152 301.555 15.896 301.891 15.576C302.227 15.256 302.491 14.88 302.683 14.448C302.875 14.016 302.971 13.56 302.971 13.08V5.472H304.771V18H302.995L302.923 15.36L303.211 15.216C303.019 15.776 302.699 16.288 302.251 16.752C301.803 17.2 301.267 17.56 300.643 17.832C300.035 18.104 299.403 18.24 298.747 18.24ZM308.515 21.96L307.843 21.096C308.355 20.792 308.755 20.464 309.043 20.112C309.331 19.76 309.475 19.424 309.475 19.104C309.475 18.928 309.443 18.76 309.379 18.6C309.315 18.44 309.155 18.24 308.899 18C308.675 17.792 308.507 17.592 308.395 17.4C308.299 17.208 308.251 17.008 308.251 16.8C308.251 16.48 308.363 16.224 308.587 16.032C308.811 15.824 309.107 15.72 309.475 15.72C309.843 15.72 310.163 15.816 310.435 16.008C310.707 16.2 310.915 16.472 311.059 16.824C311.219 17.16 311.299 17.56 311.299 18.024C311.299 18.456 311.235 18.856 311.107 19.224C310.979 19.608 310.795 19.968 310.555 20.304C310.315 20.64 310.027 20.944 309.691 21.216C309.355 21.488 308.963 21.736 308.515 21.96ZM325.539 18.24C324.995 18.24 324.483 18.168 324.003 18.024C323.523 17.896 323.075 17.704 322.659 17.448C322.243 17.176 321.867 16.848 321.531 16.464C321.195 16.08 320.899 15.656 320.643 15.192L321.891 13.896C322.179 14.376 322.467 14.776 322.755 15.096C323.059 15.416 323.355 15.672 323.643 15.864C323.947 16.056 324.251 16.192 324.555 16.272C324.875 16.352 325.203 16.392 325.539 16.392C326.195 16.392 326.771 16.24 327.267 15.936C327.779 15.616 328.171 15.184 328.443 14.64C328.731 14.08 328.875 13.448 328.875 12.744V2.976H325.827V1.2H333.267V2.976H330.795V12.888C330.795 13.656 330.667 14.368 330.411 15.024C330.155 15.68 329.795 16.248 329.331 16.728C328.867 17.208 328.315 17.584 327.675 17.856C327.035 18.112 326.323 18.24 325.539 18.24ZM340.491 18.24C339.243 18.24 338.131 17.96 337.155 17.4C336.195 16.84 335.435 16.064 334.875 15.072C334.331 14.08 334.059 12.952 334.059 11.688C334.059 10.44 334.331 9.328 334.875 8.352C335.435 7.376 336.195 6.608 337.155 6.048C338.131 5.488 339.243 5.208 340.491 5.208C341.723 5.208 342.819 5.488 343.779 6.048C344.755 6.608 345.515 7.376 346.059 8.352C346.619 9.328 346.899 10.44 346.899 11.688C346.899 12.952 346.619 14.08 346.059 15.072C345.515 16.064 344.755 16.84 343.779 17.4C342.819 17.96 341.723 18.24 340.491 18.24ZM340.491 16.536C341.371 16.536 342.155 16.328 342.843 15.912C343.531 15.48 344.067 14.904 344.451 14.184C344.835 13.448 345.027 12.616 345.027 11.688C345.027 10.76 344.835 9.936 344.451 9.216C344.067 8.496 343.531 7.936 342.843 7.536C342.155 7.12 341.371 6.912 340.491 6.912C339.611 6.912 338.819 7.12 338.115 7.536C337.427 7.936 336.883 8.504 336.483 9.24C336.099 9.96 335.915 10.776 335.931 11.688C335.915 12.616 336.099 13.448 336.483 14.184C336.883 14.904 337.427 15.48 338.115 15.912C338.819 16.328 339.611 16.536 340.491 16.536ZM349.525 18V5.472H351.301L351.373 8.088L351.085 8.208C351.245 7.664 351.557 7.168 352.021 6.72C352.485 6.272 353.037 5.912 353.677 5.64C354.333 5.352 355.005 5.208 355.693 5.208C356.621 5.208 357.397 5.392 358.021 5.76C358.645 6.128 359.117 6.696 359.437 7.464C359.757 8.232 359.917 9.208 359.917 10.392V18H358.093V10.488C358.093 9.656 357.981 8.976 357.757 8.448C357.549 7.904 357.221 7.504 356.773 7.248C356.325 6.992 355.773 6.872 355.117 6.888C354.573 6.888 354.069 6.984 353.605 7.176C353.141 7.352 352.741 7.6 352.405 7.92C352.069 8.24 351.805 8.608 351.613 9.024C351.421 9.44 351.325 9.888 351.325 10.368V18H350.437C350.325 18 350.197 18 350.053 18C349.909 18 349.733 18 349.525 18ZM368.25 18.24C367.162 18.24 366.178 17.96 365.298 17.4C364.418 16.824 363.722 16.048 363.21 15.072C362.698 14.08 362.442 12.96 362.442 11.712C362.442 10.448 362.706 9.328 363.234 8.352C363.762 7.376 364.466 6.608 365.346 6.048C366.242 5.488 367.242 5.208 368.346 5.208C369.002 5.208 369.61 5.304 370.17 5.496C370.73 5.688 371.226 5.96 371.658 6.312C372.106 6.648 372.474 7.048 372.762 7.512C373.066 7.96 373.274 8.448 373.386 8.976L372.858 8.712L372.93 5.472H374.73V18H372.906V14.928L373.386 14.616C373.274 15.096 373.058 15.56 372.738 16.008C372.418 16.44 372.026 16.824 371.562 17.16C371.114 17.496 370.602 17.76 370.026 17.952C369.466 18.144 368.874 18.24 368.25 18.24ZM368.658 16.512C369.49 16.512 370.234 16.312 370.89 15.912C371.546 15.496 372.058 14.928 372.426 14.208C372.81 13.472 373.002 12.64 373.002 11.712C373.002 10.784 372.81 9.96 372.426 9.24C372.058 8.52 371.546 7.952 370.89 7.536C370.234 7.12 369.49 6.912 368.658 6.912C367.81 6.912 367.058 7.12 366.402 7.536C365.762 7.952 365.25 8.52 364.866 9.24C364.498 9.96 364.314 10.784 364.314 11.712C364.314 12.624 364.498 13.448 364.866 14.184C365.234 14.904 365.746 15.472 366.402 15.888C367.058 16.304 367.81 16.512 368.658 16.512ZM379.964 18V2.184H381.764V18H379.964ZM377.132 7.2V5.472H384.932V7.2H377.132ZM387.143 18V0.24H388.943V8.208L388.583 8.568C388.759 7.912 389.087 7.336 389.567 6.84C390.047 6.328 390.607 5.928 391.247 5.64C391.903 5.352 392.567 5.208 393.239 5.208C394.199 5.208 394.999 5.392 395.639 5.76C396.279 6.128 396.751 6.696 397.055 7.464C397.375 8.232 397.535 9.208 397.535 10.392V18H395.711V10.488C395.711 9.656 395.599 8.976 395.375 8.448C395.167 7.904 394.839 7.504 394.391 7.248C393.943 6.992 393.383 6.872 392.711 6.888C392.183 6.888 391.687 6.984 391.223 7.176C390.759 7.352 390.359 7.6 390.023 7.92C389.687 8.24 389.423 8.608 389.231 9.024C389.039 9.44 388.943 9.888 388.943 10.368V18H388.055C387.943 18 387.815 18 387.671 18C387.527 18 387.351 18 387.143 18ZM405.867 18.24C404.779 18.24 403.795 17.96 402.915 17.4C402.035 16.824 401.339 16.048 400.827 15.072C400.315 14.08 400.059 12.96 400.059 11.712C400.059 10.448 400.323 9.328 400.851 8.352C401.379 7.376 402.083 6.608 402.963 6.048C403.859 5.488 404.859 5.208 405.963 5.208C406.619 5.208 407.227 5.304 407.787 5.496C408.347 5.688 408.843 5.96 409.275 6.312C409.723 6.648 410.091 7.048 410.379 7.512C410.683 7.96 410.891 8.448 411.003 8.976L410.475 8.712L410.547 5.472H412.347V18H410.523V14.928L411.003 14.616C410.891 15.096 410.675 15.56 410.355 16.008C410.035 16.44 409.643 16.824 409.179 17.16C408.731 17.496 408.219 17.76 407.643 17.952C407.083 18.144 406.491 18.24 405.867 18.24ZM406.275 16.512C407.107 16.512 407.851 16.312 408.507 15.912C409.163 15.496 409.675 14.928 410.043 14.208C410.427 13.472 410.619 12.64 410.619 11.712C410.619 10.784 410.427 9.96 410.043 9.24C409.675 8.52 409.163 7.952 408.507 7.536C407.851 7.12 407.107 6.912 406.275 6.912C405.427 6.912 404.675 7.12 404.019 7.536C403.379 7.952 402.867 8.52 402.483 9.24C402.115 9.96 401.931 10.784 401.931 11.712C401.931 12.624 402.115 13.448 402.483 14.184C402.851 14.904 403.363 15.472 404.019 15.888C404.675 16.304 405.427 16.512 406.275 16.512ZM415.854 18V5.472H417.63L417.702 8.088L417.414 8.208C417.574 7.664 417.886 7.168 418.35 6.72C418.814 6.272 419.366 5.912 420.006 5.64C420.662 5.352 421.334 5.208 422.022 5.208C422.95 5.208 423.726 5.392 424.35 5.76C424.974 6.128 425.446 6.696 425.766 7.464C426.086 8.232 426.246 9.208 426.246 10.392V18H424.422V10.488C424.422 9.656 424.31 8.976 424.086 8.448C423.878 7.904 423.55 7.504 423.102 7.248C422.654 6.992 422.102 6.872 421.446 6.888C420.902 6.888 420.398 6.984 419.934 7.176C419.47 7.352 419.07 7.6 418.734 7.92C418.398 8.24 418.134 8.608 417.942 9.024C417.75 9.44 417.654 9.888 417.654 10.368V18H416.766C416.654 18 416.526 18 416.382 18C416.238 18 416.062 18 415.854 18ZM444.088 18.24C442.888 18.24 441.784 18.032 440.776 17.616C439.768 17.184 438.896 16.584 438.16 15.816C437.424 15.032 436.848 14.112 436.432 13.056C436.032 12 435.832 10.848 435.832 9.6C435.832 8.368 436.032 7.24 436.432 6.216C436.848 5.176 437.432 4.272 438.184 3.504C438.936 2.72 439.808 2.12 440.8 1.704C441.792 1.288 442.88 1.08 444.064 1.08C444.848 1.08 445.624 1.208 446.392 1.464C447.16 1.704 447.864 2.04 448.504 2.472C449.16 2.904 449.696 3.4 450.112 3.96L448.816 5.304C448.416 4.824 447.952 4.408 447.424 4.056C446.912 3.704 446.368 3.432 445.792 3.24C445.216 3.048 444.64 2.952 444.064 2.952C443.168 2.952 442.328 3.12 441.544 3.456C440.776 3.776 440.112 4.232 439.552 4.824C438.992 5.416 438.552 6.12 438.232 6.936C437.928 7.752 437.776 8.64 437.776 9.6C437.776 10.592 437.928 11.504 438.232 12.336C438.552 13.168 439 13.888 439.576 14.496C440.168 15.088 440.856 15.552 441.64 15.888C442.44 16.208 443.328 16.368 444.304 16.368C444.88 16.368 445.456 16.288 446.032 16.128C446.608 15.952 447.136 15.712 447.616 15.408C448.096 15.104 448.504 14.76 448.84 14.376L449.8 15.936C449.432 16.384 448.936 16.784 448.312 17.136C447.704 17.472 447.032 17.744 446.296 17.952C445.56 18.144 444.824 18.24 444.088 18.24ZM452.627 18V0.24H454.427V8.208L454.067 8.568C454.243 7.912 454.571 7.336 455.051 6.84C455.531 6.328 456.091 5.928 456.731 5.64C457.387 5.352 458.051 5.208 458.723 5.208C459.683 5.208 460.483 5.392 461.123 5.76C461.763 6.128 462.235 6.696 462.539 7.464C462.859 8.232 463.019 9.208 463.019 10.392V18H461.195V10.488C461.195 9.656 461.083 8.976 460.859 8.448C460.651 7.904 460.323 7.504 459.875 7.248C459.427 6.992 458.867 6.872 458.195 6.888C457.667 6.888 457.171 6.984 456.707 7.176C456.243 7.352 455.843 7.6 455.507 7.92C455.171 8.24 454.907 8.608 454.715 9.024C454.523 9.44 454.427 9.888 454.427 10.368V18H453.539C453.427 18 453.299 18 453.155 18C453.011 18 452.835 18 452.627 18ZM471.975 18.24C470.727 18.24 469.615 17.968 468.639 17.424C467.679 16.88 466.927 16.12 466.383 15.144C465.839 14.168 465.567 13.048 465.567 11.784C465.567 10.808 465.719 9.928 466.023 9.144C466.327 8.344 466.751 7.648 467.295 7.056C467.855 6.464 468.519 6.008 469.287 5.688C470.055 5.352 470.887 5.184 471.783 5.184C472.631 5.184 473.399 5.336 474.087 5.64C474.791 5.944 475.391 6.368 475.887 6.912C476.399 7.44 476.783 8.072 477.039 8.808C477.295 9.544 477.407 10.352 477.375 11.232L477.351 12.072H466.911L466.647 10.56H475.983L475.551 10.968V10.392C475.519 9.816 475.351 9.264 475.047 8.736C474.743 8.192 474.311 7.752 473.751 7.416C473.207 7.08 472.551 6.912 471.783 6.912C470.887 6.912 470.111 7.096 469.455 7.464C468.799 7.816 468.295 8.344 467.943 9.048C467.591 9.752 467.415 10.624 467.415 11.664C467.415 12.656 467.607 13.52 467.991 14.256C468.375 14.976 468.919 15.536 469.623 15.936C470.343 16.336 471.207 16.536 472.215 16.536C472.807 16.536 473.391 16.44 473.967 16.248C474.559 16.04 475.207 15.64 475.911 15.048L476.847 16.344C476.479 16.712 476.039 17.04 475.527 17.328C475.015 17.6 474.455 17.824 473.847 18C473.239 18.16 472.615 18.24 471.975 18.24ZM479.932 18V5.472H481.708L481.78 8.088L481.492 8.208C481.652 7.664 481.964 7.168 482.428 6.72C482.892 6.272 483.444 5.912 484.084 5.64C484.74 5.352 485.412 5.208 486.1 5.208C487.028 5.208 487.804 5.392 488.428 5.76C489.052 6.128 489.524 6.696 489.844 7.464C490.164 8.232 490.324 9.208 490.324 10.392V18H488.5V10.488C488.5 9.656 488.388 8.976 488.164 8.448C487.956 7.904 487.628 7.504 487.18 7.248C486.732 6.992 486.18 6.872 485.524 6.888C484.98 6.888 484.476 6.984 484.012 7.176C483.548 7.352 483.148 7.6 482.812 7.92C482.476 8.24 482.212 8.608 482.02 9.024C481.828 9.44 481.732 9.888 481.732 10.368V18H480.844C480.732 18 480.604 18 480.46 18C480.316 18 480.14 18 479.932 18ZM494 21.96L493.328 21.096C493.84 20.792 494.24 20.464 494.528 20.112C494.816 19.76 494.96 19.424 494.96 19.104C494.96 18.928 494.928 18.76 494.864 18.6C494.8 18.44 494.64 18.24 494.384 18C494.16 17.792 493.992 17.592 493.88 17.4C493.784 17.208 493.736 17.008 493.736 16.8C493.736 16.48 493.848 16.224 494.072 16.032C494.296 15.824 494.592 15.72 494.96 15.72C495.328 15.72 495.648 15.816 495.92 16.008C496.192 16.2 496.4 16.472 496.544 16.824C496.704 17.16 496.784 17.56 496.784 18.024C496.784 18.456 496.72 18.856 496.592 19.224C496.464 19.608 496.28 19.968 496.04 20.304C495.8 20.64 495.512 20.944 495.176 21.216C494.84 21.488 494.448 21.736 494 21.96ZM507.183 18V1.2H509.007L515.463 11.688L514.599 11.664L521.127 1.2H522.831V18H520.959V10.32C520.959 8.88 520.983 7.584 521.031 6.432C521.079 5.28 521.167 4.136 521.295 3L521.631 3.672L515.607 13.128H514.311L508.455 3.792L508.719 3C508.847 4.072 508.935 5.176 508.983 6.312C509.031 7.432 509.055 8.768 509.055 10.32V18H507.183ZM527.545 18V5.472H529.345V18H527.545ZM528.433 2.76C527.985 2.76 527.641 2.648 527.401 2.424C527.177 2.184 527.065 1.864 527.065 1.464C527.065 1.064 527.185 0.743999 527.425 0.503999C527.665 0.263999 528.001 0.144 528.433 0.144C528.865 0.144 529.201 0.263999 529.441 0.503999C529.681 0.727999 529.801 1.048 529.801 1.464C529.801 1.848 529.681 2.16 529.441 2.4C529.201 2.64 528.865 2.76 528.433 2.76ZM538.555 18.24C537.371 18.24 536.315 17.96 535.387 17.4C534.459 16.824 533.723 16.048 533.179 15.072C532.651 14.08 532.387 12.96 532.387 11.712C532.387 10.464 532.651 9.352 533.179 8.376C533.723 7.384 534.459 6.608 535.387 6.048C536.315 5.488 537.379 5.208 538.579 5.208C539.651 5.208 540.627 5.424 541.507 5.856C542.387 6.272 543.091 6.856 543.619 7.608L542.563 8.904C542.259 8.504 541.891 8.152 541.459 7.848C541.043 7.544 540.587 7.312 540.091 7.152C539.611 6.976 539.131 6.888 538.651 6.888C537.803 6.888 537.043 7.104 536.371 7.536C535.699 7.952 535.163 8.52 534.763 9.24C534.379 9.96 534.187 10.784 534.187 11.712C534.187 12.64 534.379 13.472 534.763 14.208C535.163 14.928 535.699 15.496 536.371 15.912C537.043 16.328 537.795 16.536 538.627 16.536C539.107 16.536 539.579 16.464 540.043 16.32C540.507 16.16 540.947 15.936 541.363 15.648C541.779 15.36 542.163 15 542.515 14.568L543.571 15.864C543.027 16.584 542.299 17.16 541.387 17.592C540.475 18.024 539.531 18.24 538.555 18.24ZM545.908 18V0.24H547.708V8.208L547.348 8.568C547.524 7.912 547.852 7.336 548.332 6.84C548.812 6.328 549.372 5.928 550.012 5.64C550.668 5.352 551.332 5.208 552.004 5.208C552.964 5.208 553.764 5.392 554.404 5.76C555.044 6.128 555.516 6.696 555.82 7.464C556.14 8.232 556.3 9.208 556.3 10.392V18H554.476V10.488C554.476 9.656 554.364 8.976 554.14 8.448C553.932 7.904 553.604 7.504 553.156 7.248C552.708 6.992 552.148 6.872 551.476 6.888C550.948 6.888 550.452 6.984 549.988 7.176C549.524 7.352 549.124 7.6 548.788 7.92C548.452 8.24 548.188 8.608 547.996 9.024C547.804 9.44 547.708 9.888 547.708 10.368V18H546.82C546.708 18 546.58 18 546.436 18C546.292 18 546.116 18 545.908 18ZM565.256 18.24C564.008 18.24 562.896 17.968 561.92 17.424C560.96 16.88 560.208 16.12 559.664 15.144C559.12 14.168 558.848 13.048 558.848 11.784C558.848 10.808 559 9.928 559.304 9.144C559.608 8.344 560.032 7.648 560.576 7.056C561.136 6.464 561.8 6.008 562.568 5.688C563.336 5.352 564.168 5.184 565.064 5.184C565.912 5.184 566.68 5.336 567.368 5.64C568.072 5.944 568.672 6.368 569.168 6.912C569.68 7.44 570.064 8.072 570.32 8.808C570.576 9.544 570.688 10.352 570.656 11.232L570.632 12.072H560.192L559.928 10.56H569.264L568.832 10.968V10.392C568.8 9.816 568.632 9.264 568.328 8.736C568.024 8.192 567.592 7.752 567.032 7.416C566.488 7.08 565.832 6.912 565.064 6.912C564.168 6.912 563.392 7.096 562.736 7.464C562.08 7.816 561.576 8.344 561.224 9.048C560.872 9.752 560.696 10.624 560.696 11.664C560.696 12.656 560.888 13.52 561.272 14.256C561.656 14.976 562.2 15.536 562.904 15.936C563.624 16.336 564.488 16.536 565.496 16.536C566.088 16.536 566.672 16.44 567.248 16.248C567.84 16.04 568.488 15.64 569.192 15.048L570.128 16.344C569.76 16.712 569.32 17.04 568.808 17.328C568.296 17.6 567.736 17.824 567.128 18C566.52 18.16 565.896 18.24 565.256 18.24ZM573.261 18V0.24H575.061V18H573.261ZM578.652 18V0.24H580.452V18H578.652ZM589.28 18.24C588.032 18.24 586.92 17.968 585.944 17.424C584.984 16.88 584.232 16.12 583.688 15.144C583.144 14.168 582.872 13.048 582.872 11.784C582.872 10.808 583.024 9.928 583.328 9.144C583.632 8.344 584.056 7.648 584.6 7.056C585.16 6.464 585.824 6.008 586.592 5.688C587.36 5.352 588.192 5.184 589.088 5.184C589.936 5.184 590.704 5.336 591.392 5.64C592.096 5.944 592.696 6.368 593.192 6.912C593.704 7.44 594.088 8.072 594.344 8.808C594.6 9.544 594.712 10.352 594.68 11.232L594.656 12.072H584.216L583.952 10.56H593.288L592.856 10.968V10.392C592.824 9.816 592.656 9.264 592.352 8.736C592.048 8.192 591.616 7.752 591.056 7.416C590.512 7.08 589.856 6.912 589.088 6.912C588.192 6.912 587.416 7.096 586.76 7.464C586.104 7.816 585.6 8.344 585.248 9.048C584.896 9.752 584.72 10.624 584.72 11.664C584.72 12.656 584.912 13.52 585.296 14.256C585.68 14.976 586.224 15.536 586.928 15.936C587.648 16.336 588.512 16.536 589.52 16.536C590.112 16.536 590.696 16.44 591.272 16.248C591.864 16.04 592.512 15.64 593.216 15.048L594.152 16.344C593.784 16.712 593.344 17.04 592.832 17.328C592.32 17.6 591.76 17.824 591.152 18C590.544 18.16 589.92 18.24 589.28 18.24ZM607.875 18L602.811 1.2H604.827L608.067 12.288C608.195 12.672 608.299 13.04 608.379 13.392C608.475 13.728 608.555 14.056 608.619 14.376C608.683 14.68 608.747 14.992 608.811 15.312C608.875 15.616 608.939 15.936 609.003 16.272L608.595 16.248C608.803 15.512 608.971 14.928 609.099 14.496C609.243 14.064 609.379 13.68 609.507 13.344C609.635 13.008 609.779 12.624 609.939 12.192L612.771 5.064H614.523L617.379 12.264C617.571 12.712 617.739 13.136 617.883 13.536C618.027 13.936 618.163 14.344 618.291 14.76C618.435 15.176 618.571 15.64 618.699 16.152L618.315 16.224C618.395 15.824 618.459 15.496 618.507 15.24C618.555 14.984 618.603 14.76 618.651 14.568C618.699 14.36 618.747 14.16 618.795 13.968C618.843 13.76 618.907 13.52 618.987 13.248C619.067 12.96 619.171 12.6 619.299 12.168L622.539 1.2H624.555L619.443 18H617.883L613.347 7.2L613.779 7.272L609.411 18H607.875ZM631.171 18.24C630.083 18.24 629.099 17.96 628.219 17.4C627.339 16.824 626.643 16.048 626.131 15.072C625.619 14.08 625.363 12.96 625.363 11.712C625.363 10.448 625.627 9.328 626.155 8.352C626.683 7.376 627.387 6.608 628.267 6.048C629.163 5.488 630.163 5.208 631.267 5.208C631.923 5.208 632.531 5.304 633.091 5.496C633.651 5.688 634.147 5.96 634.579 6.312C635.027 6.648 635.395 7.048 635.683 7.512C635.987 7.96 636.195 8.448 636.307 8.976L635.779 8.712L635.851 5.472H637.651V18H635.827V14.928L636.307 14.616C636.195 15.096 635.979 15.56 635.659 16.008C635.339 16.44 634.947 16.824 634.483 17.16C634.035 17.496 633.523 17.76 632.947 17.952C632.387 18.144 631.795 18.24 631.171 18.24ZM631.579 16.512C632.411 16.512 633.155 16.312 633.811 15.912C634.467 15.496 634.979 14.928 635.347 14.208C635.731 13.472 635.923 12.64 635.923 11.712C635.923 10.784 635.731 9.96 635.347 9.24C634.979 8.52 634.467 7.952 633.811 7.536C633.155 7.12 632.411 6.912 631.579 6.912C630.731 6.912 629.979 7.12 629.323 7.536C628.683 7.952 628.171 8.52 627.787 9.24C627.419 9.96 627.235 10.784 627.235 11.712C627.235 12.624 627.419 13.448 627.787 14.184C628.155 14.904 628.667 15.472 629.323 15.888C629.979 16.304 630.731 16.512 631.579 16.512ZM641.158 18V5.472H642.934L643.006 8.088L642.718 8.208C642.878 7.664 643.19 7.168 643.654 6.72C644.118 6.272 644.67 5.912 645.31 5.64C645.966 5.352 646.638 5.208 647.326 5.208C648.254 5.208 649.03 5.392 649.654 5.76C650.278 6.128 650.75 6.696 651.07 7.464C651.39 8.232 651.55 9.208 651.55 10.392V18H649.726V10.488C649.726 9.656 649.614 8.976 649.39 8.448C649.182 7.904 648.854 7.504 648.406 7.248C647.958 6.992 647.406 6.872 646.75 6.888C646.206 6.888 645.702 6.984 645.238 7.176C644.774 7.352 644.374 7.6 644.038 7.92C643.702 8.24 643.438 8.608 643.246 9.024C643.054 9.44 642.958 9.888 642.958 10.368V18H642.07C641.958 18 641.83 18 641.686 18C641.542 18 641.366 18 641.158 18Z" fill="#333333"/>
</svg>
