<svg width="328" height="391" viewBox="0 0 328 391" fill="none" xmlns="http://www.w3.org/2000/svg">
<path d="M155.133 21.502C149.615 24.2285 147.383 32.16 149.739 40.8971C150.979 45.4205 150.917 45.5445 149.119 44.3671C144.097 41.083 131.758 43.4996 117.745 50.5017C110.119 54.4055 104.786 58.2473 97.5319 65.3113C84.1391 78.2001 75.9546 91.6465 71.0563 108.563C68.7622 116.557 68.0181 123.373 68.3281 134.65C68.5762 142.954 68.8862 145.308 70.0022 148.407C71.2423 151.815 71.3043 152.496 70.6223 157.02C69.8162 162.597 70.1883 169.723 71.7383 177.282C72.6064 181.372 72.7924 185.772 72.8544 197.979C72.8544 212.912 72.7924 213.718 71.1183 219.79C70.1883 223.26 67.7701 230.758 65.724 236.521C62.8098 244.638 61.5697 247.241 60.1436 248.48C54.9973 252.942 39.8684 279.587 33.172 296.193C28.3977 308.153 27.0336 314.287 27.0956 324.078C27.0956 331.328 27.3436 333.187 28.7697 338.02C30.6298 344.216 34.9701 352.83 38.1943 356.609L40.2404 359.088L45.0767 359.026C50.9671 359.026 59.4616 356.795 62.0658 354.627C63.4918 353.387 63.8639 353.325 63.8639 354.069C63.8639 355.308 64.4839 355.308 66.22 354.069C68.6382 352.396 72.3584 343.845 76.0166 331.328C79.3028 320.174 83.2711 310.136 88.6654 299.292C97.9039 280.64 102.492 273.328 107.205 269.61C112.661 265.335 124.566 260.873 134.92 259.324L137.462 258.952L138.206 261.865C140.811 272.089 152.033 283.429 163.69 287.704C167.472 289.067 171.254 289.873 177.517 290.555C191.406 292.166 209.015 286.031 217.571 276.674L220.299 273.7L227.182 277.17C236.11 281.694 241.505 284.668 242.621 285.535C243.303 286.093 243.427 287.89 243.179 294.149C242.435 315.836 249.255 343.845 257.006 350.599C258.184 351.714 259.486 352.582 259.796 352.582C260.044 352.582 260.726 352.768 261.222 352.953C261.966 353.201 262.276 352.644 262.586 350.475C262.958 348.058 262.71 346.633 260.974 341.862C258.928 336.347 258.866 335.851 258.928 327.486C258.99 317.076 259.92 307.347 262.276 291.546C264.198 278.719 266.306 260.254 266.926 250.959C267.112 247.737 268.29 239.929 269.468 233.609C275.111 203.494 275.297 202.812 282.365 177.964C287.822 158.879 288.69 155.161 289.682 145.06C290.922 131.924 288.938 118.973 283.853 107.386C274.677 86.3175 258.06 67.9759 240.265 59.1148C235.18 56.5743 231.212 55.211 224.578 53.5999C206.349 49.0765 198.722 48.2709 187.933 49.5722C185.081 49.944 182.601 50.1299 182.477 49.944C182.291 49.7581 183.593 48.0231 185.329 46.0402C191.654 38.9762 194.134 30.7348 191.158 26.769C188.739 23.4849 186.817 22.6174 182.415 22.6174C178.323 22.6794 174.975 23.9186 170.758 26.9549C169.518 27.8844 169.394 27.7605 167.782 25.4058C164.682 20.6964 159.784 19.2093 155.133 21.502ZM161.148 28.2562C161.83 29.1237 162.76 31.5403 163.132 33.5232C164 37.7988 165.674 40.2774 167.658 40.2774C169.518 40.2774 170.882 38.6664 171.378 35.8159C171.936 32.8416 174.417 29.8673 177.641 28.4421C180.741 27.0169 182.849 26.9549 184.709 28.2562C185.887 29.1237 186.073 29.6814 185.825 31.6643C185.577 33.7091 184.275 35.3202 177.207 42.756C172.68 47.5273 168.34 51.6171 167.596 51.8029C165.798 52.2987 164.124 50.9974 161.21 47.1556C155.629 39.7198 153.707 31.5403 156.808 28.2562C158.73 26.2114 159.536 26.2114 161.148 28.2562ZM148.623 47.4654L150.359 48.6427L144.221 49.0765C140.811 49.3243 136.16 50.0679 133.928 50.7495C127.728 52.6705 116.009 57.7516 110.305 61.0358C107.577 62.6469 105.22 63.8242 105.096 63.7003C104.6 63.2045 114.831 56.1405 119.667 53.6619C133.618 46.5359 143.973 44.3052 148.623 47.4654ZM151.909 48.3329C151.909 48.6427 151.599 48.9525 151.227 48.9525C150.917 48.9525 150.793 48.6427 150.979 48.3329C151.165 47.9611 151.475 47.7133 151.661 47.7133C151.785 47.7133 151.909 47.9611 151.909 48.3329ZM202.752 51.3692C205.294 51.679 203.31 51.8649 194.692 52.2367C188.367 52.4846 182.415 52.8564 181.361 53.0423C179.873 53.3521 179.625 53.2901 180.245 52.6705C181.609 51.1833 195.002 50.3777 202.752 51.3692ZM236.854 60.1682C243.861 63.3904 251.115 68.7194 258.556 76.2172C271.205 88.7961 280.939 105.465 284.597 120.832C285.775 125.789 286.023 128.33 285.961 136.943C285.961 148.592 284.783 155.409 280.257 170.714C278.831 175.485 277.405 180.443 277.033 181.744C275.793 186.267 275.979 183.603 277.591 173.75C278.893 165.633 279.203 161.729 279.265 151.815C279.265 144.627 278.955 137.811 278.521 134.96C276.785 124.736 270.584 102.862 266.926 94.1251C261.904 82.1039 249.503 69.401 234.25 60.54C228.608 57.2559 230.034 57.07 236.854 60.1682ZM144.841 126.781C146.081 130.065 148.065 134.031 149.243 135.58C150.359 137.191 151.785 139.298 152.405 140.351C154.451 143.883 156.498 145.494 159.412 145.866C160.9 146.052 174.107 146.3 188.739 146.486C203.372 146.672 215.587 147.043 215.835 147.291C216.641 148.159 217.943 164.889 217.881 174.122C217.819 183.789 217.199 186.267 214.347 187.878C212.425 188.994 185.577 189.366 179.935 188.374C175.037 187.507 173.115 186.515 171.13 183.541C169.642 181.434 169.58 180.814 169.208 167.988C168.774 154.231 168.402 150.947 167.162 151.381C166.17 151.691 165.178 155.099 163.814 163.03L162.636 170.094L158.048 171.148C155.505 171.705 153.273 172.201 153.025 172.263C152.839 172.263 152.529 168.545 152.405 163.96C152.219 156.648 152.033 155.409 150.917 153.86C149.057 151.319 147.693 151.319 146.701 153.798C146.205 154.975 145.461 161.791 144.903 170.28C143.849 186.887 144.035 186.391 137.338 189.613C130.208 193.145 118.675 194.385 112.599 192.34C108.879 191.039 104.042 186.329 102.616 182.549C101.872 180.628 101.686 178.893 101.934 176.787C102.12 175.176 102.554 169.227 102.864 163.588C103.174 157.949 103.67 152.558 103.856 151.629L104.29 149.956L112.785 149.832C117.435 149.708 123.76 149.77 126.86 149.894C135.85 150.204 136.346 149.274 138.578 130.437C139.136 125.665 139.694 120.956 139.943 119.903L140.253 118.106L141.431 119.469C142.051 120.274 143.539 123.559 144.841 126.781ZM244.109 140.785C247.705 144.131 249.255 148.159 249.255 153.983C249.255 159.746 248.201 164.084 245.845 168.483C243.923 171.953 237.846 178.15 236.854 177.53C236.544 177.344 236.42 175.237 236.668 172.387C236.978 168.05 236.11 150.08 235.18 142.086C234.87 139.36 234.994 138.864 235.986 138.616C238.715 137.811 241.939 138.678 244.109 140.785ZM75.0246 160.924C77.0707 167.554 77.6907 173.626 77.2567 182.797C76.7607 193.393 75.8306 198.041 75.7066 190.171C75.6446 187.259 75.0866 181.868 74.4045 178.088C72.1724 165.881 71.6143 156.772 73.2264 156.772C73.4745 156.772 74.3425 158.631 75.0246 160.924ZM162.76 178.831C163.504 183.789 165.302 186.763 169.146 189.304C173.301 192.03 178.881 192.712 196.924 192.712H213.293L211.805 195.624C207.217 204.671 196.366 216.692 187.933 222.145C178.385 228.342 169.208 230.82 157.49 230.324C144.345 229.767 134.238 225.367 123.698 215.577C117.311 209.628 108.259 197.731 109.313 196.677C109.499 196.492 111.297 196.677 113.343 197.049C118.675 198.103 132.564 196.863 138.888 194.818C147.693 191.906 149.987 189.366 151.227 180.938C152.343 173.564 151.909 174.06 157.366 174.246L162.078 174.432L162.76 178.831ZM185.081 234.662C184.833 235.282 184.461 238.442 184.337 241.726L184.027 247.613L193.204 255.111C198.288 259.262 203.124 263.166 203.992 263.848L205.543 265.087L203.992 266.76C201.512 269.424 195.498 271.965 189.918 272.771C180.059 274.196 168.216 271.531 159.474 265.83C154.637 262.732 148.995 257.341 149.801 256.598C150.111 256.288 152.715 255.42 155.567 254.677C158.42 253.933 162.078 252.88 163.752 252.26C165.364 251.64 167.41 251.269 168.278 251.393C169.704 251.702 170.014 251.393 170.882 249.348C171.874 247.055 171.75 244.453 170.386 239.247C170.262 238.69 171.44 238.07 173.921 237.327C175.967 236.769 179.067 235.715 180.741 234.972C184.771 233.361 185.639 233.299 185.081 234.662ZM262.958 248.914C261.16 261.555 260.726 267.937 261.656 267.38C262.586 266.822 262.338 270.23 260.416 284.11C259.796 288.882 258.804 296.008 258.246 299.911C257.75 303.815 257.13 310.879 256.882 315.588C256.696 320.298 256.262 323.892 256.014 323.644C254.96 322.591 253.471 310.817 253.161 300.655C252.789 289.005 253.347 282.065 255.828 268.619C257.068 261.555 262.152 240.425 263.392 237.017C264.384 234.228 264.136 240.673 262.958 248.914ZM52.9512 268.371C41.1085 297.557 35.6522 316.456 34.3501 333.311C33.978 338.454 33.854 338.949 33.172 337.648C32.1799 335.727 30.3818 325.813 30.3818 322.219C30.3818 312.242 35.3421 296.875 44.2707 278.843C47.4949 272.461 58.4075 253.376 58.7176 253.623C58.7796 253.747 56.2374 260.378 52.9512 268.371ZM145.399 260.44C147.197 265.645 154.389 271.841 163.008 275.435C178.943 282.065 199.962 280.268 208.767 271.469C211.123 269.115 211.433 268.929 212.921 269.61C215.153 270.664 214.967 271.469 211.743 274.444C200.086 285.164 183.655 288.943 169.58 284.172C159.164 280.64 151.351 274.506 145.027 264.963C140.935 258.705 140.563 257.589 142.981 257.899C144.221 258.023 144.779 258.643 145.399 260.44Z" fill="#333333"/>
<path d="M186.259 149.088C183.779 149.646 179.873 153.674 177.889 157.763C176.215 161.109 175.843 162.782 175.595 166.872C175.409 171.52 175.533 172.263 177.145 175.361C179.377 179.761 182.043 181.558 186.259 181.558C194.134 181.558 198.722 174.494 198.288 162.968L198.102 157.082L200.768 156.896C204.116 156.648 205.667 154.727 204.55 152.186C203.992 151.009 203.496 150.637 202.814 150.947C202.256 151.195 200.396 151.505 198.66 151.629C196.056 151.877 195.126 151.691 193.638 150.637C191.84 149.274 188.615 148.592 186.259 149.088Z" fill="#333333"/>
<path d="M125.992 153.488C123.76 155.223 122.271 155.409 117.683 154.665L114.707 154.169V156.586C114.707 159.436 116.381 161.605 119.109 162.163L120.907 162.473V168.173C120.907 175.423 122.023 178.893 125.372 181.93C127.666 183.975 128.1 184.16 130.704 183.851C132.874 183.603 133.99 183.107 135.292 181.682C137.028 179.699 138.268 176.291 138.268 173.44C138.268 170.218 136.346 160.924 135.044 157.763C132.502 151.629 129.836 150.389 125.992 153.488Z" fill="#333333"/>
<path d="M155.009 192.712C155.009 193.269 155.629 194.323 156.435 195.066C158.358 196.863 162.822 196.987 163.38 195.252C163.752 194.075 163.256 192.092 162.512 192.092C155.195 191.658 155.009 191.658 155.009 192.712Z" fill="#333333"/>
</svg>
