<svg width="68" height="69" viewBox="0 0 68 69" fill="none" xmlns="http://www.w3.org/2000/svg">
<path d="M34 21.5625C31.4783 21.5625 29.0132 22.3213 26.9165 23.7429C24.8198 25.1645 23.1856 27.185 22.2205 29.549C21.2555 31.9131 21.003 34.5144 21.495 37.024C21.9869 39.5336 23.2013 41.8389 24.9844 43.6482C26.7675 45.4575 29.0393 46.6897 31.5126 47.1889C33.9859 47.6881 36.5495 47.4319 38.8792 46.4527C41.209 45.4735 43.2002 43.8153 44.6012 41.6877C46.0022 39.5601 46.75 37.0588 46.75 34.5C46.75 31.0688 45.4067 27.7781 43.0156 25.3518C40.6245 22.9256 37.3815 21.5625 34 21.5625ZM34 43.125C32.3189 43.125 30.6755 42.6192 29.2777 41.6714C27.8798 40.7237 26.7904 39.3767 26.147 37.8006C25.5037 36.2246 25.3354 34.4904 25.6633 32.8173C25.9913 31.1443 26.8008 29.6074 27.9896 28.4012C29.1783 27.195 30.6929 26.3735 32.3417 26.0407C33.9906 25.7079 35.6996 25.8787 37.2528 26.5315C38.806 27.1843 40.1335 28.2898 41.0675 29.7082C42.0015 31.1266 42.5 32.7941 42.5 34.5C42.493 36.7853 41.5952 38.975 40.0027 40.5909C38.4101 42.2069 36.2522 43.1179 34 43.125ZM45.6875 7.54688H22.3125C18.3674 7.54688 14.5839 9.1371 11.7943 11.9677C9.00468 14.7984 7.4375 18.6375 7.4375 22.6406V46.3594C7.4375 50.3625 9.00468 54.2016 11.7943 57.0323C14.5839 59.8629 18.3674 61.4531 22.3125 61.4531H45.6875C49.6326 61.4531 53.4161 59.8629 56.2057 57.0323C58.9953 54.2016 60.5625 50.3625 60.5625 46.3594V22.6406C60.5625 18.6375 58.9953 14.7984 56.2057 11.9677C53.4161 9.1371 49.6326 7.54688 45.6875 7.54688ZM56.3125 46.3594C56.3125 47.7752 56.0377 49.1771 55.5037 50.4852C54.9698 51.7932 54.1871 52.9817 53.2005 53.9829C52.2139 54.984 51.0426 55.7781 49.7535 56.32C48.4644 56.8618 47.0828 57.1406 45.6875 57.1406H22.3125C20.9172 57.1406 19.5356 56.8618 18.2465 56.32C16.9574 55.7781 15.7861 54.984 14.7995 53.9829C13.8129 52.9817 13.0302 51.7932 12.4963 50.4852C11.9623 49.1771 11.6875 47.7752 11.6875 46.3594V22.6406C11.6875 19.7813 12.8069 17.039 14.7995 15.0171C16.7921 12.9953 19.4946 11.8594 22.3125 11.8594H45.6875C47.0828 11.8594 48.4644 12.1382 49.7535 12.68C51.0426 13.2219 52.2139 14.016 53.2005 15.0171C54.1871 16.0183 54.9698 17.2068 55.5037 18.5148C56.0377 19.8229 56.3125 21.2248 56.3125 22.6406V46.3594ZM51 20.4844C51 21.1241 50.8131 21.7494 50.4628 22.2813C50.1126 22.8132 49.6147 23.2277 49.0323 23.4725C48.4499 23.7174 47.809 23.7814 47.1907 23.6566C46.5723 23.5318 46.0044 23.2238 45.5586 22.7714C45.1128 22.3191 44.8092 21.7428 44.6862 21.1154C44.5633 20.488 44.6264 19.8376 44.8676 19.2466C45.1089 18.6556 45.5174 18.1505 46.0416 17.7951C46.5658 17.4397 47.1821 17.25 47.8125 17.25C48.6579 17.25 49.4686 17.5908 50.0664 18.1973C50.6642 18.8039 51 19.6266 51 20.4844Z" fill="#333333"/>
</svg>
