<svg width="100" height="100" viewBox="0 0 100 100" fill="none" xmlns="http://www.w3.org/2000/svg">
<mask id="path-1-outside-1_602_6" maskUnits="userSpaceOnUse" x="0" y="0" width="100" height="100" fill="black">
<rect fill="white" width="100" height="100"/>
<path d="M97 50C97 75.9574 75.9574 97 50 97C24.0426 97 3 75.9574 3 50C3 24.0426 24.0426 3 50 3C75.9574 3 97 24.0426 97 50Z"/>
<path d="M78 21V77H22V21H78ZM51.3837 75.2687L51.358 75.2733L51.1923 75.355L51.1457 75.3643L51.113 75.355L50.9473 75.2733C50.924 75.264 50.903 75.271 50.8913 75.285L50.882 75.3083L50.8423 76.307L50.854 76.3537L50.8773 76.384L51.12 76.5567L51.155 76.566L51.183 76.5567L51.4257 76.384L51.4537 76.3467L51.463 76.307L51.4233 75.3107C51.4187 75.2873 51.4023 75.271 51.3837 75.2687ZM52.002 75.005L51.9717 75.0097L51.54 75.2267L51.5167 75.25L51.5097 75.2757L51.5517 76.279L51.5633 76.307L51.582 76.3233L52.051 76.5403C52.079 76.5497 52.1047 76.5403 52.1187 76.5217L52.128 76.489L52.0487 75.0563C52.0417 75.0283 52.0253 75.0097 52.002 75.005ZM50.3337 75.0097C50.3231 75.0049 50.3112 75.0036 50.2998 75.0061C50.2885 75.0087 50.2782 75.0148 50.2707 75.0237L50.2567 75.0563L50.1773 76.489C50.1773 76.517 50.1937 76.5357 50.217 76.545L50.252 76.5403L50.721 76.3233L50.7443 76.3047L50.7537 76.279L50.7933 75.2757L50.7863 75.2477L50.763 75.2243L50.3337 75.0097Z"/>
<path d="M36.735 35.4107C36.1517 33.922 36.175 32.221 36.434 30.6647C38.2171 31.1989 39.8918 32.0442 41.3807 33.1613C42.034 33.6607 42.8903 33.8217 43.6883 33.5813C45.736 32.9687 47.8626 32.6605 50 32.6667C52.2423 32.6667 54.3727 32.9933 56.307 33.579C57.105 33.8217 57.9613 33.6583 58.6123 33.159C60.1005 32.0421 61.7744 31.1969 63.5567 30.6623C63.8157 32.2187 63.8367 33.9197 63.258 35.406C62.908 36.302 63.083 37.3333 63.7433 38.066C65.4327 39.9397 66.3333 42.0933 66.3333 44.3333C66.3333 49.266 61.7367 54.103 54.354 55.5753C52.506 55.944 51.785 58.2703 53.199 59.6027C54.1067 60.4567 54.6667 61.6607 54.6667 63V70C54.6667 70.6188 54.9125 71.2123 55.3501 71.6499C55.7877 72.0875 56.3812 72.3333 57 72.3333C57.6188 72.3333 58.2123 72.0875 58.6499 71.6499C59.0875 71.2123 59.3333 70.6188 59.3333 70V63C59.3333 61.67 59.0533 60.4053 58.554 59.2597C65.5937 56.8167 71 51.317 71 44.3333C71 41.1903 69.8707 38.3017 67.997 35.882C68.487 33.9687 68.4427 32.0413 68.256 30.562C68.0903 29.2367 67.8593 27.5007 66.926 26.4647C65.5377 24.927 63.2393 25.8323 61.606 26.39C59.8539 26.9829 58.1869 27.8026 56.6477 28.8283C54.4754 28.274 52.2419 27.9957 50 28C47.6807 28 45.443 28.2917 43.3477 28.8307C41.8084 27.8049 40.1415 26.9852 38.3893 26.3923C36.756 25.8323 34.4553 24.927 33.067 26.4647C32.115 27.5193 31.9167 29.1177 31.7463 30.4757L31.7347 30.5643C31.548 32.046 31.506 33.9757 31.996 35.8913C30.1293 38.3087 29 41.1927 29 44.3333C29 51.3147 34.4063 56.8167 41.446 59.2597C40.9365 60.4247 40.6712 61.6818 40.6667 62.9533L40.2747 63.0327C38.6017 63.2637 37.5307 63.056 36.8027 62.748C35.0293 61.9967 34.1147 60.1043 32.9993 58.6577C32.304 57.7593 31.2913 56.637 29.7373 56.119C29.4465 56.0222 29.1395 55.9836 28.8338 56.0054C28.5281 56.0272 28.2297 56.109 27.9556 56.2462C27.4021 56.5232 26.9812 57.0087 26.7857 57.596C26.5901 58.1833 26.6359 58.8242 26.9129 59.3777C27.1898 59.9313 27.6754 60.3521 28.2627 60.5477C29.5647 60.9817 30.4653 63.2123 31.2913 64.2017C32.1617 65.247 33.319 66.339 34.978 67.0437C36.5693 67.7203 38.4383 67.9607 40.6667 67.6877V70C40.6667 70.6188 40.9125 71.2123 41.3501 71.6499C41.7877 72.0875 42.3812 72.3333 43 72.3333C43.6188 72.3333 44.2123 72.0875 44.6499 71.6499C45.0875 71.2123 45.3333 70.6188 45.3333 70V63C45.3333 61.6607 45.8933 60.4567 46.801 59.6027C48.2173 58.268 47.494 55.944 45.646 55.5753C38.261 54.103 33.6667 49.266 33.6667 44.3333C33.6667 42.098 34.565 39.9443 36.252 38.0707C36.9123 37.338 37.085 36.3067 36.735 35.4107Z"/>
</mask>
<path d="M97 50C97 75.9574 75.9574 97 50 97C24.0426 97 3 75.9574 3 50C3 24.0426 24.0426 3 50 3C75.9574 3 97 24.0426 97 50Z" fill="url(#paint0_linear_602_6)"/>
<path d="M36.735 35.4107C36.1517 33.922 36.175 32.221 36.434 30.6647C38.2171 31.1989 39.8918 32.0442 41.3807 33.1613C42.034 33.6607 42.8903 33.8217 43.6883 33.5813C45.736 32.9687 47.8626 32.6605 50 32.6667C52.2423 32.6667 54.3727 32.9933 56.307 33.579C57.105 33.8217 57.9613 33.6583 58.6123 33.159C60.1005 32.0421 61.7744 31.1969 63.5567 30.6623C63.8157 32.2187 63.8367 33.9197 63.258 35.406C62.908 36.302 63.083 37.3333 63.7433 38.066C65.4327 39.9397 66.3333 42.0933 66.3333 44.3333C66.3333 49.266 61.7367 54.103 54.354 55.5753C52.506 55.944 51.785 58.2703 53.199 59.6027C54.1067 60.4567 54.6667 61.6607 54.6667 63V70C54.6667 70.6188 54.9125 71.2123 55.3501 71.6499C55.7877 72.0875 56.3812 72.3333 57 72.3333C57.6188 72.3333 58.2123 72.0875 58.6499 71.6499C59.0875 71.2123 59.3333 70.6188 59.3333 70V63C59.3333 61.67 59.0533 60.4053 58.554 59.2597C65.5937 56.8167 71 51.317 71 44.3333C71 41.1903 69.8707 38.3017 67.997 35.882C68.487 33.9687 68.4427 32.0413 68.256 30.562C68.0903 29.2367 67.8593 27.5007 66.926 26.4647C65.5377 24.927 63.2393 25.8323 61.606 26.39C59.8539 26.9829 58.1869 27.8026 56.6477 28.8283C54.4754 28.274 52.2419 27.9957 50 28C47.6807 28 45.443 28.2917 43.3477 28.8307C41.8084 27.8049 40.1415 26.9852 38.3893 26.3923C36.756 25.8323 34.4553 24.927 33.067 26.4647C32.115 27.5193 31.9167 29.1177 31.7463 30.4757L31.7347 30.5643C31.548 32.046 31.506 33.9757 31.996 35.8913C30.1293 38.3087 29 41.1927 29 44.3333C29 51.3147 34.4063 56.8167 41.446 59.2597C40.9365 60.4247 40.6712 61.6818 40.6667 62.9533L40.2747 63.0327C38.6017 63.2637 37.5307 63.056 36.8027 62.748C35.0293 61.9967 34.1147 60.1043 32.9993 58.6577C32.304 57.7593 31.2913 56.637 29.7373 56.119C29.4465 56.0222 29.1395 55.9836 28.8338 56.0054C28.5281 56.0272 28.2297 56.109 27.9556 56.2462C27.4021 56.5232 26.9812 57.0087 26.7857 57.596C26.5901 58.1833 26.6359 58.8242 26.9129 59.3777C27.1898 59.9313 27.6754 60.3521 28.2627 60.5477C29.5647 60.9817 30.4653 63.2123 31.2913 64.2017C32.1617 65.247 33.319 66.339 34.978 67.0437C36.5693 67.7203 38.4383 67.9607 40.6667 67.6877V70C40.6667 70.6188 40.9125 71.2123 41.3501 71.6499C41.7877 72.0875 42.3812 72.3333 43 72.3333C43.6188 72.3333 44.2123 72.0875 44.6499 71.6499C45.0875 71.2123 45.3333 70.6188 45.3333 70V63C45.3333 61.6607 45.8933 60.4567 46.801 59.6027C48.2173 58.268 47.494 55.944 45.646 55.5753C38.261 54.103 33.6667 49.266 33.6667 44.3333C33.6667 42.098 34.565 39.9443 36.252 38.0707C36.9123 37.338 37.085 36.3067 36.735 35.4107Z" fill="#333333"/>
<path d="M97 50C97 75.9574 75.9574 97 50 97C24.0426 97 3 75.9574 3 50C3 24.0426 24.0426 3 50 3C75.9574 3 97 24.0426 97 50Z" stroke="black" stroke-width="6" mask="url(#path-1-outside-1_602_6)"/>
<path d="M78 21V77H22V21H78ZM51.3837 75.2687L51.358 75.2733L51.1923 75.355L51.1457 75.3643L51.113 75.355L50.9473 75.2733C50.924 75.264 50.903 75.271 50.8913 75.285L50.882 75.3083L50.8423 76.307L50.854 76.3537L50.8773 76.384L51.12 76.5567L51.155 76.566L51.183 76.5567L51.4257 76.384L51.4537 76.3467L51.463 76.307L51.4233 75.3107C51.4187 75.2873 51.4023 75.271 51.3837 75.2687ZM52.002 75.005L51.9717 75.0097L51.54 75.2267L51.5167 75.25L51.5097 75.2757L51.5517 76.279L51.5633 76.307L51.582 76.3233L52.051 76.5403C52.079 76.5497 52.1047 76.5403 52.1187 76.5217L52.128 76.489L52.0487 75.0563C52.0417 75.0283 52.0253 75.0097 52.002 75.005ZM50.3337 75.0097C50.3231 75.0049 50.3112 75.0036 50.2998 75.0061C50.2885 75.0087 50.2782 75.0148 50.2707 75.0237L50.2567 75.0563L50.1773 76.489C50.1773 76.517 50.1937 76.5357 50.217 76.545L50.252 76.5403L50.721 76.3233L50.7443 76.3047L50.7537 76.279L50.7933 75.2757L50.7863 75.2477L50.763 75.2243L50.3337 75.0097Z" stroke="black" stroke-width="6" mask="url(#path-1-outside-1_602_6)"/>
<path d="M36.735 35.4107C36.1517 33.922 36.175 32.221 36.434 30.6647C38.2171 31.1989 39.8918 32.0442 41.3807 33.1613C42.034 33.6607 42.8903 33.8217 43.6883 33.5813C45.736 32.9687 47.8626 32.6605 50 32.6667C52.2423 32.6667 54.3727 32.9933 56.307 33.579C57.105 33.8217 57.9613 33.6583 58.6123 33.159C60.1005 32.0421 61.7744 31.1969 63.5567 30.6623C63.8157 32.2187 63.8367 33.9197 63.258 35.406C62.908 36.302 63.083 37.3333 63.7433 38.066C65.4327 39.9397 66.3333 42.0933 66.3333 44.3333C66.3333 49.266 61.7367 54.103 54.354 55.5753C52.506 55.944 51.785 58.2703 53.199 59.6027C54.1067 60.4567 54.6667 61.6607 54.6667 63V70C54.6667 70.6188 54.9125 71.2123 55.3501 71.6499C55.7877 72.0875 56.3812 72.3333 57 72.3333C57.6188 72.3333 58.2123 72.0875 58.6499 71.6499C59.0875 71.2123 59.3333 70.6188 59.3333 70V63C59.3333 61.67 59.0533 60.4053 58.554 59.2597C65.5937 56.8167 71 51.317 71 44.3333C71 41.1903 69.8707 38.3017 67.997 35.882C68.487 33.9687 68.4427 32.0413 68.256 30.562C68.0903 29.2367 67.8593 27.5007 66.926 26.4647C65.5377 24.927 63.2393 25.8323 61.606 26.39C59.8539 26.9829 58.1869 27.8026 56.6477 28.8283C54.4754 28.274 52.2419 27.9957 50 28C47.6807 28 45.443 28.2917 43.3477 28.8307C41.8084 27.8049 40.1415 26.9852 38.3893 26.3923C36.756 25.8323 34.4553 24.927 33.067 26.4647C32.115 27.5193 31.9167 29.1177 31.7463 30.4757L31.7347 30.5643C31.548 32.046 31.506 33.9757 31.996 35.8913C30.1293 38.3087 29 41.1927 29 44.3333C29 51.3147 34.4063 56.8167 41.446 59.2597C40.9365 60.4247 40.6712 61.6818 40.6667 62.9533L40.2747 63.0327C38.6017 63.2637 37.5307 63.056 36.8027 62.748C35.0293 61.9967 34.1147 60.1043 32.9993 58.6577C32.304 57.7593 31.2913 56.637 29.7373 56.119C29.4465 56.0222 29.1395 55.9836 28.8338 56.0054C28.5281 56.0272 28.2297 56.109 27.9556 56.2462C27.4021 56.5232 26.9812 57.0087 26.7857 57.596C26.5901 58.1833 26.6359 58.8242 26.9129 59.3777C27.1898 59.9313 27.6754 60.3521 28.2627 60.5477C29.5647 60.9817 30.4653 63.2123 31.2913 64.2017C32.1617 65.247 33.319 66.339 34.978 67.0437C36.5693 67.7203 38.4383 67.9607 40.6667 67.6877V70C40.6667 70.6188 40.9125 71.2123 41.3501 71.6499C41.7877 72.0875 42.3812 72.3333 43 72.3333C43.6188 72.3333 44.2123 72.0875 44.6499 71.6499C45.0875 71.2123 45.3333 70.6188 45.3333 70V63C45.3333 61.6607 45.8933 60.4567 46.801 59.6027C48.2173 58.268 47.494 55.944 45.646 55.5753C38.261 54.103 33.6667 49.266 33.6667 44.3333C33.6667 42.098 34.565 39.9443 36.252 38.0707C36.9123 37.338 37.085 36.3067 36.735 35.4107Z" stroke="black" stroke-width="6" mask="url(#path-1-outside-1_602_6)"/>
<defs>
<linearGradient id="paint0_linear_602_6" x1="50" y1="3" x2="50" y2="97" gradientUnits="userSpaceOnUse">
<stop stop-color="#D6EBFE"/>
<stop offset="1" stop-color="#FBFCF9"/>
</linearGradient>
</defs>
</svg>
