<svg width="572" height="476" viewBox="0 0 572 476" fill="none" xmlns="http://www.w3.org/2000/svg">
<path d="M19.472 469V452.2H25.808C26.96 452.2 28.008 452.408 28.952 452.824C29.912 453.224 30.744 453.8 31.448 454.552C32.152 455.304 32.696 456.192 33.08 457.216C33.464 458.24 33.656 459.368 33.656 460.6C33.656 461.832 33.464 462.968 33.08 464.008C32.696 465.032 32.152 465.92 31.448 466.672C30.76 467.408 29.936 467.984 28.976 468.4C28.016 468.8 26.96 469 25.808 469H19.472ZM21.344 467.512L21.128 467.176H25.688C26.568 467.176 27.376 467.024 28.112 466.72C28.864 466.4 29.504 465.952 30.032 465.376C30.576 464.784 30.992 464.088 31.28 463.288C31.584 462.488 31.736 461.592 31.736 460.6C31.736 459.608 31.584 458.712 31.28 457.912C30.992 457.112 30.576 456.424 30.032 455.848C29.488 455.256 28.848 454.808 28.112 454.504C27.376 454.184 26.568 454.024 25.688 454.024H21.056L21.344 453.736V467.512ZM41.4839 469.24C40.3959 469.24 39.4119 468.96 38.5319 468.4C37.6519 467.824 36.9559 467.048 36.4439 466.072C35.9319 465.08 35.6759 463.96 35.6759 462.712C35.6759 461.448 35.9399 460.328 36.4679 459.352C36.9959 458.376 37.6999 457.608 38.5799 457.048C39.4759 456.488 40.4759 456.208 41.5799 456.208C42.2359 456.208 42.8439 456.304 43.4039 456.496C43.9639 456.688 44.4599 456.96 44.8919 457.312C45.3399 457.648 45.7079 458.048 45.9959 458.512C46.2999 458.96 46.5079 459.448 46.6199 459.976L46.0919 459.712L46.1639 456.472H47.9639V469H46.1399V465.928L46.6199 465.616C46.5079 466.096 46.2919 466.56 45.9719 467.008C45.6519 467.44 45.2599 467.824 44.7959 468.16C44.3479 468.496 43.8359 468.76 43.2599 468.952C42.6999 469.144 42.1079 469.24 41.4839 469.24ZM41.8919 467.512C42.7239 467.512 43.4679 467.312 44.1239 466.912C44.7799 466.496 45.2919 465.928 45.6599 465.208C46.0439 464.472 46.2359 463.64 46.2359 462.712C46.2359 461.784 46.0439 460.96 45.6599 460.24C45.2919 459.52 44.7799 458.952 44.1239 458.536C43.4679 458.12 42.7239 457.912 41.8919 457.912C41.0439 457.912 40.2919 458.12 39.6359 458.536C38.9959 458.952 38.4839 459.52 38.0999 460.24C37.7319 460.96 37.5479 461.784 37.5479 462.712C37.5479 463.624 37.7319 464.448 38.0999 465.184C38.4679 465.904 38.9799 466.472 39.6359 466.888C40.2919 467.304 41.0439 467.512 41.8919 467.512ZM51.4708 469V456.472H53.2708L53.3188 459.808L53.1268 459.352C53.3028 458.792 53.5828 458.272 53.9668 457.792C54.3668 457.312 54.8388 456.928 55.3828 456.64C55.9268 456.352 56.5268 456.208 57.1828 456.208C57.4548 456.208 57.7108 456.232 57.9508 456.28C58.1908 456.312 58.3908 456.36 58.5508 456.424L58.0468 458.44C57.8388 458.344 57.6228 458.28 57.3988 458.248C57.1908 458.2 56.9908 458.176 56.7988 458.176C56.2548 458.176 55.7668 458.272 55.3348 458.464C54.9028 458.656 54.5348 458.928 54.2308 459.28C53.9268 459.616 53.6948 460.008 53.5348 460.456C53.3748 460.904 53.2948 461.384 53.2948 461.896V469H51.4708ZM62.0319 464.968L61.9599 462.88L68.5119 456.472H70.9359L62.0319 464.968ZM60.4239 469V451.24H62.2239V469H60.4239ZM69.0159 469L63.7359 462.88L65.0079 461.632L71.3679 469H69.0159ZM83.8325 469V454.024H79.0325V452.2H90.6965V454.024H85.7045V469H83.8325ZM96.272 469.24C95.024 469.24 93.912 468.968 92.936 468.424C91.976 467.88 91.224 467.12 90.68 466.144C90.136 465.168 89.864 464.048 89.864 462.784C89.864 461.808 90.016 460.928 90.32 460.144C90.624 459.344 91.048 458.648 91.592 458.056C92.152 457.464 92.816 457.008 93.584 456.688C94.352 456.352 95.184 456.184 96.08 456.184C96.928 456.184 97.696 456.336 98.384 456.64C99.088 456.944 99.688 457.368 100.184 457.912C100.696 458.44 101.08 459.072 101.336 459.808C101.592 460.544 101.704 461.352 101.672 462.232L101.648 463.072H91.208L90.944 461.56H100.28L99.848 461.968V461.392C99.816 460.816 99.648 460.264 99.344 459.736C99.04 459.192 98.608 458.752 98.048 458.416C97.504 458.08 96.848 457.912 96.08 457.912C95.184 457.912 94.408 458.096 93.752 458.464C93.096 458.816 92.592 459.344 92.24 460.048C91.888 460.752 91.712 461.624 91.712 462.664C91.712 463.656 91.904 464.52 92.288 465.256C92.672 465.976 93.216 466.536 93.92 466.936C94.64 467.336 95.504 467.536 96.512 467.536C97.104 467.536 97.688 467.44 98.264 467.248C98.856 467.04 99.504 466.64 100.208 466.048L101.144 467.344C100.776 467.712 100.336 468.04 99.824 468.328C99.312 468.6 98.752 468.824 98.144 469C97.536 469.16 96.912 469.24 96.272 469.24ZM112.678 469L108.334 463.408L108.118 463.144L102.91 456.472H105.19L109.462 461.968L109.702 462.28L114.934 469H112.678ZM102.814 469L107.926 462.4L109.006 463.696L104.974 469H102.814ZM109.822 462.856L108.79 461.584L112.438 456.472H114.622L109.822 462.856ZM118.8 469V453.184H120.6V469H118.8ZM115.968 458.2V456.472H123.768V458.2H115.968Z" fill="#333333"/>
<path d="M227.6 469L234.032 452.2H236.168L242.552 469H240.512L236.408 458.104C236.296 457.8 236.168 457.448 236.024 457.048C235.896 456.632 235.752 456.208 235.592 455.776C235.448 455.328 235.304 454.896 235.16 454.48C235.032 454.064 234.912 453.696 234.8 453.376H235.28C235.152 453.776 235.016 454.184 234.872 454.6C234.744 455 234.608 455.408 234.464 455.824C234.32 456.224 234.176 456.624 234.032 457.024C233.888 457.424 233.744 457.824 233.6 458.224L229.52 469H227.6ZM230.336 464.368L231.032 462.544H238.976L239.744 464.368H230.336ZM249.004 469.24C247.932 469.24 246.972 469.04 246.124 468.64C245.276 468.24 244.604 467.712 244.108 467.056L245.38 465.952C245.844 466.512 246.388 466.936 247.012 467.224C247.652 467.512 248.364 467.656 249.148 467.656C249.548 467.656 249.908 467.616 250.228 467.536C250.548 467.44 250.828 467.304 251.068 467.128C251.308 466.952 251.492 466.744 251.62 466.504C251.748 466.264 251.812 466 251.812 465.712C251.812 465.184 251.58 464.744 251.116 464.392C250.908 464.248 250.612 464.104 250.228 463.96C249.844 463.8 249.38 463.648 248.836 463.504C247.94 463.248 247.196 462.992 246.604 462.736C246.012 462.464 245.548 462.152 245.212 461.8C244.972 461.512 244.788 461.2 244.66 460.864C244.548 460.528 244.492 460.16 244.492 459.76C244.492 459.248 244.596 458.776 244.804 458.344C245.028 457.912 245.332 457.536 245.716 457.216C246.116 456.88 246.58 456.632 247.108 456.472C247.652 456.296 248.236 456.208 248.86 456.208C249.452 456.208 250.036 456.288 250.612 456.448C251.188 456.608 251.724 456.84 252.22 457.144C252.716 457.448 253.14 457.808 253.492 458.224L252.388 459.424C252.084 459.104 251.748 458.816 251.38 458.56C251.012 458.304 250.62 458.104 250.204 457.96C249.804 457.816 249.388 457.744 248.956 457.744C248.572 457.744 248.212 457.792 247.876 457.888C247.556 457.984 247.276 458.12 247.036 458.296C246.812 458.456 246.636 458.656 246.508 458.896C246.396 459.136 246.34 459.4 246.34 459.688C246.34 459.928 246.388 460.144 246.484 460.336C246.58 460.528 246.716 460.696 246.892 460.84C247.116 461.016 247.428 461.184 247.828 461.344C248.244 461.488 248.756 461.64 249.364 461.8C250.068 461.992 250.66 462.192 251.14 462.4C251.636 462.592 252.044 462.824 252.364 463.096C252.796 463.416 253.1 463.784 253.276 464.2C253.468 464.616 253.564 465.088 253.564 465.616C253.564 466.32 253.364 466.944 252.964 467.488C252.58 468.032 252.044 468.464 251.356 468.784C250.668 469.088 249.884 469.24 249.004 469.24ZM260.489 469.24C259.417 469.24 258.457 469.04 257.609 468.64C256.761 468.24 256.089 467.712 255.593 467.056L256.865 465.952C257.329 466.512 257.873 466.936 258.497 467.224C259.137 467.512 259.849 467.656 260.633 467.656C261.033 467.656 261.393 467.616 261.713 467.536C262.033 467.44 262.313 467.304 262.553 467.128C262.793 466.952 262.977 466.744 263.105 466.504C263.233 466.264 263.297 466 263.297 465.712C263.297 465.184 263.065 464.744 262.601 464.392C262.393 464.248 262.097 464.104 261.713 463.96C261.329 463.8 260.865 463.648 260.321 463.504C259.425 463.248 258.681 462.992 258.089 462.736C257.497 462.464 257.033 462.152 256.697 461.8C256.457 461.512 256.273 461.2 256.145 460.864C256.033 460.528 255.977 460.16 255.977 459.76C255.977 459.248 256.081 458.776 256.289 458.344C256.513 457.912 256.817 457.536 257.201 457.216C257.601 456.88 258.065 456.632 258.593 456.472C259.137 456.296 259.721 456.208 260.345 456.208C260.937 456.208 261.521 456.288 262.097 456.448C262.673 456.608 263.209 456.84 263.705 457.144C264.201 457.448 264.625 457.808 264.977 458.224L263.873 459.424C263.569 459.104 263.233 458.816 262.865 458.56C262.497 458.304 262.105 458.104 261.689 457.96C261.289 457.816 260.873 457.744 260.441 457.744C260.057 457.744 259.697 457.792 259.361 457.888C259.041 457.984 258.761 458.12 258.521 458.296C258.297 458.456 258.121 458.656 257.993 458.896C257.881 459.136 257.825 459.4 257.825 459.688C257.825 459.928 257.873 460.144 257.969 460.336C258.065 460.528 258.201 460.696 258.377 460.84C258.601 461.016 258.913 461.184 259.313 461.344C259.729 461.488 260.241 461.64 260.849 461.8C261.553 461.992 262.145 462.192 262.625 462.4C263.121 462.592 263.529 462.824 263.849 463.096C264.281 463.416 264.585 463.784 264.761 464.2C264.953 464.616 265.049 465.088 265.049 465.616C265.049 466.32 264.849 466.944 264.449 467.488C264.065 468.032 263.529 468.464 262.841 468.784C262.153 469.088 261.369 469.24 260.489 469.24ZM273.389 469.24C272.141 469.24 271.029 468.968 270.053 468.424C269.093 467.88 268.341 467.12 267.797 466.144C267.253 465.168 266.981 464.048 266.981 462.784C266.981 461.808 267.133 460.928 267.437 460.144C267.741 459.344 268.165 458.648 268.709 458.056C269.269 457.464 269.933 457.008 270.701 456.688C271.469 456.352 272.301 456.184 273.197 456.184C274.045 456.184 274.813 456.336 275.501 456.64C276.205 456.944 276.805 457.368 277.301 457.912C277.813 458.44 278.197 459.072 278.453 459.808C278.709 460.544 278.821 461.352 278.789 462.232L278.765 463.072H268.325L268.061 461.56H277.397L276.965 461.968V461.392C276.933 460.816 276.765 460.264 276.461 459.736C276.157 459.192 275.725 458.752 275.165 458.416C274.621 458.08 273.965 457.912 273.197 457.912C272.301 457.912 271.525 458.096 270.869 458.464C270.213 458.816 269.709 459.344 269.357 460.048C269.005 460.752 268.829 461.624 268.829 462.664C268.829 463.656 269.021 464.52 269.405 465.256C269.789 465.976 270.333 466.536 271.037 466.936C271.757 467.336 272.621 467.536 273.629 467.536C274.221 467.536 274.805 467.44 275.381 467.248C275.973 467.04 276.621 466.64 277.325 466.048L278.261 467.344C277.893 467.712 277.453 468.04 276.941 468.328C276.429 468.6 275.869 468.824 275.261 469C274.653 469.16 274.029 469.24 273.389 469.24ZM283.074 469V453.184H284.874V469H283.074ZM280.242 458.2V456.472H288.042V458.2H280.242ZM294.825 469.24C293.753 469.24 292.793 469.04 291.945 468.64C291.097 468.24 290.425 467.712 289.929 467.056L291.201 465.952C291.665 466.512 292.209 466.936 292.833 467.224C293.473 467.512 294.185 467.656 294.969 467.656C295.369 467.656 295.729 467.616 296.049 467.536C296.369 467.44 296.649 467.304 296.889 467.128C297.129 466.952 297.313 466.744 297.441 466.504C297.569 466.264 297.633 466 297.633 465.712C297.633 465.184 297.401 464.744 296.937 464.392C296.729 464.248 296.433 464.104 296.049 463.96C295.665 463.8 295.201 463.648 294.657 463.504C293.761 463.248 293.017 462.992 292.425 462.736C291.833 462.464 291.369 462.152 291.033 461.8C290.793 461.512 290.609 461.2 290.481 460.864C290.369 460.528 290.313 460.16 290.313 459.76C290.313 459.248 290.417 458.776 290.625 458.344C290.849 457.912 291.153 457.536 291.537 457.216C291.937 456.88 292.401 456.632 292.929 456.472C293.473 456.296 294.057 456.208 294.681 456.208C295.273 456.208 295.857 456.288 296.433 456.448C297.009 456.608 297.545 456.84 298.041 457.144C298.537 457.448 298.961 457.808 299.313 458.224L298.209 459.424C297.905 459.104 297.569 458.816 297.201 458.56C296.833 458.304 296.441 458.104 296.025 457.96C295.625 457.816 295.209 457.744 294.777 457.744C294.393 457.744 294.033 457.792 293.697 457.888C293.377 457.984 293.097 458.12 292.857 458.296C292.633 458.456 292.457 458.656 292.329 458.896C292.217 459.136 292.161 459.4 292.161 459.688C292.161 459.928 292.209 460.144 292.305 460.336C292.401 460.528 292.537 460.696 292.713 460.84C292.937 461.016 293.249 461.184 293.649 461.344C294.065 461.488 294.577 461.64 295.185 461.8C295.889 461.992 296.481 462.192 296.961 462.4C297.457 462.592 297.865 462.824 298.185 463.096C298.617 463.416 298.921 463.784 299.097 464.2C299.289 464.616 299.385 465.088 299.385 465.616C299.385 466.32 299.185 466.944 298.785 467.488C298.401 468.032 297.865 468.464 297.177 468.784C296.489 469.088 295.705 469.24 294.825 469.24Z" fill="#333333"/>
<path d="M439.472 187V170.2H441.296L447.752 180.688L446.888 180.664L453.416 170.2H455.12V187H453.248V179.32C453.248 177.88 453.272 176.584 453.32 175.432C453.368 174.28 453.456 173.136 453.584 172L453.92 172.672L447.896 182.128H446.6L440.744 172.792L441.008 172C441.136 173.072 441.224 174.176 441.272 175.312C441.32 176.432 441.344 177.768 441.344 179.32V187H439.472ZM464.25 187.24C463.162 187.24 462.178 186.96 461.298 186.4C460.418 185.824 459.722 185.048 459.21 184.072C458.698 183.08 458.442 181.96 458.442 180.712C458.442 179.448 458.706 178.328 459.234 177.352C459.762 176.376 460.466 175.608 461.346 175.048C462.242 174.488 463.242 174.208 464.346 174.208C465.002 174.208 465.61 174.304 466.17 174.496C466.73 174.688 467.226 174.96 467.658 175.312C468.106 175.648 468.474 176.048 468.762 176.512C469.066 176.96 469.274 177.448 469.386 177.976L468.858 177.712L468.93 174.472H470.73V187H468.906V183.928L469.386 183.616C469.274 184.096 469.058 184.56 468.738 185.008C468.418 185.44 468.026 185.824 467.562 186.16C467.114 186.496 466.602 186.76 466.026 186.952C465.466 187.144 464.874 187.24 464.25 187.24ZM464.658 185.512C465.49 185.512 466.234 185.312 466.89 184.912C467.546 184.496 468.058 183.928 468.426 183.208C468.81 182.472 469.002 181.64 469.002 180.712C469.002 179.784 468.81 178.96 468.426 178.24C468.058 177.52 467.546 176.952 466.89 176.536C466.234 176.12 465.49 175.912 464.658 175.912C463.81 175.912 463.058 176.12 462.402 176.536C461.762 176.952 461.25 177.52 460.866 178.24C460.498 178.96 460.314 179.784 460.314 180.712C460.314 181.624 460.498 182.448 460.866 183.184C461.234 183.904 461.746 184.472 462.402 184.888C463.058 185.304 463.81 185.512 464.658 185.512ZM474.716 187V174.472H476.516V187H474.716ZM475.604 171.76C475.156 171.76 474.812 171.648 474.572 171.424C474.348 171.184 474.236 170.864 474.236 170.464C474.236 170.064 474.356 169.744 474.596 169.504C474.836 169.264 475.172 169.144 475.604 169.144C476.036 169.144 476.372 169.264 476.612 169.504C476.852 169.728 476.972 170.048 476.972 170.464C476.972 170.848 476.852 171.16 476.612 171.4C476.372 171.64 476.036 171.76 475.604 171.76ZM480.447 187V174.472H482.223L482.295 177.088L482.007 177.208C482.167 176.664 482.479 176.168 482.943 175.72C483.407 175.272 483.959 174.912 484.599 174.64C485.255 174.352 485.927 174.208 486.615 174.208C487.543 174.208 488.319 174.392 488.943 174.76C489.567 175.128 490.039 175.696 490.359 176.464C490.679 177.232 490.839 178.208 490.839 179.392V187H489.015V179.488C489.015 178.656 488.903 177.976 488.679 177.448C488.471 176.904 488.143 176.504 487.695 176.248C487.247 175.992 486.695 175.872 486.039 175.888C485.495 175.888 484.991 175.984 484.527 176.176C484.063 176.352 483.663 176.6 483.327 176.92C482.991 177.24 482.727 177.608 482.535 178.024C482.343 178.44 482.247 178.888 482.247 179.368V187H481.359C481.247 187 481.119 187 480.975 187C480.831 187 480.655 187 480.447 187ZM504.77 187V172.024H499.97V170.2H511.634V172.024H506.642V187H504.77ZM517.21 187.24C515.962 187.24 514.85 186.968 513.874 186.424C512.914 185.88 512.162 185.12 511.618 184.144C511.074 183.168 510.802 182.048 510.802 180.784C510.802 179.808 510.954 178.928 511.258 178.144C511.562 177.344 511.986 176.648 512.53 176.056C513.09 175.464 513.754 175.008 514.522 174.688C515.29 174.352 516.122 174.184 517.018 174.184C517.866 174.184 518.634 174.336 519.322 174.64C520.026 174.944 520.626 175.368 521.122 175.912C521.634 176.44 522.018 177.072 522.273 177.808C522.53 178.544 522.642 179.352 522.609 180.232L522.586 181.072H512.146L511.882 179.56H521.218L520.786 179.968V179.392C520.754 178.816 520.586 178.264 520.282 177.736C519.978 177.192 519.546 176.752 518.986 176.416C518.442 176.08 517.786 175.912 517.018 175.912C516.122 175.912 515.346 176.096 514.69 176.464C514.034 176.816 513.53 177.344 513.178 178.048C512.826 178.752 512.65 179.624 512.65 180.664C512.65 181.656 512.842 182.52 513.226 183.256C513.61 183.976 514.154 184.536 514.858 184.936C515.578 185.336 516.442 185.536 517.45 185.536C518.042 185.536 518.626 185.44 519.202 185.248C519.794 185.04 520.442 184.64 521.146 184.048L522.082 185.344C521.714 185.712 521.274 186.04 520.762 186.328C520.25 186.6 519.69 186.824 519.082 187C518.474 187.16 517.85 187.24 517.21 187.24ZM533.616 187L529.272 181.408L529.056 181.144L523.848 174.472H526.128L530.4 179.968L530.64 180.28L535.872 187H533.616ZM523.752 187L528.864 180.4L529.944 181.696L525.912 187H523.752ZM530.76 180.856L529.728 179.584L533.376 174.472H535.56L530.76 180.856ZM539.738 187V171.184H541.538V187H539.738ZM536.906 176.2V174.472H544.706V176.2H536.906Z" fill="#333333"/>
<path d="M26.912 187.24C25.68 187.24 24.536 187.024 23.48 186.592C22.424 186.16 21.496 185.56 20.696 184.792C19.896 184.024 19.272 183.12 18.824 182.08C18.392 181.024 18.176 179.88 18.176 178.648C18.176 177.416 18.392 176.28 18.824 175.24C19.272 174.184 19.88 173.272 20.648 172.504C21.432 171.736 22.344 171.144 23.384 170.728C24.44 170.296 25.568 170.08 26.768 170.08C27.616 170.08 28.448 170.2 29.264 170.44C30.096 170.68 30.848 171.016 31.52 171.448C32.192 171.88 32.736 172.368 33.152 172.912L31.904 174.184C31.456 173.72 30.952 173.32 30.392 172.984C29.832 172.648 29.24 172.384 28.616 172.192C28.008 172 27.4 171.904 26.792 171.904C25.848 171.904 24.968 172.072 24.152 172.408C23.352 172.744 22.648 173.216 22.04 173.824C21.432 174.416 20.96 175.128 20.624 175.96C20.288 176.776 20.12 177.672 20.12 178.648C20.12 179.592 20.288 180.48 20.624 181.312C20.976 182.128 21.464 182.848 22.088 183.472C22.728 184.08 23.464 184.552 24.296 184.888C25.128 185.224 26.024 185.392 26.984 185.392C27.736 185.392 28.44 185.28 29.096 185.056C29.768 184.832 30.352 184.52 30.848 184.12C31.344 183.704 31.728 183.224 32 182.68C32.272 182.136 32.408 181.552 32.408 180.928V180.088L32.792 180.568H26.888V178.72H34.28C34.296 178.848 34.312 179 34.328 179.176C34.344 179.336 34.352 179.504 34.352 179.68C34.368 179.84 34.376 179.992 34.376 180.136C34.376 181.176 34.184 182.136 33.8 183.016C33.416 183.88 32.88 184.632 32.192 185.272C31.52 185.896 30.736 186.384 29.84 186.736C28.944 187.072 27.968 187.24 26.912 187.24ZM37.0801 187V174.472H38.8801L38.9281 177.808L38.7361 177.352C38.9121 176.792 39.1921 176.272 39.5761 175.792C39.9761 175.312 40.4481 174.928 40.9921 174.64C41.5361 174.352 42.1361 174.208 42.7921 174.208C43.0641 174.208 43.3201 174.232 43.5601 174.28C43.8001 174.312 44.0001 174.36 44.1601 174.424L43.6561 176.44C43.4481 176.344 43.2321 176.28 43.0081 176.248C42.8001 176.2 42.6001 176.176 42.4081 176.176C41.8641 176.176 41.3761 176.272 40.9441 176.464C40.5121 176.656 40.1441 176.928 39.8401 177.28C39.5361 177.616 39.3041 178.008 39.1441 178.456C38.9841 178.904 38.9041 179.384 38.9041 179.896V187H37.0801ZM50.3902 187.24C49.3022 187.24 48.3182 186.96 47.4382 186.4C46.5582 185.824 45.8622 185.048 45.3502 184.072C44.8382 183.08 44.5822 181.96 44.5822 180.712C44.5822 179.448 44.8462 178.328 45.3742 177.352C45.9022 176.376 46.6062 175.608 47.4862 175.048C48.3822 174.488 49.3822 174.208 50.4862 174.208C51.1422 174.208 51.7502 174.304 52.3102 174.496C52.8702 174.688 53.3662 174.96 53.7982 175.312C54.2462 175.648 54.6142 176.048 54.9022 176.512C55.2062 176.96 55.4142 177.448 55.5262 177.976L54.9982 177.712L55.0702 174.472H56.8702V187H55.0462V183.928L55.5262 183.616C55.4142 184.096 55.1982 184.56 54.8782 185.008C54.5582 185.44 54.1662 185.824 53.7022 186.16C53.2542 186.496 52.7422 186.76 52.1662 186.952C51.6062 187.144 51.0142 187.24 50.3902 187.24ZM50.7982 185.512C51.6302 185.512 52.3742 185.312 53.0302 184.912C53.6862 184.496 54.1982 183.928 54.5662 183.208C54.9502 182.472 55.1422 181.64 55.1422 180.712C55.1422 179.784 54.9502 178.96 54.5662 178.24C54.1982 177.52 53.6862 176.952 53.0302 176.536C52.3742 176.12 51.6302 175.912 50.7982 175.912C49.9502 175.912 49.1982 176.12 48.5422 176.536C47.9022 176.952 47.3902 177.52 47.0062 178.24C46.6382 178.96 46.4542 179.784 46.4542 180.712C46.4542 181.624 46.6382 182.448 47.0062 183.184C47.3742 183.904 47.8862 184.472 48.5422 184.888C49.1982 185.304 49.9502 185.512 50.7982 185.512ZM65.465 187.24C64.329 187.24 63.305 186.96 62.393 186.4C61.497 185.84 60.785 185.072 60.257 184.096C59.745 183.104 59.489 181.984 59.489 180.736C59.489 179.472 59.753 178.352 60.281 177.376C60.809 176.384 61.521 175.608 62.417 175.048C63.313 174.488 64.321 174.208 65.441 174.208C66.065 174.208 66.665 174.304 67.241 174.496C67.833 174.688 68.361 174.96 68.825 175.312C69.289 175.648 69.673 176.04 69.977 176.488C70.281 176.92 70.465 177.376 70.529 177.856L69.977 177.664V169.24H71.777V187H70.001L69.953 183.88L70.409 183.712C70.345 184.16 70.161 184.6 69.857 185.032C69.569 185.448 69.201 185.824 68.753 186.16C68.305 186.496 67.793 186.76 67.217 186.952C66.657 187.144 66.073 187.24 65.465 187.24ZM65.729 185.584C66.561 185.584 67.305 185.376 67.961 184.96C68.617 184.544 69.129 183.968 69.497 183.232C69.881 182.496 70.073 181.656 70.073 180.712C70.073 179.768 69.881 178.936 69.497 178.216C69.129 177.48 68.617 176.904 67.961 176.488C67.305 176.056 66.561 175.84 65.729 175.84C64.865 175.84 64.105 176.056 63.449 176.488C62.809 176.904 62.297 177.48 61.913 178.216C61.545 178.936 61.361 179.768 61.361 180.712C61.361 181.64 61.545 182.472 61.913 183.208C62.281 183.944 62.793 184.528 63.449 184.96C64.105 185.376 64.865 185.584 65.729 185.584ZM75.7633 187V174.472H77.5633V187H75.7633ZM76.6513 171.76C76.2033 171.76 75.8593 171.648 75.6193 171.424C75.3953 171.184 75.2833 170.864 75.2833 170.464C75.2833 170.064 75.4033 169.744 75.6433 169.504C75.8833 169.264 76.2193 169.144 76.6513 169.144C77.0833 169.144 77.4193 169.264 77.6593 169.504C77.8993 169.728 78.0193 170.048 78.0193 170.464C78.0193 170.848 77.8993 171.16 77.6593 171.4C77.4193 171.64 77.0833 171.76 76.6513 171.76ZM87.0142 187.24C85.7662 187.24 84.6542 186.968 83.6782 186.424C82.7182 185.88 81.9662 185.12 81.4222 184.144C80.8782 183.168 80.6062 182.048 80.6062 180.784C80.6062 179.808 80.7582 178.928 81.0622 178.144C81.3662 177.344 81.7902 176.648 82.3342 176.056C82.8942 175.464 83.5582 175.008 84.3262 174.688C85.0942 174.352 85.9262 174.184 86.8222 174.184C87.6702 174.184 88.4382 174.336 89.1262 174.64C89.8302 174.944 90.4302 175.368 90.9262 175.912C91.4382 176.44 91.8222 177.072 92.0782 177.808C92.3342 178.544 92.4462 179.352 92.4142 180.232L92.3902 181.072H81.9502L81.6862 179.56H91.0222L90.5902 179.968V179.392C90.5582 178.816 90.3902 178.264 90.0862 177.736C89.7822 177.192 89.3502 176.752 88.7902 176.416C88.2462 176.08 87.5902 175.912 86.8222 175.912C85.9262 175.912 85.1502 176.096 84.4942 176.464C83.8382 176.816 83.3342 177.344 82.9822 178.048C82.6302 178.752 82.4542 179.624 82.4542 180.664C82.4542 181.656 82.6462 182.52 83.0302 183.256C83.4142 183.976 83.9582 184.536 84.6622 184.936C85.3822 185.336 86.2462 185.536 87.2542 185.536C87.8462 185.536 88.4302 185.44 89.0062 185.248C89.5982 185.04 90.2462 184.64 90.9502 184.048L91.8862 185.344C91.5182 185.712 91.0782 186.04 90.5662 186.328C90.0542 186.6 89.4942 186.824 88.8862 187C88.2782 187.16 87.6542 187.24 87.0142 187.24ZM94.9708 187V174.472H96.7467L96.8188 177.088L96.5308 177.208C96.6908 176.664 97.0028 176.168 97.4668 175.72C97.9308 175.272 98.4828 174.912 99.1228 174.64C99.7788 174.352 100.451 174.208 101.139 174.208C102.067 174.208 102.843 174.392 103.467 174.76C104.091 175.128 104.563 175.696 104.883 176.464C105.203 177.232 105.363 178.208 105.363 179.392V187H103.539V179.488C103.539 178.656 103.427 177.976 103.203 177.448C102.995 176.904 102.667 176.504 102.219 176.248C101.771 175.992 101.219 175.872 100.563 175.888C100.019 175.888 99.5148 175.984 99.0508 176.176C98.5868 176.352 98.1868 176.6 97.8508 176.92C97.5148 177.24 97.2508 177.608 97.0588 178.024C96.8668 178.44 96.7708 178.888 96.7708 179.368V187H95.8828C95.7708 187 95.6428 187 95.4988 187C95.3548 187 95.1788 187 94.9708 187ZM110.527 187V171.184H112.327V187H110.527ZM107.695 176.2V174.472H115.495V176.2H107.695ZM26.432 217.24C25.232 217.24 24.128 217.032 23.12 216.616C22.112 216.184 21.24 215.584 20.504 214.816C19.768 214.032 19.192 213.112 18.776 212.056C18.376 211 18.176 209.848 18.176 208.6C18.176 207.368 18.376 206.24 18.776 205.216C19.192 204.176 19.776 203.272 20.528 202.504C21.28 201.72 22.152 201.12 23.144 200.704C24.136 200.288 25.224 200.08 26.408 200.08C27.192 200.08 27.968 200.208 28.736 200.464C29.504 200.704 30.208 201.04 30.848 201.472C31.504 201.904 32.04 202.4 32.456 202.96L31.16 204.304C30.76 203.824 30.296 203.408 29.768 203.056C29.256 202.704 28.712 202.432 28.136 202.24C27.56 202.048 26.984 201.952 26.408 201.952C25.512 201.952 24.672 202.12 23.888 202.456C23.12 202.776 22.456 203.232 21.896 203.824C21.336 204.416 20.896 205.12 20.576 205.936C20.272 206.752 20.12 207.64 20.12 208.6C20.12 209.592 20.272 210.504 20.576 211.336C20.896 212.168 21.344 212.888 21.92 213.496C22.512 214.088 23.2 214.552 23.984 214.888C24.784 215.208 25.672 215.368 26.648 215.368C27.224 215.368 27.8 215.288 28.376 215.128C28.952 214.952 29.48 214.712 29.96 214.408C30.44 214.104 30.848 213.76 31.184 213.376L32.144 214.936C31.776 215.384 31.28 215.784 30.656 216.136C30.048 216.472 29.376 216.744 28.64 216.952C27.904 217.144 27.168 217.24 26.432 217.24ZM40.5148 217.24C39.2668 217.24 38.1548 216.96 37.1788 216.4C36.2188 215.84 35.4588 215.064 34.8988 214.072C34.3548 213.08 34.0828 211.952 34.0828 210.688C34.0828 209.44 34.3548 208.328 34.8988 207.352C35.4588 206.376 36.2188 205.608 37.1788 205.048C38.1548 204.488 39.2668 204.208 40.5148 204.208C41.7468 204.208 42.8428 204.488 43.8028 205.048C44.7788 205.608 45.5388 206.376 46.0828 207.352C46.6428 208.328 46.9228 209.44 46.9228 210.688C46.9228 211.952 46.6428 213.08 46.0828 214.072C45.5388 215.064 44.7788 215.84 43.8028 216.4C42.8428 216.96 41.7468 217.24 40.5148 217.24ZM40.5148 215.536C41.3948 215.536 42.1788 215.328 42.8668 214.912C43.5548 214.48 44.0908 213.904 44.4748 213.184C44.8588 212.448 45.0508 211.616 45.0508 210.688C45.0508 209.76 44.8588 208.936 44.4748 208.216C44.0908 207.496 43.5548 206.936 42.8668 206.536C42.1788 206.12 41.3948 205.912 40.5148 205.912C39.6348 205.912 38.8428 206.12 38.1388 206.536C37.4508 206.936 36.9068 207.504 36.5068 208.24C36.1228 208.96 35.9388 209.776 35.9548 210.688C35.9388 211.616 36.1228 212.448 36.5068 213.184C36.9068 213.904 37.4508 214.48 38.1388 214.912C38.8428 215.328 39.6348 215.536 40.5148 215.536ZM49.5969 217V199.24H51.3969V217H49.5969ZM60.2491 217.24C59.0011 217.24 57.8891 216.96 56.9131 216.4C55.9531 215.84 55.1931 215.064 54.6331 214.072C54.0891 213.08 53.8171 211.952 53.8171 210.688C53.8171 209.44 54.0891 208.328 54.6331 207.352C55.1931 206.376 55.9531 205.608 56.9131 205.048C57.8891 204.488 59.0011 204.208 60.2491 204.208C61.4811 204.208 62.5771 204.488 63.5371 205.048C64.5131 205.608 65.2731 206.376 65.8171 207.352C66.3771 208.328 66.6571 209.44 66.6571 210.688C66.6571 211.952 66.3771 213.08 65.8171 214.072C65.2731 215.064 64.5131 215.84 63.5371 216.4C62.5771 216.96 61.4811 217.24 60.2491 217.24ZM60.2491 215.536C61.1291 215.536 61.9131 215.328 62.6011 214.912C63.2891 214.48 63.8251 213.904 64.2091 213.184C64.5931 212.448 64.7851 211.616 64.7851 210.688C64.7851 209.76 64.5931 208.936 64.2091 208.216C63.8251 207.496 63.2891 206.936 62.6011 206.536C61.9131 206.12 61.1291 205.912 60.2491 205.912C59.3691 205.912 58.5771 206.12 57.8731 206.536C57.1851 206.936 56.6411 207.504 56.2411 208.24C55.8571 208.96 55.6731 209.776 55.6891 210.688C55.6731 211.616 55.8571 212.448 56.2411 213.184C56.6411 213.904 57.1851 214.48 57.8731 214.912C58.5771 215.328 59.3691 215.536 60.2491 215.536ZM73.7233 217.24C72.7633 217.24 71.9473 217.048 71.2753 216.664C70.6193 216.264 70.1153 215.688 69.7633 214.936C69.4273 214.184 69.2593 213.248 69.2593 212.128V204.472H71.0833V211.768C71.0833 212.616 71.1953 213.328 71.4193 213.904C71.6593 214.464 72.0113 214.888 72.4753 215.176C72.9553 215.464 73.5393 215.608 74.2273 215.608C74.7553 215.608 75.2433 215.52 75.6913 215.344C76.1393 215.152 76.5313 214.896 76.8673 214.576C77.2033 214.256 77.4673 213.88 77.6593 213.448C77.8513 213.016 77.9473 212.56 77.9473 212.08V204.472H79.7473V217H77.9713L77.8993 214.36L78.1873 214.216C77.9953 214.776 77.6753 215.288 77.2273 215.752C76.7793 216.2 76.2433 216.56 75.6193 216.832C75.0113 217.104 74.3793 217.24 73.7233 217.24ZM83.252 217V204.472H85.052L85.1 207.808L84.908 207.352C85.084 206.792 85.364 206.272 85.748 205.792C86.148 205.312 86.62 204.928 87.164 204.64C87.708 204.352 88.308 204.208 88.964 204.208C89.236 204.208 89.492 204.232 89.732 204.28C89.972 204.312 90.172 204.36 90.332 204.424L89.828 206.44C89.62 206.344 89.404 206.28 89.18 206.248C88.972 206.2 88.772 206.176 88.58 206.176C88.036 206.176 87.548 206.272 87.116 206.464C86.684 206.656 86.316 206.928 86.012 207.28C85.708 207.616 85.476 208.008 85.316 208.456C85.156 208.904 85.076 209.384 85.076 209.896V217H83.252ZM102.148 216.184V201.688L102.844 202.216L99.7237 204.088L99.1717 202.408L103.324 199.96H104.044V216.184H102.148ZM99.6757 217V215.176H106.564V217H99.6757Z" fill="#333333"/>
<path d="M236.912 187.24C235.68 187.24 234.536 187.024 233.48 186.592C232.424 186.16 231.496 185.56 230.696 184.792C229.896 184.024 229.272 183.12 228.824 182.08C228.392 181.024 228.176 179.88 228.176 178.648C228.176 177.416 228.392 176.28 228.824 175.24C229.272 174.184 229.88 173.272 230.648 172.504C231.432 171.736 232.344 171.144 233.384 170.728C234.44 170.296 235.568 170.08 236.768 170.08C237.616 170.08 238.448 170.2 239.264 170.44C240.096 170.68 240.848 171.016 241.52 171.448C242.192 171.88 242.736 172.368 243.152 172.912L241.904 174.184C241.456 173.72 240.952 173.32 240.392 172.984C239.832 172.648 239.24 172.384 238.616 172.192C238.008 172 237.4 171.904 236.792 171.904C235.848 171.904 234.968 172.072 234.152 172.408C233.352 172.744 232.648 173.216 232.04 173.824C231.432 174.416 230.96 175.128 230.624 175.96C230.288 176.776 230.12 177.672 230.12 178.648C230.12 179.592 230.288 180.48 230.624 181.312C230.976 182.128 231.464 182.848 232.088 183.472C232.728 184.08 233.464 184.552 234.296 184.888C235.128 185.224 236.024 185.392 236.984 185.392C237.736 185.392 238.44 185.28 239.096 185.056C239.768 184.832 240.352 184.52 240.848 184.12C241.344 183.704 241.728 183.224 242 182.68C242.272 182.136 242.408 181.552 242.408 180.928V180.088L242.792 180.568H236.888V178.72H244.28C244.296 178.848 244.312 179 244.328 179.176C244.344 179.336 244.352 179.504 244.352 179.68C244.368 179.84 244.376 179.992 244.376 180.136C244.376 181.176 244.184 182.136 243.8 183.016C243.416 183.88 242.88 184.632 242.192 185.272C241.52 185.896 240.736 186.384 239.84 186.736C238.944 187.072 237.968 187.24 236.912 187.24ZM247.08 187V174.472H248.88L248.928 177.808L248.736 177.352C248.912 176.792 249.192 176.272 249.576 175.792C249.976 175.312 250.448 174.928 250.992 174.64C251.536 174.352 252.136 174.208 252.792 174.208C253.064 174.208 253.32 174.232 253.56 174.28C253.8 174.312 254 174.36 254.16 174.424L253.656 176.44C253.448 176.344 253.232 176.28 253.008 176.248C252.8 176.2 252.6 176.176 252.408 176.176C251.864 176.176 251.376 176.272 250.944 176.464C250.512 176.656 250.144 176.928 249.84 177.28C249.536 177.616 249.304 178.008 249.144 178.456C248.984 178.904 248.904 179.384 248.904 179.896V187H247.08ZM260.39 187.24C259.302 187.24 258.318 186.96 257.438 186.4C256.558 185.824 255.862 185.048 255.35 184.072C254.838 183.08 254.582 181.96 254.582 180.712C254.582 179.448 254.846 178.328 255.374 177.352C255.902 176.376 256.606 175.608 257.486 175.048C258.382 174.488 259.382 174.208 260.486 174.208C261.142 174.208 261.75 174.304 262.31 174.496C262.87 174.688 263.366 174.96 263.798 175.312C264.246 175.648 264.614 176.048 264.902 176.512C265.206 176.96 265.414 177.448 265.526 177.976L264.998 177.712L265.07 174.472H266.87V187H265.046V183.928L265.526 183.616C265.414 184.096 265.198 184.56 264.878 185.008C264.558 185.44 264.166 185.824 263.702 186.16C263.254 186.496 262.742 186.76 262.166 186.952C261.606 187.144 261.014 187.24 260.39 187.24ZM260.798 185.512C261.63 185.512 262.374 185.312 263.03 184.912C263.686 184.496 264.198 183.928 264.566 183.208C264.95 182.472 265.142 181.64 265.142 180.712C265.142 179.784 264.95 178.96 264.566 178.24C264.198 177.52 263.686 176.952 263.03 176.536C262.374 176.12 261.63 175.912 260.798 175.912C259.95 175.912 259.198 176.12 258.542 176.536C257.902 176.952 257.39 177.52 257.006 178.24C256.638 178.96 256.454 179.784 256.454 180.712C256.454 181.624 256.638 182.448 257.006 183.184C257.374 183.904 257.886 184.472 258.542 184.888C259.198 185.304 259.95 185.512 260.798 185.512ZM275.465 187.24C274.329 187.24 273.305 186.96 272.393 186.4C271.497 185.84 270.785 185.072 270.257 184.096C269.745 183.104 269.489 181.984 269.489 180.736C269.489 179.472 269.753 178.352 270.281 177.376C270.809 176.384 271.521 175.608 272.417 175.048C273.313 174.488 274.321 174.208 275.441 174.208C276.065 174.208 276.665 174.304 277.241 174.496C277.833 174.688 278.361 174.96 278.825 175.312C279.289 175.648 279.673 176.04 279.977 176.488C280.281 176.92 280.465 177.376 280.529 177.856L279.977 177.664V169.24H281.777V187H280.001L279.953 183.88L280.409 183.712C280.345 184.16 280.161 184.6 279.857 185.032C279.569 185.448 279.201 185.824 278.753 186.16C278.305 186.496 277.793 186.76 277.217 186.952C276.657 187.144 276.073 187.24 275.465 187.24ZM275.729 185.584C276.561 185.584 277.305 185.376 277.961 184.96C278.617 184.544 279.129 183.968 279.497 183.232C279.881 182.496 280.073 181.656 280.073 180.712C280.073 179.768 279.881 178.936 279.497 178.216C279.129 177.48 278.617 176.904 277.961 176.488C277.305 176.056 276.561 175.84 275.729 175.84C274.865 175.84 274.105 176.056 273.449 176.488C272.809 176.904 272.297 177.48 271.913 178.216C271.545 178.936 271.361 179.768 271.361 180.712C271.361 181.64 271.545 182.472 271.913 183.208C272.281 183.944 272.793 184.528 273.449 184.96C274.105 185.376 274.865 185.584 275.729 185.584ZM285.763 187V174.472H287.563V187H285.763ZM286.651 171.76C286.203 171.76 285.859 171.648 285.619 171.424C285.395 171.184 285.283 170.864 285.283 170.464C285.283 170.064 285.403 169.744 285.643 169.504C285.883 169.264 286.219 169.144 286.651 169.144C287.083 169.144 287.419 169.264 287.659 169.504C287.899 169.728 288.019 170.048 288.019 170.464C288.019 170.848 287.899 171.16 287.659 171.4C287.419 171.64 287.083 171.76 286.651 171.76ZM297.014 187.24C295.766 187.24 294.654 186.968 293.678 186.424C292.718 185.88 291.966 185.12 291.422 184.144C290.878 183.168 290.606 182.048 290.606 180.784C290.606 179.808 290.758 178.928 291.062 178.144C291.366 177.344 291.79 176.648 292.334 176.056C292.894 175.464 293.558 175.008 294.326 174.688C295.094 174.352 295.926 174.184 296.822 174.184C297.67 174.184 298.438 174.336 299.126 174.64C299.83 174.944 300.43 175.368 300.926 175.912C301.438 176.44 301.822 177.072 302.078 177.808C302.334 178.544 302.446 179.352 302.414 180.232L302.39 181.072H291.95L291.686 179.56H301.022L300.59 179.968V179.392C300.558 178.816 300.39 178.264 300.086 177.736C299.782 177.192 299.35 176.752 298.79 176.416C298.246 176.08 297.59 175.912 296.822 175.912C295.926 175.912 295.15 176.096 294.494 176.464C293.838 176.816 293.334 177.344 292.982 178.048C292.63 178.752 292.454 179.624 292.454 180.664C292.454 181.656 292.646 182.52 293.03 183.256C293.414 183.976 293.958 184.536 294.662 184.936C295.382 185.336 296.246 185.536 297.254 185.536C297.846 185.536 298.43 185.44 299.006 185.248C299.598 185.04 300.246 184.64 300.95 184.048L301.886 185.344C301.518 185.712 301.078 186.04 300.566 186.328C300.054 186.6 299.494 186.824 298.886 187C298.278 187.16 297.654 187.24 297.014 187.24ZM304.971 187V174.472H306.747L306.819 177.088L306.531 177.208C306.691 176.664 307.003 176.168 307.467 175.72C307.931 175.272 308.483 174.912 309.123 174.64C309.779 174.352 310.451 174.208 311.139 174.208C312.067 174.208 312.843 174.392 313.467 174.76C314.091 175.128 314.563 175.696 314.883 176.464C315.203 177.232 315.363 178.208 315.363 179.392V187H313.539V179.488C313.539 178.656 313.427 177.976 313.203 177.448C312.995 176.904 312.667 176.504 312.219 176.248C311.771 175.992 311.219 175.872 310.563 175.888C310.019 175.888 309.515 175.984 309.051 176.176C308.587 176.352 308.187 176.6 307.851 176.92C307.515 177.24 307.251 177.608 307.059 178.024C306.867 178.44 306.771 178.888 306.771 179.368V187H305.883C305.771 187 305.643 187 305.499 187C305.355 187 305.179 187 304.971 187ZM320.527 187V171.184H322.327V187H320.527ZM317.695 176.2V174.472H325.495V176.2H317.695ZM236.432 217.24C235.232 217.24 234.128 217.032 233.12 216.616C232.112 216.184 231.24 215.584 230.504 214.816C229.768 214.032 229.192 213.112 228.776 212.056C228.376 211 228.176 209.848 228.176 208.6C228.176 207.368 228.376 206.24 228.776 205.216C229.192 204.176 229.776 203.272 230.528 202.504C231.28 201.72 232.152 201.12 233.144 200.704C234.136 200.288 235.224 200.08 236.408 200.08C237.192 200.08 237.968 200.208 238.736 200.464C239.504 200.704 240.208 201.04 240.848 201.472C241.504 201.904 242.04 202.4 242.456 202.96L241.16 204.304C240.76 203.824 240.296 203.408 239.768 203.056C239.256 202.704 238.712 202.432 238.136 202.24C237.56 202.048 236.984 201.952 236.408 201.952C235.512 201.952 234.672 202.12 233.888 202.456C233.12 202.776 232.456 203.232 231.896 203.824C231.336 204.416 230.896 205.12 230.576 205.936C230.272 206.752 230.12 207.64 230.12 208.6C230.12 209.592 230.272 210.504 230.576 211.336C230.896 212.168 231.344 212.888 231.92 213.496C232.512 214.088 233.2 214.552 233.984 214.888C234.784 215.208 235.672 215.368 236.648 215.368C237.224 215.368 237.8 215.288 238.376 215.128C238.952 214.952 239.48 214.712 239.96 214.408C240.44 214.104 240.848 213.76 241.184 213.376L242.144 214.936C241.776 215.384 241.28 215.784 240.656 216.136C240.048 216.472 239.376 216.744 238.64 216.952C237.904 217.144 237.168 217.24 236.432 217.24ZM250.515 217.24C249.267 217.24 248.155 216.96 247.179 216.4C246.219 215.84 245.459 215.064 244.899 214.072C244.355 213.08 244.083 211.952 244.083 210.688C244.083 209.44 244.355 208.328 244.899 207.352C245.459 206.376 246.219 205.608 247.179 205.048C248.155 204.488 249.267 204.208 250.515 204.208C251.747 204.208 252.843 204.488 253.803 205.048C254.779 205.608 255.539 206.376 256.083 207.352C256.643 208.328 256.923 209.44 256.923 210.688C256.923 211.952 256.643 213.08 256.083 214.072C255.539 215.064 254.779 215.84 253.803 216.4C252.843 216.96 251.747 217.24 250.515 217.24ZM250.515 215.536C251.395 215.536 252.179 215.328 252.867 214.912C253.555 214.48 254.091 213.904 254.475 213.184C254.859 212.448 255.051 211.616 255.051 210.688C255.051 209.76 254.859 208.936 254.475 208.216C254.091 207.496 253.555 206.936 252.867 206.536C252.179 206.12 251.395 205.912 250.515 205.912C249.635 205.912 248.843 206.12 248.139 206.536C247.451 206.936 246.907 207.504 246.507 208.24C246.123 208.96 245.939 209.776 245.955 210.688C245.939 211.616 246.123 212.448 246.507 213.184C246.907 213.904 247.451 214.48 248.139 214.912C248.843 215.328 249.635 215.536 250.515 215.536ZM259.597 217V199.24H261.397V217H259.597ZM270.249 217.24C269.001 217.24 267.889 216.96 266.913 216.4C265.953 215.84 265.193 215.064 264.633 214.072C264.089 213.08 263.817 211.952 263.817 210.688C263.817 209.44 264.089 208.328 264.633 207.352C265.193 206.376 265.953 205.608 266.913 205.048C267.889 204.488 269.001 204.208 270.249 204.208C271.481 204.208 272.577 204.488 273.537 205.048C274.513 205.608 275.273 206.376 275.817 207.352C276.377 208.328 276.657 209.44 276.657 210.688C276.657 211.952 276.377 213.08 275.817 214.072C275.273 215.064 274.513 215.84 273.537 216.4C272.577 216.96 271.481 217.24 270.249 217.24ZM270.249 215.536C271.129 215.536 271.913 215.328 272.601 214.912C273.289 214.48 273.825 213.904 274.209 213.184C274.593 212.448 274.785 211.616 274.785 210.688C274.785 209.76 274.593 208.936 274.209 208.216C273.825 207.496 273.289 206.936 272.601 206.536C271.913 206.12 271.129 205.912 270.249 205.912C269.369 205.912 268.577 206.12 267.873 206.536C267.185 206.936 266.641 207.504 266.241 208.24C265.857 208.96 265.673 209.776 265.689 210.688C265.673 211.616 265.857 212.448 266.241 213.184C266.641 213.904 267.185 214.48 267.873 214.912C268.577 215.328 269.369 215.536 270.249 215.536ZM283.723 217.24C282.763 217.24 281.947 217.048 281.275 216.664C280.619 216.264 280.115 215.688 279.763 214.936C279.427 214.184 279.259 213.248 279.259 212.128V204.472H281.083V211.768C281.083 212.616 281.195 213.328 281.419 213.904C281.659 214.464 282.011 214.888 282.475 215.176C282.955 215.464 283.539 215.608 284.227 215.608C284.755 215.608 285.243 215.52 285.691 215.344C286.139 215.152 286.531 214.896 286.867 214.576C287.203 214.256 287.467 213.88 287.659 213.448C287.851 213.016 287.947 212.56 287.947 212.08V204.472H289.747V217H287.971L287.899 214.36L288.187 214.216C287.995 214.776 287.675 215.288 287.227 215.752C286.779 216.2 286.243 216.56 285.619 216.832C285.011 217.104 284.379 217.24 283.723 217.24ZM293.252 217V204.472H295.052L295.1 207.808L294.908 207.352C295.084 206.792 295.364 206.272 295.748 205.792C296.148 205.312 296.62 204.928 297.164 204.64C297.708 204.352 298.308 204.208 298.964 204.208C299.236 204.208 299.492 204.232 299.732 204.28C299.972 204.312 300.172 204.36 300.332 204.424L299.828 206.44C299.62 206.344 299.404 206.28 299.18 206.248C298.972 206.2 298.772 206.176 298.58 206.176C298.036 206.176 297.548 206.272 297.116 206.464C296.684 206.656 296.316 206.928 296.012 207.28C295.708 207.616 295.476 208.008 295.316 208.456C295.156 208.904 295.076 209.384 295.076 209.896V217H293.252ZM309.412 217L308.836 215.608L314.5 209.248C314.772 208.944 315.052 208.6 315.34 208.216C315.644 207.832 315.924 207.432 316.18 207.016C316.452 206.584 316.668 206.16 316.828 205.744C316.988 205.328 317.068 204.92 317.068 204.52C317.068 203.928 316.94 203.432 316.684 203.032C316.428 202.616 316.06 202.296 315.58 202.072C315.116 201.848 314.572 201.736 313.948 201.736C313.404 201.736 312.868 201.864 312.34 202.12C311.812 202.376 311.332 202.768 310.9 203.296C310.468 203.824 310.132 204.496 309.892 205.312L308.404 204.424C308.692 203.448 309.116 202.632 309.676 201.976C310.236 201.304 310.9 200.8 311.668 200.464C312.436 200.128 313.26 199.96 314.14 199.96C315.068 199.96 315.9 200.152 316.636 200.536C317.372 200.904 317.956 201.432 318.388 202.12C318.82 202.792 319.036 203.568 319.036 204.448C319.036 204.832 318.988 205.216 318.892 205.6C318.812 205.984 318.684 206.368 318.508 206.752C318.332 207.136 318.116 207.528 317.86 207.928C317.62 208.328 317.332 208.736 316.996 209.152C316.676 209.568 316.316 210 315.916 210.448L311.092 215.824L310.804 215.2H319.564V217H309.412Z" fill="#333333"/>
<rect x="1.5" y="1.5" width="149" height="147" rx="38.5" fill="#7079D1" stroke="#333333" stroke-width="3"/>
<rect x="421.5" y="1.5" width="149" height="147" rx="38.5" fill="#545FD1" stroke="#333333" stroke-width="3"/>
<rect x="1.5" y="278.5" width="149" height="147" rx="38.5" fill="#2F3899" stroke="#333333" stroke-width="3"/>
<rect x="211.5" y="1.5" width="149" height="147" rx="38.5" fill="#FFFCFC" stroke="#333333" stroke-width="3"/>
<rect x="211.5" y="278.5" width="149" height="147" rx="38.5" fill="#D9D9D9" stroke="#333333" stroke-width="3"/>
</svg>
