<svg width="1728" height="1117" viewBox="0 0 1728 1117" fill="none" xmlns="http://www.w3.org/2000/svg">
<rect width="1728" height="1117" fill="#FAFAFA"/>
<path d="M1450.05 1051.3C1448.53 1051.3 1447.14 1051.04 1445.88 1050.52C1444.62 1050 1443.53 1049.26 1442.61 1048.3C1441.69 1047.32 1440.97 1046.17 1440.45 1044.85C1439.95 1043.51 1439.7 1042.05 1439.7 1040.47C1439.7 1038.95 1439.97 1037.54 1440.51 1036.24C1441.05 1034.94 1441.8 1033.8 1442.76 1032.82C1443.72 1031.84 1444.84 1031.08 1446.12 1030.54C1447.4 1030 1448.79 1029.73 1450.29 1029.73C1451.31 1029.73 1452.3 1029.88 1453.26 1030.18C1454.22 1030.48 1455.1 1030.9 1455.9 1031.44C1456.7 1031.96 1457.37 1032.57 1457.91 1033.27L1455.42 1036C1454.9 1035.46 1454.36 1035.01 1453.8 1034.65C1453.26 1034.27 1452.69 1033.99 1452.09 1033.81C1451.51 1033.61 1450.91 1033.51 1450.29 1033.51C1449.37 1033.51 1448.5 1033.68 1447.68 1034.02C1446.88 1034.36 1446.18 1034.84 1445.58 1035.46C1445 1036.08 1444.54 1036.82 1444.2 1037.68C1443.86 1038.52 1443.69 1039.46 1443.69 1040.5C1443.69 1041.56 1443.85 1042.52 1444.17 1043.38C1444.51 1044.24 1444.98 1044.98 1445.58 1045.6C1446.2 1046.22 1446.93 1046.7 1447.77 1047.04C1448.63 1047.36 1449.57 1047.52 1450.59 1047.52C1451.25 1047.52 1451.89 1047.43 1452.51 1047.25C1453.13 1047.07 1453.7 1046.82 1454.22 1046.5C1454.76 1046.16 1455.25 1045.77 1455.69 1045.33L1457.61 1048.42C1457.13 1048.96 1456.49 1049.45 1455.69 1049.89C1454.89 1050.33 1453.99 1050.68 1452.99 1050.94C1452.01 1051.18 1451.03 1051.3 1450.05 1051.3ZM1468.22 1051.3C1466.64 1051.3 1465.23 1050.95 1463.99 1050.25C1462.75 1049.53 1461.77 1048.55 1461.05 1047.31C1460.33 1046.07 1459.97 1044.66 1459.97 1043.08C1459.97 1041.5 1460.33 1040.09 1461.05 1038.85C1461.77 1037.61 1462.75 1036.64 1463.99 1035.94C1465.23 1035.22 1466.64 1034.86 1468.22 1034.86C1469.78 1034.86 1471.18 1035.22 1472.42 1035.94C1473.66 1036.64 1474.63 1037.61 1475.33 1038.85C1476.05 1040.09 1476.41 1041.5 1476.41 1043.08C1476.41 1044.66 1476.05 1046.07 1475.33 1047.31C1474.63 1048.55 1473.66 1049.53 1472.42 1050.25C1471.18 1050.95 1469.78 1051.3 1468.22 1051.3ZM1468.22 1048.03C1469.08 1048.03 1469.84 1047.81 1470.5 1047.37C1471.18 1046.93 1471.71 1046.34 1472.09 1045.6C1472.49 1044.86 1472.68 1044.02 1472.66 1043.08C1472.68 1042.12 1472.49 1041.27 1472.09 1040.53C1471.71 1039.79 1471.18 1039.21 1470.5 1038.79C1469.84 1038.35 1469.08 1038.13 1468.22 1038.13C1467.36 1038.13 1466.58 1038.35 1465.88 1038.79C1465.2 1039.21 1464.67 1039.8 1464.29 1040.56C1463.91 1041.3 1463.72 1042.14 1463.72 1043.08C1463.72 1044.02 1463.91 1044.86 1464.29 1045.6C1464.67 1046.34 1465.2 1046.93 1465.88 1047.37C1466.58 1047.81 1467.36 1048.03 1468.22 1048.03ZM1479.71 1051V1035.19H1483.31L1483.37 1038.43L1482.68 1038.79C1482.88 1038.07 1483.27 1037.42 1483.85 1036.84C1484.43 1036.24 1485.12 1035.76 1485.92 1035.4C1486.72 1035.04 1487.54 1034.86 1488.38 1034.86C1489.58 1034.86 1490.58 1035.1 1491.38 1035.58C1492.2 1036.06 1492.81 1036.78 1493.21 1037.74C1493.63 1038.7 1493.84 1039.9 1493.84 1041.34V1051H1490.15V1041.61C1490.15 1040.81 1490.04 1040.15 1489.82 1039.63C1489.6 1039.09 1489.26 1038.7 1488.8 1038.46C1488.34 1038.2 1487.78 1038.08 1487.12 1038.1C1486.58 1038.1 1486.08 1038.19 1485.62 1038.37C1485.18 1038.53 1484.79 1038.77 1484.45 1039.09C1484.13 1039.39 1483.87 1039.74 1483.67 1040.14C1483.49 1040.54 1483.4 1040.98 1483.4 1041.46V1051H1481.57C1481.21 1051 1480.87 1051 1480.55 1051C1480.25 1051 1479.97 1051 1479.71 1051ZM1499.7 1051V1031.17H1503.39V1051H1499.7ZM1496.58 1038.61V1035.19H1506.84V1038.61H1496.58ZM1510.07 1051V1035.19H1513.76V1051H1510.07ZM1511.87 1031.83C1511.13 1031.83 1510.55 1031.65 1510.13 1031.29C1509.73 1030.91 1509.53 1030.38 1509.53 1029.7C1509.53 1029.06 1509.74 1028.54 1510.16 1028.14C1510.58 1027.74 1511.15 1027.54 1511.87 1027.54C1512.63 1027.54 1513.21 1027.73 1513.61 1028.11C1514.03 1028.47 1514.24 1029 1514.24 1029.7C1514.24 1030.32 1514.03 1030.83 1513.61 1031.23C1513.19 1031.63 1512.61 1031.83 1511.87 1031.83ZM1518.44 1051V1035.19H1522.04L1522.1 1038.43L1521.41 1038.79C1521.61 1038.07 1522 1037.42 1522.58 1036.84C1523.16 1036.24 1523.85 1035.76 1524.65 1035.4C1525.45 1035.04 1526.27 1034.86 1527.11 1034.86C1528.31 1034.86 1529.31 1035.1 1530.11 1035.58C1530.93 1036.06 1531.54 1036.78 1531.94 1037.74C1532.36 1038.7 1532.57 1039.9 1532.57 1041.34V1051H1528.88V1041.61C1528.88 1040.81 1528.77 1040.15 1528.55 1039.63C1528.33 1039.09 1527.99 1038.7 1527.53 1038.46C1527.07 1038.2 1526.51 1038.08 1525.85 1038.1C1525.31 1038.1 1524.81 1038.19 1524.35 1038.37C1523.91 1038.53 1523.52 1038.77 1523.18 1039.09C1522.86 1039.39 1522.6 1039.74 1522.4 1040.14C1522.22 1040.54 1522.13 1040.98 1522.13 1041.46V1051H1520.3C1519.94 1051 1519.6 1051 1519.28 1051C1518.98 1051 1518.7 1051 1518.44 1051ZM1542.21 1051.3C1541.07 1051.3 1540.08 1051.05 1539.24 1050.55C1538.4 1050.03 1537.76 1049.3 1537.32 1048.36C1536.88 1047.4 1536.66 1046.26 1536.66 1044.94V1035.19H1540.35V1044.16C1540.35 1045 1540.48 1045.72 1540.74 1046.32C1541 1046.9 1541.38 1047.35 1541.88 1047.67C1542.38 1047.99 1542.98 1048.15 1543.68 1048.15C1544.2 1048.15 1544.67 1048.07 1545.09 1047.91C1545.53 1047.73 1545.91 1047.49 1546.23 1047.19C1546.55 1046.87 1546.8 1046.5 1546.98 1046.08C1547.16 1045.64 1547.25 1045.17 1547.25 1044.67V1035.19H1550.94V1051H1547.34L1547.28 1047.7L1547.94 1047.34C1547.7 1048.1 1547.29 1048.78 1546.71 1049.38C1546.15 1049.96 1545.48 1050.43 1544.7 1050.79C1543.92 1051.13 1543.09 1051.3 1542.21 1051.3ZM1562.67 1051.3C1561.01 1051.3 1559.54 1050.95 1558.26 1050.25C1557 1049.55 1556.01 1048.6 1555.29 1047.4C1554.59 1046.18 1554.24 1044.79 1554.24 1043.23C1554.24 1041.99 1554.44 1040.86 1554.84 1039.84C1555.24 1038.82 1555.79 1037.94 1556.49 1037.2C1557.21 1036.44 1558.06 1035.86 1559.04 1035.46C1560.04 1035.04 1561.13 1034.83 1562.31 1034.83C1563.35 1034.83 1564.32 1035.03 1565.22 1035.43C1566.12 1035.83 1566.9 1036.38 1567.56 1037.08C1568.22 1037.76 1568.72 1038.58 1569.06 1039.54C1569.42 1040.48 1569.59 1041.51 1569.57 1042.63L1569.54 1043.92H1556.73L1556.04 1041.4H1566.45L1565.97 1041.91V1041.25C1565.91 1040.63 1565.71 1040.09 1565.37 1039.63C1565.03 1039.15 1564.59 1038.78 1564.05 1038.52C1563.53 1038.24 1562.95 1038.1 1562.31 1038.1C1561.33 1038.1 1560.5 1038.29 1559.82 1038.67C1559.16 1039.05 1558.66 1039.6 1558.32 1040.32C1557.98 1041.02 1557.81 1041.9 1557.81 1042.96C1557.81 1043.98 1558.02 1044.87 1558.44 1045.63C1558.88 1046.39 1559.49 1046.98 1560.27 1047.4C1561.07 1047.8 1562 1048 1563.06 1048C1563.8 1048 1564.48 1047.88 1565.1 1047.64C1565.72 1047.4 1566.39 1046.97 1567.11 1046.35L1568.94 1048.9C1568.4 1049.4 1567.78 1049.83 1567.08 1050.19C1566.4 1050.53 1565.68 1050.8 1564.92 1051C1564.16 1051.2 1563.41 1051.3 1562.67 1051.3Z" fill="#2F3899"/>
<g filter="url(#filter0_d_77_999)">
<path d="M115.1 150C110.033 150 105.4 149.133 101.2 147.4C97 145.667 93.3667 143.2 90.3 140C87.2333 136.733 84.8333 132.9 83.1 128.5C81.4333 124.033 80.6 119.167 80.6 113.9C80.6 108.833 81.5 104.133 83.3 99.8C85.1 95.4667 87.6 91.6667 90.8 88.4C94 85.1333 97.7333 82.6 102 80.8C106.267 79 110.9 78.1 115.9 78.1C119.3 78.1 122.6 78.6 125.8 79.6C129 80.6 131.933 82 134.6 83.8C137.267 85.5333 139.5 87.5667 141.3 89.9L133 99C131.267 97.2 129.467 95.7 127.6 94.5C125.8 93.2333 123.9 92.3 121.9 91.7C119.967 91.0333 117.967 90.7 115.9 90.7C112.833 90.7 109.933 91.2667 107.2 92.4C104.533 93.5333 102.2 95.1333 100.2 97.2C98.2667 99.2667 96.7333 101.733 95.6 104.6C94.4667 107.4 93.9 110.533 93.9 114C93.9 117.533 94.4333 120.733 95.5 123.6C96.6333 126.467 98.2 128.933 100.2 131C102.267 133.067 104.7 134.667 107.5 135.8C110.367 136.867 113.5 137.4 116.9 137.4C119.1 137.4 121.233 137.1 123.3 136.5C125.367 135.9 127.267 135.067 129 134C130.8 132.867 132.433 131.567 133.9 130.1L140.3 140.4C138.7 142.2 136.567 143.833 133.9 145.3C131.233 146.767 128.233 147.933 124.9 148.8C121.633 149.6 118.367 150 115.1 150ZM169.859 150C166.059 150 162.759 149.167 159.959 147.5C157.159 145.767 155.026 143.333 153.559 140.2C152.093 137 151.359 133.2 151.359 128.8V96.3H163.659V126.2C163.659 129 164.093 131.4 164.959 133.4C165.826 135.333 167.093 136.833 168.759 137.9C170.426 138.967 172.426 139.5 174.759 139.5C176.493 139.5 178.059 139.233 179.459 138.7C180.926 138.1 182.193 137.3 183.259 136.3C184.326 135.233 185.159 134 185.759 132.6C186.359 131.133 186.659 129.567 186.659 127.9V96.3H198.959V149H186.959L186.759 138L188.959 136.8C188.159 139.333 186.793 141.6 184.859 143.6C182.993 145.533 180.759 147.1 178.159 148.3C175.559 149.433 172.793 150 169.859 150ZM230.976 150C226.309 150 222.109 149.233 218.376 147.7C214.709 146.1 211.709 143.833 209.376 140.9L217.376 134C219.376 136.267 221.609 137.9 224.076 138.9C226.542 139.9 229.142 140.4 231.876 140.4C233.009 140.4 234.009 140.267 234.876 140C235.809 139.733 236.609 139.333 237.276 138.8C237.942 138.267 238.442 137.667 238.776 137C239.176 136.267 239.376 135.467 239.376 134.6C239.376 133 238.776 131.733 237.576 130.8C236.909 130.333 235.842 129.833 234.376 129.3C232.976 128.767 231.142 128.233 228.876 127.7C225.276 126.767 222.276 125.7 219.876 124.5C217.476 123.233 215.609 121.833 214.276 120.3C213.142 119.033 212.276 117.6 211.676 116C211.142 114.4 210.876 112.667 210.876 110.8C210.876 108.467 211.376 106.367 212.376 104.5C213.442 102.567 214.876 100.9 216.676 99.5C218.476 98.1 220.576 97.0333 222.976 96.3C225.376 95.5667 227.876 95.2 230.476 95.2C233.142 95.2 235.709 95.5333 238.176 96.2C240.709 96.8667 243.042 97.8333 245.176 99.1C247.376 100.3 249.242 101.767 250.776 103.5L243.976 111C242.709 109.8 241.309 108.733 239.776 107.8C238.309 106.867 236.809 106.133 235.276 105.6C233.742 105 232.309 104.7 230.976 104.7C229.709 104.7 228.576 104.833 227.576 105.1C226.576 105.3 225.742 105.633 225.076 106.1C224.409 106.567 223.876 107.167 223.476 107.9C223.142 108.567 222.976 109.367 222.976 110.3C223.042 111.1 223.242 111.867 223.576 112.6C223.976 113.267 224.509 113.833 225.176 114.3C225.909 114.767 227.009 115.3 228.476 115.9C229.942 116.5 231.842 117.067 234.176 117.6C237.442 118.467 240.176 119.433 242.376 120.5C244.576 121.567 246.309 122.8 247.576 124.2C248.842 125.4 249.742 126.8 250.276 128.4C250.809 130 251.076 131.767 251.076 133.7C251.076 136.833 250.176 139.633 248.376 142.1C246.642 144.567 244.242 146.5 241.176 147.9C238.176 149.3 234.776 150 230.976 150ZM267.611 149V82.9H279.911V149H267.611ZM257.211 107.7V96.3H291.411V107.7H257.211ZM324.39 150C319.123 150 314.423 148.833 310.29 146.5C306.157 144.1 302.89 140.833 300.49 136.7C298.09 132.567 296.89 127.867 296.89 122.6C296.89 117.333 298.09 112.633 300.49 108.5C302.89 104.367 306.157 101.133 310.29 98.8C314.423 96.4 319.123 95.2 324.39 95.2C329.59 95.2 334.257 96.4 338.39 98.8C342.523 101.133 345.757 104.367 348.09 108.5C350.49 112.633 351.69 117.333 351.69 122.6C351.69 127.867 350.49 132.567 348.09 136.7C345.757 140.833 342.523 144.1 338.39 146.5C334.257 148.833 329.59 150 324.39 150ZM324.39 139.1C327.257 139.1 329.79 138.367 331.99 136.9C334.257 135.433 336.023 133.467 337.29 131C338.623 128.533 339.257 125.733 339.19 122.6C339.257 119.4 338.623 116.567 337.29 114.1C336.023 111.633 334.257 109.7 331.99 108.3C329.79 106.833 327.257 106.1 324.39 106.1C321.523 106.1 318.923 106.833 316.59 108.3C314.323 109.7 312.557 111.667 311.29 114.2C310.023 116.667 309.39 119.467 309.39 122.6C309.39 125.733 310.023 128.533 311.29 131C312.557 133.467 314.323 135.433 316.59 136.9C318.923 138.367 321.523 139.1 324.39 139.1ZM362.492 149V96.3H374.592L374.792 106.9L372.792 107.7C373.392 105.967 374.292 104.367 375.492 102.9C376.692 101.367 378.126 100.067 379.792 99C381.459 97.8667 383.226 97 385.092 96.4C386.959 95.7333 388.859 95.4 390.792 95.4C393.659 95.4 396.192 95.8667 398.392 96.8C400.659 97.6667 402.526 99.0667 403.992 101C405.526 102.933 406.659 105.4 407.392 108.4L405.492 108L406.292 106.4C407.026 104.8 408.059 103.367 409.392 102.1C410.726 100.767 412.226 99.6 413.892 98.6C415.559 97.5333 417.292 96.7333 419.092 96.2C420.959 95.6667 422.792 95.4 424.592 95.4C428.592 95.4 431.926 96.2 434.592 97.8C437.259 99.4 439.259 101.833 440.592 105.1C441.926 108.367 442.592 112.4 442.592 117.2V149H430.192V118C430.192 115.333 429.826 113.133 429.092 111.4C428.426 109.667 427.359 108.4 425.892 107.6C424.492 106.733 422.726 106.3 420.592 106.3C418.926 106.3 417.326 106.6 415.792 107.2C414.326 107.733 413.059 108.533 411.992 109.6C410.926 110.6 410.092 111.767 409.492 113.1C408.892 114.433 408.592 115.9 408.592 117.5V149H396.192V117.9C396.192 115.367 395.826 113.267 395.092 111.6C394.359 109.867 393.292 108.567 391.892 107.7C390.492 106.767 388.792 106.3 386.792 106.3C385.126 106.3 383.559 106.6 382.092 107.2C380.626 107.733 379.359 108.5 378.292 109.5C377.226 110.5 376.392 111.667 375.792 113C375.192 114.333 374.892 115.8 374.892 117.4V149H362.492ZM457.647 149V96.3H469.947V149H457.647ZM463.647 85.1C461.18 85.1 459.247 84.5 457.847 83.3C456.514 82.0333 455.847 80.2667 455.847 78C455.847 75.8667 456.547 74.1333 457.947 72.8C459.347 71.4667 461.247 70.8 463.647 70.8C466.18 70.8 468.114 71.4333 469.447 72.7C470.847 73.9 471.547 75.6667 471.547 78C471.547 80.0667 470.847 81.7667 469.447 83.1C468.047 84.4333 466.114 85.1 463.647 85.1ZM483.344 149V140.2L510.844 104V106.6H483.344V96.3H523.644V105.1L496.944 140.6L496.544 138.7H524.344V149H483.344ZM559.951 150C554.417 150 549.517 148.833 545.251 146.5C541.051 144.167 537.751 141 535.351 137C533.017 132.933 531.851 128.3 531.851 123.1C531.851 118.967 532.517 115.2 533.851 111.8C535.184 108.4 537.017 105.467 539.351 103C541.751 100.467 544.584 98.5333 547.851 97.2C551.184 95.8 554.817 95.1 558.751 95.1C562.217 95.1 565.451 95.7667 568.451 97.1C571.451 98.4333 574.051 100.267 576.251 102.6C578.451 104.867 580.117 107.6 581.251 110.8C582.451 113.933 583.017 117.367 582.951 121.1L582.851 125.4H540.151L537.851 117H572.551L570.951 118.7V116.5C570.751 114.433 570.084 112.633 568.951 111.1C567.817 109.5 566.351 108.267 564.551 107.4C562.817 106.467 560.884 106 558.751 106C555.484 106 552.717 106.633 550.451 107.9C548.251 109.167 546.584 111 545.451 113.4C544.317 115.733 543.751 118.667 543.751 122.2C543.751 125.6 544.451 128.567 545.851 131.1C547.317 133.633 549.351 135.6 551.951 137C554.617 138.333 557.717 139 561.251 139C563.717 139 565.984 138.6 568.051 137.8C570.117 137 572.351 135.567 574.751 133.5L580.851 142C579.051 143.667 576.984 145.1 574.651 146.3C572.384 147.433 569.984 148.333 567.451 149C564.917 149.667 562.417 150 559.951 150ZM104 274V239.1L104.7 244L76.4 204H91.6L113.2 235L108.5 234.7L128 204H142.6L115.5 245.1L117 238.3V274H104ZM166.284 275C161.018 275 156.318 273.833 152.184 271.5C148.051 269.1 144.784 265.833 142.384 261.7C139.984 257.567 138.784 252.867 138.784 247.6C138.784 242.333 139.984 237.633 142.384 233.5C144.784 229.367 148.051 226.133 152.184 223.8C156.318 221.4 161.018 220.2 166.284 220.2C171.484 220.2 176.151 221.4 180.284 223.8C184.418 226.133 187.651 229.367 189.984 233.5C192.384 237.633 193.584 242.333 193.584 247.6C193.584 252.867 192.384 257.567 189.984 261.7C187.651 265.833 184.418 269.1 180.284 271.5C176.151 273.833 171.484 275 166.284 275ZM166.284 264.1C169.151 264.1 171.684 263.367 173.884 261.9C176.151 260.433 177.918 258.467 179.184 256C180.518 253.533 181.151 250.733 181.084 247.6C181.151 244.4 180.518 241.567 179.184 239.1C177.918 236.633 176.151 234.7 173.884 233.3C171.684 231.833 169.151 231.1 166.284 231.1C163.418 231.1 160.818 231.833 158.484 233.3C156.218 234.7 154.451 236.667 153.184 239.2C151.918 241.667 151.284 244.467 151.284 247.6C151.284 250.733 151.918 253.533 153.184 256C154.451 258.467 156.218 260.433 158.484 261.9C160.818 263.367 163.418 264.1 166.284 264.1ZM222.887 275C219.087 275 215.787 274.167 212.987 272.5C210.187 270.767 208.053 268.333 206.587 265.2C205.12 262 204.387 258.2 204.387 253.8V221.3H216.687V251.2C216.687 254 217.12 256.4 217.987 258.4C218.853 260.333 220.12 261.833 221.787 262.9C223.453 263.967 225.453 264.5 227.787 264.5C229.52 264.5 231.087 264.233 232.487 263.7C233.953 263.1 235.22 262.3 236.287 261.3C237.353 260.233 238.187 259 238.787 257.6C239.387 256.133 239.687 254.567 239.687 252.9V221.3H251.987V274H239.987L239.787 263L241.987 261.8C241.187 264.333 239.82 266.6 237.887 268.6C236.02 270.533 233.787 272.1 231.187 273.3C228.587 274.433 225.82 275 222.887 275ZM266.403 274V221.3H278.503L278.703 238.1L277.003 234.3C277.736 231.633 279.003 229.233 280.803 227.1C282.603 224.967 284.67 223.3 287.003 222.1C289.403 220.833 291.903 220.2 294.503 220.2C295.636 220.2 296.703 220.3 297.703 220.5C298.77 220.7 299.636 220.933 300.303 221.2L297.003 234.7C296.27 234.3 295.37 233.967 294.303 233.7C293.236 233.433 292.17 233.3 291.103 233.3C289.436 233.3 287.836 233.633 286.303 234.3C284.836 234.9 283.536 235.767 282.403 236.9C281.27 238.033 280.37 239.367 279.703 240.9C279.103 242.367 278.803 244.033 278.803 245.9V274H266.403ZM340.088 274V204H353.088V262H385.388V274H340.088ZM420.791 275C415.257 275 410.357 273.833 406.091 271.5C401.891 269.167 398.591 266 396.191 262C393.857 257.933 392.691 253.3 392.691 248.1C392.691 243.967 393.357 240.2 394.691 236.8C396.024 233.4 397.857 230.467 400.191 228C402.591 225.467 405.424 223.533 408.691 222.2C412.024 220.8 415.657 220.1 419.591 220.1C423.057 220.1 426.291 220.767 429.291 222.1C432.291 223.433 434.891 225.267 437.091 227.6C439.291 229.867 440.957 232.6 442.091 235.8C443.291 238.933 443.857 242.367 443.791 246.1L443.691 250.4H400.991L398.691 242H433.391L431.791 243.7V241.5C431.591 239.433 430.924 237.633 429.791 236.1C428.657 234.5 427.191 233.267 425.391 232.4C423.657 231.467 421.724 231 419.591 231C416.324 231 413.557 231.633 411.291 232.9C409.091 234.167 407.424 236 406.291 238.4C405.157 240.733 404.591 243.667 404.591 247.2C404.591 250.6 405.291 253.567 406.691 256.1C408.157 258.633 410.191 260.6 412.791 262C415.457 263.333 418.557 264 422.091 264C424.557 264 426.824 263.6 428.891 262.8C430.957 262 433.191 260.567 435.591 258.5L441.691 267C439.891 268.667 437.824 270.1 435.491 271.3C433.224 272.433 430.824 273.333 428.291 274C425.757 274.667 423.257 275 420.791 275ZM472.284 275C467.618 275 463.418 274.233 459.684 272.7C456.018 271.1 453.018 268.833 450.684 265.9L458.684 259C460.684 261.267 462.918 262.9 465.384 263.9C467.851 264.9 470.451 265.4 473.184 265.4C474.318 265.4 475.318 265.267 476.184 265C477.118 264.733 477.918 264.333 478.584 263.8C479.251 263.267 479.751 262.667 480.084 262C480.484 261.267 480.684 260.467 480.684 259.6C480.684 258 480.084 256.733 478.884 255.8C478.218 255.333 477.151 254.833 475.684 254.3C474.284 253.767 472.451 253.233 470.184 252.7C466.584 251.767 463.584 250.7 461.184 249.5C458.784 248.233 456.918 246.833 455.584 245.3C454.451 244.033 453.584 242.6 452.984 241C452.451 239.4 452.184 237.667 452.184 235.8C452.184 233.467 452.684 231.367 453.684 229.5C454.751 227.567 456.184 225.9 457.984 224.5C459.784 223.1 461.884 222.033 464.284 221.3C466.684 220.567 469.184 220.2 471.784 220.2C474.451 220.2 477.018 220.533 479.484 221.2C482.018 221.867 484.351 222.833 486.484 224.1C488.684 225.3 490.551 226.767 492.084 228.5L485.284 236C484.018 234.8 482.618 233.733 481.084 232.8C479.618 231.867 478.118 231.133 476.584 230.6C475.051 230 473.618 229.7 472.284 229.7C471.018 229.7 469.884 229.833 468.884 230.1C467.884 230.3 467.051 230.633 466.384 231.1C465.718 231.567 465.184 232.167 464.784 232.9C464.451 233.567 464.284 234.367 464.284 235.3C464.351 236.1 464.551 236.867 464.884 237.6C465.284 238.267 465.818 238.833 466.484 239.3C467.218 239.767 468.318 240.3 469.784 240.9C471.251 241.5 473.151 242.067 475.484 242.6C478.751 243.467 481.484 244.433 483.684 245.5C485.884 246.567 487.618 247.8 488.884 249.2C490.151 250.4 491.051 251.8 491.584 253.4C492.118 255 492.384 256.767 492.384 258.7C492.384 261.833 491.484 264.633 489.684 267.1C487.951 269.567 485.551 271.5 482.484 272.9C479.484 274.3 476.084 275 472.284 275ZM520.82 275C516.153 275 511.953 274.233 508.22 272.7C504.553 271.1 501.553 268.833 499.22 265.9L507.22 259C509.22 261.267 511.453 262.9 513.92 263.9C516.386 264.9 518.986 265.4 521.72 265.4C522.853 265.4 523.853 265.267 524.72 265C525.653 264.733 526.453 264.333 527.12 263.8C527.786 263.267 528.286 262.667 528.62 262C529.02 261.267 529.22 260.467 529.22 259.6C529.22 258 528.62 256.733 527.42 255.8C526.753 255.333 525.686 254.833 524.22 254.3C522.82 253.767 520.986 253.233 518.72 252.7C515.12 251.767 512.12 250.7 509.72 249.5C507.32 248.233 505.453 246.833 504.12 245.3C502.986 244.033 502.12 242.6 501.52 241C500.986 239.4 500.72 237.667 500.72 235.8C500.72 233.467 501.22 231.367 502.22 229.5C503.286 227.567 504.72 225.9 506.52 224.5C508.32 223.1 510.42 222.033 512.82 221.3C515.22 220.567 517.72 220.2 520.32 220.2C522.986 220.2 525.553 220.533 528.02 221.2C530.553 221.867 532.886 222.833 535.02 224.1C537.22 225.3 539.086 226.767 540.62 228.5L533.82 236C532.553 234.8 531.153 233.733 529.62 232.8C528.153 231.867 526.653 231.133 525.12 230.6C523.586 230 522.153 229.7 520.82 229.7C519.553 229.7 518.42 229.833 517.42 230.1C516.42 230.3 515.586 230.633 514.92 231.1C514.253 231.567 513.72 232.167 513.32 232.9C512.986 233.567 512.82 234.367 512.82 235.3C512.886 236.1 513.086 236.867 513.42 237.6C513.82 238.267 514.353 238.833 515.02 239.3C515.753 239.767 516.853 240.3 518.32 240.9C519.786 241.5 521.686 242.067 524.02 242.6C527.286 243.467 530.02 244.433 532.22 245.5C534.42 246.567 536.153 247.8 537.42 249.2C538.686 250.4 539.586 251.8 540.12 253.4C540.653 255 540.92 256.767 540.92 258.7C540.92 261.833 540.02 264.633 538.22 267.1C536.486 269.567 534.086 271.5 531.02 272.9C528.02 274.3 524.62 275 520.82 275ZM575.855 275C570.588 275 565.888 273.833 561.755 271.5C557.621 269.1 554.355 265.833 551.955 261.7C549.555 257.567 548.355 252.867 548.355 247.6C548.355 242.333 549.555 237.633 551.955 233.5C554.355 229.367 557.621 226.133 561.755 223.8C565.888 221.4 570.588 220.2 575.855 220.2C581.055 220.2 585.721 221.4 589.855 223.8C593.988 226.133 597.221 229.367 599.555 233.5C601.955 237.633 603.155 242.333 603.155 247.6C603.155 252.867 601.955 257.567 599.555 261.7C597.221 265.833 593.988 269.1 589.855 271.5C585.721 273.833 581.055 275 575.855 275ZM575.855 264.1C578.721 264.1 581.255 263.367 583.455 261.9C585.721 260.433 587.488 258.467 588.755 256C590.088 253.533 590.721 250.733 590.655 247.6C590.721 244.4 590.088 241.567 588.755 239.1C587.488 236.633 585.721 234.7 583.455 233.3C581.255 231.833 578.721 231.1 575.855 231.1C572.988 231.1 570.388 231.833 568.055 233.3C565.788 234.7 564.021 236.667 562.755 239.2C561.488 241.667 560.855 244.467 560.855 247.6C560.855 250.733 561.488 253.533 562.755 256C564.021 258.467 565.788 260.433 568.055 261.9C570.388 263.367 572.988 264.1 575.855 264.1ZM614.157 274V221.3H626.157L626.357 232.1L624.057 233.3C624.724 230.9 626.024 228.733 627.957 226.8C629.89 224.8 632.19 223.2 634.857 222C637.524 220.8 640.257 220.2 643.057 220.2C647.057 220.2 650.39 221 653.057 222.6C655.79 224.2 657.824 226.6 659.157 229.8C660.557 233 661.257 237 661.257 241.8V274H648.957V242.7C648.957 240.033 648.59 237.833 647.857 236.1C647.124 234.3 645.99 233 644.457 232.2C642.924 231.333 641.057 230.933 638.857 231C637.057 231 635.39 231.3 633.857 231.9C632.39 232.433 631.09 233.233 629.957 234.3C628.89 235.3 628.024 236.467 627.357 237.8C626.757 239.133 626.457 240.6 626.457 242.2V274H620.357C619.157 274 618.024 274 616.957 274C615.957 274 615.024 274 614.157 274ZM85.4 399V329H114.5C118.5 329 122.1 329.967 125.3 331.9C128.567 333.833 131.167 336.467 133.1 339.8C135.033 343.133 136 346.867 136 351C136 355.2 135.033 359 133.1 362.4C131.167 365.733 128.567 368.4 125.3 370.4C122.1 372.4 118.5 373.4 114.5 373.4H98.4V399H85.4ZM98.4 361.4H113.6C115.267 361.4 116.767 360.933 118.1 360C119.5 359.067 120.6 357.833 121.4 356.3C122.267 354.767 122.7 353.033 122.7 351.1C122.7 349.167 122.267 347.467 121.4 346C120.6 344.467 119.5 343.267 118.1 342.4C116.767 341.467 115.267 341 113.6 341H98.4V361.4ZM147.655 399V325H160.055V399H147.655ZM193.432 400C189.099 400 185.165 398.8 181.632 396.4C178.099 394 175.265 390.733 173.132 386.6C170.999 382.467 169.932 377.767 169.932 372.5C169.932 367.233 170.999 362.533 173.132 358.4C175.265 354.267 178.165 351.033 181.832 348.7C185.499 346.367 189.632 345.2 194.232 345.2C196.899 345.2 199.332 345.6 201.532 346.4C203.732 347.133 205.665 348.2 207.332 349.6C208.999 351 210.365 352.6 211.432 354.4C212.565 356.2 213.332 358.133 213.732 360.2L211.032 359.5V346.3H223.432V399H210.932V386.4L213.832 385.9C213.365 387.7 212.499 389.467 211.232 391.2C210.032 392.867 208.499 394.367 206.632 395.7C204.832 396.967 202.799 398 200.532 398.8C198.332 399.6 195.965 400 193.432 400ZM196.832 389.1C199.699 389.1 202.232 388.4 204.432 387C206.632 385.6 208.332 383.667 209.532 381.2C210.799 378.667 211.432 375.767 211.432 372.5C211.432 369.3 210.799 366.467 209.532 364C208.332 361.533 206.632 359.6 204.432 358.2C202.232 356.8 199.699 356.1 196.832 356.1C193.965 356.1 191.432 356.8 189.232 358.2C187.099 359.6 185.432 361.533 184.232 364C183.032 366.467 182.432 369.3 182.432 372.5C182.432 375.767 183.032 378.667 184.232 381.2C185.432 383.667 187.099 385.6 189.232 387C191.432 388.4 193.965 389.1 196.832 389.1ZM237.692 399V346.3H249.692L249.892 357.1L247.592 358.3C248.259 355.9 249.559 353.733 251.492 351.8C253.426 349.8 255.726 348.2 258.392 347C261.059 345.8 263.792 345.2 266.592 345.2C270.592 345.2 273.926 346 276.592 347.6C279.326 349.2 281.359 351.6 282.692 354.8C284.092 358 284.792 362 284.792 366.8V399H272.492V367.7C272.492 365.033 272.126 362.833 271.392 361.1C270.659 359.3 269.526 358 267.992 357.2C266.459 356.333 264.592 355.933 262.392 356C260.592 356 258.926 356.3 257.392 356.9C255.926 357.433 254.626 358.233 253.492 359.3C252.426 360.3 251.559 361.467 250.892 362.8C250.292 364.133 249.992 365.6 249.992 367.2V399H243.892C242.692 399 241.559 399 240.492 399C239.492 399 238.559 399 237.692 399ZM316.23 400C311.563 400 307.363 399.233 303.63 397.7C299.963 396.1 296.963 393.833 294.63 390.9L302.63 384C304.63 386.267 306.863 387.9 309.33 388.9C311.796 389.9 314.396 390.4 317.13 390.4C318.263 390.4 319.263 390.267 320.13 390C321.063 389.733 321.863 389.333 322.53 388.8C323.196 388.267 323.696 387.667 324.03 387C324.43 386.267 324.63 385.467 324.63 384.6C324.63 383 324.03 381.733 322.83 380.8C322.163 380.333 321.096 379.833 319.63 379.3C318.23 378.767 316.396 378.233 314.13 377.7C310.53 376.767 307.53 375.7 305.13 374.5C302.73 373.233 300.863 371.833 299.53 370.3C298.396 369.033 297.53 367.6 296.93 366C296.396 364.4 296.13 362.667 296.13 360.8C296.13 358.467 296.63 356.367 297.63 354.5C298.696 352.567 300.13 350.9 301.93 349.5C303.73 348.1 305.83 347.033 308.23 346.3C310.63 345.567 313.13 345.2 315.73 345.2C318.396 345.2 320.963 345.533 323.43 346.2C325.963 346.867 328.296 347.833 330.43 349.1C332.63 350.3 334.496 351.767 336.03 353.5L329.23 361C327.963 359.8 326.563 358.733 325.03 357.8C323.563 356.867 322.063 356.133 320.53 355.6C318.996 355 317.563 354.7 316.23 354.7C314.963 354.7 313.83 354.833 312.83 355.1C311.83 355.3 310.996 355.633 310.33 356.1C309.663 356.567 309.13 357.167 308.73 357.9C308.396 358.567 308.23 359.367 308.23 360.3C308.296 361.1 308.496 361.867 308.83 362.6C309.23 363.267 309.763 363.833 310.43 364.3C311.163 364.767 312.263 365.3 313.73 365.9C315.196 366.5 317.096 367.067 319.43 367.6C322.696 368.467 325.43 369.433 327.63 370.5C329.83 371.567 331.563 372.8 332.83 374.2C334.096 375.4 334.996 376.8 335.53 378.4C336.063 380 336.33 381.767 336.33 383.7C336.33 386.833 335.43 389.633 333.63 392.1C331.896 394.567 329.496 396.5 326.43 397.9C323.43 399.3 320.03 400 316.23 400Z" fill="#2F3899"/>
</g>
<line x1="120" y1="796" x2="1619" y2="796" stroke="black" stroke-width="4"/>
<line x1="116" y1="859.033" x2="116" y2="738.967" stroke="black" stroke-width="4"/>
<line x1="1617" y1="858.066" x2="1617" y2="738" stroke="black" stroke-width="4"/>
<path d="M118.001 625C103.71 625 92 636.631 92 650.827C92 656.327 93.7635 661.439 96.7483 665.641L114.828 696.775C117.36 700.071 119.044 699.445 121.15 696.601L141.09 662.796C141.493 662.07 141.809 661.297 142.084 660.508C143.35 657.436 144 654.148 144 650.827C144 636.631 132.293 625 118.001 625ZM118.001 637.102C125.697 637.102 131.816 643.183 131.816 650.827C131.816 658.472 125.697 664.55 118.001 664.55C110.305 664.55 104.184 658.471 104.184 650.827C104.184 643.183 110.305 637.102 118.001 637.102H118.001Z" fill="#7079D1"/>
<path d="M76.64 988L87.56 960H92.44L103.28 988H97.88L91.88 972.08C91.7467 971.76 91.56 971.253 91.32 970.56C91.1067 969.867 90.8667 969.12 90.6 968.32C90.3333 967.493 90.0933 966.733 89.88 966.04C89.6667 965.32 89.5067 964.8 89.4 964.48L90.4 964.44C90.24 964.973 90.0533 965.573 89.84 966.24C89.6267 966.907 89.4 967.6 89.16 968.32C88.92 969.04 88.68 969.733 88.44 970.4C88.2267 971.067 88.0267 971.667 87.84 972.2L81.84 988H76.64ZM81.6 981.6L83.4 977.08H96.16L98.08 981.6H81.6ZM114.508 988.4C112.642 988.4 110.962 987.933 109.468 987C108.002 986.04 106.828 984.747 105.948 983.12C105.095 981.467 104.668 979.573 104.668 977.44C104.668 975.333 105.095 973.453 105.948 971.8C106.802 970.147 107.962 968.853 109.428 967.92C110.922 966.96 112.602 966.48 114.468 966.48C115.482 966.48 116.455 966.64 117.388 966.96C118.348 967.28 119.202 967.72 119.948 968.28C120.695 968.813 121.282 969.413 121.708 970.08C122.162 970.747 122.415 971.44 122.468 972.16L121.148 972.32V958.4H126.068V988H121.308L121.188 983.04L122.148 983.12C122.122 983.787 121.882 984.427 121.428 985.04C121.002 985.653 120.442 986.213 119.748 986.72C119.055 987.227 118.242 987.64 117.308 987.96C116.402 988.253 115.468 988.4 114.508 988.4ZM115.468 984.24C116.615 984.24 117.628 983.947 118.508 983.36C119.388 982.773 120.068 981.973 120.548 980.96C121.055 979.947 121.308 978.773 121.308 977.44C121.308 976.133 121.055 974.973 120.548 973.96C120.068 972.92 119.388 972.12 118.508 971.56C117.628 970.973 116.615 970.68 115.468 970.68C114.322 970.68 113.308 970.973 112.428 971.56C111.548 972.12 110.855 972.92 110.348 973.96C109.868 974.973 109.628 976.133 109.628 977.44C109.628 978.773 109.868 979.947 110.348 980.96C110.855 981.973 111.548 982.773 112.428 983.36C113.308 983.947 114.322 984.24 115.468 984.24ZM140.133 988.4C138.267 988.4 136.587 987.933 135.093 987C133.627 986.04 132.453 984.747 131.573 983.12C130.72 981.467 130.293 979.573 130.293 977.44C130.293 975.333 130.72 973.453 131.573 971.8C132.427 970.147 133.587 968.853 135.053 967.92C136.547 966.96 138.227 966.48 140.093 966.48C141.107 966.48 142.08 966.64 143.013 966.96C143.973 967.28 144.827 967.72 145.573 968.28C146.32 968.813 146.907 969.413 147.333 970.08C147.787 970.747 148.04 971.44 148.093 972.16L146.773 972.32V958.4H151.693V988H146.933L146.813 983.04L147.773 983.12C147.747 983.787 147.507 984.427 147.053 985.04C146.627 985.653 146.067 986.213 145.373 986.72C144.68 987.227 143.867 987.64 142.933 987.96C142.027 988.253 141.093 988.4 140.133 988.4ZM141.093 984.24C142.24 984.24 143.253 983.947 144.133 983.36C145.013 982.773 145.693 981.973 146.173 980.96C146.68 979.947 146.933 978.773 146.933 977.44C146.933 976.133 146.68 974.973 146.173 973.96C145.693 972.92 145.013 972.12 144.133 971.56C143.253 970.973 142.24 970.68 141.093 970.68C139.947 970.68 138.933 970.973 138.053 971.56C137.173 972.12 136.48 972.92 135.973 973.96C135.493 974.973 135.253 976.133 135.253 977.44C135.253 978.773 135.493 979.947 135.973 980.96C136.48 981.973 137.173 982.773 138.053 983.36C138.933 983.947 139.947 984.24 141.093 984.24ZM175.516 988V964.8H167.516V960H188.956V964.8H180.716V988H175.516ZM193.737 988V966.92H198.657V988H193.737ZM196.137 962.44C195.15 962.44 194.377 962.2 193.817 961.72C193.284 961.213 193.017 960.507 193.017 959.6C193.017 958.747 193.297 958.053 193.857 957.52C194.417 956.987 195.177 956.72 196.137 956.72C197.15 956.72 197.924 956.973 198.457 957.48C199.017 957.96 199.297 958.667 199.297 959.6C199.297 960.427 199.017 961.107 198.457 961.64C197.897 962.173 197.124 962.44 196.137 962.44ZM204.816 988V966.92H209.656L209.736 971.16L208.936 971.48C209.176 970.787 209.536 970.147 210.016 969.56C210.496 968.947 211.069 968.427 211.736 968C212.402 967.547 213.109 967.2 213.856 966.96C214.602 966.693 215.362 966.56 216.136 966.56C217.282 966.56 218.296 966.747 219.176 967.12C220.082 967.467 220.829 968.027 221.416 968.8C222.029 969.573 222.482 970.56 222.776 971.76L222.016 971.6L222.336 970.96C222.629 970.32 223.042 969.747 223.576 969.24C224.109 968.707 224.709 968.24 225.376 967.84C226.042 967.413 226.736 967.093 227.456 966.88C228.202 966.667 228.936 966.56 229.656 966.56C231.256 966.56 232.589 966.88 233.656 967.52C234.722 968.16 235.522 969.133 236.056 970.44C236.589 971.747 236.856 973.36 236.856 975.28V988H231.896V975.6C231.896 974.533 231.749 973.653 231.456 972.96C231.189 972.267 230.762 971.76 230.176 971.44C229.616 971.093 228.909 970.92 228.056 970.92C227.389 970.92 226.749 971.04 226.136 971.28C225.549 971.493 225.042 971.813 224.616 972.24C224.189 972.64 223.856 973.107 223.616 973.64C223.376 974.173 223.256 974.76 223.256 975.4V988H218.296V975.56C218.296 974.547 218.149 973.707 217.856 973.04C217.562 972.347 217.136 971.827 216.576 971.48C216.016 971.107 215.336 970.92 214.536 970.92C213.869 970.92 213.242 971.04 212.656 971.28C212.069 971.493 211.562 971.8 211.136 972.2C210.709 972.6 210.376 973.067 210.136 973.6C209.896 974.133 209.776 974.72 209.776 975.36V988H204.816ZM252.198 988.4C249.984 988.4 248.024 987.933 246.318 987C244.638 986.067 243.318 984.8 242.358 983.2C241.424 981.573 240.958 979.72 240.958 977.64C240.958 975.987 241.224 974.48 241.758 973.12C242.291 971.76 243.024 970.587 243.958 969.6C244.918 968.587 246.051 967.813 247.358 967.28C248.691 966.72 250.144 966.44 251.718 966.44C253.104 966.44 254.398 966.707 255.598 967.24C256.798 967.773 257.838 968.507 258.718 969.44C259.598 970.347 260.264 971.44 260.718 972.72C261.198 973.973 261.424 975.347 261.398 976.84L261.358 978.56H244.278L243.358 975.2H257.238L256.598 975.88V975C256.518 974.173 256.251 973.453 255.798 972.84C255.344 972.2 254.758 971.707 254.038 971.36C253.344 970.987 252.571 970.8 251.718 970.8C250.411 970.8 249.304 971.053 248.398 971.56C247.518 972.067 246.851 972.8 246.398 973.76C245.944 974.693 245.718 975.867 245.718 977.28C245.718 978.64 245.998 979.827 246.558 980.84C247.144 981.853 247.958 982.64 248.998 983.2C250.064 983.733 251.304 984 252.718 984C253.704 984 254.611 983.84 255.438 983.52C256.264 983.2 257.158 982.627 258.118 981.8L260.557 985.2C259.838 985.867 259.011 986.44 258.078 986.92C257.171 987.373 256.211 987.733 255.198 988C254.184 988.267 253.184 988.4 252.198 988.4ZM272.795 988.4C270.928 988.4 269.248 988.093 267.755 987.48C266.288 986.84 265.088 985.933 264.155 984.76L267.355 982C268.155 982.907 269.048 983.56 270.035 983.96C271.022 984.36 272.062 984.56 273.155 984.56C273.608 984.56 274.008 984.507 274.355 984.4C274.728 984.293 275.048 984.133 275.315 983.92C275.582 983.707 275.782 983.467 275.915 983.2C276.075 982.907 276.155 982.587 276.155 982.24C276.155 981.6 275.915 981.093 275.435 980.72C275.168 980.533 274.742 980.333 274.155 980.12C273.595 979.907 272.862 979.693 271.955 979.48C270.515 979.107 269.315 978.68 268.355 978.2C267.395 977.693 266.648 977.133 266.115 976.52C265.662 976.013 265.315 975.44 265.075 974.8C264.862 974.16 264.755 973.467 264.755 972.72C264.755 971.787 264.955 970.947 265.355 970.2C265.782 969.427 266.355 968.76 267.075 968.2C267.795 967.64 268.635 967.213 269.595 966.92C270.555 966.627 271.555 966.48 272.595 966.48C273.662 966.48 274.688 966.613 275.675 966.88C276.688 967.147 277.622 967.533 278.475 968.04C279.355 968.52 280.102 969.107 280.715 969.8L277.995 972.8C277.488 972.32 276.928 971.893 276.315 971.52C275.728 971.147 275.128 970.853 274.515 970.64C273.902 970.4 273.328 970.28 272.795 970.28C272.288 970.28 271.835 970.333 271.435 970.44C271.035 970.52 270.702 970.653 270.435 970.84C270.168 971.027 269.955 971.267 269.795 971.56C269.662 971.827 269.595 972.147 269.595 972.52C269.622 972.84 269.702 973.147 269.835 973.44C269.995 973.707 270.208 973.933 270.475 974.12C270.768 974.307 271.208 974.52 271.795 974.76C272.382 975 273.142 975.227 274.075 975.44C275.382 975.787 276.475 976.173 277.355 976.6C278.235 977.027 278.928 977.52 279.435 978.08C279.942 978.56 280.302 979.12 280.515 979.76C280.728 980.4 280.835 981.107 280.835 981.88C280.835 983.133 280.475 984.253 279.755 985.24C279.062 986.227 278.102 987 276.875 987.56C275.675 988.12 274.315 988.4 272.795 988.4ZM287.449 988V961.56H292.369V988H287.449ZM283.289 971.48V966.92H296.969V971.48H283.289ZM308.481 988.4C306.747 988.4 305.174 987.92 303.761 986.96C302.347 986 301.214 984.693 300.361 983.04C299.507 981.387 299.081 979.507 299.081 977.4C299.081 975.293 299.507 973.413 300.361 971.76C301.214 970.107 302.374 968.813 303.841 967.88C305.307 966.947 306.961 966.48 308.801 966.48C309.867 966.48 310.841 966.64 311.721 966.96C312.601 967.253 313.374 967.68 314.041 968.24C314.707 968.8 315.254 969.44 315.681 970.16C316.134 970.88 316.441 971.653 316.601 972.48L315.521 972.2V966.92H320.481V988H315.481V982.96L316.641 982.76C316.454 983.48 316.107 984.187 315.601 984.88C315.121 985.547 314.507 986.147 313.761 986.68C313.041 987.187 312.227 987.6 311.321 987.92C310.441 988.24 309.494 988.4 308.481 988.4ZM309.841 984.04C310.987 984.04 312.001 983.76 312.881 983.2C313.761 982.64 314.441 981.867 314.921 980.88C315.427 979.867 315.681 978.707 315.681 977.4C315.681 976.12 315.427 974.987 314.921 974C314.441 973.013 313.761 972.24 312.881 971.68C312.001 971.12 310.987 970.84 309.841 970.84C308.694 970.84 307.681 971.12 306.801 971.68C305.947 972.24 305.281 973.013 304.801 974C304.321 974.987 304.081 976.12 304.081 977.4C304.081 978.707 304.321 979.867 304.801 980.88C305.281 981.867 305.947 982.64 306.801 983.2C307.681 983.76 308.694 984.04 309.841 984.04ZM326.105 988V966.92H330.945L331.025 971.16L330.225 971.48C330.465 970.787 330.825 970.147 331.305 969.56C331.785 968.947 332.358 968.427 333.025 968C333.691 967.547 334.398 967.2 335.145 966.96C335.891 966.693 336.651 966.56 337.425 966.56C338.571 966.56 339.585 966.747 340.465 967.12C341.371 967.467 342.118 968.027 342.705 968.8C343.318 969.573 343.771 970.56 344.065 971.76L343.305 971.6L343.625 970.96C343.918 970.32 344.331 969.747 344.865 969.24C345.398 968.707 345.998 968.24 346.665 967.84C347.331 967.413 348.025 967.093 348.745 966.88C349.491 966.667 350.225 966.56 350.945 966.56C352.545 966.56 353.878 966.88 354.945 967.52C356.011 968.16 356.811 969.133 357.345 970.44C357.878 971.747 358.145 973.36 358.145 975.28V988H353.185V975.6C353.185 974.533 353.038 973.653 352.745 972.96C352.478 972.267 352.051 971.76 351.465 971.44C350.905 971.093 350.198 970.92 349.345 970.92C348.678 970.92 348.038 971.04 347.425 971.28C346.838 971.493 346.331 971.813 345.905 972.24C345.478 972.64 345.145 973.107 344.905 973.64C344.665 974.173 344.545 974.76 344.545 975.4V988H339.585V975.56C339.585 974.547 339.438 973.707 339.145 973.04C338.851 972.347 338.425 971.827 337.865 971.48C337.305 971.107 336.625 970.92 335.825 970.92C335.158 970.92 334.531 971.04 333.945 971.28C333.358 971.493 332.851 971.8 332.425 972.2C331.998 972.6 331.665 973.067 331.425 973.6C331.185 974.133 331.065 974.72 331.065 975.36V988H326.105ZM363.607 996.8V966.92H368.447L368.527 971.72L367.687 971.36C367.847 970.533 368.3 969.76 369.047 969.04C369.793 968.293 370.7 967.693 371.767 967.24C372.86 966.787 373.993 966.56 375.167 966.56C377.033 966.56 378.687 967.027 380.127 967.96C381.593 968.893 382.74 970.173 383.567 971.8C384.42 973.427 384.847 975.307 384.847 977.44C384.847 979.547 384.42 981.427 383.567 983.08C382.74 984.707 381.593 986 380.127 986.96C378.687 987.893 377.06 988.36 375.247 988.36C374.02 988.36 372.833 988.12 371.687 987.64C370.567 987.16 369.607 986.533 368.807 985.76C368.033 984.987 367.553 984.173 367.367 983.32L368.567 982.76V996.8H363.607ZM374.247 984C375.367 984 376.367 983.72 377.247 983.16C378.127 982.6 378.807 981.827 379.287 980.84C379.793 979.853 380.047 978.72 380.047 977.44C380.047 976.16 379.807 975.04 379.327 974.08C378.847 973.093 378.167 972.32 377.287 971.76C376.407 971.2 375.393 970.92 374.247 970.92C373.073 970.92 372.047 971.2 371.167 971.76C370.313 972.293 369.633 973.053 369.127 974.04C368.62 975.027 368.367 976.16 368.367 977.44C368.367 978.72 368.62 979.853 369.127 980.84C369.633 981.827 370.313 982.6 371.167 983.16C372.047 983.72 373.073 984 374.247 984ZM396.272 988.4C394.405 988.4 392.725 988.093 391.232 987.48C389.765 986.84 388.565 985.933 387.632 984.76L390.832 982C391.632 982.907 392.525 983.56 393.512 983.96C394.498 984.36 395.538 984.56 396.632 984.56C397.085 984.56 397.485 984.507 397.832 984.4C398.205 984.293 398.525 984.133 398.792 983.92C399.058 983.707 399.258 983.467 399.392 983.2C399.552 982.907 399.632 982.587 399.632 982.24C399.632 981.6 399.392 981.093 398.912 980.72C398.645 980.533 398.218 980.333 397.632 980.12C397.072 979.907 396.338 979.693 395.432 979.48C393.992 979.107 392.792 978.68 391.832 978.2C390.872 977.693 390.125 977.133 389.592 976.52C389.138 976.013 388.792 975.44 388.552 974.8C388.338 974.16 388.232 973.467 388.232 972.72C388.232 971.787 388.432 970.947 388.832 970.2C389.258 969.427 389.832 968.76 390.552 968.2C391.272 967.64 392.112 967.213 393.072 966.92C394.032 966.627 395.032 966.48 396.072 966.48C397.138 966.48 398.165 966.613 399.152 966.88C400.165 967.147 401.098 967.533 401.952 968.04C402.832 968.52 403.578 969.107 404.192 969.8L401.472 972.8C400.965 972.32 400.405 971.893 399.792 971.52C399.205 971.147 398.605 970.853 397.992 970.64C397.378 970.4 396.805 970.28 396.272 970.28C395.765 970.28 395.312 970.333 394.912 970.44C394.512 970.52 394.178 970.653 393.912 970.84C393.645 971.027 393.432 971.267 393.272 971.56C393.138 971.827 393.072 972.147 393.072 972.52C393.098 972.84 393.178 973.147 393.312 973.44C393.472 973.707 393.685 973.933 393.952 974.12C394.245 974.307 394.685 974.52 395.272 974.76C395.858 975 396.618 975.227 397.552 975.44C398.858 975.787 399.952 976.173 400.832 976.6C401.712 977.027 402.405 977.52 402.912 978.08C403.418 978.56 403.778 979.12 403.992 979.76C404.205 980.4 404.312 981.107 404.312 981.88C404.312 983.133 403.952 984.253 403.232 985.24C402.538 986.227 401.578 987 400.352 987.56C399.152 988.12 397.792 988.4 396.272 988.4ZM422.683 988V961.56H427.603V988H422.683ZM418.523 971.48V966.92H432.203V971.48H418.523ZM445.395 988.4C443.288 988.4 441.408 987.933 439.755 987C438.102 986.04 436.795 984.733 435.835 983.08C434.875 981.427 434.395 979.547 434.395 977.44C434.395 975.333 434.875 973.453 435.835 971.8C436.795 970.147 438.102 968.853 439.755 967.92C441.408 966.96 443.288 966.48 445.395 966.48C447.475 966.48 449.342 966.96 450.995 967.92C452.648 968.853 453.942 970.147 454.875 971.8C455.835 973.453 456.315 975.333 456.315 977.44C456.315 979.547 455.835 981.427 454.875 983.08C453.942 984.733 452.648 986.04 450.995 987C449.342 987.933 447.475 988.4 445.395 988.4ZM445.395 984.04C446.542 984.04 447.555 983.747 448.435 983.16C449.342 982.573 450.048 981.787 450.555 980.8C451.088 979.813 451.342 978.693 451.315 977.44C451.342 976.16 451.088 975.027 450.555 974.04C450.048 973.053 449.342 972.28 448.435 971.72C447.555 971.133 446.542 970.84 445.395 970.84C444.248 970.84 443.208 971.133 442.275 971.72C441.368 972.28 440.662 973.067 440.155 974.08C439.648 975.067 439.395 976.187 439.395 977.44C439.395 978.693 439.648 979.813 440.155 980.8C440.662 981.787 441.368 982.573 442.275 983.16C443.208 983.747 444.248 984.04 445.395 984.04ZM473.354 988V960H491.674V964.72H478.474V983.28H491.834V988H473.354ZM475.754 976V971.36H489.634V976H475.754ZM497.474 988V966.92H502.274L502.354 971.24L501.434 971.72C501.7 970.76 502.22 969.893 502.994 969.12C503.767 968.32 504.687 967.68 505.754 967.2C506.82 966.72 507.914 966.48 509.034 966.48C510.634 966.48 511.967 966.8 513.034 967.44C514.127 968.08 514.94 969.04 515.474 970.32C516.034 971.6 516.314 973.2 516.314 975.12V988H511.394V975.48C511.394 974.413 511.247 973.533 510.954 972.84C510.66 972.12 510.207 971.6 509.594 971.28C508.98 970.933 508.234 970.773 507.354 970.8C506.634 970.8 505.967 970.92 505.354 971.16C504.767 971.373 504.247 971.693 503.794 972.12C503.367 972.52 503.02 972.987 502.754 973.52C502.514 974.053 502.394 974.64 502.394 975.28V988H499.954C499.474 988 499.02 988 498.594 988C498.194 988 497.82 988 497.474 988ZM531.329 997.2C529.755 997.2 528.182 996.96 526.609 996.48C525.062 996 523.809 995.373 522.849 994.6L524.609 990.96C525.169 991.36 525.795 991.707 526.489 992C527.182 992.293 527.915 992.52 528.689 992.68C529.489 992.84 530.275 992.92 531.049 992.92C532.462 992.92 533.635 992.693 534.569 992.24C535.529 991.813 536.249 991.147 536.729 990.24C537.209 989.36 537.449 988.253 537.449 986.92V983.04L538.169 983.32C538.009 984.147 537.569 984.933 536.849 985.68C536.129 986.427 535.222 987.04 534.129 987.52C533.035 987.973 531.915 988.2 530.769 988.2C528.769 988.2 526.995 987.733 525.449 986.8C523.929 985.867 522.715 984.6 521.809 983C520.929 981.373 520.489 979.507 520.489 977.4C520.489 975.293 520.929 973.427 521.809 971.8C522.689 970.147 523.889 968.853 525.409 967.92C526.955 966.96 528.689 966.48 530.609 966.48C531.409 966.48 532.182 966.573 532.929 966.76C533.675 966.947 534.355 967.213 534.969 967.56C535.609 967.907 536.182 968.293 536.689 968.72C537.195 969.147 537.609 969.6 537.929 970.08C538.249 970.56 538.449 971.027 538.529 971.48L537.489 971.8L537.569 966.92H542.409V986.56C542.409 988.267 542.155 989.773 541.649 991.08C541.142 992.387 540.409 993.493 539.449 994.4C538.489 995.333 537.329 996.027 535.969 996.48C534.609 996.96 533.062 997.2 531.329 997.2ZM531.529 984C532.729 984 533.782 983.72 534.689 983.16C535.622 982.6 536.342 981.827 536.849 980.84C537.355 979.853 537.609 978.72 537.609 977.44C537.609 976.133 537.342 974.987 536.809 974C536.302 972.987 535.595 972.2 534.689 971.64C533.782 971.08 532.729 970.8 531.529 970.8C530.329 970.8 529.275 971.093 528.369 971.68C527.462 972.24 526.742 973.027 526.209 974.04C525.702 975.027 525.449 976.16 525.449 977.44C525.449 978.693 525.702 979.827 526.209 980.84C526.742 981.827 527.462 982.6 528.369 983.16C529.275 983.72 530.329 984 531.529 984ZM556.059 988.4C554.325 988.4 552.752 987.92 551.339 986.96C549.925 986 548.792 984.693 547.939 983.04C547.085 981.387 546.659 979.507 546.659 977.4C546.659 975.293 547.085 973.413 547.939 971.76C548.792 970.107 549.952 968.813 551.419 967.88C552.885 966.947 554.539 966.48 556.379 966.48C557.445 966.48 558.419 966.64 559.299 966.96C560.179 967.253 560.952 967.68 561.619 968.24C562.285 968.8 562.832 969.44 563.259 970.16C563.712 970.88 564.019 971.653 564.179 972.48L563.099 972.2V966.92H568.059V988H563.059V982.96L564.219 982.76C564.032 983.48 563.685 984.187 563.179 984.88C562.699 985.547 562.085 986.147 561.339 986.68C560.619 987.187 559.805 987.6 558.899 987.92C558.019 988.24 557.072 988.4 556.059 988.4ZM557.419 984.04C558.565 984.04 559.579 983.76 560.459 983.2C561.339 982.64 562.019 981.867 562.499 980.88C563.005 979.867 563.259 978.707 563.259 977.4C563.259 976.12 563.005 974.987 562.499 974C562.019 973.013 561.339 972.24 560.459 971.68C559.579 971.12 558.565 970.84 557.419 970.84C556.272 970.84 555.259 971.12 554.379 971.68C553.525 972.24 552.859 973.013 552.379 974C551.899 974.987 551.659 976.12 551.659 977.4C551.659 978.707 551.899 979.867 552.379 980.88C552.859 981.867 553.525 982.64 554.379 983.2C555.259 983.76 556.272 984.04 557.419 984.04ZM583.243 997.2C581.669 997.2 580.096 996.96 578.523 996.48C576.976 996 575.723 995.373 574.763 994.6L576.523 990.96C577.083 991.36 577.709 991.707 578.403 992C579.096 992.293 579.829 992.52 580.603 992.68C581.403 992.84 582.189 992.92 582.963 992.92C584.376 992.92 585.549 992.693 586.483 992.24C587.443 991.813 588.163 991.147 588.643 990.24C589.123 989.36 589.363 988.253 589.363 986.92V983.04L590.083 983.32C589.923 984.147 589.483 984.933 588.763 985.68C588.043 986.427 587.136 987.04 586.043 987.52C584.949 987.973 583.829 988.2 582.683 988.2C580.683 988.2 578.909 987.733 577.363 986.8C575.843 985.867 574.629 984.6 573.723 983C572.843 981.373 572.403 979.507 572.403 977.4C572.403 975.293 572.843 973.427 573.723 971.8C574.603 970.147 575.803 968.853 577.323 967.92C578.869 966.96 580.603 966.48 582.523 966.48C583.323 966.48 584.096 966.573 584.843 966.76C585.589 966.947 586.269 967.213 586.883 967.56C587.523 967.907 588.096 968.293 588.603 968.72C589.109 969.147 589.523 969.6 589.843 970.08C590.163 970.56 590.363 971.027 590.443 971.48L589.403 971.8L589.483 966.92H594.323V986.56C594.323 988.267 594.069 989.773 593.563 991.08C593.056 992.387 592.323 993.493 591.363 994.4C590.403 995.333 589.243 996.027 587.883 996.48C586.523 996.96 584.976 997.2 583.243 997.2ZM583.443 984C584.643 984 585.696 983.72 586.603 983.16C587.536 982.6 588.256 981.827 588.763 980.84C589.269 979.853 589.523 978.72 589.523 977.44C589.523 976.133 589.256 974.987 588.723 974C588.216 972.987 587.509 972.2 586.603 971.64C585.696 971.08 584.643 970.8 583.443 970.8C582.243 970.8 581.189 971.093 580.283 971.68C579.376 972.24 578.656 973.027 578.123 974.04C577.616 975.027 577.363 976.16 577.363 977.44C577.363 978.693 577.616 979.827 578.123 980.84C578.656 981.827 579.376 982.6 580.283 983.16C581.189 983.72 582.243 984 583.443 984ZM609.893 988.4C607.679 988.4 605.719 987.933 604.013 987C602.333 986.067 601.013 984.8 600.053 983.2C599.119 981.573 598.653 979.72 598.653 977.64C598.653 975.987 598.919 974.48 599.453 973.12C599.986 971.76 600.719 970.587 601.653 969.6C602.613 968.587 603.746 967.813 605.053 967.28C606.386 966.72 607.839 966.44 609.413 966.44C610.799 966.44 612.093 966.707 613.293 967.24C614.493 967.773 615.533 968.507 616.413 969.44C617.293 970.347 617.959 971.44 618.413 972.72C618.893 973.973 619.119 975.347 619.093 976.84L619.053 978.56H601.973L601.053 975.2H614.933L614.293 975.88V975C614.213 974.173 613.946 973.453 613.493 972.84C613.039 972.2 612.453 971.707 611.733 971.36C611.039 970.987 610.266 970.8 609.413 970.8C608.106 970.8 606.999 971.053 606.093 971.56C605.213 972.067 604.546 972.8 604.093 973.76C603.639 974.693 603.413 975.867 603.413 977.28C603.413 978.64 603.693 979.827 604.253 980.84C604.839 981.853 605.653 982.64 606.693 983.2C607.759 983.733 608.999 984 610.413 984C611.399 984 612.306 983.84 613.133 983.52C613.959 983.2 614.853 982.627 615.813 981.8L618.253 985.2C617.533 985.867 616.706 986.44 615.773 986.92C614.866 987.373 613.906 987.733 612.893 988C611.879 988.267 610.879 988.4 609.893 988.4ZM643.528 988V974.04L643.808 976L632.488 960H638.568L647.208 972.4L645.328 972.28L653.128 960H658.968L648.128 976.44L648.728 973.72V988H643.528ZM668.442 988.4C666.335 988.4 664.455 987.933 662.802 987C661.149 986.04 659.842 984.733 658.882 983.08C657.922 981.427 657.442 979.547 657.442 977.44C657.442 975.333 657.922 973.453 658.882 971.8C659.842 970.147 661.149 968.853 662.802 967.92C664.455 966.96 666.335 966.48 668.442 966.48C670.522 966.48 672.389 966.96 674.042 967.92C675.695 968.853 676.989 970.147 677.922 971.8C678.882 973.453 679.362 975.333 679.362 977.44C679.362 979.547 678.882 981.427 677.922 983.08C676.989 984.733 675.695 986.04 674.042 987C672.389 987.933 670.522 988.4 668.442 988.4ZM668.442 984.04C669.589 984.04 670.602 983.747 671.482 983.16C672.389 982.573 673.095 981.787 673.602 980.8C674.135 979.813 674.389 978.693 674.362 977.44C674.389 976.16 674.135 975.027 673.602 974.04C673.095 973.053 672.389 972.28 671.482 971.72C670.602 971.133 669.589 970.84 668.442 970.84C667.295 970.84 666.255 971.133 665.322 971.72C664.415 972.28 663.709 973.067 663.202 974.08C662.695 975.067 662.442 976.187 662.442 977.44C662.442 978.693 662.695 979.813 663.202 980.8C663.709 981.787 664.415 982.573 665.322 983.16C666.255 983.747 667.295 984.04 668.442 984.04ZM691.083 988.4C689.563 988.4 688.243 988.067 687.123 987.4C686.003 986.707 685.149 985.733 684.563 984.48C683.976 983.2 683.683 981.68 683.683 979.92V966.92H688.603V978.88C688.603 980 688.776 980.96 689.123 981.76C689.469 982.533 689.976 983.133 690.643 983.56C691.309 983.987 692.109 984.2 693.043 984.2C693.736 984.2 694.363 984.093 694.923 983.88C695.509 983.64 696.016 983.32 696.443 982.92C696.869 982.493 697.203 982 697.443 981.44C697.683 980.853 697.803 980.227 697.803 979.56V966.92H702.723V988H697.923L697.843 983.6L698.723 983.12C698.403 984.133 697.856 985.04 697.083 985.84C696.336 986.613 695.443 987.24 694.403 987.72C693.363 988.173 692.256 988.4 691.083 988.4ZM708.489 988V966.92H713.329L713.409 973.64L712.729 972.12C713.023 971.053 713.529 970.093 714.249 969.24C714.969 968.387 715.796 967.72 716.729 967.24C717.689 966.733 718.689 966.48 719.729 966.48C720.183 966.48 720.609 966.52 721.009 966.6C721.436 966.68 721.783 966.773 722.049 966.88L720.729 972.28C720.436 972.12 720.076 971.987 719.649 971.88C719.223 971.773 718.796 971.72 718.369 971.72C717.703 971.72 717.063 971.853 716.449 972.12C715.863 972.36 715.343 972.707 714.889 973.16C714.436 973.613 714.076 974.147 713.809 974.76C713.569 975.347 713.449 976.013 713.449 976.76V988H708.489ZM746.843 988.4C745.216 988.4 743.723 988.2 742.363 987.8C741.003 987.373 739.776 986.747 738.683 985.92C737.59 985.093 736.616 984.093 735.763 982.92L739.163 979.08C740.47 980.893 741.75 982.147 743.003 982.84C744.256 983.533 745.67 983.88 747.243 983.88C748.15 983.88 748.976 983.747 749.723 983.48C750.47 983.187 751.056 982.8 751.483 982.32C751.91 981.813 752.123 981.24 752.123 980.6C752.123 980.147 752.03 979.733 751.843 979.36C751.683 978.96 751.43 978.613 751.083 978.32C750.736 978 750.31 977.707 749.803 977.44C749.296 977.173 748.723 976.947 748.083 976.76C747.443 976.573 746.736 976.4 745.963 976.24C744.496 975.947 743.216 975.56 742.123 975.08C741.03 974.573 740.11 973.96 739.363 973.24C738.616 972.493 738.07 971.667 737.723 970.76C737.376 969.827 737.203 968.773 737.203 967.6C737.203 966.427 737.456 965.347 737.963 964.36C738.496 963.373 739.216 962.52 740.123 961.8C741.03 961.08 742.083 960.52 743.283 960.12C744.483 959.72 745.776 959.52 747.163 959.52C748.736 959.52 750.136 959.707 751.363 960.08C752.616 960.453 753.71 961.013 754.643 961.76C755.603 962.48 756.39 963.36 757.003 964.4L753.563 967.8C753.03 966.973 752.43 966.293 751.763 965.76C751.096 965.2 750.376 964.787 749.603 964.52C748.83 964.227 748.016 964.08 747.163 964.08C746.203 964.08 745.363 964.213 744.643 964.48C743.95 964.747 743.403 965.133 743.003 965.64C742.603 966.12 742.403 966.707 742.403 967.4C742.403 967.933 742.523 968.413 742.763 968.84C743.003 969.24 743.336 969.6 743.763 969.92C744.216 970.24 744.79 970.52 745.483 970.76C746.176 971 746.963 971.213 747.843 971.4C749.31 971.693 750.63 972.093 751.803 972.6C752.976 973.08 753.976 973.667 754.803 974.36C755.63 975.027 756.256 975.8 756.683 976.68C757.11 977.533 757.323 978.493 757.323 979.56C757.323 981.4 756.883 982.987 756.003 984.32C755.15 985.627 753.936 986.64 752.363 987.36C750.79 988.053 748.95 988.4 746.843 988.4ZM764.441 988V961.56H769.361V988H764.441ZM760.281 971.48V966.92H773.961V971.48H760.281ZM785.028 988.4C783.508 988.4 782.188 988.067 781.068 987.4C779.948 986.707 779.095 985.733 778.508 984.48C777.921 983.2 777.628 981.68 777.628 979.92V966.92H782.548V978.88C782.548 980 782.721 980.96 783.068 981.76C783.415 982.533 783.921 983.133 784.588 983.56C785.255 983.987 786.055 984.2 786.988 984.2C787.681 984.2 788.308 984.093 788.868 983.88C789.455 983.64 789.961 983.32 790.388 982.92C790.815 982.493 791.148 982 791.388 981.44C791.628 980.853 791.748 980.227 791.748 979.56V966.92H796.668V988H791.868L791.788 983.6L792.668 983.12C792.348 984.133 791.801 985.04 791.028 985.84C790.281 986.613 789.388 987.24 788.348 987.72C787.308 988.173 786.201 988.4 785.028 988.4ZM810.915 988.4C809.048 988.4 807.368 987.933 805.875 987C804.408 986.04 803.235 984.747 802.355 983.12C801.501 981.467 801.075 979.573 801.075 977.44C801.075 975.333 801.501 973.453 802.355 971.8C803.208 970.147 804.368 968.853 805.835 967.92C807.328 966.96 809.008 966.48 810.875 966.48C811.888 966.48 812.861 966.64 813.795 966.96C814.755 967.28 815.608 967.72 816.355 968.28C817.101 968.813 817.688 969.413 818.115 970.08C818.568 970.747 818.821 971.44 818.875 972.16L817.555 972.32V958.4H822.475V988H817.715L817.595 983.04L818.555 983.12C818.528 983.787 818.288 984.427 817.835 985.04C817.408 985.653 816.848 986.213 816.155 986.72C815.461 987.227 814.648 987.64 813.715 987.96C812.808 988.253 811.875 988.4 810.915 988.4ZM811.875 984.24C813.021 984.24 814.035 983.947 814.915 983.36C815.795 982.773 816.475 981.973 816.955 980.96C817.461 979.947 817.715 978.773 817.715 977.44C817.715 976.133 817.461 974.973 816.955 973.96C816.475 972.92 815.795 972.12 814.915 971.56C814.035 970.973 813.021 970.68 811.875 970.68C810.728 970.68 809.715 970.973 808.835 971.56C807.955 972.12 807.261 972.92 806.755 973.96C806.275 974.973 806.035 976.133 806.035 977.44C806.035 978.773 806.275 979.947 806.755 980.96C807.261 981.973 807.955 982.773 808.835 983.36C809.715 983.947 810.728 984.24 811.875 984.24ZM837.94 988.4C835.726 988.4 833.766 987.933 832.06 987C830.38 986.067 829.06 984.8 828.1 983.2C827.166 981.573 826.7 979.72 826.7 977.64C826.7 975.987 826.966 974.48 827.5 973.12C828.033 971.76 828.766 970.587 829.7 969.6C830.66 968.587 831.793 967.813 833.1 967.28C834.433 966.72 835.886 966.44 837.46 966.44C838.846 966.44 840.14 966.707 841.34 967.24C842.54 967.773 843.58 968.507 844.46 969.44C845.34 970.347 846.006 971.44 846.46 972.72C846.94 973.973 847.166 975.347 847.14 976.84L847.1 978.56H830.02L829.1 975.2H842.98L842.34 975.88V975C842.26 974.173 841.993 973.453 841.54 972.84C841.086 972.2 840.5 971.707 839.78 971.36C839.086 970.987 838.313 970.8 837.46 970.8C836.153 970.8 835.046 971.053 834.14 971.56C833.26 972.067 832.593 972.8 832.14 973.76C831.686 974.693 831.46 975.867 831.46 977.28C831.46 978.64 831.74 979.827 832.3 980.84C832.886 981.853 833.7 982.64 834.74 983.2C835.806 983.733 837.046 984 838.46 984C839.446 984 840.353 983.84 841.18 983.52C842.006 983.2 842.9 982.627 843.86 981.8L846.3 985.2C845.58 985.867 844.753 986.44 843.82 986.92C842.913 987.373 841.953 987.733 840.94 988C839.926 988.267 838.926 988.4 837.94 988.4ZM851.497 988V966.92H856.297L856.377 971.24L855.457 971.72C855.724 970.76 856.244 969.893 857.017 969.12C857.791 968.32 858.711 967.68 859.777 967.2C860.844 966.72 861.937 966.48 863.057 966.48C864.657 966.48 865.991 966.8 867.057 967.44C868.151 968.08 868.964 969.04 869.497 970.32C870.057 971.6 870.337 973.2 870.337 975.12V988H865.417V975.48C865.417 974.413 865.271 973.533 864.977 972.84C864.684 972.12 864.231 971.6 863.617 971.28C863.004 970.933 862.257 970.773 861.377 970.8C860.657 970.8 859.991 970.92 859.377 971.16C858.791 971.373 858.271 971.693 857.817 972.12C857.391 972.52 857.044 972.987 856.777 973.52C856.537 974.053 856.417 974.64 856.417 975.28V988H853.977C853.497 988 853.044 988 852.617 988C852.217 988 851.844 988 851.497 988ZM878.152 988V961.56H883.072V988H878.152ZM873.992 971.48V966.92H887.672V971.48H873.992ZM899.24 988.4C897.374 988.4 895.694 988.093 894.2 987.48C892.734 986.84 891.534 985.933 890.6 984.76L893.8 982C894.6 982.907 895.494 983.56 896.48 983.96C897.467 984.36 898.507 984.56 899.6 984.56C900.054 984.56 900.454 984.507 900.8 984.4C901.174 984.293 901.494 984.133 901.76 983.92C902.027 983.707 902.227 983.467 902.36 983.2C902.52 982.907 902.6 982.587 902.6 982.24C902.6 981.6 902.36 981.093 901.88 980.72C901.614 980.533 901.187 980.333 900.6 980.12C900.04 979.907 899.307 979.693 898.4 979.48C896.96 979.107 895.76 978.68 894.8 978.2C893.84 977.693 893.094 977.133 892.56 976.52C892.107 976.013 891.76 975.44 891.52 974.8C891.307 974.16 891.2 973.467 891.2 972.72C891.2 971.787 891.4 970.947 891.8 970.2C892.227 969.427 892.8 968.76 893.52 968.2C894.24 967.64 895.08 967.213 896.04 966.92C897 966.627 898 966.48 899.04 966.48C900.107 966.48 901.134 966.613 902.12 966.88C903.134 967.147 904.067 967.533 904.92 968.04C905.8 968.52 906.547 969.107 907.16 969.8L904.44 972.8C903.934 972.32 903.374 971.893 902.76 971.52C902.174 971.147 901.574 970.853 900.96 970.64C900.347 970.4 899.774 970.28 899.24 970.28C898.734 970.28 898.28 970.333 897.88 970.44C897.48 970.52 897.147 970.653 896.88 970.84C896.614 971.027 896.4 971.267 896.24 971.56C896.107 971.827 896.04 972.147 896.04 972.52C896.067 972.84 896.147 973.147 896.28 973.44C896.44 973.707 896.654 973.933 896.92 974.12C897.214 974.307 897.654 974.52 898.24 974.76C898.827 975 899.587 975.227 900.52 975.44C901.827 975.787 902.92 976.173 903.8 976.6C904.68 977.027 905.374 977.52 905.88 978.08C906.387 978.56 906.747 979.12 906.96 979.76C907.174 980.4 907.28 981.107 907.28 981.88C907.28 983.133 906.92 984.253 906.2 985.24C905.507 986.227 904.547 987 903.32 987.56C902.12 988.12 900.76 988.4 899.24 988.4ZM913.494 988.44C912.534 988.44 911.788 988.16 911.254 987.6C910.748 987.04 910.494 986.253 910.494 985.24C910.494 984.307 910.761 983.547 911.294 982.96C911.854 982.347 912.588 982.04 913.494 982.04C914.454 982.04 915.188 982.32 915.694 982.88C916.228 983.413 916.494 984.2 916.494 985.24C916.494 986.173 916.214 986.947 915.654 987.56C915.121 988.147 914.401 988.44 913.494 988.44Z" fill="#2F3899"/>
<circle cx="1619" cy="1036" r="38" fill="#7079D1"/>
<path d="M1624 1021L1638.58 1035.87L1624 1050.75" stroke="#FFFCFC" stroke-width="4" stroke-linecap="round" stroke-linejoin="round"/>
<path d="M1595 1036H1635" stroke="#FFFCFC" stroke-width="4" stroke-linecap="round" stroke-linejoin="round"/>
<rect x="1324" y="76" width="361" height="70" rx="30" fill="#7079D1"/>
<path d="M1634.5 91V126" stroke="#FAFAFA" stroke-width="4" stroke-linecap="round" stroke-linejoin="round"/>
<path d="M1617 108.5H1652" stroke="#FAFAFA" stroke-width="4" stroke-linecap="round" stroke-linejoin="round"/>
<path d="M1353.64 125L1364.56 97H1369.44L1380.28 125H1374.88L1368.88 109.08C1368.75 108.76 1368.56 108.253 1368.32 107.56C1368.11 106.867 1367.87 106.12 1367.6 105.32C1367.33 104.493 1367.09 103.733 1366.88 103.04C1366.67 102.32 1366.51 101.8 1366.4 101.48L1367.4 101.44C1367.24 101.973 1367.05 102.573 1366.84 103.24C1366.63 103.907 1366.4 104.6 1366.16 105.32C1365.92 106.04 1365.68 106.733 1365.44 107.4C1365.23 108.067 1365.03 108.667 1364.84 109.2L1358.84 125H1353.64ZM1358.6 118.6L1360.4 114.08H1373.16L1375.08 118.6H1358.6ZM1391.51 125.4C1389.64 125.4 1387.96 124.933 1386.47 124C1385 123.04 1383.83 121.747 1382.95 120.12C1382.1 118.467 1381.67 116.573 1381.67 114.44C1381.67 112.333 1382.1 110.453 1382.95 108.8C1383.8 107.147 1384.96 105.853 1386.43 104.92C1387.92 103.96 1389.6 103.48 1391.47 103.48C1392.48 103.48 1393.46 103.64 1394.39 103.96C1395.35 104.28 1396.2 104.72 1396.95 105.28C1397.7 105.813 1398.28 106.413 1398.71 107.08C1399.16 107.747 1399.42 108.44 1399.47 109.16L1398.15 109.32V95.4H1403.07V125H1398.31L1398.19 120.04L1399.15 120.12C1399.12 120.787 1398.88 121.427 1398.43 122.04C1398 122.653 1397.44 123.213 1396.75 123.72C1396.06 124.227 1395.24 124.64 1394.31 124.96C1393.4 125.253 1392.47 125.4 1391.51 125.4ZM1392.47 121.24C1393.62 121.24 1394.63 120.947 1395.51 120.36C1396.39 119.773 1397.07 118.973 1397.55 117.96C1398.06 116.947 1398.31 115.773 1398.31 114.44C1398.31 113.133 1398.06 111.973 1397.55 110.96C1397.07 109.92 1396.39 109.12 1395.51 108.56C1394.63 107.973 1393.62 107.68 1392.47 107.68C1391.32 107.68 1390.31 107.973 1389.43 108.56C1388.55 109.12 1387.86 109.92 1387.35 110.96C1386.87 111.973 1386.63 113.133 1386.63 114.44C1386.63 115.773 1386.87 116.947 1387.35 117.96C1387.86 118.973 1388.55 119.773 1389.43 120.36C1390.31 120.947 1391.32 121.24 1392.47 121.24ZM1417.13 125.4C1415.27 125.4 1413.59 124.933 1412.09 124C1410.63 123.04 1409.45 121.747 1408.57 120.12C1407.72 118.467 1407.29 116.573 1407.29 114.44C1407.29 112.333 1407.72 110.453 1408.57 108.8C1409.43 107.147 1410.59 105.853 1412.05 104.92C1413.55 103.96 1415.23 103.48 1417.09 103.48C1418.11 103.48 1419.08 103.64 1420.01 103.96C1420.97 104.28 1421.83 104.72 1422.57 105.28C1423.32 105.813 1423.91 106.413 1424.33 107.08C1424.79 107.747 1425.04 108.44 1425.09 109.16L1423.77 109.32V95.4H1428.69V125H1423.93L1423.81 120.04L1424.77 120.12C1424.75 120.787 1424.51 121.427 1424.05 122.04C1423.63 122.653 1423.07 123.213 1422.37 123.72C1421.68 124.227 1420.87 124.64 1419.93 124.96C1419.03 125.253 1418.09 125.4 1417.13 125.4ZM1418.09 121.24C1419.24 121.24 1420.25 120.947 1421.13 120.36C1422.01 119.773 1422.69 118.973 1423.17 117.96C1423.68 116.947 1423.93 115.773 1423.93 114.44C1423.93 113.133 1423.68 111.973 1423.17 110.96C1422.69 109.92 1422.01 109.12 1421.13 108.56C1420.25 107.973 1419.24 107.68 1418.09 107.68C1416.95 107.68 1415.93 107.973 1415.05 108.56C1414.17 109.12 1413.48 109.92 1412.97 110.96C1412.49 111.973 1412.25 113.133 1412.25 114.44C1412.25 115.773 1412.49 116.947 1412.97 117.96C1413.48 118.973 1414.17 119.773 1415.05 120.36C1415.93 120.947 1416.95 121.24 1418.09 121.24ZM1443.8 125L1454.72 97H1459.6L1470.44 125H1465.04L1459.04 109.08C1458.9 108.76 1458.72 108.253 1458.48 107.56C1458.26 106.867 1458.02 106.12 1457.76 105.32C1457.49 104.493 1457.25 103.733 1457.04 103.04C1456.82 102.32 1456.66 101.8 1456.56 101.48L1457.56 101.44C1457.4 101.973 1457.21 102.573 1457 103.24C1456.78 103.907 1456.56 104.6 1456.32 105.32C1456.08 106.04 1455.84 106.733 1455.6 107.4C1455.38 108.067 1455.18 108.667 1455 109.2L1449 125H1443.8ZM1448.76 118.6L1450.56 114.08H1463.32L1465.24 118.6H1448.76ZM1482.22 125.4C1480.25 125.4 1478.48 124.92 1476.9 123.96C1475.33 123 1474.09 121.693 1473.18 120.04C1472.28 118.387 1471.82 116.52 1471.82 114.44C1471.82 112.36 1472.28 110.493 1473.18 108.84C1474.09 107.187 1475.33 105.88 1476.9 104.92C1478.48 103.96 1480.25 103.48 1482.22 103.48C1484.12 103.48 1485.84 103.84 1487.38 104.56C1488.93 105.28 1490.13 106.28 1490.98 107.56L1488.26 110.84C1487.86 110.28 1487.36 109.773 1486.74 109.32C1486.13 108.867 1485.48 108.507 1484.78 108.24C1484.09 107.973 1483.4 107.84 1482.7 107.84C1481.53 107.84 1480.48 108.133 1479.54 108.72C1478.64 109.28 1477.92 110.067 1477.38 111.08C1476.85 112.067 1476.58 113.187 1476.58 114.44C1476.58 115.693 1476.85 116.813 1477.38 117.8C1477.94 118.787 1478.69 119.573 1479.62 120.16C1480.56 120.747 1481.6 121.04 1482.74 121.04C1483.44 121.04 1484.1 120.933 1484.74 120.72C1485.41 120.48 1486.04 120.147 1486.62 119.72C1487.21 119.293 1487.76 118.76 1488.26 118.12L1490.98 121.44C1490.08 122.613 1488.82 123.573 1487.22 124.32C1485.65 125.04 1483.98 125.4 1482.22 125.4ZM1497.03 125V98.56H1501.95V125H1497.03ZM1492.87 108.48V103.92H1506.55V108.48H1492.87ZM1510.85 125V103.92H1515.77V125H1510.85ZM1513.25 99.44C1512.27 99.44 1511.49 99.2 1510.93 98.72C1510.4 98.2133 1510.13 97.5067 1510.13 96.6C1510.13 95.7467 1510.41 95.0533 1510.97 94.52C1511.53 93.9867 1512.29 93.72 1513.25 93.72C1514.27 93.72 1515.04 93.9733 1515.57 94.48C1516.13 94.96 1516.41 95.6667 1516.41 96.6C1516.41 97.4267 1516.13 98.1067 1515.57 98.64C1515.01 99.1733 1514.24 99.44 1513.25 99.44ZM1528.77 125L1519.89 103.92H1525.25L1531.25 119.68L1530.21 119.96L1536.53 103.92H1541.77L1532.45 125H1528.77ZM1545.93 125V103.92H1550.85V125H1545.93ZM1548.33 99.44C1547.35 99.44 1546.57 99.2 1546.01 98.72C1545.48 98.2133 1545.21 97.5067 1545.21 96.6C1545.21 95.7467 1545.49 95.0533 1546.05 94.52C1546.61 93.9867 1547.37 93.72 1548.33 93.72C1549.35 93.72 1550.12 93.9733 1550.65 94.48C1551.21 94.96 1551.49 95.6667 1551.49 96.6C1551.49 97.4267 1551.21 98.1067 1550.65 98.64C1550.09 99.1733 1549.32 99.44 1548.33 99.44ZM1559.37 125V98.56H1564.29V125H1559.37ZM1555.21 108.48V103.92H1568.89V108.48H1555.21ZM1575.84 134.2L1580.32 123.84L1580.36 127.12L1569.96 103.92H1575.64L1581.44 117.68C1581.62 118.027 1581.81 118.493 1582 119.08C1582.18 119.64 1582.34 120.2 1582.48 120.76L1581.48 121.08C1581.66 120.573 1581.86 120.04 1582.08 119.48C1582.29 118.893 1582.49 118.293 1582.68 117.68L1587.64 103.92H1593.36L1584.56 125L1580.96 134.2H1575.84Z" fill="white"/>
<rect x="1491" y="263" width="186" height="60" rx="30" fill="#ACA5A5" fill-opacity="0.71"/>
<path d="M1567.76 308V280H1572.96V303.2H1585.88V308H1567.76ZM1591.5 308V286.92H1596.42V308H1591.5ZM1593.9 282.44C1592.92 282.44 1592.14 282.2 1591.58 281.72C1591.05 281.213 1590.78 280.507 1590.78 279.6C1590.78 278.747 1591.06 278.053 1591.62 277.52C1592.18 276.987 1592.94 276.72 1593.9 276.72C1594.92 276.72 1595.69 276.973 1596.22 277.48C1596.78 277.96 1597.06 278.667 1597.06 279.6C1597.06 280.427 1596.78 281.107 1596.22 281.64C1595.66 282.173 1594.89 282.44 1593.9 282.44ZM1602.66 308V286.92H1607.46L1607.54 291.24L1606.62 291.72C1606.89 290.76 1607.41 289.893 1608.18 289.12C1608.95 288.32 1609.87 287.68 1610.94 287.2C1612.01 286.72 1613.1 286.48 1614.22 286.48C1615.82 286.48 1617.15 286.8 1618.22 287.44C1619.31 288.08 1620.13 289.04 1620.66 290.32C1621.22 291.6 1621.5 293.2 1621.5 295.12V308H1616.58V295.48C1616.58 294.413 1616.43 293.533 1616.14 292.84C1615.85 292.12 1615.39 291.6 1614.78 291.28C1614.17 290.933 1613.42 290.773 1612.54 290.8C1611.82 290.8 1611.15 290.92 1610.54 291.16C1609.95 291.373 1609.43 291.693 1608.98 292.12C1608.55 292.52 1608.21 292.987 1607.94 293.52C1607.7 294.053 1607.58 294.64 1607.58 295.28V308H1605.14C1604.66 308 1604.21 308 1603.78 308C1603.38 308 1603.01 308 1602.66 308ZM1631.64 301.56L1630.68 296.96L1640.68 286.92H1647.24L1631.64 301.56ZM1627.04 308V278.4H1631.96V308H1627.04ZM1641.28 308L1633.52 298.6L1637 295.64L1647.36 308H1641.28Z" fill="#FAFAFA"/>
<rect x="1491" y="358" width="186" height="60" rx="30" fill="#ACA5A5" fill-opacity="0.71"/>
<path d="M1528.76 403V375H1540.68C1542.52 375 1544.07 375.267 1545.32 375.8C1546.6 376.333 1547.56 377.133 1548.2 378.2C1548.87 379.24 1549.2 380.507 1549.2 382C1549.2 383.547 1548.79 384.853 1547.96 385.92C1547.13 386.987 1545.97 387.72 1544.48 388.12L1544.44 387.32C1545.69 387.587 1546.79 388.067 1547.72 388.76C1548.65 389.427 1549.37 390.267 1549.88 391.28C1550.41 392.267 1550.68 393.4 1550.68 394.68C1550.68 396.04 1550.45 397.24 1550 398.28C1549.57 399.32 1548.93 400.187 1548.08 400.88C1547.23 401.573 1546.21 402.107 1545.04 402.48C1543.87 402.827 1542.55 403 1541.08 403H1528.76ZM1533.84 398.32H1540.84C1541.83 398.32 1542.65 398.173 1543.32 397.88C1544.01 397.587 1544.53 397.16 1544.88 396.6C1545.25 396.013 1545.44 395.32 1545.44 394.52C1545.44 393.773 1545.24 393.133 1544.84 392.6C1544.47 392.067 1543.92 391.667 1543.2 391.4C1542.48 391.107 1541.63 390.96 1540.64 390.96H1533.84V398.32ZM1533.84 386.48H1540.2C1540.97 386.48 1541.64 386.333 1542.2 386.04C1542.79 385.747 1543.24 385.347 1543.56 384.84C1543.88 384.333 1544.04 383.747 1544.04 383.08C1544.04 382.013 1543.68 381.187 1542.96 380.6C1542.24 379.987 1541.19 379.68 1539.8 379.68H1533.84V386.48ZM1555.42 403V381.92H1560.26L1560.34 388.64L1559.66 387.12C1559.95 386.053 1560.46 385.093 1561.18 384.24C1561.9 383.387 1562.73 382.72 1563.66 382.24C1564.62 381.733 1565.62 381.48 1566.66 381.48C1567.11 381.48 1567.54 381.52 1567.94 381.6C1568.37 381.68 1568.71 381.773 1568.98 381.88L1567.66 387.28C1567.37 387.12 1567.01 386.987 1566.58 386.88C1566.15 386.773 1565.73 386.72 1565.3 386.72C1564.63 386.72 1563.99 386.853 1563.38 387.12C1562.79 387.36 1562.27 387.707 1561.82 388.16C1561.37 388.613 1561.01 389.147 1560.74 389.76C1560.5 390.347 1560.38 391.013 1560.38 391.76V403H1555.42ZM1581.24 403.4C1579.02 403.4 1577.06 402.933 1575.36 402C1573.68 401.067 1572.36 399.8 1571.4 398.2C1570.46 396.573 1570 394.72 1570 392.64C1570 390.987 1570.26 389.48 1570.8 388.12C1571.33 386.76 1572.06 385.587 1573 384.6C1573.96 383.587 1575.09 382.813 1576.4 382.28C1577.73 381.72 1579.18 381.44 1580.76 381.44C1582.14 381.44 1583.44 381.707 1584.64 382.24C1585.84 382.773 1586.88 383.507 1587.76 384.44C1588.64 385.347 1589.3 386.44 1589.76 387.72C1590.24 388.973 1590.46 390.347 1590.44 391.84L1590.4 393.56H1573.32L1572.4 390.2H1586.28L1585.64 390.88V390C1585.56 389.173 1585.29 388.453 1584.84 387.84C1584.38 387.2 1583.8 386.707 1583.08 386.36C1582.38 385.987 1581.61 385.8 1580.76 385.8C1579.45 385.8 1578.34 386.053 1577.44 386.56C1576.56 387.067 1575.89 387.8 1575.44 388.76C1574.98 389.693 1574.76 390.867 1574.76 392.28C1574.76 393.64 1575.04 394.827 1575.6 395.84C1576.18 396.853 1577 397.64 1578.04 398.2C1579.1 398.733 1580.34 399 1581.76 399C1582.74 399 1583.65 398.84 1584.48 398.52C1585.3 398.2 1586.2 397.627 1587.16 396.8L1589.6 400.2C1588.88 400.867 1588.05 401.44 1587.12 401.92C1586.21 402.373 1585.25 402.733 1584.24 403C1583.22 403.267 1582.22 403.4 1581.24 403.4ZM1602.75 403.4C1601.02 403.4 1599.45 402.92 1598.03 401.96C1596.62 401 1595.49 399.693 1594.63 398.04C1593.78 396.387 1593.35 394.507 1593.35 392.4C1593.35 390.293 1593.78 388.413 1594.63 386.76C1595.49 385.107 1596.65 383.813 1598.11 382.88C1599.58 381.947 1601.23 381.48 1603.07 381.48C1604.14 381.48 1605.11 381.64 1605.99 381.96C1606.87 382.253 1607.65 382.68 1608.31 383.24C1608.98 383.8 1609.53 384.44 1609.95 385.16C1610.41 385.88 1610.71 386.653 1610.87 387.48L1609.79 387.2V381.92H1614.75V403H1609.75V397.96L1610.91 397.76C1610.73 398.48 1610.38 399.187 1609.87 399.88C1609.39 400.547 1608.78 401.147 1608.03 401.68C1607.31 402.187 1606.5 402.6 1605.59 402.92C1604.71 403.24 1603.77 403.4 1602.75 403.4ZM1604.11 399.04C1605.26 399.04 1606.27 398.76 1607.15 398.2C1608.03 397.64 1608.71 396.867 1609.19 395.88C1609.7 394.867 1609.95 393.707 1609.95 392.4C1609.95 391.12 1609.7 389.987 1609.19 389C1608.71 388.013 1608.03 387.24 1607.15 386.68C1606.27 386.12 1605.26 385.84 1604.11 385.84C1602.97 385.84 1601.95 386.12 1601.07 386.68C1600.22 387.24 1599.55 388.013 1599.07 389C1598.59 389.987 1598.35 391.12 1598.35 392.4C1598.35 393.707 1598.59 394.867 1599.07 395.88C1599.55 396.867 1600.22 397.64 1601.07 398.2C1601.95 398.76 1602.97 399.04 1604.11 399.04ZM1625.06 396.56L1624.1 391.96L1634.1 381.92H1640.66L1625.06 396.56ZM1620.46 403V373.4H1625.38V403H1620.46ZM1634.7 403L1626.94 393.6L1630.42 390.64L1640.78 403H1634.7Z" fill="#FAFAFA"/>
<rect x="1491" y="173" width="186" height="60" rx="30" fill="#ACA5A5" fill-opacity="0.71"/>
<path d="M1579.56 222.4L1568.92 208.32L1572.96 205.56L1583.48 219.52L1579.56 222.4ZM1570.84 218.4C1568.84 218.4 1566.99 218.04 1565.28 217.32C1563.57 216.6 1562.08 215.6 1560.8 214.32C1559.55 213.013 1558.57 211.48 1557.88 209.72C1557.19 207.96 1556.84 206.04 1556.84 203.96C1556.84 201.88 1557.19 199.96 1557.88 198.2C1558.57 196.44 1559.55 194.92 1560.8 193.64C1562.08 192.333 1563.57 191.32 1565.28 190.6C1566.99 189.88 1568.84 189.52 1570.84 189.52C1572.87 189.52 1574.73 189.88 1576.44 190.6C1578.15 191.32 1579.63 192.333 1580.88 193.64C1582.13 194.947 1583.11 196.48 1583.8 198.24C1584.49 199.973 1584.84 201.88 1584.84 203.96C1584.84 206.013 1584.49 207.92 1583.8 209.68C1583.11 211.44 1582.13 212.973 1580.88 214.28C1579.63 215.587 1578.15 216.6 1576.44 217.32C1574.73 218.04 1572.87 218.4 1570.84 218.4ZM1570.84 213.44C1572.12 213.44 1573.28 213.213 1574.32 212.76C1575.39 212.28 1576.31 211.613 1577.08 210.76C1577.85 209.88 1578.45 208.867 1578.88 207.72C1579.33 206.573 1579.56 205.32 1579.56 203.96C1579.56 202.6 1579.33 201.347 1578.88 200.2C1578.45 199.053 1577.85 198.053 1577.08 197.2C1576.31 196.32 1575.39 195.653 1574.32 195.2C1573.28 194.72 1572.12 194.48 1570.84 194.48C1569.59 194.48 1568.43 194.72 1567.36 195.2C1566.29 195.653 1565.37 196.307 1564.6 197.16C1563.83 198.013 1563.23 199.013 1562.8 200.16C1562.37 201.307 1562.16 202.573 1562.16 203.96C1562.16 205.32 1562.37 206.587 1562.8 207.76C1563.23 208.907 1563.83 209.907 1564.6 210.76C1565.37 211.613 1566.29 212.28 1567.36 212.76C1568.43 213.213 1569.59 213.44 1570.84 213.44ZM1596.92 218.4C1595.4 218.4 1594.08 218.067 1592.96 217.4C1591.84 216.707 1590.99 215.733 1590.4 214.48C1589.81 213.2 1589.52 211.68 1589.52 209.92V196.92H1594.44V208.88C1594.44 210 1594.61 210.96 1594.96 211.76C1595.31 212.533 1595.81 213.133 1596.48 213.56C1597.15 213.987 1597.95 214.2 1598.88 214.2C1599.57 214.2 1600.2 214.093 1600.76 213.88C1601.35 213.64 1601.85 213.32 1602.28 212.92C1602.71 212.493 1603.04 212 1603.28 211.44C1603.52 210.853 1603.64 210.227 1603.64 209.56V196.92H1608.56V218H1603.76L1603.68 213.6L1604.56 213.12C1604.24 214.133 1603.69 215.04 1602.92 215.84C1602.17 216.613 1601.28 217.24 1600.24 217.72C1599.2 218.173 1598.09 218.4 1596.92 218.4ZM1614.89 218V196.92H1619.81V218H1614.89ZM1617.29 192.44C1616.3 192.44 1615.53 192.2 1614.97 191.72C1614.43 191.213 1614.17 190.507 1614.17 189.6C1614.17 188.747 1614.45 188.053 1615.01 187.52C1615.57 186.987 1616.33 186.72 1617.29 186.72C1618.3 186.72 1619.07 186.973 1619.61 187.48C1620.17 187.96 1620.45 188.667 1620.45 189.6C1620.45 190.427 1620.17 191.107 1619.61 191.64C1619.05 192.173 1618.27 192.44 1617.29 192.44ZM1625.16 218V214.48L1636.16 200V201.04H1625.16V196.92H1641.28V200.44L1630.6 214.64L1630.44 213.88H1641.56V218H1625.16Z" fill="#FAFAFA"/>
<defs>
<filter id="filter0_d_77_999" x="72.4" y="70.8008" width="592.857" height="337.199" filterUnits="userSpaceOnUse" color-interpolation-filters="sRGB">
<feFlood flood-opacity="0" result="BackgroundImageFix"/>
<feColorMatrix in="SourceAlpha" type="matrix" values="0 0 0 0 0 0 0 0 0 0 0 0 0 0 0 0 0 0 127 0" result="hardAlpha"/>
<feOffset dy="4"/>
<feGaussianBlur stdDeviation="2"/>
<feComposite in2="hardAlpha" operator="out"/>
<feColorMatrix type="matrix" values="0 0 0 0 0 0 0 0 0 0 0 0 0 0 0 0 0 0 0.25 0"/>
<feBlend mode="normal" in2="BackgroundImageFix" result="effect1_dropShadow_77_999"/>
<feBlend mode="normal" in="SourceGraphic" in2="effect1_dropShadow_77_999" result="shape"/>
</filter>
</defs>
</svg>
