<svg width="516" height="54" viewBox="0 0 516 54" fill="none" xmlns="http://www.w3.org/2000/svg">
<path d="M0.472 18V1.2H6.808C7.96 1.2 9.008 1.408 9.952 1.824C10.912 2.224 11.744 2.8 12.448 3.552C13.152 4.304 13.696 5.192 14.08 6.216C14.464 7.24 14.656 8.368 14.656 9.6C14.656 10.832 14.464 11.968 14.08 13.008C13.696 14.032 13.152 14.92 12.448 15.672C11.76 16.408 10.936 16.984 9.976 17.4C9.016 17.8 7.96 18 6.808 18H0.472ZM2.344 16.512L2.128 16.176H6.688C7.568 16.176 8.376 16.024 9.112 15.72C9.864 15.4 10.504 14.952 11.032 14.376C11.576 13.784 11.992 13.088 12.28 12.288C12.584 11.488 12.736 10.592 12.736 9.6C12.736 8.608 12.584 7.712 12.28 6.912C11.992 6.112 11.576 5.424 11.032 4.848C10.488 4.256 9.848 3.808 9.112 3.504C8.376 3.184 7.568 3.024 6.688 3.024H2.056L2.344 2.736V16.512ZM23.1079 18.24C21.8599 18.24 20.7479 17.968 19.7719 17.424C18.8119 16.88 18.0599 16.12 17.5159 15.144C16.9719 14.168 16.6999 13.048 16.6999 11.784C16.6999 10.808 16.8519 9.928 17.1559 9.144C17.4599 8.344 17.8839 7.648 18.4279 7.056C18.9879 6.464 19.6519 6.008 20.4199 5.688C21.1879 5.352 22.0199 5.184 22.9159 5.184C23.7639 5.184 24.5319 5.336 25.2199 5.64C25.9239 5.944 26.5239 6.368 27.0199 6.912C27.5319 7.44 27.9159 8.072 28.1719 8.808C28.4279 9.544 28.5399 10.352 28.5079 11.232L28.4839 12.072H18.0439L17.7799 10.56H27.1159L26.6839 10.968V10.392C26.6519 9.816 26.4839 9.264 26.1799 8.736C25.8759 8.192 25.4439 7.752 24.8839 7.416C24.3399 7.08 23.6839 6.912 22.9159 6.912C22.0199 6.912 21.2439 7.096 20.5879 7.464C19.9319 7.816 19.4279 8.344 19.0759 9.048C18.7239 9.752 18.5479 10.624 18.5479 11.664C18.5479 12.656 18.7399 13.52 19.1239 14.256C19.5079 14.976 20.0519 15.536 20.7559 15.936C21.4759 16.336 22.3399 16.536 23.3479 16.536C23.9399 16.536 24.5239 16.44 25.0999 16.248C25.6919 16.04 26.3399 15.64 27.0439 15.048L27.9799 16.344C27.6119 16.712 27.1719 17.04 26.6599 17.328C26.1479 17.6 25.5879 17.824 24.9799 18C24.3719 18.16 23.7479 18.24 23.1079 18.24ZM35.1685 18.24C34.0965 18.24 33.1365 18.04 32.2885 17.64C31.4405 17.24 30.7685 16.712 30.2725 16.056L31.5445 14.952C32.0085 15.512 32.5525 15.936 33.1765 16.224C33.8165 16.512 34.5285 16.656 35.3125 16.656C35.7125 16.656 36.0725 16.616 36.3925 16.536C36.7125 16.44 36.9925 16.304 37.2325 16.128C37.4725 15.952 37.6565 15.744 37.7845 15.504C37.9125 15.264 37.9765 15 37.9765 14.712C37.9765 14.184 37.7445 13.744 37.2805 13.392C37.0725 13.248 36.7765 13.104 36.3925 12.96C36.0085 12.8 35.5445 12.648 35.0005 12.504C34.1045 12.248 33.3605 11.992 32.7685 11.736C32.1765 11.464 31.7125 11.152 31.3765 10.8C31.1365 10.512 30.9525 10.2 30.8245 9.864C30.7125 9.528 30.6565 9.16 30.6565 8.76C30.6565 8.248 30.7605 7.776 30.9685 7.344C31.1925 6.912 31.4965 6.536 31.8805 6.216C32.2805 5.88 32.7445 5.632 33.2725 5.472C33.8165 5.296 34.4005 5.208 35.0245 5.208C35.6165 5.208 36.2005 5.288 36.7765 5.448C37.3525 5.608 37.8885 5.84 38.3845 6.144C38.8805 6.448 39.3045 6.808 39.6565 7.224L38.5525 8.424C38.2485 8.104 37.9125 7.816 37.5445 7.56C37.1765 7.304 36.7845 7.104 36.3685 6.96C35.9685 6.816 35.5525 6.744 35.1205 6.744C34.7365 6.744 34.3765 6.792 34.0405 6.888C33.7205 6.984 33.4405 7.12 33.2005 7.296C32.9765 7.456 32.8005 7.656 32.6725 7.896C32.5605 8.136 32.5045 8.4 32.5045 8.688C32.5045 8.928 32.5525 9.144 32.6485 9.336C32.7445 9.528 32.8805 9.696 33.0565 9.84C33.2805 10.016 33.5925 10.184 33.9925 10.344C34.4085 10.488 34.9205 10.64 35.5285 10.8C36.2325 10.992 36.8245 11.192 37.3045 11.4C37.8005 11.592 38.2085 11.824 38.5285 12.096C38.9605 12.416 39.2645 12.784 39.4405 13.2C39.6325 13.616 39.7285 14.088 39.7285 14.616C39.7285 15.32 39.5285 15.944 39.1285 16.488C38.7445 17.032 38.2085 17.464 37.5205 17.784C36.8325 18.088 36.0485 18.24 35.1685 18.24ZM43.0289 18V5.472H44.8289V18H43.0289ZM43.9169 2.76C43.4689 2.76 43.1249 2.648 42.8849 2.424C42.6609 2.184 42.5489 1.864 42.5489 1.464C42.5489 1.064 42.6689 0.743999 42.9089 0.503999C43.1489 0.263999 43.4849 0.144 43.9169 0.144C44.3489 0.144 44.6849 0.263999 44.9249 0.503999C45.1649 0.727999 45.2849 1.048 45.2849 1.464C45.2849 1.848 45.1649 2.16 44.9249 2.4C44.6849 2.64 44.3489 2.76 43.9169 2.76ZM54.1598 23.52C53.2318 23.52 52.3518 23.376 51.5198 23.088C50.6878 22.8 49.9998 22.44 49.4558 22.008L50.1758 20.496C50.4958 20.752 50.8638 20.976 51.2798 21.168C51.7118 21.376 52.1758 21.536 52.6718 21.648C53.1678 21.776 53.6718 21.84 54.1838 21.84C55.1118 21.84 55.8958 21.664 56.5358 21.312C57.1918 20.976 57.6878 20.472 58.0238 19.8C58.3758 19.128 58.5518 18.296 58.5518 17.304V14.904L58.8398 14.832C58.6958 15.44 58.3838 16.008 57.9038 16.536C57.4238 17.048 56.8398 17.464 56.1518 17.784C55.4638 18.088 54.7358 18.24 53.9678 18.24C52.7998 18.24 51.7518 17.96 50.8238 17.4C49.9118 16.84 49.1918 16.072 48.6638 15.096C48.1358 14.104 47.8718 12.984 47.8718 11.736C47.8718 10.472 48.1358 9.352 48.6638 8.376C49.2078 7.384 49.9358 6.608 50.8478 6.048C51.7598 5.488 52.7838 5.208 53.9198 5.208C54.4158 5.208 54.8958 5.272 55.3598 5.4C55.8238 5.512 56.2478 5.68 56.6318 5.904C57.0318 6.128 57.3918 6.384 57.7118 6.672C58.0318 6.96 58.2958 7.272 58.5038 7.608C58.7278 7.944 58.8878 8.288 58.9838 8.64L58.4798 8.568L58.5518 5.472H60.3518V17.232C60.3518 18.24 60.2078 19.128 59.9198 19.896C59.6318 20.68 59.2078 21.336 58.6478 21.864C58.1038 22.408 57.4478 22.816 56.6798 23.088C55.9278 23.376 55.0878 23.52 54.1598 23.52ZM54.1838 16.512C55.0318 16.512 55.7838 16.312 56.4398 15.912C57.1118 15.496 57.6398 14.928 58.0238 14.208C58.4078 13.488 58.5998 12.656 58.5998 11.712C58.5998 10.784 58.4078 9.96 58.0238 9.24C57.6558 8.52 57.1358 7.952 56.4638 7.536C55.7918 7.12 55.0318 6.912 54.1838 6.912C53.3198 6.912 52.5518 7.12 51.8798 7.536C51.2238 7.952 50.7038 8.52 50.3198 9.24C49.9358 9.96 49.7438 10.784 49.7438 11.712C49.7438 12.624 49.9278 13.448 50.2958 14.184C50.6798 14.904 51.1998 15.472 51.8558 15.888C52.5278 16.304 53.3038 16.512 54.1838 16.512ZM63.8536 18V5.472H65.6296L65.7016 8.088L65.4136 8.208C65.5736 7.664 65.8856 7.168 66.3496 6.72C66.8136 6.272 67.3656 5.912 68.0056 5.64C68.6616 5.352 69.3336 5.208 70.0216 5.208C70.9496 5.208 71.7256 5.392 72.3496 5.76C72.9736 6.128 73.4456 6.696 73.7656 7.464C74.0856 8.232 74.2456 9.208 74.2456 10.392V18H72.4216V10.488C72.4216 9.656 72.3096 8.976 72.0856 8.448C71.8776 7.904 71.5496 7.504 71.1016 7.248C70.6536 6.992 70.1016 6.872 69.4456 6.888C68.9016 6.888 68.3976 6.984 67.9336 7.176C67.4696 7.352 67.0696 7.6 66.7336 7.92C66.3976 8.24 66.1336 8.608 65.9416 9.024C65.7496 9.44 65.6536 9.888 65.6536 10.368V18H64.7656C64.6536 18 64.5256 18 64.3816 18C64.2376 18 64.0616 18 63.8536 18ZM83.2017 18.24C81.9537 18.24 80.8417 17.968 79.8657 17.424C78.9057 16.88 78.1537 16.12 77.6097 15.144C77.0657 14.168 76.7937 13.048 76.7937 11.784C76.7937 10.808 76.9457 9.928 77.2497 9.144C77.5537 8.344 77.9777 7.648 78.5217 7.056C79.0817 6.464 79.7457 6.008 80.5137 5.688C81.2817 5.352 82.1137 5.184 83.0097 5.184C83.8577 5.184 84.6257 5.336 85.3137 5.64C86.0177 5.944 86.6177 6.368 87.1137 6.912C87.6257 7.44 88.0097 8.072 88.2657 8.808C88.5217 9.544 88.6337 10.352 88.6017 11.232L88.5777 12.072H78.1377L77.8737 10.56H87.2097L86.7777 10.968V10.392C86.7457 9.816 86.5777 9.264 86.2737 8.736C85.9697 8.192 85.5377 7.752 84.9777 7.416C84.4337 7.08 83.7777 6.912 83.0097 6.912C82.1137 6.912 81.3377 7.096 80.6817 7.464C80.0257 7.816 79.5217 8.344 79.1697 9.048C78.8177 9.752 78.6417 10.624 78.6417 11.664C78.6417 12.656 78.8337 13.52 79.2177 14.256C79.6017 14.976 80.1457 15.536 80.8497 15.936C81.5697 16.336 82.4337 16.536 83.4417 16.536C84.0337 16.536 84.6177 16.44 85.1937 16.248C85.7857 16.04 86.4337 15.64 87.1377 15.048L88.0737 16.344C87.7057 16.712 87.2657 17.04 86.7537 17.328C86.2417 17.6 85.6817 17.824 85.0737 18C84.4657 18.16 83.8417 18.24 83.2017 18.24ZM91.1583 18V5.472H92.9583L93.0063 8.808L92.8143 8.352C92.9903 7.792 93.2703 7.272 93.6543 6.792C94.0543 6.312 94.5263 5.928 95.0703 5.64C95.6143 5.352 96.2143 5.208 96.8703 5.208C97.1423 5.208 97.3983 5.232 97.6383 5.28C97.8783 5.312 98.0783 5.36 98.2383 5.424L97.7343 7.44C97.5263 7.344 97.3103 7.28 97.0863 7.248C96.8783 7.2 96.6783 7.176 96.4863 7.176C95.9423 7.176 95.4543 7.272 95.0223 7.464C94.5903 7.656 94.2223 7.928 93.9183 8.28C93.6143 8.616 93.3823 9.008 93.2223 9.456C93.0623 9.904 92.9823 10.384 92.9823 10.896V18H91.1583ZM104.215 18.24C103.143 18.24 102.183 18.04 101.335 17.64C100.487 17.24 99.8154 16.712 99.3194 16.056L100.591 14.952C101.055 15.512 101.599 15.936 102.223 16.224C102.863 16.512 103.575 16.656 104.359 16.656C104.759 16.656 105.119 16.616 105.439 16.536C105.759 16.44 106.039 16.304 106.279 16.128C106.519 15.952 106.703 15.744 106.831 15.504C106.959 15.264 107.023 15 107.023 14.712C107.023 14.184 106.791 13.744 106.327 13.392C106.119 13.248 105.823 13.104 105.439 12.96C105.055 12.8 104.591 12.648 104.047 12.504C103.151 12.248 102.407 11.992 101.815 11.736C101.223 11.464 100.759 11.152 100.423 10.8C100.183 10.512 99.9994 10.2 99.8714 9.864C99.7594 9.528 99.7034 9.16 99.7034 8.76C99.7034 8.248 99.8074 7.776 100.015 7.344C100.239 6.912 100.543 6.536 100.927 6.216C101.327 5.88 101.791 5.632 102.319 5.472C102.863 5.296 103.447 5.208 104.071 5.208C104.663 5.208 105.247 5.288 105.823 5.448C106.399 5.608 106.935 5.84 107.431 6.144C107.927 6.448 108.351 6.808 108.703 7.224L107.599 8.424C107.295 8.104 106.959 7.816 106.591 7.56C106.223 7.304 105.831 7.104 105.415 6.96C105.015 6.816 104.599 6.744 104.167 6.744C103.783 6.744 103.423 6.792 103.087 6.888C102.767 6.984 102.487 7.12 102.247 7.296C102.023 7.456 101.847 7.656 101.719 7.896C101.607 8.136 101.551 8.4 101.551 8.688C101.551 8.928 101.599 9.144 101.695 9.336C101.791 9.528 101.927 9.696 102.103 9.84C102.327 10.016 102.639 10.184 103.039 10.344C103.455 10.488 103.967 10.64 104.575 10.8C105.279 10.992 105.871 11.192 106.351 11.4C106.847 11.592 107.255 11.824 107.575 12.096C108.007 12.416 108.311 12.784 108.487 13.2C108.679 13.616 108.775 14.088 108.775 14.616C108.775 15.32 108.575 15.944 108.175 16.488C107.791 17.032 107.255 17.464 106.567 17.784C105.879 18.088 105.095 18.24 104.215 18.24ZM112.58 18.24C112.148 18.24 111.812 18.112 111.572 17.856C111.348 17.6 111.236 17.232 111.236 16.752C111.236 16.32 111.356 15.968 111.596 15.696C111.852 15.408 112.18 15.264 112.58 15.264C113.012 15.264 113.34 15.4 113.564 15.672C113.804 15.928 113.924 16.288 113.924 16.752C113.924 17.2 113.796 17.56 113.54 17.832C113.3 18.104 112.98 18.24 112.58 18.24ZM112.58 8.184C112.148 8.184 111.812 8.056 111.572 7.8C111.348 7.544 111.236 7.176 111.236 6.696C111.236 6.264 111.356 5.912 111.596 5.64C111.852 5.352 112.18 5.208 112.58 5.208C113.012 5.208 113.34 5.344 113.564 5.616C113.804 5.872 113.924 6.232 113.924 6.696C113.924 7.144 113.796 7.504 113.54 7.776C113.3 8.048 112.98 8.184 112.58 8.184ZM129.399 18.24C128.551 18.24 127.751 18.12 126.999 17.88C126.247 17.64 125.559 17.28 124.935 16.8C124.311 16.32 123.759 15.728 123.279 15.024L124.575 13.584C125.327 14.656 126.095 15.408 126.879 15.84C127.679 16.272 128.575 16.488 129.567 16.488C130.287 16.488 130.943 16.368 131.535 16.128C132.127 15.888 132.591 15.552 132.927 15.12C133.263 14.688 133.431 14.192 133.431 13.632C133.431 13.264 133.367 12.936 133.239 12.648C133.127 12.36 132.951 12.104 132.711 11.88C132.471 11.656 132.175 11.456 131.823 11.28C131.471 11.104 131.063 10.944 130.599 10.8C130.151 10.656 129.647 10.512 129.087 10.368C128.271 10.176 127.551 9.952 126.927 9.696C126.319 9.424 125.799 9.096 125.367 8.712C124.951 8.328 124.631 7.888 124.407 7.392C124.199 6.88 124.095 6.28 124.095 5.592C124.095 4.936 124.231 4.328 124.503 3.768C124.791 3.208 125.183 2.728 125.679 2.328C126.175 1.912 126.759 1.592 127.431 1.368C128.103 1.144 128.823 1.032 129.591 1.032C130.455 1.032 131.223 1.152 131.895 1.392C132.583 1.616 133.191 1.952 133.719 2.4C134.247 2.848 134.703 3.384 135.087 4.008L133.767 5.304C133.431 4.776 133.047 4.32 132.615 3.936C132.199 3.552 131.735 3.264 131.223 3.072C130.727 2.864 130.175 2.76 129.567 2.76C128.863 2.76 128.239 2.88 127.695 3.12C127.167 3.36 126.751 3.696 126.447 4.128C126.143 4.544 125.991 5.024 125.991 5.568C125.991 5.968 126.063 6.328 126.207 6.648C126.351 6.952 126.575 7.224 126.879 7.464C127.199 7.688 127.607 7.896 128.103 8.088C128.615 8.264 129.223 8.432 129.927 8.592C130.759 8.784 131.503 9.016 132.159 9.288C132.831 9.56 133.399 9.888 133.863 10.272C134.343 10.64 134.703 11.072 134.943 11.568C135.199 12.064 135.327 12.632 135.327 13.272C135.327 14.264 135.079 15.136 134.583 15.888C134.087 16.624 133.391 17.2 132.495 17.616C131.615 18.032 130.583 18.24 129.399 18.24ZM143.281 18.24C142.193 18.24 141.209 17.96 140.329 17.4C139.449 16.824 138.753 16.048 138.241 15.072C137.729 14.08 137.473 12.96 137.473 11.712C137.473 10.448 137.737 9.328 138.265 8.352C138.793 7.376 139.497 6.608 140.377 6.048C141.273 5.488 142.273 5.208 143.377 5.208C144.033 5.208 144.641 5.304 145.201 5.496C145.761 5.688 146.257 5.96 146.689 6.312C147.137 6.648 147.505 7.048 147.793 7.512C148.097 7.96 148.305 8.448 148.417 8.976L147.889 8.712L147.961 5.472H149.761V18H147.937V14.928L148.417 14.616C148.305 15.096 148.089 15.56 147.769 16.008C147.449 16.44 147.057 16.824 146.593 17.16C146.145 17.496 145.633 17.76 145.057 17.952C144.497 18.144 143.905 18.24 143.281 18.24ZM143.689 16.512C144.521 16.512 145.265 16.312 145.921 15.912C146.577 15.496 147.089 14.928 147.457 14.208C147.841 13.472 148.033 12.64 148.033 11.712C148.033 10.784 147.841 9.96 147.457 9.24C147.089 8.52 146.577 7.952 145.921 7.536C145.265 7.12 144.521 6.912 143.689 6.912C142.841 6.912 142.089 7.12 141.433 7.536C140.793 7.952 140.281 8.52 139.897 9.24C139.529 9.96 139.345 10.784 139.345 11.712C139.345 12.624 139.529 13.448 139.897 14.184C140.265 14.904 140.777 15.472 141.433 15.888C142.089 16.304 142.841 16.512 143.689 16.512ZM153.268 18V5.472H155.044L155.116 8.088L154.828 8.208C154.988 7.664 155.3 7.168 155.764 6.72C156.228 6.272 156.78 5.912 157.42 5.64C158.076 5.352 158.748 5.208 159.436 5.208C160.364 5.208 161.14 5.392 161.764 5.76C162.388 6.128 162.86 6.696 163.18 7.464C163.5 8.232 163.66 9.208 163.66 10.392V18H161.836V10.488C161.836 9.656 161.724 8.976 161.5 8.448C161.292 7.904 160.964 7.504 160.516 7.248C160.068 6.992 159.516 6.872 158.86 6.888C158.316 6.888 157.812 6.984 157.348 7.176C156.884 7.352 156.484 7.6 156.148 7.92C155.812 8.24 155.548 8.608 155.356 9.024C155.164 9.44 155.068 9.888 155.068 10.368V18H154.18C154.068 18 153.94 18 153.796 18C153.652 18 153.476 18 153.268 18ZM171.992 18.24C170.904 18.24 169.92 17.96 169.04 17.4C168.16 16.824 167.464 16.048 166.952 15.072C166.44 14.08 166.184 12.96 166.184 11.712C166.184 10.448 166.448 9.328 166.976 8.352C167.504 7.376 168.208 6.608 169.088 6.048C169.984 5.488 170.984 5.208 172.088 5.208C172.744 5.208 173.352 5.304 173.912 5.496C174.472 5.688 174.968 5.96 175.4 6.312C175.848 6.648 176.216 7.048 176.504 7.512C176.808 7.96 177.016 8.448 177.128 8.976L176.6 8.712L176.672 5.472H178.472V18H176.648V14.928L177.128 14.616C177.016 15.096 176.8 15.56 176.48 16.008C176.16 16.44 175.768 16.824 175.304 17.16C174.856 17.496 174.344 17.76 173.768 17.952C173.208 18.144 172.616 18.24 171.992 18.24ZM172.4 16.512C173.232 16.512 173.976 16.312 174.632 15.912C175.288 15.496 175.8 14.928 176.168 14.208C176.552 13.472 176.744 12.64 176.744 11.712C176.744 10.784 176.552 9.96 176.168 9.24C175.8 8.52 175.288 7.952 174.632 7.536C173.976 7.12 173.232 6.912 172.4 6.912C171.552 6.912 170.8 7.12 170.144 7.536C169.504 7.952 168.992 8.52 168.608 9.24C168.24 9.96 168.056 10.784 168.056 11.712C168.056 12.624 168.24 13.448 168.608 14.184C168.976 14.904 169.488 15.472 170.144 15.888C170.8 16.304 171.552 16.512 172.4 16.512ZM194.321 18.24C193.473 18.24 192.673 18.12 191.921 17.88C191.169 17.64 190.481 17.28 189.857 16.8C189.233 16.32 188.681 15.728 188.201 15.024L189.497 13.584C190.249 14.656 191.017 15.408 191.801 15.84C192.601 16.272 193.497 16.488 194.489 16.488C195.209 16.488 195.865 16.368 196.457 16.128C197.049 15.888 197.513 15.552 197.849 15.12C198.185 14.688 198.353 14.192 198.353 13.632C198.353 13.264 198.289 12.936 198.161 12.648C198.049 12.36 197.873 12.104 197.633 11.88C197.393 11.656 197.097 11.456 196.745 11.28C196.393 11.104 195.985 10.944 195.521 10.8C195.073 10.656 194.569 10.512 194.009 10.368C193.193 10.176 192.473 9.952 191.849 9.696C191.241 9.424 190.721 9.096 190.289 8.712C189.873 8.328 189.553 7.888 189.329 7.392C189.121 6.88 189.017 6.28 189.017 5.592C189.017 4.936 189.153 4.328 189.425 3.768C189.713 3.208 190.105 2.728 190.601 2.328C191.097 1.912 191.681 1.592 192.353 1.368C193.025 1.144 193.745 1.032 194.513 1.032C195.377 1.032 196.145 1.152 196.817 1.392C197.505 1.616 198.113 1.952 198.641 2.4C199.169 2.848 199.625 3.384 200.009 4.008L198.689 5.304C198.353 4.776 197.969 4.32 197.537 3.936C197.121 3.552 196.657 3.264 196.145 3.072C195.649 2.864 195.097 2.76 194.489 2.76C193.785 2.76 193.161 2.88 192.617 3.12C192.089 3.36 191.673 3.696 191.369 4.128C191.065 4.544 190.913 5.024 190.913 5.568C190.913 5.968 190.985 6.328 191.129 6.648C191.273 6.952 191.497 7.224 191.801 7.464C192.121 7.688 192.529 7.896 193.025 8.088C193.537 8.264 194.145 8.432 194.849 8.592C195.681 8.784 196.425 9.016 197.081 9.288C197.753 9.56 198.321 9.888 198.785 10.272C199.265 10.64 199.625 11.072 199.865 11.568C200.121 12.064 200.249 12.632 200.249 13.272C200.249 14.264 200.001 15.136 199.505 15.888C199.009 16.624 198.313 17.2 197.417 17.616C196.537 18.032 195.505 18.24 194.321 18.24ZM203.307 18V0.24H205.107V8.208L204.747 8.568C204.923 7.912 205.251 7.336 205.731 6.84C206.211 6.328 206.771 5.928 207.411 5.64C208.067 5.352 208.731 5.208 209.403 5.208C210.363 5.208 211.163 5.392 211.803 5.76C212.443 6.128 212.915 6.696 213.219 7.464C213.539 8.232 213.699 9.208 213.699 10.392V18H211.875V10.488C211.875 9.656 211.763 8.976 211.539 8.448C211.331 7.904 211.003 7.504 210.555 7.248C210.107 6.992 209.547 6.872 208.875 6.888C208.347 6.888 207.851 6.984 207.387 7.176C206.923 7.352 206.523 7.6 206.187 7.92C205.851 8.24 205.587 8.608 205.395 9.024C205.203 9.44 205.107 9.888 205.107 10.368V18H204.219C204.107 18 203.979 18 203.835 18C203.691 18 203.515 18 203.307 18ZM222.031 18.24C220.943 18.24 219.959 17.96 219.079 17.4C218.199 16.824 217.503 16.048 216.991 15.072C216.479 14.08 216.223 12.96 216.223 11.712C216.223 10.448 216.487 9.328 217.015 8.352C217.543 7.376 218.247 6.608 219.127 6.048C220.023 5.488 221.023 5.208 222.127 5.208C222.783 5.208 223.391 5.304 223.951 5.496C224.511 5.688 225.007 5.96 225.439 6.312C225.887 6.648 226.255 7.048 226.543 7.512C226.847 7.96 227.055 8.448 227.167 8.976L226.639 8.712L226.711 5.472H228.511V18H226.687V14.928L227.167 14.616C227.055 15.096 226.839 15.56 226.519 16.008C226.199 16.44 225.807 16.824 225.343 17.16C224.895 17.496 224.383 17.76 223.807 17.952C223.247 18.144 222.655 18.24 222.031 18.24ZM222.439 16.512C223.271 16.512 224.015 16.312 224.671 15.912C225.327 15.496 225.839 14.928 226.207 14.208C226.591 13.472 226.783 12.64 226.783 11.712C226.783 10.784 226.591 9.96 226.207 9.24C225.839 8.52 225.327 7.952 224.671 7.536C224.015 7.12 223.271 6.912 222.439 6.912C221.591 6.912 220.839 7.12 220.183 7.536C219.543 7.952 219.031 8.52 218.647 9.24C218.279 9.96 218.095 10.784 218.095 11.712C218.095 12.624 218.279 13.448 218.647 14.184C219.015 14.904 219.527 15.472 220.183 15.888C220.839 16.304 221.591 16.512 222.439 16.512ZM231.994 18V5.472H233.794L233.842 8.328L233.482 8.448C233.61 7.968 233.818 7.536 234.106 7.152C234.41 6.752 234.77 6.408 235.186 6.12C235.602 5.832 236.058 5.616 236.554 5.472C237.05 5.312 237.57 5.232 238.114 5.232C238.77 5.232 239.354 5.344 239.866 5.568C240.394 5.776 240.834 6.144 241.186 6.672C241.554 7.184 241.834 7.864 242.026 8.712L241.594 8.496L241.762 8.088C241.922 7.72 242.154 7.368 242.458 7.032C242.778 6.68 243.138 6.368 243.538 6.096C243.954 5.824 244.402 5.616 244.882 5.472C245.378 5.312 245.882 5.232 246.394 5.232C247.274 5.232 248.018 5.424 248.626 5.808C249.234 6.176 249.69 6.744 249.994 7.512C250.314 8.28 250.474 9.256 250.474 10.44V18H248.626V10.536C248.626 9.704 248.522 9.024 248.314 8.496C248.106 7.968 247.794 7.576 247.378 7.32C246.978 7.048 246.466 6.912 245.842 6.912C245.298 6.912 244.794 7.008 244.33 7.2C243.882 7.376 243.49 7.632 243.154 7.968C242.834 8.288 242.578 8.656 242.386 9.072C242.21 9.488 242.122 9.936 242.122 10.416V18H240.298V10.512C240.298 9.712 240.186 9.048 239.962 8.52C239.754 7.992 239.442 7.592 239.026 7.32C238.61 7.048 238.098 6.912 237.49 6.912C236.962 6.912 236.474 7.008 236.026 7.2C235.578 7.376 235.186 7.624 234.85 7.944C234.53 8.264 234.274 8.632 234.082 9.048C233.906 9.464 233.818 9.912 233.818 10.392V18H231.994ZM257.989 18.24C256.917 18.24 255.957 18.04 255.109 17.64C254.261 17.24 253.589 16.712 253.093 16.056L254.365 14.952C254.829 15.512 255.373 15.936 255.997 16.224C256.637 16.512 257.349 16.656 258.133 16.656C258.533 16.656 258.893 16.616 259.213 16.536C259.533 16.44 259.813 16.304 260.053 16.128C260.293 15.952 260.477 15.744 260.605 15.504C260.733 15.264 260.797 15 260.797 14.712C260.797 14.184 260.565 13.744 260.101 13.392C259.893 13.248 259.597 13.104 259.213 12.96C258.829 12.8 258.365 12.648 257.821 12.504C256.925 12.248 256.181 11.992 255.589 11.736C254.997 11.464 254.533 11.152 254.197 10.8C253.957 10.512 253.773 10.2 253.645 9.864C253.533 9.528 253.477 9.16 253.477 8.76C253.477 8.248 253.581 7.776 253.789 7.344C254.013 6.912 254.317 6.536 254.701 6.216C255.101 5.88 255.565 5.632 256.093 5.472C256.637 5.296 257.221 5.208 257.845 5.208C258.437 5.208 259.021 5.288 259.597 5.448C260.173 5.608 260.709 5.84 261.205 6.144C261.701 6.448 262.125 6.808 262.477 7.224L261.373 8.424C261.069 8.104 260.733 7.816 260.365 7.56C259.997 7.304 259.605 7.104 259.189 6.96C258.789 6.816 258.373 6.744 257.941 6.744C257.557 6.744 257.197 6.792 256.861 6.888C256.541 6.984 256.261 7.12 256.021 7.296C255.797 7.456 255.621 7.656 255.493 7.896C255.381 8.136 255.325 8.4 255.325 8.688C255.325 8.928 255.373 9.144 255.469 9.336C255.565 9.528 255.701 9.696 255.877 9.84C256.101 10.016 256.413 10.184 256.813 10.344C257.229 10.488 257.741 10.64 258.349 10.8C259.053 10.992 259.645 11.192 260.125 11.4C260.621 11.592 261.029 11.824 261.349 12.096C261.781 12.416 262.085 12.784 262.261 13.2C262.453 13.616 262.549 14.088 262.549 14.616C262.549 15.32 262.349 15.944 261.949 16.488C261.565 17.032 261.029 17.464 260.341 17.784C259.653 18.088 258.869 18.24 257.989 18.24ZM265.609 21.96L264.937 21.096C265.449 20.792 265.849 20.464 266.137 20.112C266.425 19.76 266.569 19.424 266.569 19.104C266.569 18.928 266.537 18.76 266.473 18.6C266.409 18.44 266.249 18.24 265.993 18C265.769 17.792 265.601 17.592 265.489 17.4C265.393 17.208 265.345 17.008 265.345 16.8C265.345 16.48 265.457 16.224 265.681 16.032C265.905 15.824 266.201 15.72 266.569 15.72C266.937 15.72 267.257 15.816 267.529 16.008C267.801 16.2 268.009 16.472 268.153 16.824C268.313 17.16 268.393 17.56 268.393 18.024C268.393 18.456 268.329 18.856 268.201 19.224C268.073 19.608 267.889 19.968 267.649 20.304C267.409 20.64 267.121 20.944 266.785 21.216C266.449 21.488 266.057 21.736 265.609 21.96ZM278.792 18V1.2H280.616L287.072 11.688L286.208 11.664L292.736 1.2H294.44V18H292.568V10.32C292.568 8.88 292.592 7.584 292.64 6.432C292.688 5.28 292.776 4.136 292.904 3L293.24 3.672L287.216 13.128H285.92L280.064 3.792L280.328 3C280.456 4.072 280.544 5.176 280.592 6.312C280.64 7.432 280.664 8.768 280.664 10.32V18H278.792ZM299.154 18V5.472H300.954V18H299.154ZM300.042 2.76C299.594 2.76 299.25 2.648 299.01 2.424C298.786 2.184 298.674 1.864 298.674 1.464C298.674 1.064 298.794 0.743999 299.034 0.503999C299.274 0.263999 299.61 0.144 300.042 0.144C300.474 0.144 300.81 0.263999 301.05 0.503999C301.29 0.727999 301.41 1.048 301.41 1.464C301.41 1.848 301.29 2.16 301.05 2.4C300.81 2.64 300.474 2.76 300.042 2.76ZM310.165 18.24C308.981 18.24 307.925 17.96 306.997 17.4C306.069 16.824 305.333 16.048 304.789 15.072C304.261 14.08 303.997 12.96 303.997 11.712C303.997 10.464 304.261 9.352 304.789 8.376C305.333 7.384 306.069 6.608 306.997 6.048C307.925 5.488 308.989 5.208 310.189 5.208C311.261 5.208 312.237 5.424 313.117 5.856C313.997 6.272 314.701 6.856 315.229 7.608L314.173 8.904C313.869 8.504 313.501 8.152 313.069 7.848C312.653 7.544 312.197 7.312 311.701 7.152C311.221 6.976 310.741 6.888 310.261 6.888C309.413 6.888 308.653 7.104 307.981 7.536C307.309 7.952 306.773 8.52 306.373 9.24C305.989 9.96 305.797 10.784 305.797 11.712C305.797 12.64 305.989 13.472 306.373 14.208C306.773 14.928 307.309 15.496 307.981 15.912C308.653 16.328 309.405 16.536 310.237 16.536C310.717 16.536 311.189 16.464 311.653 16.32C312.117 16.16 312.557 15.936 312.973 15.648C313.389 15.36 313.773 15 314.125 14.568L315.181 15.864C314.637 16.584 313.909 17.16 312.997 17.592C312.085 18.024 311.141 18.24 310.165 18.24ZM317.518 18V0.24H319.318V8.208L318.958 8.568C319.134 7.912 319.462 7.336 319.942 6.84C320.422 6.328 320.982 5.928 321.622 5.64C322.278 5.352 322.942 5.208 323.614 5.208C324.574 5.208 325.374 5.392 326.014 5.76C326.654 6.128 327.126 6.696 327.43 7.464C327.75 8.232 327.91 9.208 327.91 10.392V18H326.086V10.488C326.086 9.656 325.974 8.976 325.75 8.448C325.542 7.904 325.214 7.504 324.766 7.248C324.318 6.992 323.758 6.872 323.086 6.888C322.558 6.888 322.062 6.984 321.598 7.176C321.134 7.352 320.734 7.6 320.398 7.92C320.062 8.24 319.798 8.608 319.606 9.024C319.414 9.44 319.318 9.888 319.318 10.368V18H318.43C318.318 18 318.19 18 318.046 18C317.902 18 317.726 18 317.518 18ZM336.866 18.24C335.618 18.24 334.506 17.968 333.53 17.424C332.57 16.88 331.818 16.12 331.274 15.144C330.73 14.168 330.458 13.048 330.458 11.784C330.458 10.808 330.61 9.928 330.914 9.144C331.218 8.344 331.642 7.648 332.186 7.056C332.746 6.464 333.41 6.008 334.178 5.688C334.946 5.352 335.778 5.184 336.674 5.184C337.522 5.184 338.29 5.336 338.978 5.64C339.682 5.944 340.282 6.368 340.778 6.912C341.29 7.44 341.674 8.072 341.93 8.808C342.186 9.544 342.298 10.352 342.266 11.232L342.242 12.072H331.802L331.538 10.56H340.874L340.442 10.968V10.392C340.41 9.816 340.242 9.264 339.938 8.736C339.634 8.192 339.202 7.752 338.642 7.416C338.098 7.08 337.442 6.912 336.674 6.912C335.778 6.912 335.002 7.096 334.346 7.464C333.69 7.816 333.186 8.344 332.834 9.048C332.482 9.752 332.306 10.624 332.306 11.664C332.306 12.656 332.498 13.52 332.882 14.256C333.266 14.976 333.81 15.536 334.514 15.936C335.234 16.336 336.098 16.536 337.106 16.536C337.698 16.536 338.282 16.44 338.858 16.248C339.45 16.04 340.098 15.64 340.802 15.048L341.738 16.344C341.37 16.712 340.93 17.04 340.418 17.328C339.906 17.6 339.346 17.824 338.738 18C338.13 18.16 337.506 18.24 336.866 18.24ZM344.87 18V0.24H346.67V18H344.87ZM350.261 18V0.24H352.061V18H350.261ZM360.889 18.24C359.641 18.24 358.529 17.968 357.553 17.424C356.593 16.88 355.841 16.12 355.297 15.144C354.753 14.168 354.481 13.048 354.481 11.784C354.481 10.808 354.633 9.928 354.937 9.144C355.241 8.344 355.665 7.648 356.209 7.056C356.769 6.464 357.433 6.008 358.201 5.688C358.969 5.352 359.801 5.184 360.697 5.184C361.545 5.184 362.313 5.336 363.001 5.64C363.705 5.944 364.305 6.368 364.801 6.912C365.313 7.44 365.697 8.072 365.953 8.808C366.209 9.544 366.321 10.352 366.289 11.232L366.265 12.072H355.825L355.561 10.56H364.897L364.465 10.968V10.392C364.433 9.816 364.265 9.264 363.961 8.736C363.657 8.192 363.225 7.752 362.665 7.416C362.121 7.08 361.465 6.912 360.697 6.912C359.801 6.912 359.025 7.096 358.369 7.464C357.713 7.816 357.209 8.344 356.857 9.048C356.505 9.752 356.329 10.624 356.329 11.664C356.329 12.656 356.521 13.52 356.905 14.256C357.289 14.976 357.833 15.536 358.537 15.936C359.257 16.336 360.121 16.536 361.129 16.536C361.721 16.536 362.305 16.44 362.881 16.248C363.473 16.04 364.121 15.64 364.825 15.048L365.761 16.344C365.393 16.712 364.953 17.04 364.441 17.328C363.929 17.6 363.369 17.824 362.761 18C362.153 18.16 361.529 18.24 360.889 18.24ZM379.484 18L374.42 1.2H376.436L379.676 12.288C379.804 12.672 379.908 13.04 379.988 13.392C380.084 13.728 380.164 14.056 380.228 14.376C380.292 14.68 380.356 14.992 380.42 15.312C380.484 15.616 380.548 15.936 380.612 16.272L380.204 16.248C380.412 15.512 380.58 14.928 380.708 14.496C380.852 14.064 380.988 13.68 381.116 13.344C381.244 13.008 381.388 12.624 381.548 12.192L384.38 5.064H386.132L388.988 12.264C389.18 12.712 389.348 13.136 389.492 13.536C389.636 13.936 389.772 14.344 389.9 14.76C390.044 15.176 390.18 15.64 390.308 16.152L389.924 16.224C390.004 15.824 390.068 15.496 390.116 15.24C390.164 14.984 390.212 14.76 390.26 14.568C390.308 14.36 390.356 14.16 390.404 13.968C390.452 13.76 390.516 13.52 390.596 13.248C390.676 12.96 390.78 12.6 390.908 12.168L394.148 1.2H396.164L391.052 18H389.492L384.956 7.2L385.388 7.272L381.02 18H379.484ZM402.781 18.24C401.693 18.24 400.709 17.96 399.829 17.4C398.949 16.824 398.253 16.048 397.741 15.072C397.229 14.08 396.973 12.96 396.973 11.712C396.973 10.448 397.237 9.328 397.765 8.352C398.293 7.376 398.997 6.608 399.877 6.048C400.773 5.488 401.773 5.208 402.877 5.208C403.533 5.208 404.141 5.304 404.701 5.496C405.261 5.688 405.757 5.96 406.189 6.312C406.637 6.648 407.005 7.048 407.293 7.512C407.597 7.96 407.805 8.448 407.917 8.976L407.389 8.712L407.461 5.472H409.261V18H407.437V14.928L407.917 14.616C407.805 15.096 407.589 15.56 407.269 16.008C406.949 16.44 406.557 16.824 406.093 17.16C405.645 17.496 405.133 17.76 404.557 17.952C403.997 18.144 403.405 18.24 402.781 18.24ZM403.189 16.512C404.021 16.512 404.765 16.312 405.421 15.912C406.077 15.496 406.589 14.928 406.957 14.208C407.341 13.472 407.533 12.64 407.533 11.712C407.533 10.784 407.341 9.96 406.957 9.24C406.589 8.52 406.077 7.952 405.421 7.536C404.765 7.12 404.021 6.912 403.189 6.912C402.341 6.912 401.589 7.12 400.933 7.536C400.293 7.952 399.781 8.52 399.397 9.24C399.029 9.96 398.845 10.784 398.845 11.712C398.845 12.624 399.029 13.448 399.397 14.184C399.765 14.904 400.277 15.472 400.933 15.888C401.589 16.304 402.341 16.512 403.189 16.512ZM412.768 18V5.472H414.544L414.616 8.088L414.328 8.208C414.488 7.664 414.8 7.168 415.264 6.72C415.728 6.272 416.28 5.912 416.92 5.64C417.576 5.352 418.248 5.208 418.936 5.208C419.864 5.208 420.64 5.392 421.264 5.76C421.888 6.128 422.36 6.696 422.68 7.464C423 8.232 423.16 9.208 423.16 10.392V18H421.336V10.488C421.336 9.656 421.224 8.976 421 8.448C420.792 7.904 420.464 7.504 420.016 7.248C419.568 6.992 419.016 6.872 418.36 6.888C417.816 6.888 417.312 6.984 416.848 7.176C416.384 7.352 415.984 7.6 415.648 7.92C415.312 8.24 415.048 8.608 414.856 9.024C414.664 9.44 414.568 9.888 414.568 10.368V18H413.68C413.568 18 413.44 18 413.296 18C413.152 18 412.976 18 412.768 18ZM0.472 48V31.2H7.288C8.264 31.2 9.104 31.376 9.808 31.728C10.528 32.064 11.08 32.552 11.464 33.192C11.848 33.816 12.04 34.56 12.04 35.424C12.04 36.352 11.776 37.152 11.248 37.824C10.72 38.48 10 38.936 9.088 39.192L9.04 38.736C9.824 38.88 10.504 39.16 11.08 39.576C11.656 39.976 12.104 40.472 12.424 41.064C12.76 41.656 12.928 42.32 12.928 43.056C12.928 43.808 12.8 44.488 12.544 45.096C12.288 45.704 11.92 46.224 11.44 46.656C10.976 47.088 10.408 47.424 9.736 47.664C9.08 47.888 8.344 48 7.528 48H0.472ZM2.344 46.176H7.384C8.104 46.176 8.728 46.056 9.256 45.816C9.8 45.56 10.216 45.2 10.504 44.736C10.808 44.272 10.96 43.736 10.96 43.128C10.96 42.552 10.8 42.048 10.48 41.616C10.176 41.184 9.744 40.848 9.184 40.608C8.64 40.368 8 40.248 7.264 40.248H2.344V46.176ZM2.344 38.424H7.144C7.72 38.424 8.232 38.312 8.68 38.088C9.128 37.848 9.48 37.528 9.736 37.128C9.992 36.712 10.12 36.248 10.12 35.736C10.12 34.92 9.84 34.264 9.28 33.768C8.736 33.272 7.968 33.024 6.976 33.024H2.344V38.424ZM20.7261 48.24C19.6381 48.24 18.6541 47.96 17.7741 47.4C16.8941 46.824 16.1981 46.048 15.6861 45.072C15.1741 44.08 14.9181 42.96 14.9181 41.712C14.9181 40.448 15.1821 39.328 15.7101 38.352C16.2381 37.376 16.9421 36.608 17.8221 36.048C18.7181 35.488 19.7181 35.208 20.8221 35.208C21.4781 35.208 22.0861 35.304 22.6461 35.496C23.2061 35.688 23.7021 35.96 24.1341 36.312C24.5821 36.648 24.9501 37.048 25.2381 37.512C25.5421 37.96 25.7501 38.448 25.8621 38.976L25.3341 38.712L25.4061 35.472H27.2061V48H25.3821V44.928L25.8621 44.616C25.7501 45.096 25.5341 45.56 25.2141 46.008C24.8941 46.44 24.5021 46.824 24.0381 47.16C23.5901 47.496 23.0781 47.76 22.5021 47.952C21.9421 48.144 21.3501 48.24 20.7261 48.24ZM21.1341 46.512C21.9661 46.512 22.7101 46.312 23.3661 45.912C24.0221 45.496 24.5341 44.928 24.9021 44.208C25.2861 43.472 25.4781 42.64 25.4781 41.712C25.4781 40.784 25.2861 39.96 24.9021 39.24C24.5341 38.52 24.0221 37.952 23.3661 37.536C22.7101 37.12 21.9661 36.912 21.1341 36.912C20.2861 36.912 19.5341 37.12 18.8781 37.536C18.2381 37.952 17.7261 38.52 17.3421 39.24C16.9741 39.96 16.7901 40.784 16.7901 41.712C16.7901 42.624 16.9741 43.448 17.3421 44.184C17.7101 44.904 18.2221 45.472 18.8781 45.888C19.5341 46.304 20.2861 46.512 21.1341 46.512ZM35.9929 48.24C34.8089 48.24 33.7529 47.96 32.8249 47.4C31.8969 46.824 31.1609 46.048 30.6169 45.072C30.0889 44.08 29.8249 42.96 29.8249 41.712C29.8249 40.464 30.0889 39.352 30.6169 38.376C31.1609 37.384 31.8969 36.608 32.8249 36.048C33.7529 35.488 34.8169 35.208 36.0169 35.208C37.0889 35.208 38.0649 35.424 38.9449 35.856C39.8249 36.272 40.5289 36.856 41.0569 37.608L40.0009 38.904C39.6969 38.504 39.3289 38.152 38.8969 37.848C38.4809 37.544 38.0249 37.312 37.5289 37.152C37.0489 36.976 36.5689 36.888 36.0889 36.888C35.2409 36.888 34.4809 37.104 33.8089 37.536C33.1369 37.952 32.6009 38.52 32.2009 39.24C31.8169 39.96 31.6249 40.784 31.6249 41.712C31.6249 42.64 31.8169 43.472 32.2009 44.208C32.6009 44.928 33.1369 45.496 33.8089 45.912C34.4809 46.328 35.2329 46.536 36.0649 46.536C36.5449 46.536 37.0169 46.464 37.4809 46.32C37.9449 46.16 38.3849 45.936 38.8009 45.648C39.2169 45.36 39.6009 45 39.9529 44.568L41.0089 45.864C40.4649 46.584 39.7369 47.16 38.8249 47.592C37.9129 48.024 36.9689 48.24 35.9929 48.24ZM44.9538 43.968L44.8818 41.88L51.4338 35.472H53.8578L44.9538 43.968ZM43.3458 48V30.24H45.1458V48H43.3458ZM51.9378 48L46.6578 41.88L47.9297 40.632L54.2898 48H51.9378ZM55.8518 42.216V40.416H62.6198V42.216H55.8518ZM71.2251 48.24C69.9771 48.24 68.8651 47.968 67.8891 47.424C66.9291 46.88 66.1771 46.12 65.6331 45.144C65.0891 44.168 64.8171 43.048 64.8171 41.784C64.8171 40.808 64.9691 39.928 65.2731 39.144C65.5771 38.344 66.0011 37.648 66.5451 37.056C67.1051 36.464 67.7691 36.008 68.5371 35.688C69.3051 35.352 70.1371 35.184 71.0331 35.184C71.8811 35.184 72.6491 35.336 73.3371 35.64C74.0411 35.944 74.6411 36.368 75.1371 36.912C75.6491 37.44 76.0331 38.072 76.2891 38.808C76.5451 39.544 76.6571 40.352 76.6251 41.232L76.6011 42.072H66.1611L65.8971 40.56H75.2331L74.8011 40.968V40.392C74.7691 39.816 74.6011 39.264 74.2971 38.736C73.9931 38.192 73.5611 37.752 73.0011 37.416C72.4571 37.08 71.8011 36.912 71.0331 36.912C70.1371 36.912 69.3611 37.096 68.7051 37.464C68.0491 37.816 67.5451 38.344 67.1931 39.048C66.8411 39.752 66.6651 40.624 66.6651 41.664C66.6651 42.656 66.8571 43.52 67.2411 44.256C67.6251 44.976 68.1691 45.536 68.8731 45.936C69.5931 46.336 70.4571 46.536 71.4651 46.536C72.0571 46.536 72.6411 46.44 73.2171 46.248C73.8091 46.04 74.4571 45.64 75.1611 45.048L76.0971 46.344C75.7291 46.712 75.2891 47.04 74.7771 47.328C74.2651 47.6 73.7051 47.824 73.0971 48C72.4891 48.16 71.8651 48.24 71.2251 48.24ZM79.1817 48V35.472H80.9577L81.0297 38.088L80.7417 38.208C80.9017 37.664 81.2137 37.168 81.6777 36.72C82.1417 36.272 82.6937 35.912 83.3337 35.64C83.9897 35.352 84.6617 35.208 85.3497 35.208C86.2777 35.208 87.0537 35.392 87.6777 35.76C88.3017 36.128 88.7737 36.696 89.0937 37.464C89.4137 38.232 89.5737 39.208 89.5737 40.392V48H87.7497V40.488C87.7497 39.656 87.6377 38.976 87.4137 38.448C87.2057 37.904 86.8777 37.504 86.4297 37.248C85.9817 36.992 85.4297 36.872 84.7737 36.888C84.2297 36.888 83.7257 36.984 83.2617 37.176C82.7977 37.352 82.3977 37.6 82.0617 37.92C81.7257 38.24 81.4617 38.608 81.2697 39.024C81.0777 39.44 80.9817 39.888 80.9817 40.368V48H80.0937C79.9817 48 79.8537 48 79.7097 48C79.5657 48 79.3897 48 79.1817 48ZM98.0978 48.24C96.9618 48.24 95.9378 47.96 95.0258 47.4C94.1298 46.84 93.4178 46.072 92.8898 45.096C92.3778 44.104 92.1218 42.984 92.1218 41.736C92.1218 40.472 92.3858 39.352 92.9138 38.376C93.4418 37.384 94.1538 36.608 95.0498 36.048C95.9458 35.488 96.9538 35.208 98.0738 35.208C98.6978 35.208 99.2978 35.304 99.8738 35.496C100.466 35.688 100.994 35.96 101.458 36.312C101.922 36.648 102.306 37.04 102.61 37.488C102.914 37.92 103.098 38.376 103.162 38.856L102.61 38.664V30.24H104.41V48H102.634L102.586 44.88L103.042 44.712C102.978 45.16 102.794 45.6 102.49 46.032C102.202 46.448 101.834 46.824 101.386 47.16C100.938 47.496 100.426 47.76 99.8498 47.952C99.2898 48.144 98.7058 48.24 98.0978 48.24ZM98.3618 46.584C99.1938 46.584 99.9378 46.376 100.594 45.96C101.25 45.544 101.762 44.968 102.13 44.232C102.514 43.496 102.706 42.656 102.706 41.712C102.706 40.768 102.514 39.936 102.13 39.216C101.762 38.48 101.25 37.904 100.594 37.488C99.9378 37.056 99.1938 36.84 98.3618 36.84C97.4978 36.84 96.7378 37.056 96.0818 37.488C95.4418 37.904 94.9298 38.48 94.5458 39.216C94.1778 39.936 93.9938 40.768 93.9938 41.712C93.9938 42.64 94.1778 43.472 94.5458 44.208C94.9138 44.944 95.4258 45.528 96.0818 45.96C96.7378 46.376 97.4978 46.584 98.3618 46.584ZM115.363 48V31.2H121.699C122.851 31.2 123.899 31.408 124.843 31.824C125.803 32.224 126.635 32.8 127.339 33.552C128.043 34.304 128.587 35.192 128.971 36.216C129.355 37.24 129.547 38.368 129.547 39.6C129.547 40.832 129.355 41.968 128.971 43.008C128.587 44.032 128.043 44.92 127.339 45.672C126.651 46.408 125.827 46.984 124.867 47.4C123.907 47.8 122.851 48 121.699 48H115.363ZM117.235 46.512L117.019 46.176H121.579C122.459 46.176 123.267 46.024 124.003 45.72C124.755 45.4 125.395 44.952 125.923 44.376C126.467 43.784 126.883 43.088 127.171 42.288C127.475 41.488 127.627 40.592 127.627 39.6C127.627 38.608 127.475 37.712 127.171 36.912C126.883 36.112 126.467 35.424 125.923 34.848C125.379 34.256 124.739 33.808 124.003 33.504C123.267 33.184 122.459 33.024 121.579 33.024H116.947L117.235 32.736V46.512ZM137.999 48.24C136.751 48.24 135.639 47.968 134.663 47.424C133.703 46.88 132.951 46.12 132.407 45.144C131.863 44.168 131.591 43.048 131.591 41.784C131.591 40.808 131.743 39.928 132.047 39.144C132.351 38.344 132.775 37.648 133.319 37.056C133.879 36.464 134.543 36.008 135.311 35.688C136.079 35.352 136.911 35.184 137.807 35.184C138.655 35.184 139.423 35.336 140.111 35.64C140.815 35.944 141.415 36.368 141.911 36.912C142.423 37.44 142.807 38.072 143.063 38.808C143.319 39.544 143.431 40.352 143.399 41.232L143.375 42.072H132.935L132.671 40.56H142.007L141.575 40.968V40.392C141.543 39.816 141.375 39.264 141.071 38.736C140.767 38.192 140.335 37.752 139.775 37.416C139.231 37.08 138.575 36.912 137.807 36.912C136.911 36.912 136.135 37.096 135.479 37.464C134.823 37.816 134.319 38.344 133.967 39.048C133.615 39.752 133.439 40.624 133.439 41.664C133.439 42.656 133.631 43.52 134.015 44.256C134.399 44.976 134.943 45.536 135.647 45.936C136.367 46.336 137.231 46.536 138.239 46.536C138.831 46.536 139.415 46.44 139.991 46.248C140.583 46.04 141.231 45.64 141.935 45.048L142.871 46.344C142.503 46.712 142.063 47.04 141.551 47.328C141.039 47.6 140.479 47.824 139.871 48C139.263 48.16 138.639 48.24 137.999 48.24ZM149.609 48L144.329 35.472H146.321L150.497 45.72L150.017 45.984L154.601 35.472H156.521L150.905 48H149.609ZM163.803 48.24C162.555 48.24 161.443 47.968 160.467 47.424C159.507 46.88 158.755 46.12 158.211 45.144C157.667 44.168 157.395 43.048 157.395 41.784C157.395 40.808 157.547 39.928 157.851 39.144C158.155 38.344 158.579 37.648 159.123 37.056C159.683 36.464 160.347 36.008 161.115 35.688C161.883 35.352 162.715 35.184 163.611 35.184C164.459 35.184 165.227 35.336 165.915 35.64C166.619 35.944 167.219 36.368 167.715 36.912C168.227 37.44 168.611 38.072 168.867 38.808C169.123 39.544 169.235 40.352 169.203 41.232L169.179 42.072H158.739L158.475 40.56H167.811L167.379 40.968V40.392C167.347 39.816 167.179 39.264 166.875 38.736C166.571 38.192 166.139 37.752 165.579 37.416C165.035 37.08 164.379 36.912 163.611 36.912C162.715 36.912 161.939 37.096 161.283 37.464C160.627 37.816 160.123 38.344 159.771 39.048C159.419 39.752 159.243 40.624 159.243 41.664C159.243 42.656 159.435 43.52 159.819 44.256C160.203 44.976 160.747 45.536 161.451 45.936C162.171 46.336 163.035 46.536 164.043 46.536C164.635 46.536 165.219 46.44 165.795 46.248C166.387 46.04 167.035 45.64 167.739 45.048L168.675 46.344C168.307 46.712 167.867 47.04 167.355 47.328C166.843 47.6 166.283 47.824 165.675 48C165.067 48.16 164.443 48.24 163.803 48.24ZM171.808 48V30.24H173.608V48H171.808ZM182.46 48.24C181.212 48.24 180.1 47.96 179.124 47.4C178.164 46.84 177.404 46.064 176.844 45.072C176.3 44.08 176.028 42.952 176.028 41.688C176.028 40.44 176.3 39.328 176.844 38.352C177.404 37.376 178.164 36.608 179.124 36.048C180.1 35.488 181.212 35.208 182.46 35.208C183.692 35.208 184.788 35.488 185.748 36.048C186.724 36.608 187.484 37.376 188.028 38.352C188.588 39.328 188.868 40.44 188.868 41.688C188.868 42.952 188.588 44.08 188.028 45.072C187.484 46.064 186.724 46.84 185.748 47.4C184.788 47.96 183.692 48.24 182.46 48.24ZM182.46 46.536C183.34 46.536 184.124 46.328 184.812 45.912C185.5 45.48 186.036 44.904 186.42 44.184C186.804 43.448 186.996 42.616 186.996 41.688C186.996 40.76 186.804 39.936 186.42 39.216C186.036 38.496 185.5 37.936 184.812 37.536C184.124 37.12 183.34 36.912 182.46 36.912C181.58 36.912 180.788 37.12 180.084 37.536C179.396 37.936 178.852 38.504 178.452 39.24C178.068 39.96 177.884 40.776 177.9 41.688C177.884 42.616 178.068 43.448 178.452 44.184C178.852 44.904 179.396 45.48 180.084 45.912C180.788 46.328 181.58 46.536 182.46 46.536ZM191.494 53.28V35.472H193.294L193.342 38.52L193.006 38.568C193.15 37.96 193.462 37.408 193.942 36.912C194.422 36.4 195.006 35.992 195.694 35.688C196.382 35.384 197.11 35.232 197.878 35.232C198.998 35.232 199.998 35.512 200.878 36.072C201.774 36.632 202.486 37.4 203.014 38.376C203.542 39.352 203.806 40.472 203.806 41.736C203.806 42.984 203.55 44.096 203.038 45.072C202.526 46.048 201.822 46.824 200.926 47.4C200.03 47.96 199.022 48.24 197.902 48.24C197.118 48.24 196.374 48.08 195.67 47.76C194.966 47.44 194.366 47.024 193.87 46.512C193.374 45.984 193.046 45.416 192.886 44.808H193.318V53.28H191.494ZM197.614 46.512C198.462 46.512 199.214 46.304 199.87 45.888C200.526 45.472 201.046 44.904 201.43 44.184C201.814 43.464 202.006 42.648 202.006 41.736C202.006 40.808 201.814 39.984 201.43 39.264C201.046 38.544 200.526 37.976 199.87 37.56C199.214 37.144 198.462 36.936 197.614 36.936C196.766 36.936 196.006 37.144 195.334 37.56C194.678 37.96 194.158 38.52 193.774 39.24C193.39 39.96 193.198 40.784 193.198 41.712C193.198 42.64 193.39 43.464 193.774 44.184C194.158 44.904 194.678 45.472 195.334 45.888C196.006 46.304 196.766 46.512 197.614 46.512ZM211.944 48.24C210.696 48.24 209.584 47.968 208.608 47.424C207.648 46.88 206.896 46.12 206.352 45.144C205.808 44.168 205.536 43.048 205.536 41.784C205.536 40.808 205.688 39.928 205.992 39.144C206.296 38.344 206.72 37.648 207.264 37.056C207.824 36.464 208.488 36.008 209.256 35.688C210.024 35.352 210.856 35.184 211.752 35.184C212.6 35.184 213.368 35.336 214.056 35.64C214.76 35.944 215.36 36.368 215.856 36.912C216.368 37.44 216.752 38.072 217.008 38.808C217.264 39.544 217.376 40.352 217.344 41.232L217.32 42.072H206.88L206.616 40.56H215.952L215.52 40.968V40.392C215.488 39.816 215.32 39.264 215.016 38.736C214.712 38.192 214.28 37.752 213.72 37.416C213.176 37.08 212.52 36.912 211.752 36.912C210.856 36.912 210.08 37.096 209.424 37.464C208.768 37.816 208.264 38.344 207.912 39.048C207.56 39.752 207.384 40.624 207.384 41.664C207.384 42.656 207.576 43.52 207.96 44.256C208.344 44.976 208.888 45.536 209.592 45.936C210.312 46.336 211.176 46.536 212.184 46.536C212.776 46.536 213.36 46.44 213.936 46.248C214.528 46.04 215.176 45.64 215.88 45.048L216.816 46.344C216.448 46.712 216.008 47.04 215.496 47.328C214.984 47.6 214.424 47.824 213.816 48C213.208 48.16 212.584 48.24 211.944 48.24ZM219.9 48V35.472H221.7L221.748 38.808L221.556 38.352C221.732 37.792 222.012 37.272 222.396 36.792C222.796 36.312 223.268 35.928 223.812 35.64C224.356 35.352 224.956 35.208 225.612 35.208C225.884 35.208 226.14 35.232 226.38 35.28C226.62 35.312 226.82 35.36 226.98 35.424L226.476 37.44C226.268 37.344 226.052 37.28 225.828 37.248C225.62 37.2 225.42 37.176 225.228 37.176C224.684 37.176 224.196 37.272 223.764 37.464C223.332 37.656 222.964 37.928 222.66 38.28C222.356 38.616 222.124 39.008 221.964 39.456C221.804 39.904 221.724 40.384 221.724 40.896V48H219.9ZM232.958 48.24C231.886 48.24 230.926 48.04 230.078 47.64C229.23 47.24 228.558 46.712 228.062 46.056L229.334 44.952C229.798 45.512 230.342 45.936 230.966 46.224C231.606 46.512 232.318 46.656 233.102 46.656C233.502 46.656 233.862 46.616 234.182 46.536C234.502 46.44 234.782 46.304 235.022 46.128C235.262 45.952 235.446 45.744 235.574 45.504C235.702 45.264 235.766 45 235.766 44.712C235.766 44.184 235.534 43.744 235.07 43.392C234.862 43.248 234.566 43.104 234.182 42.96C233.798 42.8 233.334 42.648 232.79 42.504C231.894 42.248 231.15 41.992 230.558 41.736C229.966 41.464 229.502 41.152 229.166 40.8C228.926 40.512 228.742 40.2 228.614 39.864C228.502 39.528 228.446 39.16 228.446 38.76C228.446 38.248 228.55 37.776 228.758 37.344C228.982 36.912 229.286 36.536 229.67 36.216C230.07 35.88 230.534 35.632 231.062 35.472C231.606 35.296 232.19 35.208 232.814 35.208C233.406 35.208 233.99 35.288 234.566 35.448C235.142 35.608 235.678 35.84 236.174 36.144C236.67 36.448 237.094 36.808 237.446 37.224L236.342 38.424C236.038 38.104 235.702 37.816 235.334 37.56C234.966 37.304 234.574 37.104 234.158 36.96C233.758 36.816 233.342 36.744 232.91 36.744C232.526 36.744 232.166 36.792 231.83 36.888C231.51 36.984 231.23 37.12 230.99 37.296C230.766 37.456 230.59 37.656 230.462 37.896C230.35 38.136 230.294 38.4 230.294 38.688C230.294 38.928 230.342 39.144 230.438 39.336C230.534 39.528 230.67 39.696 230.846 39.84C231.07 40.016 231.382 40.184 231.782 40.344C232.198 40.488 232.71 40.64 233.318 40.8C234.022 40.992 234.614 41.192 235.094 41.4C235.59 41.592 235.998 41.824 236.318 42.096C236.75 42.416 237.054 42.784 237.23 43.2C237.422 43.616 237.518 44.088 237.518 44.616C237.518 45.32 237.318 45.944 236.918 46.488C236.534 47.032 235.998 47.464 235.31 47.784C234.622 48.088 233.838 48.24 232.958 48.24ZM241.322 48.24C240.89 48.24 240.554 48.112 240.314 47.856C240.09 47.6 239.978 47.232 239.978 46.752C239.978 46.32 240.098 45.968 240.338 45.696C240.594 45.408 240.922 45.264 241.322 45.264C241.754 45.264 242.082 45.4 242.306 45.672C242.546 45.928 242.666 46.288 242.666 46.752C242.666 47.2 242.538 47.56 242.282 47.832C242.042 48.104 241.722 48.24 241.322 48.24ZM241.322 38.184C240.89 38.184 240.554 38.056 240.314 37.8C240.09 37.544 239.978 37.176 239.978 36.696C239.978 36.264 240.098 35.912 240.338 35.64C240.594 35.352 240.922 35.208 241.322 35.208C241.754 35.208 242.082 35.344 242.306 35.616C242.546 35.872 242.666 36.232 242.666 36.696C242.666 37.144 242.538 37.504 242.282 37.776C242.042 38.048 241.722 38.184 241.322 38.184ZM257.085 48.24C256.541 48.24 256.029 48.168 255.549 48.024C255.069 47.896 254.621 47.704 254.205 47.448C253.789 47.176 253.413 46.848 253.077 46.464C252.741 46.08 252.445 45.656 252.189 45.192L253.437 43.896C253.725 44.376 254.013 44.776 254.301 45.096C254.605 45.416 254.901 45.672 255.189 45.864C255.493 46.056 255.797 46.192 256.101 46.272C256.421 46.352 256.749 46.392 257.085 46.392C257.741 46.392 258.317 46.24 258.813 45.936C259.325 45.616 259.717 45.184 259.989 44.64C260.277 44.08 260.421 43.448 260.421 42.744V32.976H257.373V31.2H264.813V32.976H262.341V42.888C262.341 43.656 262.213 44.368 261.957 45.024C261.701 45.68 261.341 46.248 260.877 46.728C260.413 47.208 259.861 47.584 259.221 47.856C258.581 48.112 257.869 48.24 257.085 48.24ZM271.39 48.24C270.302 48.24 269.318 47.96 268.438 47.4C267.558 46.824 266.862 46.048 266.35 45.072C265.838 44.08 265.582 42.96 265.582 41.712C265.582 40.448 265.846 39.328 266.374 38.352C266.902 37.376 267.606 36.608 268.486 36.048C269.382 35.488 270.382 35.208 271.486 35.208C272.142 35.208 272.75 35.304 273.31 35.496C273.87 35.688 274.366 35.96 274.798 36.312C275.246 36.648 275.614 37.048 275.902 37.512C276.206 37.96 276.414 38.448 276.526 38.976L275.998 38.712L276.07 35.472H277.87V48H276.046V44.928L276.526 44.616C276.414 45.096 276.198 45.56 275.878 46.008C275.558 46.44 275.166 46.824 274.702 47.16C274.254 47.496 273.742 47.76 273.166 47.952C272.606 48.144 272.014 48.24 271.39 48.24ZM271.798 46.512C272.63 46.512 273.374 46.312 274.03 45.912C274.686 45.496 275.198 44.928 275.566 44.208C275.95 43.472 276.142 42.64 276.142 41.712C276.142 40.784 275.95 39.96 275.566 39.24C275.198 38.52 274.686 37.952 274.03 37.536C273.374 37.12 272.63 36.912 271.798 36.912C270.95 36.912 270.198 37.12 269.542 37.536C268.902 37.952 268.39 38.52 268.006 39.24C267.638 39.96 267.454 40.784 267.454 41.712C267.454 42.624 267.638 43.448 268.006 44.184C268.374 44.904 268.886 45.472 269.542 45.888C270.198 46.304 270.95 46.512 271.798 46.512ZM283.208 53.52L285.632 47.616L285.8 49.32L279.512 35.472H281.552L285.848 45.072C285.976 45.328 286.104 45.632 286.232 45.984C286.36 46.32 286.48 46.656 286.592 46.992L285.92 46.92C286.032 46.648 286.136 46.368 286.232 46.08C286.344 45.792 286.448 45.512 286.544 45.24L290.312 35.472H292.376L287.312 48L285.152 53.52H283.208ZM301.714 48V31.2H308.362C309.242 31.2 310.034 31.416 310.738 31.848C311.442 32.28 312.002 32.88 312.418 33.648C312.834 34.4 313.042 35.248 313.042 36.192C313.042 37.184 312.834 38.072 312.418 38.856C312.002 39.624 311.442 40.24 310.738 40.704C310.034 41.152 309.242 41.376 308.362 41.376H303.586V48H301.714ZM303.586 39.552H308.458C308.954 39.552 309.394 39.408 309.778 39.12C310.178 38.816 310.498 38.416 310.738 37.92C310.978 37.408 311.098 36.824 311.098 36.168C311.098 35.576 310.978 35.048 310.738 34.584C310.498 34.104 310.178 33.728 309.778 33.456C309.394 33.168 308.954 33.024 308.458 33.024H303.586V39.552ZM320.586 48.24C319.498 48.24 318.514 47.96 317.634 47.4C316.754 46.824 316.058 46.048 315.546 45.072C315.034 44.08 314.778 42.96 314.778 41.712C314.778 40.448 315.042 39.328 315.57 38.352C316.098 37.376 316.802 36.608 317.682 36.048C318.578 35.488 319.578 35.208 320.682 35.208C321.338 35.208 321.946 35.304 322.506 35.496C323.066 35.688 323.562 35.96 323.994 36.312C324.442 36.648 324.81 37.048 325.098 37.512C325.402 37.96 325.61 38.448 325.722 38.976L325.194 38.712L325.266 35.472H327.066V48H325.242V44.928L325.722 44.616C325.61 45.096 325.394 45.56 325.074 46.008C324.754 46.44 324.362 46.824 323.898 47.16C323.45 47.496 322.938 47.76 322.362 47.952C321.802 48.144 321.21 48.24 320.586 48.24ZM320.993 46.512C321.826 46.512 322.57 46.312 323.226 45.912C323.882 45.496 324.394 44.928 324.762 44.208C325.146 43.472 325.338 42.64 325.338 41.712C325.338 40.784 325.146 39.96 324.762 39.24C324.394 38.52 323.882 37.952 323.226 37.536C322.57 37.12 321.826 36.912 320.993 36.912C320.146 36.912 319.394 37.12 318.738 37.536C318.098 37.952 317.586 38.52 317.202 39.24C316.834 39.96 316.65 40.784 316.65 41.712C316.65 42.624 316.834 43.448 317.202 44.184C317.57 44.904 318.082 45.472 318.738 45.888C319.394 46.304 320.146 46.512 320.993 46.512ZM330.572 48V35.472H332.372L332.42 38.808L332.228 38.352C332.404 37.792 332.684 37.272 333.068 36.792C333.468 36.312 333.94 35.928 334.484 35.64C335.028 35.352 335.628 35.208 336.284 35.208C336.556 35.208 336.812 35.232 337.052 35.28C337.292 35.312 337.492 35.36 337.652 35.424L337.148 37.44C336.94 37.344 336.724 37.28 336.5 37.248C336.292 37.2 336.092 37.176 335.9 37.176C335.356 37.176 334.868 37.272 334.436 37.464C334.004 37.656 333.636 37.928 333.332 38.28C333.028 38.616 332.796 39.008 332.636 39.456C332.476 39.904 332.396 40.384 332.396 40.896V48H330.572ZM341.133 43.968L341.061 41.88L347.613 35.472H350.037L341.133 43.968ZM339.525 48V30.24H341.325V48H339.525ZM348.117 48L342.837 41.88L344.109 40.632L350.469 48H348.117ZM352.68 51.96L352.008 51.096C352.52 50.792 352.92 50.464 353.208 50.112C353.496 49.76 353.64 49.424 353.64 49.104C353.64 48.928 353.608 48.76 353.544 48.6C353.48 48.44 353.32 48.24 353.064 48C352.84 47.792 352.672 47.592 352.56 47.4C352.464 47.208 352.416 47.008 352.416 46.8C352.416 46.48 352.528 46.224 352.752 46.032C352.976 45.824 353.272 45.72 353.64 45.72C354.008 45.72 354.328 45.816 354.6 46.008C354.872 46.2 355.08 46.472 355.224 46.824C355.384 47.16 355.464 47.56 355.464 48.024C355.464 48.456 355.4 48.856 355.272 49.224C355.144 49.608 354.96 49.968 354.72 50.304C354.48 50.64 354.192 50.944 353.855 51.216C353.52 51.488 353.128 51.736 352.68 51.96ZM370.759 48.24C369.911 48.24 369.111 48.12 368.359 47.88C367.607 47.64 366.919 47.28 366.295 46.8C365.671 46.32 365.119 45.728 364.639 45.024L365.935 43.584C366.687 44.656 367.455 45.408 368.239 45.84C369.039 46.272 369.935 46.488 370.927 46.488C371.647 46.488 372.303 46.368 372.895 46.128C373.487 45.888 373.951 45.552 374.287 45.12C374.623 44.688 374.791 44.192 374.791 43.632C374.791 43.264 374.727 42.936 374.599 42.648C374.487 42.36 374.311 42.104 374.071 41.88C373.831 41.656 373.535 41.456 373.183 41.28C372.831 41.104 372.423 40.944 371.959 40.8C371.511 40.656 371.007 40.512 370.447 40.368C369.631 40.176 368.911 39.952 368.287 39.696C367.679 39.424 367.159 39.096 366.727 38.712C366.311 38.328 365.991 37.888 365.767 37.392C365.559 36.88 365.455 36.28 365.455 35.592C365.455 34.936 365.591 34.328 365.863 33.768C366.151 33.208 366.543 32.728 367.039 32.328C367.535 31.912 368.119 31.592 368.791 31.368C369.463 31.144 370.183 31.032 370.951 31.032C371.815 31.032 372.583 31.152 373.255 31.392C373.943 31.616 374.551 31.952 375.079 32.4C375.607 32.848 376.063 33.384 376.447 34.008L375.127 35.304C374.791 34.776 374.407 34.32 373.975 33.936C373.559 33.552 373.095 33.264 372.583 33.072C372.087 32.864 371.535 32.76 370.927 32.76C370.223 32.76 369.599 32.88 369.055 33.12C368.527 33.36 368.111 33.696 367.807 34.128C367.503 34.544 367.351 35.024 367.351 35.568C367.351 35.968 367.423 36.328 367.567 36.648C367.711 36.952 367.935 37.224 368.239 37.464C368.559 37.688 368.967 37.896 369.463 38.088C369.975 38.264 370.583 38.432 371.287 38.592C372.119 38.784 372.863 39.016 373.519 39.288C374.191 39.56 374.759 39.888 375.223 40.272C375.703 40.64 376.063 41.072 376.303 41.568C376.559 42.064 376.687 42.632 376.687 43.272C376.687 44.264 376.439 45.136 375.943 45.888C375.447 46.624 374.751 47.2 373.855 47.616C372.975 48.032 371.943 48.24 370.759 48.24ZM381.472 48V32.184H383.272V48H381.472ZM378.64 37.2V35.472H386.44V37.2H378.64ZM394.053 48.24C392.805 48.24 391.693 47.968 390.717 47.424C389.757 46.88 389.005 46.12 388.461 45.144C387.917 44.168 387.645 43.048 387.645 41.784C387.645 40.808 387.797 39.928 388.101 39.144C388.405 38.344 388.829 37.648 389.373 37.056C389.933 36.464 390.597 36.008 391.365 35.688C392.133 35.352 392.965 35.184 393.861 35.184C394.709 35.184 395.477 35.336 396.165 35.64C396.869 35.944 397.469 36.368 397.965 36.912C398.477 37.44 398.861 38.072 399.117 38.808C399.373 39.544 399.485 40.352 399.453 41.232L399.429 42.072H388.989L388.725 40.56H398.061L397.629 40.968V40.392C397.597 39.816 397.429 39.264 397.125 38.736C396.821 38.192 396.389 37.752 395.829 37.416C395.285 37.08 394.629 36.912 393.861 36.912C392.965 36.912 392.189 37.096 391.533 37.464C390.877 37.816 390.373 38.344 390.021 39.048C389.669 39.752 389.493 40.624 389.493 41.664C389.493 42.656 389.685 43.52 390.069 44.256C390.453 44.976 390.997 45.536 391.701 45.936C392.421 46.336 393.285 46.536 394.293 46.536C394.885 46.536 395.469 46.44 396.045 46.248C396.637 46.04 397.285 45.64 397.989 45.048L398.925 46.344C398.557 46.712 398.117 47.04 397.605 47.328C397.093 47.6 396.533 47.824 395.925 48C395.317 48.16 394.693 48.24 394.053 48.24ZM402.01 53.28V35.472H403.81L403.858 38.52L403.522 38.568C403.666 37.96 403.978 37.408 404.458 36.912C404.938 36.4 405.522 35.992 406.21 35.688C406.898 35.384 407.626 35.232 408.394 35.232C409.514 35.232 410.514 35.512 411.394 36.072C412.29 36.632 413.002 37.4 413.53 38.376C414.058 39.352 414.322 40.472 414.322 41.736C414.322 42.984 414.066 44.096 413.554 45.072C413.042 46.048 412.338 46.824 411.442 47.4C410.546 47.96 409.538 48.24 408.418 48.24C407.634 48.24 406.89 48.08 406.186 47.76C405.482 47.44 404.882 47.024 404.386 46.512C403.89 45.984 403.562 45.416 403.402 44.808H403.834V53.28H402.01ZM408.13 46.512C408.978 46.512 409.73 46.304 410.386 45.888C411.042 45.472 411.562 44.904 411.946 44.184C412.33 43.464 412.522 42.648 412.522 41.736C412.522 40.808 412.33 39.984 411.946 39.264C411.562 38.544 411.042 37.976 410.386 37.56C409.73 37.144 408.978 36.936 408.13 36.936C407.282 36.936 406.522 37.144 405.85 37.56C405.194 37.96 404.674 38.52 404.29 39.24C403.906 39.96 403.714 40.784 403.714 41.712C403.714 42.64 403.906 43.464 404.29 44.184C404.674 44.904 405.194 45.472 405.85 45.888C406.522 46.304 407.282 46.512 408.13 46.512ZM416.94 48V30.24H418.74V38.208L418.38 38.568C418.556 37.912 418.884 37.336 419.364 36.84C419.844 36.328 420.404 35.928 421.044 35.64C421.7 35.352 422.364 35.208 423.036 35.208C423.996 35.208 424.796 35.392 425.436 35.76C426.076 36.128 426.548 36.696 426.852 37.464C427.172 38.232 427.332 39.208 427.332 40.392V48H425.508V40.488C425.508 39.656 425.396 38.976 425.172 38.448C424.964 37.904 424.636 37.504 424.188 37.248C423.74 36.992 423.18 36.872 422.508 36.888C421.98 36.888 421.484 36.984 421.02 37.176C420.556 37.352 420.156 37.6 419.82 37.92C419.484 38.24 419.22 38.608 419.028 39.024C418.836 39.44 418.74 39.888 418.74 40.368V48H417.852C417.74 48 417.612 48 417.468 48C417.324 48 417.148 48 416.94 48ZM435.664 48.24C434.576 48.24 433.592 47.96 432.712 47.4C431.832 46.824 431.136 46.048 430.624 45.072C430.112 44.08 429.856 42.96 429.856 41.712C429.856 40.448 430.12 39.328 430.648 38.352C431.176 37.376 431.88 36.608 432.76 36.048C433.656 35.488 434.656 35.208 435.76 35.208C436.416 35.208 437.024 35.304 437.584 35.496C438.144 35.688 438.64 35.96 439.072 36.312C439.52 36.648 439.888 37.048 440.176 37.512C440.48 37.96 440.688 38.448 440.8 38.976L440.272 38.712L440.344 35.472H442.144V48H440.32V44.928L440.8 44.616C440.688 45.096 440.472 45.56 440.152 46.008C439.832 46.44 439.44 46.824 438.976 47.16C438.528 47.496 438.016 47.76 437.44 47.952C436.88 48.144 436.288 48.24 435.664 48.24ZM436.072 46.512C436.904 46.512 437.648 46.312 438.304 45.912C438.96 45.496 439.472 44.928 439.84 44.208C440.224 43.472 440.416 42.64 440.416 41.712C440.416 40.784 440.224 39.96 439.84 39.24C439.472 38.52 438.96 37.952 438.304 37.536C437.648 37.12 436.904 36.912 436.072 36.912C435.224 36.912 434.472 37.12 433.816 37.536C433.176 37.952 432.664 38.52 432.28 39.24C431.912 39.96 431.728 40.784 431.728 41.712C431.728 42.624 431.912 43.448 432.28 44.184C432.648 44.904 433.16 45.472 433.816 45.888C434.472 46.304 435.224 46.512 436.072 46.512ZM445.65 48V35.472H447.426L447.498 38.088L447.21 38.208C447.37 37.664 447.682 37.168 448.146 36.72C448.61 36.272 449.162 35.912 449.802 35.64C450.458 35.352 451.13 35.208 451.818 35.208C452.746 35.208 453.522 35.392 454.146 35.76C454.77 36.128 455.242 36.696 455.562 37.464C455.882 38.232 456.042 39.208 456.042 40.392V48H454.218V40.488C454.218 39.656 454.106 38.976 453.882 38.448C453.674 37.904 453.346 37.504 452.898 37.248C452.45 36.992 451.898 36.872 451.242 36.888C450.698 36.888 450.194 36.984 449.73 37.176C449.266 37.352 448.866 37.6 448.53 37.92C448.194 38.24 447.93 38.608 447.738 39.024C447.546 39.44 447.45 39.888 447.45 40.368V48H446.562C446.45 48 446.322 48 446.178 48C446.034 48 445.858 48 445.65 48ZM459.959 48V35.472H461.759V48H459.959ZM460.847 32.76C460.399 32.76 460.055 32.648 459.815 32.424C459.591 32.184 459.479 31.864 459.479 31.464C459.479 31.064 459.599 30.744 459.839 30.504C460.079 30.264 460.415 30.144 460.847 30.144C461.279 30.144 461.615 30.264 461.855 30.504C462.095 30.728 462.215 31.048 462.215 31.464C462.215 31.848 462.095 32.16 461.855 32.4C461.615 32.64 461.279 32.76 460.847 32.76ZM471.21 48.24C469.962 48.24 468.85 47.968 467.874 47.424C466.914 46.88 466.162 46.12 465.618 45.144C465.074 44.168 464.802 43.048 464.802 41.784C464.802 40.808 464.954 39.928 465.258 39.144C465.562 38.344 465.986 37.648 466.53 37.056C467.09 36.464 467.754 36.008 468.522 35.688C469.29 35.352 470.122 35.184 471.018 35.184C471.866 35.184 472.634 35.336 473.322 35.64C474.026 35.944 474.626 36.368 475.122 36.912C475.634 37.44 476.018 38.072 476.273 38.808C476.53 39.544 476.642 40.352 476.609 41.232L476.586 42.072H466.146L465.882 40.56H475.218L474.786 40.968V40.392C474.754 39.816 474.586 39.264 474.282 38.736C473.978 38.192 473.546 37.752 472.986 37.416C472.442 37.08 471.786 36.912 471.018 36.912C470.122 36.912 469.346 37.096 468.69 37.464C468.034 37.816 467.53 38.344 467.178 39.048C466.826 39.752 466.65 40.624 466.65 41.664C466.65 42.656 466.842 43.52 467.226 44.256C467.61 44.976 468.154 45.536 468.858 45.936C469.578 46.336 470.442 46.536 471.45 46.536C472.042 46.536 472.626 46.44 473.202 46.248C473.794 46.04 474.442 45.64 475.146 45.048L476.082 46.344C475.714 46.712 475.274 47.04 474.762 47.328C474.25 47.6 473.69 47.824 473.082 48C472.474 48.16 471.85 48.24 471.21 48.24ZM497.845 48V31.2H499.717V48H497.845ZM486.613 48V31.2H488.485V48H486.613ZM487.525 40.536V38.712H498.637V40.536H487.525ZM509.484 48.24C508.236 48.24 507.124 47.96 506.148 47.4C505.188 46.84 504.428 46.064 503.868 45.072C503.324 44.08 503.052 42.952 503.052 41.688C503.052 40.44 503.324 39.328 503.868 38.352C504.428 37.376 505.188 36.608 506.148 36.048C507.124 35.488 508.236 35.208 509.484 35.208C510.716 35.208 511.812 35.488 512.772 36.048C513.748 36.608 514.508 37.376 515.052 38.352C515.612 39.328 515.892 40.44 515.892 41.688C515.892 42.952 515.612 44.08 515.052 45.072C514.508 46.064 513.748 46.84 512.772 47.4C511.812 47.96 510.716 48.24 509.484 48.24ZM509.484 46.536C510.364 46.536 511.148 46.328 511.836 45.912C512.524 45.48 513.06 44.904 513.444 44.184C513.828 43.448 514.02 42.616 514.02 41.688C514.02 40.76 513.828 39.936 513.444 39.216C513.06 38.496 512.524 37.936 511.836 37.536C511.148 37.12 510.364 36.912 509.484 36.912C508.604 36.912 507.812 37.12 507.108 37.536C506.42 37.936 505.876 38.504 505.476 39.24C505.092 39.96 504.908 40.776 504.924 41.688C504.908 42.616 505.092 43.448 505.476 44.184C505.876 44.904 506.42 45.48 507.108 45.912C507.812 46.328 508.604 46.536 509.484 46.536Z" fill="#333333"/>
</svg>
