<svg width="1728" height="1117" viewBox="0 0 1728 1117" fill="none" xmlns="http://www.w3.org/2000/svg">
<g clip-path="url(#clip0_61_356)">
<rect width="1728" height="1117" fill="#FAFAFA"/>
<g filter="url(#filter0_d_61_356)">
<path d="M69.4 773V703H97.5C102.567 703 107.133 703.833 111.2 705.5C115.333 707.167 118.867 709.567 121.8 712.7C124.8 715.833 127.067 719.533 128.6 723.8C130.2 728.067 131 732.8 131 738C131 743.2 130.2 747.967 128.6 752.3C127.067 756.567 124.833 760.267 121.9 763.4C118.967 766.467 115.433 768.833 111.3 770.5C107.167 772.167 102.567 773 97.5 773H69.4ZM82.4 762.9L81.4 761H97C100.267 761 103.167 760.467 105.7 759.4C108.3 758.333 110.5 756.8 112.3 754.8C114.1 752.8 115.467 750.4 116.4 747.6C117.333 744.733 117.8 741.533 117.8 738C117.8 734.467 117.333 731.3 116.4 728.5C115.467 725.633 114.067 723.2 112.2 721.2C110.4 719.2 108.233 717.667 105.7 716.6C103.167 715.533 100.267 715 97 715H81.1L82.4 713.3V762.9ZM167.584 774C162.05 774 157.15 772.833 152.884 770.5C148.684 768.167 145.384 765 142.984 761C140.65 756.933 139.484 752.3 139.484 747.1C139.484 742.967 140.15 739.2 141.484 735.8C142.817 732.4 144.65 729.467 146.984 727C149.384 724.467 152.217 722.533 155.484 721.2C158.817 719.8 162.45 719.1 166.384 719.1C169.85 719.1 173.084 719.767 176.084 721.1C179.084 722.433 181.684 724.267 183.884 726.6C186.084 728.867 187.75 731.6 188.884 734.8C190.084 737.933 190.65 741.367 190.584 745.1L190.484 749.4H147.784L145.484 741H180.184L178.584 742.7V740.5C178.384 738.433 177.717 736.633 176.584 735.1C175.45 733.5 173.984 732.267 172.184 731.4C170.45 730.467 168.517 730 166.384 730C163.117 730 160.35 730.633 158.084 731.9C155.884 733.167 154.217 735 153.084 737.4C151.95 739.733 151.384 742.667 151.384 746.2C151.384 749.6 152.084 752.567 153.484 755.1C154.95 757.633 156.984 759.6 159.584 761C162.25 762.333 165.35 763 168.884 763C171.35 763 173.617 762.6 175.684 761.8C177.75 761 179.984 759.567 182.384 757.5L188.484 766C186.684 767.667 184.617 769.1 182.284 770.3C180.017 771.433 177.617 772.333 175.084 773C172.55 773.667 170.05 774 167.584 774ZM219.077 774C214.411 774 210.211 773.233 206.477 771.7C202.811 770.1 199.811 767.833 197.477 764.9L205.477 758C207.477 760.267 209.711 761.9 212.177 762.9C214.644 763.9 217.244 764.4 219.977 764.4C221.111 764.4 222.111 764.267 222.977 764C223.911 763.733 224.711 763.333 225.377 762.8C226.044 762.267 226.544 761.667 226.877 761C227.277 760.267 227.477 759.467 227.477 758.6C227.477 757 226.877 755.733 225.677 754.8C225.011 754.333 223.944 753.833 222.477 753.3C221.077 752.767 219.244 752.233 216.977 751.7C213.377 750.767 210.377 749.7 207.977 748.5C205.577 747.233 203.711 745.833 202.377 744.3C201.244 743.033 200.377 741.6 199.777 740C199.244 738.4 198.977 736.667 198.977 734.8C198.977 732.467 199.477 730.367 200.477 728.5C201.544 726.567 202.977 724.9 204.777 723.5C206.577 722.1 208.677 721.033 211.077 720.3C213.477 719.567 215.977 719.2 218.577 719.2C221.244 719.2 223.811 719.533 226.277 720.2C228.811 720.867 231.144 721.833 233.277 723.1C235.477 724.3 237.344 725.767 238.877 727.5L232.077 735C230.811 733.8 229.411 732.733 227.877 731.8C226.411 730.867 224.911 730.133 223.377 729.6C221.844 729 220.411 728.7 219.077 728.7C217.811 728.7 216.677 728.833 215.677 729.1C214.677 729.3 213.844 729.633 213.177 730.1C212.511 730.567 211.977 731.167 211.577 731.9C211.244 732.567 211.077 733.367 211.077 734.3C211.144 735.1 211.344 735.867 211.677 736.6C212.077 737.267 212.611 737.833 213.277 738.3C214.011 738.767 215.111 739.3 216.577 739.9C218.044 740.5 219.944 741.067 222.277 741.6C225.544 742.467 228.277 743.433 230.477 744.5C232.677 745.567 234.411 746.8 235.677 748.2C236.944 749.4 237.844 750.8 238.377 752.4C238.911 754 239.177 755.767 239.177 757.7C239.177 760.833 238.277 763.633 236.477 766.1C234.744 768.567 232.344 770.5 229.277 771.9C226.277 773.3 222.877 774 219.077 774ZM251.413 773V720.3H263.713V773H251.413ZM257.413 709.1C254.946 709.1 253.013 708.5 251.613 707.3C250.279 706.033 249.613 704.267 249.613 702C249.613 699.867 250.313 698.133 251.713 696.8C253.113 695.467 255.013 694.8 257.413 694.8C259.946 694.8 261.879 695.433 263.213 696.7C264.613 697.9 265.313 699.667 265.313 702C265.313 704.067 264.613 705.767 263.213 707.1C261.813 708.433 259.879 709.1 257.413 709.1ZM303.009 796C299.076 796 295.143 795.4 291.209 794.2C287.343 793 284.209 791.433 281.809 789.5L286.209 780.4C287.609 781.4 289.176 782.267 290.909 783C292.643 783.733 294.476 784.3 296.409 784.7C298.409 785.1 300.376 785.3 302.309 785.3C305.843 785.3 308.776 784.733 311.109 783.6C313.509 782.533 315.309 780.867 316.509 778.6C317.709 776.4 318.309 773.633 318.309 770.3V760.6L320.109 761.3C319.709 763.367 318.609 765.333 316.809 767.2C315.009 769.067 312.743 770.6 310.009 771.8C307.276 772.933 304.476 773.5 301.609 773.5C296.609 773.5 292.176 772.333 288.309 770C284.509 767.667 281.476 764.5 279.209 760.5C277.009 756.433 275.909 751.767 275.909 746.5C275.909 741.233 277.009 736.567 279.209 732.5C281.409 728.367 284.409 725.133 288.209 722.8C292.076 720.4 296.409 719.2 301.209 719.2C303.209 719.2 305.143 719.433 307.009 719.9C308.876 720.367 310.576 721.033 312.109 721.9C313.709 722.767 315.143 723.733 316.409 724.8C317.676 725.867 318.709 727 319.509 728.2C320.309 729.4 320.809 730.567 321.009 731.7L318.409 732.5L318.609 720.3H330.709V769.4C330.709 773.667 330.076 777.433 328.809 780.7C327.543 783.967 325.709 786.733 323.309 789C320.909 791.333 318.009 793.067 314.609 794.2C311.209 795.4 307.343 796 303.009 796ZM303.509 763C306.509 763 309.143 762.3 311.409 760.9C313.743 759.5 315.543 757.567 316.809 755.1C318.076 752.633 318.709 749.8 318.709 746.6C318.709 743.333 318.043 740.467 316.709 738C315.443 735.467 313.676 733.5 311.409 732.1C309.143 730.7 306.509 730 303.509 730C300.509 730 297.876 730.733 295.609 732.2C293.343 733.6 291.543 735.567 290.209 738.1C288.943 740.567 288.309 743.4 288.309 746.6C288.309 749.733 288.943 752.567 290.209 755.1C291.543 757.567 293.343 759.5 295.609 760.9C297.876 762.3 300.509 763 303.509 763ZM344.934 773V720.3H356.934L357.134 731.1L354.834 732.3C355.501 729.9 356.801 727.733 358.734 725.8C360.668 723.8 362.968 722.2 365.634 721C368.301 719.8 371.034 719.2 373.834 719.2C377.834 719.2 381.168 720 383.834 721.6C386.568 723.2 388.601 725.6 389.934 728.8C391.334 732 392.034 736 392.034 740.8V773H379.734V741.7C379.734 739.033 379.368 736.833 378.634 735.1C377.901 733.3 376.768 732 375.234 731.2C373.701 730.333 371.834 729.933 369.634 730C367.834 730 366.168 730.3 364.634 730.9C363.168 731.433 361.868 732.233 360.734 733.3C359.668 734.3 358.801 735.467 358.134 736.8C357.534 738.133 357.234 739.6 357.234 741.2V773H351.134C349.934 773 348.801 773 347.734 773C346.734 773 345.801 773 344.934 773ZM456.066 773V738.1L456.766 743L428.466 703H443.666L465.266 734L460.566 733.7L480.066 703H494.666L467.566 744.1L469.066 737.3V773H456.066ZM518.351 774C513.084 774 508.384 772.833 504.251 770.5C500.117 768.1 496.851 764.833 494.451 760.7C492.051 756.567 490.851 751.867 490.851 746.6C490.851 741.333 492.051 736.633 494.451 732.5C496.851 728.367 500.117 725.133 504.251 722.8C508.384 720.4 513.084 719.2 518.351 719.2C523.551 719.2 528.217 720.4 532.351 722.8C536.484 725.133 539.717 728.367 542.051 732.5C544.451 736.633 545.651 741.333 545.651 746.6C545.651 751.867 544.451 756.567 542.051 760.7C539.717 764.833 536.484 768.1 532.351 770.5C528.217 772.833 523.551 774 518.351 774ZM518.351 763.1C521.217 763.1 523.751 762.367 525.951 760.9C528.217 759.433 529.984 757.467 531.251 755C532.584 752.533 533.217 749.733 533.151 746.6C533.217 743.4 532.584 740.567 531.251 738.1C529.984 735.633 528.217 733.7 525.951 732.3C523.751 730.833 521.217 730.1 518.351 730.1C515.484 730.1 512.884 730.833 510.551 732.3C508.284 733.7 506.517 735.667 505.251 738.2C503.984 740.667 503.351 743.467 503.351 746.6C503.351 749.733 503.984 752.533 505.251 755C506.517 757.467 508.284 759.433 510.551 760.9C512.884 762.367 515.484 763.1 518.351 763.1ZM574.953 774C571.153 774 567.853 773.167 565.053 771.5C562.253 769.767 560.12 767.333 558.653 764.2C557.186 761 556.453 757.2 556.453 752.8V720.3H568.753V750.2C568.753 753 569.186 755.4 570.053 757.4C570.92 759.333 572.186 760.833 573.853 761.9C575.52 762.967 577.52 763.5 579.853 763.5C581.586 763.5 583.153 763.233 584.553 762.7C586.02 762.1 587.286 761.3 588.353 760.3C589.42 759.233 590.253 758 590.853 756.6C591.453 755.133 591.753 753.567 591.753 751.9V720.3H604.053V773H592.053L591.853 762L594.053 760.8C593.253 763.333 591.886 765.6 589.953 767.6C588.086 769.533 585.853 771.1 583.253 772.3C580.653 773.433 577.886 774 574.953 774ZM618.47 773V720.3H630.57L630.77 737.1L629.07 733.3C629.803 730.633 631.07 728.233 632.87 726.1C634.67 723.967 636.736 722.3 639.07 721.1C641.47 719.833 643.97 719.2 646.57 719.2C647.703 719.2 648.77 719.3 649.77 719.5C650.836 719.7 651.703 719.933 652.37 720.2L649.07 733.7C648.336 733.3 647.436 732.967 646.37 732.7C645.303 732.433 644.236 732.3 643.17 732.3C641.503 732.3 639.903 732.633 638.37 733.3C636.903 733.9 635.603 734.767 634.47 735.9C633.336 737.033 632.436 738.367 631.77 739.9C631.17 741.367 630.87 743.033 630.87 744.9V773H618.47ZM69.4 898V828H81.7L107.2 869.5L100 869.4L125.8 828H137.5V898H124.6V871.7C124.6 865.7 124.733 860.3 125 855.5C125.333 850.7 125.867 845.933 126.6 841.2L128.2 845.5L106.5 879H99.9L78.9 845.8L80.3 841.2C81.0333 845.667 81.5333 850.267 81.8 855C82.1333 859.667 82.3 865.233 82.3 871.7V898H69.4ZM178.214 899C172.947 899 168.247 897.833 164.114 895.5C159.981 893.1 156.714 889.833 154.314 885.7C151.914 881.567 150.714 876.867 150.714 871.6C150.714 866.333 151.914 861.633 154.314 857.5C156.714 853.367 159.981 850.133 164.114 847.8C168.247 845.4 172.947 844.2 178.214 844.2C183.414 844.2 188.081 845.4 192.214 847.8C196.347 850.133 199.581 853.367 201.914 857.5C204.314 861.633 205.514 866.333 205.514 871.6C205.514 876.867 204.314 881.567 201.914 885.7C199.581 889.833 196.347 893.1 192.214 895.5C188.081 897.833 183.414 899 178.214 899ZM178.214 888.1C181.081 888.1 183.614 887.367 185.814 885.9C188.081 884.433 189.847 882.467 191.114 880C192.447 877.533 193.081 874.733 193.014 871.6C193.081 868.4 192.447 865.567 191.114 863.1C189.847 860.633 188.081 858.7 185.814 857.3C183.614 855.833 181.081 855.1 178.214 855.1C175.347 855.1 172.747 855.833 170.414 857.3C168.147 858.7 166.381 860.667 165.114 863.2C163.847 865.667 163.214 868.467 163.214 871.6C163.214 874.733 163.847 877.533 165.114 880C166.381 882.467 168.147 884.433 170.414 885.9C172.747 887.367 175.347 888.1 178.214 888.1ZM237.716 899C233.05 899 228.85 897.833 225.116 895.5C221.45 893.1 218.516 889.867 216.316 885.8C214.183 881.667 213.116 876.933 213.116 871.6C213.116 866.333 214.183 861.633 216.316 857.5C218.45 853.367 221.35 850.133 225.016 847.8C228.75 845.4 232.95 844.2 237.616 844.2C240.15 844.2 242.583 844.6 244.916 845.4C247.316 846.2 249.45 847.3 251.316 848.7C253.183 850.033 254.65 851.533 255.716 853.2C256.85 854.867 257.483 856.6 257.616 858.4L254.316 858.8V824H266.616V898H254.716L254.416 885.6L256.816 885.8C256.75 887.467 256.15 889.067 255.016 890.6C253.95 892.133 252.55 893.533 250.816 894.8C249.083 896.067 247.05 897.1 244.716 897.9C242.45 898.633 240.116 899 237.716 899ZM240.116 888.6C242.983 888.6 245.516 887.867 247.716 886.4C249.916 884.933 251.616 882.933 252.816 880.4C254.083 877.867 254.716 874.933 254.716 871.6C254.716 868.333 254.083 865.433 252.816 862.9C251.616 860.3 249.916 858.3 247.716 856.9C245.516 855.433 242.983 854.7 240.116 854.7C237.25 854.7 234.716 855.433 232.516 856.9C230.316 858.3 228.583 860.3 227.316 862.9C226.116 865.433 225.516 868.333 225.516 871.6C225.516 874.933 226.116 877.867 227.316 880.4C228.583 882.933 230.316 884.933 232.516 886.4C234.716 887.867 237.25 888.6 240.116 888.6ZM300.441 899C296.641 899 293.341 898.167 290.541 896.5C287.741 894.767 285.608 892.333 284.141 889.2C282.675 886 281.941 882.2 281.941 877.8V845.3H294.241V875.2C294.241 878 294.675 880.4 295.541 882.4C296.408 884.333 297.675 885.833 299.341 886.9C301.008 887.967 303.008 888.5 305.341 888.5C307.075 888.5 308.641 888.233 310.041 887.7C311.508 887.1 312.775 886.3 313.841 885.3C314.908 884.233 315.741 883 316.341 881.6C316.941 880.133 317.241 878.567 317.241 876.9V845.3H329.541V898H317.541L317.341 887L319.541 885.8C318.741 888.333 317.375 890.6 315.441 892.6C313.575 894.533 311.341 896.1 308.741 897.3C306.141 898.433 303.375 899 300.441 899ZM344.058 898V824H356.458V898H344.058ZM394.634 899C389.101 899 384.201 897.833 379.934 895.5C375.734 893.167 372.434 890 370.034 886C367.701 881.933 366.534 877.3 366.534 872.1C366.534 867.967 367.201 864.2 368.534 860.8C369.868 857.4 371.701 854.467 374.034 852C376.434 849.467 379.268 847.533 382.534 846.2C385.868 844.8 389.501 844.1 393.434 844.1C396.901 844.1 400.134 844.767 403.134 846.1C406.134 847.433 408.734 849.267 410.934 851.6C413.134 853.867 414.801 856.6 415.934 859.8C417.134 862.933 417.701 866.367 417.634 870.1L417.534 874.4H374.834L372.534 866H407.234L405.634 867.7V865.5C405.434 863.433 404.768 861.633 403.634 860.1C402.501 858.5 401.034 857.267 399.234 856.4C397.501 855.467 395.568 855 393.434 855C390.168 855 387.401 855.633 385.134 856.9C382.934 858.167 381.268 860 380.134 862.4C379.001 864.733 378.434 867.667 378.434 871.2C378.434 874.6 379.134 877.567 380.534 880.1C382.001 882.633 384.034 884.6 386.634 886C389.301 887.333 392.401 888 395.934 888C398.401 888 400.668 887.6 402.734 886.8C404.801 886 407.034 884.567 409.434 882.5L415.534 891C413.734 892.667 411.668 894.1 409.334 895.3C407.068 896.433 404.668 897.333 402.134 898C399.601 898.667 397.101 899 394.634 899Z" fill="#545FD1"/>
</g>
<path d="M1404.93 803V782H1408.44L1420.62 798.41L1419.96 798.53C1419.88 797.97 1419.81 797.4 1419.75 796.82C1419.69 796.22 1419.63 795.6 1419.57 794.96C1419.53 794.32 1419.49 793.65 1419.45 792.95C1419.43 792.25 1419.41 791.52 1419.39 790.76C1419.37 789.98 1419.36 789.16 1419.36 788.3V782H1423.23V803H1419.66L1407.42 786.83L1408.2 786.62C1408.3 787.74 1408.38 788.7 1408.44 789.5C1408.52 790.28 1408.58 790.96 1408.62 791.54C1408.66 792.1 1408.69 792.57 1408.71 792.95C1408.75 793.33 1408.77 793.68 1408.77 794C1408.79 794.3 1408.8 794.59 1408.8 794.87V803H1404.93ZM1434.18 803.3C1432.88 803.3 1431.7 802.94 1430.64 802.22C1429.58 801.5 1428.73 800.52 1428.09 799.28C1427.45 798.04 1427.13 796.63 1427.13 795.05C1427.13 793.47 1427.45 792.06 1428.09 790.82C1428.73 789.58 1429.6 788.61 1430.7 787.91C1431.8 787.21 1433.04 786.86 1434.42 786.86C1435.22 786.86 1435.95 786.98 1436.61 787.22C1437.27 787.44 1437.85 787.76 1438.35 788.18C1438.85 788.6 1439.26 789.08 1439.58 789.62C1439.92 790.16 1440.15 790.74 1440.27 791.36L1439.46 791.15V787.19H1443.18V803H1439.43V799.22L1440.3 799.07C1440.16 799.61 1439.9 800.14 1439.52 800.66C1439.16 801.16 1438.7 801.61 1438.14 802.01C1437.6 802.39 1436.99 802.7 1436.31 802.94C1435.65 803.18 1434.94 803.3 1434.18 803.3ZM1435.2 800.03C1436.06 800.03 1436.82 799.82 1437.48 799.4C1438.14 798.98 1438.65 798.4 1439.01 797.66C1439.39 796.9 1439.58 796.03 1439.58 795.05C1439.58 794.09 1439.39 793.24 1439.01 792.5C1438.65 791.76 1438.14 791.18 1437.48 790.76C1436.82 790.34 1436.06 790.13 1435.2 790.13C1434.34 790.13 1433.58 790.34 1432.92 790.76C1432.28 791.18 1431.78 791.76 1431.42 792.5C1431.06 793.24 1430.88 794.09 1430.88 795.05C1430.88 796.03 1431.06 796.9 1431.42 797.66C1431.78 798.4 1432.28 798.98 1432.92 799.4C1433.58 799.82 1434.34 800.03 1435.2 800.03ZM1447.4 803V787.19H1451.03L1451.09 790.37L1450.49 790.61C1450.67 790.09 1450.94 789.61 1451.3 789.17C1451.66 788.71 1452.09 788.32 1452.59 788C1453.09 787.66 1453.62 787.4 1454.18 787.22C1454.74 787.02 1455.31 786.92 1455.89 786.92C1456.75 786.92 1457.51 787.06 1458.17 787.34C1458.85 787.6 1459.41 788.02 1459.85 788.6C1460.31 789.18 1460.65 789.92 1460.87 790.82L1460.3 790.7L1460.54 790.22C1460.76 789.74 1461.07 789.31 1461.47 788.93C1461.87 788.53 1462.32 788.18 1462.82 787.88C1463.32 787.56 1463.84 787.32 1464.38 787.16C1464.94 787 1465.49 786.92 1466.03 786.92C1467.23 786.92 1468.23 787.16 1469.03 787.64C1469.83 788.12 1470.43 788.85 1470.83 789.83C1471.23 790.81 1471.43 792.02 1471.43 793.46V803H1467.71V793.7C1467.71 792.9 1467.6 792.24 1467.38 791.72C1467.18 791.2 1466.86 790.82 1466.42 790.58C1466 790.32 1465.47 790.19 1464.83 790.19C1464.33 790.19 1463.85 790.28 1463.39 790.46C1462.95 790.62 1462.57 790.86 1462.25 791.18C1461.93 791.48 1461.68 791.83 1461.5 792.23C1461.32 792.63 1461.23 793.07 1461.23 793.55V803H1457.51V793.67C1457.51 792.91 1457.4 792.28 1457.18 791.78C1456.96 791.26 1456.64 790.87 1456.22 790.61C1455.8 790.33 1455.29 790.19 1454.69 790.19C1454.19 790.19 1453.72 790.28 1453.28 790.46C1452.84 790.62 1452.46 790.85 1452.14 791.15C1451.82 791.45 1451.57 791.8 1451.39 792.2C1451.21 792.6 1451.12 793.04 1451.12 793.52V803H1447.4ZM1482.93 803.3C1481.27 803.3 1479.8 802.95 1478.52 802.25C1477.26 801.55 1476.27 800.6 1475.55 799.4C1474.85 798.18 1474.5 796.79 1474.5 795.23C1474.5 793.99 1474.7 792.86 1475.1 791.84C1475.5 790.82 1476.05 789.94 1476.75 789.2C1477.47 788.44 1478.32 787.86 1479.3 787.46C1480.3 787.04 1481.39 786.83 1482.57 786.83C1483.61 786.83 1484.58 787.03 1485.48 787.43C1486.38 787.83 1487.16 788.38 1487.82 789.08C1488.48 789.76 1488.98 790.58 1489.32 791.54C1489.68 792.48 1489.85 793.51 1489.83 794.63L1489.8 795.92H1476.99L1476.3 793.4H1486.71L1486.23 793.91V793.25C1486.17 792.63 1485.97 792.09 1485.63 791.63C1485.29 791.15 1484.85 790.78 1484.31 790.52C1483.79 790.24 1483.21 790.1 1482.57 790.1C1481.59 790.1 1480.76 790.29 1480.08 790.67C1479.42 791.05 1478.92 791.6 1478.58 792.32C1478.24 793.02 1478.07 793.9 1478.07 794.96C1478.07 795.98 1478.28 796.87 1478.7 797.63C1479.14 798.39 1479.75 798.98 1480.53 799.4C1481.33 799.8 1482.26 800 1483.32 800C1484.06 800 1484.74 799.88 1485.36 799.64C1485.98 799.4 1486.65 798.97 1487.37 798.35L1489.2 800.9C1488.66 801.4 1488.04 801.83 1487.34 802.19C1486.66 802.53 1485.94 802.8 1485.18 803C1484.42 803.2 1483.67 803.3 1482.93 803.3ZM1509.15 803.3C1507.57 803.3 1506.16 802.95 1504.92 802.25C1503.68 801.53 1502.7 800.55 1501.98 799.31C1501.26 798.07 1500.9 796.66 1500.9 795.08C1500.9 793.5 1501.26 792.09 1501.98 790.85C1502.7 789.61 1503.68 788.64 1504.92 787.94C1506.16 787.22 1507.57 786.86 1509.15 786.86C1510.71 786.86 1512.11 787.22 1513.35 787.94C1514.59 788.64 1515.56 789.61 1516.26 790.85C1516.98 792.09 1517.34 793.5 1517.34 795.08C1517.34 796.66 1516.98 798.07 1516.26 799.31C1515.56 800.55 1514.59 801.53 1513.35 802.25C1512.11 802.95 1510.71 803.3 1509.15 803.3ZM1509.15 800.03C1510.01 800.03 1510.77 799.81 1511.43 799.37C1512.11 798.93 1512.64 798.34 1513.02 797.6C1513.42 796.86 1513.61 796.02 1513.59 795.08C1513.61 794.12 1513.42 793.27 1513.02 792.53C1512.64 791.79 1512.11 791.21 1511.43 790.79C1510.77 790.35 1510.01 790.13 1509.15 790.13C1508.29 790.13 1507.51 790.35 1506.81 790.79C1506.13 791.21 1505.6 791.8 1505.22 792.56C1504.84 793.3 1504.65 794.14 1504.65 795.08C1504.65 796.02 1504.84 796.86 1505.22 797.6C1505.6 798.34 1506.13 798.93 1506.81 799.37C1507.51 799.81 1508.29 800.03 1509.15 800.03ZM1521.49 803V785.78C1521.49 784.82 1521.7 783.97 1522.12 783.23C1522.54 782.47 1523.12 781.88 1523.86 781.46C1524.6 781.02 1525.46 780.8 1526.44 780.8C1527.12 780.8 1527.75 780.92 1528.33 781.16C1528.91 781.38 1529.4 781.69 1529.8 782.09L1528.66 784.88C1528.4 784.66 1528.12 784.49 1527.82 784.37C1527.54 784.25 1527.27 784.19 1527.01 784.19C1526.61 784.19 1526.27 784.26 1525.99 784.4C1525.73 784.52 1525.53 784.71 1525.39 784.97C1525.27 785.23 1525.21 785.54 1525.21 785.9V803H1523.35C1522.99 803 1522.65 803 1522.33 803C1522.03 803 1521.75 803 1521.49 803ZM1519.03 790.76V787.52H1528.78V790.76H1519.03ZM1541.31 803V782H1545L1552.65 794.45L1550.49 794.42L1558.23 782H1561.74V803H1557.87V795.11C1557.87 793.31 1557.91 791.69 1557.99 790.25C1558.09 788.81 1558.25 787.38 1558.47 785.96L1558.95 787.25L1552.44 797.3H1550.46L1544.16 787.34L1544.58 785.96C1544.8 787.3 1544.95 788.68 1545.03 790.1C1545.13 791.5 1545.18 793.17 1545.18 795.11V803H1541.31ZM1573.95 803.3C1572.37 803.3 1570.96 802.95 1569.72 802.25C1568.48 801.53 1567.5 800.55 1566.78 799.31C1566.06 798.07 1565.7 796.66 1565.7 795.08C1565.7 793.5 1566.06 792.09 1566.78 790.85C1567.5 789.61 1568.48 788.64 1569.72 787.94C1570.96 787.22 1572.37 786.86 1573.95 786.86C1575.51 786.86 1576.91 787.22 1578.15 787.94C1579.39 788.64 1580.36 789.61 1581.06 790.85C1581.78 792.09 1582.14 793.5 1582.14 795.08C1582.14 796.66 1581.78 798.07 1581.06 799.31C1580.36 800.55 1579.39 801.53 1578.15 802.25C1576.91 802.95 1575.51 803.3 1573.95 803.3ZM1573.95 800.03C1574.81 800.03 1575.57 799.81 1576.23 799.37C1576.91 798.93 1577.44 798.34 1577.82 797.6C1578.22 796.86 1578.41 796.02 1578.39 795.08C1578.41 794.12 1578.22 793.27 1577.82 792.53C1577.44 791.79 1576.91 791.21 1576.23 790.79C1575.57 790.35 1574.81 790.13 1573.95 790.13C1573.09 790.13 1572.31 790.35 1571.61 790.79C1570.93 791.21 1570.4 791.8 1570.02 792.56C1569.64 793.3 1569.45 794.14 1569.45 795.08C1569.45 796.02 1569.64 796.86 1570.02 797.6C1570.4 798.34 1570.93 798.93 1571.61 799.37C1572.31 799.81 1573.09 800.03 1573.95 800.03ZM1591.8 803.3C1590.4 803.3 1589.14 802.95 1588.02 802.25C1586.92 801.53 1586.04 800.56 1585.38 799.34C1584.74 798.1 1584.42 796.68 1584.42 795.08C1584.42 793.5 1584.74 792.09 1585.38 790.85C1586.02 789.61 1586.89 788.64 1587.99 787.94C1589.11 787.22 1590.37 786.86 1591.77 786.86C1592.53 786.86 1593.26 786.98 1593.96 787.22C1594.68 787.46 1595.32 787.79 1595.88 788.21C1596.44 788.61 1596.88 789.06 1597.2 789.56C1597.54 790.06 1597.73 790.58 1597.77 791.12L1596.78 791.24V780.8H1600.47V803H1596.9L1596.81 799.28L1597.53 799.34C1597.51 799.84 1597.33 800.32 1596.99 800.78C1596.67 801.24 1596.25 801.66 1595.73 802.04C1595.21 802.42 1594.6 802.73 1593.9 802.97C1593.22 803.19 1592.52 803.3 1591.8 803.3ZM1592.52 800.18C1593.38 800.18 1594.14 799.96 1594.8 799.52C1595.46 799.08 1595.97 798.48 1596.33 797.72C1596.71 796.96 1596.9 796.08 1596.9 795.08C1596.9 794.1 1596.71 793.23 1596.33 792.47C1595.97 791.69 1595.46 791.09 1594.8 790.67C1594.14 790.23 1593.38 790.01 1592.52 790.01C1591.66 790.01 1590.9 790.23 1590.24 790.67C1589.58 791.09 1589.06 791.69 1588.68 792.47C1588.32 793.23 1588.14 794.1 1588.14 795.08C1588.14 796.08 1588.32 796.96 1588.68 797.72C1589.06 798.48 1589.58 799.08 1590.24 799.52C1590.9 799.96 1591.66 800.18 1592.52 800.18ZM1610.62 803.3C1609.48 803.3 1608.49 803.05 1607.65 802.55C1606.81 802.03 1606.17 801.3 1605.73 800.36C1605.29 799.4 1605.07 798.26 1605.07 796.94V787.19H1608.76V796.16C1608.76 797 1608.89 797.72 1609.15 798.32C1609.41 798.9 1609.79 799.35 1610.29 799.67C1610.79 799.99 1611.39 800.15 1612.09 800.15C1612.61 800.15 1613.08 800.07 1613.5 799.91C1613.94 799.73 1614.32 799.49 1614.64 799.19C1614.96 798.87 1615.21 798.5 1615.39 798.08C1615.57 797.64 1615.66 797.17 1615.66 796.67V787.19H1619.35V803H1615.75L1615.69 799.7L1616.35 799.34C1616.11 800.1 1615.7 800.78 1615.12 801.38C1614.56 801.96 1613.89 802.43 1613.11 802.79C1612.33 803.13 1611.5 803.3 1610.62 803.3ZM1623.71 803V780.8H1627.43V803H1623.71ZM1638.88 803.3C1637.22 803.3 1635.75 802.95 1634.47 802.25C1633.21 801.55 1632.22 800.6 1631.5 799.4C1630.8 798.18 1630.45 796.79 1630.45 795.23C1630.45 793.99 1630.65 792.86 1631.05 791.84C1631.45 790.82 1632 789.94 1632.7 789.2C1633.42 788.44 1634.27 787.86 1635.25 787.46C1636.25 787.04 1637.34 786.83 1638.52 786.83C1639.56 786.83 1640.53 787.03 1641.43 787.43C1642.33 787.83 1643.11 788.38 1643.77 789.08C1644.43 789.76 1644.93 790.58 1645.27 791.54C1645.63 792.48 1645.8 793.51 1645.78 794.63L1645.75 795.92H1632.94L1632.25 793.4H1642.66L1642.18 793.91V793.25C1642.12 792.63 1641.92 792.09 1641.58 791.63C1641.24 791.15 1640.8 790.78 1640.26 790.52C1639.74 790.24 1639.16 790.1 1638.52 790.1C1637.54 790.1 1636.71 790.29 1636.03 790.67C1635.37 791.05 1634.87 791.6 1634.53 792.32C1634.19 793.02 1634.02 793.9 1634.02 794.96C1634.02 795.98 1634.23 796.87 1634.65 797.63C1635.09 798.39 1635.7 798.98 1636.48 799.4C1637.28 799.8 1638.21 800 1639.27 800C1640.01 800 1640.69 799.88 1641.31 799.64C1641.93 799.4 1642.6 798.97 1643.32 798.35L1645.15 800.9C1644.61 801.4 1643.99 801.83 1643.29 802.19C1642.61 802.53 1641.89 802.8 1641.13 803C1640.37 803.2 1639.62 803.3 1638.88 803.3Z" fill="#2F3899"/>
<path d="M74.0005 221.3C72.4805 221.3 71.0905 221.04 69.8305 220.52C68.5705 220 67.4805 219.26 66.5605 218.3C65.6405 217.32 64.9205 216.17 64.4005 214.85C63.9005 213.51 63.6505 212.05 63.6505 210.47C63.6505 208.95 63.9205 207.54 64.4605 206.24C65.0005 204.94 65.7505 203.8 66.7105 202.82C67.6705 201.84 68.7905 201.08 70.0705 200.54C71.3505 200 72.7405 199.73 74.2405 199.73C75.2605 199.73 76.2505 199.88 77.2105 200.18C78.1705 200.48 79.0505 200.9 79.8505 201.44C80.6505 201.96 81.3205 202.57 81.8605 203.27L79.3705 206C78.8505 205.46 78.3105 205.01 77.7505 204.65C77.2105 204.27 76.6405 203.99 76.0405 203.81C75.4605 203.61 74.8605 203.51 74.2405 203.51C73.3205 203.51 72.4505 203.68 71.6305 204.02C70.8305 204.36 70.1305 204.84 69.5305 205.46C68.9505 206.08 68.4905 206.82 68.1505 207.68C67.8105 208.52 67.6405 209.46 67.6405 210.5C67.6405 211.56 67.8005 212.52 68.1205 213.38C68.4605 214.24 68.9305 214.98 69.5305 215.6C70.1505 216.22 70.8805 216.7 71.7205 217.04C72.5805 217.36 73.5205 217.52 74.5405 217.52C75.2005 217.52 75.8405 217.43 76.4605 217.25C77.0805 217.07 77.6505 216.82 78.1705 216.5C78.7105 216.16 79.2005 215.77 79.6405 215.33L81.5605 218.42C81.0805 218.96 80.4405 219.45 79.6405 219.89C78.8405 220.33 77.9405 220.68 76.9405 220.94C75.9605 221.18 74.9805 221.3 74.0005 221.3ZM84.9383 221V198.8H88.5983V208.43L87.9083 208.79C88.1083 208.07 88.4983 207.42 89.0783 206.84C89.6583 206.24 90.3483 205.76 91.1483 205.4C91.9483 205.04 92.7683 204.86 93.6083 204.86C94.8083 204.86 95.8083 205.1 96.6083 205.58C97.4283 206.06 98.0383 206.78 98.4383 207.74C98.8583 208.7 99.0683 209.9 99.0683 211.34V221H95.3783V211.61C95.3783 210.81 95.2683 210.15 95.0483 209.63C94.8283 209.09 94.4883 208.7 94.0283 208.46C93.5683 208.2 93.0083 208.08 92.3483 208.1C91.8083 208.1 91.3083 208.19 90.8483 208.37C90.4083 208.53 90.0183 208.77 89.6783 209.09C89.3583 209.39 89.0983 209.74 88.8983 210.14C88.7183 210.54 88.6283 210.98 88.6283 211.46V221H86.7983C86.4383 221 86.0983 221 85.7783 221C85.4783 221 85.1983 221 84.9383 221ZM110.45 221.3C108.87 221.3 107.46 220.95 106.22 220.25C104.98 219.53 104 218.55 103.28 217.31C102.56 216.07 102.2 214.66 102.2 213.08C102.2 211.5 102.56 210.09 103.28 208.85C104 207.61 104.98 206.64 106.22 205.94C107.46 205.22 108.87 204.86 110.45 204.86C112.01 204.86 113.41 205.22 114.65 205.94C115.89 206.64 116.86 207.61 117.56 208.85C118.28 210.09 118.64 211.5 118.64 213.08C118.64 214.66 118.28 216.07 117.56 217.31C116.86 218.55 115.89 219.53 114.65 220.25C113.41 220.95 112.01 221.3 110.45 221.3ZM110.45 218.03C111.31 218.03 112.07 217.81 112.73 217.37C113.41 216.93 113.94 216.34 114.32 215.6C114.72 214.86 114.91 214.02 114.89 213.08C114.91 212.12 114.72 211.27 114.32 210.53C113.94 209.79 113.41 209.21 112.73 208.79C112.07 208.35 111.31 208.13 110.45 208.13C109.59 208.13 108.81 208.35 108.11 208.79C107.43 209.21 106.9 209.8 106.52 210.56C106.14 211.3 105.95 212.14 105.95 213.08C105.95 214.02 106.14 214.86 106.52 215.6C106.9 216.34 107.43 216.93 108.11 217.37C108.81 217.81 109.59 218.03 110.45 218.03ZM129.17 221.3C127.59 221.3 126.18 220.95 124.94 220.25C123.7 219.53 122.72 218.55 122 217.31C121.28 216.07 120.92 214.66 120.92 213.08C120.92 211.5 121.28 210.09 122 208.85C122.72 207.61 123.7 206.64 124.94 205.94C126.18 205.22 127.59 204.86 129.17 204.86C130.73 204.86 132.13 205.22 133.37 205.94C134.61 206.64 135.58 207.61 136.28 208.85C137 210.09 137.36 211.5 137.36 213.08C137.36 214.66 137 216.07 136.28 217.31C135.58 218.55 134.61 219.53 133.37 220.25C132.13 220.95 130.73 221.3 129.17 221.3ZM129.17 218.03C130.03 218.03 130.79 217.81 131.45 217.37C132.13 216.93 132.66 216.34 133.04 215.6C133.44 214.86 133.63 214.02 133.61 213.08C133.63 212.12 133.44 211.27 133.04 210.53C132.66 209.79 132.13 209.21 131.45 208.79C130.79 208.35 130.03 208.13 129.17 208.13C128.31 208.13 127.53 208.35 126.83 208.79C126.15 209.21 125.62 209.8 125.24 210.56C124.86 211.3 124.67 212.14 124.67 213.08C124.67 214.02 124.86 214.86 125.24 215.6C125.62 216.34 126.15 216.93 126.83 217.37C127.53 217.81 128.31 218.03 129.17 218.03ZM145.941 221.3C144.541 221.3 143.281 221.07 142.161 220.61C141.061 220.13 140.161 219.45 139.461 218.57L141.861 216.5C142.461 217.18 143.131 217.67 143.871 217.97C144.611 218.27 145.391 218.42 146.211 218.42C146.551 218.42 146.851 218.38 147.111 218.3C147.391 218.22 147.631 218.1 147.831 217.94C148.031 217.78 148.181 217.6 148.281 217.4C148.401 217.18 148.461 216.94 148.461 216.68C148.461 216.2 148.281 215.82 147.921 215.54C147.721 215.4 147.401 215.25 146.961 215.09C146.541 214.93 145.991 214.77 145.311 214.61C144.231 214.33 143.331 214.01 142.611 213.65C141.891 213.27 141.331 212.85 140.931 212.39C140.591 212.01 140.331 211.58 140.151 211.1C139.991 210.62 139.911 210.1 139.911 209.54C139.911 208.84 140.061 208.21 140.361 207.65C140.681 207.07 141.111 206.57 141.651 206.15C142.191 205.73 142.821 205.41 143.541 205.19C144.261 204.97 145.011 204.86 145.791 204.86C146.591 204.86 147.361 204.96 148.101 205.16C148.861 205.36 149.561 205.65 150.201 206.03C150.861 206.39 151.421 206.83 151.881 207.35L149.841 209.6C149.461 209.24 149.041 208.92 148.581 208.64C148.141 208.36 147.691 208.14 147.231 207.98C146.771 207.8 146.341 207.71 145.941 207.71C145.561 207.71 145.221 207.75 144.921 207.83C144.621 207.89 144.371 207.99 144.171 208.13C143.971 208.27 143.811 208.45 143.691 208.67C143.591 208.87 143.541 209.11 143.541 209.39C143.561 209.63 143.621 209.86 143.721 210.08C143.841 210.28 144.001 210.45 144.201 210.59C144.421 210.73 144.751 210.89 145.191 211.07C145.631 211.25 146.201 211.42 146.901 211.58C147.881 211.84 148.701 212.13 149.361 212.45C150.021 212.77 150.541 213.14 150.921 213.56C151.301 213.92 151.571 214.34 151.731 214.82C151.891 215.3 151.971 215.83 151.971 216.41C151.971 217.35 151.701 218.19 151.161 218.93C150.641 219.67 149.921 220.25 149.001 220.67C148.101 221.09 147.081 221.3 145.941 221.3ZM162.632 221.3C160.972 221.3 159.502 220.95 158.222 220.25C156.962 219.55 155.972 218.6 155.252 217.4C154.552 216.18 154.202 214.79 154.202 213.23C154.202 211.99 154.402 210.86 154.802 209.84C155.202 208.82 155.752 207.94 156.452 207.2C157.172 206.44 158.022 205.86 159.002 205.46C160.002 205.04 161.092 204.83 162.272 204.83C163.312 204.83 164.282 205.03 165.182 205.43C166.082 205.83 166.862 206.38 167.522 207.08C168.182 207.76 168.682 208.58 169.022 209.54C169.382 210.48 169.552 211.51 169.532 212.63L169.502 213.92H156.692L156.002 211.4H166.412L165.932 211.91V211.25C165.872 210.63 165.672 210.09 165.332 209.63C164.992 209.15 164.552 208.78 164.012 208.52C163.492 208.24 162.912 208.1 162.272 208.1C161.292 208.1 160.462 208.29 159.782 208.67C159.122 209.05 158.622 209.6 158.282 210.32C157.942 211.02 157.772 211.9 157.772 212.96C157.772 213.98 157.982 214.87 158.402 215.63C158.842 216.39 159.452 216.98 160.232 217.4C161.032 217.8 161.962 218 163.022 218C163.762 218 164.442 217.88 165.062 217.64C165.682 217.4 166.352 216.97 167.072 216.35L168.902 218.9C168.362 219.4 167.742 219.83 167.042 220.19C166.362 220.53 165.642 220.8 164.882 221C164.122 221.2 163.372 221.3 162.632 221.3ZM179.938 221L188.128 200H191.788L199.918 221H195.868L191.368 209.06C191.268 208.82 191.128 208.44 190.948 207.92C190.788 207.4 190.608 206.84 190.408 206.24C190.208 205.62 190.028 205.05 189.868 204.53C189.708 203.99 189.588 203.6 189.508 203.36L190.258 203.33C190.138 203.73 189.998 204.18 189.838 204.68C189.678 205.18 189.508 205.7 189.328 206.24C189.148 206.78 188.968 207.3 188.788 207.8C188.628 208.3 188.478 208.75 188.338 209.15L183.838 221H179.938ZM183.658 216.2L185.008 212.81H194.578L196.018 216.2H183.658ZM216.244 221V203.6H210.244V200H226.324V203.6H220.144V221H216.244ZM233.911 221.3C232.251 221.3 230.781 220.95 229.501 220.25C228.241 219.55 227.251 218.6 226.531 217.4C225.831 216.18 225.481 214.79 225.481 213.23C225.481 211.99 225.681 210.86 226.081 209.84C226.481 208.82 227.031 207.94 227.731 207.2C228.451 206.44 229.301 205.86 230.281 205.46C231.281 205.04 232.371 204.83 233.551 204.83C234.591 204.83 235.561 205.03 236.461 205.43C237.361 205.83 238.141 206.38 238.801 207.08C239.461 207.76 239.961 208.58 240.301 209.54C240.661 210.48 240.831 211.51 240.811 212.63L240.781 213.92H227.971L227.281 211.4H237.691L237.211 211.91V211.25C237.151 210.63 236.951 210.09 236.611 209.63C236.271 209.15 235.831 208.78 235.291 208.52C234.771 208.24 234.191 208.1 233.551 208.1C232.571 208.1 231.741 208.29 231.061 208.67C230.401 209.05 229.901 209.6 229.561 210.32C229.221 211.02 229.051 211.9 229.051 212.96C229.051 213.98 229.261 214.87 229.681 215.63C230.121 216.39 230.731 216.98 231.511 217.4C232.311 217.8 233.241 218 234.301 218C235.041 218 235.721 217.88 236.341 217.64C236.961 217.4 237.631 216.97 238.351 216.35L240.181 218.9C239.641 219.4 239.021 219.83 238.321 220.19C237.641 220.53 236.921 220.8 236.161 221C235.401 221.2 234.651 221.3 233.911 221.3ZM250.049 221.3C248.749 221.3 247.569 220.94 246.509 220.22C245.449 219.5 244.599 218.52 243.959 217.28C243.319 216.04 242.999 214.63 242.999 213.05C242.999 211.47 243.319 210.06 243.959 208.82C244.599 207.58 245.469 206.61 246.569 205.91C247.669 205.21 248.909 204.86 250.289 204.86C251.089 204.86 251.819 204.98 252.479 205.22C253.139 205.44 253.719 205.76 254.219 206.18C254.719 206.6 255.129 207.08 255.449 207.62C255.789 208.16 256.019 208.74 256.139 209.36L255.329 209.15V205.19H259.049V221H255.299V217.22L256.169 217.07C256.029 217.61 255.769 218.14 255.389 218.66C255.029 219.16 254.569 219.61 254.009 220.01C253.469 220.39 252.859 220.7 252.179 220.94C251.519 221.18 250.809 221.3 250.049 221.3ZM251.069 218.03C251.929 218.03 252.689 217.82 253.349 217.4C254.009 216.98 254.519 216.4 254.879 215.66C255.259 214.9 255.449 214.03 255.449 213.05C255.449 212.09 255.259 211.24 254.879 210.5C254.519 209.76 254.009 209.18 253.349 208.76C252.689 208.34 251.929 208.13 251.069 208.13C250.209 208.13 249.449 208.34 248.789 208.76C248.149 209.18 247.649 209.76 247.289 210.5C246.929 211.24 246.749 212.09 246.749 213.05C246.749 214.03 246.929 214.9 247.289 215.66C247.649 216.4 248.149 216.98 248.789 217.4C249.449 217.82 250.209 218.03 251.069 218.03ZM270.107 221.3C268.627 221.3 267.297 220.94 266.117 220.22C264.937 219.5 264.007 218.52 263.327 217.28C262.647 216.04 262.307 214.64 262.307 213.08C262.307 211.52 262.647 210.12 263.327 208.88C264.007 207.64 264.937 206.66 266.117 205.94C267.297 205.22 268.627 204.86 270.107 204.86C271.527 204.86 272.817 205.13 273.977 205.67C275.137 206.21 276.037 206.96 276.677 207.92L274.637 210.38C274.337 209.96 273.957 209.58 273.497 209.24C273.037 208.9 272.547 208.63 272.027 208.43C271.507 208.23 270.987 208.13 270.467 208.13C269.587 208.13 268.797 208.35 268.097 208.79C267.417 209.21 266.877 209.8 266.477 210.56C266.077 211.3 265.877 212.14 265.877 213.08C265.877 214.02 266.077 214.86 266.477 215.6C266.897 216.34 267.457 216.93 268.157 217.37C268.857 217.81 269.637 218.03 270.497 218.03C271.017 218.03 271.517 217.95 271.997 217.79C272.497 217.61 272.967 217.36 273.407 217.04C273.847 216.72 274.257 216.32 274.637 215.84L276.677 218.33C275.997 219.21 275.057 219.93 273.857 220.49C272.677 221.03 271.427 221.3 270.107 221.3ZM279.499 221V198.8H283.159V208.43L282.469 208.79C282.669 208.07 283.059 207.42 283.639 206.84C284.219 206.24 284.909 205.76 285.709 205.4C286.509 205.04 287.329 204.86 288.169 204.86C289.369 204.86 290.369 205.1 291.169 205.58C291.989 206.06 292.599 206.78 292.999 207.74C293.419 208.7 293.629 209.9 293.629 211.34V221H289.939V211.61C289.939 210.81 289.829 210.15 289.609 209.63C289.389 209.09 289.049 208.7 288.589 208.46C288.129 208.2 287.569 208.08 286.909 208.1C286.369 208.1 285.869 208.19 285.409 208.37C284.969 208.53 284.579 208.77 284.239 209.09C283.919 209.39 283.659 209.74 283.459 210.14C283.279 210.54 283.189 210.98 283.189 211.46V221H281.359C280.999 221 280.659 221 280.339 221C280.039 221 279.759 221 279.499 221ZM298.2 221V205.19H301.89V221H298.2ZM300 201.83C299.26 201.83 298.68 201.65 298.26 201.29C297.86 200.91 297.66 200.38 297.66 199.7C297.66 199.06 297.87 198.54 298.29 198.14C298.71 197.74 299.28 197.54 300 197.54C300.76 197.54 301.34 197.73 301.74 198.11C302.16 198.47 302.37 199 302.37 199.7C302.37 200.32 302.16 200.83 301.74 201.23C301.32 201.63 300.74 201.83 300 201.83ZM306.569 221V205.19H310.169L310.229 208.43L309.539 208.79C309.739 208.07 310.129 207.42 310.709 206.84C311.289 206.24 311.979 205.76 312.779 205.4C313.579 205.04 314.399 204.86 315.239 204.86C316.439 204.86 317.439 205.1 318.239 205.58C319.059 206.06 319.669 206.78 320.069 207.74C320.489 208.7 320.699 209.9 320.699 211.34V221H317.009V211.61C317.009 210.81 316.899 210.15 316.679 209.63C316.459 209.09 316.119 208.7 315.659 208.46C315.199 208.2 314.639 208.08 313.979 208.1C313.439 208.1 312.939 208.19 312.479 208.37C312.039 208.53 311.649 208.77 311.309 209.09C310.989 209.39 310.729 209.74 310.529 210.14C310.349 210.54 310.259 210.98 310.259 211.46V221H308.429C308.069 221 307.729 221 307.409 221C307.109 221 306.829 221 306.569 221ZM331.96 227.9C330.78 227.9 329.6 227.72 328.42 227.36C327.26 227 326.32 226.53 325.6 225.95L326.92 223.22C327.34 223.52 327.81 223.78 328.33 224C328.85 224.22 329.4 224.39 329.98 224.51C330.58 224.63 331.17 224.69 331.75 224.69C332.81 224.69 333.69 224.52 334.39 224.18C335.11 223.86 335.65 223.36 336.01 222.68C336.37 222.02 336.55 221.19 336.55 220.19V217.28L337.09 217.49C336.97 218.11 336.64 218.7 336.1 219.26C335.56 219.82 334.88 220.28 334.06 220.64C333.24 220.98 332.4 221.15 331.54 221.15C330.04 221.15 328.71 220.8 327.55 220.1C326.41 219.4 325.5 218.45 324.82 217.25C324.16 216.03 323.83 214.63 323.83 213.05C323.83 211.47 324.16 210.07 324.82 208.85C325.48 207.61 326.38 206.64 327.52 205.94C328.68 205.22 329.98 204.86 331.42 204.86C332.02 204.86 332.6 204.93 333.16 205.07C333.72 205.21 334.23 205.41 334.69 205.67C335.17 205.93 335.6 206.22 335.98 206.54C336.36 206.86 336.67 207.2 336.91 207.56C337.15 207.92 337.3 208.27 337.36 208.61L336.58 208.85L336.64 205.19H340.27V219.92C340.27 221.2 340.08 222.33 339.7 223.31C339.32 224.29 338.77 225.12 338.05 225.8C337.33 226.5 336.46 227.02 335.44 227.36C334.42 227.72 333.26 227.9 331.96 227.9ZM332.11 218C333.01 218 333.8 217.79 334.48 217.37C335.18 216.95 335.72 216.37 336.1 215.63C336.48 214.89 336.67 214.04 336.67 213.08C336.67 212.1 336.47 211.24 336.07 210.5C335.69 209.74 335.16 209.15 334.48 208.73C333.8 208.31 333.01 208.1 332.11 208.1C331.21 208.1 330.42 208.32 329.74 208.76C329.06 209.18 328.52 209.77 328.12 210.53C327.74 211.27 327.55 212.12 327.55 213.08C327.55 214.02 327.74 214.87 328.12 215.63C328.52 216.37 329.06 216.95 329.74 217.37C330.42 217.79 331.21 218 332.11 218ZM358.216 221V203.6H352.216V200H368.296V203.6H362.116V221H358.216ZM375.883 221.3C374.223 221.3 372.753 220.95 371.473 220.25C370.213 219.55 369.223 218.6 368.503 217.4C367.803 216.18 367.453 214.79 367.453 213.23C367.453 211.99 367.653 210.86 368.053 209.84C368.453 208.82 369.003 207.94 369.703 207.2C370.423 206.44 371.273 205.86 372.253 205.46C373.253 205.04 374.343 204.83 375.523 204.83C376.563 204.83 377.533 205.03 378.433 205.43C379.333 205.83 380.113 206.38 380.773 207.08C381.433 207.76 381.933 208.58 382.273 209.54C382.633 210.48 382.803 211.51 382.783 212.63L382.753 213.92H369.943L369.253 211.4H379.663L379.183 211.91V211.25C379.123 210.63 378.923 210.09 378.583 209.63C378.243 209.15 377.803 208.78 377.263 208.52C376.743 208.24 376.163 208.1 375.523 208.1C374.543 208.1 373.713 208.29 373.033 208.67C372.373 209.05 371.873 209.6 371.533 210.32C371.193 211.02 371.023 211.9 371.023 212.96C371.023 213.98 371.233 214.87 371.653 215.63C372.093 216.39 372.703 216.98 373.483 217.4C374.283 217.8 375.213 218 376.273 218C377.013 218 377.693 217.88 378.313 217.64C378.933 217.4 379.603 216.97 380.323 216.35L382.153 218.9C381.613 219.4 380.993 219.83 380.293 220.19C379.613 220.53 378.893 220.8 378.133 221C377.373 221.2 376.623 221.3 375.883 221.3ZM385.992 221V205.19H389.622L389.682 208.37L389.082 208.61C389.262 208.09 389.532 207.61 389.892 207.17C390.252 206.71 390.682 206.32 391.182 206C391.682 205.66 392.212 205.4 392.772 205.22C393.332 205.02 393.902 204.92 394.482 204.92C395.342 204.92 396.102 205.06 396.762 205.34C397.442 205.6 398.002 206.02 398.442 206.6C398.902 207.18 399.242 207.92 399.462 208.82L398.892 208.7L399.132 208.22C399.352 207.74 399.662 207.31 400.062 206.93C400.462 206.53 400.912 206.18 401.412 205.88C401.912 205.56 402.432 205.32 402.972 205.16C403.532 205 404.082 204.92 404.622 204.92C405.822 204.92 406.822 205.16 407.622 205.64C408.422 206.12 409.022 206.85 409.422 207.83C409.822 208.81 410.022 210.02 410.022 211.46V221H406.302V211.7C406.302 210.9 406.192 210.24 405.972 209.72C405.772 209.2 405.452 208.82 405.012 208.58C404.592 208.32 404.062 208.19 403.422 208.19C402.922 208.19 402.442 208.28 401.982 208.46C401.542 208.62 401.162 208.86 400.842 209.18C400.522 209.48 400.272 209.83 400.092 210.23C399.912 210.63 399.822 211.07 399.822 211.55V221H396.102V211.67C396.102 210.91 395.992 210.28 395.772 209.78C395.552 209.26 395.232 208.87 394.812 208.61C394.392 208.33 393.882 208.19 393.282 208.19C392.782 208.19 392.312 208.28 391.872 208.46C391.432 208.62 391.052 208.85 390.732 209.15C390.412 209.45 390.162 209.8 389.982 210.2C389.802 210.6 389.712 211.04 389.712 211.52V221H385.992ZM414.118 227.6V205.19H417.748L417.808 208.79L417.178 208.52C417.298 207.9 417.638 207.32 418.198 206.78C418.758 206.22 419.438 205.77 420.238 205.43C421.058 205.09 421.908 204.92 422.788 204.92C424.188 204.92 425.428 205.27 426.508 205.97C427.608 206.67 428.468 207.63 429.088 208.85C429.728 210.07 430.048 211.48 430.048 213.08C430.048 214.66 429.728 216.07 429.088 217.31C428.468 218.53 427.608 219.5 426.508 220.22C425.428 220.92 424.208 221.27 422.848 221.27C421.928 221.27 421.038 221.09 420.178 220.73C419.338 220.37 418.618 219.9 418.018 219.32C417.438 218.74 417.078 218.13 416.938 217.49L417.838 217.07V227.6H414.118ZM422.098 218C422.938 218 423.688 217.79 424.348 217.37C425.008 216.95 425.518 216.37 425.878 215.63C426.258 214.89 426.448 214.04 426.448 213.08C426.448 212.12 426.268 211.28 425.908 210.56C425.548 209.82 425.038 209.24 424.378 208.82C423.718 208.4 422.958 208.19 422.098 208.19C421.218 208.19 420.448 208.4 419.788 208.82C419.148 209.22 418.638 209.79 418.258 210.53C417.878 211.27 417.688 212.12 417.688 213.08C417.688 214.04 417.878 214.89 418.258 215.63C418.638 216.37 419.148 216.95 419.788 217.37C420.448 217.79 421.218 218 422.098 218ZM433.367 221V198.8H437.087V221H433.367ZM447.1 221.3C445.8 221.3 444.62 220.94 443.56 220.22C442.5 219.5 441.65 218.52 441.01 217.28C440.37 216.04 440.05 214.63 440.05 213.05C440.05 211.47 440.37 210.06 441.01 208.82C441.65 207.58 442.52 206.61 443.62 205.91C444.72 205.21 445.96 204.86 447.34 204.86C448.14 204.86 448.87 204.98 449.53 205.22C450.19 205.44 450.77 205.76 451.27 206.18C451.77 206.6 452.18 207.08 452.5 207.62C452.84 208.16 453.07 208.74 453.19 209.36L452.38 209.15V205.19H456.1V221H452.35V217.22L453.22 217.07C453.08 217.61 452.82 218.14 452.44 218.66C452.08 219.16 451.62 219.61 451.06 220.01C450.52 220.39 449.91 220.7 449.23 220.94C448.57 221.18 447.86 221.3 447.1 221.3ZM448.12 218.03C448.98 218.03 449.74 217.82 450.4 217.4C451.06 216.98 451.57 216.4 451.93 215.66C452.31 214.9 452.5 214.03 452.5 213.05C452.5 212.09 452.31 211.24 451.93 210.5C451.57 209.76 451.06 209.18 450.4 208.76C449.74 208.34 448.98 208.13 448.12 208.13C447.26 208.13 446.5 208.34 445.84 208.76C445.2 209.18 444.7 209.76 444.34 210.5C443.98 211.24 443.8 212.09 443.8 213.05C443.8 214.03 443.98 214.9 444.34 215.66C444.7 216.4 445.2 216.98 445.84 217.4C446.5 217.82 447.26 218.03 448.12 218.03ZM462.088 221V201.17H465.778V221H462.088ZM458.968 208.61V205.19H469.228V208.61H458.968ZM479.301 221.3C477.641 221.3 476.171 220.95 474.891 220.25C473.631 219.55 472.641 218.6 471.921 217.4C471.221 216.18 470.871 214.79 470.871 213.23C470.871 211.99 471.071 210.86 471.471 209.84C471.871 208.82 472.421 207.94 473.121 207.2C473.841 206.44 474.691 205.86 475.671 205.46C476.671 205.04 477.761 204.83 478.941 204.83C479.981 204.83 480.951 205.03 481.851 205.43C482.751 205.83 483.531 206.38 484.191 207.08C484.851 207.76 485.351 208.58 485.691 209.54C486.051 210.48 486.221 211.51 486.201 212.63L486.171 213.92H473.361L472.671 211.4H483.081L482.601 211.91V211.25C482.541 210.63 482.341 210.09 482.001 209.63C481.661 209.15 481.221 208.78 480.681 208.52C480.161 208.24 479.581 208.1 478.941 208.1C477.961 208.1 477.131 208.29 476.451 208.67C475.791 209.05 475.291 209.6 474.951 210.32C474.611 211.02 474.441 211.9 474.441 212.96C474.441 213.98 474.651 214.87 475.071 215.63C475.511 216.39 476.121 216.98 476.901 217.4C477.701 217.8 478.631 218 479.691 218C480.431 218 481.111 217.88 481.731 217.64C482.351 217.4 483.021 216.97 483.741 216.35L485.571 218.9C485.031 219.4 484.411 219.83 483.711 220.19C483.031 220.53 482.311 220.8 481.551 221C480.791 221.2 480.041 221.3 479.301 221.3ZM490.88 221.33C490.16 221.33 489.6 221.12 489.2 220.7C488.82 220.28 488.63 219.69 488.63 218.93C488.63 218.23 488.83 217.66 489.23 217.22C489.65 216.76 490.2 216.53 490.88 216.53C491.6 216.53 492.15 216.74 492.53 217.16C492.93 217.56 493.13 218.15 493.13 218.93C493.13 219.63 492.92 220.21 492.5 220.67C492.1 221.11 491.56 221.33 490.88 221.33ZM510.296 221V203.6H504.296V200H520.376V203.6H514.196V221H510.296ZM523.542 221V198.8H527.202V208.43L526.512 208.79C526.712 208.07 527.102 207.42 527.682 206.84C528.262 206.24 528.952 205.76 529.752 205.4C530.552 205.04 531.372 204.86 532.212 204.86C533.412 204.86 534.412 205.1 535.212 205.58C536.032 206.06 536.642 206.78 537.042 207.74C537.462 208.7 537.672 209.9 537.672 211.34V221H533.982V211.61C533.982 210.81 533.872 210.15 533.652 209.63C533.432 209.09 533.092 208.7 532.632 208.46C532.172 208.2 531.612 208.08 530.952 208.1C530.412 208.1 529.912 208.19 529.452 208.37C529.012 208.53 528.622 208.77 528.282 209.09C527.962 209.39 527.702 209.74 527.502 210.14C527.322 210.54 527.232 210.98 527.232 211.46V221H525.402C525.042 221 524.702 221 524.382 221C524.082 221 523.802 221 523.542 221ZM542.243 221V205.19H545.933V221H542.243ZM544.043 201.83C543.303 201.83 542.723 201.65 542.303 201.29C541.903 200.91 541.703 200.38 541.703 199.7C541.703 199.06 541.913 198.54 542.333 198.14C542.753 197.74 543.323 197.54 544.043 197.54C544.803 197.54 545.383 197.73 545.783 198.11C546.203 198.47 546.413 199 546.413 199.7C546.413 200.32 546.203 200.83 545.783 201.23C545.363 201.63 544.783 201.83 544.043 201.83ZM555.892 221.3C554.492 221.3 553.232 221.07 552.112 220.61C551.012 220.13 550.112 219.45 549.412 218.57L551.812 216.5C552.412 217.18 553.082 217.67 553.822 217.97C554.562 218.27 555.342 218.42 556.162 218.42C556.502 218.42 556.802 218.38 557.062 218.3C557.342 218.22 557.582 218.1 557.782 217.94C557.982 217.78 558.132 217.6 558.232 217.4C558.352 217.18 558.412 216.94 558.412 216.68C558.412 216.2 558.232 215.82 557.872 215.54C557.672 215.4 557.352 215.25 556.912 215.09C556.492 214.93 555.942 214.77 555.262 214.61C554.182 214.33 553.282 214.01 552.562 213.65C551.842 213.27 551.282 212.85 550.882 212.39C550.542 212.01 550.282 211.58 550.102 211.1C549.942 210.62 549.862 210.1 549.862 209.54C549.862 208.84 550.012 208.21 550.312 207.65C550.632 207.07 551.062 206.57 551.602 206.15C552.142 205.73 552.772 205.41 553.492 205.19C554.212 204.97 554.962 204.86 555.742 204.86C556.542 204.86 557.312 204.96 558.052 205.16C558.812 205.36 559.512 205.65 560.152 206.03C560.812 206.39 561.372 206.83 561.832 207.35L559.792 209.6C559.412 209.24 558.992 208.92 558.532 208.64C558.092 208.36 557.642 208.14 557.182 207.98C556.722 207.8 556.292 207.71 555.892 207.71C555.512 207.71 555.172 207.75 554.872 207.83C554.572 207.89 554.322 207.99 554.122 208.13C553.922 208.27 553.762 208.45 553.642 208.67C553.542 208.87 553.492 209.11 553.492 209.39C553.512 209.63 553.572 209.86 553.672 210.08C553.792 210.28 553.952 210.45 554.152 210.59C554.372 210.73 554.702 210.89 555.142 211.07C555.582 211.25 556.152 211.42 556.852 211.58C557.832 211.84 558.652 212.13 559.312 212.45C559.972 212.77 560.492 213.14 560.872 213.56C561.252 213.92 561.522 214.34 561.682 214.82C561.842 215.3 561.922 215.83 561.922 216.41C561.922 217.35 561.652 218.19 561.112 218.93C560.592 219.67 559.872 220.25 558.952 220.67C558.052 221.09 557.032 221.3 555.892 221.3ZM574.411 221V205.19H578.101V221H574.411ZM576.211 201.83C575.471 201.83 574.891 201.65 574.471 201.29C574.071 200.91 573.871 200.38 573.871 199.7C573.871 199.06 574.081 198.54 574.501 198.14C574.921 197.74 575.491 197.54 576.211 197.54C576.971 197.54 577.551 197.73 577.951 198.11C578.371 198.47 578.581 199 578.581 199.7C578.581 200.32 578.371 200.83 577.951 201.23C577.531 201.63 576.951 201.83 576.211 201.83ZM588.06 221.3C586.66 221.3 585.4 221.07 584.28 220.61C583.18 220.13 582.28 219.45 581.58 218.57L583.98 216.5C584.58 217.18 585.25 217.67 585.99 217.97C586.73 218.27 587.51 218.42 588.33 218.42C588.67 218.42 588.97 218.38 589.23 218.3C589.51 218.22 589.75 218.1 589.95 217.94C590.15 217.78 590.3 217.6 590.4 217.4C590.52 217.18 590.58 216.94 590.58 216.68C590.58 216.2 590.4 215.82 590.04 215.54C589.84 215.4 589.52 215.25 589.08 215.09C588.66 214.93 588.11 214.77 587.43 214.61C586.35 214.33 585.45 214.01 584.73 213.65C584.01 213.27 583.45 212.85 583.05 212.39C582.71 212.01 582.45 211.58 582.27 211.1C582.11 210.62 582.03 210.1 582.03 209.54C582.03 208.84 582.18 208.21 582.48 207.65C582.8 207.07 583.23 206.57 583.77 206.15C584.31 205.73 584.94 205.41 585.66 205.19C586.38 204.97 587.13 204.86 587.91 204.86C588.71 204.86 589.48 204.96 590.22 205.16C590.98 205.36 591.68 205.65 592.32 206.03C592.98 206.39 593.54 206.83 594 207.35L591.96 209.6C591.58 209.24 591.16 208.92 590.7 208.64C590.26 208.36 589.81 208.14 589.35 207.98C588.89 207.8 588.46 207.71 588.06 207.71C587.68 207.71 587.34 207.75 587.04 207.83C586.74 207.89 586.49 207.99 586.29 208.13C586.09 208.27 585.93 208.45 585.81 208.67C585.71 208.87 585.66 209.11 585.66 209.39C585.68 209.63 585.74 209.86 585.84 210.08C585.96 210.28 586.12 210.45 586.32 210.59C586.54 210.73 586.87 210.89 587.31 211.07C587.75 211.25 588.32 211.42 589.02 211.58C590 211.84 590.82 212.13 591.48 212.45C592.14 212.77 592.66 213.14 593.04 213.56C593.42 213.92 593.69 214.34 593.85 214.82C594.01 215.3 594.09 215.83 594.09 216.41C594.09 217.35 593.82 218.19 593.28 218.93C592.76 219.67 592.04 220.25 591.12 220.67C590.22 221.09 589.2 221.3 588.06 221.3ZM611.049 221L604.509 200H608.589L612.309 212.39C612.429 212.77 612.539 213.19 612.639 213.65C612.739 214.11 612.829 214.57 612.909 215.03C612.989 215.47 613.059 215.88 613.119 216.26C613.179 216.64 613.239 216.96 613.299 217.22L612.489 217.19C612.729 216.25 612.919 215.49 613.059 214.91C613.199 214.33 613.319 213.85 613.419 213.47C613.539 213.07 613.659 212.7 613.779 212.36L617.319 203.3H620.649L624.099 212.36C624.299 212.92 624.479 213.46 624.639 213.98C624.799 214.48 624.929 214.98 625.029 215.48C625.149 215.96 625.259 216.46 625.359 216.98L624.639 217.13C624.719 216.65 624.779 216.26 624.819 215.96C624.859 215.66 624.899 215.39 624.939 215.15C624.979 214.91 625.019 214.68 625.059 214.46C625.099 214.22 625.159 213.94 625.239 213.62C625.339 213.28 625.459 212.85 625.599 212.33L629.289 200H633.339L626.769 221H623.949L618.609 208.22L618.969 208.34L613.899 221H611.049ZM636.013 221V198.8H639.673V208.43L638.983 208.79C639.183 208.07 639.573 207.42 640.153 206.84C640.733 206.24 641.423 205.76 642.223 205.4C643.023 205.04 643.843 204.86 644.683 204.86C645.883 204.86 646.883 205.1 647.683 205.58C648.503 206.06 649.113 206.78 649.513 207.74C649.933 208.7 650.143 209.9 650.143 211.34V221H646.453V211.61C646.453 210.81 646.343 210.15 646.123 209.63C645.903 209.09 645.563 208.7 645.103 208.46C644.643 208.2 644.083 208.08 643.423 208.1C642.883 208.1 642.383 208.19 641.923 208.37C641.483 208.53 641.093 208.77 640.753 209.09C640.433 209.39 640.173 209.74 639.973 210.14C639.793 210.54 639.703 210.98 639.703 211.46V221H637.873C637.513 221 637.173 221 636.853 221C636.553 221 636.273 221 636.013 221ZM660.264 221.3C658.964 221.3 657.784 220.94 656.724 220.22C655.664 219.5 654.814 218.52 654.174 217.28C653.534 216.04 653.214 214.63 653.214 213.05C653.214 211.47 653.534 210.06 654.174 208.82C654.814 207.58 655.684 206.61 656.784 205.91C657.884 205.21 659.124 204.86 660.504 204.86C661.304 204.86 662.034 204.98 662.694 205.22C663.354 205.44 663.934 205.76 664.434 206.18C664.934 206.6 665.344 207.08 665.664 207.62C666.004 208.16 666.234 208.74 666.354 209.36L665.544 209.15V205.19H669.264V221H665.514V217.22L666.384 217.07C666.244 217.61 665.984 218.14 665.604 218.66C665.244 219.16 664.784 219.61 664.224 220.01C663.684 220.39 663.074 220.7 662.394 220.94C661.734 221.18 661.024 221.3 660.264 221.3ZM661.284 218.03C662.144 218.03 662.904 217.82 663.564 217.4C664.224 216.98 664.734 216.4 665.094 215.66C665.474 214.9 665.664 214.03 665.664 213.05C665.664 212.09 665.474 211.24 665.094 210.5C664.734 209.76 664.224 209.18 663.564 208.76C662.904 208.34 662.144 208.13 661.284 208.13C660.424 208.13 659.664 208.34 659.004 208.76C658.364 209.18 657.864 209.76 657.504 210.5C657.144 211.24 656.964 212.09 656.964 213.05C656.964 214.03 657.144 214.9 657.504 215.66C657.864 216.4 658.364 216.98 659.004 217.4C659.664 217.82 660.424 218.03 661.284 218.03ZM675.252 221V201.17H678.942V221H675.252ZM672.132 208.61V205.19H682.392V208.61H672.132ZM700.26 221V210.53L700.47 212L691.98 200H696.54L703.02 209.3L701.61 209.21L707.46 200H711.84L703.71 212.33L704.16 210.29V221H700.26ZM718.946 221.3C717.366 221.3 715.956 220.95 714.716 220.25C713.476 219.53 712.496 218.55 711.776 217.31C711.056 216.07 710.696 214.66 710.696 213.08C710.696 211.5 711.056 210.09 711.776 208.85C712.496 207.61 713.476 206.64 714.716 205.94C715.956 205.22 717.366 204.86 718.946 204.86C720.506 204.86 721.906 205.22 723.146 205.94C724.386 206.64 725.356 207.61 726.056 208.85C726.776 210.09 727.136 211.5 727.136 213.08C727.136 214.66 726.776 216.07 726.056 217.31C725.356 218.55 724.386 219.53 723.146 220.25C721.906 220.95 720.506 221.3 718.946 221.3ZM718.946 218.03C719.806 218.03 720.566 217.81 721.226 217.37C721.906 216.93 722.436 216.34 722.816 215.6C723.216 214.86 723.406 214.02 723.386 213.08C723.406 212.12 723.216 211.27 722.816 210.53C722.436 209.79 721.906 209.21 721.226 208.79C720.566 208.35 719.806 208.13 718.946 208.13C718.086 208.13 717.306 208.35 716.606 208.79C715.926 209.21 715.396 209.8 715.016 210.56C714.636 211.3 714.446 212.14 714.446 213.08C714.446 214.02 714.636 214.86 715.016 215.6C715.396 216.34 715.926 216.93 716.606 217.37C717.306 217.81 718.086 218.03 718.946 218.03ZM735.926 221.3C734.786 221.3 733.796 221.05 732.956 220.55C732.116 220.03 731.476 219.3 731.036 218.36C730.596 217.4 730.376 216.26 730.376 214.94V205.19H734.066V214.16C734.066 215 734.196 215.72 734.456 216.32C734.716 216.9 735.096 217.35 735.596 217.67C736.096 217.99 736.696 218.15 737.396 218.15C737.916 218.15 738.386 218.07 738.806 217.91C739.246 217.73 739.626 217.49 739.946 217.19C740.266 216.87 740.516 216.5 740.696 216.08C740.876 215.64 740.966 215.17 740.966 214.67V205.19H744.656V221H741.056L740.996 217.7L741.656 217.34C741.416 218.1 741.006 218.78 740.426 219.38C739.866 219.96 739.196 220.43 738.416 220.79C737.636 221.13 736.806 221.3 735.926 221.3ZM748.981 221V205.19H752.611L752.671 210.23L752.161 209.09C752.381 208.29 752.761 207.57 753.301 206.93C753.841 206.29 754.461 205.79 755.161 205.43C755.881 205.05 756.631 204.86 757.411 204.86C757.751 204.86 758.071 204.89 758.371 204.95C758.691 205.01 758.951 205.08 759.151 205.16L758.161 209.21C757.941 209.09 757.671 208.99 757.351 208.91C757.031 208.83 756.711 208.79 756.391 208.79C755.891 208.79 755.411 208.89 754.951 209.09C754.511 209.27 754.121 209.53 753.781 209.87C753.441 210.21 753.171 210.61 752.971 211.07C752.791 211.51 752.701 212.01 752.701 212.57V221H748.981ZM777.747 221.3C776.527 221.3 775.407 221.15 774.387 220.85C773.367 220.53 772.447 220.06 771.627 219.44C770.807 218.82 770.077 218.07 769.437 217.19L771.987 214.31C772.967 215.67 773.927 216.61 774.867 217.13C775.807 217.65 776.867 217.91 778.047 217.91C778.727 217.91 779.347 217.81 779.907 217.61C780.467 217.39 780.907 217.1 781.227 216.74C781.547 216.36 781.707 215.93 781.707 215.45C781.707 215.11 781.637 214.8 781.497 214.52C781.377 214.22 781.187 213.96 780.927 213.74C780.667 213.5 780.347 213.28 779.967 213.08C779.587 212.88 779.157 212.71 778.677 212.57C778.197 212.43 777.667 212.3 777.087 212.18C775.987 211.96 775.027 211.67 774.207 211.31C773.387 210.93 772.697 210.47 772.137 209.93C771.577 209.37 771.167 208.75 770.907 208.07C770.647 207.37 770.517 206.58 770.517 205.7C770.517 204.82 770.707 204.01 771.087 203.27C771.487 202.53 772.027 201.89 772.707 201.35C773.387 200.81 774.177 200.39 775.077 200.09C775.977 199.79 776.947 199.64 777.987 199.64C779.167 199.64 780.217 199.78 781.137 200.06C782.077 200.34 782.897 200.76 783.597 201.32C784.317 201.86 784.907 202.52 785.367 203.3L782.787 205.85C782.387 205.23 781.937 204.72 781.437 204.32C780.937 203.9 780.397 203.59 779.817 203.39C779.237 203.17 778.627 203.06 777.987 203.06C777.267 203.06 776.637 203.16 776.097 203.36C775.577 203.56 775.167 203.85 774.867 204.23C774.567 204.59 774.417 205.03 774.417 205.55C774.417 205.95 774.507 206.31 774.687 206.63C774.867 206.93 775.117 207.2 775.437 207.44C775.777 207.68 776.207 207.89 776.727 208.07C777.247 208.25 777.837 208.41 778.497 208.55C779.597 208.77 780.587 209.07 781.467 209.45C782.347 209.81 783.097 210.25 783.717 210.77C784.337 211.27 784.807 211.85 785.127 212.51C785.447 213.15 785.607 213.87 785.607 214.67C785.607 216.05 785.277 217.24 784.617 218.24C783.977 219.22 783.067 219.98 781.887 220.52C780.707 221.04 779.327 221.3 777.747 221.3ZM790.945 221V201.17H794.635V221H790.945ZM787.825 208.61V205.19H798.085V208.61H787.825ZM806.385 221.3C805.245 221.3 804.255 221.05 803.415 220.55C802.575 220.03 801.935 219.3 801.495 218.36C801.055 217.4 800.835 216.26 800.835 214.94V205.19H804.525V214.16C804.525 215 804.655 215.72 804.915 216.32C805.175 216.9 805.555 217.35 806.055 217.67C806.555 217.99 807.155 218.15 807.855 218.15C808.375 218.15 808.845 218.07 809.265 217.91C809.705 217.73 810.085 217.49 810.405 217.19C810.725 216.87 810.975 216.5 811.155 216.08C811.335 215.64 811.425 215.17 811.425 214.67V205.19H815.115V221H811.515L811.455 217.7L812.115 217.34C811.875 218.1 811.465 218.78 810.885 219.38C810.325 219.96 809.655 220.43 808.875 220.79C808.095 221.13 807.265 221.3 806.385 221.3ZM825.8 221.3C824.4 221.3 823.14 220.95 822.02 220.25C820.92 219.53 820.04 218.56 819.38 217.34C818.74 216.1 818.42 214.68 818.42 213.08C818.42 211.5 818.74 210.09 819.38 208.85C820.02 207.61 820.89 206.64 821.99 205.94C823.11 205.22 824.37 204.86 825.77 204.86C826.53 204.86 827.26 204.98 827.96 205.22C828.68 205.46 829.32 205.79 829.88 206.21C830.44 206.61 830.88 207.06 831.2 207.56C831.54 208.06 831.73 208.58 831.77 209.12L830.78 209.24V198.8H834.47V221H830.9L830.81 217.28L831.53 217.34C831.51 217.84 831.33 218.32 830.99 218.78C830.67 219.24 830.25 219.66 829.73 220.04C829.21 220.42 828.6 220.73 827.9 220.97C827.22 221.19 826.52 221.3 825.8 221.3ZM826.52 218.18C827.38 218.18 828.14 217.96 828.8 217.52C829.46 217.08 829.97 216.48 830.33 215.72C830.71 214.96 830.9 214.08 830.9 213.08C830.9 212.1 830.71 211.23 830.33 210.47C829.97 209.69 829.46 209.09 828.8 208.67C828.14 208.23 827.38 208.01 826.52 208.01C825.66 208.01 824.9 208.23 824.24 208.67C823.58 209.09 823.06 209.69 822.68 210.47C822.32 211.23 822.14 212.1 822.14 213.08C822.14 214.08 822.32 214.96 822.68 215.72C823.06 216.48 823.58 217.08 824.24 217.52C824.9 217.96 825.66 218.18 826.52 218.18ZM846.069 221.3C844.409 221.3 842.939 220.95 841.659 220.25C840.399 219.55 839.409 218.6 838.689 217.4C837.989 216.18 837.639 214.79 837.639 213.23C837.639 211.99 837.839 210.86 838.239 209.84C838.639 208.82 839.189 207.94 839.889 207.2C840.609 206.44 841.459 205.86 842.439 205.46C843.439 205.04 844.529 204.83 845.709 204.83C846.749 204.83 847.719 205.03 848.619 205.43C849.519 205.83 850.299 206.38 850.959 207.08C851.619 207.76 852.119 208.58 852.459 209.54C852.819 210.48 852.989 211.51 852.969 212.63L852.939 213.92H840.129L839.439 211.4H849.849L849.369 211.91V211.25C849.309 210.63 849.109 210.09 848.769 209.63C848.429 209.15 847.989 208.78 847.449 208.52C846.929 208.24 846.349 208.1 845.709 208.1C844.729 208.1 843.899 208.29 843.219 208.67C842.559 209.05 842.059 209.6 841.719 210.32C841.379 211.02 841.209 211.9 841.209 212.96C841.209 213.98 841.419 214.87 841.839 215.63C842.279 216.39 842.889 216.98 843.669 217.4C844.469 217.8 845.399 218 846.459 218C847.199 218 847.879 217.88 848.499 217.64C849.119 217.4 849.789 216.97 850.509 216.35L852.339 218.9C851.799 219.4 851.179 219.83 850.479 220.19C849.799 220.53 849.079 220.8 848.319 221C847.559 221.2 846.809 221.3 846.069 221.3ZM856.237 221V205.19H859.837L859.897 208.43L859.207 208.79C859.407 208.07 859.797 207.42 860.377 206.84C860.957 206.24 861.647 205.76 862.447 205.4C863.247 205.04 864.067 204.86 864.907 204.86C866.107 204.86 867.107 205.1 867.907 205.58C868.727 206.06 869.337 206.78 869.737 207.74C870.157 208.7 870.367 209.9 870.367 211.34V221H866.677V211.61C866.677 210.81 866.567 210.15 866.347 209.63C866.127 209.09 865.787 208.7 865.327 208.46C864.867 208.2 864.307 208.08 863.647 208.1C863.107 208.1 862.607 208.19 862.147 208.37C861.707 208.53 861.317 208.77 860.977 209.09C860.657 209.39 860.397 209.74 860.197 210.14C860.017 210.54 859.927 210.98 859.927 211.46V221H858.097C857.737 221 857.397 221 857.077 221C856.777 221 856.497 221 856.237 221ZM876.228 221V201.17H879.918V221H876.228ZM873.108 208.61V205.19H883.368V208.61H873.108ZM892.044 221.3C890.644 221.3 889.384 221.07 888.264 220.61C887.164 220.13 886.264 219.45 885.564 218.57L887.964 216.5C888.564 217.18 889.234 217.67 889.974 217.97C890.714 218.27 891.494 218.42 892.314 218.42C892.654 218.42 892.954 218.38 893.214 218.3C893.494 218.22 893.734 218.1 893.934 217.94C894.134 217.78 894.284 217.6 894.384 217.4C894.504 217.18 894.564 216.94 894.564 216.68C894.564 216.2 894.384 215.82 894.024 215.54C893.824 215.4 893.504 215.25 893.064 215.09C892.644 214.93 892.094 214.77 891.414 214.61C890.334 214.33 889.434 214.01 888.714 213.65C887.994 213.27 887.434 212.85 887.034 212.39C886.694 212.01 886.434 211.58 886.254 211.1C886.094 210.62 886.014 210.1 886.014 209.54C886.014 208.84 886.164 208.21 886.464 207.65C886.784 207.07 887.214 206.57 887.754 206.15C888.294 205.73 888.924 205.41 889.644 205.19C890.364 204.97 891.114 204.86 891.894 204.86C892.694 204.86 893.464 204.96 894.204 205.16C894.964 205.36 895.664 205.65 896.304 206.03C896.964 206.39 897.524 206.83 897.984 207.35L895.944 209.6C895.564 209.24 895.144 208.92 894.684 208.64C894.244 208.36 893.794 208.14 893.334 207.98C892.874 207.8 892.444 207.71 892.044 207.71C891.664 207.71 891.324 207.75 891.024 207.83C890.724 207.89 890.474 207.99 890.274 208.13C890.074 208.27 889.914 208.45 889.794 208.67C889.694 208.87 889.644 209.11 889.644 209.39C889.664 209.63 889.724 209.86 889.824 210.08C889.944 210.28 890.104 210.45 890.304 210.59C890.524 210.73 890.854 210.89 891.294 211.07C891.734 211.25 892.304 211.42 893.004 211.58C893.984 211.84 894.804 212.13 895.464 212.45C896.124 212.77 896.644 213.14 897.024 213.56C897.404 213.92 897.674 214.34 897.834 214.82C897.994 215.3 898.074 215.83 898.074 216.41C898.074 217.35 897.804 218.19 897.264 218.93C896.744 219.67 896.024 220.25 895.104 220.67C894.204 221.09 893.184 221.3 892.044 221.3ZM915.033 221L908.493 200H912.573L916.293 212.39C916.413 212.77 916.523 213.19 916.623 213.65C916.723 214.11 916.813 214.57 916.893 215.03C916.973 215.47 917.043 215.88 917.103 216.26C917.163 216.64 917.223 216.96 917.283 217.22L916.473 217.19C916.713 216.25 916.903 215.49 917.043 214.91C917.183 214.33 917.303 213.85 917.403 213.47C917.523 213.07 917.643 212.7 917.763 212.36L921.303 203.3H924.633L928.083 212.36C928.283 212.92 928.463 213.46 928.623 213.98C928.783 214.48 928.913 214.98 929.013 215.48C929.133 215.96 929.243 216.46 929.343 216.98L928.623 217.13C928.703 216.65 928.763 216.26 928.803 215.96C928.843 215.66 928.883 215.39 928.923 215.15C928.963 214.91 929.003 214.68 929.043 214.46C929.083 214.22 929.143 213.94 929.223 213.62C929.323 213.28 929.443 212.85 929.583 212.33L933.273 200H937.323L930.753 221H927.933L922.593 208.22L922.953 208.34L917.883 221H915.033ZM940.417 221V205.19H944.107V221H940.417ZM942.217 201.83C941.477 201.83 940.897 201.65 940.477 201.29C940.077 200.91 939.877 200.38 939.877 199.7C939.877 199.06 940.087 198.54 940.507 198.14C940.927 197.74 941.497 197.54 942.217 197.54C942.977 197.54 943.557 197.73 943.957 198.11C944.377 198.47 944.587 199 944.587 199.7C944.587 200.32 944.377 200.83 943.957 201.23C943.537 201.63 942.957 201.83 942.217 201.83ZM948.816 221V198.8H952.536V221H948.816ZM956.902 221V198.8H960.622V221H956.902ZM981.096 221.3C979.876 221.3 978.756 221.15 977.736 220.85C976.716 220.53 975.796 220.06 974.976 219.44C974.156 218.82 973.426 218.07 972.786 217.19L975.336 214.31C976.316 215.67 977.276 216.61 978.216 217.13C979.156 217.65 980.216 217.91 981.396 217.91C982.076 217.91 982.696 217.81 983.256 217.61C983.816 217.39 984.256 217.1 984.576 216.74C984.896 216.36 985.056 215.93 985.056 215.45C985.056 215.11 984.986 214.8 984.846 214.52C984.726 214.22 984.536 213.96 984.276 213.74C984.016 213.5 983.696 213.28 983.316 213.08C982.936 212.88 982.506 212.71 982.026 212.57C981.546 212.43 981.016 212.3 980.436 212.18C979.336 211.96 978.376 211.67 977.556 211.31C976.736 210.93 976.046 210.47 975.486 209.93C974.926 209.37 974.516 208.75 974.256 208.07C973.996 207.37 973.866 206.58 973.866 205.7C973.866 204.82 974.056 204.01 974.436 203.27C974.836 202.53 975.376 201.89 976.056 201.35C976.736 200.81 977.526 200.39 978.426 200.09C979.326 199.79 980.296 199.64 981.336 199.64C982.516 199.64 983.566 199.78 984.486 200.06C985.426 200.34 986.246 200.76 986.946 201.32C987.666 201.86 988.256 202.52 988.716 203.3L986.136 205.85C985.736 205.23 985.286 204.72 984.786 204.32C984.286 203.9 983.746 203.59 983.166 203.39C982.586 203.17 981.976 203.06 981.336 203.06C980.616 203.06 979.986 203.16 979.446 203.36C978.926 203.56 978.516 203.85 978.216 204.23C977.916 204.59 977.766 205.03 977.766 205.55C977.766 205.95 977.856 206.31 978.036 206.63C978.216 206.93 978.466 207.2 978.786 207.44C979.126 207.68 979.556 207.89 980.076 208.07C980.596 208.25 981.186 208.41 981.846 208.55C982.946 208.77 983.936 209.07 984.816 209.45C985.696 209.81 986.446 210.25 987.066 210.77C987.686 211.27 988.156 211.85 988.476 212.51C988.796 213.15 988.956 213.87 988.956 214.67C988.956 216.05 988.626 217.24 987.966 218.24C987.326 219.22 986.416 219.98 985.236 220.52C984.056 221.04 982.676 221.3 981.096 221.3ZM999.995 221.3C998.335 221.3 996.865 220.95 995.585 220.25C994.325 219.55 993.335 218.6 992.615 217.4C991.915 216.18 991.565 214.79 991.565 213.23C991.565 211.99 991.765 210.86 992.165 209.84C992.565 208.82 993.115 207.94 993.815 207.2C994.535 206.44 995.385 205.86 996.365 205.46C997.365 205.04 998.455 204.83 999.635 204.83C1000.67 204.83 1001.64 205.03 1002.54 205.43C1003.44 205.83 1004.22 206.38 1004.88 207.08C1005.54 207.76 1006.04 208.58 1006.38 209.54C1006.74 210.48 1006.91 211.51 1006.89 212.63L1006.86 213.92H994.055L993.365 211.4H1003.77L1003.29 211.91V211.25C1003.23 210.63 1003.03 210.09 1002.69 209.63C1002.35 209.15 1001.91 208.78 1001.37 208.52C1000.85 208.24 1000.27 208.1 999.635 208.1C998.655 208.1 997.825 208.29 997.145 208.67C996.485 209.05 995.985 209.6 995.645 210.32C995.305 211.02 995.135 211.9 995.135 212.96C995.135 213.98 995.345 214.87 995.765 215.63C996.205 216.39 996.815 216.98 997.595 217.4C998.395 217.8 999.325 218 1000.38 218C1001.12 218 1001.8 217.88 1002.42 217.64C1003.04 217.4 1003.71 216.97 1004.43 216.35L1006.26 218.9C1005.72 219.4 1005.1 219.83 1004.4 220.19C1003.72 220.53 1003 220.8 1002.24 221C1001.48 221.2 1000.73 221.3 999.995 221.3ZM1017.57 221.3C1015.91 221.3 1014.44 220.95 1013.16 220.25C1011.9 219.55 1010.91 218.6 1010.19 217.4C1009.49 216.18 1009.14 214.79 1009.14 213.23C1009.14 211.99 1009.34 210.86 1009.74 209.84C1010.14 208.82 1010.69 207.94 1011.39 207.2C1012.11 206.44 1012.96 205.86 1013.94 205.46C1014.94 205.04 1016.03 204.83 1017.21 204.83C1018.25 204.83 1019.22 205.03 1020.12 205.43C1021.02 205.83 1021.8 206.38 1022.46 207.08C1023.12 207.76 1023.62 208.58 1023.96 209.54C1024.32 210.48 1024.49 211.51 1024.47 212.63L1024.44 213.92H1011.63L1010.94 211.4H1021.35L1020.87 211.91V211.25C1020.81 210.63 1020.61 210.09 1020.27 209.63C1019.93 209.15 1019.49 208.78 1018.95 208.52C1018.43 208.24 1017.85 208.1 1017.21 208.1C1016.23 208.1 1015.4 208.29 1014.72 208.67C1014.06 209.05 1013.56 209.6 1013.22 210.32C1012.88 211.02 1012.71 211.9 1012.71 212.96C1012.71 213.98 1012.92 214.87 1013.34 215.63C1013.78 216.39 1014.39 216.98 1015.17 217.4C1015.97 217.8 1016.9 218 1017.96 218C1018.7 218 1019.38 217.88 1020 217.64C1020.62 217.4 1021.29 216.97 1022.01 216.35L1023.84 218.9C1023.3 219.4 1022.68 219.83 1021.98 220.19C1021.3 220.53 1020.58 220.8 1019.82 221C1019.06 221.2 1018.31 221.3 1017.57 221.3ZM1029.15 221.33C1028.43 221.33 1027.87 221.12 1027.47 220.7C1027.09 220.28 1026.9 219.69 1026.9 218.93C1026.9 218.23 1027.1 217.66 1027.5 217.22C1027.92 216.76 1028.47 216.53 1029.15 216.53C1029.87 216.53 1030.42 216.74 1030.8 217.16C1031.2 217.56 1031.4 218.15 1031.4 218.93C1031.4 219.63 1031.19 220.21 1030.77 220.67C1030.37 221.11 1029.83 221.33 1029.15 221.33Z" fill="#2F3899"/>
<rect x="911" y="835" width="736" height="80" rx="30" fill="url(#paint0_linear_61_356)" fill-opacity="0.6"/>
<rect x="944" y="850" width="5" height="49" fill="white"/>
<path d="M1439.05 1013.3C1437.53 1013.3 1436.14 1013.04 1434.88 1012.52C1433.62 1012 1432.53 1011.26 1431.61 1010.3C1430.69 1009.32 1429.97 1008.17 1429.45 1006.85C1428.95 1005.51 1428.7 1004.05 1428.7 1002.47C1428.7 1000.95 1428.97 999.54 1429.51 998.24C1430.05 996.94 1430.8 995.8 1431.76 994.82C1432.72 993.84 1433.84 993.08 1435.12 992.54C1436.4 992 1437.79 991.73 1439.29 991.73C1440.31 991.73 1441.3 991.88 1442.26 992.18C1443.22 992.48 1444.1 992.9 1444.9 993.44C1445.7 993.96 1446.37 994.57 1446.91 995.27L1444.42 998C1443.9 997.46 1443.36 997.01 1442.8 996.65C1442.26 996.27 1441.69 995.99 1441.09 995.81C1440.51 995.61 1439.91 995.51 1439.29 995.51C1438.37 995.51 1437.5 995.68 1436.68 996.02C1435.88 996.36 1435.18 996.84 1434.58 997.46C1434 998.08 1433.54 998.82 1433.2 999.68C1432.86 1000.52 1432.69 1001.46 1432.69 1002.5C1432.69 1003.56 1432.85 1004.52 1433.17 1005.38C1433.51 1006.24 1433.98 1006.98 1434.58 1007.6C1435.2 1008.22 1435.93 1008.7 1436.77 1009.04C1437.63 1009.36 1438.57 1009.52 1439.59 1009.52C1440.25 1009.52 1440.89 1009.43 1441.51 1009.25C1442.13 1009.07 1442.7 1008.82 1443.22 1008.5C1443.76 1008.16 1444.25 1007.77 1444.69 1007.33L1446.61 1010.42C1446.13 1010.96 1445.49 1011.45 1444.69 1011.89C1443.89 1012.33 1442.99 1012.68 1441.99 1012.94C1441.01 1013.18 1440.03 1013.3 1439.05 1013.3ZM1457.22 1013.3C1455.64 1013.3 1454.23 1012.95 1452.99 1012.25C1451.75 1011.53 1450.77 1010.55 1450.05 1009.31C1449.33 1008.07 1448.97 1006.66 1448.97 1005.08C1448.97 1003.5 1449.33 1002.09 1450.05 1000.85C1450.77 999.61 1451.75 998.64 1452.99 997.94C1454.23 997.22 1455.64 996.86 1457.22 996.86C1458.78 996.86 1460.18 997.22 1461.42 997.94C1462.66 998.64 1463.63 999.61 1464.33 1000.85C1465.05 1002.09 1465.41 1003.5 1465.41 1005.08C1465.41 1006.66 1465.05 1008.07 1464.33 1009.31C1463.63 1010.55 1462.66 1011.53 1461.42 1012.25C1460.18 1012.95 1458.78 1013.3 1457.22 1013.3ZM1457.22 1010.03C1458.08 1010.03 1458.84 1009.81 1459.5 1009.37C1460.18 1008.93 1460.71 1008.34 1461.09 1007.6C1461.49 1006.86 1461.68 1006.02 1461.66 1005.08C1461.68 1004.12 1461.49 1003.27 1461.09 1002.53C1460.71 1001.79 1460.18 1001.21 1459.5 1000.79C1458.84 1000.35 1458.08 1000.13 1457.22 1000.13C1456.36 1000.13 1455.58 1000.35 1454.88 1000.79C1454.2 1001.21 1453.67 1001.8 1453.29 1002.56C1452.91 1003.3 1452.72 1004.14 1452.72 1005.08C1452.72 1006.02 1452.91 1006.86 1453.29 1007.6C1453.67 1008.34 1454.2 1008.93 1454.88 1009.37C1455.58 1009.81 1456.36 1010.03 1457.22 1010.03ZM1468.71 1013V997.19H1472.31L1472.37 1000.43L1471.68 1000.79C1471.88 1000.07 1472.27 999.42 1472.85 998.84C1473.43 998.24 1474.12 997.76 1474.92 997.4C1475.72 997.04 1476.54 996.86 1477.38 996.86C1478.58 996.86 1479.58 997.1 1480.38 997.58C1481.2 998.06 1481.81 998.78 1482.21 999.74C1482.63 1000.7 1482.84 1001.9 1482.84 1003.34V1013H1479.15V1003.61C1479.15 1002.81 1479.04 1002.15 1478.82 1001.63C1478.6 1001.09 1478.26 1000.7 1477.8 1000.46C1477.34 1000.2 1476.78 1000.08 1476.12 1000.1C1475.58 1000.1 1475.08 1000.19 1474.62 1000.37C1474.18 1000.53 1473.79 1000.77 1473.45 1001.09C1473.13 1001.39 1472.87 1001.74 1472.67 1002.14C1472.49 1002.54 1472.4 1002.98 1472.4 1003.46V1013H1470.57C1470.21 1013 1469.87 1013 1469.55 1013C1469.25 1013 1468.97 1013 1468.71 1013ZM1488.7 1013V993.17H1492.39V1013H1488.7ZM1485.58 1000.61V997.19H1495.84V1000.61H1485.58ZM1499.07 1013V997.19H1502.76V1013H1499.07ZM1500.87 993.83C1500.13 993.83 1499.55 993.65 1499.13 993.29C1498.73 992.91 1498.53 992.38 1498.53 991.7C1498.53 991.06 1498.74 990.54 1499.16 990.14C1499.58 989.74 1500.15 989.54 1500.87 989.54C1501.63 989.54 1502.21 989.73 1502.61 990.11C1503.03 990.47 1503.24 991 1503.24 991.7C1503.24 992.32 1503.03 992.83 1502.61 993.23C1502.19 993.63 1501.61 993.83 1500.87 993.83ZM1507.44 1013V997.19H1511.04L1511.1 1000.43L1510.41 1000.79C1510.61 1000.07 1511 999.42 1511.58 998.84C1512.16 998.24 1512.85 997.76 1513.65 997.4C1514.45 997.04 1515.27 996.86 1516.11 996.86C1517.31 996.86 1518.31 997.1 1519.11 997.58C1519.93 998.06 1520.54 998.78 1520.94 999.74C1521.36 1000.7 1521.57 1001.9 1521.57 1003.34V1013H1517.88V1003.61C1517.88 1002.81 1517.77 1002.15 1517.55 1001.63C1517.33 1001.09 1516.99 1000.7 1516.53 1000.46C1516.07 1000.2 1515.51 1000.08 1514.85 1000.1C1514.31 1000.1 1513.81 1000.19 1513.35 1000.37C1512.91 1000.53 1512.52 1000.77 1512.18 1001.09C1511.86 1001.39 1511.6 1001.74 1511.4 1002.14C1511.22 1002.54 1511.13 1002.98 1511.13 1003.46V1013H1509.3C1508.94 1013 1508.6 1013 1508.28 1013C1507.98 1013 1507.7 1013 1507.44 1013ZM1531.21 1013.3C1530.07 1013.3 1529.08 1013.05 1528.24 1012.55C1527.4 1012.03 1526.76 1011.3 1526.32 1010.36C1525.88 1009.4 1525.66 1008.26 1525.66 1006.94V997.19H1529.35V1006.16C1529.35 1007 1529.48 1007.72 1529.74 1008.32C1530 1008.9 1530.38 1009.35 1530.88 1009.67C1531.38 1009.99 1531.98 1010.15 1532.68 1010.15C1533.2 1010.15 1533.67 1010.07 1534.09 1009.91C1534.53 1009.73 1534.91 1009.49 1535.23 1009.19C1535.55 1008.87 1535.8 1008.5 1535.98 1008.08C1536.16 1007.64 1536.25 1007.17 1536.25 1006.67V997.19H1539.94V1013H1536.34L1536.28 1009.7L1536.94 1009.34C1536.7 1010.1 1536.29 1010.78 1535.71 1011.38C1535.15 1011.96 1534.48 1012.43 1533.7 1012.79C1532.92 1013.13 1532.09 1013.3 1531.21 1013.3ZM1551.67 1013.3C1550.01 1013.3 1548.54 1012.95 1547.26 1012.25C1546 1011.55 1545.01 1010.6 1544.29 1009.4C1543.59 1008.18 1543.24 1006.79 1543.24 1005.23C1543.24 1003.99 1543.44 1002.86 1543.84 1001.84C1544.24 1000.82 1544.79 999.94 1545.49 999.2C1546.21 998.44 1547.06 997.86 1548.04 997.46C1549.04 997.04 1550.13 996.83 1551.31 996.83C1552.35 996.83 1553.32 997.03 1554.22 997.43C1555.12 997.83 1555.9 998.38 1556.56 999.08C1557.22 999.76 1557.72 1000.58 1558.06 1001.54C1558.42 1002.48 1558.59 1003.51 1558.57 1004.63L1558.54 1005.92H1545.73L1545.04 1003.4H1555.45L1554.97 1003.91V1003.25C1554.91 1002.63 1554.71 1002.09 1554.37 1001.63C1554.03 1001.15 1553.59 1000.78 1553.05 1000.52C1552.53 1000.24 1551.95 1000.1 1551.31 1000.1C1550.33 1000.1 1549.5 1000.29 1548.82 1000.67C1548.16 1001.05 1547.66 1001.6 1547.32 1002.32C1546.98 1003.02 1546.81 1003.9 1546.81 1004.96C1546.81 1005.98 1547.02 1006.87 1547.44 1007.63C1547.88 1008.39 1548.49 1008.98 1549.27 1009.4C1550.07 1009.8 1551 1010 1552.06 1010C1552.8 1010 1553.48 1009.88 1554.1 1009.64C1554.72 1009.4 1555.39 1008.97 1556.11 1008.35L1557.94 1010.9C1557.4 1011.4 1556.78 1011.83 1556.08 1012.19C1555.4 1012.53 1554.68 1012.8 1553.92 1013C1553.16 1013.2 1552.41 1013.3 1551.67 1013.3Z" fill="#545FD1"/>
<g filter="url(#filter1_d_61_356)">
<g filter="url(#filter2_d_61_356)">
<rect x="60" y="301" width="488" height="317" rx="40" fill="#D9D9D9" fill-opacity="0.75" shape-rendering="crispEdges"/>
</g>
<line x1="381.5" y1="299" x2="381.5" y2="618" stroke="#FAFAFA" stroke-width="3"/>
<line x1="381" y1="530.5" x2="62" y2="530.5" stroke="#FAFAFA" stroke-width="3"/>
</g>
<g filter="url(#filter3_d_61_356)">
<g filter="url(#filter4_d_61_356)">
<rect x="1158" y="301" width="488" height="317" rx="40" fill="#D9D9D9" fill-opacity="0.75" shape-rendering="crispEdges"/>
</g>
<line x1="1526.5" y1="299" x2="1526.5" y2="618" stroke="#FAFAFA" stroke-width="3"/>
<line x1="1403.5" y1="299" x2="1403.5" y2="618" stroke="#FAFAFA" stroke-width="3"/>
<line x1="1646" y1="461.5" x2="1158" y2="461.5" stroke="#FAFAFA" stroke-width="3"/>
</g>
<g filter="url(#filter5_d_61_356)">
<g filter="url(#filter6_d_61_356)">
<rect x="620" y="301" width="488" height="317" rx="40" fill="#D9D9D9" fill-opacity="0.75" shape-rendering="crispEdges"/>
</g>
<line x1="753.5" y1="301" x2="753.5" y2="620" stroke="#FAFAFA" stroke-width="3"/>
<line x1="969.5" y1="299" x2="969.5" y2="618" stroke="#FAFAFA" stroke-width="3"/>
<line x1="968" y1="514.5" x2="752" y2="514.5" stroke="#FAFAFA" stroke-width="3"/>
</g>
<circle cx="1608" cy="1002" r="38" fill="#7079D1"/>
<path d="M1613 987L1627.58 1001.87L1613 1016.75" stroke="#FFFCFC" stroke-width="4" stroke-linecap="round" stroke-linejoin="round"/>
<path d="M1584 1002H1624" stroke="#FFFCFC" stroke-width="4" stroke-linecap="round" stroke-linejoin="round"/>
<g filter="url(#filter7_f_61_356)">
<rect x="-122" y="864" width="2066" height="449" fill="#D9D9D9" fill-opacity="0.32"/>
</g>
</g>
<defs>
<filter id="filter0_d_61_356" x="65.4" y="694.8" width="590.969" height="212.2" filterUnits="userSpaceOnUse" color-interpolation-filters="sRGB">
<feFlood flood-opacity="0" result="BackgroundImageFix"/>
<feColorMatrix in="SourceAlpha" type="matrix" values="0 0 0 0 0 0 0 0 0 0 0 0 0 0 0 0 0 0 127 0" result="hardAlpha"/>
<feOffset dy="4"/>
<feGaussianBlur stdDeviation="2"/>
<feComposite in2="hardAlpha" operator="out"/>
<feColorMatrix type="matrix" values="0 0 0 0 0 0 0 0 0 0 0 0 0 0 0 0 0 0 0.25 0"/>
<feBlend mode="normal" in2="BackgroundImageFix" result="effect1_dropShadow_61_356"/>
<feBlend mode="normal" in="SourceGraphic" in2="effect1_dropShadow_61_356" result="shape"/>
</filter>
<filter id="filter1_d_61_356" x="-1" y="236" width="628" height="459" filterUnits="userSpaceOnUse" color-interpolation-filters="sRGB">
<feFlood flood-opacity="0" result="BackgroundImageFix"/>
<feColorMatrix in="SourceAlpha" type="matrix" values="0 0 0 0 0 0 0 0 0 0 0 0 0 0 0 0 0 0 127 0" result="hardAlpha"/>
<feOffset dx="9" dy="7"/>
<feGaussianBlur stdDeviation="35"/>
<feComposite in2="hardAlpha" operator="out"/>
<feColorMatrix type="matrix" values="0 0 0 0 0.439216 0 0 0 0 0.47451 0 0 0 0 0.819608 0 0 0 1 0"/>
<feBlend mode="normal" in2="BackgroundImageFix" result="effect1_dropShadow_61_356"/>
<feBlend mode="normal" in="SourceGraphic" in2="effect1_dropShadow_61_356" result="shape"/>
</filter>
<filter id="filter2_d_61_356" x="44" y="285" width="528" height="357" filterUnits="userSpaceOnUse" color-interpolation-filters="sRGB">
<feFlood flood-opacity="0" result="BackgroundImageFix"/>
<feColorMatrix in="SourceAlpha" type="matrix" values="0 0 0 0 0 0 0 0 0 0 0 0 0 0 0 0 0 0 127 0" result="hardAlpha"/>
<feOffset dx="4" dy="4"/>
<feGaussianBlur stdDeviation="10"/>
<feComposite in2="hardAlpha" operator="out"/>
<feColorMatrix type="matrix" values="0 0 0 0 0 0 0 0 0 0 0 0 0 0 0 0 0 0 0.25 0"/>
<feBlend mode="normal" in2="BackgroundImageFix" result="effect1_dropShadow_61_356"/>
<feBlend mode="normal" in="SourceGraphic" in2="effect1_dropShadow_61_356" result="shape"/>
</filter>
<filter id="filter3_d_61_356" x="1142" y="283" width="528" height="359" filterUnits="userSpaceOnUse" color-interpolation-filters="sRGB">
<feFlood flood-opacity="0" result="BackgroundImageFix"/>
<feColorMatrix in="SourceAlpha" type="matrix" values="0 0 0 0 0 0 0 0 0 0 0 0 0 0 0 0 0 0 127 0" result="hardAlpha"/>
<feOffset dx="4" dy="4"/>
<feGaussianBlur stdDeviation="10"/>
<feComposite in2="hardAlpha" operator="out"/>
<feColorMatrix type="matrix" values="0 0 0 0 0 0 0 0 0 0 0 0 0 0 0 0 0 0 0.25 0"/>
<feBlend mode="normal" in2="BackgroundImageFix" result="effect1_dropShadow_61_356"/>
<feBlend mode="normal" in="SourceGraphic" in2="effect1_dropShadow_61_356" result="shape"/>
</filter>
<filter id="filter4_d_61_356" x="1142" y="285" width="528" height="357" filterUnits="userSpaceOnUse" color-interpolation-filters="sRGB">
<feFlood flood-opacity="0" result="BackgroundImageFix"/>
<feColorMatrix in="SourceAlpha" type="matrix" values="0 0 0 0 0 0 0 0 0 0 0 0 0 0 0 0 0 0 127 0" result="hardAlpha"/>
<feOffset dx="4" dy="4"/>
<feGaussianBlur stdDeviation="10"/>
<feComposite in2="hardAlpha" operator="out"/>
<feColorMatrix type="matrix" values="0 0 0 0 0 0 0 0 0 0 0 0 0 0 0 0 0 0 0.25 0"/>
<feBlend mode="normal" in2="BackgroundImageFix" result="effect1_dropShadow_61_356"/>
<feBlend mode="normal" in="SourceGraphic" in2="effect1_dropShadow_61_356" result="shape"/>
</filter>
<filter id="filter5_d_61_356" x="604" y="283" width="528" height="361" filterUnits="userSpaceOnUse" color-interpolation-filters="sRGB">
<feFlood flood-opacity="0" result="BackgroundImageFix"/>
<feColorMatrix in="SourceAlpha" type="matrix" values="0 0 0 0 0 0 0 0 0 0 0 0 0 0 0 0 0 0 127 0" result="hardAlpha"/>
<feOffset dx="4" dy="4"/>
<feGaussianBlur stdDeviation="10"/>
<feComposite in2="hardAlpha" operator="out"/>
<feColorMatrix type="matrix" values="0 0 0 0 0 0 0 0 0 0 0 0 0 0 0 0 0 0 0.25 0"/>
<feBlend mode="normal" in2="BackgroundImageFix" result="effect1_dropShadow_61_356"/>
<feBlend mode="normal" in="SourceGraphic" in2="effect1_dropShadow_61_356" result="shape"/>
</filter>
<filter id="filter6_d_61_356" x="616" y="301" width="496" height="325" filterUnits="userSpaceOnUse" color-interpolation-filters="sRGB">
<feFlood flood-opacity="0" result="BackgroundImageFix"/>
<feColorMatrix in="SourceAlpha" type="matrix" values="0 0 0 0 0 0 0 0 0 0 0 0 0 0 0 0 0 0 127 0" result="hardAlpha"/>
<feOffset dy="4"/>
<feGaussianBlur stdDeviation="2"/>
<feComposite in2="hardAlpha" operator="out"/>
<feColorMatrix type="matrix" values="0 0 0 0 0 0 0 0 0 0 0 0 0 0 0 0 0 0 0.25 0"/>
<feBlend mode="normal" in2="BackgroundImageFix" result="effect1_dropShadow_61_356"/>
<feBlend mode="normal" in="SourceGraphic" in2="effect1_dropShadow_61_356" result="shape"/>
</filter>
<filter id="filter7_f_61_356" x="-522" y="464" width="2866" height="1249" filterUnits="userSpaceOnUse" color-interpolation-filters="sRGB">
<feFlood flood-opacity="0" result="BackgroundImageFix"/>
<feBlend mode="normal" in="SourceGraphic" in2="BackgroundImageFix" result="shape"/>
<feGaussianBlur stdDeviation="200" result="effect1_foregroundBlur_61_356"/>
</filter>
<linearGradient id="paint0_linear_61_356" x1="1279" y1="835" x2="2164" y2="835" gradientUnits="userSpaceOnUse">
<stop stop-color="#7079D1"/>
<stop offset="1" stop-color="#7079D1" stop-opacity="0"/>
</linearGradient>
<clipPath id="clip0_61_356">
<rect width="1728" height="1117" fill="white"/>
</clipPath>
</defs>
</svg>
