<svg width="647" height="54" viewBox="0 0 647 54" fill="none" xmlns="http://www.w3.org/2000/svg">
<path d="M8.432 18.24C7.232 18.24 6.128 18.032 5.12 17.616C4.112 17.184 3.24 16.584 2.504 15.816C1.768 15.032 1.192 14.112 0.776 13.056C0.376 12 0.176 10.848 0.176 9.6C0.176 8.368 0.376 7.24 0.776 6.216C1.192 5.176 1.776 4.272 2.528 3.504C3.28 2.72 4.152 2.12 5.144 1.704C6.136 1.288 7.224 1.08 8.408 1.08C9.192 1.08 9.968 1.208 10.736 1.464C11.504 1.704 12.208 2.04 12.848 2.472C13.504 2.904 14.04 3.4 14.456 3.96L13.16 5.304C12.76 4.824 12.296 4.408 11.768 4.056C11.256 3.704 10.712 3.432 10.136 3.24C9.56 3.048 8.984 2.952 8.408 2.952C7.512 2.952 6.672 3.12 5.888 3.456C5.12 3.776 4.456 4.232 3.896 4.824C3.336 5.416 2.896 6.12 2.576 6.936C2.272 7.752 2.12 8.64 2.12 9.6C2.12 10.592 2.272 11.504 2.576 12.336C2.896 13.168 3.344 13.888 3.92 14.496C4.512 15.088 5.2 15.552 5.984 15.888C6.784 16.208 7.672 16.368 8.648 16.368C9.224 16.368 9.8 16.288 10.376 16.128C10.952 15.952 11.48 15.712 11.96 15.408C12.44 15.104 12.848 14.76 13.184 14.376L14.144 15.936C13.776 16.384 13.28 16.784 12.656 17.136C12.048 17.472 11.376 17.744 10.64 17.952C9.904 18.144 9.168 18.24 8.432 18.24ZM17.0188 18V0.24H18.8188V18H17.0188ZM22.8414 18V5.472H24.6414V18H22.8414ZM23.7294 2.76C23.2814 2.76 22.9374 2.648 22.6974 2.424C22.4734 2.184 22.3614 1.864 22.3614 1.464C22.3614 1.064 22.4814 0.743999 22.7214 0.503999C22.9614 0.263999 23.2974 0.144 23.7294 0.144C24.1614 0.144 24.4974 0.263999 24.7374 0.503999C24.9774 0.727999 25.0974 1.048 25.0974 1.464C25.0974 1.848 24.9774 2.16 24.7374 2.4C24.4974 2.64 24.1614 2.76 23.7294 2.76ZM33.8523 18.24C32.6683 18.24 31.6123 17.96 30.6843 17.4C29.7563 16.824 29.0203 16.048 28.4763 15.072C27.9483 14.08 27.6843 12.96 27.6843 11.712C27.6843 10.464 27.9483 9.352 28.4763 8.376C29.0203 7.384 29.7563 6.608 30.6843 6.048C31.6123 5.488 32.6763 5.208 33.8763 5.208C34.9483 5.208 35.9243 5.424 36.8043 5.856C37.6843 6.272 38.3883 6.856 38.9163 7.608L37.8603 8.904C37.5563 8.504 37.1883 8.152 36.7563 7.848C36.3403 7.544 35.8843 7.312 35.3883 7.152C34.9083 6.976 34.4283 6.888 33.9483 6.888C33.1003 6.888 32.3403 7.104 31.6683 7.536C30.9963 7.952 30.4603 8.52 30.0603 9.24C29.6763 9.96 29.4843 10.784 29.4843 11.712C29.4843 12.64 29.6763 13.472 30.0603 14.208C30.4603 14.928 30.9963 15.496 31.6683 15.912C32.3403 16.328 33.0923 16.536 33.9243 16.536C34.4043 16.536 34.8763 16.464 35.3403 16.32C35.8043 16.16 36.2443 15.936 36.6603 15.648C37.0763 15.36 37.4603 15 37.8123 14.568L38.8683 15.864C38.3243 16.584 37.5963 17.16 36.6843 17.592C35.7723 18.024 34.8283 18.24 33.8523 18.24ZM42.8131 13.968L42.7411 11.88L49.2931 5.472H51.7171L42.8131 13.968ZM41.2051 18V0.24H43.0051V18H41.2051ZM49.7971 18L44.5171 11.88L45.7891 10.632L52.1491 18H49.7971ZM67.2058 18.24C66.6138 18.24 66.0378 18.152 65.4778 17.976C64.9178 17.784 64.4058 17.528 63.9418 17.208C63.4938 16.888 63.1098 16.52 62.7898 16.104C62.4858 15.688 62.2778 15.256 62.1658 14.808L62.6938 14.832L62.6217 17.976H60.8458V0.24H62.6458V8.472L62.2858 8.568C62.3978 8.12 62.5978 7.696 62.8858 7.296C63.1898 6.88 63.5658 6.52 64.0138 6.216C64.4618 5.896 64.9498 5.648 65.4778 5.472C66.0218 5.296 66.5818 5.208 67.1578 5.208C68.2778 5.208 69.2778 5.488 70.1578 6.048C71.0538 6.608 71.7658 7.376 72.2938 8.352C72.8218 9.328 73.0858 10.448 73.0858 11.712C73.0858 12.976 72.8298 14.104 72.3177 15.096C71.8058 16.072 71.1018 16.84 70.2058 17.4C69.3258 17.96 68.3258 18.24 67.2058 18.24ZM66.9178 16.536C67.7658 16.536 68.5178 16.328 69.1738 15.912C69.8298 15.48 70.3418 14.904 70.7098 14.184C71.0938 13.448 71.2858 12.624 71.2858 11.712C71.2858 10.784 71.0938 9.96 70.7098 9.24C70.3418 8.52 69.8298 7.952 69.1738 7.536C68.5178 7.12 67.7658 6.912 66.9178 6.912C66.0698 6.912 65.3178 7.12 64.6618 7.536C64.0058 7.952 63.4858 8.52 63.1018 9.24C62.7338 9.96 62.5498 10.784 62.5498 11.712C62.5498 12.64 62.7338 13.472 63.1018 14.208C63.4858 14.928 64.0058 15.496 64.6618 15.912C65.3178 16.328 66.0698 16.536 66.9178 16.536ZM81.2251 18.24C79.9771 18.24 78.8651 17.968 77.8891 17.424C76.9291 16.88 76.1771 16.12 75.6331 15.144C75.0891 14.168 74.8171 13.048 74.8171 11.784C74.8171 10.808 74.9691 9.928 75.2731 9.144C75.5771 8.344 76.0011 7.648 76.5451 7.056C77.1051 6.464 77.7691 6.008 78.5371 5.688C79.3051 5.352 80.1371 5.184 81.0331 5.184C81.8811 5.184 82.6491 5.336 83.3371 5.64C84.0411 5.944 84.6411 6.368 85.1371 6.912C85.6491 7.44 86.0331 8.072 86.2891 8.808C86.5451 9.544 86.6571 10.352 86.6251 11.232L86.6011 12.072H76.1611L75.8971 10.56H85.2331L84.8011 10.968V10.392C84.7691 9.816 84.6011 9.264 84.2971 8.736C83.9931 8.192 83.5611 7.752 83.0011 7.416C82.4571 7.08 81.8011 6.912 81.0331 6.912C80.1371 6.912 79.3611 7.096 78.7051 7.464C78.0491 7.816 77.5451 8.344 77.1931 9.048C76.8411 9.752 76.6651 10.624 76.6651 11.664C76.6651 12.656 76.8571 13.52 77.2411 14.256C77.6251 14.976 78.1691 15.536 78.8731 15.936C79.5931 16.336 80.4571 16.536 81.4651 16.536C82.0571 16.536 82.6411 16.44 83.2171 16.248C83.8091 16.04 84.4571 15.64 85.1611 15.048L86.0971 16.344C85.7291 16.712 85.2891 17.04 84.7771 17.328C84.2651 17.6 83.7051 17.824 83.0971 18C82.4891 18.16 81.8651 18.24 81.2251 18.24ZM89.2297 18V0.24H91.0297V18H89.2297ZM99.8819 18.24C98.6339 18.24 97.5219 17.96 96.5459 17.4C95.5859 16.84 94.8259 16.064 94.2659 15.072C93.7219 14.08 93.4499 12.952 93.4499 11.688C93.4499 10.44 93.7219 9.328 94.2659 8.352C94.8259 7.376 95.5859 6.608 96.5459 6.048C97.5219 5.488 98.6339 5.208 99.8819 5.208C101.114 5.208 102.21 5.488 103.17 6.048C104.146 6.608 104.906 7.376 105.45 8.352C106.01 9.328 106.29 10.44 106.29 11.688C106.29 12.952 106.01 14.08 105.45 15.072C104.906 16.064 104.146 16.84 103.17 17.4C102.21 17.96 101.114 18.24 99.8819 18.24ZM99.8819 16.536C100.762 16.536 101.546 16.328 102.234 15.912C102.922 15.48 103.458 14.904 103.842 14.184C104.226 13.448 104.418 12.616 104.418 11.688C104.418 10.76 104.226 9.936 103.842 9.216C103.458 8.496 102.922 7.936 102.234 7.536C101.546 7.12 100.762 6.912 99.8819 6.912C99.0019 6.912 98.2099 7.12 97.5059 7.536C96.8179 7.936 96.2739 8.504 95.8739 9.24C95.4899 9.96 95.3059 10.776 95.3219 11.688C95.3059 12.616 95.4899 13.448 95.8739 14.184C96.2739 14.904 96.8179 15.48 97.5059 15.912C98.2099 16.328 99.0019 16.536 99.8819 16.536ZM111.399 18L107.055 5.472L108.975 5.448L112.359 15.648L111.759 15.6L115.431 7.392H116.511L120.207 15.6L119.487 15.648L122.943 5.472H124.839L120.495 18H119.439L115.551 9.072L116.271 9.12L112.503 18H111.399ZM135.418 18V2.184H137.218V18H135.418ZM132.586 7.2V5.472H140.386V7.2H132.586ZM148.023 18.24C146.775 18.24 145.663 17.96 144.687 17.4C143.727 16.84 142.967 16.064 142.407 15.072C141.863 14.08 141.591 12.952 141.591 11.688C141.591 10.44 141.863 9.328 142.407 8.352C142.967 7.376 143.727 6.608 144.687 6.048C145.663 5.488 146.775 5.208 148.023 5.208C149.255 5.208 150.351 5.488 151.311 6.048C152.287 6.608 153.047 7.376 153.591 8.352C154.151 9.328 154.431 10.44 154.431 11.688C154.431 12.952 154.151 14.08 153.591 15.072C153.047 16.064 152.287 16.84 151.311 17.4C150.351 17.96 149.255 18.24 148.023 18.24ZM148.023 16.536C148.903 16.536 149.687 16.328 150.375 15.912C151.063 15.48 151.599 14.904 151.983 14.184C152.367 13.448 152.559 12.616 152.559 11.688C152.559 10.76 152.367 9.936 151.983 9.216C151.599 8.496 151.063 7.936 150.375 7.536C149.687 7.12 148.903 6.912 148.023 6.912C147.143 6.912 146.351 7.12 145.647 7.536C144.959 7.936 144.415 8.504 144.015 9.24C143.631 9.96 143.447 10.776 143.463 11.688C143.447 12.616 143.631 13.448 144.015 14.184C144.415 14.904 144.959 15.48 145.647 15.912C146.351 16.328 147.143 16.536 148.023 16.536ZM167.671 18L162.391 5.472H164.383L168.559 15.72L168.079 15.984L172.663 5.472H174.583L168.967 18H167.671ZM177.177 18V5.472H178.977V18H177.177ZM178.065 2.76C177.617 2.76 177.273 2.648 177.033 2.424C176.809 2.184 176.697 1.864 176.697 1.464C176.697 1.064 176.817 0.743999 177.057 0.503999C177.297 0.263999 177.633 0.144 178.065 0.144C178.497 0.144 178.833 0.263999 179.073 0.503999C179.313 0.727999 179.433 1.048 179.433 1.464C179.433 1.848 179.313 2.16 179.073 2.4C178.833 2.64 178.497 2.76 178.065 2.76ZM188.428 18.24C187.18 18.24 186.068 17.968 185.092 17.424C184.132 16.88 183.38 16.12 182.836 15.144C182.292 14.168 182.02 13.048 182.02 11.784C182.02 10.808 182.172 9.928 182.476 9.144C182.78 8.344 183.204 7.648 183.748 7.056C184.308 6.464 184.972 6.008 185.74 5.688C186.508 5.352 187.34 5.184 188.236 5.184C189.084 5.184 189.852 5.336 190.54 5.64C191.244 5.944 191.844 6.368 192.34 6.912C192.852 7.44 193.236 8.072 193.492 8.808C193.748 9.544 193.86 10.352 193.828 11.232L193.804 12.072H183.364L183.1 10.56H192.436L192.004 10.968V10.392C191.972 9.816 191.804 9.264 191.5 8.736C191.196 8.192 190.764 7.752 190.204 7.416C189.66 7.08 189.004 6.912 188.236 6.912C187.34 6.912 186.564 7.096 185.908 7.464C185.252 7.816 184.748 8.344 184.396 9.048C184.044 9.752 183.868 10.624 183.868 11.664C183.868 12.656 184.06 13.52 184.444 14.256C184.828 14.976 185.372 15.536 186.076 15.936C186.796 16.336 187.66 16.536 188.668 16.536C189.26 16.536 189.844 16.44 190.42 16.248C191.012 16.04 191.66 15.64 192.364 15.048L193.3 16.344C192.932 16.712 192.492 17.04 191.98 17.328C191.468 17.6 190.908 17.824 190.3 18C189.692 18.16 189.068 18.24 188.428 18.24ZM199.102 18L194.758 5.472L196.678 5.448L200.062 15.648L199.462 15.6L203.134 7.392H204.214L207.91 15.6L207.19 15.648L210.646 5.472H212.542L208.198 18H207.142L203.254 9.072L203.974 9.12L200.206 18H199.102ZM226.937 18.24C225.689 18.24 224.577 17.96 223.601 17.4C222.641 16.84 221.881 16.064 221.321 15.072C220.777 14.08 220.505 12.952 220.505 11.688C220.505 10.44 220.777 9.328 221.321 8.352C221.881 7.376 222.641 6.608 223.601 6.048C224.577 5.488 225.689 5.208 226.937 5.208C228.169 5.208 229.265 5.488 230.225 6.048C231.201 6.608 231.961 7.376 232.505 8.352C233.065 9.328 233.345 10.44 233.345 11.688C233.345 12.952 233.065 14.08 232.505 15.072C231.961 16.064 231.201 16.84 230.225 17.4C229.265 17.96 228.169 18.24 226.937 18.24ZM226.937 16.536C227.817 16.536 228.601 16.328 229.289 15.912C229.977 15.48 230.513 14.904 230.897 14.184C231.281 13.448 231.473 12.616 231.473 11.688C231.473 10.76 231.281 9.936 230.897 9.216C230.513 8.496 229.977 7.936 229.289 7.536C228.601 7.12 227.817 6.912 226.937 6.912C226.057 6.912 225.265 7.12 224.561 7.536C223.873 7.936 223.329 8.504 222.929 9.24C222.545 9.96 222.361 10.776 222.377 11.688C222.361 12.616 222.545 13.448 222.929 14.184C223.329 14.904 223.873 15.48 224.561 15.912C225.265 16.328 226.057 16.536 226.937 16.536ZM240.411 18.24C239.451 18.24 238.635 18.048 237.963 17.664C237.307 17.264 236.803 16.688 236.451 15.936C236.115 15.184 235.947 14.248 235.947 13.128V5.472H237.771V12.768C237.771 13.616 237.883 14.328 238.107 14.904C238.347 15.464 238.699 15.888 239.163 16.176C239.643 16.464 240.227 16.608 240.915 16.608C241.443 16.608 241.931 16.52 242.379 16.344C242.827 16.152 243.219 15.896 243.555 15.576C243.891 15.256 244.155 14.88 244.347 14.448C244.539 14.016 244.635 13.56 244.635 13.08V5.472H246.435V18H244.659L244.587 15.36L244.875 15.216C244.683 15.776 244.363 16.288 243.915 16.752C243.467 17.2 242.931 17.56 242.307 17.832C241.699 18.104 241.067 18.24 240.411 18.24ZM249.94 18V5.472H251.74L251.788 8.808L251.596 8.352C251.772 7.792 252.052 7.272 252.436 6.792C252.836 6.312 253.308 5.928 253.852 5.64C254.396 5.352 254.996 5.208 255.652 5.208C255.924 5.208 256.18 5.232 256.42 5.28C256.66 5.312 256.86 5.36 257.02 5.424L256.516 7.44C256.308 7.344 256.092 7.28 255.868 7.248C255.66 7.2 255.46 7.176 255.268 7.176C254.724 7.176 254.236 7.272 253.804 7.464C253.372 7.656 253.004 7.928 252.7 8.28C252.396 8.616 252.164 9.008 252.004 9.456C251.844 9.904 251.764 10.384 251.764 10.896V18H249.94ZM267.059 18V3.528C267.059 2.904 267.195 2.352 267.467 1.872C267.739 1.392 268.123 1.016 268.619 0.743999C269.131 0.455999 269.723 0.311999 270.395 0.311999C270.907 0.311999 271.363 0.407999 271.763 0.599999C272.179 0.775999 272.523 1.024 272.795 1.344L272.171 2.76C271.915 2.488 271.635 2.296 271.331 2.184C271.043 2.056 270.763 1.992 270.491 1.992C270.139 1.992 269.843 2.056 269.603 2.184C269.363 2.296 269.179 2.472 269.051 2.712C268.939 2.936 268.883 3.208 268.883 3.528V18H268.043C267.867 18 267.699 18 267.539 18C267.379 18 267.219 18 267.059 18ZM264.827 7.248V5.568H272.075V7.248H264.827ZM275.171 18V5.472H276.971V18H275.171ZM276.059 2.76C275.611 2.76 275.267 2.648 275.027 2.424C274.803 2.184 274.691 1.864 274.691 1.464C274.691 1.064 274.811 0.743999 275.051 0.503999C275.291 0.263999 275.627 0.144 276.059 0.144C276.491 0.144 276.827 0.263999 277.067 0.503999C277.307 0.727999 277.427 1.048 277.427 1.464C277.427 1.848 277.307 2.16 277.067 2.4C276.827 2.64 276.491 2.76 276.059 2.76ZM280.9 18V5.472H282.676L282.748 8.088L282.46 8.208C282.62 7.664 282.932 7.168 283.396 6.72C283.86 6.272 284.412 5.912 285.052 5.64C285.708 5.352 286.38 5.208 287.068 5.208C287.996 5.208 288.772 5.392 289.396 5.76C290.02 6.128 290.492 6.696 290.812 7.464C291.132 8.232 291.292 9.208 291.292 10.392V18H289.468V10.488C289.468 9.656 289.356 8.976 289.132 8.448C288.924 7.904 288.596 7.504 288.148 7.248C287.7 6.992 287.148 6.872 286.492 6.888C285.948 6.888 285.444 6.984 284.98 7.176C284.516 7.352 284.116 7.6 283.78 7.92C283.444 8.24 283.18 8.608 282.988 9.024C282.796 9.44 282.7 9.888 282.7 10.368V18H281.812C281.7 18 281.572 18 281.428 18C281.284 18 281.108 18 280.9 18ZM299.625 18.24C298.537 18.24 297.553 17.96 296.673 17.4C295.793 16.824 295.097 16.048 294.585 15.072C294.073 14.08 293.817 12.96 293.817 11.712C293.817 10.448 294.081 9.328 294.609 8.352C295.137 7.376 295.841 6.608 296.721 6.048C297.617 5.488 298.617 5.208 299.721 5.208C300.377 5.208 300.985 5.304 301.545 5.496C302.105 5.688 302.601 5.96 303.033 6.312C303.481 6.648 303.849 7.048 304.137 7.512C304.441 7.96 304.649 8.448 304.761 8.976L304.233 8.712L304.305 5.472H306.105V18H304.281V14.928L304.761 14.616C304.649 15.096 304.433 15.56 304.113 16.008C303.793 16.44 303.401 16.824 302.937 17.16C302.489 17.496 301.977 17.76 301.401 17.952C300.841 18.144 300.249 18.24 299.625 18.24ZM300.033 16.512C300.865 16.512 301.609 16.312 302.265 15.912C302.921 15.496 303.433 14.928 303.801 14.208C304.185 13.472 304.377 12.64 304.377 11.712C304.377 10.784 304.185 9.96 303.801 9.24C303.433 8.52 302.921 7.952 302.265 7.536C301.609 7.12 300.865 6.912 300.033 6.912C299.185 6.912 298.433 7.12 297.777 7.536C297.137 7.952 296.625 8.52 296.241 9.24C295.873 9.96 295.689 10.784 295.689 11.712C295.689 12.624 295.873 13.448 296.241 14.184C296.609 14.904 297.121 15.472 297.777 15.888C298.433 16.304 299.185 16.512 300.033 16.512ZM309.659 18V0.24H311.459V18H309.659ZM326.817 18.24C325.681 18.24 324.657 17.96 323.745 17.4C322.849 16.84 322.137 16.072 321.609 15.096C321.097 14.104 320.841 12.984 320.841 11.736C320.841 10.472 321.105 9.352 321.633 8.376C322.161 7.384 322.873 6.608 323.769 6.048C324.665 5.488 325.673 5.208 326.793 5.208C327.417 5.208 328.017 5.304 328.593 5.496C329.185 5.688 329.713 5.96 330.177 6.312C330.641 6.648 331.025 7.04 331.329 7.488C331.633 7.92 331.817 8.376 331.881 8.856L331.329 8.664V0.24H333.129V18H331.353L331.305 14.88L331.761 14.712C331.697 15.16 331.513 15.6 331.209 16.032C330.921 16.448 330.553 16.824 330.105 17.16C329.657 17.496 329.145 17.76 328.569 17.952C328.009 18.144 327.425 18.24 326.817 18.24ZM327.081 16.584C327.913 16.584 328.657 16.376 329.313 15.96C329.969 15.544 330.481 14.968 330.849 14.232C331.233 13.496 331.425 12.656 331.425 11.712C331.425 10.768 331.233 9.936 330.849 9.216C330.481 8.48 329.969 7.904 329.313 7.488C328.657 7.056 327.913 6.84 327.081 6.84C326.217 6.84 325.457 7.056 324.801 7.488C324.161 7.904 323.649 8.48 323.265 9.216C322.897 9.936 322.713 10.768 322.713 11.712C322.713 12.64 322.897 13.472 323.265 14.208C323.633 14.944 324.145 15.528 324.801 15.96C325.457 16.376 326.217 16.584 327.081 16.584ZM342.155 18.24C340.907 18.24 339.795 17.968 338.819 17.424C337.859 16.88 337.107 16.12 336.563 15.144C336.019 14.168 335.747 13.048 335.747 11.784C335.747 10.808 335.899 9.928 336.203 9.144C336.507 8.344 336.931 7.648 337.475 7.056C338.035 6.464 338.699 6.008 339.467 5.688C340.235 5.352 341.067 5.184 341.963 5.184C342.811 5.184 343.579 5.336 344.267 5.64C344.971 5.944 345.571 6.368 346.067 6.912C346.579 7.44 346.963 8.072 347.219 8.808C347.475 9.544 347.587 10.352 347.555 11.232L347.531 12.072H337.091L336.827 10.56H346.163L345.731 10.968V10.392C345.699 9.816 345.531 9.264 345.227 8.736C344.923 8.192 344.491 7.752 343.931 7.416C343.387 7.08 342.731 6.912 341.963 6.912C341.067 6.912 340.291 7.096 339.635 7.464C338.979 7.816 338.475 8.344 338.123 9.048C337.771 9.752 337.595 10.624 337.595 11.664C337.595 12.656 337.787 13.52 338.171 14.256C338.555 14.976 339.099 15.536 339.803 15.936C340.523 16.336 341.387 16.536 342.395 16.536C342.987 16.536 343.571 16.44 344.147 16.248C344.739 16.04 345.387 15.64 346.091 15.048L347.027 16.344C346.659 16.712 346.219 17.04 345.707 17.328C345.195 17.6 344.635 17.824 344.027 18C343.419 18.16 342.795 18.24 342.155 18.24ZM350.087 18V5.472H351.887L351.935 8.328L351.575 8.448C351.703 7.968 351.911 7.536 352.199 7.152C352.503 6.752 352.863 6.408 353.279 6.12C353.695 5.832 354.151 5.616 354.647 5.472C355.143 5.312 355.663 5.232 356.207 5.232C356.863 5.232 357.447 5.344 357.959 5.568C358.487 5.776 358.927 6.144 359.279 6.672C359.647 7.184 359.927 7.864 360.119 8.712L359.687 8.496L359.855 8.088C360.015 7.72 360.247 7.368 360.551 7.032C360.871 6.68 361.231 6.368 361.631 6.096C362.047 5.824 362.495 5.616 362.975 5.472C363.471 5.312 363.975 5.232 364.487 5.232C365.367 5.232 366.111 5.424 366.719 5.808C367.327 6.176 367.783 6.744 368.087 7.512C368.407 8.28 368.567 9.256 368.567 10.44V18H366.719V10.536C366.719 9.704 366.615 9.024 366.407 8.496C366.199 7.968 365.887 7.576 365.471 7.32C365.071 7.048 364.559 6.912 363.935 6.912C363.391 6.912 362.887 7.008 362.423 7.2C361.975 7.376 361.583 7.632 361.247 7.968C360.927 8.288 360.671 8.656 360.479 9.072C360.303 9.488 360.215 9.936 360.215 10.416V18H358.391V10.512C358.391 9.712 358.279 9.048 358.055 8.52C357.847 7.992 357.535 7.592 357.119 7.32C356.703 7.048 356.191 6.912 355.583 6.912C355.055 6.912 354.567 7.008 354.119 7.2C353.671 7.376 353.279 7.624 352.943 7.944C352.623 8.264 352.367 8.632 352.175 9.048C351.999 9.464 351.911 9.912 351.911 10.392V18H350.087ZM377.523 18.24C376.275 18.24 375.163 17.96 374.187 17.4C373.227 16.84 372.467 16.064 371.907 15.072C371.363 14.08 371.091 12.952 371.091 11.688C371.091 10.44 371.363 9.328 371.907 8.352C372.467 7.376 373.227 6.608 374.187 6.048C375.163 5.488 376.275 5.208 377.523 5.208C378.755 5.208 379.851 5.488 380.811 6.048C381.787 6.608 382.547 7.376 383.091 8.352C383.651 9.328 383.931 10.44 383.931 11.688C383.931 12.952 383.651 14.08 383.091 15.072C382.547 16.064 381.787 16.84 380.811 17.4C379.851 17.96 378.755 18.24 377.523 18.24ZM377.523 16.536C378.403 16.536 379.187 16.328 379.875 15.912C380.563 15.48 381.099 14.904 381.483 14.184C381.867 13.448 382.059 12.616 382.059 11.688C382.059 10.76 381.867 9.936 381.483 9.216C381.099 8.496 380.563 7.936 379.875 7.536C379.187 7.12 378.403 6.912 377.523 6.912C376.643 6.912 375.851 7.12 375.147 7.536C374.459 7.936 373.915 8.504 373.515 9.24C373.131 9.96 372.947 10.776 372.963 11.688C372.947 12.616 373.131 13.448 373.515 14.184C373.915 14.904 374.459 15.48 375.147 15.912C375.851 16.328 376.643 16.536 377.523 16.536ZM387.541 18.24C387.109 18.24 386.773 18.112 386.533 17.856C386.309 17.6 386.197 17.232 386.197 16.752C386.197 16.32 386.317 15.968 386.557 15.696C386.813 15.408 387.141 15.264 387.541 15.264C387.973 15.264 388.301 15.4 388.525 15.672C388.765 15.928 388.885 16.288 388.885 16.752C388.885 17.2 388.757 17.56 388.501 17.832C388.261 18.104 387.941 18.24 387.541 18.24ZM398.672 18V16.224H401.384V2.976H398.672V1.2H405.968V2.976H403.256V16.224H405.968V18H398.672ZM411.136 18V2.184H412.936V18H411.136ZM408.304 7.2V5.472H416.104V7.2H408.304ZM430.129 18.24C428.993 18.24 427.969 17.96 427.057 17.4C426.161 16.84 425.449 16.072 424.921 15.096C424.409 14.104 424.153 12.984 424.153 11.736C424.153 10.472 424.417 9.352 424.945 8.376C425.473 7.384 426.185 6.608 427.081 6.048C427.977 5.488 428.985 5.208 430.105 5.208C430.729 5.208 431.329 5.304 431.905 5.496C432.497 5.688 433.025 5.96 433.489 6.312C433.953 6.648 434.337 7.04 434.641 7.488C434.945 7.92 435.129 8.376 435.193 8.856L434.641 8.664V0.24H436.441V18H434.665L434.617 14.88L435.073 14.712C435.009 15.16 434.825 15.6 434.521 16.032C434.233 16.448 433.865 16.824 433.417 17.16C432.969 17.496 432.457 17.76 431.881 17.952C431.321 18.144 430.737 18.24 430.129 18.24ZM430.393 16.584C431.225 16.584 431.969 16.376 432.625 15.96C433.281 15.544 433.793 14.968 434.161 14.232C434.545 13.496 434.737 12.656 434.737 11.712C434.737 10.768 434.545 9.936 434.161 9.216C433.793 8.48 433.281 7.904 432.625 7.488C431.969 7.056 431.225 6.84 430.393 6.84C429.529 6.84 428.769 7.056 428.113 7.488C427.473 7.904 426.961 8.48 426.577 9.216C426.209 9.936 426.025 10.768 426.025 11.712C426.025 12.64 426.209 13.472 426.577 14.208C426.945 14.944 427.457 15.528 428.113 15.96C428.769 16.376 429.529 16.584 430.393 16.584ZM440.427 18V5.472H442.227V18H440.427ZM441.315 2.76C440.867 2.76 440.523 2.648 440.283 2.424C440.059 2.184 439.947 1.864 439.947 1.464C439.947 1.064 440.067 0.743999 440.307 0.503999C440.547 0.263999 440.883 0.144 441.315 0.144C441.747 0.144 442.083 0.263999 442.323 0.503999C442.563 0.727999 442.683 1.048 442.683 1.464C442.683 1.848 442.563 2.16 442.323 2.4C442.083 2.64 441.747 2.76 441.315 2.76ZM450.262 18.24C449.19 18.24 448.23 18.04 447.382 17.64C446.534 17.24 445.862 16.712 445.366 16.056L446.638 14.952C447.102 15.512 447.646 15.936 448.27 16.224C448.91 16.512 449.622 16.656 450.406 16.656C450.806 16.656 451.166 16.616 451.486 16.536C451.806 16.44 452.086 16.304 452.326 16.128C452.566 15.952 452.75 15.744 452.878 15.504C453.006 15.264 453.07 15 453.07 14.712C453.07 14.184 452.838 13.744 452.374 13.392C452.166 13.248 451.87 13.104 451.486 12.96C451.102 12.8 450.638 12.648 450.094 12.504C449.198 12.248 448.454 11.992 447.862 11.736C447.27 11.464 446.806 11.152 446.47 10.8C446.23 10.512 446.046 10.2 445.918 9.864C445.806 9.528 445.75 9.16 445.75 8.76C445.75 8.248 445.854 7.776 446.062 7.344C446.286 6.912 446.59 6.536 446.974 6.216C447.374 5.88 447.838 5.632 448.366 5.472C448.91 5.296 449.494 5.208 450.118 5.208C450.71 5.208 451.294 5.288 451.87 5.448C452.446 5.608 452.982 5.84 453.478 6.144C453.974 6.448 454.398 6.808 454.75 7.224L453.646 8.424C453.342 8.104 453.006 7.816 452.638 7.56C452.27 7.304 451.878 7.104 451.462 6.96C451.062 6.816 450.646 6.744 450.214 6.744C449.83 6.744 449.47 6.792 449.134 6.888C448.814 6.984 448.534 7.12 448.294 7.296C448.07 7.456 447.894 7.656 447.766 7.896C447.654 8.136 447.598 8.4 447.598 8.688C447.598 8.928 447.646 9.144 447.742 9.336C447.838 9.528 447.974 9.696 448.15 9.84C448.374 10.016 448.686 10.184 449.086 10.344C449.502 10.488 450.014 10.64 450.622 10.8C451.326 10.992 451.918 11.192 452.398 11.4C452.894 11.592 453.302 11.824 453.622 12.096C454.054 12.416 454.358 12.784 454.534 13.2C454.726 13.616 454.822 14.088 454.822 14.616C454.822 15.32 454.622 15.944 454.222 16.488C453.838 17.032 453.302 17.464 452.614 17.784C451.926 18.088 451.142 18.24 450.262 18.24ZM457.643 23.28V5.472H459.443L459.491 8.52L459.155 8.568C459.299 7.96 459.611 7.408 460.091 6.912C460.571 6.4 461.155 5.992 461.843 5.688C462.531 5.384 463.259 5.232 464.027 5.232C465.147 5.232 466.147 5.512 467.027 6.072C467.923 6.632 468.635 7.4 469.163 8.376C469.691 9.352 469.955 10.472 469.955 11.736C469.955 12.984 469.699 14.096 469.187 15.072C468.675 16.048 467.971 16.824 467.075 17.4C466.179 17.96 465.171 18.24 464.051 18.24C463.267 18.24 462.523 18.08 461.819 17.76C461.115 17.44 460.515 17.024 460.019 16.512C459.523 15.984 459.195 15.416 459.035 14.808H459.467V23.28H457.643ZM463.763 16.512C464.611 16.512 465.363 16.304 466.019 15.888C466.675 15.472 467.195 14.904 467.579 14.184C467.963 13.464 468.155 12.648 468.155 11.736C468.155 10.808 467.963 9.984 467.579 9.264C467.195 8.544 466.675 7.976 466.019 7.56C465.363 7.144 464.611 6.936 463.763 6.936C462.915 6.936 462.155 7.144 461.483 7.56C460.827 7.96 460.307 8.52 459.923 9.24C459.539 9.96 459.347 10.784 459.347 11.712C459.347 12.64 459.539 13.464 459.923 14.184C460.307 14.904 460.827 15.472 461.483 15.888C462.155 16.304 462.915 16.512 463.763 16.512ZM472.62 18V0.24H474.42V18H472.62ZM482.625 18.24C481.537 18.24 480.553 17.96 479.673 17.4C478.793 16.824 478.097 16.048 477.585 15.072C477.073 14.08 476.817 12.96 476.817 11.712C476.817 10.448 477.081 9.328 477.609 8.352C478.137 7.376 478.841 6.608 479.721 6.048C480.617 5.488 481.617 5.208 482.721 5.208C483.377 5.208 483.985 5.304 484.545 5.496C485.105 5.688 485.601 5.96 486.033 6.312C486.481 6.648 486.849 7.048 487.137 7.512C487.441 7.96 487.649 8.448 487.761 8.976L487.233 8.712L487.305 5.472H489.105V18H487.281V14.928L487.761 14.616C487.649 15.096 487.433 15.56 487.113 16.008C486.793 16.44 486.401 16.824 485.937 17.16C485.489 17.496 484.977 17.76 484.401 17.952C483.841 18.144 483.249 18.24 482.625 18.24ZM483.033 16.512C483.865 16.512 484.609 16.312 485.265 15.912C485.921 15.496 486.433 14.928 486.801 14.208C487.185 13.472 487.377 12.64 487.377 11.712C487.377 10.784 487.185 9.96 486.801 9.24C486.433 8.52 485.921 7.952 485.265 7.536C484.609 7.12 483.865 6.912 483.033 6.912C482.185 6.912 481.433 7.12 480.777 7.536C480.137 7.952 479.625 8.52 479.241 9.24C478.873 9.96 478.689 10.784 478.689 11.712C478.689 12.624 478.873 13.448 479.241 14.184C479.609 14.904 480.121 15.472 480.777 15.888C481.433 16.304 482.185 16.512 483.033 16.512ZM494.442 23.52L496.866 17.616L497.034 19.32L490.746 5.472H492.786L497.082 15.072C497.21 15.328 497.338 15.632 497.466 15.984C497.594 16.32 497.714 16.656 497.826 16.992L497.154 16.92C497.266 16.648 497.37 16.368 497.466 16.08C497.578 15.792 497.682 15.512 497.778 15.24L501.546 5.472H503.61L498.546 18L496.386 23.52H494.442ZM509.372 18.24C508.3 18.24 507.34 18.04 506.492 17.64C505.644 17.24 504.972 16.712 504.476 16.056L505.748 14.952C506.212 15.512 506.756 15.936 507.38 16.224C508.02 16.512 508.732 16.656 509.516 16.656C509.916 16.656 510.276 16.616 510.596 16.536C510.916 16.44 511.196 16.304 511.436 16.128C511.676 15.952 511.86 15.744 511.988 15.504C512.116 15.264 512.18 15 512.18 14.712C512.18 14.184 511.948 13.744 511.484 13.392C511.276 13.248 510.98 13.104 510.596 12.96C510.212 12.8 509.748 12.648 509.204 12.504C508.308 12.248 507.564 11.992 506.972 11.736C506.38 11.464 505.916 11.152 505.58 10.8C505.34 10.512 505.156 10.2 505.028 9.864C504.916 9.528 504.86 9.16 504.86 8.76C504.86 8.248 504.964 7.776 505.172 7.344C505.396 6.912 505.7 6.536 506.084 6.216C506.484 5.88 506.948 5.632 507.476 5.472C508.02 5.296 508.604 5.208 509.228 5.208C509.82 5.208 510.404 5.288 510.98 5.448C511.556 5.608 512.092 5.84 512.588 6.144C513.084 6.448 513.508 6.808 513.86 7.224L512.756 8.424C512.452 8.104 512.116 7.816 511.748 7.56C511.38 7.304 510.988 7.104 510.572 6.96C510.172 6.816 509.756 6.744 509.324 6.744C508.94 6.744 508.58 6.792 508.244 6.888C507.924 6.984 507.644 7.12 507.404 7.296C507.18 7.456 507.004 7.656 506.876 7.896C506.764 8.136 506.708 8.4 506.708 8.688C506.708 8.928 506.756 9.144 506.852 9.336C506.948 9.528 507.084 9.696 507.26 9.84C507.484 10.016 507.796 10.184 508.196 10.344C508.612 10.488 509.124 10.64 509.732 10.8C510.436 10.992 511.028 11.192 511.508 11.4C512.004 11.592 512.412 11.824 512.732 12.096C513.164 12.416 513.468 12.784 513.644 13.2C513.836 13.616 513.932 14.088 513.932 14.616C513.932 15.32 513.732 15.944 513.332 16.488C512.948 17.032 512.412 17.464 511.724 17.784C511.036 18.088 510.252 18.24 509.372 18.24ZM528.375 18.24C527.287 18.24 526.303 17.96 525.423 17.4C524.543 16.824 523.847 16.048 523.335 15.072C522.823 14.08 522.567 12.96 522.567 11.712C522.567 10.448 522.831 9.328 523.359 8.352C523.887 7.376 524.591 6.608 525.471 6.048C526.367 5.488 527.367 5.208 528.471 5.208C529.127 5.208 529.735 5.304 530.295 5.496C530.855 5.688 531.351 5.96 531.783 6.312C532.231 6.648 532.599 7.048 532.887 7.512C533.191 7.96 533.399 8.448 533.511 8.976L532.983 8.712L533.055 5.472H534.855V18H533.031V14.928L533.511 14.616C533.399 15.096 533.183 15.56 532.863 16.008C532.543 16.44 532.151 16.824 531.687 17.16C531.239 17.496 530.727 17.76 530.151 17.952C529.591 18.144 528.999 18.24 528.375 18.24ZM528.783 16.512C529.615 16.512 530.359 16.312 531.015 15.912C531.671 15.496 532.183 14.928 532.551 14.208C532.935 13.472 533.127 12.64 533.127 11.712C533.127 10.784 532.935 9.96 532.551 9.24C532.183 8.52 531.671 7.952 531.015 7.536C530.359 7.12 529.615 6.912 528.783 6.912C527.935 6.912 527.183 7.12 526.527 7.536C525.887 7.952 525.375 8.52 524.991 9.24C524.623 9.96 524.439 10.784 524.439 11.712C524.439 12.624 524.623 13.448 524.991 14.184C525.359 14.904 525.871 15.472 526.527 15.888C527.183 16.304 527.935 16.512 528.783 16.512ZM538.409 18V0.24H540.209V18H538.409ZM543.8 18V0.24H545.6V18H543.8ZM557.309 18V3.528C557.309 2.904 557.445 2.352 557.717 1.872C557.989 1.392 558.373 1.016 558.869 0.743999C559.381 0.455999 559.973 0.311999 560.645 0.311999C561.157 0.311999 561.613 0.407999 562.013 0.599999C562.429 0.775999 562.773 1.024 563.045 1.344L562.421 2.76C562.165 2.488 561.885 2.296 561.581 2.184C561.293 2.056 561.013 1.992 560.741 1.992C560.389 1.992 560.093 2.056 559.853 2.184C559.613 2.296 559.429 2.472 559.301 2.712C559.189 2.936 559.133 3.208 559.133 3.528V18H558.293C558.117 18 557.949 18 557.789 18C557.629 18 557.469 18 557.309 18ZM555.077 7.248V5.568H562.325V7.248H555.077ZM569.991 18.24C568.743 18.24 567.631 17.968 566.655 17.424C565.695 16.88 564.943 16.12 564.399 15.144C563.855 14.168 563.583 13.048 563.583 11.784C563.583 10.808 563.735 9.928 564.039 9.144C564.343 8.344 564.767 7.648 565.311 7.056C565.871 6.464 566.535 6.008 567.303 5.688C568.071 5.352 568.903 5.184 569.799 5.184C570.647 5.184 571.415 5.336 572.103 5.64C572.807 5.944 573.407 6.368 573.903 6.912C574.415 7.44 574.799 8.072 575.055 8.808C575.311 9.544 575.423 10.352 575.391 11.232L575.367 12.072H564.927L564.663 10.56H573.999L573.567 10.968V10.392C573.535 9.816 573.367 9.264 573.063 8.736C572.759 8.192 572.327 7.752 571.767 7.416C571.223 7.08 570.567 6.912 569.799 6.912C568.903 6.912 568.127 7.096 567.471 7.464C566.815 7.816 566.311 8.344 565.959 9.048C565.607 9.752 565.431 10.624 565.431 11.664C565.431 12.656 565.623 13.52 566.007 14.256C566.391 14.976 566.935 15.536 567.639 15.936C568.359 16.336 569.223 16.536 570.231 16.536C570.823 16.536 571.407 16.44 571.983 16.248C572.575 16.04 573.223 15.64 573.927 15.048L574.863 16.344C574.495 16.712 574.055 17.04 573.543 17.328C573.031 17.6 572.471 17.824 571.863 18C571.255 18.16 570.631 18.24 569.991 18.24ZM582.843 18.24C581.755 18.24 580.771 17.96 579.891 17.4C579.011 16.824 578.315 16.048 577.803 15.072C577.291 14.08 577.035 12.96 577.035 11.712C577.035 10.448 577.299 9.328 577.827 8.352C578.355 7.376 579.059 6.608 579.939 6.048C580.835 5.488 581.835 5.208 582.939 5.208C583.595 5.208 584.203 5.304 584.763 5.496C585.323 5.688 585.819 5.96 586.251 6.312C586.699 6.648 587.067 7.048 587.355 7.512C587.659 7.96 587.867 8.448 587.979 8.976L587.451 8.712L587.523 5.472H589.323V18H587.499V14.928L587.979 14.616C587.867 15.096 587.651 15.56 587.331 16.008C587.011 16.44 586.619 16.824 586.155 17.16C585.707 17.496 585.195 17.76 584.619 17.952C584.059 18.144 583.467 18.24 582.843 18.24ZM583.251 16.512C584.083 16.512 584.827 16.312 585.483 15.912C586.139 15.496 586.651 14.928 587.019 14.208C587.403 13.472 587.595 12.64 587.595 11.712C587.595 10.784 587.403 9.96 587.019 9.24C586.651 8.52 586.139 7.952 585.483 7.536C584.827 7.12 584.083 6.912 583.251 6.912C582.403 6.912 581.651 7.12 580.995 7.536C580.355 7.952 579.843 8.52 579.459 9.24C579.091 9.96 578.907 10.784 578.907 11.712C578.907 12.624 579.091 13.448 579.459 14.184C579.827 14.904 580.339 15.472 580.995 15.888C581.651 16.304 582.403 16.512 583.251 16.512ZM594.558 18V2.184H596.358V18H594.558ZM591.726 7.2V5.472H599.526V7.2H591.726ZM606.176 18.24C605.216 18.24 604.4 18.048 603.728 17.664C603.072 17.264 602.568 16.688 602.216 15.936C601.88 15.184 601.712 14.248 601.712 13.128V5.472H603.536V12.768C603.536 13.616 603.648 14.328 603.872 14.904C604.112 15.464 604.464 15.888 604.928 16.176C605.408 16.464 605.992 16.608 606.68 16.608C607.208 16.608 607.696 16.52 608.144 16.344C608.592 16.152 608.984 15.896 609.32 15.576C609.656 15.256 609.92 14.88 610.112 14.448C610.304 14.016 610.4 13.56 610.4 13.08V5.472H612.2V18H610.424L610.352 15.36L610.64 15.216C610.448 15.776 610.128 16.288 609.68 16.752C609.232 17.2 608.696 17.56 608.072 17.832C607.464 18.104 606.832 18.24 606.176 18.24ZM615.705 18V5.472H617.505L617.553 8.808L617.361 8.352C617.537 7.792 617.817 7.272 618.201 6.792C618.601 6.312 619.073 5.928 619.617 5.64C620.161 5.352 620.761 5.208 621.417 5.208C621.689 5.208 621.945 5.232 622.185 5.28C622.425 5.312 622.625 5.36 622.785 5.424L622.281 7.44C622.073 7.344 621.857 7.28 621.633 7.248C621.425 7.2 621.225 7.176 621.033 7.176C620.489 7.176 620.001 7.272 619.569 7.464C619.137 7.656 618.769 7.928 618.465 8.28C618.161 8.616 617.929 9.008 617.769 9.456C617.609 9.904 617.529 10.384 617.529 10.896V18H615.705ZM629.639 18.24C628.391 18.24 627.279 17.968 626.303 17.424C625.343 16.88 624.591 16.12 624.047 15.144C623.503 14.168 623.231 13.048 623.231 11.784C623.231 10.808 623.383 9.928 623.687 9.144C623.991 8.344 624.415 7.648 624.959 7.056C625.519 6.464 626.183 6.008 626.951 5.688C627.719 5.352 628.551 5.184 629.447 5.184C630.295 5.184 631.063 5.336 631.751 5.64C632.455 5.944 633.055 6.368 633.551 6.912C634.063 7.44 634.447 8.072 634.703 8.808C634.959 9.544 635.071 10.352 635.039 11.232L635.015 12.072H624.575L624.311 10.56H633.647L633.215 10.968V10.392C633.183 9.816 633.015 9.264 632.711 8.736C632.407 8.192 631.975 7.752 631.415 7.416C630.871 7.08 630.215 6.912 629.447 6.912C628.551 6.912 627.775 7.096 627.119 7.464C626.463 7.816 625.959 8.344 625.607 9.048C625.255 9.752 625.079 10.624 625.079 11.664C625.079 12.656 625.271 13.52 625.655 14.256C626.039 14.976 626.583 15.536 627.287 15.936C628.007 16.336 628.871 16.536 629.879 16.536C630.471 16.536 631.055 16.44 631.631 16.248C632.223 16.04 632.871 15.64 633.575 15.048L634.511 16.344C634.143 16.712 633.703 17.04 633.191 17.328C632.679 17.6 632.119 17.824 631.511 18C630.903 18.16 630.279 18.24 629.639 18.24ZM641.7 18.24C640.628 18.24 639.668 18.04 638.82 17.64C637.972 17.24 637.3 16.712 636.804 16.056L638.076 14.952C638.54 15.512 639.084 15.936 639.708 16.224C640.348 16.512 641.06 16.656 641.844 16.656C642.244 16.656 642.604 16.616 642.924 16.536C643.244 16.44 643.524 16.304 643.764 16.128C644.004 15.952 644.188 15.744 644.316 15.504C644.444 15.264 644.508 15 644.508 14.712C644.508 14.184 644.276 13.744 643.812 13.392C643.604 13.248 643.308 13.104 642.924 12.96C642.54 12.8 642.076 12.648 641.532 12.504C640.636 12.248 639.892 11.992 639.3 11.736C638.708 11.464 638.244 11.152 637.908 10.8C637.668 10.512 637.484 10.2 637.356 9.864C637.244 9.528 637.188 9.16 637.188 8.76C637.188 8.248 637.292 7.776 637.5 7.344C637.724 6.912 638.028 6.536 638.412 6.216C638.812 5.88 639.276 5.632 639.804 5.472C640.348 5.296 640.932 5.208 641.556 5.208C642.148 5.208 642.732 5.288 643.308 5.448C643.884 5.608 644.42 5.84 644.916 6.144C645.412 6.448 645.836 6.808 646.188 7.224L645.084 8.424C644.78 8.104 644.444 7.816 644.076 7.56C643.708 7.304 643.316 7.104 642.9 6.96C642.5 6.816 642.084 6.744 641.652 6.744C641.268 6.744 640.908 6.792 640.572 6.888C640.252 6.984 639.972 7.12 639.732 7.296C639.508 7.456 639.332 7.656 639.204 7.896C639.092 8.136 639.036 8.4 639.036 8.688C639.036 8.928 639.084 9.144 639.18 9.336C639.276 9.528 639.412 9.696 639.588 9.84C639.812 10.016 640.124 10.184 640.524 10.344C640.94 10.488 641.452 10.64 642.06 10.8C642.764 10.992 643.356 11.192 643.836 11.4C644.332 11.592 644.74 11.824 645.06 12.096C645.492 12.416 645.796 12.784 645.972 13.2C646.164 13.616 646.26 14.088 646.26 14.616C646.26 15.32 646.06 15.944 645.66 16.488C645.276 17.032 644.74 17.464 644.052 17.784C643.364 18.088 642.58 18.24 641.7 18.24ZM7.112 48.24C6.52 48.24 5.944 48.152 5.384 47.976C4.824 47.784 4.312 47.528 3.848 47.208C3.4 46.888 3.016 46.52 2.696 46.104C2.392 45.688 2.184 45.256 2.072 44.808L2.6 44.832L2.528 47.976H0.752V30.24H2.552V38.472L2.192 38.568C2.304 38.12 2.504 37.696 2.792 37.296C3.096 36.88 3.472 36.52 3.92 36.216C4.368 35.896 4.856 35.648 5.384 35.472C5.928 35.296 6.488 35.208 7.064 35.208C8.184 35.208 9.184 35.488 10.064 36.048C10.96 36.608 11.672 37.376 12.2 38.352C12.728 39.328 12.992 40.448 12.992 41.712C12.992 42.976 12.736 44.104 12.224 45.096C11.712 46.072 11.008 46.84 10.112 47.4C9.232 47.96 8.232 48.24 7.112 48.24ZM6.824 46.536C7.672 46.536 8.424 46.328 9.08 45.912C9.736 45.48 10.248 44.904 10.616 44.184C11 43.448 11.192 42.624 11.192 41.712C11.192 40.784 11 39.96 10.616 39.24C10.248 38.52 9.736 37.952 9.08 37.536C8.424 37.12 7.672 36.912 6.824 36.912C5.976 36.912 5.224 37.12 4.568 37.536C3.912 37.952 3.392 38.52 3.008 39.24C2.64 39.96 2.456 40.784 2.456 41.712C2.456 42.64 2.64 43.472 3.008 44.208C3.392 44.928 3.912 45.496 4.568 45.912C5.224 46.328 5.976 46.536 6.824 46.536ZM20.0514 48.24C19.0914 48.24 18.2754 48.048 17.6034 47.664C16.9474 47.264 16.4434 46.688 16.0914 45.936C15.7554 45.184 15.5874 44.248 15.5874 43.128V35.472H17.4114V42.768C17.4114 43.616 17.5234 44.328 17.7474 44.904C17.9874 45.464 18.3394 45.888 18.8034 46.176C19.2834 46.464 19.8674 46.608 20.5554 46.608C21.0834 46.608 21.5714 46.52 22.0194 46.344C22.4674 46.152 22.8594 45.896 23.1954 45.576C23.5314 45.256 23.7954 44.88 23.9874 44.448C24.1794 44.016 24.2754 43.56 24.2754 43.08V35.472H26.0754V48H24.2994L24.2274 45.36L24.5154 45.216C24.3234 45.776 24.0034 46.288 23.5554 46.752C23.1074 47.2 22.5714 47.56 21.9474 47.832C21.3394 48.104 20.7074 48.24 20.0514 48.24ZM31.3081 48V32.184H33.1081V48H31.3081ZM28.4761 37.2V35.472H36.2761V37.2H28.4761ZM45.6929 48V35.472H47.4929V48H45.6929ZM46.5809 32.76C46.1329 32.76 45.7889 32.648 45.5489 32.424C45.3249 32.184 45.2129 31.864 45.2129 31.464C45.2129 31.064 45.3329 30.744 45.5729 30.504C45.8129 30.264 46.1489 30.144 46.5809 30.144C47.0129 30.144 47.3489 30.264 47.5889 30.504C47.8289 30.728 47.9489 31.048 47.9489 31.464C47.9489 31.848 47.8289 32.16 47.5889 32.4C47.3489 32.64 47.0129 32.76 46.5809 32.76ZM55.5279 48.24C54.4559 48.24 53.4959 48.04 52.6479 47.64C51.7999 47.24 51.1279 46.712 50.6319 46.056L51.9039 44.952C52.3679 45.512 52.9119 45.936 53.5359 46.224C54.1759 46.512 54.8879 46.656 55.6719 46.656C56.0719 46.656 56.4319 46.616 56.7519 46.536C57.0719 46.44 57.3519 46.304 57.5919 46.128C57.8319 45.952 58.0159 45.744 58.1439 45.504C58.2719 45.264 58.3359 45 58.3359 44.712C58.3359 44.184 58.1039 43.744 57.6399 43.392C57.4319 43.248 57.1359 43.104 56.7519 42.96C56.3679 42.8 55.9039 42.648 55.3599 42.504C54.4639 42.248 53.7199 41.992 53.1279 41.736C52.5359 41.464 52.0719 41.152 51.7359 40.8C51.4959 40.512 51.3119 40.2 51.1839 39.864C51.0719 39.528 51.0159 39.16 51.0159 38.76C51.0159 38.248 51.1199 37.776 51.3279 37.344C51.5519 36.912 51.8559 36.536 52.2399 36.216C52.6399 35.88 53.1039 35.632 53.6319 35.472C54.1759 35.296 54.7599 35.208 55.3839 35.208C55.9759 35.208 56.5599 35.288 57.1359 35.448C57.7119 35.608 58.2479 35.84 58.7439 36.144C59.2399 36.448 59.6639 36.808 60.0159 37.224L58.9119 38.424C58.6079 38.104 58.2719 37.816 57.9039 37.56C57.5359 37.304 57.1439 37.104 56.7279 36.96C56.3279 36.816 55.9119 36.744 55.4799 36.744C55.0959 36.744 54.7359 36.792 54.3999 36.888C54.0799 36.984 53.7999 37.12 53.5599 37.296C53.3359 37.456 53.1599 37.656 53.0319 37.896C52.9199 38.136 52.8639 38.4 52.8639 38.688C52.8639 38.928 52.9119 39.144 53.0079 39.336C53.1039 39.528 53.2399 39.696 53.4159 39.84C53.6399 40.016 53.9519 40.184 54.3519 40.344C54.7679 40.488 55.2799 40.64 55.8879 40.8C56.5919 40.992 57.1839 41.192 57.6639 41.4C58.1599 41.592 58.5679 41.824 58.8879 42.096C59.3199 42.416 59.6239 42.784 59.7999 43.2C59.9919 43.616 60.0879 44.088 60.0879 44.616C60.0879 45.32 59.8879 45.944 59.4879 46.488C59.1039 47.032 58.5679 47.464 57.8799 47.784C57.1919 48.088 56.4079 48.24 55.5279 48.24ZM69.6348 48V35.472H71.4108L71.4828 38.088L71.1948 38.208C71.3548 37.664 71.6668 37.168 72.1308 36.72C72.5948 36.272 73.1468 35.912 73.7868 35.64C74.4428 35.352 75.1148 35.208 75.8028 35.208C76.7308 35.208 77.5068 35.392 78.1308 35.76C78.7548 36.128 79.2268 36.696 79.5468 37.464C79.8668 38.232 80.0268 39.208 80.0268 40.392V48H78.2028V40.488C78.2028 39.656 78.0908 38.976 77.8668 38.448C77.6588 37.904 77.3308 37.504 76.8828 37.248C76.4348 36.992 75.8828 36.872 75.2268 36.888C74.6828 36.888 74.1788 36.984 73.7148 37.176C73.2508 37.352 72.8508 37.6 72.5148 37.92C72.1788 38.24 71.9148 38.608 71.7228 39.024C71.5308 39.44 71.4348 39.888 71.4348 40.368V48H70.5468C70.4348 48 70.3068 48 70.1628 48C70.0188 48 69.8428 48 69.6348 48ZM89.0069 48.24C87.7589 48.24 86.6469 47.96 85.6709 47.4C84.7109 46.84 83.9509 46.064 83.3909 45.072C82.8469 44.08 82.5749 42.952 82.5749 41.688C82.5749 40.44 82.8469 39.328 83.3909 38.352C83.9509 37.376 84.7109 36.608 85.6709 36.048C86.6469 35.488 87.7589 35.208 89.0069 35.208C90.2389 35.208 91.3349 35.488 92.2949 36.048C93.2709 36.608 94.0309 37.376 94.5749 38.352C95.1349 39.328 95.4149 40.44 95.4149 41.688C95.4149 42.952 95.1349 44.08 94.5749 45.072C94.0309 46.064 93.2709 46.84 92.2949 47.4C91.3349 47.96 90.2389 48.24 89.0069 48.24ZM89.0069 46.536C89.8869 46.536 90.6709 46.328 91.3589 45.912C92.0469 45.48 92.5829 44.904 92.9669 44.184C93.3509 43.448 93.5429 42.616 93.5429 41.688C93.5429 40.76 93.3509 39.936 92.9669 39.216C92.5829 38.496 92.0469 37.936 91.3589 37.536C90.6709 37.12 89.8869 36.912 89.0069 36.912C88.1269 36.912 87.3349 37.12 86.6309 37.536C85.9429 37.936 85.3989 38.504 84.9989 39.24C84.6149 39.96 84.4309 40.776 84.4469 41.688C84.4309 42.616 84.6149 43.448 84.9989 44.184C85.3989 44.904 85.9429 45.48 86.6309 45.912C87.3349 46.328 88.1269 46.536 89.0069 46.536ZM99.7691 48V32.184H101.569V48H99.7691ZM96.9371 37.2V35.472H104.737V37.2H96.9371ZM115.786 53.52L118.21 47.616L118.378 49.32L112.09 35.472H114.13L118.426 45.072C118.554 45.328 118.682 45.632 118.81 45.984C118.938 46.32 119.058 46.656 119.17 46.992L118.498 46.92C118.61 46.648 118.714 46.368 118.81 46.08C118.922 45.792 119.026 45.512 119.122 45.24L122.89 35.472H124.954L119.89 48L117.73 53.52H115.786ZM132.131 48.24C130.883 48.24 129.771 47.968 128.795 47.424C127.835 46.88 127.083 46.12 126.539 45.144C125.995 44.168 125.723 43.048 125.723 41.784C125.723 40.808 125.875 39.928 126.179 39.144C126.483 38.344 126.907 37.648 127.451 37.056C128.011 36.464 128.675 36.008 129.443 35.688C130.211 35.352 131.043 35.184 131.939 35.184C132.787 35.184 133.555 35.336 134.243 35.64C134.947 35.944 135.547 36.368 136.043 36.912C136.555 37.44 136.939 38.072 137.195 38.808C137.451 39.544 137.563 40.352 137.531 41.232L137.507 42.072H127.067L126.803 40.56H136.139L135.707 40.968V40.392C135.675 39.816 135.507 39.264 135.203 38.736C134.899 38.192 134.467 37.752 133.907 37.416C133.363 37.08 132.707 36.912 131.939 36.912C131.043 36.912 130.267 37.096 129.611 37.464C128.955 37.816 128.451 38.344 128.099 39.048C127.747 39.752 127.571 40.624 127.571 41.664C127.571 42.656 127.763 43.52 128.147 44.256C128.531 44.976 129.075 45.536 129.779 45.936C130.499 46.336 131.363 46.536 132.371 46.536C132.963 46.536 133.547 46.44 134.123 46.248C134.715 46.04 135.363 45.64 136.067 45.048L137.003 46.344C136.635 46.712 136.195 47.04 135.683 47.328C135.171 47.6 134.611 47.824 134.003 48C133.395 48.16 132.771 48.24 132.131 48.24ZM141.816 48V32.184H143.616V48H141.816ZM138.984 37.2V35.472H146.784V37.2H138.984ZM161.265 48.24C160.017 48.24 158.905 47.96 157.929 47.4C156.969 46.84 156.209 46.064 155.649 45.072C155.105 44.08 154.833 42.952 154.833 41.688C154.833 40.44 155.105 39.328 155.649 38.352C156.209 37.376 156.969 36.608 157.929 36.048C158.905 35.488 160.017 35.208 161.265 35.208C162.497 35.208 163.593 35.488 164.553 36.048C165.529 36.608 166.289 37.376 166.833 38.352C167.393 39.328 167.673 40.44 167.673 41.688C167.673 42.952 167.393 44.08 166.833 45.072C166.289 46.064 165.529 46.84 164.553 47.4C163.593 47.96 162.497 48.24 161.265 48.24ZM161.265 46.536C162.145 46.536 162.929 46.328 163.617 45.912C164.305 45.48 164.841 44.904 165.225 44.184C165.609 43.448 165.801 42.616 165.801 41.688C165.801 40.76 165.609 39.936 165.225 39.216C164.841 38.496 164.305 37.936 163.617 37.536C162.929 37.12 162.145 36.912 161.265 36.912C160.385 36.912 159.593 37.12 158.889 37.536C158.201 37.936 157.657 38.504 157.257 39.24C156.873 39.96 156.689 40.776 156.705 41.688C156.689 42.616 156.873 43.448 157.257 44.184C157.657 44.904 158.201 45.48 158.889 45.912C159.593 46.328 160.385 46.536 161.265 46.536ZM170.299 53.28V35.472H172.099L172.147 38.52L171.811 38.568C171.955 37.96 172.267 37.408 172.747 36.912C173.227 36.4 173.811 35.992 174.499 35.688C175.187 35.384 175.915 35.232 176.683 35.232C177.803 35.232 178.803 35.512 179.683 36.072C180.579 36.632 181.291 37.4 181.819 38.376C182.347 39.352 182.611 40.472 182.611 41.736C182.611 42.984 182.355 44.096 181.843 45.072C181.331 46.048 180.627 46.824 179.731 47.4C178.835 47.96 177.827 48.24 176.707 48.24C175.923 48.24 175.179 48.08 174.475 47.76C173.771 47.44 173.171 47.024 172.675 46.512C172.179 45.984 171.851 45.416 171.691 44.808H172.123V53.28H170.299ZM176.419 46.512C177.267 46.512 178.019 46.304 178.675 45.888C179.331 45.472 179.851 44.904 180.235 44.184C180.619 43.464 180.811 42.648 180.811 41.736C180.811 40.808 180.619 39.984 180.235 39.264C179.851 38.544 179.331 37.976 178.675 37.56C178.019 37.144 177.267 36.936 176.419 36.936C175.571 36.936 174.811 37.144 174.139 37.56C173.483 37.96 172.963 38.52 172.579 39.24C172.195 39.96 172.003 40.784 172.003 41.712C172.003 42.64 172.195 43.464 172.579 44.184C172.963 44.904 173.483 45.472 174.139 45.888C174.811 46.304 175.571 46.512 176.419 46.512ZM186.957 48V32.184H188.757V48H186.957ZM184.125 37.2V35.472H191.925V37.2H184.125ZM194.615 48V35.472H196.415V48H194.615ZM195.503 32.76C195.055 32.76 194.711 32.648 194.471 32.424C194.247 32.184 194.135 31.864 194.135 31.464C194.135 31.064 194.255 30.744 194.495 30.504C194.735 30.264 195.071 30.144 195.503 30.144C195.935 30.144 196.271 30.264 196.511 30.504C196.751 30.728 196.871 31.048 196.871 31.464C196.871 31.848 196.751 32.16 196.511 32.4C196.271 32.64 195.935 32.76 195.503 32.76ZM200.322 48V35.472H202.122L202.17 38.328L201.81 38.448C201.938 37.968 202.146 37.536 202.434 37.152C202.738 36.752 203.098 36.408 203.514 36.12C203.93 35.832 204.386 35.616 204.882 35.472C205.378 35.312 205.898 35.232 206.442 35.232C207.098 35.232 207.682 35.344 208.194 35.568C208.722 35.776 209.162 36.144 209.514 36.672C209.882 37.184 210.162 37.864 210.354 38.712L209.922 38.496L210.09 38.088C210.25 37.72 210.482 37.368 210.786 37.032C211.106 36.68 211.466 36.368 211.866 36.096C212.282 35.824 212.73 35.616 213.21 35.472C213.706 35.312 214.21 35.232 214.722 35.232C215.602 35.232 216.346 35.424 216.954 35.808C217.562 36.176 218.018 36.744 218.322 37.512C218.642 38.28 218.802 39.256 218.802 40.44V48H216.954V40.536C216.954 39.704 216.85 39.024 216.642 38.496C216.434 37.968 216.122 37.576 215.706 37.32C215.306 37.048 214.794 36.912 214.17 36.912C213.626 36.912 213.122 37.008 212.658 37.2C212.21 37.376 211.818 37.632 211.482 37.968C211.162 38.288 210.906 38.656 210.714 39.072C210.538 39.488 210.45 39.936 210.45 40.416V48H208.626V40.512C208.626 39.712 208.514 39.048 208.29 38.52C208.082 37.992 207.77 37.592 207.354 37.32C206.938 37.048 206.426 36.912 205.818 36.912C205.29 36.912 204.802 37.008 204.354 37.2C203.906 37.376 203.514 37.624 203.178 37.944C202.858 38.264 202.602 38.632 202.41 39.048C202.234 39.464 202.146 39.912 202.146 40.392V48H200.322ZM222.693 48V35.472H224.493V48H222.693ZM223.581 32.76C223.133 32.76 222.789 32.648 222.549 32.424C222.325 32.184 222.213 31.864 222.213 31.464C222.213 31.064 222.333 30.744 222.573 30.504C222.813 30.264 223.149 30.144 223.581 30.144C224.013 30.144 224.349 30.264 224.589 30.504C224.829 30.728 224.949 31.048 224.949 31.464C224.949 31.848 224.829 32.16 224.589 32.4C224.349 32.64 224.013 32.76 223.581 32.76ZM227.728 48V46.44L234.64 36.696L234.856 37.08H227.728V35.472H236.536V37.008L229.648 46.728L229.408 46.368H236.8V48H227.728ZM244.842 48.24C243.594 48.24 242.482 47.968 241.506 47.424C240.546 46.88 239.794 46.12 239.25 45.144C238.706 44.168 238.434 43.048 238.434 41.784C238.434 40.808 238.586 39.928 238.89 39.144C239.194 38.344 239.618 37.648 240.162 37.056C240.722 36.464 241.386 36.008 242.154 35.688C242.922 35.352 243.754 35.184 244.65 35.184C245.498 35.184 246.266 35.336 246.954 35.64C247.658 35.944 248.258 36.368 248.754 36.912C249.266 37.44 249.65 38.072 249.906 38.808C250.162 39.544 250.274 40.352 250.242 41.232L250.218 42.072H239.778L239.514 40.56H248.85L248.418 40.968V40.392C248.386 39.816 248.218 39.264 247.914 38.736C247.61 38.192 247.178 37.752 246.618 37.416C246.074 37.08 245.418 36.912 244.65 36.912C243.754 36.912 242.978 37.096 242.322 37.464C241.666 37.816 241.162 38.344 240.81 39.048C240.458 39.752 240.282 40.624 240.282 41.664C240.282 42.656 240.474 43.52 240.858 44.256C241.242 44.976 241.786 45.536 242.49 45.936C243.21 46.336 244.074 46.536 245.082 46.536C245.674 46.536 246.258 46.44 246.834 46.248C247.426 46.04 248.074 45.64 248.778 45.048L249.714 46.344C249.346 46.712 248.906 47.04 248.394 47.328C247.882 47.6 247.322 47.824 246.714 48C246.106 48.16 245.482 48.24 244.842 48.24ZM257.887 48.24C256.751 48.24 255.727 47.96 254.815 47.4C253.919 46.84 253.207 46.072 252.679 45.096C252.167 44.104 251.911 42.984 251.911 41.736C251.911 40.472 252.175 39.352 252.703 38.376C253.231 37.384 253.943 36.608 254.839 36.048C255.735 35.488 256.743 35.208 257.863 35.208C258.487 35.208 259.087 35.304 259.663 35.496C260.255 35.688 260.783 35.96 261.247 36.312C261.711 36.648 262.095 37.04 262.399 37.488C262.703 37.92 262.887 38.376 262.951 38.856L262.399 38.664V30.24H264.199V48H262.423L262.375 44.88L262.831 44.712C262.767 45.16 262.583 45.6 262.279 46.032C261.991 46.448 261.623 46.824 261.175 47.16C260.727 47.496 260.215 47.76 259.639 47.952C259.079 48.144 258.495 48.24 257.887 48.24ZM258.151 46.584C258.983 46.584 259.727 46.376 260.383 45.96C261.039 45.544 261.551 44.968 261.919 44.232C262.303 43.496 262.495 42.656 262.495 41.712C262.495 40.768 262.303 39.936 261.919 39.216C261.551 38.48 261.039 37.904 260.383 37.488C259.727 37.056 258.983 36.84 258.151 36.84C257.287 36.84 256.527 37.056 255.871 37.488C255.231 37.904 254.719 38.48 254.335 39.216C253.967 39.936 253.783 40.768 253.783 41.712C253.783 42.64 253.967 43.472 254.335 44.208C254.703 44.944 255.215 45.528 255.871 45.96C256.527 46.376 257.287 46.584 258.151 46.584ZM275.872 48V33.528C275.872 32.904 276.008 32.352 276.28 31.872C276.552 31.392 276.936 31.016 277.432 30.744C277.944 30.456 278.536 30.312 279.208 30.312C279.72 30.312 280.176 30.408 280.576 30.6C280.992 30.776 281.336 31.024 281.608 31.344L280.984 32.76C280.728 32.488 280.448 32.296 280.144 32.184C279.856 32.056 279.576 31.992 279.304 31.992C278.952 31.992 278.656 32.056 278.416 32.184C278.176 32.296 277.992 32.472 277.864 32.712C277.752 32.936 277.696 33.208 277.696 33.528V48H276.856C276.68 48 276.512 48 276.352 48C276.192 48 276.032 48 275.872 48ZM273.64 37.248V35.568H280.888V37.248H273.64ZM288.577 48.24C287.329 48.24 286.217 47.96 285.241 47.4C284.281 46.84 283.521 46.064 282.961 45.072C282.417 44.08 282.145 42.952 282.145 41.688C282.145 40.44 282.417 39.328 282.961 38.352C283.521 37.376 284.281 36.608 285.241 36.048C286.217 35.488 287.329 35.208 288.577 35.208C289.809 35.208 290.905 35.488 291.865 36.048C292.841 36.608 293.601 37.376 294.145 38.352C294.705 39.328 294.985 40.44 294.985 41.688C294.985 42.952 294.705 44.08 294.145 45.072C293.601 46.064 292.841 46.84 291.865 47.4C290.905 47.96 289.809 48.24 288.577 48.24ZM288.577 46.536C289.457 46.536 290.241 46.328 290.929 45.912C291.617 45.48 292.153 44.904 292.537 44.184C292.921 43.448 293.113 42.616 293.113 41.688C293.113 40.76 292.921 39.936 292.537 39.216C292.153 38.496 291.617 37.936 290.929 37.536C290.241 37.12 289.457 36.912 288.577 36.912C287.697 36.912 286.905 37.12 286.201 37.536C285.513 37.936 284.969 38.504 284.569 39.24C284.185 39.96 284.001 40.776 284.017 41.688C284.001 42.616 284.185 43.448 284.569 44.184C284.969 44.904 285.513 45.48 286.201 45.912C286.905 46.328 287.697 46.536 288.577 46.536ZM297.611 48V35.472H299.411L299.459 38.808L299.267 38.352C299.443 37.792 299.723 37.272 300.107 36.792C300.507 36.312 300.979 35.928 301.523 35.64C302.067 35.352 302.667 35.208 303.323 35.208C303.595 35.208 303.851 35.232 304.091 35.28C304.331 35.312 304.531 35.36 304.691 35.424L304.187 37.44C303.979 37.344 303.763 37.28 303.539 37.248C303.331 37.2 303.131 37.176 302.939 37.176C302.395 37.176 301.907 37.272 301.475 37.464C301.043 37.656 300.675 37.928 300.371 38.28C300.067 38.616 299.835 39.008 299.675 39.456C299.515 39.904 299.435 40.384 299.435 40.896V48H297.611ZM313.291 48V30.24H315.091V38.208L314.731 38.568C314.907 37.912 315.235 37.336 315.715 36.84C316.195 36.328 316.755 35.928 317.395 35.64C318.051 35.352 318.715 35.208 319.387 35.208C320.347 35.208 321.147 35.392 321.787 35.76C322.427 36.128 322.899 36.696 323.203 37.464C323.523 38.232 323.683 39.208 323.683 40.392V48H321.859V40.488C321.859 39.656 321.747 38.976 321.523 38.448C321.315 37.904 320.987 37.504 320.539 37.248C320.091 36.992 319.531 36.872 318.859 36.888C318.331 36.888 317.835 36.984 317.371 37.176C316.907 37.352 316.507 37.6 316.171 37.92C315.835 38.24 315.571 38.608 315.379 39.024C315.187 39.44 315.091 39.888 315.091 40.368V48H314.203C314.091 48 313.963 48 313.819 48C313.675 48 313.499 48 313.291 48ZM327.599 48V35.472H329.399V48H327.599ZM328.487 32.76C328.039 32.76 327.695 32.648 327.455 32.424C327.231 32.184 327.119 31.864 327.119 31.464C327.119 31.064 327.239 30.744 327.479 30.504C327.719 30.264 328.055 30.144 328.487 30.144C328.919 30.144 329.255 30.264 329.495 30.504C329.735 30.728 329.855 31.048 329.855 31.464C329.855 31.848 329.735 32.16 329.495 32.4C329.255 32.64 328.919 32.76 328.487 32.76ZM338.73 53.52C337.802 53.52 336.922 53.376 336.09 53.088C335.258 52.8 334.57 52.44 334.026 52.008L334.746 50.496C335.066 50.752 335.434 50.976 335.85 51.168C336.282 51.376 336.746 51.536 337.242 51.648C337.738 51.776 338.242 51.84 338.754 51.84C339.682 51.84 340.466 51.664 341.106 51.312C341.762 50.976 342.258 50.472 342.594 49.8C342.946 49.128 343.122 48.296 343.122 47.304V44.904L343.41 44.832C343.266 45.44 342.954 46.008 342.474 46.536C341.994 47.048 341.41 47.464 340.722 47.784C340.034 48.088 339.306 48.24 338.538 48.24C337.37 48.24 336.322 47.96 335.394 47.4C334.482 46.84 333.762 46.072 333.234 45.096C332.706 44.104 332.442 42.984 332.442 41.736C332.442 40.472 332.706 39.352 333.234 38.376C333.778 37.384 334.506 36.608 335.418 36.048C336.33 35.488 337.354 35.208 338.49 35.208C338.986 35.208 339.466 35.272 339.93 35.4C340.394 35.512 340.818 35.68 341.202 35.904C341.602 36.128 341.962 36.384 342.282 36.672C342.602 36.96 342.866 37.272 343.074 37.608C343.298 37.944 343.458 38.288 343.554 38.64L343.05 38.568L343.122 35.472H344.922V47.232C344.922 48.24 344.778 49.128 344.49 49.896C344.202 50.68 343.778 51.336 343.218 51.864C342.674 52.408 342.018 52.816 341.25 53.088C340.498 53.376 339.658 53.52 338.73 53.52ZM338.754 46.512C339.602 46.512 340.354 46.312 341.01 45.912C341.682 45.496 342.21 44.928 342.594 44.208C342.978 43.488 343.17 42.656 343.17 41.712C343.17 40.784 342.978 39.96 342.594 39.24C342.226 38.52 341.706 37.952 341.034 37.536C340.362 37.12 339.602 36.912 338.754 36.912C337.89 36.912 337.122 37.12 336.45 37.536C335.794 37.952 335.274 38.52 334.89 39.24C334.506 39.96 334.314 40.784 334.314 41.712C334.314 42.624 334.498 43.448 334.866 44.184C335.25 44.904 335.77 45.472 336.426 45.888C337.098 46.304 337.874 46.512 338.754 46.512ZM348.424 48V30.24H350.224V38.208L349.864 38.568C350.04 37.912 350.368 37.336 350.848 36.84C351.328 36.328 351.888 35.928 352.528 35.64C353.184 35.352 353.848 35.208 354.52 35.208C355.48 35.208 356.28 35.392 356.92 35.76C357.56 36.128 358.032 36.696 358.336 37.464C358.656 38.232 358.816 39.208 358.816 40.392V48H356.992V40.488C356.992 39.656 356.88 38.976 356.656 38.448C356.448 37.904 356.12 37.504 355.672 37.248C355.224 36.992 354.664 36.872 353.992 36.888C353.464 36.888 352.968 36.984 352.504 37.176C352.04 37.352 351.64 37.6 351.304 37.92C350.968 38.24 350.704 38.608 350.512 39.024C350.32 39.44 350.224 39.888 350.224 40.368V48H349.336C349.224 48 349.096 48 348.952 48C348.808 48 348.632 48 348.424 48ZM370.419 48V33.528C370.419 32.904 370.555 32.352 370.827 31.872C371.099 31.392 371.483 31.016 371.979 30.744C372.491 30.456 373.083 30.312 373.755 30.312C374.267 30.312 374.723 30.408 375.123 30.6C375.539 30.776 375.883 31.024 376.155 31.344L375.531 32.76C375.275 32.488 374.995 32.296 374.691 32.184C374.403 32.056 374.123 31.992 373.851 31.992C373.499 31.992 373.203 32.056 372.963 32.184C372.723 32.296 372.539 32.472 372.411 32.712C372.299 32.936 372.243 33.208 372.243 33.528V48H371.403C371.227 48 371.059 48 370.899 48C370.739 48 370.579 48 370.419 48ZM368.187 37.248V35.568H375.435V37.248H368.187ZM378.531 48V35.472H380.331V48H378.531ZM379.419 32.76C378.971 32.76 378.627 32.648 378.387 32.424C378.163 32.184 378.051 31.864 378.051 31.464C378.051 31.064 378.171 30.744 378.411 30.504C378.651 30.264 378.987 30.144 379.419 30.144C379.851 30.144 380.187 30.264 380.427 30.504C380.667 30.728 380.787 31.048 380.787 31.464C380.787 31.848 380.667 32.16 380.427 32.4C380.187 32.64 379.851 32.76 379.419 32.76ZM389.348 48.24C388.212 48.24 387.188 47.96 386.276 47.4C385.38 46.84 384.668 46.072 384.14 45.096C383.628 44.104 383.372 42.984 383.372 41.736C383.372 40.472 383.636 39.352 384.164 38.376C384.692 37.384 385.404 36.608 386.3 36.048C387.196 35.488 388.204 35.208 389.324 35.208C389.948 35.208 390.548 35.304 391.124 35.496C391.716 35.688 392.244 35.96 392.708 36.312C393.172 36.648 393.556 37.04 393.86 37.488C394.164 37.92 394.348 38.376 394.412 38.856L393.86 38.664V30.24H395.66V48H393.884L393.836 44.88L394.292 44.712C394.228 45.16 394.044 45.6 393.74 46.032C393.452 46.448 393.084 46.824 392.636 47.16C392.188 47.496 391.676 47.76 391.1 47.952C390.54 48.144 389.956 48.24 389.348 48.24ZM389.612 46.584C390.444 46.584 391.188 46.376 391.844 45.96C392.5 45.544 393.012 44.968 393.38 44.232C393.764 43.496 393.956 42.656 393.956 41.712C393.956 40.768 393.764 39.936 393.38 39.216C393.012 38.48 392.5 37.904 391.844 37.488C391.188 37.056 390.444 36.84 389.612 36.84C388.748 36.84 387.988 37.056 387.332 37.488C386.692 37.904 386.18 38.48 385.796 39.216C385.428 39.936 385.244 40.768 385.244 41.712C385.244 42.64 385.428 43.472 385.796 44.208C386.164 44.944 386.676 45.528 387.332 45.96C387.988 46.376 388.748 46.584 389.612 46.584ZM404.686 48.24C403.438 48.24 402.326 47.968 401.35 47.424C400.39 46.88 399.638 46.12 399.094 45.144C398.55 44.168 398.278 43.048 398.278 41.784C398.278 40.808 398.43 39.928 398.734 39.144C399.038 38.344 399.462 37.648 400.006 37.056C400.566 36.464 401.23 36.008 401.998 35.688C402.766 35.352 403.598 35.184 404.494 35.184C405.342 35.184 406.11 35.336 406.798 35.64C407.502 35.944 408.102 36.368 408.598 36.912C409.11 37.44 409.494 38.072 409.75 38.808C410.006 39.544 410.118 40.352 410.086 41.232L410.062 42.072H399.622L399.358 40.56H408.694L408.262 40.968V40.392C408.23 39.816 408.062 39.264 407.758 38.736C407.454 38.192 407.022 37.752 406.462 37.416C405.918 37.08 405.262 36.912 404.494 36.912C403.598 36.912 402.822 37.096 402.166 37.464C401.51 37.816 401.006 38.344 400.654 39.048C400.302 39.752 400.126 40.624 400.126 41.664C400.126 42.656 400.318 43.52 400.702 44.256C401.086 44.976 401.63 45.536 402.334 45.936C403.054 46.336 403.918 46.536 404.926 46.536C405.518 46.536 406.102 46.44 406.678 46.248C407.27 46.04 407.918 45.64 408.622 45.048L409.558 46.344C409.19 46.712 408.75 47.04 408.238 47.328C407.726 47.6 407.166 47.824 406.558 48C405.95 48.16 405.326 48.24 404.686 48.24ZM412.691 48V30.24H414.491V48H412.691ZM418.513 48V35.472H420.313V48H418.513ZM419.401 32.76C418.953 32.76 418.609 32.648 418.369 32.424C418.145 32.184 418.033 31.864 418.033 31.464C418.033 31.064 418.153 30.744 418.393 30.504C418.633 30.264 418.969 30.144 419.401 30.144C419.833 30.144 420.169 30.264 420.409 30.504C420.649 30.728 420.769 31.048 420.769 31.464C420.769 31.848 420.649 32.16 420.409 32.4C420.169 32.64 419.833 32.76 419.401 32.76ZM425.972 48V32.184H427.772V48H425.972ZM423.14 37.2V35.472H430.94V37.2H423.14ZM435.262 53.52L437.686 47.616L437.854 49.32L431.566 35.472H433.606L437.902 45.072C438.03 45.328 438.158 45.632 438.286 45.984C438.414 46.32 438.534 46.656 438.646 46.992L437.974 46.92C438.086 46.648 438.19 46.368 438.286 46.08C438.398 45.792 438.502 45.512 438.598 45.24L442.366 35.472H444.43L439.366 48L437.206 53.52H435.262ZM446.345 48.24C445.913 48.24 445.577 48.112 445.337 47.856C445.113 47.6 445.001 47.232 445.001 46.752C445.001 46.32 445.121 45.968 445.361 45.696C445.617 45.408 445.945 45.264 446.345 45.264C446.777 45.264 447.105 45.4 447.329 45.672C447.569 45.928 447.689 46.288 447.689 46.752C447.689 47.2 447.561 47.56 447.305 47.832C447.065 48.104 446.745 48.24 446.345 48.24Z" fill="#333333"/>
</svg>
