<svg width="348" height="363" viewBox="0 0 348 363" fill="none" xmlns="http://www.w3.org/2000/svg">
<path d="M7.368 274.24C6.52 274.24 5.72 274.12 4.968 273.88C4.216 273.64 3.528 273.28 2.904 272.8C2.28 272.32 1.728 271.728 1.248 271.024L2.544 269.584C3.296 270.656 4.064 271.408 4.848 271.84C5.648 272.272 6.544 272.488 7.536 272.488C8.256 272.488 8.912 272.368 9.504 272.128C10.096 271.888 10.56 271.552 10.896 271.12C11.232 270.688 11.4 270.192 11.4 269.632C11.4 269.264 11.336 268.936 11.208 268.648C11.096 268.36 10.92 268.104 10.68 267.88C10.44 267.656 10.144 267.456 9.792 267.28C9.44 267.104 9.032 266.944 8.568 266.8C8.12 266.656 7.616 266.512 7.056 266.368C6.24 266.176 5.52 265.952 4.896 265.696C4.288 265.424 3.768 265.096 3.336 264.712C2.92 264.328 2.6 263.888 2.376 263.392C2.168 262.88 2.064 262.28 2.064 261.592C2.064 260.936 2.2 260.328 2.472 259.768C2.76 259.208 3.152 258.728 3.648 258.328C4.144 257.912 4.728 257.592 5.4 257.368C6.072 257.144 6.792 257.032 7.56 257.032C8.424 257.032 9.192 257.152 9.864 257.392C10.552 257.616 11.16 257.952 11.688 258.4C12.216 258.848 12.672 259.384 13.056 260.008L11.736 261.304C11.4 260.776 11.016 260.32 10.584 259.936C10.168 259.552 9.704 259.264 9.192 259.072C8.696 258.864 8.144 258.76 7.536 258.76C6.832 258.76 6.208 258.88 5.664 259.12C5.136 259.36 4.72 259.696 4.416 260.128C4.112 260.544 3.96 261.024 3.96 261.568C3.96 261.968 4.032 262.328 4.176 262.648C4.32 262.952 4.544 263.224 4.848 263.464C5.168 263.688 5.576 263.896 6.072 264.088C6.584 264.264 7.192 264.432 7.896 264.592C8.728 264.784 9.472 265.016 10.128 265.288C10.8 265.56 11.368 265.888 11.832 266.272C12.312 266.64 12.672 267.072 12.912 267.568C13.168 268.064 13.296 268.632 13.296 269.272C13.296 270.264 13.048 271.136 12.552 271.888C12.056 272.624 11.36 273.2 10.464 273.616C9.584 274.032 8.552 274.24 7.368 274.24ZM16.8336 274V261.472H18.6336V274H16.8336ZM17.7216 258.76C17.2736 258.76 16.9296 258.648 16.6896 258.424C16.4656 258.184 16.3536 257.864 16.3536 257.464C16.3536 257.064 16.4736 256.744 16.7136 256.504C16.9536 256.264 17.2896 256.144 17.7216 256.144C18.1536 256.144 18.4896 256.264 18.7296 256.504C18.9696 256.728 19.0896 257.048 19.0896 257.464C19.0896 257.848 18.9696 258.16 18.7296 258.4C18.4896 258.64 18.1536 258.76 17.7216 258.76ZM22.5405 274V261.472H24.3405L24.3885 264.328L24.0285 264.448C24.1565 263.968 24.3645 263.536 24.6525 263.152C24.9565 262.752 25.3165 262.408 25.7325 262.12C26.1485 261.832 26.6045 261.616 27.1005 261.472C27.5965 261.312 28.1165 261.232 28.6605 261.232C29.3165 261.232 29.9005 261.344 30.4125 261.568C30.9405 261.776 31.3805 262.144 31.7325 262.672C32.1005 263.184 32.3805 263.864 32.5725 264.712L32.1405 264.496L32.3085 264.088C32.4685 263.72 32.7005 263.368 33.0045 263.032C33.3245 262.68 33.6845 262.368 34.0845 262.096C34.5005 261.824 34.9485 261.616 35.4285 261.472C35.9245 261.312 36.4285 261.232 36.9405 261.232C37.8205 261.232 38.5645 261.424 39.1725 261.808C39.7805 262.176 40.2365 262.744 40.5405 263.512C40.8605 264.28 41.0205 265.256 41.0205 266.44V274H39.1725V266.536C39.1725 265.704 39.0685 265.024 38.8605 264.496C38.6525 263.968 38.3405 263.576 37.9245 263.32C37.5245 263.048 37.0125 262.912 36.3885 262.912C35.8445 262.912 35.3405 263.008 34.8765 263.2C34.4285 263.376 34.0365 263.632 33.7005 263.968C33.3805 264.288 33.1245 264.656 32.9325 265.072C32.7565 265.488 32.6685 265.936 32.6685 266.416V274H30.8445V266.512C30.8445 265.712 30.7325 265.048 30.5085 264.52C30.3005 263.992 29.9885 263.592 29.5725 263.32C29.1565 263.048 28.6445 262.912 28.0365 262.912C27.5085 262.912 27.0205 263.008 26.5725 263.2C26.1245 263.376 25.7325 263.624 25.3965 263.944C25.0765 264.264 24.8205 264.632 24.6285 265.048C24.4525 265.464 24.3645 265.912 24.3645 266.392V274H22.5405ZM44.4317 279.28V261.472H46.2317L46.2797 264.52L45.9437 264.568C46.0877 263.96 46.3997 263.408 46.8797 262.912C47.3597 262.4 47.9437 261.992 48.6317 261.688C49.3197 261.384 50.0477 261.232 50.8157 261.232C51.9357 261.232 52.9357 261.512 53.8157 262.072C54.7117 262.632 55.4237 263.4 55.9517 264.376C56.4797 265.352 56.7437 266.472 56.7437 267.736C56.7437 268.984 56.4877 270.096 55.9757 271.072C55.4637 272.048 54.7597 272.824 53.8637 273.4C52.9677 273.96 51.9597 274.24 50.8397 274.24C50.0557 274.24 49.3117 274.08 48.6077 273.76C47.9037 273.44 47.3037 273.024 46.8077 272.512C46.3117 271.984 45.9837 271.416 45.8237 270.808H46.2557V279.28H44.4317ZM50.5517 272.512C51.3997 272.512 52.1517 272.304 52.8077 271.888C53.4637 271.472 53.9837 270.904 54.3677 270.184C54.7517 269.464 54.9437 268.648 54.9437 267.736C54.9437 266.808 54.7517 265.984 54.3677 265.264C53.9837 264.544 53.4637 263.976 52.8077 263.56C52.1517 263.144 51.3997 262.936 50.5517 262.936C49.7037 262.936 48.9437 263.144 48.2717 263.56C47.6157 263.96 47.0957 264.52 46.7117 265.24C46.3277 265.96 46.1357 266.784 46.1357 267.712C46.1357 268.64 46.3277 269.464 46.7117 270.184C47.0957 270.904 47.6157 271.472 48.2717 271.888C48.9437 272.304 49.7037 272.512 50.5517 272.512ZM59.4094 274V256.24H61.2094V274H59.4094ZM70.0376 274.24C68.7896 274.24 67.6776 273.968 66.7016 273.424C65.7416 272.88 64.9896 272.12 64.4456 271.144C63.9016 270.168 63.6296 269.048 63.6296 267.784C63.6296 266.808 63.7816 265.928 64.0856 265.144C64.3896 264.344 64.8136 263.648 65.3576 263.056C65.9176 262.464 66.5816 262.008 67.3496 261.688C68.1176 261.352 68.9496 261.184 69.8456 261.184C70.6936 261.184 71.4616 261.336 72.1496 261.64C72.8536 261.944 73.4536 262.368 73.9496 262.912C74.4616 263.44 74.8456 264.072 75.1016 264.808C75.3576 265.544 75.4696 266.352 75.4376 267.232L75.4136 268.072H64.9736L64.7096 266.56H74.0456L73.6136 266.968V266.392C73.5816 265.816 73.4136 265.264 73.1096 264.736C72.8056 264.192 72.3736 263.752 71.8136 263.416C71.2696 263.08 70.6136 262.912 69.8456 262.912C68.9496 262.912 68.1736 263.096 67.5176 263.464C66.8616 263.816 66.3576 264.344 66.0056 265.048C65.6536 265.752 65.4776 266.624 65.4776 267.664C65.4776 268.656 65.6696 269.52 66.0536 270.256C66.4376 270.976 66.9816 271.536 67.6856 271.936C68.4056 272.336 69.2696 272.536 70.2776 272.536C70.8696 272.536 71.4536 272.44 72.0296 272.248C72.6216 272.04 73.2696 271.64 73.9736 271.048L74.9096 272.344C74.5416 272.712 74.1016 273.04 73.5896 273.328C73.0776 273.6 72.5176 273.824 71.9096 274C71.3016 274.16 70.6776 274.24 70.0376 274.24ZM86.4488 274V258.184H88.2488V274H86.4488ZM83.6168 263.2V261.472H91.4168V263.2H83.6168ZM99.0298 274.24C97.7818 274.24 96.6698 273.968 95.6938 273.424C94.7338 272.88 93.9818 272.12 93.4378 271.144C92.8938 270.168 92.6218 269.048 92.6218 267.784C92.6218 266.808 92.7738 265.928 93.0778 265.144C93.3818 264.344 93.8058 263.648 94.3498 263.056C94.9098 262.464 95.5738 262.008 96.3418 261.688C97.1098 261.352 97.9418 261.184 98.8378 261.184C99.6858 261.184 100.454 261.336 101.142 261.64C101.846 261.944 102.446 262.368 102.942 262.912C103.454 263.44 103.838 264.072 104.094 264.808C104.35 265.544 104.462 266.352 104.43 267.232L104.406 268.072H93.9658L93.7018 266.56H103.038L102.606 266.968V266.392C102.574 265.816 102.406 265.264 102.102 264.736C101.798 264.192 101.366 263.752 100.806 263.416C100.262 263.08 99.6058 262.912 98.8378 262.912C97.9418 262.912 97.1658 263.096 96.5098 263.464C95.8538 263.816 95.3498 264.344 94.9978 265.048C94.6458 265.752 94.4698 266.624 94.4698 267.664C94.4698 268.656 94.6618 269.52 95.0458 270.256C95.4298 270.976 95.9738 271.536 96.6778 271.936C97.3978 272.336 98.2618 272.536 99.2698 272.536C99.8618 272.536 100.446 272.44 101.022 272.248C101.614 272.04 102.262 271.64 102.966 271.048L103.902 272.344C103.534 272.712 103.094 273.04 102.582 273.328C102.07 273.6 101.51 273.824 100.902 274C100.294 274.16 99.6698 274.24 99.0298 274.24ZM115.436 274L111.092 268.408L110.876 268.144L105.668 261.472H107.948L112.22 266.968L112.46 267.28L117.692 274H115.436ZM105.572 274L110.684 267.4L111.764 268.696L107.732 274H105.572ZM112.58 267.856L111.548 266.584L115.196 261.472H117.38L112.58 267.856ZM121.558 274V258.184H123.358V274H121.558ZM118.726 263.2V261.472H126.526V263.2H118.726ZM137.191 274V258.184H138.991V274H137.191ZM134.359 263.2V261.472H142.159V263.2H134.359ZM149.796 274.24C148.548 274.24 147.436 273.96 146.46 273.4C145.5 272.84 144.74 272.064 144.18 271.072C143.636 270.08 143.364 268.952 143.364 267.688C143.364 266.44 143.636 265.328 144.18 264.352C144.74 263.376 145.5 262.608 146.46 262.048C147.436 261.488 148.548 261.208 149.796 261.208C151.028 261.208 152.124 261.488 153.084 262.048C154.06 262.608 154.82 263.376 155.364 264.352C155.924 265.328 156.204 266.44 156.204 267.688C156.204 268.952 155.924 270.08 155.364 271.072C154.82 272.064 154.06 272.84 153.084 273.4C152.124 273.96 151.028 274.24 149.796 274.24ZM149.796 272.536C150.676 272.536 151.46 272.328 152.148 271.912C152.836 271.48 153.372 270.904 153.756 270.184C154.14 269.448 154.332 268.616 154.332 267.688C154.332 266.76 154.14 265.936 153.756 265.216C153.372 264.496 152.836 263.936 152.148 263.536C151.46 263.12 150.676 262.912 149.796 262.912C148.916 262.912 148.124 263.12 147.42 263.536C146.732 263.936 146.188 264.504 145.788 265.24C145.404 265.96 145.22 266.776 145.236 267.688C145.22 268.616 145.404 269.448 145.788 270.184C146.188 270.904 146.732 271.48 147.42 271.912C148.124 272.328 148.916 272.536 149.796 272.536ZM166.037 274V261.472H167.837V274H166.037ZM166.925 258.76C166.477 258.76 166.133 258.648 165.893 258.424C165.669 258.184 165.557 257.864 165.557 257.464C165.557 257.064 165.677 256.744 165.917 256.504C166.157 256.264 166.493 256.144 166.925 256.144C167.357 256.144 167.693 256.264 167.933 256.504C168.173 256.728 168.293 257.048 168.293 257.464C168.293 257.848 168.173 258.16 167.933 258.4C167.693 258.64 167.357 258.76 166.925 258.76ZM171.744 274V261.472H173.544L173.592 264.328L173.232 264.448C173.36 263.968 173.568 263.536 173.856 263.152C174.16 262.752 174.52 262.408 174.936 262.12C175.352 261.832 175.808 261.616 176.304 261.472C176.8 261.312 177.32 261.232 177.864 261.232C178.52 261.232 179.104 261.344 179.616 261.568C180.144 261.776 180.584 262.144 180.936 262.672C181.304 263.184 181.584 263.864 181.776 264.712L181.344 264.496L181.512 264.088C181.672 263.72 181.904 263.368 182.208 263.032C182.528 262.68 182.888 262.368 183.288 262.096C183.704 261.824 184.152 261.616 184.632 261.472C185.128 261.312 185.632 261.232 186.144 261.232C187.024 261.232 187.768 261.424 188.376 261.808C188.984 262.176 189.44 262.744 189.744 263.512C190.064 264.28 190.224 265.256 190.224 266.44V274H188.376V266.536C188.376 265.704 188.272 265.024 188.064 264.496C187.856 263.968 187.544 263.576 187.128 263.32C186.728 263.048 186.216 262.912 185.592 262.912C185.048 262.912 184.544 263.008 184.08 263.2C183.632 263.376 183.24 263.632 182.904 263.968C182.584 264.288 182.328 264.656 182.136 265.072C181.96 265.488 181.872 265.936 181.872 266.416V274H180.048V266.512C180.048 265.712 179.936 265.048 179.712 264.52C179.504 263.992 179.192 263.592 178.776 263.32C178.36 263.048 177.848 262.912 177.24 262.912C176.712 262.912 176.224 263.008 175.776 263.2C175.328 263.376 174.936 263.624 174.6 263.944C174.28 264.264 174.024 264.632 173.832 265.048C173.656 265.464 173.568 265.912 173.568 266.392V274H171.744ZM193.635 279.28V261.472H195.435L195.483 264.52L195.147 264.568C195.291 263.96 195.603 263.408 196.083 262.912C196.563 262.4 197.147 261.992 197.835 261.688C198.523 261.384 199.251 261.232 200.019 261.232C201.139 261.232 202.139 261.512 203.019 262.072C203.915 262.632 204.627 263.4 205.155 264.376C205.683 265.352 205.947 266.472 205.947 267.736C205.947 268.984 205.691 270.096 205.179 271.072C204.667 272.048 203.963 272.824 203.067 273.4C202.171 273.96 201.163 274.24 200.043 274.24C199.259 274.24 198.515 274.08 197.811 273.76C197.107 273.44 196.507 273.024 196.011 272.512C195.515 271.984 195.187 271.416 195.027 270.808H195.459V279.28H193.635ZM199.755 272.512C200.603 272.512 201.355 272.304 202.011 271.888C202.667 271.472 203.187 270.904 203.571 270.184C203.955 269.464 204.147 268.648 204.147 267.736C204.147 266.808 203.955 265.984 203.571 265.264C203.187 264.544 202.667 263.976 202.011 263.56C201.355 263.144 200.603 262.936 199.755 262.936C198.907 262.936 198.147 263.144 197.475 263.56C196.819 263.96 196.299 264.52 195.915 265.24C195.531 265.96 195.339 266.784 195.339 267.712C195.339 268.64 195.531 269.464 195.915 270.184C196.299 270.904 196.819 271.472 197.475 271.888C198.147 272.304 198.907 272.512 199.755 272.512ZM208.565 274V261.472H210.365L210.413 264.808L210.221 264.352C210.397 263.792 210.677 263.272 211.061 262.792C211.461 262.312 211.933 261.928 212.477 261.64C213.021 261.352 213.621 261.208 214.277 261.208C214.549 261.208 214.805 261.232 215.045 261.28C215.285 261.312 215.485 261.36 215.645 261.424L215.141 263.44C214.933 263.344 214.717 263.28 214.493 263.248C214.285 263.2 214.085 263.176 213.893 263.176C213.349 263.176 212.861 263.272 212.429 263.464C211.997 263.656 211.629 263.928 211.325 264.28C211.021 264.616 210.789 265.008 210.629 265.456C210.469 265.904 210.389 266.384 210.389 266.896V274H208.565ZM222.523 274.24C221.275 274.24 220.163 273.96 219.187 273.4C218.227 272.84 217.467 272.064 216.907 271.072C216.363 270.08 216.091 268.952 216.091 267.688C216.091 266.44 216.363 265.328 216.907 264.352C217.467 263.376 218.227 262.608 219.187 262.048C220.163 261.488 221.275 261.208 222.523 261.208C223.755 261.208 224.851 261.488 225.811 262.048C226.787 262.608 227.547 263.376 228.091 264.352C228.651 265.328 228.931 266.44 228.931 267.688C228.931 268.952 228.651 270.08 228.091 271.072C227.547 272.064 226.787 272.84 225.811 273.4C224.851 273.96 223.755 274.24 222.523 274.24ZM222.523 272.536C223.403 272.536 224.187 272.328 224.875 271.912C225.563 271.48 226.099 270.904 226.483 270.184C226.867 269.448 227.059 268.616 227.059 267.688C227.059 266.76 226.867 265.936 226.483 265.216C226.099 264.496 225.563 263.936 224.875 263.536C224.187 263.12 223.403 262.912 222.523 262.912C221.643 262.912 220.851 263.12 220.147 263.536C219.459 263.936 218.915 264.504 218.515 265.24C218.131 265.96 217.947 266.776 217.963 267.688C217.947 268.616 218.131 269.448 218.515 270.184C218.915 270.904 219.459 271.48 220.147 271.912C220.851 272.328 221.643 272.536 222.523 272.536ZM235.093 274L229.813 261.472H231.805L235.981 271.72L235.501 271.984L240.085 261.472H242.005L236.389 274H235.093ZM249.288 274.24C248.04 274.24 246.928 273.968 245.952 273.424C244.992 272.88 244.24 272.12 243.696 271.144C243.152 270.168 242.88 269.048 242.88 267.784C242.88 266.808 243.032 265.928 243.336 265.144C243.64 264.344 244.064 263.648 244.608 263.056C245.168 262.464 245.832 262.008 246.6 261.688C247.368 261.352 248.2 261.184 249.096 261.184C249.944 261.184 250.712 261.336 251.4 261.64C252.104 261.944 252.704 262.368 253.2 262.912C253.712 263.44 254.096 264.072 254.352 264.808C254.608 265.544 254.72 266.352 254.688 267.232L254.664 268.072H244.224L243.96 266.56H253.296L252.864 266.968V266.392C252.832 265.816 252.664 265.264 252.36 264.736C252.056 264.192 251.624 263.752 251.064 263.416C250.52 263.08 249.864 262.912 249.096 262.912C248.2 262.912 247.424 263.096 246.768 263.464C246.112 263.816 245.608 264.344 245.256 265.048C244.904 265.752 244.728 266.624 244.728 267.664C244.728 268.656 244.92 269.52 245.304 270.256C245.688 270.976 246.232 271.536 246.936 271.936C247.656 272.336 248.52 272.536 249.528 272.536C250.12 272.536 250.704 272.44 251.28 272.248C251.872 272.04 252.52 271.64 253.224 271.048L254.16 272.344C253.792 272.712 253.352 273.04 252.84 273.328C252.328 273.6 251.768 273.824 251.16 274C250.552 274.16 249.928 274.24 249.288 274.24ZM1.752 304V291.472H3.552L3.6 294.808L3.408 294.352C3.584 293.792 3.864 293.272 4.248 292.792C4.648 292.312 5.12 291.928 5.664 291.64C6.208 291.352 6.808 291.208 7.464 291.208C7.736 291.208 7.992 291.232 8.232 291.28C8.472 291.312 8.672 291.36 8.832 291.424L8.328 293.44C8.12 293.344 7.904 293.28 7.68 293.248C7.472 293.2 7.272 293.176 7.08 293.176C6.536 293.176 6.048 293.272 5.616 293.464C5.184 293.656 4.816 293.928 4.512 294.28C4.208 294.616 3.976 295.008 3.816 295.456C3.656 295.904 3.576 296.384 3.576 296.896V304H1.752ZM15.6861 304.24C14.4381 304.24 13.3261 303.968 12.3501 303.424C11.3901 302.88 10.6381 302.12 10.0941 301.144C9.55006 300.168 9.27806 299.048 9.27806 297.784C9.27806 296.808 9.43006 295.928 9.73406 295.144C10.0381 294.344 10.4621 293.648 11.0061 293.056C11.5661 292.464 12.2301 292.008 12.9981 291.688C13.7661 291.352 14.5981 291.184 15.4941 291.184C16.3421 291.184 17.1101 291.336 17.7981 291.64C18.5021 291.944 19.1021 292.368 19.5981 292.912C20.1101 293.44 20.4941 294.072 20.7501 294.808C21.0061 295.544 21.1181 296.352 21.0861 297.232L21.0621 298.072H10.6221L10.3581 296.56H19.6941L19.2621 296.968V296.392C19.2301 295.816 19.0621 295.264 18.7581 294.736C18.4541 294.192 18.0221 293.752 17.4621 293.416C16.9181 293.08 16.2621 292.912 15.4941 292.912C14.5981 292.912 13.8221 293.096 13.1661 293.464C12.5101 293.816 12.0061 294.344 11.6541 295.048C11.3021 295.752 11.1261 296.624 11.1261 297.664C11.1261 298.656 11.3181 299.52 11.7021 300.256C12.0861 300.976 12.6301 301.536 13.3341 301.936C14.0541 302.336 14.9181 302.536 15.9261 302.536C16.5181 302.536 17.1021 302.44 17.6781 302.248C18.2701 302.04 18.9181 301.64 19.6221 301.048L20.5581 302.344C20.1901 302.712 19.7501 303.04 19.2381 303.328C18.7261 303.6 18.1661 303.824 17.5581 304C16.9501 304.16 16.3261 304.24 15.6861 304.24ZM28.5386 304.24C27.4506 304.24 26.4666 303.96 25.5866 303.4C24.7066 302.824 24.0106 302.048 23.4986 301.072C22.9866 300.08 22.7306 298.96 22.7306 297.712C22.7306 296.448 22.9946 295.328 23.5226 294.352C24.0506 293.376 24.7546 292.608 25.6346 292.048C26.5306 291.488 27.5306 291.208 28.6346 291.208C29.2906 291.208 29.8986 291.304 30.4586 291.496C31.0186 291.688 31.5146 291.96 31.9466 292.312C32.3946 292.648 32.7626 293.048 33.0506 293.512C33.3546 293.96 33.5626 294.448 33.6746 294.976L33.1466 294.712L33.2186 291.472H35.0186V304H33.1946V300.928L33.6746 300.616C33.5626 301.096 33.3466 301.56 33.0266 302.008C32.7066 302.44 32.3146 302.824 31.8506 303.16C31.4026 303.496 30.8906 303.76 30.3146 303.952C29.7546 304.144 29.1626 304.24 28.5386 304.24ZM28.9466 302.512C29.7786 302.512 30.5226 302.312 31.1786 301.912C31.8346 301.496 32.3466 300.928 32.7146 300.208C33.0986 299.472 33.2906 298.64 33.2906 297.712C33.2906 296.784 33.0986 295.96 32.7146 295.24C32.3466 294.52 31.8346 293.952 31.1786 293.536C30.5226 293.12 29.7786 292.912 28.9466 292.912C28.0986 292.912 27.3466 293.12 26.6906 293.536C26.0506 293.952 25.5386 294.52 25.1546 295.24C24.7866 295.96 24.6026 296.784 24.6026 297.712C24.6026 298.624 24.7866 299.448 25.1546 300.184C25.5226 300.904 26.0346 301.472 26.6906 301.888C27.3466 302.304 28.0986 302.512 28.9466 302.512ZM43.6134 304.24C42.4774 304.24 41.4534 303.96 40.5414 303.4C39.6454 302.84 38.9334 302.072 38.4054 301.096C37.8934 300.104 37.6374 298.984 37.6374 297.736C37.6374 296.472 37.9014 295.352 38.4294 294.376C38.9574 293.384 39.6694 292.608 40.5654 292.048C41.4614 291.488 42.4694 291.208 43.5894 291.208C44.2134 291.208 44.8134 291.304 45.3894 291.496C45.9814 291.688 46.5094 291.96 46.9734 292.312C47.4374 292.648 47.8214 293.04 48.1254 293.488C48.4294 293.92 48.6134 294.376 48.6774 294.856L48.1254 294.664V286.24H49.9254V304H48.1494L48.1014 300.88L48.5574 300.712C48.4934 301.16 48.3094 301.6 48.0054 302.032C47.7174 302.448 47.3494 302.824 46.9014 303.16C46.4534 303.496 45.9414 303.76 45.3654 303.952C44.8054 304.144 44.2214 304.24 43.6134 304.24ZM43.8774 302.584C44.7094 302.584 45.4534 302.376 46.1094 301.96C46.7654 301.544 47.2774 300.968 47.6454 300.232C48.0294 299.496 48.2214 298.656 48.2214 297.712C48.2214 296.768 48.0294 295.936 47.6454 295.216C47.2774 294.48 46.7654 293.904 46.1094 293.488C45.4534 293.056 44.7094 292.84 43.8774 292.84C43.0134 292.84 42.2534 293.056 41.5974 293.488C40.9574 293.904 40.4454 294.48 40.0614 295.216C39.6934 295.936 39.5094 296.768 39.5094 297.712C39.5094 298.64 39.6934 299.472 40.0614 300.208C40.4294 300.944 40.9414 301.528 41.5974 301.96C42.2534 302.376 43.0134 302.584 43.8774 302.584ZM58.3277 304.24C57.2397 304.24 56.2557 303.96 55.3757 303.4C54.4957 302.824 53.7997 302.048 53.2877 301.072C52.7757 300.08 52.5197 298.96 52.5197 297.712C52.5197 296.448 52.7837 295.328 53.3117 294.352C53.8397 293.376 54.5437 292.608 55.4237 292.048C56.3197 291.488 57.3197 291.208 58.4237 291.208C59.0797 291.208 59.6877 291.304 60.2477 291.496C60.8077 291.688 61.3037 291.96 61.7357 292.312C62.1837 292.648 62.5517 293.048 62.8397 293.512C63.1437 293.96 63.3517 294.448 63.4637 294.976L62.9357 294.712L63.0077 291.472H64.8077V304H62.9837V300.928L63.4637 300.616C63.3517 301.096 63.1357 301.56 62.8157 302.008C62.4957 302.44 62.1037 302.824 61.6397 303.16C61.1917 303.496 60.6797 303.76 60.1037 303.952C59.5437 304.144 58.9517 304.24 58.3277 304.24ZM58.7357 302.512C59.5677 302.512 60.3117 302.312 60.9677 301.912C61.6237 301.496 62.1357 300.928 62.5037 300.208C62.8877 299.472 63.0797 298.64 63.0797 297.712C63.0797 296.784 62.8877 295.96 62.5037 295.24C62.1357 294.52 61.6237 293.952 60.9677 293.536C60.3117 293.12 59.5677 292.912 58.7357 292.912C57.8877 292.912 57.1357 293.12 56.4797 293.536C55.8397 293.952 55.3277 294.52 54.9437 295.24C54.5757 295.96 54.3917 296.784 54.3917 297.712C54.3917 298.624 54.5757 299.448 54.9437 300.184C55.3117 300.904 55.8237 301.472 56.4797 301.888C57.1357 302.304 57.8877 302.512 58.7357 302.512ZM74.6745 304.24C74.0825 304.24 73.5065 304.152 72.9465 303.976C72.3865 303.784 71.8745 303.528 71.4105 303.208C70.9625 302.888 70.5785 302.52 70.2585 302.104C69.9545 301.688 69.7465 301.256 69.6345 300.808L70.1625 300.832L70.0905 303.976H68.3145V286.24H70.1145V294.472L69.7545 294.568C69.8665 294.12 70.0665 293.696 70.3545 293.296C70.6585 292.88 71.0345 292.52 71.4825 292.216C71.9305 291.896 72.4185 291.648 72.9465 291.472C73.4905 291.296 74.0505 291.208 74.6265 291.208C75.7465 291.208 76.7465 291.488 77.6265 292.048C78.5225 292.608 79.2345 293.376 79.7625 294.352C80.2905 295.328 80.5545 296.448 80.5545 297.712C80.5545 298.976 80.2985 300.104 79.7865 301.096C79.2745 302.072 78.5705 302.84 77.6745 303.4C76.7945 303.96 75.7945 304.24 74.6745 304.24ZM74.3865 302.536C75.2345 302.536 75.9865 302.328 76.6425 301.912C77.2985 301.48 77.8105 300.904 78.1785 300.184C78.5625 299.448 78.7545 298.624 78.7545 297.712C78.7545 296.784 78.5625 295.96 78.1785 295.24C77.8105 294.52 77.2985 293.952 76.6425 293.536C75.9865 293.12 75.2345 292.912 74.3865 292.912C73.5385 292.912 72.7865 293.12 72.1305 293.536C71.4745 293.952 70.9545 294.52 70.5705 295.24C70.2025 295.96 70.0185 296.784 70.0185 297.712C70.0185 298.64 70.2025 299.472 70.5705 300.208C70.9545 300.928 71.4745 301.496 72.1305 301.912C72.7865 302.328 73.5385 302.536 74.3865 302.536ZM83.6539 304V291.472H85.4539V304H83.6539ZM84.5419 288.76C84.0939 288.76 83.7499 288.648 83.5099 288.424C83.2859 288.184 83.1739 287.864 83.1739 287.464C83.1739 287.064 83.2939 286.744 83.5339 286.504C83.7739 286.264 84.1099 286.144 84.5419 286.144C84.9739 286.144 85.3099 286.264 85.5499 286.504C85.7899 286.728 85.9099 287.048 85.9099 287.464C85.9099 287.848 85.7899 288.16 85.5499 288.4C85.3099 288.64 84.9739 288.76 84.5419 288.76ZM89.4328 304V286.24H91.2328V304H89.4328ZM95.2554 304V291.472H97.0554V304H95.2554ZM96.1434 288.76C95.6954 288.76 95.3514 288.648 95.1114 288.424C94.8874 288.184 94.7754 287.864 94.7754 287.464C94.7754 287.064 94.8954 286.744 95.1354 286.504C95.3754 286.264 95.7114 286.144 96.1434 286.144C96.5754 286.144 96.9114 286.264 97.1514 286.504C97.3914 286.728 97.5114 287.048 97.5114 287.464C97.5114 287.848 97.3914 288.16 97.1514 288.4C96.9114 288.64 96.5754 288.76 96.1434 288.76ZM102.714 304V288.184H104.514V304H102.714ZM99.8824 293.2V291.472H107.682V293.2H99.8824ZM112.005 309.52L114.429 303.616L114.597 305.32L108.309 291.472H110.349L114.645 301.072C114.773 301.328 114.901 301.632 115.029 301.984C115.157 302.32 115.277 302.656 115.389 302.992L114.717 302.92C114.829 302.648 114.933 302.368 115.029 302.08C115.141 301.792 115.245 301.512 115.341 301.24L119.109 291.472H121.173L116.109 304L113.949 309.52H112.005ZM134.687 304.24C133.599 304.24 132.615 303.96 131.735 303.4C130.855 302.824 130.159 302.048 129.647 301.072C129.135 300.08 128.879 298.96 128.879 297.712C128.879 296.448 129.143 295.328 129.671 294.352C130.199 293.376 130.903 292.608 131.783 292.048C132.679 291.488 133.679 291.208 134.783 291.208C135.439 291.208 136.047 291.304 136.607 291.496C137.167 291.688 137.663 291.96 138.095 292.312C138.543 292.648 138.911 293.048 139.199 293.512C139.503 293.96 139.711 294.448 139.823 294.976L139.295 294.712L139.367 291.472H141.167V304H139.343V300.928L139.823 300.616C139.711 301.096 139.495 301.56 139.175 302.008C138.855 302.44 138.463 302.824 137.999 303.16C137.551 303.496 137.039 303.76 136.463 303.952C135.903 304.144 135.311 304.24 134.687 304.24ZM135.095 302.512C135.927 302.512 136.671 302.312 137.327 301.912C137.983 301.496 138.495 300.928 138.863 300.208C139.247 299.472 139.439 298.64 139.439 297.712C139.439 296.784 139.247 295.96 138.863 295.24C138.495 294.52 137.983 293.952 137.327 293.536C136.671 293.12 135.927 292.912 135.095 292.912C134.247 292.912 133.495 293.12 132.839 293.536C132.199 293.952 131.687 294.52 131.303 295.24C130.935 295.96 130.751 296.784 130.751 297.712C130.751 298.624 130.935 299.448 131.303 300.184C131.671 300.904 132.183 301.472 132.839 301.888C133.495 302.304 134.247 302.512 135.095 302.512ZM144.674 304V291.472H146.45L146.522 294.088L146.234 294.208C146.394 293.664 146.706 293.168 147.17 292.72C147.634 292.272 148.186 291.912 148.826 291.64C149.482 291.352 150.154 291.208 150.842 291.208C151.77 291.208 152.546 291.392 153.17 291.76C153.794 292.128 154.266 292.696 154.586 293.464C154.906 294.232 155.066 295.208 155.066 296.392V304H153.242V296.488C153.242 295.656 153.13 294.976 152.906 294.448C152.698 293.904 152.37 293.504 151.922 293.248C151.474 292.992 150.922 292.872 150.266 292.888C149.722 292.888 149.218 292.984 148.754 293.176C148.29 293.352 147.89 293.6 147.554 293.92C147.218 294.24 146.954 294.608 146.762 295.024C146.57 295.44 146.474 295.888 146.474 296.368V304H145.586C145.474 304 145.346 304 145.202 304C145.058 304 144.882 304 144.674 304ZM163.59 304.24C162.454 304.24 161.43 303.96 160.518 303.4C159.622 302.84 158.91 302.072 158.382 301.096C157.87 300.104 157.614 298.984 157.614 297.736C157.614 296.472 157.878 295.352 158.406 294.376C158.934 293.384 159.646 292.608 160.542 292.048C161.438 291.488 162.446 291.208 163.566 291.208C164.19 291.208 164.79 291.304 165.366 291.496C165.958 291.688 166.486 291.96 166.95 292.312C167.414 292.648 167.798 293.04 168.102 293.488C168.406 293.92 168.59 294.376 168.654 294.856L168.102 294.664V286.24H169.902V304H168.126L168.078 300.88L168.534 300.712C168.47 301.16 168.286 301.6 167.982 302.032C167.694 302.448 167.326 302.824 166.878 303.16C166.43 303.496 165.918 303.76 165.342 303.952C164.782 304.144 164.198 304.24 163.59 304.24ZM163.854 302.584C164.686 302.584 165.43 302.376 166.086 301.96C166.742 301.544 167.254 300.968 167.622 300.232C168.006 299.496 168.198 298.656 168.198 297.712C168.198 296.768 168.006 295.936 167.622 295.216C167.254 294.48 166.742 293.904 166.086 293.488C165.43 293.056 164.686 292.84 163.854 292.84C162.99 292.84 162.23 293.056 161.574 293.488C160.934 293.904 160.422 294.48 160.038 295.216C159.67 295.936 159.486 296.768 159.486 297.712C159.486 298.64 159.67 299.472 160.038 300.208C160.406 300.944 160.918 301.528 161.574 301.96C162.23 302.376 162.99 302.584 163.854 302.584ZM6.648 334.24C5.56 334.24 4.576 333.96 3.696 333.4C2.816 332.824 2.12 332.048 1.608 331.072C1.096 330.08 0.84 328.96 0.84 327.712C0.84 326.448 1.104 325.328 1.632 324.352C2.16 323.376 2.864 322.608 3.744 322.048C4.64 321.488 5.64 321.208 6.744 321.208C7.4 321.208 8.008 321.304 8.568 321.496C9.128 321.688 9.624 321.96 10.056 322.312C10.504 322.648 10.872 323.048 11.16 323.512C11.464 323.96 11.672 324.448 11.784 324.976L11.256 324.712L11.328 321.472H13.128V334H11.304V330.928L11.784 330.616C11.672 331.096 11.456 331.56 11.136 332.008C10.816 332.44 10.424 332.824 9.96 333.16C9.512 333.496 9 333.76 8.424 333.952C7.864 334.144 7.272 334.24 6.648 334.24ZM7.056 332.512C7.888 332.512 8.632 332.312 9.288 331.912C9.944 331.496 10.456 330.928 10.824 330.208C11.208 329.472 11.4 328.64 11.4 327.712C11.4 326.784 11.208 325.96 10.824 325.24C10.456 324.52 9.944 323.952 9.288 323.536C8.632 323.12 7.888 322.912 7.056 322.912C6.208 322.912 5.456 323.12 4.8 323.536C4.16 323.952 3.648 324.52 3.264 325.24C2.896 325.96 2.712 326.784 2.712 327.712C2.712 328.624 2.896 329.448 3.264 330.184C3.632 330.904 4.144 331.472 4.8 331.888C5.456 332.304 6.208 332.512 7.056 332.512ZM21.9148 334.24C20.7308 334.24 19.6748 333.96 18.7468 333.4C17.8188 332.824 17.0828 332.048 16.5388 331.072C16.0108 330.08 15.7468 328.96 15.7468 327.712C15.7468 326.464 16.0108 325.352 16.5388 324.376C17.0828 323.384 17.8188 322.608 18.7468 322.048C19.6748 321.488 20.7388 321.208 21.9388 321.208C23.0108 321.208 23.9868 321.424 24.8668 321.856C25.7468 322.272 26.4508 322.856 26.9788 323.608L25.9228 324.904C25.6188 324.504 25.2508 324.152 24.8188 323.848C24.4028 323.544 23.9468 323.312 23.4508 323.152C22.9708 322.976 22.4908 322.888 22.0108 322.888C21.1628 322.888 20.4028 323.104 19.7308 323.536C19.0588 323.952 18.5228 324.52 18.1228 325.24C17.7388 325.96 17.5468 326.784 17.5468 327.712C17.5468 328.64 17.7388 329.472 18.1228 330.208C18.5228 330.928 19.0588 331.496 19.7308 331.912C20.4028 332.328 21.1548 332.536 21.9868 332.536C22.4668 332.536 22.9388 332.464 23.4028 332.32C23.8668 332.16 24.3068 331.936 24.7228 331.648C25.1388 331.36 25.5228 331 25.8748 330.568L26.9308 331.864C26.3868 332.584 25.6588 333.16 24.7468 333.592C23.8348 334.024 22.8908 334.24 21.9148 334.24ZM34.5476 334.24C33.3636 334.24 32.3076 333.96 31.3796 333.4C30.4516 332.824 29.7156 332.048 29.1716 331.072C28.6436 330.08 28.3796 328.96 28.3796 327.712C28.3796 326.464 28.6436 325.352 29.1716 324.376C29.7156 323.384 30.4516 322.608 31.3796 322.048C32.3076 321.488 33.3716 321.208 34.5716 321.208C35.6436 321.208 36.6196 321.424 37.4996 321.856C38.3796 322.272 39.0836 322.856 39.6116 323.608L38.5556 324.904C38.2516 324.504 37.8836 324.152 37.4516 323.848C37.0356 323.544 36.5796 323.312 36.0836 323.152C35.6036 322.976 35.1236 322.888 34.6436 322.888C33.7956 322.888 33.0356 323.104 32.3636 323.536C31.6916 323.952 31.1556 324.52 30.7556 325.24C30.3716 325.96 30.1796 326.784 30.1796 327.712C30.1796 328.64 30.3716 329.472 30.7556 330.208C31.1556 330.928 31.6916 331.496 32.3636 331.912C33.0356 332.328 33.7876 332.536 34.6196 332.536C35.0996 332.536 35.5716 332.464 36.0356 332.32C36.4996 332.16 36.9396 331.936 37.3556 331.648C37.7716 331.36 38.1556 331 38.5076 330.568L39.5636 331.864C39.0196 332.584 38.2916 333.16 37.3796 333.592C36.4676 334.024 35.5236 334.24 34.5476 334.24ZM47.4204 334.24C46.1724 334.24 45.0604 333.968 44.0844 333.424C43.1244 332.88 42.3724 332.12 41.8284 331.144C41.2844 330.168 41.0124 329.048 41.0124 327.784C41.0124 326.808 41.1644 325.928 41.4684 325.144C41.7724 324.344 42.1964 323.648 42.7404 323.056C43.3004 322.464 43.9644 322.008 44.7324 321.688C45.5004 321.352 46.3324 321.184 47.2284 321.184C48.0764 321.184 48.8444 321.336 49.5324 321.64C50.2364 321.944 50.8364 322.368 51.3324 322.912C51.8444 323.44 52.2284 324.072 52.4844 324.808C52.7404 325.544 52.8524 326.352 52.8204 327.232L52.7964 328.072H42.3564L42.0924 326.56H51.4284L50.9964 326.968V326.392C50.9644 325.816 50.7964 325.264 50.4924 324.736C50.1884 324.192 49.7564 323.752 49.1964 323.416C48.6524 323.08 47.9964 322.912 47.2284 322.912C46.3324 322.912 45.5564 323.096 44.9004 323.464C44.2444 323.816 43.7404 324.344 43.3884 325.048C43.0364 325.752 42.8604 326.624 42.8604 327.664C42.8604 328.656 43.0524 329.52 43.4364 330.256C43.8204 330.976 44.3644 331.536 45.0684 331.936C45.7884 332.336 46.6524 332.536 47.6604 332.536C48.2524 332.536 48.8364 332.44 49.4124 332.248C50.0044 332.04 50.6524 331.64 51.3564 331.048L52.2924 332.344C51.9244 332.712 51.4844 333.04 50.9724 333.328C50.4604 333.6 49.9004 333.824 49.2924 334C48.6844 334.16 48.0604 334.24 47.4204 334.24ZM59.481 334.24C58.409 334.24 57.449 334.04 56.601 333.64C55.753 333.24 55.081 332.712 54.585 332.056L55.857 330.952C56.321 331.512 56.865 331.936 57.489 332.224C58.129 332.512 58.841 332.656 59.625 332.656C60.025 332.656 60.385 332.616 60.705 332.536C61.025 332.44 61.305 332.304 61.545 332.128C61.785 331.952 61.969 331.744 62.097 331.504C62.225 331.264 62.289 331 62.289 330.712C62.289 330.184 62.057 329.744 61.593 329.392C61.385 329.248 61.089 329.104 60.705 328.96C60.321 328.8 59.857 328.648 59.313 328.504C58.417 328.248 57.673 327.992 57.081 327.736C56.489 327.464 56.025 327.152 55.689 326.8C55.449 326.512 55.265 326.2 55.137 325.864C55.025 325.528 54.969 325.16 54.969 324.76C54.969 324.248 55.073 323.776 55.281 323.344C55.505 322.912 55.809 322.536 56.193 322.216C56.593 321.88 57.057 321.632 57.585 321.472C58.129 321.296 58.713 321.208 59.337 321.208C59.929 321.208 60.513 321.288 61.089 321.448C61.665 321.608 62.201 321.84 62.697 322.144C63.193 322.448 63.617 322.808 63.969 323.224L62.865 324.424C62.561 324.104 62.225 323.816 61.857 323.56C61.489 323.304 61.097 323.104 60.681 322.96C60.281 322.816 59.865 322.744 59.433 322.744C59.049 322.744 58.689 322.792 58.353 322.888C58.033 322.984 57.753 323.12 57.513 323.296C57.289 323.456 57.113 323.656 56.985 323.896C56.873 324.136 56.817 324.4 56.817 324.688C56.817 324.928 56.865 325.144 56.961 325.336C57.057 325.528 57.193 325.696 57.369 325.84C57.593 326.016 57.905 326.184 58.305 326.344C58.721 326.488 59.233 326.64 59.841 326.8C60.545 326.992 61.137 327.192 61.617 327.4C62.113 327.592 62.521 327.824 62.841 328.096C63.273 328.416 63.577 328.784 63.753 329.2C63.945 329.616 64.041 330.088 64.041 330.616C64.041 331.32 63.841 331.944 63.441 332.488C63.057 333.032 62.521 333.464 61.833 333.784C61.145 334.088 60.361 334.24 59.481 334.24ZM70.9654 334.24C69.8934 334.24 68.9334 334.04 68.0854 333.64C67.2374 333.24 66.5654 332.712 66.0694 332.056L67.3414 330.952C67.8054 331.512 68.3494 331.936 68.9734 332.224C69.6134 332.512 70.3254 332.656 71.1094 332.656C71.5094 332.656 71.8694 332.616 72.1894 332.536C72.5094 332.44 72.7894 332.304 73.0294 332.128C73.2694 331.952 73.4534 331.744 73.5814 331.504C73.7094 331.264 73.7734 331 73.7734 330.712C73.7734 330.184 73.5414 329.744 73.0774 329.392C72.8694 329.248 72.5734 329.104 72.1894 328.96C71.8054 328.8 71.3414 328.648 70.7974 328.504C69.9014 328.248 69.1574 327.992 68.5654 327.736C67.9734 327.464 67.5094 327.152 67.1734 326.8C66.9334 326.512 66.7494 326.2 66.6214 325.864C66.5094 325.528 66.4534 325.16 66.4534 324.76C66.4534 324.248 66.5574 323.776 66.7654 323.344C66.9894 322.912 67.2934 322.536 67.6774 322.216C68.0774 321.88 68.5414 321.632 69.0694 321.472C69.6134 321.296 70.1974 321.208 70.8214 321.208C71.4134 321.208 71.9974 321.288 72.5734 321.448C73.1494 321.608 73.6854 321.84 74.1814 322.144C74.6774 322.448 75.1014 322.808 75.4534 323.224L74.3494 324.424C74.0454 324.104 73.7094 323.816 73.3414 323.56C72.9734 323.304 72.5814 323.104 72.1654 322.96C71.7654 322.816 71.3494 322.744 70.9174 322.744C70.5334 322.744 70.1734 322.792 69.8374 322.888C69.5174 322.984 69.2374 323.12 68.9974 323.296C68.7734 323.456 68.5974 323.656 68.4694 323.896C68.3574 324.136 68.3014 324.4 68.3014 324.688C68.3014 324.928 68.3494 325.144 68.4454 325.336C68.5414 325.528 68.6774 325.696 68.8534 325.84C69.0774 326.016 69.3894 326.184 69.7894 326.344C70.2054 326.488 70.7174 326.64 71.3254 326.8C72.0294 326.992 72.6214 327.192 73.1014 327.4C73.5974 327.592 74.0054 327.824 74.3254 328.096C74.7574 328.416 75.0614 328.784 75.2374 329.2C75.4294 329.616 75.5254 330.088 75.5254 330.616C75.5254 331.32 75.3254 331.944 74.9254 332.488C74.5414 333.032 74.0054 333.464 73.3174 333.784C72.6294 334.088 71.8454 334.24 70.9654 334.24ZM78.8258 334V321.472H80.6258V334H78.8258ZM79.7138 318.76C79.2658 318.76 78.9218 318.648 78.6818 318.424C78.4578 318.184 78.3458 317.864 78.3458 317.464C78.3458 317.064 78.4658 316.744 78.7058 316.504C78.9458 316.264 79.2818 316.144 79.7138 316.144C80.1458 316.144 80.4818 316.264 80.7218 316.504C80.9618 316.728 81.0818 317.048 81.0818 317.464C81.0818 317.848 80.9618 318.16 80.7218 318.4C80.4818 318.64 80.1458 318.76 79.7138 318.76ZM90.9167 334.24C90.3247 334.24 89.7487 334.152 89.1887 333.976C88.6287 333.784 88.1167 333.528 87.6527 333.208C87.2047 332.888 86.8207 332.52 86.5007 332.104C86.1967 331.688 85.9887 331.256 85.8767 330.808L86.4047 330.832L86.3327 333.976H84.5567V316.24H86.3567V324.472L85.9967 324.568C86.1087 324.12 86.3087 323.696 86.5967 323.296C86.9007 322.88 87.2767 322.52 87.7247 322.216C88.1727 321.896 88.6607 321.648 89.1887 321.472C89.7327 321.296 90.2927 321.208 90.8687 321.208C91.9887 321.208 92.9887 321.488 93.8687 322.048C94.7647 322.608 95.4767 323.376 96.0047 324.352C96.5327 325.328 96.7967 326.448 96.7967 327.712C96.7967 328.976 96.5407 330.104 96.0287 331.096C95.5167 332.072 94.8127 332.84 93.9167 333.4C93.0367 333.96 92.0367 334.24 90.9167 334.24ZM90.6287 332.536C91.4767 332.536 92.2287 332.328 92.8847 331.912C93.5407 331.48 94.0527 330.904 94.4207 330.184C94.8047 329.448 94.9967 328.624 94.9967 327.712C94.9967 326.784 94.8047 325.96 94.4207 325.24C94.0527 324.52 93.5407 323.952 92.8847 323.536C92.2287 323.12 91.4767 322.912 90.6287 322.912C89.7807 322.912 89.0287 323.12 88.3727 323.536C87.7167 323.952 87.1967 324.52 86.8127 325.24C86.4447 325.96 86.2607 326.784 86.2607 327.712C86.2607 328.64 86.4447 329.472 86.8127 330.208C87.1967 330.928 87.7167 331.496 88.3727 331.912C89.0287 332.328 89.7807 332.536 90.6287 332.536ZM99.8961 334V321.472H101.696V334H99.8961ZM100.784 318.76C100.336 318.76 99.9921 318.648 99.7521 318.424C99.5281 318.184 99.4161 317.864 99.4161 317.464C99.4161 317.064 99.5361 316.744 99.7761 316.504C100.016 316.264 100.352 316.144 100.784 316.144C101.216 316.144 101.552 316.264 101.792 316.504C102.032 316.728 102.152 317.048 102.152 317.464C102.152 317.848 102.032 318.16 101.792 318.4C101.552 318.64 101.216 318.76 100.784 318.76ZM105.675 334V316.24H107.475V334H105.675ZM111.498 334V321.472H113.298V334H111.498ZM112.386 318.76C111.938 318.76 111.594 318.648 111.354 318.424C111.13 318.184 111.018 317.864 111.018 317.464C111.018 317.064 111.138 316.744 111.378 316.504C111.618 316.264 111.954 316.144 112.386 316.144C112.818 316.144 113.154 316.264 113.394 316.504C113.634 316.728 113.754 317.048 113.754 317.464C113.754 317.848 113.634 318.16 113.394 318.4C113.154 318.64 112.818 318.76 112.386 318.76ZM118.957 334V318.184H120.757V334H118.957ZM116.125 323.2V321.472H123.925V323.2H116.125ZM128.247 339.52L130.671 333.616L130.839 335.32L124.551 321.472H126.591L130.887 331.072C131.015 331.328 131.143 331.632 131.271 331.984C131.399 332.32 131.519 332.656 131.631 332.992L130.959 332.92C131.071 332.648 131.175 332.368 131.271 332.08C131.383 331.792 131.487 331.512 131.583 331.24L135.351 321.472H137.415L132.351 334L130.191 339.52H128.247ZM139.33 334.24C138.898 334.24 138.562 334.112 138.322 333.856C138.098 333.6 137.986 333.232 137.986 332.752C137.986 332.32 138.106 331.968 138.346 331.696C138.602 331.408 138.93 331.264 139.33 331.264C139.762 331.264 140.09 331.4 140.314 331.672C140.554 331.928 140.674 332.288 140.674 332.752C140.674 333.2 140.546 333.56 140.29 333.832C140.05 334.104 139.73 334.24 139.33 334.24Z" fill="#333333"/>
<path d="M4.55 50V15H12.05V43.25H27.9V50H4.55ZM45.4457 50.5C42.579 50.5 40.079 49.9167 37.9457 48.75C35.8124 47.5833 34.1457 45.9833 32.9457 43.95C31.7457 41.9167 31.1457 39.5833 31.1457 36.95C31.1457 34.9167 31.479 33.05 32.1457 31.35C32.8124 29.65 33.7457 28.1833 34.9457 26.95C36.1457 25.6833 37.5624 24.7167 39.1957 24.05C40.8624 23.35 42.6624 23 44.5957 23C46.3957 23 48.0624 23.3333 49.5957 24C51.129 24.6333 52.4457 25.55 53.5457 26.75C54.679 27.9167 55.5457 29.3 56.1457 30.9C56.7457 32.5 57.0124 34.25 56.9457 36.15L56.8957 38.35H35.6457L34.4957 34H51.0457L50.2457 34.9V33.8C50.179 32.9 49.879 32.0833 49.3457 31.35C48.8457 30.6167 48.1957 30.05 47.3957 29.65C46.5957 29.25 45.6957 29.05 44.6957 29.05C43.229 29.05 41.979 29.3333 40.9457 29.9C39.9457 30.4667 39.179 31.3 38.6457 32.4C38.1124 33.5 37.8457 34.8333 37.8457 36.4C37.8457 38 38.179 39.3833 38.8457 40.55C39.5457 41.7167 40.5124 42.6333 41.7457 43.3C43.0124 43.9333 44.4957 44.25 46.1957 44.25C47.3624 44.25 48.429 44.0667 49.3957 43.7C50.3624 43.3333 51.3957 42.7 52.4957 41.8L55.8957 46.55C54.929 47.4167 53.8624 48.15 52.6957 48.75C51.529 49.3167 50.329 49.75 49.0957 50.05C47.8624 50.35 46.6457 50.5 45.4457 50.5ZM78.7461 50L72.1961 40.65L70.1961 37.85L59.4961 23.55H68.0961L74.4961 32.6L76.6961 35.6L87.2461 50H78.7461ZM59.3961 50L69.9461 35.55L73.8461 40.2L67.7461 50H59.3961ZM76.3961 38.1L72.5961 33.45L78.2461 23.55H86.5961L76.3961 38.1ZM102.672 50.5C99.8056 50.5 97.3056 49.9167 95.1723 48.75C93.0389 47.5833 91.3723 45.9833 90.1723 43.95C88.9723 41.9167 88.3723 39.5833 88.3723 36.95C88.3723 34.9167 88.7056 33.05 89.3723 31.35C90.0389 29.65 90.9723 28.1833 92.1723 26.95C93.3723 25.6833 94.7889 24.7167 96.4223 24.05C98.0889 23.35 99.8889 23 101.822 23C103.622 23 105.289 23.3333 106.822 24C108.356 24.6333 109.672 25.55 110.772 26.75C111.906 27.9167 112.772 29.3 113.372 30.9C113.972 32.5 114.239 34.25 114.172 36.15L114.122 38.35H92.8723L91.7223 34H108.272L107.472 34.9V33.8C107.406 32.9 107.106 32.0833 106.572 31.35C106.072 30.6167 105.422 30.05 104.622 29.65C103.822 29.25 102.922 29.05 101.922 29.05C100.456 29.05 99.2056 29.3333 98.1723 29.9C97.1723 30.4667 96.4056 31.3 95.8723 32.4C95.3389 33.5 95.0723 34.8333 95.0723 36.4C95.0723 38 95.4056 39.3833 96.0723 40.55C96.7723 41.7167 97.7389 42.6333 98.9723 43.3C100.239 43.9333 101.722 44.25 103.422 44.25C104.589 44.25 105.656 44.0667 106.622 43.7C107.589 43.3333 108.622 42.7 109.722 41.8L113.122 46.55C112.156 47.4167 111.089 48.15 109.922 48.75C108.756 49.3167 107.556 49.75 106.322 50.05C105.089 50.35 103.872 50.5 102.672 50.5ZM119.419 50V23.55H126.219L126.419 28.95L125.019 29.55C125.386 28.35 126.036 27.2667 126.969 26.3C127.936 25.3 129.086 24.5 130.419 23.9C131.752 23.3 133.152 23 134.619 23C136.619 23 138.286 23.4 139.619 24.2C140.986 25 142.002 26.2167 142.669 27.85C143.369 29.45 143.719 31.4333 143.719 33.8V50H136.619V34.35C136.619 33.15 136.452 32.15 136.119 31.35C135.786 30.55 135.269 29.9667 134.569 29.6C133.902 29.2 133.069 29.0333 132.069 29.1C131.269 29.1 130.519 29.2333 129.819 29.5C129.152 29.7333 128.569 30.0833 128.069 30.55C127.602 31.0167 127.219 31.55 126.919 32.15C126.652 32.75 126.519 33.4 126.519 34.1V50H123.019C122.252 50 121.569 50 120.969 50C120.369 50 119.852 50 119.419 50ZM160.873 50.5C158.573 50.5 156.506 49.9167 154.673 48.75C152.839 47.55 151.389 45.9333 150.323 43.9C149.289 41.8333 148.773 39.45 148.773 36.75C148.773 34.1167 149.289 31.7667 150.323 29.7C151.389 27.6333 152.823 26 154.623 24.8C156.456 23.6 158.539 23 160.873 23C162.106 23 163.289 23.2 164.423 23.6C165.589 23.9667 166.623 24.4833 167.523 25.15C168.456 25.8167 169.206 26.5667 169.773 27.4C170.339 28.2 170.656 29.05 170.723 29.95L168.923 30.25V13H176.023V50H169.323L169.023 43.9L170.423 44.05C170.356 44.8833 170.056 45.6833 169.523 46.45C168.989 47.2167 168.273 47.9167 167.373 48.55C166.506 49.15 165.506 49.6333 164.373 50C163.273 50.3333 162.106 50.5 160.873 50.5ZM162.473 44.6C163.806 44.6 164.973 44.2667 165.973 43.6C166.973 42.9333 167.756 42.0167 168.323 40.85C168.889 39.6833 169.173 38.3167 169.173 36.75C169.173 35.2167 168.889 33.8667 168.323 32.7C167.756 31.5 166.973 30.5833 165.973 29.95C164.973 29.2833 163.806 28.95 162.473 28.95C161.139 28.95 159.973 29.2833 158.973 29.95C158.006 30.5833 157.239 31.5 156.673 32.7C156.139 33.8667 155.873 35.2167 155.873 36.75C155.873 38.3167 156.139 39.6833 156.673 40.85C157.239 42.0167 158.006 42.9333 158.973 43.6C159.973 44.2667 161.139 44.6 162.473 44.6ZM199.277 50V15H213.627C216.193 15 218.51 15.4333 220.577 16.3C222.677 17.1333 224.477 18.3333 225.977 19.9C227.51 21.4333 228.677 23.2667 229.477 25.4C230.277 27.5333 230.677 29.9 230.677 32.5C230.677 35.0667 230.277 37.4333 229.477 39.6C228.677 41.7333 227.527 43.5833 226.027 45.15C224.527 46.6833 222.727 47.8833 220.627 48.75C218.527 49.5833 216.193 50 213.627 50H199.277ZM206.777 44.55L205.977 43.25H213.377C214.877 43.25 216.227 43 217.427 42.5C218.627 41.9667 219.643 41.25 220.477 40.35C221.343 39.4167 221.993 38.2833 222.427 36.95C222.86 35.6167 223.077 34.1333 223.077 32.5C223.077 30.8667 222.86 29.4 222.427 28.1C221.993 26.7667 221.343 25.6333 220.477 24.7C219.643 23.7667 218.627 23.05 217.427 22.55C216.227 22.0167 214.877 21.75 213.377 21.75H205.827L206.777 20.55V44.55ZM249.01 50.5C246.143 50.5 243.643 49.9167 241.51 48.75C239.377 47.5833 237.71 45.9833 236.51 43.95C235.31 41.9167 234.71 39.5833 234.71 36.95C234.71 34.9167 235.043 33.05 235.71 31.35C236.377 29.65 237.31 28.1833 238.51 26.95C239.71 25.6833 241.127 24.7167 242.76 24.05C244.427 23.35 246.227 23 248.16 23C249.96 23 251.627 23.3333 253.16 24C254.693 24.6333 256.01 25.55 257.11 26.75C258.243 27.9167 259.11 29.3 259.71 30.9C260.31 32.5 260.577 34.25 260.51 36.15L260.46 38.35H239.21L238.06 34H254.61L253.81 34.9V33.8C253.743 32.9 253.443 32.0833 252.91 31.35C252.41 30.6167 251.76 30.05 250.96 29.65C250.16 29.25 249.26 29.05 248.26 29.05C246.793 29.05 245.543 29.3333 244.51 29.9C243.51 30.4667 242.743 31.3 242.21 32.4C241.677 33.5 241.41 34.8333 241.41 36.4C241.41 38 241.743 39.3833 242.41 40.55C243.11 41.7167 244.077 42.6333 245.31 43.3C246.577 43.9333 248.06 44.25 249.76 44.25C250.927 44.25 251.993 44.0667 252.96 43.7C253.927 43.3333 254.96 42.7 256.06 41.8L259.46 46.55C258.493 47.4167 257.427 48.15 256.26 48.75C255.093 49.3167 253.893 49.75 252.66 50.05C251.427 50.35 250.21 50.5 249.01 50.5ZM277.257 50.5C274.724 50.5 272.457 49.9 270.457 48.7C268.457 47.5 266.874 45.8667 265.707 43.8C264.574 41.7333 264.007 39.3833 264.007 36.75C264.007 34.15 264.574 31.8167 265.707 29.75C266.874 27.65 268.457 26 270.457 24.8C272.457 23.6 274.724 23 277.257 23C279.624 23 281.79 23.4333 283.757 24.3C285.724 25.1667 287.257 26.3667 288.357 27.9L284.457 32.6C283.99 31.9667 283.407 31.4 282.707 30.9C282.007 30.3667 281.24 29.95 280.407 29.65C279.607 29.35 278.774 29.2 277.907 29.2C276.54 29.2 275.324 29.5333 274.257 30.2C273.224 30.8333 272.407 31.7167 271.807 32.85C271.207 33.9833 270.907 35.2833 270.907 36.75C270.907 38.1833 271.207 39.4667 271.807 40.6C272.44 41.7 273.29 42.6 274.357 43.3C275.424 43.9667 276.624 44.3 277.957 44.3C278.824 44.3 279.64 44.1833 280.407 43.95C281.174 43.6833 281.89 43.3 282.557 42.8C283.257 42.3 283.89 41.7 284.457 41L288.307 45.7C287.174 47.1333 285.607 48.3 283.607 49.2C281.607 50.0667 279.49 50.5 277.257 50.5ZM302.757 50.5C300.557 50.5 298.573 49.9 296.807 48.7C295.04 47.5 293.64 45.8667 292.607 43.8C291.573 41.7333 291.057 39.3667 291.057 36.7C291.057 34.0333 291.573 31.6833 292.607 29.65C293.673 27.5833 295.107 25.9667 296.907 24.8C298.707 23.6 300.757 23 303.057 23C304.357 23 305.54 23.2 306.607 23.6C307.707 23.9667 308.657 24.4833 309.457 25.15C310.29 25.8167 310.99 26.5833 311.557 27.45C312.123 28.3167 312.523 29.25 312.757 30.25L311.257 30V23.55H318.307V50H311.157V43.65L312.757 43.5C312.49 44.4333 312.057 45.3167 311.457 46.15C310.857 46.9833 310.107 47.7333 309.207 48.4C308.34 49.0333 307.357 49.55 306.257 49.95C305.157 50.3167 303.99 50.5 302.757 50.5ZM304.707 44.35C306.04 44.35 307.207 44.0333 308.207 43.4C309.207 42.7667 309.973 41.8833 310.507 40.75C311.073 39.5833 311.357 38.2333 311.357 36.7C311.357 35.2 311.073 33.8833 310.507 32.75C309.973 31.6167 309.207 30.7333 308.207 30.1C307.207 29.4333 306.04 29.1 304.707 29.1C303.407 29.1 302.257 29.4333 301.257 30.1C300.29 30.7333 299.523 31.6167 298.957 32.75C298.39 33.8833 298.107 35.2 298.107 36.7C298.107 38.2333 298.39 39.5833 298.957 40.75C299.523 41.8833 300.29 42.7667 301.257 43.4C302.257 44.0333 303.407 44.35 304.707 44.35Z" fill="black"/>
<path d="M4.7 118V83H11.2V112H27.35V118H4.7ZM45.0516 118.5C42.2849 118.5 39.8349 117.917 37.7016 116.75C35.6016 115.583 33.9516 114 32.7516 112C31.5849 109.967 31.0016 107.65 31.0016 105.05C31.0016 102.983 31.3349 101.1 32.0016 99.4C32.6682 97.7 33.5849 96.2333 34.7516 95C35.9516 93.7333 37.3682 92.7667 39.0016 92.1C40.6682 91.4 42.4849 91.05 44.4516 91.05C46.1849 91.05 47.8016 91.3833 49.3016 92.05C50.8016 92.7167 52.1016 93.6333 53.2016 94.8C54.3016 95.9333 55.1349 97.3 55.7016 98.9C56.3016 100.467 56.5849 102.183 56.5516 104.05L56.5016 106.2H35.1516L34.0016 102H51.3516L50.5516 102.85V101.75C50.4516 100.717 50.1182 99.8167 49.5516 99.05C48.9849 98.25 48.2516 97.6333 47.3516 97.2C46.4849 96.7333 45.5182 96.5 44.4516 96.5C42.8182 96.5 41.4349 96.8167 40.3016 97.45C39.2016 98.0833 38.3682 99 37.8016 100.2C37.2349 101.367 36.9516 102.833 36.9516 104.6C36.9516 106.3 37.3016 107.783 38.0016 109.05C38.7349 110.317 39.7516 111.3 41.0516 112C42.3849 112.667 43.9349 113 45.7016 113C46.9349 113 48.0682 112.8 49.1016 112.4C50.1349 112 51.2516 111.283 52.4516 110.25L55.5016 114.5C54.6016 115.333 53.5682 116.05 52.4016 116.65C51.2682 117.217 50.0682 117.667 48.8016 118C47.5349 118.333 46.2849 118.5 45.0516 118.5ZM78.902 118L71.402 107.85L70.002 105.95L59.152 91.65H66.752L74.052 101.55L75.602 103.65L86.352 118H78.902ZM59.102 118L69.552 104L73.052 108.2L66.352 118H59.102ZM75.602 105.7L72.252 101.55L78.302 91.65H85.552L75.602 105.7ZM101.595 118.5C98.8279 118.5 96.3779 117.917 94.2445 116.75C92.1445 115.583 90.4945 114 89.2945 112C88.1279 109.967 87.5445 107.65 87.5445 105.05C87.5445 102.983 87.8779 101.1 88.5445 99.4C89.2112 97.7 90.1279 96.2333 91.2945 95C92.4945 93.7333 93.9112 92.7667 95.5445 92.1C97.2112 91.4 99.0279 91.05 100.995 91.05C102.728 91.05 104.345 91.3833 105.845 92.05C107.345 92.7167 108.645 93.6333 109.745 94.8C110.845 95.9333 111.678 97.3 112.245 98.9C112.845 100.467 113.128 102.183 113.095 104.05L113.045 106.2H91.6945L90.5445 102H107.895L107.095 102.85V101.75C106.995 100.717 106.661 99.8167 106.095 99.05C105.528 98.25 104.795 97.6333 103.895 97.2C103.028 96.7333 102.061 96.5 100.995 96.5C99.3612 96.5 97.9779 96.8167 96.8445 97.45C95.7445 98.0833 94.9112 99 94.3445 100.2C93.7779 101.367 93.4945 102.833 93.4945 104.6C93.4945 106.3 93.8445 107.783 94.5445 109.05C95.2779 110.317 96.2945 111.3 97.5945 112C98.9279 112.667 100.478 113 102.245 113C103.478 113 104.611 112.8 105.645 112.4C106.678 112 107.795 111.283 108.995 110.25L112.045 114.5C111.145 115.333 110.111 116.05 108.945 116.65C107.811 117.217 106.611 117.667 105.345 118C104.078 118.333 102.828 118.5 101.595 118.5ZM118.541 118V91.65H124.541L124.641 97.05L123.491 97.65C123.825 96.45 124.475 95.3667 125.441 94.4C126.408 93.4 127.558 92.6 128.891 92C130.225 91.4 131.591 91.1 132.991 91.1C134.991 91.1 136.658 91.5 137.991 92.3C139.358 93.1 140.375 94.3 141.041 95.9C141.741 97.5 142.091 99.5 142.091 101.9V118H135.941V102.35C135.941 101.017 135.758 99.9167 135.391 99.05C135.025 98.15 134.458 97.5 133.691 97.1C132.925 96.6667 131.991 96.4667 130.891 96.5C129.991 96.5 129.158 96.65 128.391 96.95C127.658 97.2167 127.008 97.6167 126.441 98.15C125.908 98.65 125.475 99.2333 125.141 99.9C124.841 100.567 124.691 101.3 124.691 102.1V118H121.641C121.041 118 120.475 118 119.941 118C119.441 118 118.975 118 118.541 118ZM159.61 118.5C157.277 118.5 155.177 117.917 153.31 116.75C151.477 115.55 150.01 113.933 148.91 111.9C147.843 109.833 147.31 107.467 147.31 104.8C147.31 102.167 147.843 99.8167 148.91 97.75C149.977 95.6833 151.427 94.0667 153.26 92.9C155.127 91.7 157.227 91.1 159.56 91.1C160.827 91.1 162.043 91.3 163.21 91.7C164.41 92.1 165.477 92.65 166.41 93.35C167.343 94.0167 168.077 94.7667 168.61 95.6C169.177 96.4333 169.493 97.3 169.56 98.2L167.91 98.4V81H174.06V118H168.11L167.96 111.8L169.16 111.9C169.127 112.733 168.827 113.533 168.26 114.3C167.727 115.067 167.027 115.767 166.16 116.4C165.293 117.033 164.277 117.55 163.11 117.95C161.977 118.317 160.81 118.5 159.61 118.5ZM160.81 113.3C162.243 113.3 163.51 112.933 164.61 112.2C165.71 111.467 166.56 110.467 167.16 109.2C167.793 107.933 168.11 106.467 168.11 104.8C168.11 103.167 167.793 101.717 167.16 100.45C166.56 99.15 165.71 98.15 164.61 97.45C163.51 96.7167 162.243 96.35 160.81 96.35C159.377 96.35 158.11 96.7167 157.01 97.45C155.91 98.15 155.043 99.15 154.41 100.45C153.81 101.717 153.51 103.167 153.51 104.8C153.51 106.467 153.81 107.933 154.41 109.2C155.043 110.467 155.91 111.467 157.01 112.2C158.11 112.933 159.377 113.3 160.81 113.3ZM196.839 118V83H210.889C213.422 83 215.705 83.4167 217.739 84.25C219.805 85.0833 221.572 86.2833 223.039 87.85C224.539 89.4167 225.672 91.2667 226.439 93.4C227.239 95.5333 227.639 97.9 227.639 100.5C227.639 103.1 227.239 105.483 226.439 107.65C225.672 109.783 224.555 111.633 223.089 113.2C221.622 114.733 219.855 115.917 217.789 116.75C215.722 117.583 213.422 118 210.889 118H196.839ZM203.339 112.95L202.839 112H210.639C212.272 112 213.722 111.733 214.989 111.2C216.289 110.667 217.389 109.9 218.289 108.9C219.189 107.9 219.872 106.7 220.339 105.3C220.805 103.867 221.039 102.267 221.039 100.5C221.039 98.7333 220.805 97.15 220.339 95.75C219.872 94.3167 219.172 93.1 218.239 92.1C217.339 91.1 216.255 90.3333 214.989 89.8C213.722 89.2667 212.272 89 210.639 89H202.689L203.339 88.15V112.95ZM245.93 118.5C243.164 118.5 240.714 117.917 238.58 116.75C236.48 115.583 234.83 114 233.63 112C232.464 109.967 231.88 107.65 231.88 105.05C231.88 102.983 232.214 101.1 232.88 99.4C233.547 97.7 234.464 96.2333 235.63 95C236.83 93.7333 238.247 92.7667 239.88 92.1C241.547 91.4 243.364 91.05 245.33 91.05C247.064 91.05 248.68 91.3833 250.18 92.05C251.68 92.7167 252.98 93.6333 254.08 94.8C255.18 95.9333 256.014 97.3 256.58 98.9C257.18 100.467 257.464 102.183 257.43 104.05L257.38 106.2H236.03L234.88 102H252.23L251.43 102.85V101.75C251.33 100.717 250.997 99.8167 250.43 99.05C249.864 98.25 249.13 97.6333 248.23 97.2C247.364 96.7333 246.397 96.5 245.33 96.5C243.697 96.5 242.314 96.8167 241.18 97.45C240.08 98.0833 239.247 99 238.68 100.2C238.114 101.367 237.83 102.833 237.83 104.6C237.83 106.3 238.18 107.783 238.88 109.05C239.614 110.317 240.63 111.3 241.93 112C243.264 112.667 244.814 113 246.58 113C247.814 113 248.947 112.8 249.98 112.4C251.014 112 252.13 111.283 253.33 110.25L256.38 114.5C255.48 115.333 254.447 116.05 253.28 116.65C252.147 117.217 250.947 117.667 249.68 118C248.414 118.333 247.164 118.5 245.93 118.5ZM274.177 118.5C271.711 118.5 269.494 117.9 267.527 116.7C265.561 115.5 264.011 113.867 262.877 111.8C261.744 109.733 261.177 107.4 261.177 104.8C261.177 102.2 261.744 99.8667 262.877 97.8C264.011 95.7333 265.561 94.1 267.527 92.9C269.494 91.7 271.711 91.1 274.177 91.1C276.544 91.1 278.694 91.55 280.627 92.45C282.561 93.35 284.061 94.6 285.127 96.2L281.727 100.3C281.227 99.6 280.594 98.9667 279.827 98.4C279.061 97.8333 278.244 97.3833 277.377 97.05C276.511 96.7167 275.644 96.55 274.777 96.55C273.311 96.55 271.994 96.9167 270.827 97.65C269.694 98.35 268.794 99.3333 268.127 100.6C267.461 101.833 267.127 103.233 267.127 104.8C267.127 106.367 267.461 107.767 268.127 109C268.827 110.233 269.761 111.217 270.927 111.95C272.094 112.683 273.394 113.05 274.827 113.05C275.694 113.05 276.527 112.917 277.327 112.65C278.161 112.35 278.944 111.933 279.677 111.4C280.411 110.867 281.094 110.2 281.727 109.4L285.127 113.55C283.994 115.017 282.427 116.217 280.427 117.15C278.461 118.05 276.377 118.5 274.177 118.5ZM299.78 118.5C297.614 118.5 295.647 117.9 293.88 116.7C292.114 115.5 290.697 113.867 289.63 111.8C288.564 109.733 288.03 107.383 288.03 104.75C288.03 102.117 288.564 99.7667 289.63 97.7C290.697 95.6333 292.147 94.0167 293.98 92.85C295.814 91.6833 297.88 91.1 300.18 91.1C301.514 91.1 302.73 91.3 303.83 91.7C304.93 92.0667 305.897 92.6 306.73 93.3C307.564 94 308.247 94.8 308.78 95.7C309.347 96.6 309.73 97.5667 309.93 98.6L308.58 98.25V91.65H314.78V118H308.53V111.7L309.98 111.45C309.747 112.35 309.314 113.233 308.68 114.1C308.08 114.933 307.314 115.683 306.38 116.35C305.48 116.983 304.464 117.5 303.33 117.9C302.23 118.3 301.047 118.5 299.78 118.5ZM301.48 113.05C302.914 113.05 304.18 112.7 305.28 112C306.38 111.3 307.23 110.333 307.83 109.1C308.464 107.833 308.78 106.383 308.78 104.75C308.78 103.15 308.464 101.733 307.83 100.5C307.23 99.2667 306.38 98.3 305.28 97.6C304.18 96.9 302.914 96.55 301.48 96.55C300.047 96.55 298.78 96.9 297.68 97.6C296.614 98.3 295.78 99.2667 295.18 100.5C294.58 101.733 294.28 103.15 294.28 104.75C294.28 106.383 294.58 107.833 295.18 109.1C295.78 110.333 296.614 111.3 297.68 112C298.78 112.7 300.047 113.05 301.48 113.05Z" fill="black"/>
<path d="M5.15 186V151H9.05V182.2H25.85V186H5.15ZM42.4938 186.5C39.8938 186.5 37.5771 185.933 35.5438 184.8C33.5438 183.667 31.9771 182.083 30.8438 180.05C29.7104 178.017 29.1438 175.683 29.1438 173.05C29.1438 171.017 29.4604 169.183 30.0938 167.55C30.7271 165.883 31.6104 164.433 32.7438 163.2C33.9104 161.967 35.2938 161.017 36.8938 160.35C38.4938 159.65 40.2271 159.3 42.0938 159.3C43.8604 159.3 45.4604 159.617 46.8938 160.25C48.3604 160.883 49.6104 161.767 50.6438 162.9C51.7104 164 52.5104 165.317 53.0437 166.85C53.5771 168.383 53.8104 170.067 53.7437 171.9L53.6938 173.65H31.9438L31.3938 170.5H50.8438L49.9438 171.35V170.15C49.8771 168.95 49.5271 167.8 48.8938 166.7C48.2604 165.567 47.3604 164.65 46.1938 163.95C45.0604 163.25 43.6938 162.9 42.0938 162.9C40.2271 162.9 38.6104 163.283 37.2438 164.05C35.8771 164.783 34.8271 165.883 34.0938 167.35C33.3604 168.817 32.9938 170.633 32.9938 172.8C32.9938 174.867 33.3938 176.667 34.1938 178.2C34.9938 179.7 36.1271 180.867 37.5938 181.7C39.0938 182.533 40.8938 182.95 42.9938 182.95C44.2271 182.95 45.4438 182.75 46.6438 182.35C47.8771 181.917 49.2271 181.083 50.6938 179.85L52.6438 182.55C51.8771 183.317 50.9604 184 49.8938 184.6C48.8271 185.167 47.6604 185.633 46.3938 186C45.1271 186.333 43.8271 186.5 42.4938 186.5ZM76.6734 186L67.6234 174.35L67.1734 173.8L56.3234 159.9H61.0734L69.9734 171.35L70.4734 172L81.3734 186H76.6734ZM56.1234 186L66.7734 172.25L69.0234 174.95L60.6234 186H56.1234ZM70.7234 173.2L68.5734 170.55L76.1734 159.9H80.7234L70.7234 173.2ZM95.8141 186.5C93.2141 186.5 90.8974 185.933 88.8641 184.8C86.8641 183.667 85.2974 182.083 84.1641 180.05C83.0307 178.017 82.4641 175.683 82.4641 173.05C82.4641 171.017 82.7807 169.183 83.4141 167.55C84.0474 165.883 84.9307 164.433 86.0641 163.2C87.2307 161.967 88.6141 161.017 90.2141 160.35C91.8141 159.65 93.5474 159.3 95.4141 159.3C97.1807 159.3 98.7807 159.617 100.214 160.25C101.681 160.883 102.931 161.767 103.964 162.9C105.031 164 105.831 165.317 106.364 166.85C106.897 168.383 107.131 170.067 107.064 171.9L107.014 173.65H85.2641L84.7141 170.5H104.164L103.264 171.35V170.15C103.197 168.95 102.847 167.8 102.214 166.7C101.581 165.567 100.681 164.65 99.5141 163.95C98.3807 163.25 97.0141 162.9 95.4141 162.9C93.5474 162.9 91.9307 163.283 90.5641 164.05C89.1974 164.783 88.1474 165.883 87.4141 167.35C86.6807 168.817 86.3141 170.633 86.3141 172.8C86.3141 174.867 86.7141 176.667 87.5141 178.2C88.3141 179.7 89.4474 180.867 90.9141 181.7C92.4141 182.533 94.2141 182.95 96.3141 182.95C97.5474 182.95 98.7641 182.75 99.9641 182.35C101.197 181.917 102.547 181.083 104.014 179.85L105.964 182.55C105.197 183.317 104.281 184 103.214 184.6C102.147 185.167 100.981 185.633 99.7141 186C98.4474 186.333 97.1474 186.5 95.8141 186.5ZM112.39 186V159.9H116.09L116.24 165.35L115.64 165.6C115.974 164.467 116.624 163.433 117.59 162.5C118.557 161.567 119.707 160.817 121.04 160.25C122.407 159.65 123.807 159.35 125.24 159.35C127.174 159.35 128.79 159.733 130.09 160.5C131.39 161.267 132.374 162.45 133.04 164.05C133.707 165.65 134.04 167.683 134.04 170.15V186H130.24V170.35C130.24 168.617 130.007 167.2 129.54 166.1C129.107 164.967 128.424 164.133 127.49 163.6C126.557 163.067 125.407 162.817 124.04 162.85C122.907 162.85 121.857 163.05 120.89 163.45C119.924 163.817 119.09 164.333 118.39 165C117.69 165.667 117.14 166.433 116.74 167.3C116.34 168.167 116.14 169.1 116.14 170.1V186H114.29C114.057 186 113.79 186 113.49 186C113.19 186 112.824 186 112.39 186ZM151.799 186.5C149.432 186.5 147.299 185.917 145.399 184.75C143.532 183.583 142.049 181.983 140.949 179.95C139.882 177.883 139.349 175.55 139.349 172.95C139.349 170.317 139.899 167.983 140.999 165.95C142.099 163.883 143.582 162.267 145.449 161.1C147.315 159.933 149.415 159.35 151.749 159.35C153.049 159.35 154.299 159.55 155.499 159.95C156.732 160.35 157.832 160.917 158.799 161.65C159.765 162.35 160.565 163.167 161.199 164.1C161.832 165 162.215 165.95 162.349 166.95L161.199 166.55V149H164.949V186H161.249L161.149 179.5L162.099 179.15C161.965 180.083 161.582 181 160.949 181.9C160.349 182.767 159.582 183.55 158.649 184.25C157.715 184.95 156.649 185.5 155.449 185.9C154.282 186.3 153.065 186.5 151.799 186.5ZM152.349 183.05C154.082 183.05 155.632 182.617 156.999 181.75C158.365 180.883 159.432 179.683 160.199 178.15C160.999 176.617 161.399 174.867 161.399 172.9C161.399 170.933 160.999 169.2 160.199 167.7C159.432 166.167 158.365 164.967 156.999 164.1C155.632 163.2 154.082 162.75 152.349 162.75C150.549 162.75 148.965 163.2 147.599 164.1C146.265 164.967 145.199 166.167 144.399 167.7C143.632 169.2 143.249 170.933 143.249 172.9C143.249 174.833 143.632 176.567 144.399 178.1C145.165 179.633 146.232 180.85 147.599 181.75C148.965 182.617 150.549 183.05 152.349 183.05ZM187.767 186V151H200.967C203.367 151 205.551 151.433 207.517 152.3C209.517 153.133 211.251 154.333 212.717 155.9C214.184 157.467 215.317 159.317 216.117 161.45C216.917 163.583 217.317 165.933 217.317 168.5C217.317 171.067 216.917 173.433 216.117 175.6C215.317 177.733 214.184 179.583 212.717 181.15C211.284 182.683 209.567 183.883 207.567 184.75C205.567 185.583 203.367 186 200.967 186H187.767ZM191.667 182.9L191.217 182.2H200.717C202.551 182.2 204.234 181.883 205.767 181.25C207.334 180.583 208.667 179.65 209.767 178.45C210.901 177.217 211.767 175.767 212.367 174.1C213.001 172.433 213.317 170.567 213.317 168.5C213.317 166.433 213.001 164.567 212.367 162.9C211.767 161.233 210.901 159.8 209.767 158.6C208.634 157.367 207.301 156.433 205.767 155.8C204.234 155.133 202.551 154.8 200.717 154.8H191.067L191.667 154.2V182.9ZM234.925 186.5C232.325 186.5 230.009 185.933 227.975 184.8C225.975 183.667 224.409 182.083 223.275 180.05C222.142 178.017 221.575 175.683 221.575 173.05C221.575 171.017 221.892 169.183 222.525 167.55C223.159 165.883 224.042 164.433 225.175 163.2C226.342 161.967 227.725 161.017 229.325 160.35C230.925 159.65 232.659 159.3 234.525 159.3C236.292 159.3 237.892 159.617 239.325 160.25C240.792 160.883 242.042 161.767 243.075 162.9C244.142 164 244.942 165.317 245.475 166.85C246.009 168.383 246.242 170.067 246.175 171.9L246.125 173.65H224.375L223.825 170.5H243.275L242.375 171.35V170.15C242.309 168.95 241.959 167.8 241.325 166.7C240.692 165.567 239.792 164.65 238.625 163.95C237.492 163.25 236.125 162.9 234.525 162.9C232.659 162.9 231.042 163.283 229.675 164.05C228.309 164.783 227.259 165.883 226.525 167.35C225.792 168.817 225.425 170.633 225.425 172.8C225.425 174.867 225.825 176.667 226.625 178.2C227.425 179.7 228.559 180.867 230.025 181.7C231.525 182.533 233.325 182.95 235.425 182.95C236.659 182.95 237.875 182.75 239.075 182.35C240.309 181.917 241.659 181.083 243.125 179.85L245.075 182.55C244.309 183.317 243.392 184 242.325 184.6C241.259 185.167 240.092 185.633 238.825 186C237.559 186.333 236.259 186.5 234.925 186.5ZM262.502 186.5C260.035 186.5 257.835 185.917 255.902 184.75C253.968 183.55 252.435 181.933 251.302 179.9C250.202 177.833 249.652 175.5 249.652 172.9C249.652 170.3 250.202 167.983 251.302 165.95C252.435 163.883 253.968 162.267 255.902 161.1C257.835 159.933 260.052 159.35 262.552 159.35C264.785 159.35 266.818 159.8 268.652 160.7C270.485 161.567 271.952 162.783 273.052 164.35L270.852 167.05C270.218 166.217 269.452 165.483 268.552 164.85C267.685 164.217 266.735 163.733 265.702 163.4C264.702 163.033 263.702 162.85 262.702 162.85C260.935 162.85 259.352 163.3 257.952 164.2C256.552 165.067 255.435 166.25 254.602 167.75C253.802 169.25 253.402 170.967 253.402 172.9C253.402 174.833 253.802 176.567 254.602 178.1C255.435 179.6 256.552 180.783 257.952 181.65C259.352 182.517 260.918 182.95 262.652 182.95C263.652 182.95 264.635 182.8 265.602 182.5C266.568 182.167 267.485 181.7 268.352 181.1C269.218 180.5 270.018 179.75 270.752 178.85L272.952 181.55C271.818 183.05 270.302 184.25 268.402 185.15C266.502 186.05 264.535 186.5 262.502 186.5ZM288.02 186.5C285.753 186.5 283.703 185.917 281.87 184.75C280.037 183.55 278.587 181.933 277.52 179.9C276.453 177.833 275.92 175.5 275.92 172.9C275.92 170.267 276.47 167.933 277.57 165.9C278.67 163.867 280.137 162.267 281.97 161.1C283.837 159.933 285.92 159.35 288.22 159.35C289.587 159.35 290.853 159.55 292.02 159.95C293.187 160.35 294.22 160.917 295.12 161.65C296.053 162.35 296.82 163.183 297.42 164.15C298.053 165.083 298.487 166.1 298.72 167.2L297.62 166.65L297.77 159.9H301.52V186H297.72V179.6L298.72 178.95C298.487 179.95 298.037 180.917 297.37 181.85C296.703 182.75 295.887 183.55 294.92 184.25C293.987 184.95 292.92 185.5 291.72 185.9C290.553 186.3 289.32 186.5 288.02 186.5ZM288.87 182.9C290.603 182.9 292.153 182.483 293.52 181.65C294.887 180.783 295.953 179.6 296.72 178.1C297.52 176.567 297.92 174.833 297.92 172.9C297.92 170.967 297.52 169.25 296.72 167.75C295.953 166.25 294.887 165.067 293.52 164.2C292.153 163.333 290.603 162.9 288.87 162.9C287.103 162.9 285.537 163.333 284.17 164.2C282.837 165.067 281.77 166.25 280.97 167.75C280.203 169.25 279.82 170.967 279.82 172.9C279.82 174.8 280.203 176.517 280.97 178.05C281.737 179.55 282.803 180.733 284.17 181.6C285.537 182.467 287.103 182.9 288.87 182.9Z" fill="black"/>
</svg>
