<svg width="1412" height="298" viewBox="0 0 1412 298" fill="none" xmlns="http://www.w3.org/2000/svg">
<rect x="20" y="20" width="1372" height="92" fill="#FAFAFA"/>
<path d="M46.3236 85V43H53.7036L69.0036 67.9L64.6836 67.84L80.1636 43H87.1836V85H79.4436V69.22C79.4436 65.62 79.5236 62.38 79.6836 59.5C79.8836 56.62 80.2036 53.76 80.6436 50.92L81.6036 53.5L68.5836 73.6H64.6236L52.0236 53.68L52.8636 50.92C53.3036 53.6 53.6036 56.36 53.7636 59.2C53.9636 62 54.0636 65.34 54.0636 69.22V85H46.3236ZM111.612 85.6C108.452 85.6 105.632 84.9 103.152 83.5C100.672 82.06 98.712 80.1 97.272 77.62C95.832 75.14 95.112 72.32 95.112 69.16C95.112 66 95.832 63.18 97.272 60.7C98.712 58.22 100.672 56.28 103.152 54.88C105.632 53.44 108.452 52.72 111.612 52.72C114.732 52.72 117.532 53.44 120.012 54.88C122.492 56.28 124.432 58.22 125.832 60.7C127.272 63.18 127.992 66 127.992 69.16C127.992 72.32 127.272 75.14 125.832 77.62C124.432 80.1 122.492 82.06 120.012 83.5C117.532 84.9 114.732 85.6 111.612 85.6ZM111.612 79.06C113.332 79.06 114.852 78.62 116.172 77.74C117.532 76.86 118.592 75.68 119.352 74.2C120.152 72.72 120.532 71.04 120.492 69.16C120.532 67.24 120.152 65.54 119.352 64.06C118.592 62.58 117.532 61.42 116.172 60.58C114.852 59.7 113.332 59.26 111.612 59.26C109.892 59.26 108.332 59.7 106.932 60.58C105.572 61.42 104.512 62.6 103.752 64.12C102.992 65.6 102.612 67.28 102.612 69.16C102.612 71.04 102.992 72.72 103.752 74.2C104.512 75.68 105.572 76.86 106.932 77.74C108.332 78.62 109.892 79.06 111.612 79.06ZM147.313 85.6C144.513 85.6 141.993 84.9 139.753 83.5C137.553 82.06 135.793 80.12 134.473 77.68C133.193 75.2 132.553 72.36 132.553 69.16C132.553 66 133.193 63.18 134.473 60.7C135.753 58.22 137.493 56.28 139.693 54.88C141.933 53.44 144.453 52.72 147.253 52.72C148.773 52.72 150.233 52.96 151.633 53.44C153.073 53.92 154.353 54.58 155.473 55.42C156.593 56.22 157.473 57.12 158.113 58.12C158.793 59.12 159.173 60.16 159.253 61.24L157.273 61.48V40.6H164.653V85H157.513L157.333 77.56L158.773 77.68C158.733 78.68 158.373 79.64 157.693 80.56C157.053 81.48 156.213 82.32 155.173 83.08C154.133 83.84 152.913 84.46 151.513 84.94C150.153 85.38 148.753 85.6 147.313 85.6ZM148.753 79.36C150.473 79.36 151.993 78.92 153.313 78.04C154.633 77.16 155.653 75.96 156.373 74.44C157.133 72.92 157.513 71.16 157.513 69.16C157.513 67.2 157.133 65.46 156.373 63.94C155.653 62.38 154.633 61.18 153.313 60.34C151.993 59.46 150.473 59.02 148.753 59.02C147.033 59.02 145.513 59.46 144.193 60.34C142.873 61.18 141.833 62.38 141.073 63.94C140.353 65.46 139.993 67.2 139.993 69.16C139.993 71.16 140.353 72.92 141.073 74.44C141.833 75.96 142.873 77.16 144.193 78.04C145.513 78.92 147.033 79.36 148.753 79.36ZM184.948 85.6C182.668 85.6 180.688 85.1 179.008 84.1C177.328 83.06 176.048 81.6 175.168 79.72C174.288 77.8 173.848 75.52 173.848 72.88V53.38H181.228V71.32C181.228 73 181.488 74.44 182.008 75.64C182.528 76.8 183.288 77.7 184.288 78.34C185.288 78.98 186.488 79.3 187.888 79.3C188.928 79.3 189.868 79.14 190.708 78.82C191.588 78.46 192.348 77.98 192.988 77.38C193.628 76.74 194.128 76 194.488 75.16C194.848 74.28 195.028 73.34 195.028 72.34V53.38H202.408V85H195.208L195.088 78.4L196.408 77.68C195.928 79.2 195.108 80.56 193.948 81.76C192.828 82.92 191.488 83.86 189.928 84.58C188.368 85.26 186.708 85.6 184.948 85.6ZM211.118 85V40.6H218.558V85H211.118ZM241.464 85.6C238.144 85.6 235.204 84.9 232.644 83.5C230.124 82.1 228.144 80.2 226.704 77.8C225.304 75.36 224.604 72.58 224.604 69.46C224.604 66.98 225.004 64.72 225.804 62.68C226.604 60.64 227.704 58.88 229.104 57.4C230.544 55.88 232.244 54.72 234.204 53.92C236.204 53.08 238.384 52.66 240.744 52.66C242.824 52.66 244.764 53.06 246.564 53.86C248.364 54.66 249.924 55.76 251.244 57.16C252.564 58.52 253.564 60.16 254.244 62.08C254.964 63.96 255.304 66.02 255.264 68.26L255.204 70.84H229.584L228.204 65.8H249.024L248.064 66.82V65.5C247.944 64.26 247.544 63.18 246.864 62.26C246.184 61.3 245.304 60.56 244.224 60.04C243.184 59.48 242.024 59.2 240.744 59.2C238.784 59.2 237.124 59.58 235.764 60.34C234.444 61.1 233.444 62.2 232.764 63.64C232.084 65.04 231.744 66.8 231.744 68.92C231.744 70.96 232.164 72.74 233.004 74.26C233.884 75.78 235.104 76.96 236.664 77.8C238.264 78.6 240.124 79 242.244 79C243.724 79 245.084 78.76 246.324 78.28C247.564 77.8 248.904 76.94 250.344 75.7L254.004 80.8C252.924 81.8 251.684 82.66 250.284 83.38C248.924 84.06 247.484 84.6 245.964 85C244.444 85.4 242.944 85.6 241.464 85.6ZM288.017 82.06V47.98L290.237 50.86L281.717 55.18L279.977 48.34L291.437 42.4H295.757V82.06H288.017ZM280.997 85V77.8H302.957V85H280.997ZM325.365 85.6C321.965 85.6 319.045 84.74 316.605 83.02C314.205 81.26 312.345 78.78 311.025 75.58C309.745 72.34 309.105 68.48 309.105 64C309.105 59.52 309.745 55.68 311.025 52.48C312.345 49.24 314.205 46.76 316.605 45.04C319.045 43.28 321.965 42.4 325.365 42.4C328.765 42.4 331.685 43.28 334.125 45.04C336.565 46.76 338.425 49.24 339.705 52.48C341.025 55.68 341.685 59.52 341.685 64C341.685 68.48 341.025 72.34 339.705 75.58C338.425 78.78 336.565 81.26 334.125 83.02C331.685 84.74 328.765 85.6 325.365 85.6ZM325.365 78.76C328.165 78.76 330.325 77.48 331.845 74.92C333.405 72.32 334.185 68.68 334.185 64C334.185 59.28 333.405 55.62 331.845 53.02C330.325 50.42 328.165 49.12 325.365 49.12C322.565 49.12 320.385 50.42 318.825 53.02C317.305 55.62 316.545 59.28 316.545 64C316.545 68.68 317.305 72.32 318.825 74.92C320.385 77.48 322.565 78.76 325.365 78.76Z" fill="black"/>
<path d="M941.897 81V53H946.817L957.017 69.6L954.137 69.56L964.457 53H969.137V81H963.977V70.48C963.977 68.08 964.03 65.92 964.137 64C964.27 62.08 964.483 60.1733 964.777 58.28L965.417 60L956.737 73.4H954.097L945.697 60.12L946.257 58.28C946.55 60.0667 946.75 61.9067 946.857 63.8C946.99 65.6667 947.057 67.8933 947.057 70.48V81H941.897ZM983.742 81.4C982.009 81.4 980.436 80.92 979.022 79.96C977.609 79 976.476 77.6933 975.622 76.04C974.769 74.3867 974.342 72.5067 974.342 70.4C974.342 68.2933 974.769 66.4133 975.622 64.76C976.476 63.1067 977.636 61.8133 979.102 60.88C980.569 59.9467 982.222 59.48 984.062 59.48C985.129 59.48 986.102 59.64 986.982 59.96C987.862 60.2533 988.636 60.68 989.302 61.24C989.969 61.8 990.516 62.44 990.942 63.16C991.396 63.88 991.702 64.6533 991.862 65.48L990.782 65.2V59.92H995.742V81H990.742V75.96L991.902 75.76C991.716 76.48 991.369 77.1867 990.862 77.88C990.382 78.5467 989.769 79.1467 989.022 79.68C988.302 80.1867 987.489 80.6 986.582 80.92C985.702 81.24 984.756 81.4 983.742 81.4ZM985.102 77.04C986.249 77.04 987.262 76.76 988.142 76.2C989.022 75.64 989.702 74.8667 990.182 73.88C990.689 72.8667 990.942 71.7067 990.942 70.4C990.942 69.12 990.689 67.9867 990.182 67C989.702 66.0133 989.022 65.24 988.142 64.68C987.262 64.12 986.249 63.84 985.102 63.84C983.956 63.84 982.942 64.12 982.062 64.68C981.209 65.24 980.542 66.0133 980.062 67C979.582 67.9867 979.342 69.12 979.342 70.4C979.342 71.7067 979.582 72.8667 980.062 73.88C980.542 74.8667 981.209 75.64 982.062 76.2C982.942 76.76 983.956 77.04 985.102 77.04ZM1001.45 81V59.92H1006.29L1006.37 66.64L1005.69 65.12C1005.98 64.0533 1006.49 63.0933 1007.21 62.24C1007.93 61.3867 1008.75 60.72 1009.69 60.24C1010.65 59.7333 1011.65 59.48 1012.69 59.48C1013.14 59.48 1013.57 59.52 1013.97 59.6C1014.39 59.68 1014.74 59.7733 1015.01 59.88L1013.69 65.28C1013.39 65.12 1013.03 64.9867 1012.61 64.88C1012.18 64.7733 1011.75 64.72 1011.33 64.72C1010.66 64.72 1010.02 64.8533 1009.41 65.12C1008.82 65.36 1008.3 65.7067 1007.85 66.16C1007.39 66.6133 1007.03 67.1467 1006.77 67.76C1006.53 68.3467 1006.41 69.0133 1006.41 69.76V81H1001.45ZM1022.88 74.56L1021.92 69.96L1031.92 59.92H1038.48L1022.88 74.56ZM1018.28 81V51.4H1023.2V81H1018.28ZM1032.52 81L1024.76 71.6L1028.24 68.64L1038.6 81H1032.52ZM1051.35 81L1062.27 53H1067.15L1077.99 81H1072.59L1066.59 65.08C1066.46 64.76 1066.27 64.2533 1066.03 63.56C1065.82 62.8667 1065.58 62.12 1065.31 61.32C1065.05 60.4933 1064.81 59.7333 1064.59 59.04C1064.38 58.32 1064.22 57.8 1064.11 57.48L1065.11 57.44C1064.95 57.9733 1064.77 58.5733 1064.55 59.24C1064.34 59.9067 1064.11 60.6 1063.87 61.32C1063.63 62.04 1063.39 62.7333 1063.15 63.4C1062.94 64.0667 1062.74 64.6667 1062.55 65.2L1056.55 81H1051.35ZM1056.31 74.6L1058.11 70.08H1070.87L1072.79 74.6H1056.31ZM1088.56 81.4C1086.7 81.4 1085.02 81.0933 1083.52 80.48C1082.06 79.84 1080.86 78.9333 1079.92 77.76L1083.12 75C1083.92 75.9067 1084.82 76.56 1085.8 76.96C1086.79 77.36 1087.83 77.56 1088.92 77.56C1089.38 77.56 1089.78 77.5067 1090.12 77.4C1090.5 77.2933 1090.82 77.1333 1091.08 76.92C1091.35 76.7067 1091.55 76.4667 1091.68 76.2C1091.84 75.9067 1091.92 75.5867 1091.92 75.24C1091.92 74.6 1091.68 74.0933 1091.2 73.72C1090.94 73.5333 1090.51 73.3333 1089.92 73.12C1089.36 72.9067 1088.63 72.6933 1087.72 72.48C1086.28 72.1067 1085.08 71.68 1084.12 71.2C1083.16 70.6933 1082.42 70.1333 1081.88 69.52C1081.43 69.0133 1081.08 68.44 1080.84 67.8C1080.63 67.16 1080.52 66.4667 1080.52 65.72C1080.52 64.7867 1080.72 63.9467 1081.12 63.2C1081.55 62.4267 1082.12 61.76 1082.84 61.2C1083.56 60.64 1084.4 60.2133 1085.36 59.92C1086.32 59.6267 1087.32 59.48 1088.36 59.48C1089.43 59.48 1090.46 59.6133 1091.44 59.88C1092.46 60.1467 1093.39 60.5333 1094.24 61.04C1095.12 61.52 1095.87 62.1067 1096.48 62.8L1093.76 65.8C1093.26 65.32 1092.7 64.8933 1092.08 64.52C1091.5 64.1467 1090.9 63.8533 1090.28 63.64C1089.67 63.4 1089.1 63.28 1088.56 63.28C1088.06 63.28 1087.6 63.3333 1087.2 63.44C1086.8 63.52 1086.47 63.6533 1086.2 63.84C1085.94 64.0267 1085.72 64.2667 1085.56 64.56C1085.43 64.8267 1085.36 65.1467 1085.36 65.52C1085.39 65.84 1085.47 66.1467 1085.6 66.44C1085.76 66.7067 1085.98 66.9333 1086.24 67.12C1086.54 67.3067 1086.98 67.52 1087.56 67.76C1088.15 68 1088.91 68.2267 1089.84 68.44C1091.15 68.7867 1092.24 69.1733 1093.12 69.6C1094 70.0267 1094.7 70.52 1095.2 71.08C1095.71 71.56 1096.07 72.12 1096.28 72.76C1096.5 73.4 1096.6 74.1067 1096.6 74.88C1096.6 76.1333 1096.24 77.2533 1095.52 78.24C1094.83 79.2267 1093.87 80 1092.64 80.56C1091.44 81.12 1090.08 81.4 1088.56 81.4ZM1113.58 81V53H1124.82C1126.84 53 1128.67 53.3333 1130.3 54C1131.95 54.6667 1133.36 55.6267 1134.54 56.88C1135.74 58.1333 1136.64 59.6133 1137.26 61.32C1137.9 63.0267 1138.22 64.92 1138.22 67C1138.22 69.08 1137.9 70.9867 1137.26 72.72C1136.64 74.4267 1135.75 75.9067 1134.58 77.16C1133.4 78.3867 1131.99 79.3333 1130.34 80C1128.68 80.6667 1126.84 81 1124.82 81H1113.58ZM1118.78 76.96L1118.38 76.2H1124.62C1125.92 76.2 1127.08 75.9867 1128.1 75.56C1129.14 75.1333 1130.02 74.52 1130.74 73.72C1131.46 72.92 1132 71.96 1132.38 70.84C1132.75 69.6933 1132.94 68.4133 1132.94 67C1132.94 65.5867 1132.75 64.32 1132.38 63.2C1132 62.0533 1131.44 61.08 1130.7 60.28C1129.98 59.48 1129.11 58.8667 1128.1 58.44C1127.08 58.0133 1125.92 57.8 1124.62 57.8H1118.26L1118.78 57.12V76.96ZM1152.61 81.4C1150.5 81.4 1148.62 80.9333 1146.97 80C1145.32 79.04 1144.01 77.7333 1143.05 76.08C1142.09 74.4267 1141.61 72.5467 1141.61 70.44C1141.61 68.3333 1142.09 66.4533 1143.05 64.8C1144.01 63.1467 1145.32 61.8533 1146.97 60.92C1148.62 59.96 1150.5 59.48 1152.61 59.48C1154.69 59.48 1156.56 59.96 1158.21 60.92C1159.86 61.8533 1161.16 63.1467 1162.09 64.8C1163.05 66.4533 1163.53 68.3333 1163.53 70.44C1163.53 72.5467 1163.05 74.4267 1162.09 76.08C1161.16 77.7333 1159.86 79.04 1158.21 80C1156.56 80.9333 1154.69 81.4 1152.61 81.4ZM1152.61 77.04C1153.76 77.04 1154.77 76.7467 1155.65 76.16C1156.56 75.5733 1157.26 74.7867 1157.77 73.8C1158.3 72.8133 1158.56 71.6933 1158.53 70.44C1158.56 69.16 1158.3 68.0267 1157.77 67.04C1157.26 66.0533 1156.56 65.28 1155.65 64.72C1154.77 64.1333 1153.76 63.84 1152.61 63.84C1151.46 63.84 1150.42 64.1333 1149.49 64.72C1148.58 65.28 1147.88 66.0667 1147.37 67.08C1146.86 68.0667 1146.61 69.1867 1146.61 70.44C1146.61 71.6933 1146.86 72.8133 1147.37 73.8C1147.88 74.7867 1148.58 75.5733 1149.49 76.16C1150.42 76.7467 1151.46 77.04 1152.61 77.04ZM1167.93 81V59.92H1172.73L1172.81 64.24L1171.89 64.72C1172.16 63.76 1172.68 62.8933 1173.45 62.12C1174.22 61.32 1175.14 60.68 1176.21 60.2C1177.28 59.72 1178.37 59.48 1179.49 59.48C1181.09 59.48 1182.42 59.8 1183.49 60.44C1184.58 61.08 1185.4 62.04 1185.93 63.32C1186.49 64.6 1186.77 66.2 1186.77 68.12V81H1181.85V68.48C1181.85 67.4133 1181.7 66.5333 1181.41 65.84C1181.12 65.12 1180.66 64.6 1180.05 64.28C1179.44 63.9333 1178.69 63.7733 1177.81 63.8C1177.09 63.8 1176.42 63.92 1175.81 64.16C1175.22 64.3733 1174.7 64.6933 1174.25 65.12C1173.82 65.52 1173.48 65.9867 1173.21 66.52C1172.97 67.0533 1172.85 67.64 1172.85 68.28V81H1170.41C1169.93 81 1169.48 81 1169.05 81C1168.65 81 1168.28 81 1167.93 81ZM1202.19 81.4C1199.97 81.4 1198.01 80.9333 1196.31 80C1194.63 79.0667 1193.31 77.8 1192.35 76.2C1191.41 74.5733 1190.95 72.72 1190.95 70.64C1190.95 68.9867 1191.21 67.48 1191.75 66.12C1192.28 64.76 1193.01 63.5867 1193.95 62.6C1194.91 61.5867 1196.04 60.8133 1197.35 60.28C1198.68 59.72 1200.13 59.44 1201.71 59.44C1203.09 59.44 1204.39 59.7067 1205.59 60.24C1206.79 60.7733 1207.83 61.5067 1208.71 62.44C1209.59 63.3467 1210.25 64.44 1210.71 65.72C1211.19 66.9733 1211.41 68.3467 1211.39 69.84L1211.35 71.56H1194.27L1193.35 68.2H1207.23L1206.59 68.88V68C1206.51 67.1733 1206.24 66.4533 1205.79 65.84C1205.33 65.2 1204.75 64.7067 1204.03 64.36C1203.33 63.9867 1202.56 63.8 1201.71 63.8C1200.4 63.8 1199.29 64.0533 1198.39 64.56C1197.51 65.0667 1196.84 65.8 1196.39 66.76C1195.93 67.6933 1195.71 68.8667 1195.71 70.28C1195.71 71.64 1195.99 72.8267 1196.55 73.84C1197.13 74.8533 1197.95 75.64 1198.99 76.2C1200.05 76.7333 1201.29 77 1202.71 77C1203.69 77 1204.6 76.84 1205.43 76.52C1206.25 76.2 1207.15 75.6267 1208.11 74.8L1210.55 78.2C1209.83 78.8667 1209 79.44 1208.07 79.92C1207.16 80.3733 1206.2 80.7333 1205.19 81C1204.17 81.2667 1203.17 81.4 1202.19 81.4Z" fill="#ACA5A5"/>
<rect x="20" y="159" width="1372" height="92" fill="#545FD1"/>
<path d="M46.3236 224V182H53.7036L69.0036 206.9L64.6836 206.84L80.1636 182H87.1836V224H79.4436V208.22C79.4436 204.62 79.5236 201.38 79.6836 198.5C79.8836 195.62 80.2036 192.76 80.6436 189.92L81.6036 192.5L68.5836 212.6H64.6236L52.0236 192.68L52.8636 189.92C53.3036 192.6 53.6036 195.36 53.7636 198.2C53.9636 201 54.0636 204.34 54.0636 208.22V224H46.3236ZM111.612 224.6C108.452 224.6 105.632 223.9 103.152 222.5C100.672 221.06 98.712 219.1 97.272 216.62C95.832 214.14 95.112 211.32 95.112 208.16C95.112 205 95.832 202.18 97.272 199.7C98.712 197.22 100.672 195.28 103.152 193.88C105.632 192.44 108.452 191.72 111.612 191.72C114.732 191.72 117.532 192.44 120.012 193.88C122.492 195.28 124.432 197.22 125.832 199.7C127.272 202.18 127.992 205 127.992 208.16C127.992 211.32 127.272 214.14 125.832 216.62C124.432 219.1 122.492 221.06 120.012 222.5C117.532 223.9 114.732 224.6 111.612 224.6ZM111.612 218.06C113.332 218.06 114.852 217.62 116.172 216.74C117.532 215.86 118.592 214.68 119.352 213.2C120.152 211.72 120.532 210.04 120.492 208.16C120.532 206.24 120.152 204.54 119.352 203.06C118.592 201.58 117.532 200.42 116.172 199.58C114.852 198.7 113.332 198.26 111.612 198.26C109.892 198.26 108.332 198.7 106.932 199.58C105.572 200.42 104.512 201.6 103.752 203.12C102.992 204.6 102.612 206.28 102.612 208.16C102.612 210.04 102.992 211.72 103.752 213.2C104.512 214.68 105.572 215.86 106.932 216.74C108.332 217.62 109.892 218.06 111.612 218.06ZM147.313 224.6C144.513 224.6 141.993 223.9 139.753 222.5C137.553 221.06 135.793 219.12 134.473 216.68C133.193 214.2 132.553 211.36 132.553 208.16C132.553 205 133.193 202.18 134.473 199.7C135.753 197.22 137.493 195.28 139.693 193.88C141.933 192.44 144.453 191.72 147.253 191.72C148.773 191.72 150.233 191.96 151.633 192.44C153.073 192.92 154.353 193.58 155.473 194.42C156.593 195.22 157.473 196.12 158.113 197.12C158.793 198.12 159.173 199.16 159.253 200.24L157.273 200.48V179.6H164.653V224H157.513L157.333 216.56L158.773 216.68C158.733 217.68 158.373 218.64 157.693 219.56C157.053 220.48 156.213 221.32 155.173 222.08C154.133 222.84 152.913 223.46 151.513 223.94C150.153 224.38 148.753 224.6 147.313 224.6ZM148.753 218.36C150.473 218.36 151.993 217.92 153.313 217.04C154.633 216.16 155.653 214.96 156.373 213.44C157.133 211.92 157.513 210.16 157.513 208.16C157.513 206.2 157.133 204.46 156.373 202.94C155.653 201.38 154.633 200.18 153.313 199.34C151.993 198.46 150.473 198.02 148.753 198.02C147.033 198.02 145.513 198.46 144.193 199.34C142.873 200.18 141.833 201.38 141.073 202.94C140.353 204.46 139.993 206.2 139.993 208.16C139.993 210.16 140.353 211.92 141.073 213.44C141.833 214.96 142.873 216.16 144.193 217.04C145.513 217.92 147.033 218.36 148.753 218.36ZM184.948 224.6C182.668 224.6 180.688 224.1 179.008 223.1C177.328 222.06 176.048 220.6 175.168 218.72C174.288 216.8 173.848 214.52 173.848 211.88V192.38H181.228V210.32C181.228 212 181.488 213.44 182.008 214.64C182.528 215.8 183.288 216.7 184.288 217.34C185.288 217.98 186.488 218.3 187.888 218.3C188.928 218.3 189.868 218.14 190.708 217.82C191.588 217.46 192.348 216.98 192.988 216.38C193.628 215.74 194.128 215 194.488 214.16C194.848 213.28 195.028 212.34 195.028 211.34V192.38H202.408V224H195.208L195.088 217.4L196.408 216.68C195.928 218.2 195.108 219.56 193.948 220.76C192.828 221.92 191.488 222.86 189.928 223.58C188.368 224.26 186.708 224.6 184.948 224.6ZM211.118 224V179.6H218.558V224H211.118ZM241.464 224.6C238.144 224.6 235.204 223.9 232.644 222.5C230.124 221.1 228.144 219.2 226.704 216.8C225.304 214.36 224.604 211.58 224.604 208.46C224.604 205.98 225.004 203.72 225.804 201.68C226.604 199.64 227.704 197.88 229.104 196.4C230.544 194.88 232.244 193.72 234.204 192.92C236.204 192.08 238.384 191.66 240.744 191.66C242.824 191.66 244.764 192.06 246.564 192.86C248.364 193.66 249.924 194.76 251.244 196.16C252.564 197.52 253.564 199.16 254.244 201.08C254.964 202.96 255.304 205.02 255.264 207.26L255.204 209.84H229.584L228.204 204.8H249.024L248.064 205.82V204.5C247.944 203.26 247.544 202.18 246.864 201.26C246.184 200.3 245.304 199.56 244.224 199.04C243.184 198.48 242.024 198.2 240.744 198.2C238.784 198.2 237.124 198.58 235.764 199.34C234.444 200.1 233.444 201.2 232.764 202.64C232.084 204.04 231.744 205.8 231.744 207.92C231.744 209.96 232.164 211.74 233.004 213.26C233.884 214.78 235.104 215.96 236.664 216.8C238.264 217.6 240.124 218 242.244 218C243.724 218 245.084 217.76 246.324 217.28C247.564 216.8 248.904 215.94 250.344 214.7L254.004 219.8C252.924 220.8 251.684 221.66 250.284 222.38C248.924 223.06 247.484 223.6 245.964 224C244.444 224.4 242.944 224.6 241.464 224.6ZM288.017 221.06V186.98L290.237 189.86L281.717 194.18L279.977 187.34L291.437 181.4H295.757V221.06H288.017ZM280.997 224V216.8H302.957V224H280.997ZM325.365 224.6C321.965 224.6 319.045 223.74 316.605 222.02C314.205 220.26 312.345 217.78 311.025 214.58C309.745 211.34 309.105 207.48 309.105 203C309.105 198.52 309.745 194.68 311.025 191.48C312.345 188.24 314.205 185.76 316.605 184.04C319.045 182.28 321.965 181.4 325.365 181.4C328.765 181.4 331.685 182.28 334.125 184.04C336.565 185.76 338.425 188.24 339.705 191.48C341.025 194.68 341.685 198.52 341.685 203C341.685 207.48 341.025 211.34 339.705 214.58C338.425 217.78 336.565 220.26 334.125 222.02C331.685 223.74 328.765 224.6 325.365 224.6ZM325.365 217.76C328.165 217.76 330.325 216.48 331.845 213.92C333.405 211.32 334.185 207.68 334.185 203C334.185 198.28 333.405 194.62 331.845 192.02C330.325 189.42 328.165 188.12 325.365 188.12C322.565 188.12 320.385 189.42 318.825 192.02C317.305 194.62 316.545 198.28 316.545 203C316.545 207.68 317.305 211.32 318.825 213.92C320.385 216.48 322.565 217.76 325.365 217.76Z" fill="white"/>
<path d="M941.897 220V192H946.817L957.017 208.6L954.137 208.56L964.457 192H969.137V220H963.977V209.48C963.977 207.08 964.03 204.92 964.137 203C964.27 201.08 964.483 199.173 964.777 197.28L965.417 199L956.737 212.4H954.097L945.697 199.12L946.257 197.28C946.55 199.067 946.75 200.907 946.857 202.8C946.99 204.667 947.057 206.893 947.057 209.48V220H941.897ZM983.742 220.4C982.009 220.4 980.436 219.92 979.022 218.96C977.609 218 976.476 216.693 975.622 215.04C974.769 213.387 974.342 211.507 974.342 209.4C974.342 207.293 974.769 205.413 975.622 203.76C976.476 202.107 977.636 200.813 979.102 199.88C980.569 198.947 982.222 198.48 984.062 198.48C985.129 198.48 986.102 198.64 986.982 198.96C987.862 199.253 988.636 199.68 989.302 200.24C989.969 200.8 990.516 201.44 990.942 202.16C991.396 202.88 991.702 203.653 991.862 204.48L990.782 204.2V198.92H995.742V220H990.742V214.96L991.902 214.76C991.716 215.48 991.369 216.187 990.862 216.88C990.382 217.547 989.769 218.147 989.022 218.68C988.302 219.187 987.489 219.6 986.582 219.92C985.702 220.24 984.756 220.4 983.742 220.4ZM985.102 216.04C986.249 216.04 987.262 215.76 988.142 215.2C989.022 214.64 989.702 213.867 990.182 212.88C990.689 211.867 990.942 210.707 990.942 209.4C990.942 208.12 990.689 206.987 990.182 206C989.702 205.013 989.022 204.24 988.142 203.68C987.262 203.12 986.249 202.84 985.102 202.84C983.956 202.84 982.942 203.12 982.062 203.68C981.209 204.24 980.542 205.013 980.062 206C979.582 206.987 979.342 208.12 979.342 209.4C979.342 210.707 979.582 211.867 980.062 212.88C980.542 213.867 981.209 214.64 982.062 215.2C982.942 215.76 983.956 216.04 985.102 216.04ZM1001.45 220V198.92H1006.29L1006.37 205.64L1005.69 204.12C1005.98 203.053 1006.49 202.093 1007.21 201.24C1007.93 200.387 1008.75 199.72 1009.69 199.24C1010.65 198.733 1011.65 198.48 1012.69 198.48C1013.14 198.48 1013.57 198.52 1013.97 198.6C1014.39 198.68 1014.74 198.773 1015.01 198.88L1013.69 204.28C1013.39 204.12 1013.03 203.987 1012.61 203.88C1012.18 203.773 1011.75 203.72 1011.33 203.72C1010.66 203.72 1010.02 203.853 1009.41 204.12C1008.82 204.36 1008.3 204.707 1007.85 205.16C1007.39 205.613 1007.03 206.147 1006.77 206.76C1006.53 207.347 1006.41 208.013 1006.41 208.76V220H1001.45ZM1022.88 213.56L1021.92 208.96L1031.92 198.92H1038.48L1022.88 213.56ZM1018.28 220V190.4H1023.2V220H1018.28ZM1032.52 220L1024.76 210.6L1028.24 207.64L1038.6 220H1032.52ZM1051.35 220L1062.27 192H1067.15L1077.99 220H1072.59L1066.59 204.08C1066.46 203.76 1066.27 203.253 1066.03 202.56C1065.82 201.867 1065.58 201.12 1065.31 200.32C1065.05 199.493 1064.81 198.733 1064.59 198.04C1064.38 197.32 1064.22 196.8 1064.11 196.48L1065.11 196.44C1064.95 196.973 1064.77 197.573 1064.55 198.24C1064.34 198.907 1064.11 199.6 1063.87 200.32C1063.63 201.04 1063.39 201.733 1063.15 202.4C1062.94 203.067 1062.74 203.667 1062.55 204.2L1056.55 220H1051.35ZM1056.31 213.6L1058.11 209.08H1070.87L1072.79 213.6H1056.31ZM1088.56 220.4C1086.7 220.4 1085.02 220.093 1083.52 219.48C1082.06 218.84 1080.86 217.933 1079.92 216.76L1083.12 214C1083.92 214.907 1084.82 215.56 1085.8 215.96C1086.79 216.36 1087.83 216.56 1088.92 216.56C1089.38 216.56 1089.78 216.507 1090.12 216.4C1090.5 216.293 1090.82 216.133 1091.08 215.92C1091.35 215.707 1091.55 215.467 1091.68 215.2C1091.84 214.907 1091.92 214.587 1091.92 214.24C1091.92 213.6 1091.68 213.093 1091.2 212.72C1090.94 212.533 1090.51 212.333 1089.92 212.12C1089.36 211.907 1088.63 211.693 1087.72 211.48C1086.28 211.107 1085.08 210.68 1084.12 210.2C1083.16 209.693 1082.42 209.133 1081.88 208.52C1081.43 208.013 1081.08 207.44 1080.84 206.8C1080.63 206.16 1080.52 205.467 1080.52 204.72C1080.52 203.787 1080.72 202.947 1081.12 202.2C1081.55 201.427 1082.12 200.76 1082.84 200.2C1083.56 199.64 1084.4 199.213 1085.36 198.92C1086.32 198.627 1087.32 198.48 1088.36 198.48C1089.43 198.48 1090.46 198.613 1091.44 198.88C1092.46 199.147 1093.39 199.533 1094.24 200.04C1095.12 200.52 1095.87 201.107 1096.48 201.8L1093.76 204.8C1093.26 204.32 1092.7 203.893 1092.08 203.52C1091.5 203.147 1090.9 202.853 1090.28 202.64C1089.67 202.4 1089.1 202.28 1088.56 202.28C1088.06 202.28 1087.6 202.333 1087.2 202.44C1086.8 202.52 1086.47 202.653 1086.2 202.84C1085.94 203.027 1085.72 203.267 1085.56 203.56C1085.43 203.827 1085.36 204.147 1085.36 204.52C1085.39 204.84 1085.47 205.147 1085.6 205.44C1085.76 205.707 1085.98 205.933 1086.24 206.12C1086.54 206.307 1086.98 206.52 1087.56 206.76C1088.15 207 1088.91 207.227 1089.84 207.44C1091.15 207.787 1092.24 208.173 1093.12 208.6C1094 209.027 1094.7 209.52 1095.2 210.08C1095.71 210.56 1096.07 211.12 1096.28 211.76C1096.5 212.4 1096.6 213.107 1096.6 213.88C1096.6 215.133 1096.24 216.253 1095.52 217.24C1094.83 218.227 1093.87 219 1092.64 219.56C1091.44 220.12 1090.08 220.4 1088.56 220.4ZM1113.58 220V192H1124.82C1126.84 192 1128.67 192.333 1130.3 193C1131.95 193.667 1133.36 194.627 1134.54 195.88C1135.74 197.133 1136.64 198.613 1137.26 200.32C1137.9 202.027 1138.22 203.92 1138.22 206C1138.22 208.08 1137.9 209.987 1137.26 211.72C1136.64 213.427 1135.75 214.907 1134.58 216.16C1133.4 217.387 1131.99 218.333 1130.34 219C1128.68 219.667 1126.84 220 1124.82 220H1113.58ZM1118.78 215.96L1118.38 215.2H1124.62C1125.92 215.2 1127.08 214.987 1128.1 214.56C1129.14 214.133 1130.02 213.52 1130.74 212.72C1131.46 211.92 1132 210.96 1132.38 209.84C1132.75 208.693 1132.94 207.413 1132.94 206C1132.94 204.587 1132.75 203.32 1132.38 202.2C1132 201.053 1131.44 200.08 1130.7 199.28C1129.98 198.48 1129.11 197.867 1128.1 197.44C1127.08 197.013 1125.92 196.8 1124.62 196.8H1118.26L1118.78 196.12V215.96ZM1152.61 220.4C1150.5 220.4 1148.62 219.933 1146.97 219C1145.32 218.04 1144.01 216.733 1143.05 215.08C1142.09 213.427 1141.61 211.547 1141.61 209.44C1141.61 207.333 1142.09 205.453 1143.05 203.8C1144.01 202.147 1145.32 200.853 1146.97 199.92C1148.62 198.96 1150.5 198.48 1152.61 198.48C1154.69 198.48 1156.56 198.96 1158.21 199.92C1159.86 200.853 1161.16 202.147 1162.09 203.8C1163.05 205.453 1163.53 207.333 1163.53 209.44C1163.53 211.547 1163.05 213.427 1162.09 215.08C1161.16 216.733 1159.86 218.04 1158.21 219C1156.56 219.933 1154.69 220.4 1152.61 220.4ZM1152.61 216.04C1153.76 216.04 1154.77 215.747 1155.65 215.16C1156.56 214.573 1157.26 213.787 1157.77 212.8C1158.3 211.813 1158.56 210.693 1158.53 209.44C1158.56 208.16 1158.3 207.027 1157.77 206.04C1157.26 205.053 1156.56 204.28 1155.65 203.72C1154.77 203.133 1153.76 202.84 1152.61 202.84C1151.46 202.84 1150.42 203.133 1149.49 203.72C1148.58 204.28 1147.88 205.067 1147.37 206.08C1146.86 207.067 1146.61 208.187 1146.61 209.44C1146.61 210.693 1146.86 211.813 1147.37 212.8C1147.88 213.787 1148.58 214.573 1149.49 215.16C1150.42 215.747 1151.46 216.04 1152.61 216.04ZM1167.93 220V198.92H1172.73L1172.81 203.24L1171.89 203.72C1172.16 202.76 1172.68 201.893 1173.45 201.12C1174.22 200.32 1175.14 199.68 1176.21 199.2C1177.28 198.72 1178.37 198.48 1179.49 198.48C1181.09 198.48 1182.42 198.8 1183.49 199.44C1184.58 200.08 1185.4 201.04 1185.93 202.32C1186.49 203.6 1186.77 205.2 1186.77 207.12V220H1181.85V207.48C1181.85 206.413 1181.7 205.533 1181.41 204.84C1181.12 204.12 1180.66 203.6 1180.05 203.28C1179.44 202.933 1178.69 202.773 1177.81 202.8C1177.09 202.8 1176.42 202.92 1175.81 203.16C1175.22 203.373 1174.7 203.693 1174.25 204.12C1173.82 204.52 1173.48 204.987 1173.21 205.52C1172.97 206.053 1172.85 206.64 1172.85 207.28V220H1170.41C1169.93 220 1169.48 220 1169.05 220C1168.65 220 1168.28 220 1167.93 220ZM1202.19 220.4C1199.97 220.4 1198.01 219.933 1196.31 219C1194.63 218.067 1193.31 216.8 1192.35 215.2C1191.41 213.573 1190.95 211.72 1190.95 209.64C1190.95 207.987 1191.21 206.48 1191.75 205.12C1192.28 203.76 1193.01 202.587 1193.95 201.6C1194.91 200.587 1196.04 199.813 1197.35 199.28C1198.68 198.72 1200.13 198.44 1201.71 198.44C1203.09 198.44 1204.39 198.707 1205.59 199.24C1206.79 199.773 1207.83 200.507 1208.71 201.44C1209.59 202.347 1210.25 203.44 1210.71 204.72C1211.19 205.973 1211.41 207.347 1211.39 208.84L1211.35 210.56H1194.27L1193.35 207.2H1207.23L1206.59 207.88V207C1206.51 206.173 1206.24 205.453 1205.79 204.84C1205.33 204.2 1204.75 203.707 1204.03 203.36C1203.33 202.987 1202.56 202.8 1201.71 202.8C1200.4 202.8 1199.29 203.053 1198.39 203.56C1197.51 204.067 1196.84 204.8 1196.39 205.76C1195.93 206.693 1195.71 207.867 1195.71 209.28C1195.71 210.64 1195.99 211.827 1196.55 212.84C1197.13 213.853 1197.95 214.64 1198.99 215.2C1200.05 215.733 1201.29 216 1202.71 216C1203.69 216 1204.6 215.84 1205.43 215.52C1206.25 215.2 1207.15 214.627 1208.11 213.8L1210.55 217.2C1209.83 217.867 1209 218.44 1208.07 218.92C1207.16 219.373 1206.2 219.733 1205.19 220C1204.17 220.267 1203.17 220.4 1202.19 220.4Z" fill="#D9D9D9"/>
<rect x="0.5" y="0.5" width="1411" height="297" rx="4.5" stroke="#9747FF" stroke-dasharray="10 5"/>
</svg>
