<svg width="254" height="27" viewBox="0 0 254 27" fill="none" xmlns="http://www.w3.org/2000/svg">
<path d="M16.152 26V0.799998H21.552V26H16.152ZM0.276 26V0.799998H5.676V26H0.276ZM2.436 15.884L2.472 10.988H18.924V15.884H2.436ZM36.2558 26.36C34.3118 26.36 32.5718 25.94 31.0358 25.1C29.5238 24.236 28.3238 23.06 27.4358 21.572C26.5718 20.084 26.1398 18.38 26.1398 16.46C26.1398 14.54 26.5718 12.848 27.4358 11.384C28.3238 9.896 29.5238 8.72 31.0358 7.856C32.5718 6.992 34.3118 6.56 36.2558 6.56C38.1758 6.56 39.8918 6.992 41.4038 7.856C42.9398 8.72 44.1398 9.896 45.0038 11.384C45.8678 12.848 46.2998 14.54 46.2998 16.46C46.2998 18.38 45.8678 20.084 45.0038 21.572C44.1398 23.06 42.9398 24.236 41.4038 25.1C39.8918 25.94 38.1758 26.36 36.2558 26.36ZM36.2558 21.896C37.1918 21.896 38.0318 21.668 38.7758 21.212C39.5198 20.732 40.0958 20.084 40.5038 19.268C40.9358 18.428 41.1518 17.492 41.1518 16.46C41.1518 15.404 40.9358 14.468 40.5038 13.652C40.0958 12.812 39.5198 12.164 38.7758 11.708C38.0318 11.228 37.1918 10.988 36.2558 10.988C35.2958 10.988 34.4438 11.228 33.6998 11.708C32.9558 12.188 32.3678 12.836 31.9358 13.652C31.5038 14.468 31.2998 15.404 31.3238 16.46C31.2998 17.492 31.5038 18.428 31.9358 19.268C32.3678 20.084 32.9558 20.732 33.6998 21.212C34.4438 21.668 35.2958 21.896 36.2558 21.896ZM55.5945 26L47.6025 6.956H53.2185L58.2945 21.176L57.1065 21.392L62.4345 6.956H67.9065L59.5185 26H55.5945ZM79.5373 26.36C77.4733 26.36 75.6733 25.94 74.1373 25.1C72.6013 24.26 71.4013 23.108 70.5373 21.644C69.6733 20.18 69.2413 18.5 69.2413 16.604C69.2413 15.14 69.4813 13.796 69.9613 12.572C70.4413 11.348 71.1133 10.292 71.9773 9.404C72.8413 8.492 73.8613 7.796 75.0373 7.316C76.2373 6.812 77.5333 6.56 78.9253 6.56C80.2213 6.56 81.4213 6.8 82.5253 7.28C83.6293 7.736 84.5773 8.396 85.3693 9.26C86.1853 10.1 86.8093 11.096 87.2413 12.248C87.6733 13.4 87.8653 14.66 87.8173 16.028L87.7813 17.612H72.4813L71.6533 14.48H83.5693L82.9933 15.128V14.336C82.9453 13.688 82.7293 13.1 82.3453 12.572C81.9853 12.044 81.5173 11.636 80.9413 11.348C80.3653 11.06 79.7173 10.916 78.9973 10.916C77.9413 10.916 77.0413 11.12 76.2973 11.528C75.5773 11.936 75.0253 12.536 74.6413 13.328C74.2573 14.12 74.0653 15.08 74.0653 16.208C74.0653 17.36 74.3053 18.356 74.7853 19.196C75.2893 20.036 75.9853 20.696 76.8733 21.176C77.7853 21.632 78.8533 21.86 80.0773 21.86C80.9173 21.86 81.6853 21.728 82.3813 21.464C83.0773 21.2 83.8213 20.744 84.6133 20.096L87.0613 23.516C86.3653 24.14 85.5973 24.668 84.7573 25.1C83.9173 25.508 83.0533 25.82 82.1653 26.036C81.2773 26.252 80.4013 26.36 79.5373 26.36ZM91.5951 26V6.956H96.5271L96.7071 13.076L95.8431 11.816C96.1311 10.832 96.5991 9.944 97.2471 9.152C97.8951 8.336 98.6511 7.7 99.5151 7.244C100.403 6.788 101.327 6.56 102.287 6.56C102.695 6.56 103.091 6.596 103.475 6.668C103.859 6.74 104.183 6.824 104.447 6.92L103.079 12.536C102.791 12.392 102.443 12.272 102.035 12.176C101.627 12.056 101.207 11.996 100.775 11.996C100.199 11.996 99.6591 12.104 99.1551 12.32C98.6751 12.512 98.2551 12.8 97.8951 13.184C97.5351 13.544 97.2471 13.976 97.0311 14.48C96.8391 14.984 96.7431 15.536 96.7431 16.136V26H91.5951ZM119.139 26V0.799998H130.083C131.763 0.799998 133.179 1.052 134.331 1.556C135.507 2.036 136.395 2.744 136.995 3.68C137.595 4.616 137.895 5.732 137.895 7.028C137.895 8.468 137.535 9.668 136.815 10.628C136.095 11.588 135.063 12.248 133.719 12.608L133.683 11.888C134.787 12.152 135.759 12.584 136.599 13.184C137.439 13.784 138.087 14.528 138.543 15.416C138.999 16.304 139.227 17.312 139.227 18.44C139.227 19.688 139.023 20.792 138.615 21.752C138.207 22.688 137.607 23.468 136.815 24.092C136.023 24.716 135.087 25.196 134.007 25.532C132.951 25.844 131.763 26 130.443 26H119.139ZM124.323 21.32H130.227C130.995 21.32 131.643 21.212 132.171 20.996C132.723 20.756 133.143 20.396 133.431 19.916C133.719 19.436 133.863 18.872 133.863 18.224C133.863 17.6 133.707 17.072 133.395 16.64C133.083 16.208 132.639 15.884 132.063 15.668C131.511 15.428 130.839 15.308 130.047 15.308H124.323V21.32ZM124.323 11.024H129.435C130.083 11.024 130.647 10.904 131.127 10.664C131.607 10.424 131.967 10.1 132.207 9.692C132.471 9.284 132.603 8.804 132.603 8.252C132.603 7.364 132.315 6.68 131.739 6.2C131.163 5.72 130.299 5.48 129.147 5.48H124.323V11.024ZM149.967 26.36C148.575 26.36 147.375 26.06 146.367 25.46C145.383 24.836 144.615 23.96 144.063 22.832C143.535 21.68 143.271 20.3 143.271 18.692V6.956H148.383V17.864C148.383 18.728 148.527 19.484 148.815 20.132C149.103 20.756 149.511 21.236 150.039 21.572C150.567 21.908 151.215 22.076 151.983 22.076C152.535 22.076 153.051 21.992 153.531 21.824C154.011 21.632 154.419 21.368 154.755 21.032C155.091 20.696 155.355 20.3 155.547 19.844C155.739 19.388 155.835 18.896 155.835 18.368V6.956H160.947V26H156.087L155.907 22.076L156.843 21.644C156.555 22.532 156.075 23.336 155.403 24.056C154.731 24.776 153.927 25.34 152.991 25.748C152.055 26.156 151.047 26.36 149.967 26.36ZM167.927 26V2.132H173.039V26H167.927ZM164.363 11.528V6.956H176.927V11.528H164.363ZM182.095 26V2.132H187.207V26H182.095ZM178.531 11.528V6.956H191.095V11.528H178.531ZM203.107 26.36C201.163 26.36 199.423 25.94 197.887 25.1C196.375 24.236 195.175 23.06 194.287 21.572C193.423 20.084 192.991 18.38 192.991 16.46C192.991 14.54 193.423 12.848 194.287 11.384C195.175 9.896 196.375 8.72 197.887 7.856C199.423 6.992 201.163 6.56 203.107 6.56C205.027 6.56 206.743 6.992 208.255 7.856C209.791 8.72 210.991 9.896 211.855 11.384C212.719 12.848 213.151 14.54 213.151 16.46C213.151 18.38 212.719 20.084 211.855 21.572C210.991 23.06 209.791 24.236 208.255 25.1C206.743 25.94 205.027 26.36 203.107 26.36ZM203.107 21.896C204.043 21.896 204.883 21.668 205.627 21.212C206.371 20.732 206.947 20.084 207.355 19.268C207.787 18.428 208.003 17.492 208.003 16.46C208.003 15.404 207.787 14.468 207.355 13.652C206.947 12.812 206.371 12.164 205.627 11.708C204.883 11.228 204.043 10.988 203.107 10.988C202.147 10.988 201.295 11.228 200.551 11.708C199.807 12.188 199.219 12.836 198.787 13.652C198.355 14.468 198.151 15.404 198.175 16.46C198.151 17.492 198.355 18.428 198.787 19.268C199.219 20.084 199.807 20.732 200.551 21.212C201.295 21.668 202.147 21.896 203.107 21.896ZM216.997 26V6.956H221.893L222.037 10.844L221.029 11.276C221.293 10.412 221.761 9.632 222.433 8.936C223.129 8.216 223.957 7.64 224.917 7.208C225.877 6.776 226.885 6.56 227.941 6.56C229.381 6.56 230.581 6.848 231.541 7.424C232.525 8 233.257 8.876 233.737 10.052C234.241 11.204 234.493 12.632 234.493 14.336V26H229.381V14.732C229.381 13.868 229.261 13.148 229.021 12.572C228.781 11.996 228.409 11.576 227.905 11.312C227.425 11.024 226.825 10.904 226.105 10.952C225.529 10.952 224.989 11.048 224.485 11.24C224.005 11.408 223.585 11.66 223.225 11.996C222.889 12.332 222.613 12.716 222.397 13.148C222.205 13.58 222.109 14.048 222.109 14.552V26H219.589C219.037 26 218.545 26 218.113 26C217.681 26 217.309 26 216.997 26ZM245.8 26.36C244.024 26.36 242.44 26.072 241.048 25.496C239.68 24.896 238.576 24.08 237.736 23.048L240.904 20.312C241.648 21.104 242.476 21.68 243.388 22.04C244.3 22.376 245.212 22.544 246.124 22.544C246.484 22.544 246.808 22.508 247.096 22.436C247.408 22.34 247.672 22.22 247.888 22.076C248.104 21.908 248.26 21.716 248.356 21.5C248.476 21.26 248.536 21.008 248.536 20.744C248.536 20.216 248.32 19.796 247.888 19.484C247.648 19.364 247.276 19.22 246.772 19.052C246.268 18.86 245.62 18.656 244.828 18.44C243.604 18.128 242.56 17.768 241.696 17.36C240.856 16.928 240.184 16.448 239.68 15.92C239.248 15.416 238.912 14.876 238.672 14.3C238.456 13.7 238.348 13.04 238.348 12.32C238.348 11.456 238.54 10.676 238.924 9.98C239.308 9.26 239.836 8.648 240.508 8.144C241.204 7.64 241.996 7.256 242.884 6.992C243.772 6.704 244.708 6.56 245.692 6.56C246.676 6.56 247.636 6.68 248.572 6.92C249.508 7.16 250.372 7.508 251.164 7.964C251.98 8.396 252.688 8.912 253.288 9.512L250.552 12.536C250.12 12.128 249.628 11.756 249.076 11.42C248.548 11.084 247.996 10.82 247.42 10.628C246.844 10.436 246.328 10.34 245.872 10.34C245.464 10.34 245.092 10.376 244.756 10.448C244.444 10.52 244.18 10.628 243.964 10.772C243.748 10.916 243.58 11.108 243.46 11.348C243.364 11.564 243.316 11.804 243.316 12.068C243.316 12.332 243.376 12.584 243.496 12.824C243.64 13.064 243.832 13.268 244.072 13.436C244.336 13.58 244.72 13.748 245.224 13.94C245.752 14.132 246.46 14.348 247.348 14.588C248.5 14.9 249.472 15.248 250.264 15.632C251.08 16.016 251.728 16.46 252.208 16.964C252.616 17.396 252.916 17.888 253.108 18.44C253.3 18.992 253.396 19.604 253.396 20.276C253.396 21.452 253.06 22.508 252.388 23.444C251.74 24.356 250.84 25.076 249.688 25.604C248.536 26.108 247.24 26.36 245.8 26.36Z" fill="#333333"/>
</svg>
