<svg width="940" height="340" viewBox="0 0 940 340" fill="none" xmlns="http://www.w3.org/2000/svg">
<g filter="url(#filter0_d_72_485)">
<rect x="20" y="20" width="900" height="140" rx="50" fill="url(#paint0_linear_72_485)" shape-rendering="crispEdges"/>
</g>
<path d="M162.48 142.8V75.57H173.37L173.55 86.37L171.66 85.56C172.02 83.7 173.04 81.96 174.72 80.34C176.4 78.66 178.44 77.31 180.84 76.29C183.3 75.27 185.85 74.76 188.49 74.76C192.69 74.76 196.41 75.81 199.65 77.91C202.95 80.01 205.53 82.89 207.39 86.55C209.31 90.21 210.27 94.44 210.27 99.24C210.27 103.98 209.31 108.21 207.39 111.93C205.53 115.59 202.95 118.5 199.65 120.66C196.41 122.76 192.75 123.81 188.67 123.81C185.91 123.81 183.24 123.27 180.66 122.19C178.14 121.11 175.98 119.7 174.18 117.96C172.44 116.22 171.36 114.39 170.94 112.47L173.64 111.21V142.8H162.48ZM186.42 114C188.94 114 191.19 113.37 193.17 112.11C195.15 110.85 196.68 109.11 197.76 106.89C198.9 104.67 199.47 102.12 199.47 99.24C199.47 96.36 198.93 93.84 197.85 91.68C196.77 89.46 195.24 87.72 193.26 86.46C191.28 85.2 189 84.57 186.42 84.57C183.78 84.57 181.47 85.2 179.49 86.46C177.57 87.66 176.04 89.37 174.9 91.59C173.76 93.81 173.19 96.36 173.19 99.24C173.19 102.12 173.76 104.67 174.9 106.89C176.04 109.11 177.57 110.85 179.49 112.11C181.47 113.37 183.78 114 186.42 114ZM220.136 123V75.57H231.026L231.206 90.69L229.676 87.27C230.336 84.87 231.476 82.71 233.096 80.79C234.716 78.87 236.576 77.37 238.676 76.29C240.836 75.15 243.086 74.58 245.426 74.58C246.446 74.58 247.406 74.67 248.306 74.85C249.266 75.03 250.046 75.24 250.646 75.48L247.676 87.63C247.016 87.27 246.206 86.97 245.246 86.73C244.286 86.49 243.326 86.37 242.366 86.37C240.866 86.37 239.426 86.67 238.046 87.27C236.726 87.81 235.556 88.59 234.536 89.61C233.516 90.63 232.706 91.83 232.106 93.21C231.566 94.53 231.296 96.03 231.296 97.71V123H220.136ZM278.226 123.9C273.246 123.9 268.836 122.85 264.996 120.75C261.216 118.65 258.246 115.8 256.086 112.2C253.986 108.54 252.936 104.37 252.936 99.69C252.936 95.97 253.536 92.58 254.736 89.52C255.936 86.46 257.586 83.82 259.686 81.6C261.846 79.32 264.396 77.58 267.336 76.38C270.336 75.12 273.606 74.49 277.146 74.49C280.266 74.49 283.176 75.09 285.876 76.29C288.576 77.49 290.916 79.14 292.896 81.24C294.876 83.28 296.376 85.74 297.396 88.62C298.476 91.44 298.986 94.53 298.926 97.89L298.836 101.76H260.406L258.336 94.2H289.566L288.126 95.73V93.75C287.946 91.89 287.346 90.27 286.326 88.89C285.306 87.45 283.986 86.34 282.366 85.56C280.806 84.72 279.066 84.3 277.146 84.3C274.206 84.3 271.716 84.87 269.676 86.01C267.696 87.15 266.196 88.8 265.176 90.96C264.156 93.06 263.646 95.7 263.646 98.88C263.646 101.94 264.276 104.61 265.536 106.89C266.856 109.17 268.686 110.94 271.026 112.2C273.426 113.4 276.216 114 279.396 114C281.616 114 283.656 113.64 285.516 112.92C287.376 112.2 289.386 110.91 291.546 109.05L297.036 116.7C295.416 118.2 293.556 119.49 291.456 120.57C289.416 121.59 287.256 122.4 284.976 123C282.696 123.6 280.446 123.9 278.226 123.9ZM324.57 123.9C320.37 123.9 316.59 123.21 313.23 121.83C309.93 120.39 307.23 118.35 305.13 115.71L312.33 109.5C314.13 111.54 316.14 113.01 318.36 113.91C320.58 114.81 322.92 115.26 325.38 115.26C326.4 115.26 327.3 115.14 328.08 114.9C328.92 114.66 329.64 114.3 330.24 113.82C330.84 113.34 331.29 112.8 331.59 112.2C331.95 111.54 332.13 110.82 332.13 110.04C332.13 108.6 331.59 107.46 330.51 106.62C329.91 106.2 328.95 105.75 327.63 105.27C326.37 104.79 324.72 104.31 322.68 103.83C319.44 102.99 316.74 102.03 314.58 100.95C312.42 99.81 310.74 98.55 309.54 97.17C308.52 96.03 307.74 94.74 307.2 93.3C306.72 91.86 306.48 90.3 306.48 88.62C306.48 86.52 306.93 84.63 307.83 82.95C308.79 81.21 310.08 79.71 311.7 78.45C313.32 77.19 315.21 76.23 317.37 75.57C319.53 74.91 321.78 74.58 324.12 74.58C326.52 74.58 328.83 74.88 331.05 75.48C333.33 76.08 335.43 76.95 337.35 78.09C339.33 79.17 341.01 80.49 342.39 82.05L336.27 88.8C335.13 87.72 333.87 86.76 332.49 85.92C331.17 85.08 329.82 84.42 328.44 83.94C327.06 83.4 325.77 83.13 324.57 83.13C323.43 83.13 322.41 83.25 321.51 83.49C320.61 83.67 319.86 83.97 319.26 84.39C318.66 84.81 318.18 85.35 317.82 86.01C317.52 86.61 317.37 87.33 317.37 88.17C317.43 88.89 317.61 89.58 317.91 90.24C318.27 90.84 318.75 91.35 319.35 91.77C320.01 92.19 321 92.67 322.32 93.21C323.64 93.75 325.35 94.26 327.45 94.74C330.39 95.52 332.85 96.39 334.83 97.35C336.81 98.31 338.37 99.42 339.51 100.68C340.65 101.76 341.46 103.02 341.94 104.46C342.42 105.9 342.66 107.49 342.66 109.23C342.66 112.05 341.85 114.57 340.23 116.79C338.67 119.01 336.51 120.75 333.75 122.01C331.05 123.27 327.99 123.9 324.57 123.9ZM368.252 123.9C364.052 123.9 360.272 123.21 356.912 121.83C353.612 120.39 350.912 118.35 348.812 115.71L356.012 109.5C357.812 111.54 359.822 113.01 362.042 113.91C364.262 114.81 366.602 115.26 369.062 115.26C370.082 115.26 370.982 115.14 371.762 114.9C372.602 114.66 373.322 114.3 373.922 113.82C374.522 113.34 374.972 112.8 375.272 112.2C375.632 111.54 375.812 110.82 375.812 110.04C375.812 108.6 375.272 107.46 374.192 106.62C373.592 106.2 372.632 105.75 371.312 105.27C370.052 104.79 368.402 104.31 366.362 103.83C363.122 102.99 360.422 102.03 358.262 100.95C356.102 99.81 354.422 98.55 353.222 97.17C352.202 96.03 351.422 94.74 350.882 93.3C350.402 91.86 350.162 90.3 350.162 88.62C350.162 86.52 350.612 84.63 351.512 82.95C352.472 81.21 353.762 79.71 355.382 78.45C357.002 77.19 358.892 76.23 361.052 75.57C363.212 74.91 365.462 74.58 367.802 74.58C370.202 74.58 372.512 74.88 374.732 75.48C377.012 76.08 379.112 76.95 381.032 78.09C383.012 79.17 384.692 80.49 386.072 82.05L379.952 88.8C378.812 87.72 377.552 86.76 376.172 85.92C374.852 85.08 373.502 84.42 372.122 83.94C370.742 83.4 369.452 83.13 368.252 83.13C367.112 83.13 366.092 83.25 365.192 83.49C364.292 83.67 363.542 83.97 362.942 84.39C362.342 84.81 361.862 85.35 361.502 86.01C361.202 86.61 361.052 87.33 361.052 88.17C361.112 88.89 361.292 89.58 361.592 90.24C361.952 90.84 362.432 91.35 363.032 91.77C363.692 92.19 364.682 92.67 366.002 93.21C367.322 93.75 369.032 94.26 371.132 94.74C374.072 95.52 376.532 96.39 378.512 97.35C380.492 98.31 382.052 99.42 383.192 100.68C384.332 101.76 385.142 103.02 385.622 104.46C386.102 105.9 386.342 107.49 386.342 109.23C386.342 112.05 385.532 114.57 383.912 116.79C382.352 119.01 380.192 120.75 377.432 122.01C374.732 123.27 371.672 123.9 368.252 123.9ZM427.678 123V63.51H438.748V123H427.678ZM418.318 85.83V75.57H449.098V85.83H418.318ZM478.779 123.9C474.039 123.9 469.809 122.85 466.089 120.75C462.369 118.59 459.429 115.65 457.269 111.93C455.109 108.21 454.029 103.98 454.029 99.24C454.029 94.5 455.109 90.27 457.269 86.55C459.429 82.83 462.369 79.92 466.089 77.82C469.809 75.66 474.039 74.58 478.779 74.58C483.459 74.58 487.659 75.66 491.379 77.82C495.099 79.92 498.009 82.83 500.109 86.55C502.269 90.27 503.349 94.5 503.349 99.24C503.349 103.98 502.269 108.21 500.109 111.93C498.009 115.65 495.099 118.59 491.379 120.75C487.659 122.85 483.459 123.9 478.779 123.9ZM478.779 114.09C481.359 114.09 483.639 113.43 485.619 112.11C487.659 110.79 489.249 109.02 490.389 106.8C491.589 104.58 492.159 102.06 492.099 99.24C492.159 96.36 491.589 93.81 490.389 91.59C489.249 89.37 487.659 87.63 485.619 86.37C483.639 85.05 481.359 84.39 478.779 84.39C476.199 84.39 473.859 85.05 471.759 86.37C469.719 87.63 468.129 89.4 466.989 91.68C465.849 93.9 465.279 96.42 465.279 99.24C465.279 102.06 465.849 104.58 466.989 106.8C468.129 109.02 469.719 110.79 471.759 112.11C473.859 113.43 476.199 114.09 478.779 114.09ZM565.897 123.9C563.797 123.9 561.727 123.6 559.687 123C557.707 122.34 555.907 121.47 554.287 120.39C552.667 119.31 551.317 118.11 550.237 116.79C549.157 115.41 548.437 114.03 548.077 112.65L550.687 111.48L550.417 122.82H539.707V56.4H550.777V86.55L548.797 85.65C549.097 84.21 549.757 82.86 550.777 81.6C551.857 80.28 553.177 79.11 554.737 78.09C556.297 77.01 558.007 76.17 559.867 75.57C561.727 74.91 563.617 74.58 565.537 74.58C569.797 74.58 573.547 75.63 576.787 77.73C580.087 79.83 582.667 82.74 584.527 86.46C586.447 90.18 587.407 94.41 587.407 99.15C587.407 103.95 586.477 108.21 584.617 111.93C582.757 115.65 580.177 118.59 576.877 120.75C573.637 122.85 569.977 123.9 565.897 123.9ZM563.557 114.18C566.077 114.18 568.327 113.55 570.307 112.29C572.287 110.97 573.847 109.2 574.987 106.98C576.127 104.7 576.697 102.09 576.697 99.15C576.697 96.27 576.127 93.72 574.987 91.5C573.907 89.28 572.377 87.54 570.397 86.28C568.417 85.02 566.137 84.39 563.557 84.39C560.977 84.39 558.697 85.02 556.717 86.28C554.737 87.54 553.177 89.28 552.037 91.5C550.897 93.72 550.327 96.27 550.327 99.15C550.327 102.09 550.897 104.7 552.037 106.98C553.177 109.2 554.737 110.97 556.717 112.29C558.697 113.55 560.977 114.18 563.557 114.18ZM619.505 123.9C614.525 123.9 610.115 122.85 606.275 120.75C602.495 118.65 599.525 115.8 597.365 112.2C595.265 108.54 594.215 104.37 594.215 99.69C594.215 95.97 594.815 92.58 596.015 89.52C597.215 86.46 598.865 83.82 600.965 81.6C603.125 79.32 605.675 77.58 608.615 76.38C611.615 75.12 614.885 74.49 618.425 74.49C621.545 74.49 624.455 75.09 627.155 76.29C629.855 77.49 632.195 79.14 634.175 81.24C636.155 83.28 637.655 85.74 638.675 88.62C639.755 91.44 640.265 94.53 640.205 97.89L640.115 101.76H601.685L599.615 94.2H630.845L629.405 95.73V93.75C629.225 91.89 628.625 90.27 627.605 88.89C626.585 87.45 625.265 86.34 623.645 85.56C622.085 84.72 620.345 84.3 618.425 84.3C615.485 84.3 612.995 84.87 610.955 86.01C608.975 87.15 607.475 88.8 606.455 90.96C605.435 93.06 604.925 95.7 604.925 98.88C604.925 101.94 605.555 104.61 606.815 106.89C608.135 109.17 609.965 110.94 612.305 112.2C614.705 113.4 617.495 114 620.675 114C622.895 114 624.935 113.64 626.795 112.92C628.655 112.2 630.665 110.91 632.825 109.05L638.315 116.7C636.695 118.2 634.835 119.49 632.735 120.57C630.695 121.59 628.535 122.4 626.255 123C623.975 123.6 621.725 123.9 619.505 123.9ZM670.9 143.7C667.36 143.7 663.82 143.16 660.28 142.08C656.8 141 653.98 139.59 651.82 137.85L655.78 129.66C657.04 130.56 658.45 131.34 660.01 132C661.57 132.66 663.22 133.17 664.96 133.53C666.76 133.89 668.53 134.07 670.27 134.07C673.45 134.07 676.09 133.56 678.19 132.54C680.35 131.58 681.97 130.08 683.05 128.04C684.13 126.06 684.67 123.57 684.67 120.57V111.84L686.29 112.47C685.93 114.33 684.94 116.1 683.32 117.78C681.7 119.46 679.66 120.84 677.2 121.92C674.74 122.94 672.22 123.45 669.64 123.45C665.14 123.45 661.15 122.4 657.67 120.3C654.25 118.2 651.52 115.35 649.48 111.75C647.5 108.09 646.51 103.89 646.51 99.15C646.51 94.41 647.5 90.21 649.48 86.55C651.46 82.83 654.16 79.92 657.58 77.82C661.06 75.66 664.96 74.58 669.28 74.58C671.08 74.58 672.82 74.79 674.5 75.21C676.18 75.63 677.71 76.23 679.09 77.01C680.53 77.79 681.82 78.66 682.96 79.62C684.1 80.58 685.03 81.6 685.75 82.68C686.47 83.76 686.92 84.81 687.1 85.83L684.76 86.55L684.94 75.57H695.83V119.76C695.83 123.6 695.26 126.99 694.12 129.93C692.98 132.87 691.33 135.36 689.17 137.4C687.01 139.5 684.4 141.06 681.34 142.08C678.28 143.16 674.8 143.7 670.9 143.7ZM671.35 114C674.05 114 676.42 113.37 678.46 112.11C680.56 110.85 682.18 109.11 683.32 106.89C684.46 104.67 685.03 102.12 685.03 99.24C685.03 96.3 684.43 93.72 683.23 91.5C682.09 89.22 680.5 87.45 678.46 86.19C676.42 84.93 674.05 84.3 671.35 84.3C668.65 84.3 666.28 84.96 664.24 86.28C662.2 87.54 660.58 89.31 659.38 91.59C658.24 93.81 657.67 96.36 657.67 99.24C657.67 102.06 658.24 104.61 659.38 106.89C660.58 109.11 662.2 110.85 664.24 112.11C666.28 113.37 668.65 114 671.35 114ZM709.892 123V75.57H720.962V123H709.892ZM715.292 65.49C713.072 65.49 711.332 64.95 710.072 63.87C708.872 62.73 708.272 61.14 708.272 59.1C708.272 57.18 708.902 55.62 710.162 54.42C711.422 53.22 713.132 52.62 715.292 52.62C717.572 52.62 719.312 53.19 720.512 54.33C721.772 55.41 722.402 57 722.402 59.1C722.402 60.96 721.772 62.49 720.512 63.69C719.252 64.89 717.512 65.49 715.292 65.49ZM735 123V75.57H745.8L745.98 85.29L743.91 86.37C744.51 84.21 745.68 82.26 747.42 80.52C749.16 78.72 751.23 77.28 753.63 76.2C756.03 75.12 758.49 74.58 761.01 74.58C764.61 74.58 767.61 75.3 770.01 76.74C772.47 78.18 774.3 80.34 775.5 83.22C776.76 86.1 777.39 89.7 777.39 94.02V123H766.32V94.83C766.32 92.43 765.99 90.45 765.33 88.89C764.67 87.27 763.65 86.1 762.27 85.38C760.89 84.6 759.21 84.24 757.23 84.3C755.61 84.3 754.11 84.57 752.73 85.11C751.41 85.59 750.24 86.31 749.22 87.27C748.26 88.17 747.48 89.22 746.88 90.42C746.34 91.62 746.07 92.94 746.07 94.38V123H740.58C739.5 123 738.48 123 737.52 123C736.62 123 735.78 123 735 123Z" fill="#FAFAFA"/>
<rect width="900" height="140" transform="translate(20 180)" fill="white"/>
<g filter="url(#filter1_d_72_485)">
<rect x="20" y="180" width="900" height="140" rx="50" fill="url(#paint1_linear_72_485)" shape-rendering="crispEdges"/>
</g>
<path d="M162.48 302.8V235.57H173.37L173.55 246.37L171.66 245.56C172.02 243.7 173.04 241.96 174.72 240.34C176.4 238.66 178.44 237.31 180.84 236.29C183.3 235.27 185.85 234.76 188.49 234.76C192.69 234.76 196.41 235.81 199.65 237.91C202.95 240.01 205.53 242.89 207.39 246.55C209.31 250.21 210.27 254.44 210.27 259.24C210.27 263.98 209.31 268.21 207.39 271.93C205.53 275.59 202.95 278.5 199.65 280.66C196.41 282.76 192.75 283.81 188.67 283.81C185.91 283.81 183.24 283.27 180.66 282.19C178.14 281.11 175.98 279.7 174.18 277.96C172.44 276.22 171.36 274.39 170.94 272.47L173.64 271.21V302.8H162.48ZM186.42 274C188.94 274 191.19 273.37 193.17 272.11C195.15 270.85 196.68 269.11 197.76 266.89C198.9 264.67 199.47 262.12 199.47 259.24C199.47 256.36 198.93 253.84 197.85 251.68C196.77 249.46 195.24 247.72 193.26 246.46C191.28 245.2 189 244.57 186.42 244.57C183.78 244.57 181.47 245.2 179.49 246.46C177.57 247.66 176.04 249.37 174.9 251.59C173.76 253.81 173.19 256.36 173.19 259.24C173.19 262.12 173.76 264.67 174.9 266.89C176.04 269.11 177.57 270.85 179.49 272.11C181.47 273.37 183.78 274 186.42 274ZM220.136 283V235.57H231.026L231.206 250.69L229.676 247.27C230.336 244.87 231.476 242.71 233.096 240.79C234.716 238.87 236.576 237.37 238.676 236.29C240.836 235.15 243.086 234.58 245.426 234.58C246.446 234.58 247.406 234.67 248.306 234.85C249.266 235.03 250.046 235.24 250.646 235.48L247.676 247.63C247.016 247.27 246.206 246.97 245.246 246.73C244.286 246.49 243.326 246.37 242.366 246.37C240.866 246.37 239.426 246.67 238.046 247.27C236.726 247.81 235.556 248.59 234.536 249.61C233.516 250.63 232.706 251.83 232.106 253.21C231.566 254.53 231.296 256.03 231.296 257.71V283H220.136ZM278.226 283.9C273.246 283.9 268.836 282.85 264.996 280.75C261.216 278.65 258.246 275.8 256.086 272.2C253.986 268.54 252.936 264.37 252.936 259.69C252.936 255.97 253.536 252.58 254.736 249.52C255.936 246.46 257.586 243.82 259.686 241.6C261.846 239.32 264.396 237.58 267.336 236.38C270.336 235.12 273.606 234.49 277.146 234.49C280.266 234.49 283.176 235.09 285.876 236.29C288.576 237.49 290.916 239.14 292.896 241.24C294.876 243.28 296.376 245.74 297.396 248.62C298.476 251.44 298.986 254.53 298.926 257.89L298.836 261.76H260.406L258.336 254.2H289.566L288.126 255.73V253.75C287.946 251.89 287.346 250.27 286.326 248.89C285.306 247.45 283.986 246.34 282.366 245.56C280.806 244.72 279.066 244.3 277.146 244.3C274.206 244.3 271.716 244.87 269.676 246.01C267.696 247.15 266.196 248.8 265.176 250.96C264.156 253.06 263.646 255.7 263.646 258.88C263.646 261.94 264.276 264.61 265.536 266.89C266.856 269.17 268.686 270.94 271.026 272.2C273.426 273.4 276.216 274 279.396 274C281.616 274 283.656 273.64 285.516 272.92C287.376 272.2 289.386 270.91 291.546 269.05L297.036 276.7C295.416 278.2 293.556 279.49 291.456 280.57C289.416 281.59 287.256 282.4 284.976 283C282.696 283.6 280.446 283.9 278.226 283.9ZM324.57 283.9C320.37 283.9 316.59 283.21 313.23 281.83C309.93 280.39 307.23 278.35 305.13 275.71L312.33 269.5C314.13 271.54 316.14 273.01 318.36 273.91C320.58 274.81 322.92 275.26 325.38 275.26C326.4 275.26 327.3 275.14 328.08 274.9C328.92 274.66 329.64 274.3 330.24 273.82C330.84 273.34 331.29 272.8 331.59 272.2C331.95 271.54 332.13 270.82 332.13 270.04C332.13 268.6 331.59 267.46 330.51 266.62C329.91 266.2 328.95 265.75 327.63 265.27C326.37 264.79 324.72 264.31 322.68 263.83C319.44 262.99 316.74 262.03 314.58 260.95C312.42 259.81 310.74 258.55 309.54 257.17C308.52 256.03 307.74 254.74 307.2 253.3C306.72 251.86 306.48 250.3 306.48 248.62C306.48 246.52 306.93 244.63 307.83 242.95C308.79 241.21 310.08 239.71 311.7 238.45C313.32 237.19 315.21 236.23 317.37 235.57C319.53 234.91 321.78 234.58 324.12 234.58C326.52 234.58 328.83 234.88 331.05 235.48C333.33 236.08 335.43 236.95 337.35 238.09C339.33 239.17 341.01 240.49 342.39 242.05L336.27 248.8C335.13 247.72 333.87 246.76 332.49 245.92C331.17 245.08 329.82 244.42 328.44 243.94C327.06 243.4 325.77 243.13 324.57 243.13C323.43 243.13 322.41 243.25 321.51 243.49C320.61 243.67 319.86 243.97 319.26 244.39C318.66 244.81 318.18 245.35 317.82 246.01C317.52 246.61 317.37 247.33 317.37 248.17C317.43 248.89 317.61 249.58 317.91 250.24C318.27 250.84 318.75 251.35 319.35 251.77C320.01 252.19 321 252.67 322.32 253.21C323.64 253.75 325.35 254.26 327.45 254.74C330.39 255.52 332.85 256.39 334.83 257.35C336.81 258.31 338.37 259.42 339.51 260.68C340.65 261.76 341.46 263.02 341.94 264.46C342.42 265.9 342.66 267.49 342.66 269.23C342.66 272.05 341.85 274.57 340.23 276.79C338.67 279.01 336.51 280.75 333.75 282.01C331.05 283.27 327.99 283.9 324.57 283.9ZM368.252 283.9C364.052 283.9 360.272 283.21 356.912 281.83C353.612 280.39 350.912 278.35 348.812 275.71L356.012 269.5C357.812 271.54 359.822 273.01 362.042 273.91C364.262 274.81 366.602 275.26 369.062 275.26C370.082 275.26 370.982 275.14 371.762 274.9C372.602 274.66 373.322 274.3 373.922 273.82C374.522 273.34 374.972 272.8 375.272 272.2C375.632 271.54 375.812 270.82 375.812 270.04C375.812 268.6 375.272 267.46 374.192 266.62C373.592 266.2 372.632 265.75 371.312 265.27C370.052 264.79 368.402 264.31 366.362 263.83C363.122 262.99 360.422 262.03 358.262 260.95C356.102 259.81 354.422 258.55 353.222 257.17C352.202 256.03 351.422 254.74 350.882 253.3C350.402 251.86 350.162 250.3 350.162 248.62C350.162 246.52 350.612 244.63 351.512 242.95C352.472 241.21 353.762 239.71 355.382 238.45C357.002 237.19 358.892 236.23 361.052 235.57C363.212 234.91 365.462 234.58 367.802 234.58C370.202 234.58 372.512 234.88 374.732 235.48C377.012 236.08 379.112 236.95 381.032 238.09C383.012 239.17 384.692 240.49 386.072 242.05L379.952 248.8C378.812 247.72 377.552 246.76 376.172 245.92C374.852 245.08 373.502 244.42 372.122 243.94C370.742 243.4 369.452 243.13 368.252 243.13C367.112 243.13 366.092 243.25 365.192 243.49C364.292 243.67 363.542 243.97 362.942 244.39C362.342 244.81 361.862 245.35 361.502 246.01C361.202 246.61 361.052 247.33 361.052 248.17C361.112 248.89 361.292 249.58 361.592 250.24C361.952 250.84 362.432 251.35 363.032 251.77C363.692 252.19 364.682 252.67 366.002 253.21C367.322 253.75 369.032 254.26 371.132 254.74C374.072 255.52 376.532 256.39 378.512 257.35C380.492 258.31 382.052 259.42 383.192 260.68C384.332 261.76 385.142 263.02 385.622 264.46C386.102 265.9 386.342 267.49 386.342 269.23C386.342 272.05 385.532 274.57 383.912 276.79C382.352 279.01 380.192 280.75 377.432 282.01C374.732 283.27 371.672 283.9 368.252 283.9ZM427.678 283V223.51H438.748V283H427.678ZM418.318 245.83V235.57H449.098V245.83H418.318ZM478.779 283.9C474.039 283.9 469.809 282.85 466.089 280.75C462.369 278.59 459.429 275.65 457.269 271.93C455.109 268.21 454.029 263.98 454.029 259.24C454.029 254.5 455.109 250.27 457.269 246.55C459.429 242.83 462.369 239.92 466.089 237.82C469.809 235.66 474.039 234.58 478.779 234.58C483.459 234.58 487.659 235.66 491.379 237.82C495.099 239.92 498.009 242.83 500.109 246.55C502.269 250.27 503.349 254.5 503.349 259.24C503.349 263.98 502.269 268.21 500.109 271.93C498.009 275.65 495.099 278.59 491.379 280.75C487.659 282.85 483.459 283.9 478.779 283.9ZM478.779 274.09C481.359 274.09 483.639 273.43 485.619 272.11C487.659 270.79 489.249 269.02 490.389 266.8C491.589 264.58 492.159 262.06 492.099 259.24C492.159 256.36 491.589 253.81 490.389 251.59C489.249 249.37 487.659 247.63 485.619 246.37C483.639 245.05 481.359 244.39 478.779 244.39C476.199 244.39 473.859 245.05 471.759 246.37C469.719 247.63 468.129 249.4 466.989 251.68C465.849 253.9 465.279 256.42 465.279 259.24C465.279 262.06 465.849 264.58 466.989 266.8C468.129 269.02 469.719 270.79 471.759 272.11C473.859 273.43 476.199 274.09 478.779 274.09ZM565.897 283.9C563.797 283.9 561.727 283.6 559.687 283C557.707 282.34 555.907 281.47 554.287 280.39C552.667 279.31 551.317 278.11 550.237 276.79C549.157 275.41 548.437 274.03 548.077 272.65L550.687 271.48L550.417 282.82H539.707V216.4H550.777V246.55L548.797 245.65C549.097 244.21 549.757 242.86 550.777 241.6C551.857 240.28 553.177 239.11 554.737 238.09C556.297 237.01 558.007 236.17 559.867 235.57C561.727 234.91 563.617 234.58 565.537 234.58C569.797 234.58 573.547 235.63 576.787 237.73C580.087 239.83 582.667 242.74 584.527 246.46C586.447 250.18 587.407 254.41 587.407 259.15C587.407 263.95 586.477 268.21 584.617 271.93C582.757 275.65 580.177 278.59 576.877 280.75C573.637 282.85 569.977 283.9 565.897 283.9ZM563.557 274.18C566.077 274.18 568.327 273.55 570.307 272.29C572.287 270.97 573.847 269.2 574.987 266.98C576.127 264.7 576.697 262.09 576.697 259.15C576.697 256.27 576.127 253.72 574.987 251.5C573.907 249.28 572.377 247.54 570.397 246.28C568.417 245.02 566.137 244.39 563.557 244.39C560.977 244.39 558.697 245.02 556.717 246.28C554.737 247.54 553.177 249.28 552.037 251.5C550.897 253.72 550.327 256.27 550.327 259.15C550.327 262.09 550.897 264.7 552.037 266.98C553.177 269.2 554.737 270.97 556.717 272.29C558.697 273.55 560.977 274.18 563.557 274.18ZM619.505 283.9C614.525 283.9 610.115 282.85 606.275 280.75C602.495 278.65 599.525 275.8 597.365 272.2C595.265 268.54 594.215 264.37 594.215 259.69C594.215 255.97 594.815 252.58 596.015 249.52C597.215 246.46 598.865 243.82 600.965 241.6C603.125 239.32 605.675 237.58 608.615 236.38C611.615 235.12 614.885 234.49 618.425 234.49C621.545 234.49 624.455 235.09 627.155 236.29C629.855 237.49 632.195 239.14 634.175 241.24C636.155 243.28 637.655 245.74 638.675 248.62C639.755 251.44 640.265 254.53 640.205 257.89L640.115 261.76H601.685L599.615 254.2H630.845L629.405 255.73V253.75C629.225 251.89 628.625 250.27 627.605 248.89C626.585 247.45 625.265 246.34 623.645 245.56C622.085 244.72 620.345 244.3 618.425 244.3C615.485 244.3 612.995 244.87 610.955 246.01C608.975 247.15 607.475 248.8 606.455 250.96C605.435 253.06 604.925 255.7 604.925 258.88C604.925 261.94 605.555 264.61 606.815 266.89C608.135 269.17 609.965 270.94 612.305 272.2C614.705 273.4 617.495 274 620.675 274C622.895 274 624.935 273.64 626.795 272.92C628.655 272.2 630.665 270.91 632.825 269.05L638.315 276.7C636.695 278.2 634.835 279.49 632.735 280.57C630.695 281.59 628.535 282.4 626.255 283C623.975 283.6 621.725 283.9 619.505 283.9ZM670.9 303.7C667.36 303.7 663.82 303.16 660.28 302.08C656.8 301 653.98 299.59 651.82 297.85L655.78 289.66C657.04 290.56 658.45 291.34 660.01 292C661.57 292.66 663.22 293.17 664.96 293.53C666.76 293.89 668.53 294.07 670.27 294.07C673.45 294.07 676.09 293.56 678.19 292.54C680.35 291.58 681.97 290.08 683.05 288.04C684.13 286.06 684.67 283.57 684.67 280.57V271.84L686.29 272.47C685.93 274.33 684.94 276.1 683.32 277.78C681.7 279.46 679.66 280.84 677.2 281.92C674.74 282.94 672.22 283.45 669.64 283.45C665.14 283.45 661.15 282.4 657.67 280.3C654.25 278.2 651.52 275.35 649.48 271.75C647.5 268.09 646.51 263.89 646.51 259.15C646.51 254.41 647.5 250.21 649.48 246.55C651.46 242.83 654.16 239.92 657.58 237.82C661.06 235.66 664.96 234.58 669.28 234.58C671.08 234.58 672.82 234.79 674.5 235.21C676.18 235.63 677.71 236.23 679.09 237.01C680.53 237.79 681.82 238.66 682.96 239.62C684.1 240.58 685.03 241.6 685.75 242.68C686.47 243.76 686.92 244.81 687.1 245.83L684.76 246.55L684.94 235.57H695.83V279.76C695.83 283.6 695.26 286.99 694.12 289.93C692.98 292.87 691.33 295.36 689.17 297.4C687.01 299.5 684.4 301.06 681.34 302.08C678.28 303.16 674.8 303.7 670.9 303.7ZM671.35 274C674.05 274 676.42 273.37 678.46 272.11C680.56 270.85 682.18 269.11 683.32 266.89C684.46 264.67 685.03 262.12 685.03 259.24C685.03 256.3 684.43 253.72 683.23 251.5C682.09 249.22 680.5 247.45 678.46 246.19C676.42 244.93 674.05 244.3 671.35 244.3C668.65 244.3 666.28 244.96 664.24 246.28C662.2 247.54 660.58 249.31 659.38 251.59C658.24 253.81 657.67 256.36 657.67 259.24C657.67 262.06 658.24 264.61 659.38 266.89C660.58 269.11 662.2 270.85 664.24 272.11C666.28 273.37 668.65 274 671.35 274ZM709.892 283V235.57H720.962V283H709.892ZM715.292 225.49C713.072 225.49 711.332 224.95 710.072 223.87C708.872 222.73 708.272 221.14 708.272 219.1C708.272 217.18 708.902 215.62 710.162 214.42C711.422 213.22 713.132 212.62 715.292 212.62C717.572 212.62 719.312 213.19 720.512 214.33C721.772 215.41 722.402 217 722.402 219.1C722.402 220.96 721.772 222.49 720.512 223.69C719.252 224.89 717.512 225.49 715.292 225.49ZM735 283V235.57H745.8L745.98 245.29L743.91 246.37C744.51 244.21 745.68 242.26 747.42 240.52C749.16 238.72 751.23 237.28 753.63 236.2C756.03 235.12 758.49 234.58 761.01 234.58C764.61 234.58 767.61 235.3 770.01 236.74C772.47 238.18 774.3 240.34 775.5 243.22C776.76 246.1 777.39 249.7 777.39 254.02V283H766.32V254.83C766.32 252.43 765.99 250.45 765.33 248.89C764.67 247.27 763.65 246.1 762.27 245.38C760.89 244.6 759.21 244.24 757.23 244.3C755.61 244.3 754.11 244.57 752.73 245.11C751.41 245.59 750.24 246.31 749.22 247.27C748.26 248.17 747.48 249.22 746.88 250.42C746.34 251.62 746.07 252.94 746.07 254.38V283H740.58C739.5 283 738.48 283 737.52 283C736.62 283 735.78 283 735 283Z" fill="#FAFAFA"/>
<rect x="0.5" y="0.5" width="939" height="339" rx="4.5" stroke="#9747FF" stroke-dasharray="10 5"/>
<defs>
<filter id="filter0_d_72_485" x="16" y="20" width="908" height="148" filterUnits="userSpaceOnUse" color-interpolation-filters="sRGB">
<feFlood flood-opacity="0" result="BackgroundImageFix"/>
<feColorMatrix in="SourceAlpha" type="matrix" values="0 0 0 0 0 0 0 0 0 0 0 0 0 0 0 0 0 0 127 0" result="hardAlpha"/>
<feOffset dy="4"/>
<feGaussianBlur stdDeviation="2"/>
<feComposite in2="hardAlpha" operator="out"/>
<feColorMatrix type="matrix" values="0 0 0 0 0 0 0 0 0 0 0 0 0 0 0 0 0 0 0.25 0"/>
<feBlend mode="normal" in2="BackgroundImageFix" result="effect1_dropShadow_72_485"/>
<feBlend mode="normal" in="SourceGraphic" in2="effect1_dropShadow_72_485" result="shape"/>
</filter>
<filter id="filter1_d_72_485" x="16" y="180" width="908" height="148" filterUnits="userSpaceOnUse" color-interpolation-filters="sRGB">
<feFlood flood-opacity="0" result="BackgroundImageFix"/>
<feColorMatrix in="SourceAlpha" type="matrix" values="0 0 0 0 0 0 0 0 0 0 0 0 0 0 0 0 0 0 127 0" result="hardAlpha"/>
<feOffset dy="4"/>
<feGaussianBlur stdDeviation="2"/>
<feComposite in2="hardAlpha" operator="out"/>
<feColorMatrix type="matrix" values="0 0 0 0 0 0 0 0 0 0 0 0 0 0 0 0 0 0 0.25 0"/>
<feBlend mode="normal" in2="BackgroundImageFix" result="effect1_dropShadow_72_485"/>
<feBlend mode="normal" in="SourceGraphic" in2="effect1_dropShadow_72_485" result="shape"/>
</filter>
<linearGradient id="paint0_linear_72_485" x1="470" y1="19.9999" x2="1676" y2="4.49994" gradientUnits="userSpaceOnUse">
<stop stop-color="#7079D1"/>
<stop offset="1" stop-color="#7079D1" stop-opacity="0"/>
</linearGradient>
<linearGradient id="paint1_linear_72_485" x1="470" y1="180" x2="2561.5" y2="180" gradientUnits="userSpaceOnUse">
<stop stop-color="#4C55AE"/>
<stop offset="1" stop-color="#7079D1" stop-opacity="0"/>
</linearGradient>
</defs>
</svg>
