<svg width="324" height="25" viewBox="0 0 324 25" fill="none" xmlns="http://www.w3.org/2000/svg">
<path d="M0.73 24V3H5.23V19.95H14.74V24H0.73ZM25.2674 24.3C23.5474 24.3 22.0474 23.95 20.7674 23.25C19.4874 22.55 18.4874 21.59 17.7674 20.37C17.0474 19.15 16.6874 17.75 16.6874 16.17C16.6874 14.95 16.8874 13.83 17.2874 12.81C17.6874 11.79 18.2474 10.91 18.9674 10.17C19.6874 9.41 20.5374 8.83 21.5174 8.43C22.5174 8.01 23.5974 7.8 24.7574 7.8C25.8374 7.8 26.8374 8 27.7574 8.4C28.6774 8.78 29.4674 9.33 30.1274 10.05C30.8074 10.75 31.3274 11.58 31.6874 12.54C32.0474 13.5 32.2074 14.55 32.1674 15.69L32.1374 17.01H19.3874L18.6974 14.4H28.6274L28.1474 14.94V14.28C28.1074 13.74 27.9274 13.25 27.6074 12.81C27.3074 12.37 26.9174 12.03 26.4374 11.79C25.9574 11.55 25.4174 11.43 24.8174 11.43C23.9374 11.43 23.1874 11.6 22.5674 11.94C21.9674 12.28 21.5074 12.78 21.1874 13.44C20.8674 14.1 20.7074 14.9 20.7074 15.84C20.7074 16.8 20.9074 17.63 21.3074 18.33C21.7274 19.03 22.3074 19.58 23.0474 19.98C23.8074 20.36 24.6974 20.55 25.7174 20.55C26.4174 20.55 27.0574 20.44 27.6374 20.22C28.2174 20 28.8374 19.62 29.4974 19.08L31.5374 21.93C30.9574 22.45 30.3174 22.89 29.6174 23.25C28.9174 23.59 28.1974 23.85 27.4574 24.03C26.7174 24.21 25.9874 24.3 25.2674 24.3ZM40.6555 24.3C39.1755 24.3 37.8555 24.06 36.6955 23.58C35.5555 23.08 34.6355 22.4 33.9355 21.54L36.5755 19.26C37.1955 19.92 37.8855 20.4 38.6455 20.7C39.4055 20.98 40.1655 21.12 40.9255 21.12C41.2255 21.12 41.4955 21.09 41.7355 21.03C41.9955 20.95 42.2155 20.85 42.3955 20.73C42.5755 20.59 42.7055 20.43 42.7855 20.25C42.8855 20.05 42.9355 19.84 42.9355 19.62C42.9355 19.18 42.7555 18.83 42.3955 18.57C42.1955 18.47 41.8855 18.35 41.4655 18.21C41.0455 18.05 40.5055 17.88 39.8455 17.7C38.8255 17.44 37.9555 17.14 37.2355 16.8C36.5355 16.44 35.9755 16.04 35.5555 15.6C35.1955 15.18 34.9155 14.73 34.7155 14.25C34.5355 13.75 34.4455 13.2 34.4455 12.6C34.4455 11.88 34.6055 11.23 34.9255 10.65C35.2455 10.05 35.6855 9.54 36.2455 9.12C36.8255 8.7 37.4855 8.38 38.2255 8.16C38.9655 7.92 39.7455 7.8 40.5655 7.8C41.3855 7.8 42.1855 7.9 42.9655 8.1C43.7455 8.3 44.4655 8.59 45.1255 8.97C45.8055 9.33 46.3955 9.76 46.8955 10.26L44.6155 12.78C44.2555 12.44 43.8455 12.13 43.3855 11.85C42.9455 11.57 42.4855 11.35 42.0055 11.19C41.5255 11.03 41.0955 10.95 40.7155 10.95C40.3755 10.95 40.0655 10.98 39.7855 11.04C39.5255 11.1 39.3055 11.19 39.1255 11.31C38.9455 11.43 38.8055 11.59 38.7055 11.79C38.6255 11.97 38.5855 12.17 38.5855 12.39C38.5855 12.61 38.6355 12.82 38.7355 13.02C38.8555 13.22 39.0155 13.39 39.2155 13.53C39.4355 13.65 39.7555 13.79 40.1755 13.95C40.6155 14.11 41.2055 14.29 41.9455 14.49C42.9055 14.75 43.7155 15.04 44.3755 15.36C45.0555 15.68 45.5955 16.05 45.9955 16.47C46.3355 16.83 46.5855 17.24 46.7455 17.7C46.9055 18.16 46.9855 18.67 46.9855 19.23C46.9855 20.21 46.7055 21.09 46.1455 21.87C45.6055 22.63 44.8555 23.23 43.8955 23.67C42.9355 24.09 41.8555 24.3 40.6555 24.3ZM55.3626 24.3C53.8826 24.3 52.5626 24.06 51.4026 23.58C50.2626 23.08 49.3426 22.4 48.6426 21.54L51.2826 19.26C51.9026 19.92 52.5926 20.4 53.3526 20.7C54.1126 20.98 54.8726 21.12 55.6326 21.12C55.9326 21.12 56.2026 21.09 56.4426 21.03C56.7026 20.95 56.9226 20.85 57.1026 20.73C57.2826 20.59 57.4126 20.43 57.4926 20.25C57.5926 20.05 57.6426 19.84 57.6426 19.62C57.6426 19.18 57.4626 18.83 57.1026 18.57C56.9026 18.47 56.5926 18.35 56.1726 18.21C55.7526 18.05 55.2126 17.88 54.5526 17.7C53.5326 17.44 52.6626 17.14 51.9426 16.8C51.2426 16.44 50.6826 16.04 50.2626 15.6C49.9026 15.18 49.6226 14.73 49.4226 14.25C49.2426 13.75 49.1526 13.2 49.1526 12.6C49.1526 11.88 49.3126 11.23 49.6326 10.65C49.9526 10.05 50.3926 9.54 50.9526 9.12C51.5326 8.7 52.1926 8.38 52.9326 8.16C53.6726 7.92 54.4526 7.8 55.2726 7.8C56.0926 7.8 56.8926 7.9 57.6726 8.1C58.4526 8.3 59.1726 8.59 59.8326 8.97C60.5126 9.33 61.1026 9.76 61.6026 10.26L59.3226 12.78C58.9626 12.44 58.5526 12.13 58.0926 11.85C57.6526 11.57 57.1926 11.35 56.7126 11.19C56.2326 11.03 55.8026 10.95 55.4226 10.95C55.0826 10.95 54.7726 10.98 54.4926 11.04C54.2326 11.1 54.0126 11.19 53.8326 11.31C53.6526 11.43 53.5126 11.59 53.4126 11.79C53.3326 11.97 53.2926 12.17 53.2926 12.39C53.2926 12.61 53.3426 12.82 53.4426 13.02C53.5626 13.22 53.7226 13.39 53.9226 13.53C54.1426 13.65 54.4626 13.79 54.8826 13.95C55.3226 14.11 55.9126 14.29 56.6526 14.49C57.6126 14.75 58.4226 15.04 59.0826 15.36C59.7626 15.68 60.3026 16.05 60.7026 16.47C61.0426 16.83 61.2926 17.24 61.4526 17.7C61.6126 18.16 61.6926 18.67 61.6926 19.23C61.6926 20.21 61.4126 21.09 60.8526 21.87C60.3126 22.63 59.5626 23.23 58.6026 23.67C57.6426 24.09 56.5626 24.3 55.3626 24.3ZM72.1096 24.3C70.4896 24.3 69.0396 23.95 67.7596 23.25C66.4996 22.53 65.4996 21.55 64.7596 20.31C64.0396 19.07 63.6796 17.65 63.6796 16.05C63.6796 14.45 64.0396 13.04 64.7596 11.82C65.4996 10.58 66.4996 9.6 67.7596 8.88C69.0396 8.16 70.4896 7.8 72.1096 7.8C73.7096 7.8 75.1396 8.16 76.3996 8.88C77.6796 9.6 78.6796 10.58 79.3996 11.82C80.1196 13.04 80.4796 14.45 80.4796 16.05C80.4796 17.65 80.1196 19.07 79.3996 20.31C78.6796 21.55 77.6796 22.53 76.3996 23.25C75.1396 23.95 73.7096 24.3 72.1096 24.3ZM72.1096 20.58C72.8896 20.58 73.5896 20.39 74.2096 20.01C74.8296 19.61 75.3096 19.07 75.6496 18.39C76.0096 17.69 76.1896 16.91 76.1896 16.05C76.1896 15.17 76.0096 14.39 75.6496 13.71C75.3096 13.01 74.8296 12.47 74.2096 12.09C73.5896 11.69 72.8896 11.49 72.1096 11.49C71.3096 11.49 70.5996 11.69 69.9796 12.09C69.3596 12.49 68.8696 13.03 68.5096 13.71C68.1496 14.39 67.9796 15.17 67.9996 16.05C67.9796 16.91 68.1496 17.69 68.5096 18.39C68.8696 19.07 69.3596 19.61 69.9796 20.01C70.5996 20.39 71.3096 20.58 72.1096 20.58ZM83.6847 24V8.13H87.7647L87.8847 11.37L87.0447 11.73C87.2647 11.01 87.6547 10.36 88.2147 9.78C88.7947 9.18 89.4847 8.7 90.2847 8.34C91.0847 7.98 91.9247 7.8 92.8047 7.8C94.0047 7.8 95.0047 8.04 95.8047 8.52C96.6247 9 97.2347 9.73 97.6347 10.71C98.0547 11.67 98.2647 12.86 98.2647 14.28V24H94.0047V14.61C94.0047 13.89 93.9047 13.29 93.7047 12.81C93.5047 12.33 93.1947 11.98 92.7747 11.76C92.3747 11.52 91.8747 11.42 91.2747 11.46C90.7947 11.46 90.3447 11.54 89.9247 11.7C89.5247 11.84 89.1747 12.05 88.8747 12.33C88.5947 12.61 88.3647 12.93 88.1847 13.29C88.0247 13.65 87.9447 14.04 87.9447 14.46V24H85.8447C85.3847 24 84.9747 24 84.6147 24C84.2547 24 83.9447 24 83.6847 24ZM121.356 24.3C119.816 24.3 118.396 24.04 117.096 23.52C115.816 22.98 114.696 22.23 113.736 21.27C112.796 20.29 112.066 19.14 111.546 17.82C111.026 16.48 110.766 15.02 110.766 13.44C110.766 11.9 111.036 10.48 111.576 9.18C112.116 7.86 112.876 6.72 113.856 5.76C114.836 4.78 115.986 4.02 117.306 3.48C118.626 2.94 120.056 2.67 121.596 2.67C122.596 2.67 123.576 2.81 124.536 3.09C125.516 3.35 126.406 3.74 127.206 4.26C128.026 4.78 128.726 5.4 129.306 6.12L126.486 9.24C126.006 8.76 125.506 8.35 124.986 8.01C124.486 7.65 123.946 7.38 123.366 7.2C122.806 7 122.206 6.9 121.566 6.9C120.706 6.9 119.896 7.06 119.136 7.38C118.396 7.7 117.746 8.15 117.186 8.73C116.626 9.29 116.176 9.98 115.836 10.8C115.516 11.6 115.356 12.49 115.356 13.47C115.356 14.47 115.516 15.38 115.836 16.2C116.156 17 116.606 17.69 117.186 18.27C117.766 18.83 118.456 19.27 119.256 19.59C120.076 19.89 120.976 20.04 121.956 20.04C122.596 20.04 123.216 19.95 123.816 19.77C124.416 19.59 124.966 19.34 125.466 19.02C125.986 18.7 126.446 18.33 126.846 17.91L129.036 21.42C128.556 21.96 127.906 22.45 127.086 22.89C126.286 23.33 125.386 23.68 124.386 23.94C123.386 24.18 122.376 24.3 121.356 24.3ZM137.69 24.3C136.53 24.3 135.53 24.05 134.69 23.55C133.87 23.03 133.23 22.3 132.77 21.36C132.33 20.4 132.11 19.25 132.11 17.91V8.13H136.37V17.22C136.37 17.94 136.49 18.57 136.73 19.11C136.97 19.63 137.31 20.03 137.75 20.31C138.19 20.59 138.73 20.73 139.37 20.73C139.83 20.73 140.26 20.66 140.66 20.52C141.06 20.36 141.4 20.14 141.68 19.86C141.96 19.58 142.18 19.25 142.34 18.87C142.5 18.49 142.58 18.08 142.58 17.64V8.13H146.84V24H142.79L142.64 20.73L143.42 20.37C143.18 21.11 142.78 21.78 142.22 22.38C141.66 22.98 140.99 23.45 140.21 23.79C139.43 24.13 138.59 24.3 137.69 24.3ZM156.466 24.3C154.986 24.3 153.666 24.06 152.506 23.58C151.366 23.08 150.446 22.4 149.746 21.54L152.386 19.26C153.006 19.92 153.696 20.4 154.456 20.7C155.216 20.98 155.976 21.12 156.736 21.12C157.036 21.12 157.306 21.09 157.546 21.03C157.806 20.95 158.026 20.85 158.206 20.73C158.386 20.59 158.516 20.43 158.596 20.25C158.696 20.05 158.746 19.84 158.746 19.62C158.746 19.18 158.566 18.83 158.206 18.57C158.006 18.47 157.696 18.35 157.276 18.21C156.856 18.05 156.316 17.88 155.656 17.7C154.636 17.44 153.766 17.14 153.046 16.8C152.346 16.44 151.786 16.04 151.366 15.6C151.006 15.18 150.726 14.73 150.526 14.25C150.346 13.75 150.256 13.2 150.256 12.6C150.256 11.88 150.416 11.23 150.736 10.65C151.056 10.05 151.496 9.54 152.056 9.12C152.636 8.7 153.296 8.38 154.036 8.16C154.776 7.92 155.556 7.8 156.376 7.8C157.196 7.8 157.996 7.9 158.776 8.1C159.556 8.3 160.276 8.59 160.936 8.97C161.616 9.33 162.206 9.76 162.706 10.26L160.426 12.78C160.066 12.44 159.656 12.13 159.196 11.85C158.756 11.57 158.296 11.35 157.816 11.19C157.336 11.03 156.906 10.95 156.526 10.95C156.186 10.95 155.876 10.98 155.596 11.04C155.336 11.1 155.116 11.19 154.936 11.31C154.756 11.43 154.616 11.59 154.516 11.79C154.436 11.97 154.396 12.17 154.396 12.39C154.396 12.61 154.446 12.82 154.546 13.02C154.666 13.22 154.826 13.39 155.026 13.53C155.246 13.65 155.566 13.79 155.986 13.95C156.426 14.11 157.016 14.29 157.756 14.49C158.716 14.75 159.526 15.04 160.186 15.36C160.866 15.68 161.406 16.05 161.806 16.47C162.146 16.83 162.396 17.24 162.556 17.7C162.716 18.16 162.796 18.67 162.796 19.23C162.796 20.21 162.516 21.09 161.956 21.87C161.416 22.63 160.666 23.23 159.706 23.67C158.746 24.09 157.666 24.3 156.466 24.3ZM167.363 24V4.11H171.623V24H167.363ZM164.393 11.94V8.13H174.863V11.94H164.393ZM184.873 24.3C183.253 24.3 181.803 23.95 180.523 23.25C179.263 22.53 178.263 21.55 177.523 20.31C176.803 19.07 176.443 17.65 176.443 16.05C176.443 14.45 176.803 13.04 177.523 11.82C178.263 10.58 179.263 9.6 180.523 8.88C181.803 8.16 183.253 7.8 184.873 7.8C186.473 7.8 187.903 8.16 189.163 8.88C190.443 9.6 191.443 10.58 192.163 11.82C192.883 13.04 193.243 14.45 193.243 16.05C193.243 17.65 192.883 19.07 192.163 20.31C191.443 21.55 190.443 22.53 189.163 23.25C187.903 23.95 186.473 24.3 184.873 24.3ZM184.873 20.58C185.653 20.58 186.353 20.39 186.973 20.01C187.593 19.61 188.073 19.07 188.413 18.39C188.773 17.69 188.953 16.91 188.953 16.05C188.953 15.17 188.773 14.39 188.413 13.71C188.073 13.01 187.593 12.47 186.973 12.09C186.353 11.69 185.653 11.49 184.873 11.49C184.073 11.49 183.363 11.69 182.743 12.09C182.123 12.49 181.633 13.03 181.273 13.71C180.913 14.39 180.743 15.17 180.763 16.05C180.743 16.91 180.913 17.69 181.273 18.39C181.633 19.07 182.123 19.61 182.743 20.01C183.363 20.39 184.073 20.58 184.873 20.58ZM196.418 24V8.13H200.528L200.618 11.16L199.988 11.28C200.208 10.76 200.498 10.29 200.858 9.87C201.218 9.45 201.638 9.09 202.118 8.79C202.618 8.49 203.138 8.26 203.678 8.1C204.218 7.92 204.758 7.83 205.298 7.83C206.118 7.83 206.858 7.96 207.518 8.22C208.178 8.48 208.738 8.89 209.198 9.45C209.658 9.99 210.018 10.71 210.278 11.61L209.618 11.55L209.828 11.07C210.088 10.59 210.418 10.16 210.818 9.78C211.218 9.38 211.668 9.04 212.168 8.76C212.668 8.46 213.188 8.23 213.728 8.07C214.268 7.91 214.798 7.83 215.318 7.83C216.558 7.83 217.588 8.08 218.408 8.58C219.228 9.06 219.838 9.79 220.238 10.77C220.658 11.75 220.868 12.95 220.868 14.37V24H216.608V14.67C216.608 13.95 216.508 13.36 216.308 12.9C216.108 12.44 215.818 12.1 215.438 11.88C215.058 11.64 214.568 11.52 213.968 11.52C213.508 11.52 213.078 11.6 212.678 11.76C212.298 11.9 211.958 12.11 211.658 12.39C211.378 12.65 211.158 12.96 210.998 13.32C210.838 13.68 210.758 14.08 210.758 14.52V24H206.498V14.64C206.498 13.98 206.388 13.42 206.168 12.96C205.968 12.48 205.678 12.12 205.298 11.88C204.918 11.64 204.448 11.52 203.888 11.52C203.428 11.52 202.998 11.6 202.598 11.76C202.218 11.9 201.888 12.11 201.608 12.39C201.328 12.65 201.098 12.96 200.918 13.32C200.758 13.68 200.678 14.07 200.678 14.49V24H196.418ZM225.285 24V8.13H229.545V24H225.285ZM227.385 4.86C226.565 4.86 225.925 4.66 225.465 4.26C225.005 3.86 224.775 3.29 224.775 2.55C224.775 1.87 225.005 1.32 225.465 0.899999C225.945 0.459998 226.585 0.239998 227.385 0.239998C228.205 0.239998 228.845 0.449999 229.305 0.869999C229.765 1.27 229.995 1.83 229.995 2.55C229.995 3.25 229.755 3.81 229.275 4.23C228.815 4.65 228.185 4.86 227.385 4.86ZM233.465 24V21.3L241.835 10.44V11.64H233.465V8.13H246.125V10.89L238.115 21.48L237.995 20.49H246.335V24H233.465ZM255.621 24.3C254.301 24.3 253.111 23.94 252.051 23.22C250.991 22.5 250.151 21.52 249.531 20.28C248.911 19.04 248.601 17.62 248.601 16.02C248.601 14.42 248.911 13.01 249.531 11.79C250.171 10.55 251.031 9.58 252.111 8.88C253.191 8.16 254.421 7.8 255.801 7.8C256.581 7.8 257.291 7.92 257.931 8.16C258.591 8.38 259.161 8.69 259.641 9.09C260.141 9.49 260.561 9.95 260.901 10.47C261.241 10.99 261.481 11.55 261.621 12.15L260.721 12V8.13H264.951V24H260.661V20.19L261.621 20.1C261.461 20.66 261.201 21.19 260.841 21.69C260.481 22.19 260.031 22.64 259.491 23.04C258.971 23.42 258.381 23.73 257.721 23.97C257.061 24.19 256.361 24.3 255.621 24.3ZM256.791 20.61C257.591 20.61 258.291 20.42 258.891 20.04C259.491 19.66 259.951 19.13 260.271 18.45C260.611 17.75 260.781 16.94 260.781 16.02C260.781 15.12 260.611 14.33 260.271 13.65C259.951 12.97 259.491 12.44 258.891 12.06C258.291 11.66 257.591 11.46 256.791 11.46C256.011 11.46 255.321 11.66 254.721 12.06C254.141 12.44 253.681 12.97 253.341 13.65C253.001 14.33 252.831 15.12 252.831 16.02C252.831 16.94 253.001 17.75 253.341 18.45C253.681 19.13 254.141 19.66 254.721 20.04C255.321 20.42 256.011 20.61 256.791 20.61ZM270.752 24V4.11H275.012V24H270.752ZM267.782 11.94V8.13H278.252V11.94H267.782ZM281.388 24V8.13H285.648V24H281.388ZM283.488 4.86C282.668 4.86 282.028 4.66 281.568 4.26C281.108 3.86 280.878 3.29 280.878 2.55C280.878 1.87 281.108 1.32 281.568 0.899999C282.048 0.459998 282.688 0.239998 283.488 0.239998C284.308 0.239998 284.948 0.449999 285.408 0.869999C285.868 1.27 286.098 1.83 286.098 2.55C286.098 3.25 285.858 3.81 285.378 4.23C284.918 4.65 284.288 4.86 283.488 4.86ZM297.578 24.3C295.958 24.3 294.508 23.95 293.228 23.25C291.968 22.53 290.968 21.55 290.228 20.31C289.508 19.07 289.148 17.65 289.148 16.05C289.148 14.45 289.508 13.04 290.228 11.82C290.968 10.58 291.968 9.6 293.228 8.88C294.508 8.16 295.958 7.8 297.578 7.8C299.178 7.8 300.608 8.16 301.868 8.88C303.148 9.6 304.148 10.58 304.868 11.82C305.588 13.04 305.948 14.45 305.948 16.05C305.948 17.65 305.588 19.07 304.868 20.31C304.148 21.55 303.148 22.53 301.868 23.25C300.608 23.95 299.178 24.3 297.578 24.3ZM297.578 20.58C298.358 20.58 299.058 20.39 299.678 20.01C300.298 19.61 300.778 19.07 301.118 18.39C301.478 17.69 301.658 16.91 301.658 16.05C301.658 15.17 301.478 14.39 301.118 13.71C300.778 13.01 300.298 12.47 299.678 12.09C299.058 11.69 298.358 11.49 297.578 11.49C296.778 11.49 296.068 11.69 295.448 12.09C294.828 12.49 294.338 13.03 293.978 13.71C293.618 14.39 293.448 15.17 293.468 16.05C293.448 16.91 293.618 17.69 293.978 18.39C294.338 19.07 294.828 19.61 295.448 20.01C296.068 20.39 296.778 20.58 297.578 20.58ZM309.153 24V8.13H313.233L313.353 11.37L312.513 11.73C312.733 11.01 313.123 10.36 313.683 9.78C314.263 9.18 314.953 8.7 315.753 8.34C316.553 7.98 317.393 7.8 318.273 7.8C319.473 7.8 320.473 8.04 321.273 8.52C322.093 9 322.703 9.73 323.103 10.71C323.523 11.67 323.733 12.86 323.733 14.28V24H319.473V14.61C319.473 13.89 319.373 13.29 319.173 12.81C318.973 12.33 318.663 11.98 318.243 11.76C317.843 11.52 317.343 11.42 316.743 11.46C316.263 11.46 315.813 11.54 315.393 11.7C314.993 11.84 314.643 12.05 314.343 12.33C314.063 12.61 313.833 12.93 313.653 13.29C313.493 13.65 313.413 14.04 313.413 14.46V24H311.313C310.853 24 310.443 24 310.083 24C309.723 24 309.413 24 309.153 24Z" fill="#7079D1"/>
</svg>
