<svg width="829" height="817" viewBox="0 0 829 817" fill="none" xmlns="http://www.w3.org/2000/svg">
<g filter="url(#filter0_d_170_355)">
<path d="M226.4 686.5C220.3 686.5 214.7 685.75 209.6 684.25C204.5 682.65 199.9 680.3 195.8 677.2C191.7 674.1 188.05 670.35 184.85 665.95L197.6 651.55C202.5 658.35 207.3 663.05 212 665.65C216.7 668.25 222 669.55 227.9 669.55C231.3 669.55 234.4 669.05 237.2 668.05C240 666.95 242.2 665.5 243.8 663.7C245.4 661.8 246.2 659.65 246.2 657.25C246.2 655.55 245.85 654 245.15 652.6C244.55 651.1 243.6 649.8 242.3 648.7C241 647.5 239.4 646.4 237.5 645.4C235.6 644.4 233.45 643.55 231.05 642.85C228.65 642.15 226 641.5 223.1 640.9C217.6 639.8 212.8 638.35 208.7 636.55C204.6 634.65 201.15 632.35 198.35 629.65C195.55 626.85 193.5 623.75 192.2 620.35C190.9 616.85 190.25 612.9 190.25 608.5C190.25 604.1 191.2 600.05 193.1 596.35C195.1 592.65 197.8 589.45 201.2 586.75C204.6 584.05 208.55 581.95 213.05 580.45C217.55 578.95 222.4 578.2 227.6 578.2C233.5 578.2 238.75 578.9 243.35 580.3C248.05 581.7 252.15 583.8 255.65 586.6C259.25 589.3 262.2 592.6 264.5 596.5L251.6 609.25C249.6 606.15 247.35 603.6 244.85 601.6C242.35 599.5 239.65 597.95 236.75 596.95C233.85 595.85 230.8 595.3 227.6 595.3C224 595.3 220.85 595.8 218.15 596.8C215.55 597.8 213.5 599.25 212 601.15C210.5 602.95 209.75 605.15 209.75 607.75C209.75 609.75 210.2 611.55 211.1 613.15C212 614.65 213.25 616 214.85 617.2C216.55 618.4 218.7 619.45 221.3 620.35C223.9 621.25 226.85 622.05 230.15 622.75C235.65 623.85 240.6 625.35 245 627.25C249.4 629.05 253.15 631.25 256.25 633.85C259.35 636.35 261.7 639.25 263.3 642.55C264.9 645.75 265.7 649.35 265.7 653.35C265.7 660.25 264.05 666.2 260.75 671.2C257.55 676.1 253 679.9 247.1 682.6C241.2 685.2 234.3 686.5 226.4 686.5ZM283.843 718V605.95H301.993L302.293 623.95L299.143 622.6C299.743 619.5 301.443 616.6 304.243 613.9C307.043 611.1 310.443 608.85 314.443 607.15C318.543 605.45 322.793 604.6 327.193 604.6C334.193 604.6 340.393 606.35 345.793 609.85C351.293 613.35 355.593 618.15 358.693 624.25C361.893 630.35 363.493 637.4 363.493 645.4C363.493 653.3 361.893 660.35 358.693 666.55C355.593 672.65 351.293 677.5 345.793 681.1C340.393 684.6 334.293 686.35 327.493 686.35C322.893 686.35 318.443 685.45 314.143 683.65C309.943 681.85 306.343 679.5 303.343 676.6C300.443 673.7 298.643 670.65 297.943 667.45L302.443 665.35V718H283.843ZM323.743 670C327.943 670 331.693 668.95 334.993 666.85C338.293 664.75 340.843 661.85 342.643 658.15C344.543 654.45 345.493 650.2 345.493 645.4C345.493 640.6 344.593 636.4 342.793 632.8C340.993 629.1 338.443 626.2 335.143 624.1C331.843 622 328.043 620.95 323.743 620.95C319.343 620.95 315.493 622 312.193 624.1C308.993 626.1 306.443 628.95 304.543 632.65C302.643 636.35 301.693 640.6 301.693 645.4C301.693 650.2 302.643 654.45 304.543 658.15C306.443 661.85 308.993 664.75 312.193 666.85C315.493 668.95 319.343 670 323.743 670ZM380.087 685V574H398.687V685H380.087ZM430.169 719.5L446.969 680.65L447.119 692.95L408.119 605.95H429.419L451.169 657.55C451.869 658.85 452.569 660.6 453.269 662.8C453.969 664.9 454.569 667 455.069 669.1L451.319 670.3C452.019 668.4 452.769 666.4 453.569 664.3C454.369 662.1 455.119 659.85 455.819 657.55L474.419 605.95H495.869L462.869 685L449.369 719.5H430.169ZM515.928 685V585.85H534.378V685H515.928ZM500.328 623.05V605.95H551.628V623.05H500.328ZM565.679 685V605.95H583.829L584.129 631.15L581.579 625.45C582.679 621.45 584.579 617.85 587.279 614.65C589.979 611.45 593.079 608.95 596.579 607.15C600.179 605.25 603.929 604.3 607.829 604.3C609.529 604.3 611.129 604.45 612.629 604.75C614.229 605.05 615.529 605.4 616.529 605.8L611.579 626.05C610.479 625.45 609.129 624.95 607.529 624.55C605.929 624.15 604.329 623.95 602.729 623.95C600.229 623.95 597.829 624.45 595.529 625.45C593.329 626.35 591.379 627.65 589.679 629.35C587.979 631.05 586.629 633.05 585.629 635.35C584.729 637.55 584.279 640.05 584.279 642.85V685H565.679Z" fill="#545FD1"/>
</g>
<g filter="url(#filter1_d_170_355)">
<path d="M18.64 791.4C16.6133 791.4 14.76 791.053 13.08 790.36C11.4 789.667 9.94667 788.68 8.72 787.4C7.49333 786.093 6.53333 784.56 5.84 782.8C5.17333 781.013 4.84 779.067 4.84 776.96C4.84 774.933 5.2 773.053 5.92 771.32C6.64 769.587 7.64 768.067 8.92 766.76C10.2 765.453 11.6933 764.44 13.4 763.72C15.1067 763 16.96 762.64 18.96 762.64C20.32 762.64 21.64 762.84 22.92 763.24C24.2 763.64 25.3733 764.2 26.44 764.92C27.5067 765.613 28.4 766.427 29.12 767.36L25.8 771C25.1067 770.28 24.3867 769.68 23.64 769.2C22.92 768.693 22.16 768.32 21.36 768.08C20.5867 767.813 19.7867 767.68 18.96 767.68C17.7333 767.68 16.5733 767.907 15.48 768.36C14.4133 768.813 13.48 769.453 12.68 770.28C11.9067 771.107 11.2933 772.093 10.84 773.24C10.3867 774.36 10.16 775.613 10.16 777C10.16 778.413 10.3733 779.693 10.8 780.84C11.2533 781.987 11.88 782.973 12.68 783.8C13.5067 784.627 14.48 785.267 15.6 785.72C16.7467 786.147 18 786.36 19.36 786.36C20.24 786.36 21.0933 786.24 21.92 786C22.7467 785.76 23.5067 785.427 24.2 785C24.92 784.547 25.5733 784.027 26.16 783.44L28.72 787.56C28.08 788.28 27.2267 788.933 26.16 789.52C25.0933 790.107 23.8933 790.573 22.56 790.92C21.2533 791.24 19.9467 791.4 18.64 791.4ZM42.8638 791.4C40.7571 791.4 38.8771 790.933 37.2238 790C35.5704 789.04 34.2638 787.733 33.3038 786.08C32.3438 784.427 31.8638 782.547 31.8638 780.44C31.8638 778.333 32.3438 776.453 33.3038 774.8C34.2638 773.147 35.5704 771.853 37.2238 770.92C38.8771 769.96 40.7571 769.48 42.8638 769.48C44.9438 769.48 46.8104 769.96 48.4638 770.92C50.1171 771.853 51.4104 773.147 52.3438 774.8C53.3038 776.453 53.7838 778.333 53.7838 780.44C53.7838 782.547 53.3038 784.427 52.3438 786.08C51.4104 787.733 50.1171 789.04 48.4638 790C46.8104 790.933 44.9438 791.4 42.8638 791.4ZM42.8638 787.04C44.0104 787.04 45.0238 786.747 45.9038 786.16C46.8104 785.573 47.5171 784.787 48.0238 783.8C48.5571 782.813 48.8104 781.693 48.7838 780.44C48.8104 779.16 48.5571 778.027 48.0238 777.04C47.5171 776.053 46.8104 775.28 45.9038 774.72C45.0238 774.133 44.0104 773.84 42.8638 773.84C41.7171 773.84 40.6771 774.133 39.7438 774.72C38.8371 775.28 38.1304 776.067 37.6238 777.08C37.1171 778.067 36.8638 779.187 36.8638 780.44C36.8638 781.693 37.1171 782.813 37.6238 783.8C38.1304 784.787 38.8371 785.573 39.7438 786.16C40.6771 786.747 41.7171 787.04 42.8638 787.04ZM58.1847 791V769.92H62.9847L63.0647 774.24L62.1447 774.72C62.4114 773.76 62.9314 772.893 63.7047 772.12C64.478 771.32 65.398 770.68 66.4647 770.2C67.5314 769.72 68.6247 769.48 69.7447 769.48C71.3447 769.48 72.678 769.8 73.7447 770.44C74.838 771.08 75.6514 772.04 76.1847 773.32C76.7447 774.6 77.0247 776.2 77.0247 778.12V791H72.1047V778.48C72.1047 777.413 71.958 776.533 71.6647 775.84C71.3714 775.12 70.918 774.6 70.3047 774.28C69.6914 773.933 68.9447 773.773 68.0647 773.8C67.3447 773.8 66.678 773.92 66.0647 774.16C65.478 774.373 64.958 774.693 64.5047 775.12C64.078 775.52 63.7314 775.987 63.4647 776.52C63.2247 777.053 63.1047 777.64 63.1047 778.28V791H60.6647C60.1847 791 59.7314 791 59.3047 791C58.9047 791 58.5314 791 58.1847 791ZM89.5997 791.4C87.733 791.4 86.053 791.093 84.5597 790.48C83.093 789.84 81.893 788.933 80.9597 787.76L84.1597 785C84.9597 785.907 85.853 786.56 86.8397 786.96C87.8264 787.36 88.8664 787.56 89.9597 787.56C90.413 787.56 90.813 787.507 91.1597 787.4C91.533 787.293 91.853 787.133 92.1197 786.92C92.3864 786.707 92.5864 786.467 92.7197 786.2C92.8797 785.907 92.9597 785.587 92.9597 785.24C92.9597 784.6 92.7197 784.093 92.2397 783.72C91.973 783.533 91.5464 783.333 90.9597 783.12C90.3997 782.907 89.6664 782.693 88.7597 782.48C87.3197 782.107 86.1197 781.68 85.1597 781.2C84.1997 780.693 83.453 780.133 82.9197 779.52C82.4664 779.013 82.1197 778.44 81.8797 777.8C81.6664 777.16 81.5597 776.467 81.5597 775.72C81.5597 774.787 81.7597 773.947 82.1597 773.2C82.5864 772.427 83.1597 771.76 83.8797 771.2C84.5997 770.64 85.4397 770.213 86.3997 769.92C87.3597 769.627 88.3597 769.48 89.3997 769.48C90.4664 769.48 91.493 769.613 92.4797 769.88C93.493 770.147 94.4264 770.533 95.2797 771.04C96.1597 771.52 96.9064 772.107 97.5197 772.8L94.7997 775.8C94.293 775.32 93.733 774.893 93.1197 774.52C92.533 774.147 91.933 773.853 91.3197 773.64C90.7064 773.4 90.133 773.28 89.5997 773.28C89.093 773.28 88.6397 773.333 88.2397 773.44C87.8397 773.52 87.5064 773.653 87.2397 773.84C86.973 774.027 86.7597 774.267 86.5997 774.56C86.4664 774.827 86.3997 775.147 86.3997 775.52C86.4264 775.84 86.5064 776.147 86.6397 776.44C86.7997 776.707 87.013 776.933 87.2797 777.12C87.573 777.307 88.013 777.52 88.5997 777.76C89.1864 778 89.9464 778.227 90.8797 778.44C92.1864 778.787 93.2797 779.173 94.1597 779.6C95.0397 780.027 95.733 780.52 96.2397 781.08C96.7464 781.56 97.1064 782.12 97.3197 782.76C97.533 783.4 97.6397 784.107 97.6397 784.88C97.6397 786.133 97.2797 787.253 96.5597 788.24C95.8664 789.227 94.9064 790 93.6797 790.56C92.4797 791.12 91.1197 791.4 89.5997 791.4ZM111.614 791.4C109.507 791.4 107.627 790.933 105.974 790C104.32 789.04 103.014 787.733 102.054 786.08C101.094 784.427 100.614 782.547 100.614 780.44C100.614 778.333 101.094 776.453 102.054 774.8C103.014 773.147 104.32 771.853 105.974 770.92C107.627 769.96 109.507 769.48 111.614 769.48C113.694 769.48 115.56 769.96 117.214 770.92C118.867 771.853 120.16 773.147 121.094 774.8C122.054 776.453 122.534 778.333 122.534 780.44C122.534 782.547 122.054 784.427 121.094 786.08C120.16 787.733 118.867 789.04 117.214 790C115.56 790.933 113.694 791.4 111.614 791.4ZM111.614 787.04C112.76 787.04 113.774 786.747 114.654 786.16C115.56 785.573 116.267 784.787 116.774 783.8C117.307 782.813 117.56 781.693 117.534 780.44C117.56 779.16 117.307 778.027 116.774 777.04C116.267 776.053 115.56 775.28 114.654 774.72C113.774 774.133 112.76 773.84 111.614 773.84C110.467 773.84 109.427 774.133 108.494 774.72C107.587 775.28 106.88 776.067 106.374 777.08C105.867 778.067 105.614 779.187 105.614 780.44C105.614 781.693 105.867 782.813 106.374 783.8C106.88 784.787 107.587 785.573 108.494 786.16C109.427 786.747 110.467 787.04 111.614 787.04ZM126.975 791V761.4H131.935V791H126.975ZM138.276 791V769.92H143.196V791H138.276ZM140.676 765.44C139.689 765.44 138.916 765.2 138.356 764.72C137.823 764.213 137.556 763.507 137.556 762.6C137.556 761.747 137.836 761.053 138.396 760.52C138.956 759.987 139.716 759.72 140.676 759.72C141.689 759.72 142.463 759.973 142.996 760.48C143.556 760.96 143.836 761.667 143.836 762.6C143.836 763.427 143.556 764.107 142.996 764.64C142.436 765.173 141.663 765.44 140.676 765.44ZM157.915 791.4C156.048 791.4 154.368 790.933 152.875 790C151.408 789.04 150.235 787.747 149.355 786.12C148.501 784.467 148.075 782.573 148.075 780.44C148.075 778.333 148.501 776.453 149.355 774.8C150.208 773.147 151.368 771.853 152.835 770.92C154.328 769.96 156.008 769.48 157.875 769.48C158.888 769.48 159.861 769.64 160.795 769.96C161.755 770.28 162.608 770.72 163.355 771.28C164.101 771.813 164.688 772.413 165.115 773.08C165.568 773.747 165.821 774.44 165.875 775.16L164.555 775.32V761.4H169.475V791H164.715L164.595 786.04L165.555 786.12C165.528 786.787 165.288 787.427 164.835 788.04C164.408 788.653 163.848 789.213 163.155 789.72C162.461 790.227 161.648 790.64 160.715 790.96C159.808 791.253 158.875 791.4 157.915 791.4ZM158.875 787.24C160.021 787.24 161.035 786.947 161.915 786.36C162.795 785.773 163.475 784.973 163.955 783.96C164.461 782.947 164.715 781.773 164.715 780.44C164.715 779.133 164.461 777.973 163.955 776.96C163.475 775.92 162.795 775.12 161.915 774.56C161.035 773.973 160.021 773.68 158.875 773.68C157.728 773.68 156.715 773.973 155.835 774.56C154.955 775.12 154.261 775.92 153.755 776.96C153.275 777.973 153.035 779.133 153.035 780.44C153.035 781.773 153.275 782.947 153.755 783.96C154.261 784.973 154.955 785.773 155.835 786.36C156.715 786.947 157.728 787.24 158.875 787.24ZM183.02 791.4C181.286 791.4 179.713 790.92 178.3 789.96C176.886 789 175.753 787.693 174.9 786.04C174.046 784.387 173.62 782.507 173.62 780.4C173.62 778.293 174.046 776.413 174.9 774.76C175.753 773.107 176.913 771.813 178.38 770.88C179.846 769.947 181.5 769.48 183.34 769.48C184.406 769.48 185.38 769.64 186.26 769.96C187.14 770.253 187.913 770.68 188.58 771.24C189.246 771.8 189.793 772.44 190.22 773.16C190.673 773.88 190.98 774.653 191.14 775.48L190.06 775.2V769.92H195.02V791H190.02V785.96L191.18 785.76C190.993 786.48 190.646 787.187 190.14 787.88C189.66 788.547 189.046 789.147 188.3 789.68C187.58 790.187 186.766 790.6 185.86 790.92C184.98 791.24 184.033 791.4 183.02 791.4ZM184.38 787.04C185.526 787.04 186.54 786.76 187.42 786.2C188.3 785.64 188.98 784.867 189.46 783.88C189.966 782.867 190.22 781.707 190.22 780.4C190.22 779.12 189.966 777.987 189.46 777C188.98 776.013 188.3 775.24 187.42 774.68C186.54 774.12 185.526 773.84 184.38 773.84C183.233 773.84 182.22 774.12 181.34 774.68C180.486 775.24 179.82 776.013 179.34 777C178.86 777.987 178.62 779.12 178.62 780.4C178.62 781.707 178.86 782.867 179.34 783.88C179.82 784.867 180.486 785.64 181.34 786.2C182.22 786.76 183.233 787.04 184.38 787.04ZM203.004 791V764.56H207.924V791H203.004ZM198.844 774.48V769.92H212.524V774.48H198.844ZM225.955 791.4C223.742 791.4 221.782 790.933 220.075 790C218.395 789.067 217.075 787.8 216.115 786.2C215.182 784.573 214.715 782.72 214.715 780.64C214.715 778.987 214.982 777.48 215.515 776.12C216.049 774.76 216.782 773.587 217.715 772.6C218.675 771.587 219.809 770.813 221.115 770.28C222.449 769.72 223.902 769.44 225.475 769.44C226.862 769.44 228.155 769.707 229.355 770.24C230.555 770.773 231.595 771.507 232.475 772.44C233.355 773.347 234.022 774.44 234.475 775.72C234.955 776.973 235.182 778.347 235.155 779.84L235.115 781.56H218.035L217.115 778.2H230.995L230.355 778.88V778C230.275 777.173 230.009 776.453 229.555 775.84C229.102 775.2 228.515 774.707 227.795 774.36C227.102 773.987 226.329 773.8 225.475 773.8C224.169 773.8 223.062 774.053 222.155 774.56C221.275 775.067 220.609 775.8 220.155 776.76C219.702 777.693 219.475 778.867 219.475 780.28C219.475 781.64 219.755 782.827 220.315 783.84C220.902 784.853 221.715 785.64 222.755 786.2C223.822 786.733 225.062 787 226.475 787C227.462 787 228.369 786.84 229.195 786.52C230.022 786.2 230.915 785.627 231.875 784.8L234.315 788.2C233.595 788.867 232.769 789.44 231.835 789.92C230.929 790.373 229.969 790.733 228.955 791C227.942 791.267 226.942 791.4 225.955 791.4ZM271.471 791L268.111 787.48L266.831 786.2L260.311 779C259.511 778.147 258.777 777.307 258.111 776.48C257.471 775.627 256.924 774.813 256.471 774.04C256.044 773.267 255.697 772.52 255.431 771.8C255.191 771.08 255.071 770.4 255.071 769.76C255.071 768.373 255.431 767.133 256.151 766.04C256.871 764.947 257.871 764.093 259.151 763.48C260.431 762.84 261.911 762.52 263.591 762.52C264.844 762.52 266.017 762.747 267.111 763.2C268.204 763.627 269.137 764.24 269.911 765.04C270.711 765.813 271.284 766.733 271.631 767.8L267.831 770.16C267.351 768.96 266.777 768.12 266.111 767.64C265.444 767.133 264.631 766.88 263.671 766.88C262.924 766.88 262.297 767 261.791 767.24C261.284 767.453 260.897 767.787 260.631 768.24C260.364 768.667 260.231 769.2 260.231 769.84C260.231 770.4 260.417 771.04 260.791 771.76C261.164 772.48 261.617 773.213 262.151 773.96C262.711 774.707 263.284 775.4 263.871 776.04C264.457 776.68 264.964 777.24 265.391 777.72L270.071 782.88L271.791 784.6L277.711 791H271.471ZM260.911 791.4C258.964 791.4 257.191 791 255.591 790.2C253.991 789.373 252.724 788.28 251.791 786.92C250.857 785.56 250.391 784.067 250.391 782.44C250.391 780.387 250.964 778.587 252.111 777.04C253.257 775.493 254.951 774.307 257.191 773.48L260.271 776.84C258.644 777.213 257.417 777.813 256.591 778.64C255.791 779.44 255.391 780.52 255.391 781.88C255.391 782.92 255.644 783.84 256.151 784.64C256.657 785.413 257.377 786.027 258.311 786.48C259.244 786.907 260.364 787.12 261.671 787.12C262.817 787.12 263.871 786.893 264.831 786.44C265.817 785.987 266.697 785.347 267.471 784.52C268.244 783.667 268.884 782.653 269.391 781.48C269.897 780.307 270.244 779.013 270.431 777.6H274.951C274.737 779.253 274.337 780.787 273.751 782.2C273.191 783.613 272.484 784.893 271.631 786.04C270.804 787.16 269.844 788.12 268.751 788.92C267.657 789.72 266.457 790.333 265.151 790.76C263.844 791.187 262.431 791.4 260.911 791.4ZM302.867 791.4C301.24 791.4 299.747 791.2 298.387 790.8C297.027 790.373 295.8 789.747 294.707 788.92C293.613 788.093 292.64 787.093 291.787 785.92L295.187 782.08C296.493 783.893 297.773 785.147 299.027 785.84C300.28 786.533 301.693 786.88 303.267 786.88C304.173 786.88 305 786.747 305.747 786.48C306.493 786.187 307.08 785.8 307.507 785.32C307.933 784.813 308.147 784.24 308.147 783.6C308.147 783.147 308.053 782.733 307.867 782.36C307.707 781.96 307.453 781.613 307.107 781.32C306.76 781 306.333 780.707 305.827 780.44C305.32 780.173 304.747 779.947 304.107 779.76C303.467 779.573 302.76 779.4 301.987 779.24C300.52 778.947 299.24 778.56 298.147 778.08C297.053 777.573 296.133 776.96 295.387 776.24C294.64 775.493 294.093 774.667 293.747 773.76C293.4 772.827 293.227 771.773 293.227 770.6C293.227 769.427 293.48 768.347 293.987 767.36C294.52 766.373 295.24 765.52 296.147 764.8C297.053 764.08 298.107 763.52 299.307 763.12C300.507 762.72 301.8 762.52 303.187 762.52C304.76 762.52 306.16 762.707 307.387 763.08C308.64 763.453 309.733 764.013 310.667 764.76C311.627 765.48 312.413 766.36 313.027 767.4L309.587 770.8C309.053 769.973 308.453 769.293 307.787 768.76C307.12 768.2 306.4 767.787 305.627 767.52C304.853 767.227 304.04 767.08 303.187 767.08C302.227 767.08 301.387 767.213 300.667 767.48C299.973 767.747 299.427 768.133 299.027 768.64C298.627 769.12 298.427 769.707 298.427 770.4C298.427 770.933 298.547 771.413 298.787 771.84C299.027 772.24 299.36 772.6 299.787 772.92C300.24 773.24 300.813 773.52 301.507 773.76C302.2 774 302.987 774.213 303.867 774.4C305.333 774.693 306.653 775.093 307.827 775.6C309 776.08 310 776.667 310.827 777.36C311.653 778.027 312.28 778.8 312.707 779.68C313.133 780.533 313.347 781.493 313.347 782.56C313.347 784.4 312.907 785.987 312.027 787.32C311.173 788.627 309.96 789.64 308.387 790.36C306.813 791.053 304.973 791.4 302.867 791.4ZM318.745 791V769.92H323.665V791H318.745ZM321.145 765.44C320.158 765.44 319.385 765.2 318.825 764.72C318.291 764.213 318.025 763.507 318.025 762.6C318.025 761.747 318.305 761.053 318.865 760.52C319.425 759.987 320.185 759.72 321.145 759.72C322.158 759.72 322.931 759.973 323.465 760.48C324.025 760.96 324.305 761.667 324.305 762.6C324.305 763.427 324.025 764.107 323.465 764.64C322.905 765.173 322.131 765.44 321.145 765.44ZM329.823 791V769.92H334.663L334.743 774.16L333.943 774.48C334.183 773.787 334.543 773.147 335.023 772.56C335.503 771.947 336.077 771.427 336.743 771C337.41 770.547 338.117 770.2 338.863 769.96C339.61 769.693 340.37 769.56 341.143 769.56C342.29 769.56 343.303 769.747 344.183 770.12C345.09 770.467 345.837 771.027 346.423 771.8C347.037 772.573 347.49 773.56 347.783 774.76L347.023 774.6L347.343 773.96C347.637 773.32 348.05 772.747 348.583 772.24C349.117 771.707 349.717 771.24 350.383 770.84C351.05 770.413 351.743 770.093 352.463 769.88C353.21 769.667 353.943 769.56 354.663 769.56C356.263 769.56 357.597 769.88 358.663 770.52C359.73 771.16 360.53 772.133 361.063 773.44C361.597 774.747 361.863 776.36 361.863 778.28V791H356.903V778.6C356.903 777.533 356.757 776.653 356.463 775.96C356.197 775.267 355.77 774.76 355.183 774.44C354.623 774.093 353.917 773.92 353.063 773.92C352.397 773.92 351.757 774.04 351.143 774.28C350.557 774.493 350.05 774.813 349.623 775.24C349.197 775.64 348.863 776.107 348.623 776.64C348.383 777.173 348.263 777.76 348.263 778.4V791H343.303V778.56C343.303 777.547 343.157 776.707 342.863 776.04C342.57 775.347 342.143 774.827 341.583 774.48C341.023 774.107 340.343 773.92 339.543 773.92C338.877 773.92 338.25 774.04 337.663 774.28C337.077 774.493 336.57 774.8 336.143 775.2C335.717 775.6 335.383 776.067 335.143 776.6C334.903 777.133 334.783 777.72 334.783 778.36V791H329.823ZM367.325 799.8V769.92H372.165L372.245 774.72L371.405 774.36C371.565 773.533 372.019 772.76 372.765 772.04C373.512 771.293 374.419 770.693 375.485 770.24C376.579 769.787 377.712 769.56 378.885 769.56C380.752 769.56 382.405 770.027 383.845 770.96C385.312 771.893 386.459 773.173 387.285 774.8C388.139 776.427 388.565 778.307 388.565 780.44C388.565 782.547 388.139 784.427 387.285 786.08C386.459 787.707 385.312 789 383.845 789.96C382.405 790.893 380.779 791.36 378.965 791.36C377.739 791.36 376.552 791.12 375.405 790.64C374.285 790.16 373.325 789.533 372.525 788.76C371.752 787.987 371.272 787.173 371.085 786.32L372.285 785.76V799.8H367.325ZM377.965 787C379.085 787 380.085 786.72 380.965 786.16C381.845 785.6 382.525 784.827 383.005 783.84C383.512 782.853 383.765 781.72 383.765 780.44C383.765 779.16 383.525 778.04 383.045 777.08C382.565 776.093 381.885 775.32 381.005 774.76C380.125 774.2 379.112 773.92 377.965 773.92C376.792 773.92 375.765 774.2 374.885 774.76C374.032 775.293 373.352 776.053 372.845 777.04C372.339 778.027 372.085 779.16 372.085 780.44C372.085 781.72 372.339 782.853 372.845 783.84C373.352 784.827 374.032 785.6 374.885 786.16C375.765 786.72 376.792 787 377.965 787ZM392.99 791V761.4H397.95V791H392.99ZM404.292 791V769.92H409.212V791H404.292ZM406.692 765.44C405.705 765.44 404.932 765.2 404.372 764.72C403.838 764.213 403.572 763.507 403.572 762.6C403.572 761.747 403.852 761.053 404.412 760.52C404.972 759.987 405.732 759.72 406.692 759.72C407.705 759.72 408.478 759.973 409.012 760.48C409.572 760.96 409.852 761.667 409.852 762.6C409.852 763.427 409.572 764.107 409.012 764.64C408.452 765.173 407.678 765.44 406.692 765.44ZM417.37 791V768.04C417.37 766.76 417.65 765.627 418.21 764.64C418.77 763.627 419.544 762.84 420.53 762.28C421.517 761.693 422.664 761.4 423.97 761.4C424.877 761.4 425.717 761.56 426.49 761.88C427.264 762.173 427.917 762.587 428.45 763.12L426.93 766.84C426.584 766.547 426.21 766.32 425.81 766.16C425.437 766 425.077 765.92 424.73 765.92C424.197 765.92 423.744 766.013 423.37 766.2C423.024 766.36 422.757 766.613 422.57 766.96C422.41 767.307 422.33 767.72 422.33 768.2V791H419.85C419.37 791 418.917 791 418.49 791C418.09 791 417.717 791 417.37 791ZM414.09 774.68V770.36H427.09V774.68H414.09ZM434.353 800.2L438.833 789.84L438.873 793.12L428.473 769.92H434.153L439.953 783.68C440.14 784.027 440.327 784.493 440.513 785.08C440.7 785.64 440.86 786.2 440.993 786.76L439.993 787.08C440.18 786.573 440.38 786.04 440.593 785.48C440.807 784.893 441.007 784.293 441.193 783.68L446.153 769.92H451.873L443.073 791L439.473 800.2H434.353ZM479.66 791.4C477.66 791.4 475.807 791.04 474.1 790.32C472.394 789.6 470.9 788.6 469.62 787.32C468.367 786.013 467.394 784.48 466.7 782.72C466.007 780.96 465.66 779.04 465.66 776.96C465.66 774.88 466.007 772.96 466.7 771.2C467.394 769.44 468.367 767.92 469.62 766.64C470.9 765.333 472.394 764.32 474.1 763.6C475.807 762.88 477.66 762.52 479.66 762.52C481.687 762.52 483.554 762.88 485.26 763.6C486.967 764.32 488.447 765.333 489.7 766.64C490.954 767.947 491.927 769.48 492.62 771.24C493.314 772.973 493.66 774.88 493.66 776.96C493.66 779.013 493.314 780.92 492.62 782.68C491.927 784.44 490.954 785.973 489.7 787.28C488.447 788.587 486.967 789.6 485.26 790.32C483.554 791.04 481.687 791.4 479.66 791.4ZM479.66 786.44C480.94 786.44 482.1 786.213 483.14 785.76C484.207 785.28 485.127 784.613 485.9 783.76C486.674 782.88 487.274 781.867 487.7 780.72C488.154 779.573 488.38 778.32 488.38 776.96C488.38 775.6 488.154 774.347 487.7 773.2C487.274 772.053 486.674 771.053 485.9 770.2C485.127 769.32 484.207 768.653 483.14 768.2C482.1 767.72 480.94 767.48 479.66 767.48C478.407 767.48 477.247 767.72 476.18 768.2C475.114 768.653 474.194 769.307 473.42 770.16C472.647 771.013 472.047 772.013 471.62 773.16C471.194 774.307 470.98 775.573 470.98 776.96C470.98 778.32 471.194 779.587 471.62 780.76C472.047 781.907 472.647 782.907 473.42 783.76C474.194 784.613 475.114 785.28 476.18 785.76C477.247 786.213 478.407 786.44 479.66 786.44ZM498.419 791V769.92H503.219L503.299 774.24L502.379 774.72C502.646 773.76 503.166 772.893 503.939 772.12C504.712 771.32 505.632 770.68 506.699 770.2C507.766 769.72 508.859 769.48 509.979 769.48C511.579 769.48 512.912 769.8 513.979 770.44C515.072 771.08 515.886 772.04 516.419 773.32C516.979 774.6 517.259 776.2 517.259 778.12V791H512.339V778.48C512.339 777.413 512.192 776.533 511.899 775.84C511.606 775.12 511.152 774.6 510.539 774.28C509.926 773.933 509.179 773.773 508.299 773.8C507.579 773.8 506.912 773.92 506.299 774.16C505.712 774.373 505.192 774.693 504.739 775.12C504.312 775.52 503.966 775.987 503.699 776.52C503.459 777.053 503.339 777.64 503.339 778.28V791H500.899C500.419 791 499.966 791 499.539 791C499.139 791 498.766 791 498.419 791ZM522.834 791V761.4H527.794V791H522.834ZM534.135 791V769.92H539.055V791H534.135ZM536.535 765.44C535.549 765.44 534.775 765.2 534.215 764.72C533.682 764.213 533.415 763.507 533.415 762.6C533.415 761.747 533.695 761.053 534.255 760.52C534.815 759.987 535.575 759.72 536.535 759.72C537.549 759.72 538.322 759.973 538.855 760.48C539.415 760.96 539.695 761.667 539.695 762.6C539.695 763.427 539.415 764.107 538.855 764.64C538.295 765.173 537.522 765.44 536.535 765.44ZM545.294 791V769.92H550.094L550.174 774.24L549.254 774.72C549.521 773.76 550.041 772.893 550.814 772.12C551.587 771.32 552.507 770.68 553.574 770.2C554.641 769.72 555.734 769.48 556.854 769.48C558.454 769.48 559.787 769.8 560.854 770.44C561.947 771.08 562.761 772.04 563.294 773.32C563.854 774.6 564.134 776.2 564.134 778.12V791H559.214V778.48C559.214 777.413 559.067 776.533 558.774 775.84C558.481 775.12 558.027 774.6 557.414 774.28C556.801 773.933 556.054 773.773 555.174 773.8C554.454 773.8 553.787 773.92 553.174 774.16C552.587 774.373 552.067 774.693 551.614 775.12C551.187 775.52 550.841 775.987 550.574 776.52C550.334 777.053 550.214 777.64 550.214 778.28V791H547.774C547.294 791 546.841 791 546.414 791C546.014 791 545.641 791 545.294 791ZM579.549 791.4C577.336 791.4 575.376 790.933 573.669 790C571.989 789.067 570.669 787.8 569.709 786.2C568.776 784.573 568.309 782.72 568.309 780.64C568.309 778.987 568.576 777.48 569.109 776.12C569.642 774.76 570.376 773.587 571.309 772.6C572.269 771.587 573.402 770.813 574.709 770.28C576.042 769.72 577.496 769.44 579.069 769.44C580.456 769.44 581.749 769.707 582.949 770.24C584.149 770.773 585.189 771.507 586.069 772.44C586.949 773.347 587.616 774.44 588.069 775.72C588.549 776.973 588.776 778.347 588.749 779.84L588.709 781.56H571.629L570.709 778.2H584.589L583.949 778.88V778C583.869 777.173 583.602 776.453 583.149 775.84C582.696 775.2 582.109 774.707 581.389 774.36C580.696 773.987 579.922 773.8 579.069 773.8C577.762 773.8 576.656 774.053 575.749 774.56C574.869 775.067 574.202 775.8 573.749 776.76C573.296 777.693 573.069 778.867 573.069 780.28C573.069 781.64 573.349 782.827 573.909 783.84C574.496 784.853 575.309 785.64 576.349 786.2C577.416 786.733 578.656 787 580.069 787C581.056 787 581.962 786.84 582.789 786.52C583.616 786.2 584.509 785.627 585.469 784.8L587.909 788.2C587.189 788.867 586.362 789.44 585.429 789.92C584.522 790.373 583.562 790.733 582.549 791C581.536 791.267 580.536 791.4 579.549 791.4ZM605.744 791V763H610.944V786.2H623.864V791H605.744ZM638.026 791.4C635.812 791.4 633.852 790.933 632.146 790C630.466 789.067 629.146 787.8 628.186 786.2C627.252 784.573 626.786 782.72 626.786 780.64C626.786 778.987 627.052 777.48 627.586 776.12C628.119 774.76 628.852 773.587 629.786 772.6C630.746 771.587 631.879 770.813 633.186 770.28C634.519 769.72 635.972 769.44 637.546 769.44C638.932 769.44 640.226 769.707 641.426 770.24C642.626 770.773 643.666 771.507 644.546 772.44C645.426 773.347 646.092 774.44 646.546 775.72C647.026 776.973 647.252 778.347 647.226 779.84L647.186 781.56H630.106L629.186 778.2H643.066L642.426 778.88V778C642.346 777.173 642.079 776.453 641.626 775.84C641.172 775.2 640.586 774.707 639.866 774.36C639.172 773.987 638.399 773.8 637.546 773.8C636.239 773.8 635.132 774.053 634.226 774.56C633.346 775.067 632.679 775.8 632.226 776.76C631.772 777.693 631.546 778.867 631.546 780.28C631.546 781.64 631.826 782.827 632.386 783.84C632.972 784.853 633.786 785.64 634.826 786.2C635.892 786.733 637.132 787 638.546 787C639.532 787 640.439 786.84 641.266 786.52C642.092 786.2 642.986 785.627 643.946 784.8L646.386 788.2C645.666 788.867 644.839 789.44 643.906 789.92C642.999 790.373 642.039 790.733 641.026 791C640.012 791.267 639.012 791.4 638.026 791.4ZM659.543 791.4C657.81 791.4 656.236 790.92 654.823 789.96C653.41 789 652.276 787.693 651.423 786.04C650.57 784.387 650.143 782.507 650.143 780.4C650.143 778.293 650.57 776.413 651.423 774.76C652.276 773.107 653.436 771.813 654.903 770.88C656.37 769.947 658.023 769.48 659.863 769.48C660.93 769.48 661.903 769.64 662.783 769.96C663.663 770.253 664.436 770.68 665.103 771.24C665.77 771.8 666.316 772.44 666.743 773.16C667.196 773.88 667.503 774.653 667.663 775.48L666.583 775.2V769.92H671.543V791H666.543V785.96L667.703 785.76C667.516 786.48 667.17 787.187 666.663 787.88C666.183 788.547 665.57 789.147 664.823 789.68C664.103 790.187 663.29 790.6 662.383 790.92C661.503 791.24 660.556 791.4 659.543 791.4ZM660.903 787.04C662.05 787.04 663.063 786.76 663.943 786.2C664.823 785.64 665.503 784.867 665.983 783.88C666.49 782.867 666.743 781.707 666.743 780.4C666.743 779.12 666.49 777.987 665.983 777C665.503 776.013 664.823 775.24 663.943 774.68C663.063 774.12 662.05 773.84 660.903 773.84C659.756 773.84 658.743 774.12 657.863 774.68C657.01 775.24 656.343 776.013 655.863 777C655.383 777.987 655.143 779.12 655.143 780.4C655.143 781.707 655.383 782.867 655.863 783.88C656.343 784.867 657.01 785.64 657.863 786.2C658.743 786.76 659.756 787.04 660.903 787.04ZM677.247 791V769.92H682.087L682.167 776.64L681.487 775.12C681.781 774.053 682.287 773.093 683.007 772.24C683.727 771.387 684.554 770.72 685.487 770.24C686.447 769.733 687.447 769.48 688.487 769.48C688.941 769.48 689.367 769.52 689.767 769.6C690.194 769.68 690.541 769.773 690.807 769.88L689.487 775.28C689.194 775.12 688.834 774.987 688.407 774.88C687.981 774.773 687.554 774.72 687.127 774.72C686.461 774.72 685.821 774.853 685.207 775.12C684.621 775.36 684.101 775.707 683.647 776.16C683.194 776.613 682.834 777.147 682.567 777.76C682.327 778.347 682.207 779.013 682.207 779.76V791H677.247ZM694.083 791V769.92H698.883L698.963 774.24L698.043 774.72C698.31 773.76 698.83 772.893 699.603 772.12C700.376 771.32 701.296 770.68 702.363 770.2C703.43 769.72 704.523 769.48 705.643 769.48C707.243 769.48 708.576 769.8 709.643 770.44C710.736 771.08 711.55 772.04 712.083 773.32C712.643 774.6 712.923 776.2 712.923 778.12V791H708.003V778.48C708.003 777.413 707.856 776.533 707.563 775.84C707.27 775.12 706.816 774.6 706.203 774.28C705.59 773.933 704.843 773.773 703.963 773.8C703.243 773.8 702.576 773.92 701.963 774.16C701.376 774.373 700.856 774.693 700.403 775.12C699.976 775.52 699.63 775.987 699.363 776.52C699.123 777.053 699.003 777.64 699.003 778.28V791H696.563C696.083 791 695.63 791 695.203 791C694.803 791 694.43 791 694.083 791ZM719.018 791V769.92H723.938V791H719.018ZM721.418 765.44C720.431 765.44 719.658 765.2 719.098 764.72C718.565 764.213 718.298 763.507 718.298 762.6C718.298 761.747 718.578 761.053 719.138 760.52C719.698 759.987 720.458 759.72 721.418 759.72C722.431 759.72 723.205 759.973 723.738 760.48C724.298 760.96 724.578 761.667 724.578 762.6C724.578 763.427 724.298 764.107 723.738 764.64C723.178 765.173 722.405 765.44 721.418 765.44ZM730.177 791V769.92H734.977L735.057 774.24L734.137 774.72C734.404 773.76 734.924 772.893 735.697 772.12C736.47 771.32 737.39 770.68 738.457 770.2C739.524 769.72 740.617 769.48 741.737 769.48C743.337 769.48 744.67 769.8 745.737 770.44C746.83 771.08 747.644 772.04 748.177 773.32C748.737 774.6 749.017 776.2 749.017 778.12V791H744.097V778.48C744.097 777.413 743.95 776.533 743.657 775.84C743.364 775.12 742.91 774.6 742.297 774.28C741.684 773.933 740.937 773.773 740.057 773.8C739.337 773.8 738.67 773.92 738.057 774.16C737.47 774.373 736.95 774.693 736.497 775.12C736.07 775.52 735.724 775.987 735.457 776.52C735.217 777.053 735.097 777.64 735.097 778.28V791H732.657C732.177 791 731.724 791 731.297 791C730.897 791 730.524 791 730.177 791ZM764.032 800.2C762.459 800.2 760.885 799.96 759.312 799.48C757.765 799 756.512 798.373 755.552 797.6L757.312 793.96C757.872 794.36 758.499 794.707 759.192 795C759.885 795.293 760.619 795.52 761.392 795.68C762.192 795.84 762.979 795.92 763.752 795.92C765.165 795.92 766.339 795.693 767.272 795.24C768.232 794.813 768.952 794.147 769.432 793.24C769.912 792.36 770.152 791.253 770.152 789.92V786.04L770.872 786.32C770.712 787.147 770.272 787.933 769.552 788.68C768.832 789.427 767.925 790.04 766.832 790.52C765.739 790.973 764.619 791.2 763.472 791.2C761.472 791.2 759.699 790.733 758.152 789.8C756.632 788.867 755.419 787.6 754.512 786C753.632 784.373 753.192 782.507 753.192 780.4C753.192 778.293 753.632 776.427 754.512 774.8C755.392 773.147 756.592 771.853 758.112 770.92C759.659 769.96 761.392 769.48 763.312 769.48C764.112 769.48 764.885 769.573 765.632 769.76C766.379 769.947 767.059 770.213 767.672 770.56C768.312 770.907 768.885 771.293 769.392 771.72C769.899 772.147 770.312 772.6 770.632 773.08C770.952 773.56 771.152 774.027 771.232 774.48L770.192 774.8L770.272 769.92H775.112V789.56C775.112 791.267 774.859 792.773 774.352 794.08C773.845 795.387 773.112 796.493 772.152 797.4C771.192 798.333 770.032 799.027 768.672 799.48C767.312 799.96 765.765 800.2 764.032 800.2ZM764.232 787C765.432 787 766.485 786.72 767.392 786.16C768.325 785.6 769.045 784.827 769.552 783.84C770.059 782.853 770.312 781.72 770.312 780.44C770.312 779.133 770.045 777.987 769.512 777C769.005 775.987 768.299 775.2 767.392 774.64C766.485 774.08 765.432 773.8 764.232 773.8C763.032 773.8 761.979 774.093 761.072 774.68C760.165 775.24 759.445 776.027 758.912 777.04C758.405 778.027 758.152 779.16 758.152 780.44C758.152 781.693 758.405 782.827 758.912 783.84C759.445 784.827 760.165 785.6 761.072 786.16C761.979 786.72 763.032 787 764.232 787ZM782.682 791.44C781.722 791.44 780.975 791.16 780.442 790.6C779.935 790.04 779.682 789.253 779.682 788.24C779.682 787.307 779.949 786.547 780.482 785.96C781.042 785.347 781.775 785.04 782.682 785.04C783.642 785.04 784.375 785.32 784.882 785.88C785.415 786.413 785.682 787.2 785.682 788.24C785.682 789.173 785.402 789.947 784.842 790.56C784.309 791.147 783.589 791.44 782.682 791.44Z" fill="#2F3899"/>
</g>
<path d="M208.602 70C208.602 31.34 239.942 0 278.602 0H776.118C776.118 82.5898 709.166 149.542 626.576 149.542H208.602V70Z" fill="#7079D1"/>
<path d="M99 359.458H666.516V439C666.516 477.66 635.176 509 596.516 509H248.542C165.952 509 99 442.048 99 359.458Z" fill="#7079D1"/>
<rect x="208.602" y="189.482" width="469.06" height="130.036" rx="15" fill="#CBD1E9"/>
<defs>
<filter id="filter0_d_170_355" x="180.85" y="574" width="439.679" height="153.5" filterUnits="userSpaceOnUse" color-interpolation-filters="sRGB">
<feFlood flood-opacity="0" result="BackgroundImageFix"/>
<feColorMatrix in="SourceAlpha" type="matrix" values="0 0 0 0 0 0 0 0 0 0 0 0 0 0 0 0 0 0 127 0" result="hardAlpha"/>
<feOffset dy="4"/>
<feGaussianBlur stdDeviation="2"/>
<feComposite in2="hardAlpha" operator="out"/>
<feColorMatrix type="matrix" values="0 0 0 0 0 0 0 0 0 0 0 0 0 0 0 0 0 0 0.25 0"/>
<feBlend mode="normal" in2="BackgroundImageFix" result="effect1_dropShadow_170_355"/>
<feBlend mode="normal" in="SourceGraphic" in2="effect1_dropShadow_170_355" result="shape"/>
</filter>
<filter id="filter1_d_170_355" x="0.839844" y="759.72" width="788.842" height="48.48" filterUnits="userSpaceOnUse" color-interpolation-filters="sRGB">
<feFlood flood-opacity="0" result="BackgroundImageFix"/>
<feColorMatrix in="SourceAlpha" type="matrix" values="0 0 0 0 0 0 0 0 0 0 0 0 0 0 0 0 0 0 127 0" result="hardAlpha"/>
<feOffset dy="4"/>
<feGaussianBlur stdDeviation="2"/>
<feComposite in2="hardAlpha" operator="out"/>
<feColorMatrix type="matrix" values="0 0 0 0 0 0 0 0 0 0 0 0 0 0 0 0 0 0 0.25 0"/>
<feBlend mode="normal" in2="BackgroundImageFix" result="effect1_dropShadow_170_355"/>
<feBlend mode="normal" in="SourceGraphic" in2="effect1_dropShadow_170_355" result="shape"/>
</filter>
</defs>
</svg>
