<svg width="376" height="25" viewBox="0 0 376 25" fill="none" xmlns="http://www.w3.org/2000/svg">
<path d="M9.54 24.3C8.24 24.3 7.05 24.14 5.97 23.82C4.91 23.5 3.96 23.03 3.12 22.41C2.3 21.79 1.56 21.04 0.9 20.16L3.72 16.95C4.7 18.31 5.67 19.24 6.63 19.74C7.61 20.22 8.67 20.46 9.81 20.46C10.43 20.46 10.98 20.38 11.46 20.22C11.96 20.04 12.35 19.79 12.63 19.47C12.91 19.15 13.05 18.77 13.05 18.33C13.05 18.01 12.98 17.72 12.84 17.46C12.7 17.18 12.5 16.94 12.24 16.74C11.98 16.52 11.67 16.33 11.31 16.17C10.95 15.99 10.55 15.84 10.11 15.72C9.67 15.58 9.19 15.47 8.67 15.39C7.55 15.13 6.57 14.82 5.73 14.46C4.89 14.08 4.19 13.62 3.63 13.08C3.07 12.52 2.65 11.89 2.37 11.19C2.11 10.49 1.98 9.7 1.98 8.82C1.98 7.92 2.18 7.09 2.58 6.33C2.98 5.55 3.53 4.88 4.23 4.32C4.95 3.76 5.77 3.33 6.69 3.03C7.63 2.73 8.62 2.58 9.66 2.58C10.94 2.58 12.06 2.73 13.02 3.03C13.98 3.31 14.81 3.72 15.51 4.26C16.23 4.8 16.83 5.46 17.31 6.24L14.46 9C14.04 8.44 13.58 7.97 13.08 7.59C12.6 7.21 12.07 6.93 11.49 6.75C10.93 6.55 10.35 6.45 9.75 6.45C9.09 6.45 8.52 6.54 8.04 6.72C7.56 6.88 7.18 7.12 6.9 7.44C6.64 7.76 6.51 8.15 6.51 8.61C6.51 8.97 6.6 9.29 6.78 9.57C6.96 9.85 7.22 10.1 7.56 10.32C7.9 10.52 8.31 10.7 8.79 10.86C9.27 11.02 9.8 11.16 10.38 11.28C11.48 11.5 12.47 11.79 13.35 12.15C14.23 12.51 14.98 12.95 15.6 13.47C16.24 13.97 16.73 14.57 17.07 15.27C17.41 15.95 17.58 16.72 17.58 17.58C17.58 19 17.24 20.21 16.56 21.21C15.88 22.21 14.94 22.98 13.74 23.52C12.54 24.04 11.14 24.3 9.54 24.3ZM22.5858 24V4.11H26.8458V24H22.5858ZM19.6158 11.94V8.13H30.0858V11.94H19.6158ZM38.3224 24.3C37.1624 24.3 36.1624 24.05 35.3224 23.55C34.5024 23.03 33.8624 22.3 33.4024 21.36C32.9624 20.4 32.7424 19.25 32.7424 17.91V8.13H37.0024V17.22C37.0024 17.94 37.1224 18.57 37.3624 19.11C37.6024 19.63 37.9424 20.03 38.3824 20.31C38.8224 20.59 39.3624 20.73 40.0024 20.73C40.4624 20.73 40.8924 20.66 41.2924 20.52C41.6924 20.36 42.0324 20.14 42.3124 19.86C42.5924 19.58 42.8124 19.25 42.9724 18.87C43.1324 18.49 43.2124 18.08 43.2124 17.64V8.13H47.4724V24H43.4224L43.2724 20.73L44.0524 20.37C43.8124 21.11 43.4124 21.78 42.8524 22.38C42.2924 22.98 41.6224 23.45 40.8424 23.79C40.0624 24.13 39.2224 24.3 38.3224 24.3ZM57.9689 24.3C56.5889 24.3 55.3489 23.95 54.2489 23.25C53.1489 22.53 52.2789 21.56 51.6389 20.34C51.0189 19.1 50.7089 17.67 50.7089 16.05C50.7089 14.47 51.0189 13.06 51.6389 11.82C52.2789 10.58 53.1389 9.6 54.2189 8.88C55.3189 8.16 56.5689 7.8 57.9689 7.8C58.7089 7.8 59.4189 7.92 60.0989 8.16C60.7989 8.38 61.4189 8.69 61.9589 9.09C62.5189 9.49 62.9689 9.94 63.3089 10.44C63.6489 10.92 63.8389 11.43 63.8789 11.97L62.7989 12.15V1.8H67.0589V24H63.0389L62.8589 20.34L63.6989 20.43C63.6589 20.93 63.4789 21.41 63.1589 21.87C62.8389 22.33 62.4089 22.75 61.8689 23.13C61.3489 23.49 60.7489 23.78 60.0689 24C59.4089 24.2 58.7089 24.3 57.9689 24.3ZM58.9289 20.76C59.7289 20.76 60.4289 20.56 61.0289 20.16C61.6289 19.76 62.0989 19.21 62.4389 18.51C62.7789 17.81 62.9489 16.99 62.9489 16.05C62.9489 15.13 62.7789 14.32 62.4389 13.62C62.0989 12.9 61.6289 12.35 61.0289 11.97C60.4289 11.57 59.7289 11.37 58.9289 11.37C58.1289 11.37 57.4289 11.57 56.8289 11.97C56.2489 12.35 55.7889 12.9 55.4489 13.62C55.1289 14.32 54.9689 15.13 54.9689 16.05C54.9689 16.99 55.1289 17.81 55.4489 18.51C55.7889 19.21 56.2489 19.76 56.8289 20.16C57.4289 20.56 58.1289 20.76 58.9289 20.76ZM78.742 24.3C77.022 24.3 75.522 23.95 74.242 23.25C72.962 22.55 71.962 21.59 71.242 20.37C70.522 19.15 70.162 17.75 70.162 16.17C70.162 14.95 70.362 13.83 70.762 12.81C71.162 11.79 71.722 10.91 72.442 10.17C73.162 9.41 74.012 8.83 74.992 8.43C75.992 8.01 77.072 7.8 78.232 7.8C79.312 7.8 80.312 8 81.232 8.4C82.152 8.78 82.942 9.33 83.602 10.05C84.282 10.75 84.802 11.58 85.162 12.54C85.522 13.5 85.682 14.55 85.642 15.69L85.612 17.01H72.862L72.172 14.4H82.102L81.622 14.94V14.28C81.582 13.74 81.402 13.25 81.082 12.81C80.782 12.37 80.392 12.03 79.912 11.79C79.432 11.55 78.892 11.43 78.292 11.43C77.412 11.43 76.662 11.6 76.042 11.94C75.442 12.28 74.982 12.78 74.662 13.44C74.342 14.1 74.182 14.9 74.182 15.84C74.182 16.8 74.382 17.63 74.782 18.33C75.202 19.03 75.782 19.58 76.522 19.98C77.282 20.36 78.172 20.55 79.192 20.55C79.892 20.55 80.532 20.44 81.112 20.22C81.692 20 82.312 19.62 82.972 19.08L85.012 21.93C84.432 22.45 83.792 22.89 83.092 23.25C82.392 23.59 81.672 23.85 80.932 24.03C80.192 24.21 79.462 24.3 78.742 24.3ZM88.7902 24V8.13H92.8702L92.9902 11.37L92.1502 11.73C92.3702 11.01 92.7602 10.36 93.3202 9.78C93.9002 9.18 94.5902 8.7 95.3902 8.34C96.1902 7.98 97.0302 7.8 97.9102 7.8C99.1102 7.8 100.11 8.04 100.91 8.52C101.73 9 102.34 9.73 102.74 10.71C103.16 11.67 103.37 12.86 103.37 14.28V24H99.1102V14.61C99.1102 13.89 99.0102 13.29 98.8102 12.81C98.6102 12.33 98.3002 11.98 97.8802 11.76C97.4802 11.52 96.9802 11.42 96.3802 11.46C95.9002 11.46 95.4502 11.54 95.0302 11.7C94.6302 11.84 94.2802 12.05 93.9802 12.33C93.7002 12.61 93.4702 12.93 93.2902 13.29C93.1302 13.65 93.0502 14.04 93.0502 14.46V24H90.9502C90.4902 24 90.0802 24 89.7202 24C89.3602 24 89.0502 24 88.7902 24ZM108.982 24V4.11H113.242V24H108.982ZM106.012 11.94V8.13H116.482V11.94H106.012ZM135.028 24L126.658 3H131.428L135.808 14.37C136.048 14.99 136.248 15.54 136.408 16.02C136.588 16.48 136.738 16.92 136.858 17.34C136.998 17.74 137.128 18.14 137.248 18.54C137.368 18.92 137.488 19.34 137.608 19.8L136.738 19.83C136.898 19.21 137.058 18.64 137.218 18.12C137.378 17.58 137.558 17.02 137.758 16.44C137.958 15.86 138.208 15.17 138.508 14.37L142.648 3H147.388L138.958 24H135.028ZM156.962 24.3C155.662 24.3 154.472 24.14 153.392 23.82C152.332 23.5 151.382 23.03 150.542 22.41C149.722 21.79 148.982 21.04 148.322 20.16L151.142 16.95C152.122 18.31 153.092 19.24 154.052 19.74C155.032 20.22 156.092 20.46 157.232 20.46C157.852 20.46 158.402 20.38 158.882 20.22C159.382 20.04 159.772 19.79 160.052 19.47C160.332 19.15 160.472 18.77 160.472 18.33C160.472 18.01 160.402 17.72 160.262 17.46C160.122 17.18 159.922 16.94 159.662 16.74C159.402 16.52 159.092 16.33 158.732 16.17C158.372 15.99 157.972 15.84 157.532 15.72C157.092 15.58 156.612 15.47 156.092 15.39C154.972 15.13 153.992 14.82 153.152 14.46C152.312 14.08 151.612 13.62 151.052 13.08C150.492 12.52 150.072 11.89 149.792 11.19C149.532 10.49 149.402 9.7 149.402 8.82C149.402 7.92 149.602 7.09 150.002 6.33C150.402 5.55 150.952 4.88 151.652 4.32C152.372 3.76 153.192 3.33 154.112 3.03C155.052 2.73 156.042 2.58 157.082 2.58C158.362 2.58 159.482 2.73 160.442 3.03C161.402 3.31 162.232 3.72 162.932 4.26C163.652 4.8 164.252 5.46 164.732 6.24L161.882 9C161.462 8.44 161.002 7.97 160.502 7.59C160.022 7.21 159.492 6.93 158.912 6.75C158.352 6.55 157.772 6.45 157.172 6.45C156.512 6.45 155.942 6.54 155.462 6.72C154.982 6.88 154.602 7.12 154.322 7.44C154.062 7.76 153.932 8.15 153.932 8.61C153.932 8.97 154.022 9.29 154.202 9.57C154.382 9.85 154.642 10.1 154.982 10.32C155.322 10.52 155.732 10.7 156.212 10.86C156.692 11.02 157.222 11.16 157.802 11.28C158.902 11.5 159.892 11.79 160.772 12.15C161.652 12.51 162.402 12.95 163.022 13.47C163.662 13.97 164.152 14.57 164.492 15.27C164.832 15.95 165.002 16.72 165.002 17.58C165.002 19 164.662 20.21 163.982 21.21C163.302 22.21 162.362 22.98 161.162 23.52C159.962 24.04 158.562 24.3 156.962 24.3ZM182.657 24V7.05H176.537V3H193.457V7.05H187.157V24H182.657ZM201.115 24.3C199.395 24.3 197.895 23.95 196.615 23.25C195.335 22.55 194.335 21.59 193.615 20.37C192.895 19.15 192.535 17.75 192.535 16.17C192.535 14.95 192.735 13.83 193.135 12.81C193.535 11.79 194.095 10.91 194.815 10.17C195.535 9.41 196.385 8.83 197.365 8.43C198.365 8.01 199.445 7.8 200.605 7.8C201.685 7.8 202.685 8 203.605 8.4C204.525 8.78 205.315 9.33 205.975 10.05C206.655 10.75 207.175 11.58 207.535 12.54C207.895 13.5 208.055 14.55 208.015 15.69L207.985 17.01H195.235L194.545 14.4H204.475L203.995 14.94V14.28C203.955 13.74 203.775 13.25 203.455 12.81C203.155 12.37 202.765 12.03 202.285 11.79C201.805 11.55 201.265 11.43 200.665 11.43C199.785 11.43 199.035 11.6 198.415 11.94C197.815 12.28 197.355 12.78 197.035 13.44C196.715 14.1 196.555 14.9 196.555 15.84C196.555 16.8 196.755 17.63 197.155 18.33C197.575 19.03 198.155 19.58 198.895 19.98C199.655 20.36 200.545 20.55 201.565 20.55C202.265 20.55 202.905 20.44 203.485 20.22C204.065 20 204.685 19.62 205.345 19.08L207.385 21.93C206.805 22.45 206.165 22.89 205.465 23.25C204.765 23.59 204.045 23.85 203.305 24.03C202.565 24.21 201.835 24.3 201.115 24.3ZM217.103 24.3C215.783 24.3 214.593 23.94 213.533 23.22C212.473 22.5 211.633 21.52 211.013 20.28C210.393 19.04 210.083 17.62 210.083 16.02C210.083 14.42 210.393 13.01 211.013 11.79C211.653 10.55 212.513 9.58 213.593 8.88C214.673 8.16 215.903 7.8 217.283 7.8C218.063 7.8 218.773 7.92 219.413 8.16C220.073 8.38 220.643 8.69 221.123 9.09C221.623 9.49 222.043 9.95 222.383 10.47C222.723 10.99 222.963 11.55 223.103 12.15L222.203 12V8.13H226.433V24H222.143V20.19L223.103 20.1C222.943 20.66 222.683 21.19 222.323 21.69C221.963 22.19 221.513 22.64 220.973 23.04C220.453 23.42 219.863 23.73 219.203 23.97C218.543 24.19 217.843 24.3 217.103 24.3ZM218.273 20.61C219.073 20.61 219.773 20.42 220.373 20.04C220.973 19.66 221.433 19.13 221.753 18.45C222.093 17.75 222.263 16.94 222.263 16.02C222.263 15.12 222.093 14.33 221.753 13.65C221.433 12.97 220.973 12.44 220.373 12.06C219.773 11.66 219.073 11.46 218.273 11.46C217.493 11.46 216.803 11.66 216.203 12.06C215.623 12.44 215.163 12.97 214.823 13.65C214.483 14.33 214.313 15.12 214.313 16.02C214.313 16.94 214.483 17.75 214.823 18.45C215.163 19.13 215.623 19.66 216.203 20.04C216.803 20.42 217.493 20.61 218.273 20.61ZM237.604 24.3C236.084 24.3 234.724 23.94 233.524 23.22C232.324 22.5 231.374 21.52 230.674 20.28C229.994 19.04 229.654 17.63 229.654 16.05C229.654 14.49 229.994 13.09 230.674 11.85C231.374 10.59 232.324 9.6 233.524 8.88C234.724 8.16 236.084 7.8 237.604 7.8C239.024 7.8 240.324 8.06 241.504 8.58C242.684 9.1 243.604 9.82 244.264 10.74L241.924 13.56C241.644 13.18 241.294 12.84 240.874 12.54C240.454 12.22 239.994 11.97 239.494 11.79C239.014 11.61 238.514 11.52 237.994 11.52C237.174 11.52 236.444 11.72 235.804 12.12C235.184 12.5 234.694 13.03 234.334 13.71C233.974 14.39 233.794 15.17 233.794 16.05C233.794 16.91 233.974 17.68 234.334 18.36C234.714 19.02 235.224 19.56 235.864 19.98C236.504 20.38 237.224 20.58 238.024 20.58C238.544 20.58 239.034 20.51 239.494 20.37C239.954 20.21 240.384 19.98 240.784 19.68C241.204 19.38 241.584 19.02 241.924 18.6L244.234 21.42C243.554 22.28 242.614 22.98 241.414 23.52C240.214 24.04 238.944 24.3 237.604 24.3ZM246.964 24V1.8H251.164V11.37L250.324 11.73C250.544 11.01 250.934 10.36 251.494 9.78C252.074 9.18 252.764 8.7 253.564 8.34C254.364 7.98 255.204 7.8 256.084 7.8C257.284 7.8 258.284 8.04 259.084 8.52C259.904 9 260.514 9.73 260.914 10.71C261.334 11.67 261.544 12.86 261.544 14.28V24H257.284V14.61C257.284 13.89 257.184 13.29 256.984 12.81C256.784 12.33 256.474 11.98 256.054 11.76C255.654 11.52 255.154 11.42 254.554 11.46C254.074 11.46 253.624 11.54 253.204 11.7C252.804 11.84 252.454 12.05 252.154 12.33C251.874 12.61 251.644 12.93 251.464 13.29C251.304 13.65 251.224 14.04 251.224 14.46V24H249.124C248.664 24 248.254 24 247.894 24C247.534 24 247.224 24 246.964 24ZM273.156 24.3C271.436 24.3 269.936 23.95 268.656 23.25C267.376 22.55 266.376 21.59 265.656 20.37C264.936 19.15 264.576 17.75 264.576 16.17C264.576 14.95 264.776 13.83 265.176 12.81C265.576 11.79 266.136 10.91 266.856 10.17C267.576 9.41 268.426 8.83 269.406 8.43C270.406 8.01 271.486 7.8 272.646 7.8C273.726 7.8 274.726 8 275.646 8.4C276.566 8.78 277.356 9.33 278.016 10.05C278.696 10.75 279.216 11.58 279.576 12.54C279.936 13.5 280.096 14.55 280.056 15.69L280.026 17.01H267.276L266.586 14.4H276.516L276.036 14.94V14.28C275.996 13.74 275.816 13.25 275.496 12.81C275.196 12.37 274.806 12.03 274.326 11.79C273.846 11.55 273.306 11.43 272.706 11.43C271.826 11.43 271.076 11.6 270.456 11.94C269.856 12.28 269.396 12.78 269.076 13.44C268.756 14.1 268.596 14.9 268.596 15.84C268.596 16.8 268.796 17.63 269.196 18.33C269.616 19.03 270.196 19.58 270.936 19.98C271.696 20.36 272.586 20.55 273.606 20.55C274.306 20.55 274.946 20.44 275.526 20.22C276.106 20 276.726 19.62 277.386 19.08L279.426 21.93C278.846 22.45 278.206 22.89 277.506 23.25C276.806 23.59 276.086 23.85 275.346 24.03C274.606 24.21 273.876 24.3 273.156 24.3ZM283.204 24V8.13H287.314L287.464 13.23L286.744 12.18C286.984 11.36 287.374 10.62 287.914 9.96C288.454 9.28 289.084 8.75 289.804 8.37C290.544 7.99 291.314 7.8 292.114 7.8C292.454 7.8 292.784 7.83 293.104 7.89C293.424 7.95 293.694 8.02 293.914 8.1L292.774 12.78C292.534 12.66 292.244 12.56 291.904 12.48C291.564 12.38 291.214 12.33 290.854 12.33C290.374 12.33 289.924 12.42 289.504 12.6C289.104 12.76 288.754 13 288.454 13.32C288.154 13.62 287.914 13.98 287.734 14.4C287.574 14.82 287.494 15.28 287.494 15.78V24H283.204ZM312.128 24L303.758 3H308.528L312.908 14.37C313.148 14.99 313.348 15.54 313.508 16.02C313.688 16.48 313.838 16.92 313.958 17.34C314.098 17.74 314.228 18.14 314.348 18.54C314.468 18.92 314.588 19.34 314.708 19.8L313.838 19.83C313.998 19.21 314.158 18.64 314.318 18.12C314.478 17.58 314.658 17.02 314.858 16.44C315.058 15.86 315.308 15.17 315.608 14.37L319.748 3H324.488L316.058 24H312.128ZM327.304 24V8.13H331.564V24H327.304ZM329.404 4.86C328.584 4.86 327.944 4.66 327.484 4.26C327.024 3.86 326.794 3.29 326.794 2.55C326.794 1.87 327.024 1.32 327.484 0.899999C327.964 0.459998 328.604 0.239998 329.404 0.239998C330.224 0.239998 330.864 0.449999 331.324 0.869999C331.784 1.27 332.014 1.83 332.014 2.55C332.014 3.25 331.774 3.81 331.294 4.23C330.834 4.65 330.204 4.86 329.404 4.86ZM343.644 24.3C341.924 24.3 340.424 23.95 339.144 23.25C337.864 22.55 336.864 21.59 336.144 20.37C335.424 19.15 335.064 17.75 335.064 16.17C335.064 14.95 335.264 13.83 335.664 12.81C336.064 11.79 336.624 10.91 337.344 10.17C338.064 9.41 338.914 8.83 339.894 8.43C340.894 8.01 341.974 7.8 343.134 7.8C344.214 7.8 345.214 8 346.134 8.4C347.054 8.78 347.844 9.33 348.504 10.05C349.184 10.75 349.704 11.58 350.064 12.54C350.424 13.5 350.584 14.55 350.544 15.69L350.514 17.01H337.764L337.074 14.4H347.004L346.524 14.94V14.28C346.484 13.74 346.304 13.25 345.984 12.81C345.684 12.37 345.294 12.03 344.814 11.79C344.334 11.55 343.794 11.43 343.194 11.43C342.314 11.43 341.564 11.6 340.944 11.94C340.344 12.28 339.884 12.78 339.564 13.44C339.244 14.1 339.084 14.9 339.084 15.84C339.084 16.8 339.284 17.63 339.684 18.33C340.104 19.03 340.684 19.58 341.424 19.98C342.184 20.36 343.074 20.55 344.094 20.55C344.794 20.55 345.434 20.44 346.014 20.22C346.594 20 347.214 19.62 347.874 19.08L349.914 21.93C349.334 22.45 348.694 22.89 347.994 23.25C347.294 23.59 346.574 23.85 345.834 24.03C345.094 24.21 344.364 24.3 343.644 24.3ZM357.03 24L351.72 8.13H356.16L359.4 18.93L358.74 18.84L362.31 10.41H364.83L368.55 18.87L367.83 18.93L371.07 8.13H375.51L370.11 24H367.02L363.27 14.97L363.75 15.03L360.09 24H357.03Z" fill="#7079D1"/>
</svg>
