<svg width="1728" height="1117" viewBox="0 0 1728 1117" fill="none" xmlns="http://www.w3.org/2000/svg">
<g clip-path="url(#clip0_8_4)">
<rect width="1728" height="1117" fill="#FAFAFA"/>
<g filter="url(#filter0_d_8_4)">
<rect x="538" y="601" width="650" height="73" rx="36.5" fill="url(#paint0_linear_8_4)" fill-opacity="0.75" shape-rendering="crispEdges"/>
</g>
<path d="M723.443 656H719.575V622.734H723.443V656ZM738.858 623.24C737.897 626.779 736.549 630.41 734.813 634.134H732.033C733.111 629.719 733.886 625.919 734.358 622.734H738.504L738.858 623.24ZM782.441 656H778.675V639.771C778.675 635.811 776.93 633.831 773.442 633.831C771.083 633.831 769.339 634.505 768.209 635.853C767.097 637.202 766.541 639.274 766.541 642.072V656H762.775V639.771C762.775 637.766 762.345 636.275 761.486 635.297C760.626 634.32 759.303 633.831 757.517 633.831C755.124 633.831 753.38 634.547 752.284 635.98C751.206 637.395 750.667 639.713 750.667 642.931V656H746.875V631.076H749.959L750.565 634.488H750.742C751.467 633.275 752.478 632.331 753.776 631.657C755.073 630.966 756.523 630.621 758.124 630.621C762.016 630.621 764.561 632.028 765.758 634.842H765.96C766.718 633.528 767.797 632.5 769.195 631.758C770.611 631 772.212 630.621 773.998 630.621C776.863 630.621 778.986 631.354 780.368 632.82C781.75 634.286 782.441 636.595 782.441 639.746V656ZM805.711 649.15C805.711 650.498 806.124 651.534 806.95 652.259C807.776 652.983 808.93 653.346 810.413 653.346C812.789 653.346 814.643 652.705 815.974 651.425C817.305 650.127 817.971 648.315 817.971 645.99V643.74L814.205 643.892C811.205 644.01 809.039 644.482 807.708 645.307C806.377 646.133 805.711 647.414 805.711 649.15ZM821.763 656H818.957L818.199 652.461H818.022C816.775 654.011 815.536 655.065 814.306 655.621C813.075 656.177 811.534 656.455 809.68 656.455C807.186 656.455 805.239 655.815 803.841 654.534C802.459 653.253 801.768 651.442 801.768 649.099C801.768 644.077 805.787 641.44 813.825 641.187L818.072 641.061V639.519C818.072 637.53 817.651 636.081 816.808 635.171C815.966 634.244 814.558 633.781 812.587 633.781C810.632 633.781 808.34 634.413 805.711 635.676L804.548 632.795C807.177 631.362 809.992 630.646 812.991 630.646C815.991 630.646 818.199 631.312 819.614 632.643C821.047 633.974 821.763 636.089 821.763 638.988V656ZM862.306 647.153C862.306 650.085 861.245 652.368 859.121 654.003C857.015 655.638 854.057 656.455 850.249 656.455C846.457 656.455 843.499 655.949 841.376 654.938V651.197C844.376 652.444 847.46 653.068 850.628 653.068C853.172 653.068 855.102 652.587 856.416 651.627C857.748 650.666 858.413 649.293 858.413 647.507C858.413 646.361 858.178 645.425 857.706 644.701C857.251 643.976 856.475 643.294 855.38 642.653C854.285 642.013 852.642 641.305 850.451 640.53C847.367 639.434 845.151 638.128 843.803 636.612C842.471 635.095 841.806 633.081 841.806 630.57C841.806 628.059 842.766 626.046 844.687 624.529C846.642 623.012 849.229 622.254 852.448 622.254C855.683 622.254 858.691 622.86 861.472 624.074L860.259 627.461C857.512 626.298 854.849 625.717 852.271 625.717C850.215 625.717 848.606 626.163 847.443 627.057C846.297 627.933 845.724 629.146 845.724 630.697C845.724 631.876 845.926 632.82 846.331 633.528C846.752 634.236 847.476 634.918 848.504 635.575C849.566 636.216 851.117 636.89 853.156 637.598C856.661 638.845 859.054 640.184 860.335 641.617C861.649 643.032 862.306 644.878 862.306 647.153ZM872.624 648.669C872.624 650.169 872.97 651.324 873.661 652.132C874.368 652.941 875.329 653.346 876.542 653.346C877.773 653.346 878.935 653.194 880.031 652.891V655.772C879.643 655.958 879.028 656.118 878.185 656.253C877.36 656.388 876.652 656.455 876.062 656.455C871.242 656.455 868.833 653.919 868.833 648.846V634.008H865.268V632.188L868.833 630.621L870.425 625.287H872.624V631.076H879.854V634.008H872.624V648.669ZM884.757 631.076H888.574V647.254C888.574 649.293 889.037 650.81 889.964 651.804C890.908 652.798 892.357 653.295 894.312 653.295C896.924 653.295 898.828 652.579 900.025 651.147C901.221 649.714 901.819 647.389 901.819 644.17V631.076H905.611V656H902.502L901.946 652.663H901.744C900.968 653.877 899.898 654.812 898.533 655.469C897.168 656.126 895.601 656.455 893.832 656.455C890.765 656.455 888.481 655.73 886.981 654.281C885.498 652.815 884.757 650.515 884.757 647.38V631.076ZM917.92 636.359C916.74 638.061 916.151 640.496 916.151 643.664C916.151 646.832 916.732 649.234 917.895 650.869C919.074 652.486 920.793 653.295 923.052 653.295C925.63 653.295 927.5 652.596 928.663 651.197C929.826 649.782 930.407 647.515 930.407 644.397V643.614C930.407 640.058 929.818 637.53 928.638 636.03C927.458 634.531 925.579 633.781 923.001 633.781C920.793 633.781 919.1 634.64 917.92 636.359ZM930.407 652.663C928.655 655.191 926.093 656.455 922.723 656.455C919.369 656.455 916.783 655.343 914.963 653.118C913.143 650.86 912.233 647.684 912.233 643.588C912.233 639.493 913.143 636.308 914.963 634.033C916.783 631.758 919.353 630.621 922.672 630.621C926.009 630.621 928.571 631.843 930.357 634.286H930.66L930.483 632.491L930.407 630.747V620.611H934.174V656H931.115L930.61 652.663H930.407ZM952.679 656.455C948.989 656.455 946.073 655.334 943.933 653.093C941.81 650.852 940.748 647.726 940.748 643.715C940.748 639.704 941.734 636.519 943.706 634.16C945.711 631.8 948.323 630.621 951.542 630.621C954.777 630.621 957.305 631.649 959.125 633.705C960.945 635.761 961.855 638.465 961.855 641.819V644.22H944.666C944.751 647.136 945.492 649.36 946.891 650.894C948.289 652.411 950.303 653.169 952.932 653.169C955.578 653.169 958.19 652.604 960.768 651.475V654.837C959.471 655.41 958.215 655.823 957.002 656.076C955.789 656.329 954.348 656.455 952.679 656.455ZM957.811 641.137C957.811 638.76 957.28 636.94 956.218 635.676C955.157 634.413 953.632 633.781 951.643 633.781C949.671 633.781 948.079 634.429 946.865 635.727C945.669 637.025 944.97 638.828 944.767 641.137H957.811ZM989.116 656H985.324V639.873C985.324 637.817 984.861 636.3 983.934 635.323C983.007 634.328 981.566 633.831 979.611 633.831C976.999 633.831 975.087 634.539 973.873 635.954C972.66 637.353 972.053 639.679 972.053 642.931V656H968.262V631.076H971.345L971.952 634.488H972.129C972.904 633.275 973.991 632.331 975.39 631.657C976.789 630.966 978.347 630.621 980.066 630.621C983.1 630.621 985.366 631.354 986.866 632.82C988.366 634.286 989.116 636.595 989.116 639.746V656ZM1000.94 648.669C1000.94 650.169 1001.29 651.324 1001.98 652.132C1002.69 652.941 1003.65 653.346 1004.86 653.346C1006.09 653.346 1007.26 653.194 1008.35 652.891V655.772C1007.96 655.958 1007.35 656.118 1006.51 656.253C1005.68 656.388 1004.97 656.455 1004.38 656.455C999.563 656.455 997.153 653.919 997.153 648.846V634.008H993.589V632.188L997.153 630.621L998.745 625.287H1000.94V631.076H1008.17V634.008H1000.94V648.669Z" fill="#FAFAFA"/>
<g filter="url(#filter1_d_8_4)">
<rect x="538" y="728" width="650" height="73" rx="36.5" fill="url(#paint1_linear_8_4)" fill-opacity="0.75" shape-rendering="crispEdges"/>
</g>
<path d="M723.443 778H719.575V744.734H723.443V778ZM738.858 745.24C737.897 748.779 736.549 752.41 734.813 756.134H732.033C733.111 751.719 733.886 747.919 734.358 744.734H738.504L738.858 745.24ZM782.441 778H778.675V761.771C778.675 757.811 776.93 755.831 773.442 755.831C771.083 755.831 769.339 756.505 768.209 757.853C767.097 759.202 766.541 761.274 766.541 764.072V778H762.775V761.771C762.775 759.766 762.345 758.275 761.486 757.297C760.626 756.32 759.303 755.831 757.517 755.831C755.124 755.831 753.38 756.547 752.284 757.98C751.206 759.395 750.667 761.713 750.667 764.931V778H746.875V753.076H749.959L750.565 756.488H750.742C751.467 755.275 752.478 754.331 753.776 753.657C755.073 752.966 756.523 752.621 758.124 752.621C762.016 752.621 764.561 754.028 765.758 756.842H765.96C766.718 755.528 767.797 754.5 769.195 753.758C770.611 753 772.212 752.621 773.998 752.621C776.863 752.621 778.986 753.354 780.368 754.82C781.75 756.286 782.441 758.595 782.441 761.746V778ZM805.711 771.15C805.711 772.498 806.124 773.534 806.95 774.259C807.776 774.983 808.93 775.346 810.413 775.346C812.789 775.346 814.643 774.705 815.974 773.425C817.305 772.127 817.971 770.315 817.971 767.99V765.74L814.205 765.892C811.205 766.01 809.039 766.482 807.708 767.307C806.377 768.133 805.711 769.414 805.711 771.15ZM821.763 778H818.957L818.199 774.461H818.022C816.775 776.011 815.536 777.065 814.306 777.621C813.075 778.177 811.534 778.455 809.68 778.455C807.186 778.455 805.239 777.815 803.841 776.534C802.459 775.253 801.768 773.442 801.768 771.099C801.768 766.077 805.787 763.44 813.825 763.187L818.072 763.061V761.519C818.072 759.53 817.651 758.081 816.808 757.171C815.966 756.244 814.558 755.781 812.587 755.781C810.632 755.781 808.34 756.413 805.711 757.676L804.548 754.795C807.177 753.362 809.992 752.646 812.991 752.646C815.991 752.646 818.199 753.312 819.614 754.643C821.047 755.974 821.763 758.089 821.763 760.988V778ZM853.788 748.172V778H849.92V748.172H839.379V744.734H864.329V748.172H853.788ZM876.019 778.455C872.329 778.455 869.413 777.334 867.273 775.093C865.15 772.852 864.088 769.726 864.088 765.715C864.088 761.704 865.074 758.519 867.046 756.16C869.051 753.8 871.663 752.621 874.882 752.621C878.117 752.621 880.645 753.649 882.465 755.705C884.285 757.761 885.195 760.465 885.195 763.819V766.22H868.006C868.09 769.136 868.832 771.36 870.231 772.894C871.629 774.411 873.643 775.169 876.272 775.169C878.918 775.169 881.53 774.604 884.108 773.475V776.837C882.811 777.41 881.555 777.823 880.342 778.076C879.128 778.329 877.688 778.455 876.019 778.455ZM881.151 763.137C881.151 760.76 880.62 758.94 879.558 757.676C878.497 756.413 876.971 755.781 874.983 755.781C873.011 755.781 871.419 756.429 870.205 757.727C869.009 759.025 868.309 760.828 868.107 763.137H881.151ZM893.699 771.15C893.699 772.498 894.112 773.534 894.938 774.259C895.764 774.983 896.918 775.346 898.401 775.346C900.777 775.346 902.631 774.705 903.962 773.425C905.294 772.127 905.959 770.315 905.959 767.99V765.74L902.193 765.892C899.193 766.01 897.028 766.482 895.696 767.307C894.365 768.133 893.699 769.414 893.699 771.15ZM909.751 778H906.945L906.187 774.461H906.01C904.763 776.011 903.524 777.065 902.294 777.621C901.064 778.177 899.522 778.455 897.668 778.455C895.174 778.455 893.228 777.815 891.829 776.534C890.447 775.253 889.756 773.442 889.756 771.099C889.756 766.077 893.775 763.44 901.814 763.187L906.06 763.061V761.519C906.06 759.53 905.639 758.081 904.797 757.171C903.954 756.244 902.547 755.781 900.575 755.781C898.62 755.781 896.328 756.413 893.699 757.676L892.537 754.795C895.166 753.362 897.98 752.646 900.98 752.646C903.979 752.646 906.187 753.312 907.602 754.643C909.035 755.974 909.751 758.089 909.751 760.988V778ZM927.514 778.455C923.891 778.455 921.085 777.343 919.096 775.118C917.125 772.894 916.139 769.734 916.139 765.639C916.139 761.527 917.141 758.325 919.147 756.033C921.169 753.758 924.034 752.621 927.741 752.621C928.955 752.621 930.16 752.747 931.356 753C932.553 753.253 933.488 753.556 934.162 753.91L932.999 757.12C931.129 756.345 929.351 755.958 927.666 755.958C922.593 755.958 920.057 759.185 920.057 765.639C920.057 768.723 920.68 771.082 921.927 772.717C923.175 774.352 925.003 775.169 927.413 775.169C929.469 775.169 931.601 774.714 933.808 773.804V777.166C932.14 778.025 930.042 778.455 927.514 778.455ZM960.551 778H956.76V761.873C956.76 759.817 956.296 758.3 955.369 757.323C954.443 756.328 953.002 755.831 951.047 755.831C948.401 755.831 946.48 756.547 945.284 757.98C944.087 759.412 943.489 761.738 943.489 764.957V778H939.697V742.611H943.489V753.329C943.489 754.677 943.43 755.738 943.312 756.514H943.539C944.298 755.3 945.359 754.357 946.724 753.683C948.106 752.992 949.665 752.646 951.401 752.646C954.485 752.646 956.777 753.379 958.276 754.845C959.793 756.311 960.551 758.612 960.551 761.746V778ZM978.851 778.455C975.161 778.455 972.245 777.334 970.105 775.093C967.982 772.852 966.92 769.726 966.92 765.715C966.92 761.704 967.906 758.519 969.878 756.16C971.883 753.8 974.495 752.621 977.714 752.621C980.949 752.621 983.477 753.649 985.297 755.705C987.117 757.761 988.027 760.465 988.027 763.819V766.22H970.838C970.922 769.136 971.664 771.36 973.063 772.894C974.461 774.411 976.475 775.169 979.104 775.169C981.75 775.169 984.362 774.604 986.94 773.475V776.837C985.643 777.41 984.387 777.823 983.174 778.076C981.96 778.329 980.52 778.455 978.851 778.455ZM983.983 763.137C983.983 760.76 983.452 758.94 982.39 757.676C981.329 756.413 979.803 755.781 977.815 755.781C975.843 755.781 974.251 756.429 973.037 757.727C971.841 759.025 971.141 760.828 970.939 763.137H983.983ZM1005.81 752.621C1006.95 752.621 1007.95 752.705 1008.79 752.874L1008.29 756.387C1007.29 756.168 1006.38 756.059 1005.56 756.059C1003.53 756.059 1001.81 756.876 1000.37 758.511C998.941 760.145 998.225 762.184 998.225 764.628V778H994.433V753.076H997.568L997.998 757.676H998.175C999.101 756.042 1000.21 754.795 1001.51 753.935C1002.83 753.059 1004.26 752.621 1005.81 752.621Z" fill="#FAFAFA"/>
<g filter="url(#filter2_f_8_4)">
<circle cx="863.5" cy="421.5" r="137.5" fill="#D9D9D9"/>
</g>
<g filter="url(#filter3_f_8_4)">
<ellipse cx="1700.5" cy="-23" rx="308.5" ry="307" fill="#EAEAEA"/>
</g>
<g filter="url(#filter4_f_8_4)">
<ellipse cx="0.5" cy="1117" rx="308.5" ry="307" fill="#EAEAEA"/>
</g>
<path d="M784.2 381.409C784.2 350.255 809.455 325 840.609 325H982C982 356.154 956.745 381.409 925.591 381.409H784.2Z" fill="#7079D1"/>
<path d="M746 460.591H943.8V465.719C943.8 494.041 920.84 517 892.518 517H802.409C771.255 517 746 491.745 746 460.591Z" fill="#7079D1"/>
<rect x="784.2" y="396.474" width="163.484" height="49.0511" rx="15" fill="#CBD1E9"/>
</g>
<defs>
<filter id="filter0_d_8_4" x="534" y="601" width="658" height="81" filterUnits="userSpaceOnUse" color-interpolation-filters="sRGB">
<feFlood flood-opacity="0" result="BackgroundImageFix"/>
<feColorMatrix in="SourceAlpha" type="matrix" values="0 0 0 0 0 0 0 0 0 0 0 0 0 0 0 0 0 0 127 0" result="hardAlpha"/>
<feOffset dy="4"/>
<feGaussianBlur stdDeviation="2"/>
<feComposite in2="hardAlpha" operator="out"/>
<feColorMatrix type="matrix" values="0 0 0 0 0 0 0 0 0 0 0 0 0 0 0 0 0 0 0.25 0"/>
<feBlend mode="normal" in2="BackgroundImageFix" result="effect1_dropShadow_8_4"/>
<feBlend mode="normal" in="SourceGraphic" in2="effect1_dropShadow_8_4" result="shape"/>
</filter>
<filter id="filter1_d_8_4" x="534" y="728" width="658" height="81" filterUnits="userSpaceOnUse" color-interpolation-filters="sRGB">
<feFlood flood-opacity="0" result="BackgroundImageFix"/>
<feColorMatrix in="SourceAlpha" type="matrix" values="0 0 0 0 0 0 0 0 0 0 0 0 0 0 0 0 0 0 127 0" result="hardAlpha"/>
<feOffset dy="4"/>
<feGaussianBlur stdDeviation="2"/>
<feComposite in2="hardAlpha" operator="out"/>
<feColorMatrix type="matrix" values="0 0 0 0 0 0 0 0 0 0 0 0 0 0 0 0 0 0 0.25 0"/>
<feBlend mode="normal" in2="BackgroundImageFix" result="effect1_dropShadow_8_4"/>
<feBlend mode="normal" in="SourceGraphic" in2="effect1_dropShadow_8_4" result="shape"/>
</filter>
<filter id="filter2_f_8_4" x="326" y="-116" width="1075" height="1075" filterUnits="userSpaceOnUse" color-interpolation-filters="sRGB">
<feFlood flood-opacity="0" result="BackgroundImageFix"/>
<feBlend mode="normal" in="SourceGraphic" in2="BackgroundImageFix" result="shape"/>
<feGaussianBlur stdDeviation="200" result="effect1_foregroundBlur_8_4"/>
</filter>
<filter id="filter3_f_8_4" x="992" y="-730" width="1417" height="1414" filterUnits="userSpaceOnUse" color-interpolation-filters="sRGB">
<feFlood flood-opacity="0" result="BackgroundImageFix"/>
<feBlend mode="normal" in="SourceGraphic" in2="BackgroundImageFix" result="shape"/>
<feGaussianBlur stdDeviation="200" result="effect1_foregroundBlur_8_4"/>
</filter>
<filter id="filter4_f_8_4" x="-708" y="410" width="1417" height="1414" filterUnits="userSpaceOnUse" color-interpolation-filters="sRGB">
<feFlood flood-opacity="0" result="BackgroundImageFix"/>
<feBlend mode="normal" in="SourceGraphic" in2="BackgroundImageFix" result="shape"/>
<feGaussianBlur stdDeviation="200" result="effect1_foregroundBlur_8_4"/>
</filter>
<linearGradient id="paint0_linear_8_4" x1="863" y1="601" x2="1388" y2="601" gradientUnits="userSpaceOnUse">
<stop stop-color="#545FD1"/>
<stop offset="1" stop-color="#8B95F4" stop-opacity="0"/>
</linearGradient>
<linearGradient id="paint1_linear_8_4" x1="863" y1="728" x2="1388" y2="728" gradientUnits="userSpaceOnUse">
<stop stop-color="#545FD1"/>
<stop offset="1" stop-color="#8B95F4" stop-opacity="0"/>
</linearGradient>
<clipPath id="clip0_8_4">
<rect width="1728" height="1117" fill="white"/>
</clipPath>
</defs>
</svg>
