<svg width="100" height="100" viewBox="0 0 100 100" fill="none" xmlns="http://www.w3.org/2000/svg">
<path d="M97 50C97 75.9574 75.9574 97 50 97C24.0426 97 3 75.9574 3 50C3 24.0426 24.0426 3 50 3C75.9574 3 97 24.0426 97 50Z" fill="url(#paint0_linear_602_5)"/>
<path d="M49.9714 43.7914C51.9102 41.8103 54.4347 40.5143 57.3714 40.5143C60.4555 40.5143 63.4133 41.7394 65.5941 43.9202C67.7749 46.101 69 49.0588 69 52.1429V68H64.7714V52.1429C64.7714 50.1803 63.9918 48.298 62.604 46.9103C61.2162 45.5225 59.334 44.7429 57.3714 44.7429C55.4088 44.7429 53.5266 45.5225 52.1388 46.9103C50.7511 48.298 49.9714 50.1803 49.9714 52.1429V68H45.7429V41.5714H49.9714V43.7914ZM35.1714 37.3429C34.3303 37.3429 33.5236 37.0087 32.9289 36.414C32.3341 35.8192 32 35.0125 32 34.1714C32 33.3303 32.3341 32.5236 32.9289 31.9289C33.5236 31.3341 34.3303 31 35.1714 31C36.0125 31 36.8192 31.3341 37.414 31.9289C38.0087 32.5236 38.3429 33.3303 38.3429 34.1714C38.3429 35.0125 38.0087 35.8192 37.414 36.414C36.8192 37.0087 36.0125 37.3429 35.1714 37.3429ZM33.0571 41.5714H37.2857V68H33.0571V41.5714Z" fill="#333333"/>
<path d="M50 98.5C76.7858 98.5 98.5 76.7858 98.5 50C98.5 23.2142 76.7858 1.5 50 1.5C23.2142 1.5 1.5 23.2142 1.5 50C1.5 76.7858 23.2142 98.5 50 98.5Z" stroke="black" stroke-width="3"/>
<defs>
<linearGradient id="paint0_linear_602_5" x1="50" y1="3" x2="50" y2="97" gradientUnits="userSpaceOnUse">
<stop stop-color="#D6EBFE"/>
<stop offset="1" stop-color="#FBFCF9"/>
</linearGradient>
</defs>
</svg>
