<svg width="112" height="138" viewBox="0 0 112 138" fill="none" xmlns="http://www.w3.org/2000/svg">
<g filter="url(#filter0_d_508_197)">
<path d="M14.112 122.32C12.8107 122.32 11.616 122.16 10.528 121.84C9.44 121.499 8.45867 120.997 7.584 120.336C6.70933 119.675 5.93067 118.875 5.248 117.936L7.968 114.864C9.01333 116.315 10.0373 117.317 11.04 117.872C12.0427 118.427 13.1733 118.704 14.432 118.704C15.1573 118.704 15.8187 118.597 16.416 118.384C17.0133 118.149 17.4827 117.84 17.824 117.456C18.1653 117.051 18.336 116.592 18.336 116.08C18.336 115.717 18.2613 115.387 18.112 115.088C17.984 114.768 17.7813 114.491 17.504 114.256C17.2267 114 16.8853 113.765 16.48 113.552C16.0747 113.339 15.616 113.157 15.104 113.008C14.592 112.859 14.0267 112.72 13.408 112.592C12.2347 112.357 11.2107 112.048 10.336 111.664C9.46133 111.259 8.72533 110.768 8.128 110.192C7.53067 109.595 7.09333 108.933 6.816 108.208C6.53867 107.461 6.4 106.619 6.4 105.68C6.4 104.741 6.60267 103.877 7.008 103.088C7.43467 102.299 8.01067 101.616 8.736 101.04C9.46133 100.464 10.304 100.016 11.264 99.696C12.224 99.376 13.2587 99.216 14.368 99.216C15.6267 99.216 16.7467 99.3653 17.728 99.664C18.7307 99.9627 19.6053 100.411 20.352 101.008C21.12 101.584 21.7493 102.288 22.24 103.12L19.488 105.84C19.0613 105.179 18.5813 104.635 18.048 104.208C17.5147 103.76 16.9387 103.429 16.32 103.216C15.7013 102.981 15.0507 102.864 14.368 102.864C13.6 102.864 12.928 102.971 12.352 103.184C11.7973 103.397 11.36 103.707 11.04 104.112C10.72 104.496 10.56 104.965 10.56 105.52C10.56 105.947 10.656 106.331 10.848 106.672C11.04 106.992 11.3067 107.28 11.648 107.536C12.0107 107.792 12.4693 108.016 13.024 108.208C13.5787 108.4 14.208 108.571 14.912 108.72C16.0853 108.955 17.1413 109.275 18.08 109.68C19.0187 110.064 19.8187 110.533 20.48 111.088C21.1413 111.621 21.6427 112.24 21.984 112.944C22.3253 113.627 22.496 114.395 22.496 115.248C22.496 116.72 22.144 117.989 21.44 119.056C20.7573 120.101 19.7867 120.912 18.528 121.488C17.2693 122.043 15.7973 122.32 14.112 122.32ZM26.3665 129.04V105.136H30.2385L30.3025 108.976L29.6305 108.688C29.7585 108.027 30.1212 107.408 30.7185 106.832C31.3158 106.235 32.0412 105.755 32.8945 105.392C33.7692 105.029 34.6758 104.848 35.6145 104.848C37.1078 104.848 38.4305 105.221 39.5825 105.968C40.7558 106.715 41.6732 107.739 42.3345 109.04C43.0172 110.341 43.3585 111.845 43.3585 113.552C43.3585 115.237 43.0172 116.741 42.3345 118.064C41.6732 119.365 40.7558 120.4 39.5825 121.168C38.4305 121.915 37.1292 122.288 35.6785 122.288C34.6972 122.288 33.7478 122.096 32.8305 121.712C31.9345 121.328 31.1665 120.827 30.5265 120.208C29.9078 119.589 29.5238 118.939 29.3745 118.256L30.3345 117.808V129.04H26.3665ZM34.8785 118.8C35.7745 118.8 36.5745 118.576 37.2785 118.128C37.9825 117.68 38.5265 117.061 38.9105 116.272C39.3158 115.483 39.5185 114.576 39.5185 113.552C39.5185 112.528 39.3265 111.632 38.9425 110.864C38.5585 110.075 38.0145 109.456 37.3105 109.008C36.6065 108.56 35.7958 108.336 34.8785 108.336C33.9398 108.336 33.1185 108.56 32.4145 109.008C31.7318 109.435 31.1878 110.043 30.7825 110.832C30.3772 111.621 30.1745 112.528 30.1745 113.552C30.1745 114.576 30.3772 115.483 30.7825 116.272C31.1878 117.061 31.7318 117.68 32.4145 118.128C33.1185 118.576 33.9398 118.8 34.8785 118.8ZM46.8985 122V98.32H50.8665V122H46.8985ZM57.5828 129.36L61.1667 121.072L61.1988 123.696L52.8788 105.136H57.4227L62.0628 116.144C62.2121 116.421 62.3614 116.795 62.5108 117.264C62.6601 117.712 62.7881 118.16 62.8948 118.608L62.0948 118.864C62.2441 118.459 62.4041 118.032 62.5748 117.584C62.7454 117.115 62.9054 116.635 63.0548 116.144L67.0228 105.136H71.5988L64.5588 122L61.6788 129.36H57.5828ZM75.878 122V100.848H79.814V122H75.878ZM72.55 108.784V105.136H83.494V108.784H72.55ZM86.4915 122V105.136H90.3635L90.4275 110.512L89.8835 109.296C90.1182 108.443 90.5235 107.675 91.0995 106.992C91.6755 106.309 92.3368 105.776 93.0835 105.392C93.8515 104.987 94.6515 104.784 95.4835 104.784C95.8462 104.784 96.1875 104.816 96.5075 104.88C96.8488 104.944 97.1262 105.019 97.3395 105.104L96.2835 109.424C96.0488 109.296 95.7608 109.189 95.4195 109.104C95.0782 109.019 94.7368 108.976 94.3955 108.976C93.8622 108.976 93.3502 109.083 92.8595 109.296C92.3902 109.488 91.9742 109.765 91.6115 110.128C91.2488 110.491 90.9608 110.917 90.7475 111.408C90.5555 111.877 90.4595 112.411 90.4595 113.008V122H86.4915Z" fill="#545FD1"/>
</g>
<path d="M18.0072 23.9832C18.0072 10.7376 28.7448 0 41.9904 0H111.248V0C111.248 13.2456 100.51 23.9832 87.2645 23.9832H18.0072V23.9832Z" fill="#7079D1"/>
<path d="M0 57.6492H93.2405V57.6492C93.2405 70.8947 82.5029 81.6324 69.2573 81.6324H23.9832C10.7377 81.6324 0 70.8947 0 57.6492V57.6492Z" fill="#7079D1"/>
<rect x="18.0072" y="30.3889" width="77.0646" height="20.855" rx="10.4275" fill="#CBD1E9"/>
<defs>
<filter id="filter0_d_508_197" x="1.24799" y="98.3201" width="100.092" height="39.04" filterUnits="userSpaceOnUse" color-interpolation-filters="sRGB">
<feFlood flood-opacity="0" result="BackgroundImageFix"/>
<feColorMatrix in="SourceAlpha" type="matrix" values="0 0 0 0 0 0 0 0 0 0 0 0 0 0 0 0 0 0 127 0" result="hardAlpha"/>
<feOffset dy="4"/>
<feGaussianBlur stdDeviation="2"/>
<feComposite in2="hardAlpha" operator="out"/>
<feColorMatrix type="matrix" values="0 0 0 0 0 0 0 0 0 0 0 0 0 0 0 0 0 0 0.25 0"/>
<feBlend mode="normal" in2="BackgroundImageFix" result="effect1_dropShadow_508_197"/>
<feBlend mode="normal" in="SourceGraphic" in2="effect1_dropShadow_508_197" result="shape"/>
</filter>
</defs>
</svg>
